<svg width="316" height="78" viewBox="0 0 316 78" fill="none" xmlns="http://www.w3.org/2000/svg">
<g filter="url(#filter0_d_1128_4739)">
<rect x="4" y="4" width="308" height="70" rx="10" fill="white" shape-rendering="crispEdges"/>
<path d="M49.106 43.8767C48.9099 43.8613 48.7202 43.7633 48.5792 43.5738C48.3067 43.2076 48.351 42.6402 48.6772 42.3208L62.1156 29.1587C62.4418 28.8393 62.9372 28.878 63.2098 29.2442C63.4823 29.6104 63.438 30.1778 63.1118 30.4972L49.6724 43.6712C49.515 43.8254 49.3021 43.892 49.106 43.8767Z" fill="#E36B08"/>
<path d="M58.7999 48.3733C58.5466 48.3733 58.2932 48.2799 58.0932 48.0799C57.7066 47.6933 57.7066 47.0533 58.0932 46.6666L59.6932 45.0666C60.0799 44.6799 60.7199 44.6799 61.1066 45.0666C61.4932 45.4533 61.4932 46.0933 61.1066 46.4799L59.5066 48.0799C59.3199 48.2666 59.0666 48.3733 58.7999 48.3733Z" fill="#E36B08"/>
<path d="M62.3868 44.7866C62.1335 44.7866 61.8801 44.6933 61.6801 44.4933C61.2935 44.1066 61.2935 43.4666 61.6801 43.0799L64.8668 39.8933C65.2535 39.5066 65.8935 39.5066 66.2801 39.8933C66.6668 40.2799 66.6668 40.9199 66.2801 41.3066L63.0935 44.4933C62.9068 44.6799 62.6401 44.7866 62.3868 44.7866Z" fill="#E36B08"/>
<path d="M58.8 53.3334C57.4934 53.3334 56.1867 52.5334 54.6 50.9467L48.0534 44.4C44.8667 41.2134 44.88 39.16 48.0934 35.9467L56.9467 27.0934C60.16 23.88 62.2134 23.8667 65.4 27.0534L71.9467 33.6C75.1334 36.7867 75.12 38.84 71.9067 42.0534L63.0534 50.9067C61.44 52.5201 60.12 53.3334 58.8 53.3334ZM61.2 26.6667C60.5067 26.6667 59.6267 27.24 58.36 28.5067L49.5067 37.36C48.24 38.6267 47.6667 39.5067 47.6667 40.1867C47.6667 40.88 48.2 41.72 49.4667 42.9867L56.0134 49.5334C57.28 50.8 58.1067 51.3334 58.8 51.3334C58.8 51.3334 58.8 51.3334 58.8134 51.3334C59.5067 51.3334 60.3734 50.76 61.64 49.4934L70.4934 40.64C71.76 39.3734 72.3334 38.4934 72.3334 37.8134C72.3334 37.12 71.8 36.28 70.5334 35.0134L63.9867 28.4667C62.7334 27.2 61.8934 26.6667 61.2 26.6667Z" fill="#E36B08"/>
<path d="M73.3332 53.3333H46.6665C46.1198 53.3333 45.6665 52.8799 45.6665 52.3333C45.6665 51.7866 46.1198 51.3333 46.6665 51.3333H73.3332C73.8798 51.3333 74.3332 51.7866 74.3332 52.3333C74.3332 52.8799 73.8798 53.3333 73.3332 53.3333Z" fill="#E36B08"/>
<path d="M113.544 51.624C113.587 51.7307 113.555 51.88 113.448 52.072C113.277 52.0933 113.096 52.0933 112.904 52.072C112.733 52.0293 112.563 51.9867 112.392 51.944C112.115 52.0507 111.923 52.1253 111.816 52.168C111.731 52.2107 111.645 52.232 111.56 52.232C111.475 52.2107 111.304 52.2 111.048 52.2C110.984 52.2213 110.92 52.2533 110.856 52.296C110.813 52.3387 110.749 52.3813 110.664 52.424C110.664 52.424 110.653 52.4347 110.632 52.456C110.632 52.456 110.621 52.456 110.6 52.456C110.387 52.456 110.173 52.4667 109.96 52.488C109.747 52.488 109.544 52.488 109.352 52.488C109.224 52.36 109.139 52.264 109.096 52.2C109.075 52.136 109.032 51.9867 108.968 51.752C108.925 51.624 108.829 51.4747 108.68 51.304C108.467 51.0693 108.243 50.7493 108.008 50.344C107.795 49.9387 107.624 49.5973 107.496 49.32L107.336 49.16C107.251 49.16 107.187 49.1813 107.144 49.224C106.803 49.4373 106.483 49.4693 106.184 49.32C105.992 49.2773 105.8 49.256 105.608 49.256C105.437 49.256 105.256 49.256 105.064 49.256C104.915 49.2347 104.765 49.2347 104.616 49.256C104.467 49.2773 104.307 49.288 104.136 49.288C104.008 49.288 103.869 49.288 103.72 49.288C103.592 49.2667 103.464 49.256 103.336 49.256C103.165 49.2773 102.984 49.3093 102.792 49.352C102.621 49.3947 102.451 49.4587 102.28 49.544C102.131 49.6293 101.971 49.6827 101.8 49.704C101.651 49.7253 101.491 49.7467 101.32 49.768C101.085 49.768 100.851 49.8 100.616 49.864C100.403 49.9067 100.179 49.96 99.944 50.024C99.88 50.0453 99.8053 50.0773 99.72 50.12C99.656 50.1413 99.6027 50.1947 99.56 50.28C99.56 50.3867 99.5493 50.504 99.528 50.632C99.528 50.7387 99.528 50.856 99.528 50.984C99.464 51.176 99.4213 51.3787 99.4 51.592C99.3147 51.8907 99.176 52.1467 98.984 52.36C98.8133 52.5733 98.632 52.7867 98.44 53C98.3547 53 98.2693 53 98.184 53C98.12 52.9787 98.0453 52.968 97.96 52.968C97.896 52.968 97.8213 52.9787 97.736 53C97.672 53 97.5973 53.0107 97.512 53.032C97.2773 53.0533 97.032 53.0213 96.776 52.936C96.7547 52.9147 96.7333 52.9147 96.712 52.936C96.712 52.936 96.6907 52.936 96.648 52.936H96.488L96.424 52.904C96.4027 52.8613 96.3707 52.8507 96.328 52.872C96.3067 52.872 96.2427 52.8613 96.136 52.84C96.008 52.7973 95.8907 52.776 95.784 52.776C95.6987 52.776 95.624 52.776 95.56 52.776C95.496 52.776 95.4107 52.7653 95.304 52.744C95.2613 52.7227 95.1973 52.712 95.112 52.712C95.0267 52.6907 94.9307 52.6587 94.824 52.616C94.76 52.5947 94.7067 52.5947 94.664 52.616C94.6427 52.616 94.6 52.6053 94.536 52.584L94.44 52.552H94.376L94.312 52.52C94.3547 52.2213 94.3973 51.9333 94.44 51.656C94.504 51.3573 94.6107 51.0693 94.76 50.792C94.8027 50.7067 94.8347 50.632 94.856 50.568C94.8773 50.504 94.888 50.4293 94.888 50.344L94.984 49.8C95.048 49.6933 95.112 49.576 95.176 49.448C95.24 49.32 95.304 49.2133 95.368 49.128C95.4107 49 95.4107 48.872 95.368 48.744C95.3467 48.616 95.3787 48.4987 95.464 48.392C95.528 48.2853 95.56 48.1787 95.56 48.072C95.5813 47.9653 95.6347 47.88 95.72 47.816C95.8053 47.6453 95.88 47.4853 95.944 47.336C96.0293 47.1653 96.0933 46.9947 96.136 46.824C96.1573 46.8027 96.168 46.76 96.168 46.696C96.232 46.248 96.4133 45.864 96.712 45.544C96.6907 45.4587 96.68 45.384 96.68 45.32C96.68 45.2347 96.68 45.1707 96.68 45.128C96.7227 45 96.7973 44.8827 96.904 44.776C97.0107 44.6693 97.1067 44.5733 97.192 44.488C97.2987 44.36 97.3947 44.232 97.48 44.104C97.5653 43.976 97.6187 43.8373 97.64 43.688C97.7253 43.368 97.8427 43.0693 97.992 42.792C98.1413 42.5147 98.3227 42.248 98.536 41.992C98.664 41.8213 98.7707 41.64 98.856 41.448C98.9627 41.2347 99.0693 41.0213 99.176 40.808C99.2613 40.6373 99.336 40.456 99.4 40.264C99.4853 40.072 99.5387 39.88 99.56 39.688C99.7307 39.4747 99.848 39.3147 99.912 39.208C99.976 39.08 100.029 38.9413 100.072 38.792C100.136 38.6213 100.211 38.3653 100.296 38.024C100.339 37.9813 100.392 37.9493 100.456 37.928C100.541 37.8853 100.595 37.8213 100.616 37.736C100.616 37.6507 100.669 37.5867 100.776 37.544C100.947 37.4373 101.064 37.288 101.128 37.096C101.192 36.9253 101.277 36.776 101.384 36.648C101.512 36.4987 101.629 36.36 101.736 36.232C101.843 36.1253 101.907 36.0187 101.928 35.912C102.035 35.6133 102.173 35.3467 102.344 35.112C102.536 34.856 102.696 34.6 102.824 34.344C102.931 34.2587 103.027 34.216 103.112 34.216C103.197 34.1947 103.283 34.184 103.368 34.184H103.464C103.677 34.2693 103.901 34.3333 104.136 34.376C104.285 34.3973 104.424 34.408 104.552 34.408C104.68 34.408 104.787 34.408 104.872 34.408C104.936 34.408 105 34.408 105.064 34.408C105.128 34.408 105.192 34.4187 105.256 34.44C105.533 34.5253 105.821 34.568 106.12 34.568C106.419 34.568 106.707 34.5787 106.984 34.6C107.347 34.856 107.656 35.1013 107.912 35.336C108.168 35.5707 108.371 35.976 108.52 36.552C108.541 36.5733 108.573 36.5947 108.616 36.616C108.659 36.6373 108.691 36.6693 108.712 36.712C108.755 36.7333 108.797 36.7547 108.84 36.776C108.883 36.7973 108.925 36.8293 108.968 36.872C109.011 36.9573 109.043 37.0533 109.064 37.16C109.107 37.2453 109.149 37.3413 109.192 37.448C109.235 37.5333 109.288 37.6293 109.352 37.736C109.416 37.8213 109.491 37.9173 109.576 38.024C109.619 38.2373 109.683 38.4507 109.768 38.664C109.875 38.8773 109.917 39.1227 109.896 39.4L110.12 39.72C110.12 39.8267 110.12 39.944 110.12 40.072C110.141 40.1787 110.152 40.296 110.152 40.424C110.259 40.488 110.312 40.5733 110.312 40.68C110.333 40.7867 110.355 40.904 110.376 41.032C110.44 41.1173 110.504 41.2133 110.568 41.32C110.632 41.4053 110.696 41.4907 110.76 41.576C110.803 41.7253 110.845 41.8747 110.888 42.024C110.931 42.152 110.963 42.28 110.984 42.408C110.963 42.4933 110.941 42.5787 110.92 42.664C110.92 42.7493 110.909 42.8347 110.888 42.92C110.931 43.1333 111.005 43.3253 111.112 43.496C111.24 43.6453 111.357 43.8053 111.464 43.976C111.571 44.3813 111.667 44.7973 111.752 45.224C111.859 45.6293 111.933 46.0453 111.976 46.472C112.211 46.7707 112.349 47.0907 112.392 47.432C112.456 47.7733 112.531 48.1253 112.616 48.488C112.659 48.6373 112.68 48.7867 112.68 48.936C112.68 49.064 112.691 49.2027 112.712 49.352C112.755 49.48 112.851 49.6507 113 49.864C113.149 50.056 113.267 50.2053 113.352 50.312C113.352 50.5253 113.363 50.7493 113.384 50.984C113.405 51.1973 113.459 51.4107 113.544 51.624ZM105.832 44.872C105.811 44.7227 105.757 44.5947 105.672 44.488C105.587 44.36 105.565 44.2213 105.608 44.072C105.523 43.9227 105.48 43.7413 105.48 43.528C105.48 43.3147 105.501 43.1973 105.544 43.176C105.523 43.1333 105.512 43.0693 105.512 42.984C105.427 42.8773 105.341 42.7813 105.256 42.696C105.192 42.6107 105.128 42.5147 105.064 42.408C105.064 42.4293 105.021 42.3973 104.936 42.312C104.829 42.2907 104.744 42.2267 104.68 42.12C104.659 42.056 104.627 41.992 104.584 41.928C104.563 41.864 104.52 41.8213 104.456 41.8C104.371 41.8 104.307 41.832 104.264 41.896C104.221 41.9387 104.157 41.9813 104.072 42.024C103.987 42.0453 103.901 42.0667 103.816 42.088C103.752 42.1093 103.677 42.1307 103.592 42.152C103.443 42.28 103.347 42.4507 103.304 42.664V43.048C103.219 43.1973 103.123 43.3253 103.016 43.432C102.931 43.5387 102.867 43.656 102.824 43.784C102.76 44.0827 102.664 44.3493 102.536 44.584C102.536 44.7333 102.504 44.872 102.44 45C102.376 45.1067 102.323 45.224 102.28 45.352C102.259 45.3733 102.248 45.4373 102.248 45.544C102.248 45.672 102.323 45.736 102.472 45.736C102.557 45.736 102.643 45.736 102.728 45.736C102.813 45.7147 102.899 45.704 102.984 45.704C103.027 45.7253 103.08 45.7573 103.144 45.8C103.208 45.8213 103.261 45.8427 103.304 45.864C103.624 45.8213 103.923 45.7573 104.2 45.672C104.499 45.5867 104.787 45.4907 105.064 45.384C105.192 45.2773 105.331 45.2027 105.48 45.16C105.629 45.1173 105.747 45.0213 105.832 44.872ZM129.813 38.696C129.706 39.08 129.642 39.4747 129.621 39.88C129.6 40.264 129.578 40.648 129.557 41.032C129.536 41.416 129.525 41.8107 129.525 42.216C129.525 42.6 129.525 42.984 129.525 43.368C129.525 43.688 129.504 44.008 129.461 44.328C129.418 44.648 129.386 44.9787 129.365 45.32C129.365 45.4053 129.354 45.5013 129.333 45.608C129.333 45.7147 129.333 45.8213 129.333 45.928C129.333 46.2267 129.29 46.504 129.205 46.76C129.141 47.0373 129.109 47.3147 129.109 47.592C129.109 47.7413 129.098 47.9013 129.077 48.072C129.056 48.2427 129.013 48.4133 128.949 48.584C128.928 48.6907 128.917 48.8507 128.917 49.064C128.896 49.2347 128.853 49.4053 128.789 49.576C128.746 49.7253 128.704 49.8747 128.661 50.024C128.618 50.152 128.576 50.3013 128.533 50.472C128.448 50.6 128.362 50.7387 128.277 50.888C128.213 51.016 128.138 51.144 128.053 51.272C127.861 51.3787 127.701 51.5173 127.573 51.688C127.36 51.8587 127.146 52.04 126.933 52.232C126.741 52.424 126.549 52.6053 126.357 52.776C126.101 52.9893 125.845 53.096 125.589 53.096C125.568 53.096 125.536 53.1067 125.493 53.128C125.472 53.1493 125.44 53.16 125.397 53.16C124.992 53.2027 124.661 53.3307 124.405 53.544C124.384 53.5653 124.352 53.576 124.309 53.576C124.288 53.5973 124.256 53.6293 124.213 53.672C123.936 53.7147 123.648 53.6933 123.349 53.608C123.072 53.5227 122.816 53.416 122.581 53.288H122.069C121.984 53.288 121.898 53.2773 121.813 53.256C121.728 53.256 121.632 53.2453 121.525 53.224C120.949 53.096 120.394 52.8507 119.861 52.488C119.797 52.424 119.722 52.3813 119.637 52.36C119.552 52.3387 119.456 52.3173 119.349 52.296C119.221 52.2747 119.093 52.2427 118.965 52.2C118.837 52.1573 118.709 52.1147 118.581 52.072C118.474 52.008 118.389 51.9227 118.325 51.816C118.261 51.688 118.197 51.5813 118.133 51.496C118.026 51.2827 117.93 51.0907 117.845 50.92C117.76 50.728 117.664 50.5253 117.557 50.312C117.472 50.1413 117.376 49.9707 117.269 49.8C117.162 49.608 117.056 49.4373 116.949 49.288C116.949 49.2667 116.96 49.256 116.981 49.256C117.002 49.256 117.013 49.2453 117.013 49.224L116.949 49.16C116.949 49.1813 116.938 49.2027 116.917 49.224C116.917 49.224 116.917 49.2347 116.917 49.256C116.896 49.2347 116.864 49.224 116.821 49.224C116.8 49.2027 116.778 49.1813 116.757 49.16C116.672 49.1173 116.608 49.0533 116.565 48.968C116.522 48.8613 116.48 48.7653 116.437 48.68C116.501 48.552 116.533 48.3813 116.533 48.168C116.576 47.8907 116.565 47.6453 116.501 47.432C116.416 47.112 116.373 46.792 116.373 46.472C116.394 46.152 116.416 45.8213 116.437 45.48C116.437 45.3733 116.48 45.2347 116.565 45.064C116.714 44.7013 116.8 44.3813 116.821 44.104C117.034 43.8053 117.205 43.4853 117.333 43.144C117.461 42.8027 117.61 42.4827 117.781 42.184C117.888 42.1413 117.973 42.0987 118.037 42.056C118.122 42.0133 118.208 41.9813 118.293 41.96C118.336 41.9173 118.368 41.864 118.389 41.8C118.41 41.736 118.453 41.6827 118.517 41.64C118.581 41.5973 118.656 41.5653 118.741 41.544C118.826 41.5013 118.922 41.4693 119.029 41.448C119.072 41.384 119.104 41.32 119.125 41.256C119.168 41.192 119.21 41.128 119.253 41.064C119.317 41 119.36 40.968 119.381 40.968C119.872 40.7973 120.384 40.6693 120.917 40.584C121.002 40.5627 121.088 40.552 121.173 40.552C121.28 40.5307 121.376 40.5093 121.461 40.488C121.738 40.4027 122.016 40.3707 122.293 40.392C122.57 40.4133 122.848 40.4133 123.125 40.392C123.189 40.392 123.253 40.4027 123.317 40.424C123.402 40.4453 123.477 40.4667 123.541 40.488C123.605 40.488 123.69 40.5093 123.797 40.552C123.904 40.5947 123.968 40.5947 123.989 40.552C124.202 40.5093 124.352 40.5307 124.437 40.616C124.544 40.7013 124.597 40.744 124.597 40.744C124.64 40.7653 124.725 40.776 124.853 40.776C125.002 40.7547 125.088 40.744 125.109 40.744C125.301 40.7013 125.408 40.616 125.429 40.488C125.472 40.3387 125.472 40.264 125.429 40.264L125.365 40.2C125.386 39.9227 125.376 39.6453 125.333 39.368C125.312 39.0907 125.312 38.8133 125.333 38.536C125.354 38.4293 125.365 38.3227 125.365 38.216C125.365 38.088 125.365 37.9707 125.365 37.864C125.344 37.7573 125.344 37.6613 125.365 37.576C125.386 37.4693 125.397 37.3627 125.397 37.256C125.397 37.1493 125.397 37.0533 125.397 36.968C125.418 36.8613 125.408 36.776 125.365 36.712C125.301 36.5413 125.269 36.3707 125.269 36.2C125.29 36.0293 125.322 35.8587 125.365 35.688C125.429 35.4533 125.472 35.2187 125.493 34.984C125.536 34.7493 125.536 34.4933 125.493 34.216V34.056C125.578 33.8427 125.621 33.6293 125.621 33.416C125.642 33.2027 125.664 33.0107 125.685 32.84C125.792 32.6907 125.92 32.5947 126.069 32.552C126.24 32.488 126.368 32.4133 126.453 32.328C126.794 32.3067 127.114 32.3067 127.413 32.328C127.712 32.3493 128.01 32.3173 128.309 32.232C128.458 32.296 128.597 32.3493 128.725 32.392C128.874 32.4133 129.002 32.4347 129.109 32.456C129.344 32.6267 129.461 32.8507 129.461 33.128C129.461 33.2347 129.461 33.352 129.461 33.48C129.461 33.608 129.45 33.736 129.429 33.864C129.45 33.9493 129.482 34.024 129.525 34.088C129.568 34.152 129.6 34.2373 129.621 34.344C129.6 34.3867 129.578 34.4507 129.557 34.536C129.557 34.6 129.546 34.6747 129.525 34.76C129.546 34.8453 129.568 34.952 129.589 35.08C129.61 35.208 129.632 35.3253 129.653 35.432C129.653 35.7733 129.653 36.104 129.653 36.424C129.674 36.744 129.674 37.064 129.653 37.384C129.653 37.7253 129.653 37.9493 129.653 38.056C129.674 38.1627 129.728 38.376 129.813 38.696ZM125.141 46.76C125.077 46.5893 125.024 46.4293 124.981 46.28C124.96 46.1093 124.928 45.96 124.885 45.832C124.821 45.6827 124.736 45.544 124.629 45.416C124.544 45.288 124.469 45.1493 124.405 45C124.192 44.8933 124.032 44.7867 123.925 44.68C123.818 44.6373 123.712 44.6053 123.605 44.584C123.52 44.5627 123.424 44.5413 123.317 44.52C123.232 44.4773 123.146 44.4453 123.061 44.424C122.997 44.3813 122.922 44.3493 122.837 44.328C122.688 44.392 122.538 44.456 122.389 44.52C122.261 44.584 122.133 44.648 122.005 44.712C121.664 44.8613 121.429 45.1387 121.301 45.544C121.28 45.6293 121.269 45.7147 121.269 45.8C121.269 45.8853 121.258 45.9813 121.237 46.088C121.216 46.152 121.173 46.216 121.109 46.28C121.066 46.344 121.024 46.4293 120.981 46.536V47.112C121.024 47.3893 121.098 47.656 121.205 47.912C121.333 48.1467 121.536 48.3493 121.813 48.52C121.877 48.5413 121.93 48.584 121.973 48.648C122.037 48.6907 122.112 48.7333 122.197 48.776C122.325 48.904 122.453 48.968 122.581 48.968C122.922 48.9253 123.253 48.8933 123.573 48.872C123.893 48.8293 124.202 48.744 124.501 48.616C124.629 48.5093 124.725 48.4027 124.789 48.296C124.853 48.2107 124.906 48.136 124.949 48.072C124.992 47.9867 125.045 47.9013 125.109 47.816V47.272C125.109 47.1653 125.109 47.0693 125.109 46.984C125.109 46.8987 125.12 46.824 125.141 46.76ZM146.001 38.696C145.894 39.08 145.83 39.4747 145.809 39.88C145.787 40.264 145.766 40.648 145.745 41.032C145.723 41.416 145.713 41.8107 145.713 42.216C145.713 42.6 145.713 42.984 145.713 43.368C145.713 43.688 145.691 44.008 145.649 44.328C145.606 44.648 145.574 44.9787 145.553 45.32C145.553 45.4053 145.542 45.5013 145.521 45.608C145.521 45.7147 145.521 45.8213 145.521 45.928C145.521 46.2267 145.478 46.504 145.393 46.76C145.329 47.0373 145.297 47.3147 145.297 47.592C145.297 47.7413 145.286 47.9013 145.265 48.072C145.243 48.2427 145.201 48.4133 145.137 48.584C145.115 48.6907 145.105 48.8507 145.105 49.064C145.083 49.2347 145.041 49.4053 144.977 49.576C144.934 49.7253 144.891 49.8747 144.849 50.024C144.806 50.152 144.763 50.3013 144.721 50.472C144.635 50.6 144.55 50.7387 144.465 50.888C144.401 51.016 144.326 51.144 144.241 51.272C144.049 51.3787 143.889 51.5173 143.761 51.688C143.547 51.8587 143.334 52.04 143.121 52.232C142.929 52.424 142.737 52.6053 142.545 52.776C142.289 52.9893 142.033 53.096 141.777 53.096C141.755 53.096 141.723 53.1067 141.681 53.128C141.659 53.1493 141.627 53.16 141.585 53.16C141.179 53.2027 140.849 53.3307 140.593 53.544C140.571 53.5653 140.539 53.576 140.497 53.576C140.475 53.5973 140.443 53.6293 140.401 53.672C140.123 53.7147 139.835 53.6933 139.536 53.608C139.259 53.5227 139.003 53.416 138.769 53.288H138.257C138.171 53.288 138.086 53.2773 138.001 53.256C137.915 53.256 137.819 53.2453 137.713 53.224C137.137 53.096 136.582 52.8507 136.049 52.488C135.985 52.424 135.91 52.3813 135.825 52.36C135.739 52.3387 135.643 52.3173 135.536 52.296C135.409 52.2747 135.281 52.2427 135.153 52.2C135.025 52.1573 134.897 52.1147 134.769 52.072C134.662 52.008 134.577 51.9227 134.513 51.816C134.449 51.688 134.385 51.5813 134.321 51.496C134.214 51.2827 134.118 51.0907 134.033 50.92C133.947 50.728 133.851 50.5253 133.745 50.312C133.659 50.1413 133.563 49.9707 133.457 49.8C133.35 49.608 133.243 49.4373 133.137 49.288C133.137 49.2667 133.147 49.256 133.169 49.256C133.19 49.256 133.201 49.2453 133.201 49.224L133.137 49.16C133.137 49.1813 133.126 49.2027 133.105 49.224C133.105 49.224 133.105 49.2347 133.105 49.256C133.083 49.2347 133.051 49.224 133.009 49.224C132.987 49.2027 132.966 49.1813 132.945 49.16C132.859 49.1173 132.795 49.0533 132.753 48.968C132.71 48.8613 132.667 48.7653 132.625 48.68C132.689 48.552 132.721 48.3813 132.721 48.168C132.763 47.8907 132.753 47.6453 132.689 47.432C132.603 47.112 132.561 46.792 132.561 46.472C132.582 46.152 132.603 45.8213 132.625 45.48C132.625 45.3733 132.667 45.2347 132.753 45.064C132.902 44.7013 132.987 44.3813 133.009 44.104C133.222 43.8053 133.393 43.4853 133.521 43.144C133.649 42.8027 133.798 42.4827 133.969 42.184C134.075 42.1413 134.161 42.0987 134.225 42.056C134.31 42.0133 134.395 41.9813 134.481 41.96C134.523 41.9173 134.555 41.864 134.577 41.8C134.598 41.736 134.641 41.6827 134.705 41.64C134.769 41.5973 134.843 41.5653 134.929 41.544C135.014 41.5013 135.11 41.4693 135.217 41.448C135.259 41.384 135.291 41.32 135.312 41.256C135.355 41.192 135.398 41.128 135.441 41.064C135.505 41 135.547 40.968 135.569 40.968C136.059 40.7973 136.571 40.6693 137.105 40.584C137.19 40.5627 137.275 40.552 137.361 40.552C137.467 40.5307 137.563 40.5093 137.649 40.488C137.926 40.4027 138.203 40.3707 138.481 40.392C138.758 40.4133 139.035 40.4133 139.312 40.392C139.377 40.392 139.441 40.4027 139.505 40.424C139.59 40.4453 139.665 40.4667 139.729 40.488C139.793 40.488 139.878 40.5093 139.985 40.552C140.091 40.5947 140.155 40.5947 140.177 40.552C140.39 40.5093 140.539 40.5307 140.625 40.616C140.731 40.7013 140.785 40.744 140.785 40.744C140.827 40.7653 140.913 40.776 141.041 40.776C141.19 40.7547 141.275 40.744 141.297 40.744C141.489 40.7013 141.595 40.616 141.617 40.488C141.659 40.3387 141.659 40.264 141.617 40.264L141.553 40.2C141.574 39.9227 141.563 39.6453 141.521 39.368C141.499 39.0907 141.499 38.8133 141.521 38.536C141.542 38.4293 141.553 38.3227 141.553 38.216C141.553 38.088 141.553 37.9707 141.553 37.864C141.531 37.7573 141.531 37.6613 141.553 37.576C141.574 37.4693 141.585 37.3627 141.585 37.256C141.585 37.1493 141.585 37.0533 141.585 36.968C141.606 36.8613 141.595 36.776 141.553 36.712C141.489 36.5413 141.457 36.3707 141.457 36.2C141.478 36.0293 141.51 35.8587 141.553 35.688C141.617 35.4533 141.659 35.2187 141.681 34.984C141.723 34.7493 141.723 34.4933 141.681 34.216V34.056C141.766 33.8427 141.809 33.6293 141.809 33.416C141.83 33.2027 141.851 33.0107 141.873 32.84C141.979 32.6907 142.107 32.5947 142.257 32.552C142.427 32.488 142.555 32.4133 142.641 32.328C142.982 32.3067 143.302 32.3067 143.601 32.328C143.899 32.3493 144.198 32.3173 144.497 32.232C144.646 32.296 144.785 32.3493 144.913 32.392C145.062 32.4133 145.19 32.4347 145.297 32.456C145.531 32.6267 145.649 32.8507 145.649 33.128C145.649 33.2347 145.649 33.352 145.649 33.48C145.649 33.608 145.638 33.736 145.617 33.864C145.638 33.9493 145.67 34.024 145.713 34.088C145.755 34.152 145.787 34.2373 145.809 34.344C145.787 34.3867 145.766 34.4507 145.745 34.536C145.745 34.6 145.734 34.6747 145.713 34.76C145.734 34.8453 145.755 34.952 145.777 35.08C145.798 35.208 145.819 35.3253 145.841 35.432C145.841 35.7733 145.841 36.104 145.841 36.424C145.862 36.744 145.862 37.064 145.841 37.384C145.841 37.7253 145.841 37.9493 145.841 38.056C145.862 38.1627 145.915 38.376 146.001 38.696ZM141.329 46.76C141.265 46.5893 141.211 46.4293 141.169 46.28C141.147 46.1093 141.115 45.96 141.073 45.832C141.009 45.6827 140.923 45.544 140.817 45.416C140.731 45.288 140.657 45.1493 140.593 45C140.379 44.8933 140.219 44.7867 140.113 44.68C140.006 44.6373 139.899 44.6053 139.793 44.584C139.707 44.5627 139.611 44.5413 139.505 44.52C139.419 44.4773 139.334 44.4453 139.249 44.424C139.185 44.3813 139.11 44.3493 139.025 44.328C138.875 44.392 138.726 44.456 138.577 44.52C138.449 44.584 138.321 44.648 138.193 44.712C137.851 44.8613 137.617 45.1387 137.489 45.544C137.467 45.6293 137.457 45.7147 137.457 45.8C137.457 45.8853 137.446 45.9813 137.425 46.088C137.403 46.152 137.361 46.216 137.297 46.28C137.254 46.344 137.211 46.4293 137.169 46.536V47.112C137.211 47.3893 137.286 47.656 137.393 47.912C137.521 48.1467 137.723 48.3493 138.001 48.52C138.065 48.5413 138.118 48.584 138.161 48.648C138.225 48.6907 138.299 48.7333 138.385 48.776C138.513 48.904 138.641 48.968 138.769 48.968C139.11 48.9253 139.441 48.8933 139.76 48.872C140.081 48.8293 140.39 48.744 140.689 48.616C140.817 48.5093 140.913 48.4027 140.977 48.296C141.041 48.2107 141.094 48.136 141.137 48.072C141.179 47.9867 141.233 47.9013 141.297 47.816V47.272C141.297 47.1653 141.297 47.0693 141.297 46.984C141.297 46.8987 141.307 46.824 141.329 46.76ZM166.965 50.696C166.858 50.9093 166.762 51.1227 166.677 51.336C166.592 51.5493 166.496 51.7627 166.389 51.976L165.717 52.616C165.312 53.064 164.832 53.3307 164.277 53.416C164 53.4587 163.712 53.4693 163.413 53.448C163.136 53.448 162.848 53.4053 162.549 53.32C162.378 53.2773 162.197 53.2133 162.005 53.128C161.834 53.064 161.664 52.9893 161.493 52.904C161.365 52.84 161.226 52.7973 161.077 52.776C160.928 52.7333 160.768 52.7013 160.597 52.68C160.533 52.6373 160.458 52.5947 160.373 52.552C160.288 52.488 160.192 52.424 160.085 52.36C159.936 52.104 159.754 51.8693 159.541 51.656C159.349 51.4427 159.2 51.176 159.093 50.856C159.093 50.6 159.082 50.4293 159.061 50.344C159.04 50.2373 158.976 50.0347 158.869 49.736V47.624C158.869 47.4533 158.858 47.2933 158.837 47.144C158.837 46.9733 158.816 46.8133 158.773 46.664C158.752 46.5147 158.741 46.3867 158.741 46.28C158.762 46.1733 158.784 46.0453 158.805 45.896C158.869 45.64 158.869 45.3733 158.805 45.096C158.869 44.84 158.944 44.584 159.029 44.328C159.029 44.2 158.997 44.0187 158.933 43.784C158.869 43.5493 158.794 43.3253 158.709 43.112C158.602 43.112 158.496 43.1013 158.389 43.08C158.282 43.0587 158.165 43.0373 158.037 43.016C157.909 43.0587 157.77 43.1013 157.621 43.144C157.493 43.1867 157.344 43.2293 157.173 43.272C157.109 43.3147 157.013 43.336 156.885 43.336C156.864 43.336 156.821 43.3147 156.757 43.272C156.714 43.208 156.693 43.1653 156.693 43.144C156.672 43.08 156.661 43.016 156.661 42.952C156.661 42.888 156.661 42.824 156.661 42.76C156.64 42.5893 156.629 42.408 156.629 42.216C156.629 42.024 156.629 41.8427 156.629 41.672C156.629 41.5013 156.618 41.3413 156.597 41.192C156.576 41.0213 156.544 40.8613 156.501 40.712C156.522 40.6053 156.544 40.5093 156.565 40.424C156.586 40.3173 156.608 40.2213 156.629 40.136V39.528C156.629 39.3573 156.65 39.208 156.693 39.08C156.757 38.952 156.874 38.8347 157.045 38.728C157.173 38.6853 157.312 38.664 157.461 38.664C157.632 38.664 157.813 38.664 158.005 38.664C158.176 38.6853 158.346 38.6853 158.517 38.664C158.709 38.6213 158.88 38.5253 159.029 38.376C159.072 38.3333 159.125 38.312 159.189 38.312C159.274 38.312 159.338 38.312 159.381 38.312C159.808 38.3333 160.181 38.1627 160.501 37.8C160.522 37.672 160.586 37.4907 160.693 37.256C160.629 37.1067 160.576 36.9467 160.533 36.776C160.49 36.584 160.437 36.4027 160.373 36.232C160.416 36.168 160.458 36.104 160.501 36.04C160.544 35.976 160.576 35.9013 160.597 35.816C160.64 35.7093 160.64 35.6133 160.597 35.528C160.554 35.4213 160.544 35.336 160.565 35.272C160.522 35.1653 160.501 35.0907 160.501 35.048C160.501 35.0053 160.48 34.9307 160.437 34.824C160.458 34.7813 160.48 34.7387 160.501 34.696C160.522 34.632 160.544 34.5787 160.565 34.536C160.586 34.4507 160.608 34.3867 160.629 34.344C160.65 34.28 160.672 34.2053 160.693 34.12H161.045C161.152 34.1413 161.258 34.1627 161.365 34.184C161.493 34.184 161.61 34.1733 161.717 34.152C161.76 34.152 161.813 34.1627 161.877 34.184C161.941 34.184 162.005 34.184 162.069 34.184C162.432 34.2267 162.784 34.28 163.125 34.344C163.488 34.408 163.84 34.44 164.181 34.44C164.224 34.44 164.266 34.4507 164.309 34.472C164.373 34.4933 164.416 34.5147 164.437 34.536C164.522 34.5787 164.597 34.632 164.661 34.696C164.64 34.7813 164.608 34.8667 164.565 34.952C164.522 35.016 164.49 35.08 164.469 35.144C164.448 35.2293 164.426 35.3253 164.405 35.432C164.405 35.5387 164.394 35.6453 164.373 35.752C164.352 35.9013 164.33 36.0507 164.309 36.2C164.288 36.3493 164.256 36.52 164.213 36.712C164.234 36.7333 164.245 36.7867 164.245 36.872C164.245 36.9573 164.256 37.032 164.277 37.096C164.256 37.2453 164.224 37.384 164.181 37.512C164.16 37.64 164.138 37.7893 164.117 37.96C164.394 38.1733 164.693 38.3547 165.013 38.504C165.354 38.6533 165.76 38.792 166.229 38.92C166.464 39.0693 166.602 39.3147 166.645 39.656C166.645 40.1467 166.613 40.6373 166.549 41.128C166.528 41.32 166.506 41.512 166.485 41.704C166.464 41.896 166.464 42.088 166.485 42.28C166.208 42.4507 165.877 42.536 165.493 42.536C165.429 42.536 165.365 42.5467 165.301 42.568C165.237 42.5893 165.184 42.6 165.141 42.6C164.8 42.6213 164.533 42.6533 164.341 42.696C164.17 42.7387 163.893 42.8453 163.509 43.016C163.445 43.1013 163.413 43.2187 163.413 43.368C163.392 43.496 163.37 43.624 163.349 43.752C163.349 43.88 163.36 44.0187 163.381 44.168C163.381 44.168 163.381 44.1787 163.381 44.2C163.381 44.2 163.36 44.2107 163.317 44.232C163.189 44.488 163.093 44.68 163.029 44.808C162.965 44.936 162.922 45.064 162.901 45.192C162.901 45.32 162.901 45.5333 162.901 45.832V47.368C162.901 47.4747 162.912 47.5387 162.933 47.56C162.954 47.752 163.05 47.912 163.221 48.04C163.306 48.0613 163.381 48.0827 163.445 48.104C163.53 48.1253 163.594 48.1787 163.637 48.264C163.829 48.52 164.042 48.6587 164.277 48.68C164.533 48.68 164.8 48.6373 165.077 48.552C165.162 48.5093 165.248 48.4667 165.333 48.424C165.418 48.3813 165.504 48.3493 165.589 48.328C165.76 48.3707 165.866 48.4667 165.909 48.616C165.952 48.7653 166.026 48.8933 166.133 49C166.24 49.1067 166.325 49.224 166.389 49.352C166.474 49.48 166.56 49.608 166.645 49.736C166.688 49.864 166.741 50.0133 166.805 50.184C166.869 50.3333 166.922 50.504 166.965 50.696ZM184.082 44.264C184.146 44.52 184.135 44.7547 184.05 44.968C184.007 45.0747 183.975 45.1813 183.954 45.288C183.932 45.3947 183.932 45.5013 183.954 45.608C183.975 45.6293 183.975 45.6613 183.954 45.704C183.954 45.7253 183.954 45.7573 183.954 45.8C183.868 45.9707 183.826 46.152 183.826 46.344C183.847 46.536 183.868 46.7173 183.89 46.888L183.57 47.336V47.752C183.527 47.7947 183.474 47.848 183.41 47.912C183.346 47.9547 183.26 48.0187 183.154 48.104C183.111 48.2533 183.047 48.4133 182.962 48.584C182.898 48.7547 182.844 48.9147 182.802 49.064V49.384C182.716 49.4693 182.61 49.544 182.482 49.608C182.354 49.672 182.247 49.768 182.162 49.896C182.076 49.96 181.991 50.0133 181.906 50.056C181.82 50.0987 181.724 50.152 181.618 50.216C181.575 50.2373 181.522 50.248 181.458 50.248C181.415 50.2267 181.372 50.2267 181.33 50.248C181.01 50.248 180.85 50.3973 180.85 50.696C180.615 50.8453 180.38 51.0053 180.146 51.176C179.932 51.3467 179.708 51.5173 179.474 51.688C179.111 51.9653 178.642 52.1573 178.066 52.264C177.874 52.2853 177.692 52.3387 177.522 52.424C177.351 52.488 177.17 52.5413 176.978 52.584C176.935 52.584 176.882 52.5733 176.818 52.552C176.754 52.5307 176.7 52.5307 176.658 52.552C176.402 52.5733 176.135 52.552 175.858 52.488C175.772 52.4667 175.687 52.4667 175.602 52.488C175.516 52.5093 175.442 52.5307 175.378 52.552C175.228 52.5307 175.079 52.5093 174.93 52.488C174.78 52.4667 174.62 52.4453 174.45 52.424C174.258 52.3387 174.076 52.2427 173.906 52.136C173.756 52.0293 173.596 51.9333 173.426 51.848C173.298 51.8053 173.18 51.7307 173.074 51.624C172.967 51.5173 172.882 51.4107 172.818 51.304C172.796 51.2613 172.764 51.2293 172.722 51.208C172.7 51.1653 172.668 51.1227 172.626 51.08C172.562 51.0373 172.498 51.0053 172.434 50.984C172.37 50.9413 172.306 50.888 172.242 50.824C171.9 50.5893 171.591 50.3333 171.314 50.056C171.058 49.7787 170.866 49.4373 170.738 49.032C170.631 48.7547 170.503 48.5093 170.354 48.296C170.311 48.2107 170.258 48.136 170.194 48.072C170.151 47.9867 170.108 47.9013 170.066 47.816C170.087 47.7733 170.119 47.688 170.162 47.56C170.119 47.496 170.076 47.432 170.034 47.368C169.991 47.304 169.97 47.2293 169.97 47.144C169.97 47.08 169.959 47.016 169.938 46.952C169.938 46.8667 169.948 46.7813 169.97 46.696C170.012 46.5467 170.023 46.3973 170.002 46.248C169.98 46.0987 169.98 45.9493 170.002 45.8C170.023 45.672 170.012 45.5333 169.97 45.384C169.948 45.2347 169.97 45.096 170.034 44.968C170.076 44.8187 170.108 44.68 170.13 44.552C170.151 44.424 170.183 44.296 170.226 44.168C170.268 44.04 170.311 43.9227 170.354 43.816C170.396 43.688 170.439 43.5707 170.482 43.464C170.524 43.336 170.567 43.208 170.61 43.08C170.652 42.952 170.716 42.8133 170.802 42.664C170.802 42.6213 170.802 42.568 170.802 42.504C170.802 42.44 170.812 42.3973 170.834 42.376C170.919 42.2053 170.983 42.0453 171.026 41.896C171.068 41.7467 171.079 41.5973 171.058 41.448C171.143 41.3413 171.218 41.256 171.282 41.192C171.346 41.128 171.399 41.0533 171.442 40.968C171.484 40.8613 171.527 40.7653 171.57 40.68C171.634 40.5733 171.698 40.4773 171.762 40.392C171.826 40.2213 171.922 40.072 172.05 39.944C172.135 39.8373 172.21 39.752 172.274 39.688C172.338 39.6027 172.391 39.5387 172.434 39.496C172.498 39.368 172.519 39.2613 172.498 39.176C172.476 39.0693 172.466 38.984 172.466 38.92C172.508 38.8133 172.54 38.7493 172.562 38.728C172.626 38.7067 172.679 38.6747 172.722 38.632C172.786 38.5893 172.85 38.5573 172.914 38.536C173.084 38.4293 173.266 38.3227 173.458 38.216C173.65 38.1093 173.842 38.024 174.034 37.96C174.226 37.832 174.418 37.7467 174.61 37.704C174.823 37.64 175.036 37.576 175.25 37.512C175.42 37.512 175.591 37.512 175.762 37.512C175.932 37.512 176.092 37.5227 176.242 37.544H176.53C176.764 37.6293 176.999 37.672 177.234 37.672C177.49 37.672 177.735 37.6613 177.97 37.64C178.076 37.64 178.183 37.64 178.29 37.64C178.418 37.6187 178.535 37.608 178.642 37.608C178.748 37.6933 178.834 37.768 178.898 37.832C178.983 37.8747 179.068 37.9387 179.154 38.024C179.218 38.0453 179.282 38.0773 179.346 38.12C179.41 38.1627 179.484 38.1947 179.57 38.216C179.868 38.2373 180.135 38.3333 180.37 38.504C180.626 38.6747 180.86 38.8453 181.074 39.016C181.074 39.0587 181.074 39.1227 181.074 39.208C181.074 39.272 181.084 39.336 181.106 39.4C181.106 39.5067 181.17 39.6027 181.298 39.688C181.362 39.7093 181.436 39.72 181.522 39.72C181.607 39.72 181.692 39.7413 181.778 39.784C181.82 39.8693 181.874 39.9653 181.938 40.072C182.023 40.1787 182.098 40.2853 182.162 40.392C182.247 40.4773 182.332 40.5627 182.418 40.648C182.503 40.7333 182.567 40.8293 182.61 40.936C182.652 40.9787 182.684 41.032 182.706 41.096C182.748 41.16 182.78 41.2133 182.802 41.256C182.866 41.32 182.93 41.384 182.994 41.448C183.058 41.512 183.1 41.5973 183.122 41.704C183.164 41.8533 183.228 42.0027 183.314 42.152C183.399 42.3013 183.463 42.4613 183.506 42.632C183.527 42.696 183.559 42.76 183.602 42.824C183.666 42.888 183.73 42.9627 183.794 43.048C183.836 43.24 183.868 43.4427 183.89 43.656C183.932 43.8693 183.996 44.072 184.082 44.264ZM179.602 45.416C179.623 45.2667 179.602 45.1387 179.538 45.032C179.474 44.904 179.452 44.776 179.474 44.648C179.474 44.6053 179.442 44.552 179.378 44.488C179.356 44.4453 179.346 44.36 179.346 44.232C179.367 44.1893 179.378 44.136 179.378 44.072C179.378 43.9867 179.378 43.9333 179.378 43.912C179.228 43.6773 179.09 43.464 178.962 43.272C178.834 43.0587 178.695 42.856 178.546 42.664C178.546 42.6213 178.524 42.6 178.482 42.6C178.439 42.5787 178.396 42.536 178.354 42.472C177.991 42.472 177.596 42.376 177.17 42.184C176.914 42.056 176.604 42.0453 176.242 42.152C176.22 42.152 176.188 42.1627 176.146 42.184C176.124 42.2053 176.092 42.2373 176.05 42.28H175.89C175.548 42.216 175.324 42.344 175.218 42.664C175.175 42.7493 175.122 42.8453 175.058 42.952C175.015 43.0373 174.983 43.1333 174.962 43.24C174.94 43.3253 174.898 43.4213 174.834 43.528C174.77 43.6133 174.716 43.6987 174.674 43.784C174.588 43.8907 174.514 44.008 174.45 44.136C174.386 44.264 174.311 44.3813 174.226 44.488C174.204 44.7013 174.151 44.9147 174.066 45.128C174.002 45.3413 173.959 45.544 173.938 45.736C174.002 45.8427 174.066 45.96 174.13 46.088C174.194 46.1947 174.247 46.3013 174.29 46.408C174.418 46.6853 174.471 46.952 174.45 47.208C174.45 47.2507 174.46 47.2933 174.482 47.336C174.503 47.3787 174.524 47.4213 174.546 47.464C174.738 47.5067 174.919 47.5493 175.09 47.592C175.282 47.6347 175.463 47.688 175.634 47.752C175.783 47.7947 175.932 47.8267 176.082 47.848C176.231 47.8693 176.38 47.848 176.53 47.784H176.626C176.796 47.8267 176.956 47.8373 177.106 47.816C177.276 47.7733 177.458 47.7307 177.65 47.688C177.799 47.5813 177.948 47.464 178.098 47.336C178.268 47.208 178.439 47.1013 178.61 47.016C178.759 46.7173 178.94 46.4507 179.154 46.216C179.367 45.9813 179.516 45.7147 179.602 45.416ZM223.391 37.256C223.306 37.32 223.263 37.48 223.263 37.736C223.263 37.9707 223.231 38.1413 223.167 38.248C223.124 38.3333 223.05 38.4187 222.943 38.504C222.858 38.568 222.783 38.6533 222.719 38.76C222.74 38.8027 222.762 38.856 222.783 38.92C222.804 38.984 222.826 39.0373 222.847 39.08C222.762 39.1867 222.676 39.2933 222.591 39.4C222.506 39.5067 222.41 39.624 222.303 39.752C222.239 39.752 222.143 39.7733 222.015 39.816C221.93 39.8373 221.887 39.9013 221.887 40.008C221.887 40.0933 221.898 40.1893 221.919 40.296C221.962 40.3813 221.983 40.4773 221.983 40.584C221.898 40.904 221.812 41.224 221.727 41.544C221.642 41.864 221.503 42.1627 221.311 42.44C221.29 42.7813 221.194 43.112 221.023 43.432C220.852 43.7307 220.703 44.0507 220.575 44.392C220.511 44.52 220.458 44.648 220.415 44.776C220.394 44.904 220.362 45.0427 220.319 45.192C220.234 45.2773 220.159 45.3627 220.095 45.448C220.031 45.5333 219.946 45.6187 219.839 45.704C219.775 45.8107 219.722 45.928 219.679 46.056C219.636 46.184 219.594 46.312 219.551 46.44C219.466 46.5467 219.391 46.664 219.327 46.792C219.284 46.92 219.22 47.0373 219.135 47.144C218.943 47.4853 218.794 47.848 218.687 48.232C218.602 48.5947 218.559 48.9573 218.559 49.32C218.495 49.4693 218.431 49.608 218.367 49.736C218.324 49.8427 218.25 49.9493 218.143 50.056C218.058 50.2053 217.983 50.3653 217.919 50.536C217.876 50.6853 217.802 50.8347 217.695 50.984C217.503 51.304 217.386 51.5173 217.343 51.624C217.3 51.7307 217.279 51.8373 217.279 51.944C217.3 52.0507 217.258 52.2747 217.151 52.616C217.066 52.7227 216.927 52.8293 216.735 52.936C216.543 53.0427 216.372 53.1173 216.223 53.16C216.138 53.1173 215.999 53.096 215.807 53.096C215.615 53.1173 215.476 53.1173 215.391 53.096C215.284 53.0747 215.167 53.064 215.039 53.064C214.911 53.064 214.794 53.064 214.687 53.064C214.538 53.064 214.378 53.064 214.207 53.064C214.058 53.064 213.908 53.0533 213.759 53.032C213.631 52.9893 213.535 52.9253 213.471 52.84C213.386 52.6267 213.311 52.4347 213.247 52.264C213.204 52.072 213.215 51.88 213.279 51.688C213.3 51.6027 213.268 51.528 213.183 51.464C213.119 51.4 213.066 51.3573 213.023 51.336C212.959 51.208 212.895 51.08 212.831 50.952C212.788 50.8027 212.714 50.664 212.607 50.536C212.479 50.3227 212.351 50.12 212.223 49.928C212.095 49.736 211.978 49.5333 211.871 49.32C211.85 49.2347 211.786 49.16 211.679 49.096C211.594 49.032 211.551 48.9573 211.551 48.872C211.551 48.7013 211.519 48.552 211.455 48.424C211.412 48.296 211.359 48.1573 211.295 48.008C211.252 47.88 211.199 47.752 211.135 47.624C211.092 47.4747 211.05 47.336 211.007 47.208C210.922 46.9733 210.826 46.7707 210.719 46.6C210.506 46.3013 210.282 46.0027 210.047 45.704C209.834 45.4053 209.61 45.1173 209.375 44.84C209.226 44.6267 209.055 44.52 208.863 44.52C208.778 44.52 208.735 44.5627 208.735 44.648C208.735 44.7973 208.735 44.936 208.735 45.064C208.756 45.192 208.767 45.32 208.767 45.448C208.767 45.832 208.66 46.1307 208.447 46.344C208.298 46.4933 208.202 46.664 208.159 46.856C208.116 47.0267 208.074 47.1973 208.031 47.368C207.967 47.56 207.882 47.7413 207.775 47.912C207.69 48.0827 207.626 48.2533 207.583 48.424C207.455 48.552 207.338 48.6693 207.231 48.776C207.124 48.8827 207.039 49.0107 206.975 49.16C206.911 49.352 206.815 49.5227 206.687 49.672C206.559 49.8213 206.474 50.0027 206.431 50.216C206.41 50.408 206.324 50.5787 206.175 50.728C206.047 50.8773 205.972 51.0587 205.951 51.272C205.908 51.4 205.844 51.528 205.759 51.656C205.695 51.7627 205.642 51.88 205.599 52.008C205.492 52.136 205.407 52.3067 205.343 52.52C205.002 52.6693 204.714 52.7653 204.479 52.808C204.266 52.8507 203.946 52.9147 203.519 53C203.37 52.9573 203.199 52.904 203.007 52.84C202.836 52.776 202.644 52.7227 202.431 52.68C202.367 52.7013 202.303 52.7227 202.239 52.744C202.175 52.7653 202.1 52.7867 202.015 52.808C201.972 52.8507 201.919 52.8827 201.855 52.904C201.812 52.9253 201.77 52.9467 201.727 52.968C201.578 52.9467 201.439 52.9253 201.311 52.904C201.183 52.8613 201.044 52.8613 200.895 52.904C200.788 52.712 200.671 52.5307 200.543 52.36C200.436 52.168 200.362 51.9653 200.319 51.752C200.298 51.5173 200.223 51.3253 200.095 51.176C199.967 51.0053 199.882 50.8133 199.839 50.6C199.775 50.4933 199.7 50.408 199.615 50.344C199.551 50.28 199.487 50.216 199.423 50.152C199.338 49.9387 199.274 49.7147 199.231 49.48C199.188 49.2453 199.167 49.0107 199.167 48.776C198.89 48.456 198.751 48.1147 198.751 47.752C198.516 47.432 198.367 47.2293 198.303 47.144C198.26 47.0373 198.218 46.8453 198.175 46.568C197.962 46.2907 197.738 46.0027 197.503 45.704C197.29 45.4053 197.066 45.1173 196.831 44.84C196.746 44.4987 196.66 44.168 196.575 43.848C196.511 43.528 196.436 43.208 196.351 42.888C196.244 42.4613 196.116 42.056 195.967 41.672C195.818 41.2667 195.69 40.8613 195.583 40.456C195.54 40.264 195.487 40.0933 195.423 39.944C195.359 39.7733 195.306 39.6027 195.263 39.432C195.263 39.3467 195.242 39.272 195.199 39.208C195.178 39.1227 195.146 39.0587 195.103 39.016C195.018 38.9093 194.964 38.8027 194.943 38.696C194.922 38.568 194.9 38.4507 194.879 38.344C194.858 38.1947 194.826 38.0667 194.783 37.96C194.74 37.832 194.698 37.704 194.655 37.576C194.804 37.2133 195.018 36.8933 195.295 36.616C195.402 36.552 195.498 36.52 195.583 36.52C195.69 36.4987 195.786 36.4667 195.871 36.424C196.191 36.3387 196.426 36.2533 196.575 36.168C196.724 36.0613 196.948 35.9333 197.247 35.784C197.759 35.4853 198.292 35.272 198.847 35.144C198.954 35.1653 199.028 35.208 199.071 35.272C199.114 35.336 199.146 35.4107 199.167 35.496C199.231 35.7093 199.295 35.9333 199.359 36.168C199.444 36.3813 199.562 36.584 199.711 36.776C199.818 37.0747 199.946 37.3733 200.095 37.672C200.266 37.9707 200.415 38.2587 200.543 38.536C200.564 38.5573 200.618 38.664 200.703 38.856C200.788 39.0267 200.874 39.208 200.959 39.4C201.066 39.5707 201.13 39.656 201.151 39.656C201.45 39.912 201.663 40.1147 201.791 40.264C201.94 40.4133 202.068 40.584 202.175 40.776C202.282 40.9467 202.399 41.2133 202.527 41.576C202.634 41.8107 202.74 42.0453 202.847 42.28C202.954 42.5147 203.05 42.76 203.135 43.016C203.156 43.1653 203.167 43.3147 203.167 43.464C203.167 43.6133 203.178 43.7733 203.199 43.944C203.263 44.0507 203.316 44.168 203.359 44.296C203.423 44.424 203.476 44.552 203.519 44.68C203.604 44.7227 203.679 44.744 203.743 44.744C203.743 44.7653 203.754 44.776 203.775 44.776C203.818 44.7547 203.839 44.7333 203.839 44.712C203.988 44.4773 204.116 44.2533 204.223 44.04C204.351 43.8267 204.436 43.6027 204.479 43.368C204.5 43.1973 204.543 43.0587 204.607 42.952C204.671 42.8453 204.714 42.728 204.735 42.6C204.714 42.4933 204.703 42.376 204.703 42.248C204.703 42.12 204.692 42.0027 204.671 41.896C204.756 41.7253 204.831 41.576 204.895 41.448C204.98 41.32 205.055 41.192 205.119 41.064C205.162 40.936 205.194 40.808 205.215 40.68C205.258 40.5307 205.311 40.4027 205.375 40.296C205.482 40.0613 205.588 39.848 205.695 39.656C205.802 39.4427 205.919 39.2187 206.047 38.984C206.068 38.8773 206.058 38.7707 206.015 38.664C205.972 38.5573 205.94 38.4613 205.919 38.376C205.94 38.3333 205.951 38.2907 205.951 38.248C205.972 38.184 206.004 38.1413 206.047 38.12C206.324 37.992 206.516 37.7787 206.623 37.48C206.794 37.096 206.922 36.7867 207.007 36.552C207.114 36.296 207.284 35.9973 207.519 35.656C207.562 35.592 207.668 35.464 207.839 35.272C208.01 35.0587 208.116 34.9093 208.159 34.824C208.18 34.76 208.244 34.7067 208.351 34.664C208.436 34.6853 208.5 34.7173 208.543 34.76C208.607 34.7813 208.682 34.8133 208.767 34.856C208.852 34.856 208.927 34.8453 208.991 34.824C209.14 34.6747 209.311 34.6 209.503 34.6C209.674 34.5787 209.844 34.568 210.015 34.568C210.207 34.5467 210.378 34.5573 210.527 34.6C210.698 34.6427 210.815 34.7173 210.879 34.824C210.943 34.9307 211.05 34.9627 211.199 34.92C211.348 35.112 211.444 35.3147 211.487 35.528C211.53 35.7413 211.604 35.9333 211.711 36.104C211.796 36.2107 211.903 36.2747 212.031 36.296C212.18 36.3173 212.276 36.36 212.319 36.424C212.426 36.5733 212.479 36.7227 212.479 36.872C212.5 37 212.522 37.1173 212.543 37.224C212.586 37.3307 212.618 37.4373 212.639 37.544C212.682 37.6507 212.692 37.7787 212.671 37.928C212.65 37.9493 212.65 37.992 212.671 38.056C212.714 38.12 212.746 38.1733 212.767 38.216C212.81 38.28 212.863 38.344 212.927 38.408C212.991 38.4507 213.034 38.4933 213.055 38.536L213.279 39.08C213.3 39.1013 213.322 39.1333 213.343 39.176C213.386 39.1973 213.407 39.2293 213.407 39.272C213.428 39.3573 213.439 39.4533 213.439 39.56C213.46 39.6453 213.471 39.7413 213.471 39.848C213.471 40.296 213.546 40.68 213.695 41C213.802 41.2773 213.887 41.48 213.951 41.608C214.015 41.7147 214.196 41.896 214.495 42.152C214.538 42.216 214.57 42.2907 214.591 42.376C214.634 42.4613 214.676 42.5467 214.719 42.632C214.74 42.6747 214.783 42.792 214.847 42.984C214.932 43.1547 215.018 43.3147 215.103 43.464C215.188 43.6133 215.252 43.688 215.295 43.688C215.423 43.624 215.54 43.464 215.647 43.208C215.754 42.952 215.86 42.6853 215.967 42.408C216.074 42.1307 216.17 41.9493 216.255 41.864C216.319 41.6293 216.383 41.3947 216.447 41.16C216.532 40.9253 216.586 40.68 216.607 40.424C216.628 40.168 216.671 39.9227 216.735 39.688C216.82 39.432 216.874 39.1867 216.895 38.952C216.916 38.888 217.012 38.76 217.183 38.568C217.375 38.3547 217.482 38.2373 217.503 38.216C217.695 37.7893 217.78 37.4587 217.759 37.224C217.759 36.968 217.844 36.6373 218.015 36.232C218.122 36.04 218.239 35.8587 218.367 35.688C218.495 35.5173 218.602 35.3467 218.687 35.176C218.879 35.048 219.06 35.0053 219.231 35.048C219.402 35.0693 219.562 35.0587 219.711 35.016C219.967 35.08 220.18 35.112 220.351 35.112C220.522 35.112 220.703 35.176 220.895 35.304C221.002 35.3467 221.119 35.4 221.247 35.464C221.396 35.528 221.524 35.5813 221.631 35.624C221.716 35.752 221.823 35.8693 221.951 35.976C222.079 36.0613 222.186 36.168 222.271 36.296C222.527 36.4667 222.719 36.6053 222.847 36.712C222.996 36.8187 223.178 37 223.391 37.256ZM239.112 51.432C239.176 51.5813 239.197 51.72 239.176 51.848C239.154 51.976 239.112 52.104 239.048 52.232C239.026 52.2533 238.984 52.2853 238.92 52.328C238.856 52.3493 238.802 52.3813 238.76 52.424C238.674 52.4453 238.6 52.456 238.536 52.456C238.472 52.456 238.397 52.4773 238.312 52.52C237.992 52.584 237.8 52.7547 237.736 53.032C237.714 53.0747 237.672 53.128 237.608 53.192C237.458 53.2133 237.352 53.2347 237.288 53.256C237.224 53.2987 237.096 53.3733 236.904 53.48C236.754 53.48 236.605 53.5013 236.456 53.544C236.306 53.5867 236.168 53.672 236.04 53.8C235.997 53.8 235.965 53.8 235.944 53.8C235.922 53.8213 235.89 53.832 235.848 53.832C235.762 53.8747 235.666 53.8533 235.56 53.768C235.453 53.704 235.4 53.6187 235.4 53.512V53.32C235.314 53.2773 235.208 53.2773 235.08 53.32C234.973 53.3627 234.888 53.32 234.824 53.192V52.712C234.76 52.6693 234.696 52.6373 234.632 52.616C234.589 52.5733 234.536 52.5413 234.472 52.52C234.386 52.3493 234.29 52.168 234.184 51.976C234.077 51.784 233.97 51.6133 233.864 51.464C233.778 51.4 233.704 51.3787 233.64 51.4C233.576 51.4213 233.522 51.4533 233.48 51.496C233.437 51.5387 233.405 51.592 233.384 51.656C233.362 51.6987 233.33 51.7413 233.288 51.784C233.245 51.8267 233.213 51.88 233.192 51.944C233.17 52.008 233.138 52.0613 233.096 52.104C232.818 52.232 232.541 52.3493 232.264 52.456C231.986 52.5413 231.72 52.616 231.464 52.68C231.314 52.7867 231.165 52.8827 231.016 52.968C230.866 53.0533 230.728 53.1387 230.6 53.224C230.472 53.2453 230.344 53.2773 230.216 53.32C230.088 53.3627 229.97 53.3947 229.864 53.416C229.736 53.352 229.608 53.3307 229.48 53.352C229.373 53.3947 229.234 53.4373 229.064 53.48C228.872 53.4373 228.669 53.384 228.456 53.32C228.242 53.2773 228.018 53.2347 227.784 53.192C227.72 53.2133 227.656 53.224 227.592 53.224C227.528 53.224 227.474 53.2347 227.432 53.256C227.346 53.2133 227.272 53.1707 227.208 53.128C227.165 53.0853 227.101 53.0533 227.016 53.032C226.909 52.9893 226.813 52.9893 226.728 53.032C226.642 53.0747 226.546 53.1173 226.44 53.16C226.333 53.1173 226.216 53.0853 226.088 53.064C225.96 53.064 225.832 53.0533 225.704 53.032C225.597 52.9253 225.501 52.8293 225.416 52.744C225.352 52.6587 225.309 52.552 225.288 52.424C225.245 52.3813 225.202 52.3493 225.16 52.328C225.117 52.2853 225.085 52.2533 225.064 52.232C224.978 51.9333 224.882 51.6773 224.776 51.464C224.477 50.824 224.274 50.12 224.168 49.352C224.125 49.3093 224.082 49.2667 224.04 49.224C223.997 49.16 223.944 49.096 223.88 49.032C223.858 48.84 223.837 48.6587 223.816 48.488C223.794 48.296 223.762 48.0933 223.72 47.88C223.762 47.752 223.784 47.6347 223.784 47.528C223.741 47.3147 223.698 47.1227 223.656 46.952C223.741 46.696 223.826 46.44 223.912 46.184C224.018 45.928 224.05 45.6613 224.008 45.384C224.05 45.2987 224.104 45.224 224.168 45.16C224.232 45.0747 224.285 45 224.328 44.936C224.52 44.7227 224.658 44.4773 224.744 44.2C224.808 43.9653 224.914 43.7627 225.064 43.592C225.234 43.4213 225.416 43.2827 225.608 43.176C225.842 43.0693 226.066 42.9627 226.28 42.856C226.514 42.728 226.738 42.6213 226.952 42.536C226.994 42.536 227.048 42.5467 227.112 42.568C227.197 42.568 227.261 42.5573 227.304 42.536C227.688 42.472 228.018 42.4507 228.296 42.472C228.424 42.4933 228.552 42.4933 228.68 42.472C228.808 42.4507 228.925 42.44 229.032 42.44L229.704 42.312C229.832 42.3333 229.96 42.3653 230.088 42.408C230.216 42.4507 230.344 42.44 230.472 42.376C230.514 42.376 230.546 42.3867 230.568 42.408C230.61 42.408 230.642 42.408 230.664 42.408C230.77 42.4507 230.866 42.504 230.952 42.568C231.037 42.6107 231.133 42.632 231.24 42.632C231.474 42.6747 231.624 42.632 231.688 42.504C231.666 42.1413 231.634 41.9067 231.592 41.8C231.57 41.6933 231.506 41.5227 231.4 41.288C231.336 41.16 231.293 41.032 231.272 40.904C231.25 40.7547 231.229 40.616 231.208 40.488C231.186 40.4027 231.165 40.328 231.144 40.264C231.144 40.1787 231.101 40.0933 231.016 40.008C230.738 39.9227 230.397 39.8587 229.992 39.816H229.8C229.608 39.9013 229.405 39.944 229.192 39.944C228.978 39.944 228.754 39.9653 228.52 40.008C228.37 40.0293 228.21 40.072 228.04 40.136C227.89 40.2 227.73 40.2533 227.56 40.296C227.389 40.3813 227.218 40.3387 227.048 40.168C226.984 39.976 226.952 39.784 226.952 39.592C226.973 39.3787 226.994 39.1653 227.016 38.952C226.973 38.8027 226.92 38.632 226.856 38.44C226.792 38.2267 226.76 37.9813 226.76 37.704L226.792 37.48C226.77 37.4373 226.728 37.3947 226.664 37.352C226.621 37.3093 226.578 37.2773 226.536 37.256C226.472 37.192 226.461 37.128 226.504 37.064C226.504 37 226.536 36.968 226.6 36.968C226.77 36.9253 226.93 36.8933 227.08 36.872C227.229 36.8507 227.378 36.8293 227.528 36.808L227.912 36.424C227.954 36.4027 228.008 36.392 228.072 36.392C228.562 36.4773 228.914 36.5093 229.128 36.488C229.362 36.4667 229.714 36.3813 230.184 36.232C230.418 36.2533 230.642 36.2853 230.856 36.328C231.09 36.3707 231.325 36.3813 231.56 36.36C231.624 36.424 231.688 36.488 231.752 36.552C231.837 36.5947 231.922 36.648 232.008 36.712C232.114 36.6693 232.221 36.6373 232.328 36.616C232.434 36.5733 232.53 36.5413 232.616 36.52C232.744 36.6053 232.882 36.6907 233.032 36.776C233.138 36.7973 233.224 36.776 233.288 36.712C233.373 36.648 233.458 36.616 233.544 36.616C233.736 36.6373 233.885 36.7333 233.992 36.904C234.12 37.0533 234.258 37.1813 234.408 37.288C234.536 37.3733 234.653 37.48 234.76 37.608C234.888 37.736 235.016 37.8533 235.144 37.96C235.186 38.024 235.229 38.088 235.272 38.152C235.314 38.216 235.346 38.28 235.368 38.344C235.474 38.4293 235.57 38.504 235.656 38.568C235.741 38.6107 235.816 38.6747 235.88 38.76C235.986 38.8453 236.093 38.9093 236.2 38.952C236.328 38.9947 236.424 39.0693 236.488 39.176C236.53 39.2827 236.573 39.4 236.616 39.528C236.658 39.6347 236.733 39.7307 236.84 39.816C236.904 40.0293 236.968 40.2533 237.032 40.488C237.096 40.7013 237.106 40.9253 237.064 41.16C237.064 41.2667 237.053 41.3627 237.032 41.448C237.074 41.5547 237.106 41.672 237.128 41.8C237.149 41.928 237.181 42.0453 237.224 42.152V42.312C237.224 42.376 237.213 42.4507 237.192 42.536C237.192 42.6 237.202 42.6533 237.224 42.696C237.266 42.824 237.32 42.92 237.384 42.984C237.384 43.112 237.33 43.2293 237.224 43.336C237.181 43.3573 237.128 43.3787 237.064 43.4C237 43.4213 236.946 43.4533 236.904 43.496C236.648 43.6453 236.616 43.8373 236.808 44.072C236.829 44.0933 236.861 44.136 236.904 44.2C236.968 44.2427 237.01 44.296 237.032 44.36C237.053 44.4453 237.064 44.5413 237.064 44.648C237.064 44.7333 237.074 44.8293 237.096 44.936C237.01 45.3413 236.85 45.7253 236.616 46.088C236.68 46.3867 236.776 46.6747 236.904 46.952C237.053 47.2293 237.181 47.5173 237.288 47.816C237.394 47.88 237.48 47.944 237.544 48.008C237.608 48.072 237.682 48.1253 237.768 48.168C237.789 48.232 237.8 48.2747 237.8 48.296C237.821 48.3173 237.832 48.3493 237.832 48.392C237.832 48.6053 237.853 48.8187 237.896 49.032C237.96 49.2453 238.034 49.448 238.12 49.64C238.205 49.832 238.29 50.0133 238.376 50.184C238.461 50.3547 238.568 50.5253 238.696 50.696C238.802 50.7813 238.888 50.8987 238.952 51.048C239.016 51.1973 239.069 51.3253 239.112 51.432ZM232.104 47.112C231.976 46.792 231.816 46.5787 231.624 46.472C231.389 46.3653 231.24 46.2267 231.176 46.056C231.154 45.9707 231.112 45.9173 231.048 45.896C230.984 45.8747 230.92 45.8533 230.856 45.832C230.77 45.832 230.664 45.8427 230.536 45.864C230.429 45.864 230.322 45.8747 230.216 45.896C230.088 45.896 229.96 45.8747 229.832 45.832C229.725 45.7893 229.618 45.7573 229.512 45.736C229.32 45.736 229.138 45.7893 228.968 45.896C228.882 45.96 228.808 46.024 228.744 46.088C228.68 46.1307 228.616 46.1947 228.552 46.28L228.136 47.048C228.178 47.176 228.232 47.2933 228.296 47.4C228.36 47.4853 228.36 47.6133 228.296 47.784C228.338 47.976 228.381 48.1787 228.424 48.392C228.488 48.584 228.573 48.776 228.68 48.968C228.722 49.0107 228.754 49.032 228.776 49.032C229.01 49.0747 229.245 49.096 229.48 49.096C229.714 49.096 229.938 49.0853 230.152 49.064C230.237 49.064 230.301 49.0533 230.344 49.032C230.578 48.904 230.866 48.7867 231.208 48.68C231.336 48.6587 231.453 48.5627 231.56 48.392C231.645 48.2 231.73 47.9973 231.816 47.784C231.901 47.5493 231.997 47.3253 232.104 47.112ZM225.32 52.36C225.32 52.36 225.309 52.36 225.288 52.36C225.288 52.36 225.288 52.3813 225.288 52.424C225.33 52.3813 225.341 52.36 225.32 52.36ZM250.638 50.408C250.638 50.6 250.553 50.76 250.382 50.888C250.211 51.0587 250.169 51.2613 250.254 51.496C250.297 51.6453 250.318 51.8053 250.318 51.976C250.318 52.1467 250.318 52.3173 250.318 52.488C250.297 52.5307 250.265 52.584 250.222 52.648C250.201 52.6907 250.169 52.7333 250.126 52.776C250.041 52.8187 249.987 52.84 249.966 52.84C249.795 52.8613 249.625 52.8827 249.454 52.904C249.283 52.904 249.113 52.904 248.942 52.904C248.835 52.904 248.782 52.904 248.782 52.904C248.483 52.8187 248.185 52.776 247.886 52.776C247.609 52.7547 247.331 52.7227 247.054 52.68C246.883 52.6373 246.723 52.616 246.574 52.616C246.425 52.616 246.275 52.6373 246.126 52.68C245.913 52.5733 245.699 52.4667 245.486 52.36C245.294 52.232 245.081 52.1147 244.846 52.008C244.697 51.7733 244.505 51.5813 244.27 51.432C244.057 51.2613 243.865 51.0587 243.694 50.824C243.651 50.7173 243.598 50.6107 243.534 50.504C243.491 50.3973 243.438 50.3013 243.374 50.216C243.161 49.896 243.022 49.544 242.958 49.16C242.958 49.0107 242.905 48.8827 242.798 48.776C242.627 48.456 242.585 48.1573 242.67 47.88C242.691 47.8373 242.691 47.7947 242.67 47.752C242.67 47.688 242.681 47.6453 242.702 47.624C242.617 47.5173 242.553 47.432 242.51 47.368C242.467 47.304 242.425 47.24 242.382 47.176C242.382 47.0267 242.393 46.92 242.414 46.856L242.158 46.536C242.201 46.3013 242.233 46.0667 242.254 45.832C242.297 45.576 242.339 45.3413 242.382 45.128L242.158 44.808C242.158 44.7227 242.19 44.6587 242.254 44.616C242.318 44.552 242.371 44.4773 242.414 44.392C242.499 44.1573 242.553 43.9333 242.574 43.72C242.638 43.464 242.67 43.2187 242.67 42.984C242.627 42.5147 242.627 42.056 242.67 41.608C242.713 41.16 242.723 40.7013 242.702 40.232C242.809 39.7627 242.851 39.2933 242.83 38.824C242.809 38.3547 242.841 37.896 242.926 37.448C242.926 37.3413 242.926 37.288 242.926 37.288C242.862 37.032 242.862 36.7867 242.926 36.552C242.99 36.3173 243.065 36.104 243.15 35.912C243.129 35.8693 243.118 35.816 243.118 35.752C243.118 35.688 243.097 35.6347 243.054 35.592C243.097 35.4427 243.161 35.3253 243.246 35.24C243.331 35.1333 243.406 35.0373 243.47 34.952C243.513 34.8667 243.545 34.7813 243.566 34.696C243.609 34.5893 243.641 34.4933 243.662 34.408L243.886 34.184C244.078 34.1413 244.281 34.1307 244.494 34.152C244.558 34.1733 244.622 34.2053 244.686 34.248C244.771 34.2907 244.857 34.3333 244.942 34.376C245.091 34.4613 245.23 34.536 245.358 34.6C245.507 34.6427 245.667 34.6533 245.838 34.632C246.073 34.7173 246.297 34.7707 246.51 34.792C246.745 34.8133 246.969 34.8133 247.182 34.792H247.31C247.31 34.792 247.31 34.8027 247.31 34.824C247.331 34.824 247.353 34.824 247.374 34.824C247.481 34.8453 247.577 34.8987 247.662 34.984C247.747 35.0693 247.769 35.1653 247.726 35.272C247.683 35.592 247.651 35.912 247.63 36.232C247.63 36.552 247.609 36.872 247.566 37.192C247.523 37.4907 247.481 37.8 247.438 38.12C247.395 38.4187 247.342 38.7173 247.278 39.016C247.257 39.4853 247.214 39.9547 247.15 40.424C247.107 40.872 247.086 41.32 247.086 41.768C247.086 41.832 247.086 41.8853 247.086 41.928C247.107 41.9707 247.118 42.0133 247.118 42.056C247.011 42.2693 246.926 42.4827 246.862 42.696C246.819 42.9093 246.766 43.1333 246.702 43.368C246.659 43.5387 246.659 43.72 246.702 43.912C246.766 44.168 246.787 44.424 246.766 44.68C246.766 44.936 246.745 45.2027 246.702 45.48V45.672C246.745 45.7573 246.787 45.8533 246.83 45.96C246.894 46.0667 246.947 46.1733 246.99 46.28C246.969 46.344 246.947 46.4187 246.926 46.504C246.905 46.568 246.883 46.632 246.862 46.696C246.905 46.8027 246.926 46.92 246.926 47.048C246.947 47.176 246.969 47.2933 246.99 47.4C247.075 47.5067 247.161 47.6133 247.246 47.72C247.331 47.8053 247.385 47.912 247.406 48.04C247.406 48.0827 247.427 48.136 247.47 48.2C247.513 48.264 247.545 48.3173 247.566 48.36C247.609 48.4667 247.673 48.552 247.758 48.616C247.865 48.68 247.961 48.7333 248.046 48.776C248.195 48.7973 248.334 48.8293 248.462 48.872C248.59 48.9147 248.729 48.9573 248.878 49C248.963 49 249.027 49 249.07 49C249.134 48.9787 249.198 48.968 249.262 48.968C249.305 48.9893 249.358 49.0107 249.422 49.032C249.507 49.0533 249.582 49.0747 249.646 49.096C249.667 49.1173 249.689 49.1493 249.71 49.192C249.731 49.2133 249.753 49.2347 249.774 49.256C249.817 49.4267 249.934 49.608 250.126 49.8C250.233 49.8853 250.329 49.9813 250.414 50.088C250.521 50.1733 250.595 50.28 250.638 50.408ZM262.169 50.408C262.169 50.6 262.084 50.76 261.913 50.888C261.743 51.0587 261.7 51.2613 261.785 51.496C261.828 51.6453 261.849 51.8053 261.849 51.976C261.849 52.1467 261.849 52.3173 261.849 52.488C261.828 52.5307 261.796 52.584 261.753 52.648C261.732 52.6907 261.7 52.7333 261.657 52.776C261.572 52.8187 261.519 52.84 261.497 52.84C261.327 52.8613 261.156 52.8827 260.985 52.904C260.815 52.904 260.644 52.904 260.473 52.904C260.367 52.904 260.313 52.904 260.313 52.904C260.015 52.8187 259.716 52.776 259.417 52.776C259.14 52.7547 258.863 52.7227 258.585 52.68C258.415 52.6373 258.255 52.616 258.105 52.616C257.956 52.616 257.807 52.6373 257.657 52.68C257.444 52.5733 257.231 52.4667 257.017 52.36C256.825 52.232 256.612 52.1147 256.377 52.008C256.228 51.7733 256.036 51.5813 255.801 51.432C255.588 51.2613 255.396 51.0587 255.225 50.824C255.183 50.7173 255.129 50.6107 255.065 50.504C255.023 50.3973 254.969 50.3013 254.905 50.216C254.692 49.896 254.553 49.544 254.489 49.16C254.489 49.0107 254.436 48.8827 254.329 48.776C254.159 48.456 254.116 48.1573 254.201 47.88C254.223 47.8373 254.223 47.7947 254.201 47.752C254.201 47.688 254.212 47.6453 254.233 47.624C254.148 47.5173 254.084 47.432 254.041 47.368C253.999 47.304 253.956 47.24 253.913 47.176C253.913 47.0267 253.924 46.92 253.945 46.856L253.689 46.536C253.732 46.3013 253.764 46.0667 253.785 45.832C253.828 45.576 253.871 45.3413 253.913 45.128L253.689 44.808C253.689 44.7227 253.721 44.6587 253.785 44.616C253.849 44.552 253.903 44.4773 253.945 44.392C254.031 44.1573 254.084 43.9333 254.105 43.72C254.169 43.464 254.201 43.2187 254.201 42.984C254.159 42.5147 254.159 42.056 254.201 41.608C254.244 41.16 254.255 40.7013 254.233 40.232C254.34 39.7627 254.383 39.2933 254.361 38.824C254.34 38.3547 254.372 37.896 254.457 37.448C254.457 37.3413 254.457 37.288 254.457 37.288C254.393 37.032 254.393 36.7867 254.457 36.552C254.521 36.3173 254.596 36.104 254.681 35.912C254.66 35.8693 254.649 35.816 254.649 35.752C254.649 35.688 254.628 35.6347 254.585 35.592C254.628 35.4427 254.692 35.3253 254.777 35.24C254.863 35.1333 254.937 35.0373 255.001 34.952C255.044 34.8667 255.076 34.7813 255.097 34.696C255.14 34.5893 255.172 34.4933 255.193 34.408L255.417 34.184C255.609 34.1413 255.812 34.1307 256.025 34.152C256.089 34.1733 256.153 34.2053 256.217 34.248C256.303 34.2907 256.388 34.3333 256.473 34.376C256.623 34.4613 256.761 34.536 256.889 34.6C257.039 34.6427 257.199 34.6533 257.369 34.632C257.604 34.7173 257.828 34.7707 258.041 34.792C258.276 34.8133 258.5 34.8133 258.713 34.792H258.841C258.841 34.792 258.841 34.8027 258.841 34.824C258.863 34.824 258.884 34.824 258.905 34.824C259.012 34.8453 259.108 34.8987 259.193 34.984C259.279 35.0693 259.3 35.1653 259.257 35.272C259.215 35.592 259.183 35.912 259.161 36.232C259.161 36.552 259.14 36.872 259.097 37.192C259.055 37.4907 259.012 37.8 258.969 38.12C258.927 38.4187 258.873 38.7173 258.809 39.016C258.788 39.4853 258.745 39.9547 258.681 40.424C258.639 40.872 258.617 41.32 258.617 41.768C258.617 41.832 258.617 41.8853 258.617 41.928C258.639 41.9707 258.649 42.0133 258.649 42.056C258.543 42.2693 258.457 42.4827 258.393 42.696C258.351 42.9093 258.297 43.1333 258.233 43.368C258.191 43.5387 258.191 43.72 258.233 43.912C258.297 44.168 258.319 44.424 258.297 44.68C258.297 44.936 258.276 45.2027 258.233 45.48V45.672C258.276 45.7573 258.319 45.8533 258.361 45.96C258.425 46.0667 258.479 46.1733 258.521 46.28C258.5 46.344 258.479 46.4187 258.457 46.504C258.436 46.568 258.415 46.632 258.393 46.696C258.436 46.8027 258.457 46.92 258.457 47.048C258.479 47.176 258.5 47.2933 258.521 47.4C258.607 47.5067 258.692 47.6133 258.777 47.72C258.863 47.8053 258.916 47.912 258.937 48.04C258.937 48.0827 258.959 48.136 259.001 48.2C259.044 48.264 259.076 48.3173 259.097 48.36C259.14 48.4667 259.204 48.552 259.289 48.616C259.396 48.68 259.492 48.7333 259.577 48.776C259.727 48.7973 259.865 48.8293 259.993 48.872C260.121 48.9147 260.26 48.9573 260.409 49C260.495 49 260.559 49 260.601 49C260.665 48.9787 260.729 48.968 260.793 48.968C260.836 48.9893 260.889 49.0107 260.953 49.032C261.039 49.0533 261.113 49.0747 261.177 49.096C261.199 49.1173 261.22 49.1493 261.241 49.192C261.263 49.2133 261.284 49.2347 261.305 49.256C261.348 49.4267 261.465 49.608 261.657 49.8C261.764 49.8853 261.86 49.9813 261.945 50.088C262.052 50.1733 262.127 50.28 262.169 50.408ZM279.013 41.704C278.991 41.9173 278.97 42.1413 278.949 42.376C278.949 42.5893 278.927 42.8027 278.885 43.016C278.863 43.2293 278.853 43.464 278.853 43.72C278.853 43.9547 278.81 44.2 278.725 44.456C278.682 44.52 278.629 44.5947 278.565 44.68C278.501 44.744 278.437 44.8293 278.373 44.936C278.373 45.0213 278.373 45.096 278.373 45.16C278.394 45.224 278.415 45.2987 278.437 45.384C278.394 45.4907 278.33 45.5867 278.245 45.672C278.159 45.736 278.074 45.7893 277.989 45.832C277.775 45.896 277.573 45.96 277.381 46.024C277.21 46.088 277.029 46.1413 276.837 46.184C276.538 46.2267 276.229 46.2373 275.909 46.216C275.589 46.1733 275.269 46.1627 274.949 46.184C274.671 46.184 274.373 46.1947 274.053 46.216C273.754 46.216 273.445 46.216 273.125 46.216H271.333C271.247 46.28 271.151 46.3013 271.045 46.28C270.959 46.2587 270.874 46.2693 270.789 46.312C270.703 46.2693 270.607 46.2693 270.501 46.312C270.394 46.3333 270.287 46.3227 270.181 46.28C270.095 46.3013 270.01 46.3227 269.925 46.344C269.861 46.344 269.775 46.3547 269.669 46.376C269.583 46.3547 269.509 46.3333 269.445 46.312C269.381 46.2693 269.306 46.28 269.221 46.344C269.263 46.408 269.306 46.4827 269.349 46.568C269.413 46.632 269.455 46.7173 269.477 46.824C269.541 46.9093 269.594 46.9947 269.637 47.08C269.679 47.1653 269.722 47.2613 269.765 47.368C269.807 47.4533 269.839 47.5493 269.861 47.656C269.882 47.7413 269.903 47.8267 269.925 47.912C270.031 48.0187 270.149 48.1253 270.277 48.232C270.405 48.3387 270.533 48.4453 270.661 48.552C270.767 48.5733 270.874 48.5947 270.981 48.616C271.109 48.6373 271.226 48.6587 271.333 48.68C271.461 48.7013 271.589 48.7227 271.717 48.744C271.845 48.7653 271.983 48.7653 272.133 48.744C272.282 48.7013 272.421 48.712 272.549 48.776C272.677 48.8187 272.815 48.8507 272.965 48.872C273.157 48.8507 273.349 48.8293 273.541 48.808C273.754 48.7867 273.957 48.7653 274.149 48.744C274.234 48.68 274.319 48.6267 274.405 48.584C274.511 48.52 274.607 48.456 274.693 48.392C274.97 48.328 275.247 48.3387 275.525 48.424C275.589 48.5307 275.663 48.6373 275.749 48.744C275.855 48.8507 275.951 48.968 276.037 49.096C276.165 49.288 276.293 49.48 276.421 49.672C276.549 49.8427 276.634 50.0453 276.677 50.28C276.719 50.3867 276.783 50.4933 276.869 50.6C276.954 50.7067 277.018 50.8027 277.061 50.888C277.082 50.9947 277.071 51.0907 277.029 51.176C277.007 51.2613 276.986 51.3573 276.965 51.464C276.879 51.5493 276.773 51.624 276.645 51.688C276.623 51.688 276.602 51.7093 276.581 51.752C276.559 51.7947 276.527 51.8267 276.485 51.848C276.357 51.9333 276.229 52.0187 276.101 52.104C275.973 52.1893 275.855 52.2747 275.749 52.36C275.45 52.616 275.141 52.744 274.821 52.744C274.693 52.744 274.597 52.7547 274.533 52.776C274.426 52.7973 274.319 52.84 274.213 52.904C274.106 52.968 273.989 53.0213 273.861 53.064C273.754 53.064 273.647 53.0747 273.541 53.096C273.434 53.1387 273.327 53.1707 273.22 53.192C273.157 53.192 273.082 53.1813 272.997 53.16C272.911 53.16 272.826 53.16 272.741 53.16C272.549 53.1813 272.357 53.1707 272.165 53.128C271.973 53.0853 271.781 53.064 271.589 53.064C271.525 53.0427 271.461 53.0213 271.397 53C271.333 52.9787 271.269 52.968 271.205 52.968C270.842 52.9893 270.501 52.936 270.181 52.808C269.861 52.6587 269.541 52.5093 269.221 52.36C268.965 52.296 268.783 52.1787 268.677 52.008C268.527 51.8373 268.357 51.6987 268.165 51.592C267.994 51.464 267.802 51.3573 267.589 51.272C267.461 51.2293 267.333 51.176 267.205 51.112C267.077 51.0267 266.938 50.9413 266.789 50.856C266.767 50.7707 266.735 50.6853 266.693 50.6C266.65 50.5147 266.607 50.4293 266.565 50.344C266.522 50.28 266.458 50.216 266.373 50.152C266.309 50.088 266.245 50.024 266.181 49.96C266.117 49.896 266.063 49.8213 266.021 49.736C265.914 49.3733 265.807 49.0213 265.701 48.68C265.594 48.3173 265.455 47.9653 265.285 47.624C265.306 47.4747 265.317 47.3253 265.317 47.176C265.338 47.0053 265.327 46.824 265.285 46.632C265.263 46.5893 265.253 46.536 265.253 46.472C265.253 46.408 265.253 46.3547 265.253 46.312C265.253 46.2053 265.253 46.12 265.253 46.056C265.274 45.9707 265.274 45.896 265.253 45.832C265.231 45.6613 265.21 45.4907 265.189 45.32C265.167 45.1493 265.178 44.9893 265.221 44.84C265.263 44.6693 265.306 44.4987 265.349 44.328C265.391 44.1573 265.445 43.976 265.509 43.784C265.487 43.7413 265.477 43.6773 265.477 43.592C265.477 43.5067 265.466 43.4213 265.445 43.336C265.487 43.1013 265.53 42.8667 265.573 42.632C265.615 42.3973 265.669 42.1733 265.733 41.96C265.797 41.832 265.861 41.7147 265.924 41.608C266.01 41.48 266.095 41.352 266.181 41.224C266.33 40.968 266.447 40.7227 266.533 40.488C266.789 40.36 266.938 40.2853 266.981 40.264C267.045 40.2213 267.098 40.168 267.141 40.104C267.183 40.04 267.322 39.912 267.557 39.72C267.535 39.656 267.589 39.56 267.717 39.432C267.845 39.304 267.887 39.1973 267.845 39.112C268.037 38.7493 268.314 38.4613 268.677 38.248C268.805 38.1627 268.922 38.0773 269.029 37.992C269.157 37.8853 269.263 37.7893 269.349 37.704C269.455 37.64 269.551 37.6187 269.637 37.64C269.743 37.64 269.839 37.64 269.925 37.64C269.989 37.6187 270.053 37.608 270.117 37.608C270.202 37.5867 270.287 37.5653 270.373 37.544C270.415 37.5227 270.469 37.5013 270.533 37.48C270.597 37.4587 270.65 37.4267 270.693 37.384C270.735 37.3627 270.778 37.3413 270.821 37.32C270.863 37.2987 270.906 37.288 270.949 37.288C271.141 37.2667 271.322 37.2133 271.493 37.128C271.663 37.0427 271.823 36.9573 271.973 36.872C272.293 37 272.623 37.0427 272.965 37C273.178 36.9787 273.381 36.9893 273.573 37.032C273.786 37.0747 273.978 37.128 274.149 37.192L274.597 37.064C274.767 37.0853 274.927 37.1387 275.077 37.224C275.226 37.3093 275.375 37.3947 275.525 37.48H275.813C275.834 37.5013 275.855 37.5227 275.877 37.544C275.898 37.544 275.919 37.5547 275.941 37.576C276.175 37.7893 276.399 37.992 276.613 38.184C276.826 38.3547 277.05 38.536 277.285 38.728C277.605 38.9413 277.807 39.1973 277.893 39.496C277.978 39.624 278.053 39.72 278.117 39.784C278.373 39.9973 278.597 40.2853 278.789 40.648C278.789 40.6907 278.789 40.7547 278.789 40.84C278.81 40.904 278.821 40.968 278.821 41.032C278.799 41.1387 278.821 41.2453 278.885 41.352C278.949 41.4587 278.991 41.576 279.013 41.704ZM274.949 42.76V41.96C274.949 41.8533 274.938 41.7893 274.917 41.768C274.895 41.704 274.863 41.64 274.821 41.576C274.799 41.512 274.778 41.4693 274.757 41.448V40.904L274.661 40.808C274.575 40.808 274.469 40.7867 274.341 40.744C274.298 40.552 274.245 40.4027 274.181 40.296C274.117 40.2107 274.031 40.1573 273.925 40.136C273.818 40.1147 273.701 40.0827 273.573 40.04C273.295 40.1253 272.997 40.2 272.677 40.264C272.357 40.328 272.047 40.4133 271.749 40.52C271.599 40.5413 271.461 40.552 271.333 40.552C271.205 40.552 271.077 40.5627 270.949 40.584C270.735 40.6693 270.543 40.808 270.373 41C270.223 41.1707 270.074 41.3413 269.925 41.512C269.839 41.6187 269.765 41.736 269.701 41.864C269.637 41.992 269.562 42.1093 269.477 42.216C269.455 42.2373 269.445 42.3013 269.445 42.408C269.509 42.5787 269.605 42.6853 269.733 42.728C269.861 42.7493 269.989 42.7813 270.117 42.824C270.245 42.8667 270.383 42.9093 270.533 42.952C270.597 42.9307 270.65 42.92 270.693 42.92C270.757 42.92 270.821 42.9093 270.885 42.888C271.141 42.7813 271.354 42.7707 271.525 42.856C271.695 42.8773 271.845 42.8773 271.973 42.856C272.122 42.8347 272.271 42.8133 272.421 42.792C272.549 42.856 272.677 42.8987 272.805 42.92C272.954 42.9413 273.093 42.9733 273.22 43.016C273.498 43.1013 273.765 43.144 274.021 43.144C274.277 43.144 274.533 43.112 274.789 43.048C274.895 42.9413 274.949 42.8453 274.949 42.76ZM292.465 50.696C292.358 50.9093 292.262 51.1227 292.177 51.336C292.092 51.5493 291.996 51.7627 291.889 51.976L291.217 52.616C290.812 53.064 290.332 53.3307 289.777 53.416C289.5 53.4587 289.212 53.4693 288.913 53.448C288.636 53.448 288.348 53.4053 288.049 53.32C287.878 53.2773 287.697 53.2133 287.505 53.128C287.334 53.064 287.164 52.9893 286.993 52.904C286.865 52.84 286.726 52.7973 286.577 52.776C286.428 52.7333 286.268 52.7013 286.097 52.68C286.033 52.6373 285.958 52.5947 285.873 52.552C285.788 52.488 285.692 52.424 285.585 52.36C285.436 52.104 285.254 51.8693 285.041 51.656C284.849 51.4427 284.7 51.176 284.593 50.856C284.593 50.6 284.582 50.4293 284.561 50.344C284.54 50.2373 284.476 50.0347 284.369 49.736V47.624C284.369 47.4533 284.358 47.2933 284.337 47.144C284.337 46.9733 284.316 46.8133 284.273 46.664C284.252 46.5147 284.241 46.3867 284.241 46.28C284.262 46.1733 284.284 46.0453 284.305 45.896C284.369 45.64 284.369 45.3733 284.305 45.096C284.369 44.84 284.444 44.584 284.529 44.328C284.529 44.2 284.497 44.0187 284.433 43.784C284.369 43.5493 284.294 43.3253 284.209 43.112C284.102 43.112 283.996 43.1013 283.889 43.08C283.782 43.0587 283.665 43.0373 283.537 43.016C283.409 43.0587 283.27 43.1013 283.121 43.144C282.993 43.1867 282.844 43.2293 282.673 43.272C282.609 43.3147 282.513 43.336 282.385 43.336C282.364 43.336 282.321 43.3147 282.257 43.272C282.214 43.208 282.193 43.1653 282.193 43.144C282.172 43.08 282.161 43.016 282.161 42.952C282.161 42.888 282.161 42.824 282.161 42.76C282.14 42.5893 282.129 42.408 282.129 42.216C282.129 42.024 282.129 41.8427 282.129 41.672C282.129 41.5013 282.118 41.3413 282.097 41.192C282.076 41.0213 282.044 40.8613 282.001 40.712C282.022 40.6053 282.044 40.5093 282.065 40.424C282.086 40.3173 282.108 40.2213 282.129 40.136V39.528C282.129 39.3573 282.15 39.208 282.193 39.08C282.257 38.952 282.374 38.8347 282.545 38.728C282.673 38.6853 282.812 38.664 282.961 38.664C283.132 38.664 283.313 38.664 283.505 38.664C283.676 38.6853 283.846 38.6853 284.017 38.664C284.209 38.6213 284.38 38.5253 284.529 38.376C284.572 38.3333 284.625 38.312 284.689 38.312C284.774 38.312 284.838 38.312 284.881 38.312C285.308 38.3333 285.681 38.1627 286.001 37.8C286.022 37.672 286.086 37.4907 286.193 37.256C286.129 37.1067 286.076 36.9467 286.033 36.776C285.99 36.584 285.937 36.4027 285.873 36.232C285.916 36.168 285.958 36.104 286.001 36.04C286.044 35.976 286.076 35.9013 286.097 35.816C286.14 35.7093 286.14 35.6133 286.097 35.528C286.054 35.4213 286.044 35.336 286.065 35.272C286.022 35.1653 286.001 35.0907 286.001 35.048C286.001 35.0053 285.98 34.9307 285.937 34.824C285.958 34.7813 285.98 34.7387 286.001 34.696C286.022 34.632 286.044 34.5787 286.065 34.536C286.086 34.4507 286.108 34.3867 286.129 34.344C286.15 34.28 286.172 34.2053 286.193 34.12H286.545C286.652 34.1413 286.758 34.1627 286.865 34.184C286.993 34.184 287.11 34.1733 287.217 34.152C287.26 34.152 287.313 34.1627 287.377 34.184C287.441 34.184 287.505 34.184 287.569 34.184C287.932 34.2267 288.284 34.28 288.625 34.344C288.988 34.408 289.34 34.44 289.681 34.44C289.724 34.44 289.766 34.4507 289.809 34.472C289.873 34.4933 289.916 34.5147 289.937 34.536C290.022 34.5787 290.097 34.632 290.161 34.696C290.14 34.7813 290.108 34.8667 290.065 34.952C290.022 35.016 289.99 35.08 289.969 35.144C289.948 35.2293 289.926 35.3253 289.905 35.432C289.905 35.5387 289.894 35.6453 289.873 35.752C289.852 35.9013 289.83 36.0507 289.809 36.2C289.788 36.3493 289.756 36.52 289.713 36.712C289.734 36.7333 289.745 36.7867 289.745 36.872C289.745 36.9573 289.756 37.032 289.777 37.096C289.756 37.2453 289.724 37.384 289.681 37.512C289.66 37.64 289.638 37.7893 289.617 37.96C289.894 38.1733 290.193 38.3547 290.513 38.504C290.854 38.6533 291.26 38.792 291.729 38.92C291.964 39.0693 292.102 39.3147 292.145 39.656C292.145 40.1467 292.113 40.6373 292.049 41.128C292.028 41.32 292.006 41.512 291.985 41.704C291.964 41.896 291.964 42.088 291.985 42.28C291.708 42.4507 291.377 42.536 290.993 42.536C290.929 42.536 290.865 42.5467 290.801 42.568C290.737 42.5893 290.684 42.6 290.641 42.6C290.3 42.6213 290.033 42.6533 289.841 42.696C289.67 42.7387 289.393 42.8453 289.009 43.016C288.945 43.1013 288.913 43.2187 288.913 43.368C288.892 43.496 288.87 43.624 288.849 43.752C288.849 43.88 288.86 44.0187 288.881 44.168C288.881 44.168 288.881 44.1787 288.881 44.2C288.881 44.2 288.86 44.2107 288.817 44.232C288.689 44.488 288.593 44.68 288.529 44.808C288.465 44.936 288.422 45.064 288.401 45.192C288.401 45.32 288.401 45.5333 288.401 45.832V47.368C288.401 47.4747 288.412 47.5387 288.433 47.56C288.454 47.752 288.55 47.912 288.721 48.04C288.806 48.0613 288.881 48.0827 288.945 48.104C289.03 48.1253 289.094 48.1787 289.137 48.264C289.329 48.52 289.542 48.6587 289.777 48.68C290.033 48.68 290.3 48.6373 290.577 48.552C290.662 48.5093 290.748 48.4667 290.833 48.424C290.918 48.3813 291.004 48.3493 291.089 48.328C291.26 48.3707 291.366 48.4667 291.409 48.616C291.452 48.7653 291.526 48.8933 291.633 49C291.74 49.1067 291.825 49.224 291.889 49.352C291.974 49.48 292.06 49.608 292.145 49.736C292.188 49.864 292.241 50.0133 292.305 50.184C292.369 50.3333 292.422 50.504 292.465 50.696Z" fill="#E36B08"/>
</g>
<defs>
<filter id="filter0_d_1128_4739" x="0" y="0" width="316" height="78" filterUnits="userSpaceOnUse" color-interpolation-filters="sRGB">
<feFlood flood-opacity="0" result="BackgroundImageFix"/>
<feColorMatrix in="SourceAlpha" type="matrix" values="0 0 0 0 0 0 0 0 0 0 0 0 0 0 0 0 0 0 127 0" result="hardAlpha"/>
<feOffset/>
<feGaussianBlur stdDeviation="2"/>
<feComposite in2="hardAlpha" operator="out"/>
<feColorMatrix type="matrix" values="0 0 0 0 0 0 0 0 0 0 0 0 0 0 0 0 0 0 0.25 0"/>
<feBlend mode="normal" in2="BackgroundImageFix" result="effect1_dropShadow_1128_4739"/>
<feBlend mode="normal" in="SourceGraphic" in2="effect1_dropShadow_1128_4739" result="shape"/>
</filter>
</defs>
</svg>
