<svg width="60" height="61" viewBox="0 0 60 61" fill="none" xmlns="http://www.w3.org/2000/svg">
<g filter="url(#filter0_d_1168_4001)">
<rect x="4" y="4.5" width="52" height="52" rx="4" fill="#EB9412" fill-opacity="0.1" shape-rendering="crispEdges"/>
<path fill-rule="evenodd" clip-rule="evenodd" d="M19.261 31.9326C18.4744 31.1457 18.4744 29.8653 19.261 29.0664L20.221 28.1047C20.981 27.3458 21.3944 26.3455 21.3944 25.2771V23.9033C21.3944 22.7963 22.301 21.8893 23.4077 21.8893H24.781C25.8477 21.8893 26.8477 21.4759 27.6077 20.7156L28.5677 19.7553C29.341 18.9817 30.6077 18.9684 31.4077 19.73L31.4208 19.7419L31.4344 19.7553C31.6077 19.9154 31.8477 20.0221 32.1144 20.0221C32.661 20.0221 33.1144 19.5819 33.1144 19.0217C33.1144 18.755 33.0077 18.5149 32.8344 18.3282C32.781 18.2748 32.7277 18.2348 32.6744 18.1948C31.101 16.7677 28.661 16.8344 27.1544 18.3429L26.1944 19.3018C25.821 19.6766 25.3144 19.8887 24.781 19.8887H23.4077C21.1944 19.8887 19.3944 21.6893 19.3944 23.9033V25.2771C19.3944 25.8106 19.181 26.3175 18.8077 26.6909L17.8344 27.6646C16.2744 29.2384 16.2744 31.7872 17.8477 33.3478C18.0477 33.5465 18.301 33.6398 18.5544 33.6398C18.8077 33.6398 19.0744 33.5331 19.261 33.3478C19.6477 32.9463 19.6477 32.3194 19.261 31.9326ZM41.1924 26.6949L42.1497 27.6526C42.9084 28.4061 43.3284 29.4131 43.3324 30.4868C43.335 31.5605 42.9204 32.5702 42.1644 33.3304L41.191 34.3041C40.8204 34.6775 40.607 35.1937 40.6057 35.7232V37.093C40.6057 39.307 38.8044 41.1089 36.591 41.1089C36.039 41.1089 35.591 40.6608 35.591 40.1086C35.591 39.5564 36.039 39.1083 36.591 39.1083C37.703 39.1083 38.6057 38.204 38.6057 37.093V35.7219C38.607 34.6522 39.0217 33.6465 39.775 32.8916L40.735 31.93C41.1257 31.5378 41.3337 31.031 41.3324 30.4922C41.331 29.9546 41.119 29.4491 40.7377 29.069L39.7764 28.1074C39.0217 27.3471 38.607 26.3428 38.6057 25.2758V23.9033C38.6057 22.791 37.703 21.888 36.591 21.888C36.039 21.888 35.591 21.4399 35.591 20.8877C35.591 20.3355 36.039 19.8874 36.591 19.8874C38.8044 19.8874 40.6057 21.6879 40.6057 23.9033V25.2745C40.607 25.8093 40.815 26.3148 41.1924 26.6949ZM29.9984 41.8352C30.545 41.8565 31.0464 41.6258 31.4277 41.2403C31.817 40.8509 32.4504 40.8469 32.8424 41.2363C33.233 41.6271 33.2344 42.2607 32.845 42.6528C32.0624 43.4397 31.0304 43.8332 29.9984 43.8332C28.9744 43.8332 27.949 43.445 27.1677 42.6675L26.1944 41.6938C25.817 41.319 25.3117 41.1096 24.7744 41.1083H23.4064C21.193 41.1083 19.3917 39.3077 19.3917 37.0936C19.3917 36.5415 19.8397 36.0933 20.3917 36.0933C20.9437 36.0933 21.3917 36.5415 21.3917 37.0936C21.3917 38.2047 22.2944 39.1076 23.4064 39.1076H24.777C25.845 39.109 26.8504 39.5251 27.6064 40.276L28.5677 41.239C28.957 41.6271 29.4624 41.8352 29.9984 41.8352ZM25.8653 33.2181C25.4746 33.6089 25.4746 34.2424 25.8653 34.6332C26.06 34.828 26.316 34.9253 26.572 34.9253C26.828 34.9253 27.084 34.828 27.28 34.6332L34.132 27.7777C34.5226 27.3869 34.5226 26.7533 34.132 26.3625C33.7413 25.9717 33.1093 25.9717 32.7186 26.3625L25.8653 33.2181ZM26.5601 25.9335C27.1988 25.9335 27.7174 26.4523 27.7174 27.0912C27.7174 27.7301 27.1988 28.2476 26.5601 28.2476C25.9214 28.2476 25.4028 27.7301 25.4028 27.0912C25.4028 26.4523 25.9214 25.9335 26.5601 25.9335ZM33.4254 32.7716C34.0641 32.7716 34.5828 33.2904 34.5828 33.9293C34.5828 34.5681 34.0641 35.087 33.4254 35.087C32.7854 35.087 32.2681 34.5681 32.2681 33.9293C32.2681 33.2904 32.7854 32.7716 33.4254 32.7716Z" fill="#EB9412"/>
</g>
<defs>
<filter id="filter0_d_1168_4001" x="0" y="0.5" width="60" height="60" filterUnits="userSpaceOnUse" color-interpolation-filters="sRGB">
<feFlood flood-opacity="0" result="BackgroundImageFix"/>
<feColorMatrix in="SourceAlpha" type="matrix" values="0 0 0 0 0 0 0 0 0 0 0 0 0 0 0 0 0 0 127 0" result="hardAlpha"/>
<feOffset/>
<feGaussianBlur stdDeviation="2"/>
<feComposite in2="hardAlpha" operator="out"/>
<feColorMatrix type="matrix" values="0 0 0 0 0 0 0 0 0 0 0 0 0 0 0 0 0 0 0.25 0"/>
<feBlend mode="normal" in2="BackgroundImageFix" result="effect1_dropShadow_1168_4001"/>
<feBlend mode="normal" in="SourceGraphic" in2="effect1_dropShadow_1168_4001" result="shape"/>
</filter>
</defs>
</svg>
