<svg width="60" height="61" viewBox="0 0 60 61" fill="none" xmlns="http://www.w3.org/2000/svg">
<g filter="url(#filter0_d_1168_4013)">
<rect x="4" y="4.5" width="52" height="52" rx="4" fill="#1235EB" fill-opacity="0.1" shape-rendering="crispEdges"/>
<path d="M37.3307 43.7257C37.1667 43.7297 37.004 43.6883 36.8613 43.6057L30.0107 39.9977L23.9787 43.2457C22.9947 43.779 21.7627 43.4137 21.2293 42.4283C21.2227 42.4163 21.216 42.4043 21.2093 42.391C21 41.979 20.9267 41.5137 20.9987 41.0577L22.172 34.1323L17.268 29.167C16.4667 28.3403 16.4667 27.0257 17.268 26.1977C17.58 25.8697 17.9933 25.6577 18.4413 25.5963L25.1653 24.575L28.156 18.3443C28.6213 17.331 29.82 16.8857 30.8347 17.351C31.2747 17.5523 31.6267 17.9057 31.828 18.3443L34.832 24.5963L41.5787 25.6297C42.124 25.711 42.6133 26.0123 42.9333 26.4617C43.5307 27.3203 43.44 28.4803 42.7173 29.2363L37.836 34.143L38.516 37.875C38.6107 38.435 38.2413 38.9697 37.6827 39.075C37.1333 39.1737 36.608 38.8083 36.5093 38.2577L35.8173 34.5257C35.7013 33.8417 35.9187 33.143 36.404 32.6483L41.2973 27.707L34.5507 26.6603C33.8667 26.5497 33.2867 26.0963 33.0133 25.4603L30.0107 19.235L26.9707 25.559C26.6973 26.1963 26.1173 26.6483 25.4333 26.759L18.7093 27.7803L23.5667 32.7137C24.0507 33.2003 24.268 33.8897 24.1533 34.5657L22.98 41.491L29.0107 38.2563C29.608 37.9203 30.3373 37.9203 30.9347 38.2563L37.776 41.8643C38.1933 42.0923 38.4053 42.5737 38.292 43.0363C38.188 43.499 37.78 43.8283 37.3067 43.8363L37.3307 43.7257Z" fill="#1235EB"/>
</g>
<defs>
<filter id="filter0_d_1168_4013" x="0" y="0.5" width="60" height="60" filterUnits="userSpaceOnUse" color-interpolation-filters="sRGB">
<feFlood flood-opacity="0" result="BackgroundImageFix"/>
<feColorMatrix in="SourceAlpha" type="matrix" values="0 0 0 0 0 0 0 0 0 0 0 0 0 0 0 0 0 0 127 0" result="hardAlpha"/>
<feOffset/>
<feGaussianBlur stdDeviation="2"/>
<feComposite in2="hardAlpha" operator="out"/>
<feColorMatrix type="matrix" values="0 0 0 0 0 0 0 0 0 0 0 0 0 0 0 0 0 0 0.25 0"/>
<feBlend mode="normal" in2="BackgroundImageFix" result="effect1_dropShadow_1168_4013"/>
<feBlend mode="normal" in="SourceGraphic" in2="effect1_dropShadow_1168_4013" result="shape"/>
</filter>
</defs>
</svg>
