<svg width="210" height="17" viewBox="0 0 210 17" fill="none" xmlns="http://www.w3.org/2000/svg">
<path d="M13.68 8.344C13.712 8.456 13.704 8.568 13.656 8.68C13.608 8.792 13.6 8.912 13.632 9.04C13.632 9.104 13.616 9.168 13.584 9.232C13.584 9.264 13.576 9.296 13.56 9.328C13.544 9.344 13.536 9.36 13.536 9.376C13.552 9.632 13.552 9.808 13.536 9.904C13.536 9.984 13.496 10.152 13.416 10.408C13.432 10.472 13.44 10.552 13.44 10.648C13.456 10.728 13.472 10.816 13.488 10.912C13.472 11.024 13.432 11.168 13.368 11.344C13.32 11.312 13.272 11.288 13.224 11.272C13.192 11.256 13.16 11.24 13.128 11.224C13.032 11.192 12.984 11.232 12.984 11.344C12.984 11.456 13 11.56 13.032 11.656C13.08 11.736 13.136 11.816 13.2 11.896C13.168 12.024 13.136 12.16 13.104 12.304C13.088 12.448 13.064 12.6 13.032 12.76C12.952 12.904 12.864 13.056 12.768 13.216C12.672 13.36 12.544 13.472 12.384 13.552C12.368 13.632 12.352 13.704 12.336 13.768C12.32 13.816 12.296 13.88 12.264 13.96C12.12 14.072 11.976 14.192 11.832 14.32C11.688 14.432 11.568 14.552 11.472 14.68C11.392 14.744 11.32 14.768 11.256 14.752C11.192 14.736 11.128 14.736 11.064 14.752C10.952 14.832 10.84 14.912 10.728 14.992C10.632 15.072 10.528 15.152 10.416 15.232C10.304 15.296 10.2 15.368 10.104 15.448C10.008 15.528 9.904 15.608 9.792 15.688H9.432C9.352 15.752 9.28 15.808 9.216 15.856C9.152 15.888 9.08 15.928 9 15.976C8.952 15.976 8.912 15.984 8.88 16C8.864 16 8.84 15.992 8.808 15.976C8.648 15.96 8.536 15.968 8.472 16C8.408 16.016 8.28 16.064 8.088 16.144C7.944 16.192 7.8 16.24 7.656 16.288C7.512 16.352 7.368 16.416 7.224 16.48C7.048 16.4 6.864 16.36 6.672 16.36C6.496 16.36 6.312 16.36 6.12 16.36C6.024 16.296 5.928 16.24 5.832 16.192C5.768 16.16 5.712 16.136 5.664 16.12C5.632 16.104 5.584 16.088 5.52 16.072C5.488 16.072 5.44 16.072 5.376 16.072C5.328 16.072 5.272 16.088 5.208 16.12C5.176 16.136 5.136 16.16 5.088 16.192C5.04 16.224 5 16.264 4.968 16.312C4.664 16.264 4.352 16.216 4.032 16.168C3.712 16.136 3.392 16.088 3.072 16.024C2.944 15.992 2.816 15.96 2.688 15.928C2.576 15.88 2.456 15.84 2.328 15.808C2.232 15.824 2.136 15.84 2.04 15.856C1.944 15.872 1.84 15.896 1.728 15.928C1.472 15.96 1.288 15.848 1.176 15.592C1.176 15.56 1.168 15.528 1.152 15.496C1.152 15.464 1.152 15.44 1.152 15.424C1.184 15.248 1.216 15.08 1.248 14.92C1.28 14.76 1.304 14.608 1.32 14.464C1.32 14.432 1.352 14.384 1.416 14.32V14.224C1.352 14.176 1.288 14.128 1.224 14.08C1.176 14.032 1.128 13.984 1.08 13.936L1.056 11.776V11.752H1.224C1.208 11.72 1.184 11.696 1.152 11.68C1.12 11.648 1.088 11.624 1.056 11.608C1.056 11.608 1.08 11.536 1.128 11.392C1.176 11.248 1.208 11.144 1.224 11.08C1.256 10.984 1.248 10.904 1.2 10.84C1.168 10.776 1.144 10.712 1.128 10.648C1.16 10.584 1.192 10.528 1.224 10.48C1.256 10.416 1.28 10.352 1.296 10.288C1.28 10.208 1.256 10.136 1.224 10.072C1.192 10.008 1.16 9.944 1.128 9.88C1.112 9.8 1.112 9.72 1.128 9.64C1.16 9.544 1.176 9.464 1.176 9.4C1.208 9.32 1.216 9.24 1.2 9.16C1.184 9.08 1.176 8.984 1.176 8.872C1.128 8.696 1.056 8.504 0.96 8.296C1.008 8.2 1.048 8.104 1.08 8.008C1.112 7.912 1.144 7.816 1.176 7.72L1.104 7.384C1.136 7.256 1.168 7.128 1.2 7C1.248 6.856 1.28 6.728 1.296 6.616C1.232 6.376 1.2 6.144 1.2 5.92C1.216 5.68 1.224 5.44 1.224 5.2C1.224 5.072 1.264 4.928 1.344 4.768C1.376 4.736 1.392 4.704 1.392 4.672C1.408 4.624 1.424 4.592 1.44 4.576C1.36 4.416 1.312 4.296 1.296 4.216C1.296 4.12 1.312 4.024 1.344 3.928C1.376 3.816 1.352 3.72 1.272 3.64C1.224 3.464 1.208 3.304 1.224 3.16C1.24 3 1.264 2.84 1.296 2.68C1.376 2.6 1.44 2.52 1.488 2.44C1.552 2.344 1.616 2.248 1.68 2.152C1.76 2.136 1.84 2.12 1.92 2.104C2.016 2.072 2.096 2.064 2.16 2.08C2.416 2.128 2.688 2.088 2.976 1.96C3.056 1.912 3.136 1.896 3.216 1.912C3.312 1.928 3.408 1.952 3.504 1.984C3.808 1.936 4.112 1.888 4.416 1.84C4.72 1.792 5.016 1.728 5.304 1.648C5.384 1.616 5.464 1.608 5.544 1.624C5.624 1.64 5.72 1.648 5.832 1.648L6.264 1.456C6.344 1.472 6.424 1.496 6.504 1.528C6.584 1.544 6.664 1.568 6.744 1.6C6.84 1.584 6.936 1.56 7.032 1.528C7.128 1.496 7.232 1.472 7.344 1.456C7.408 1.488 7.472 1.528 7.536 1.576C7.6 1.624 7.664 1.664 7.728 1.696C7.904 1.68 8.064 1.648 8.208 1.6C8.368 1.552 8.528 1.52 8.688 1.504C8.752 1.568 8.8 1.64 8.832 1.72C8.864 1.784 8.912 1.84 8.976 1.888C9.04 1.968 9.128 2.008 9.24 2.008C9.368 1.992 9.456 1.936 9.504 1.84C9.536 1.76 9.584 1.728 9.648 1.744C9.728 1.76 9.808 1.832 9.888 1.96C9.984 1.96 10.08 1.952 10.176 1.936C10.272 1.92 10.376 1.912 10.488 1.912C10.568 1.96 10.632 2.008 10.68 2.056C10.744 2.088 10.808 2.136 10.872 2.2C10.936 2.264 11 2.328 11.064 2.392C11.128 2.44 11.2 2.488 11.28 2.536C11.376 2.584 11.44 2.656 11.472 2.752C11.536 2.848 11.608 2.944 11.688 3.04C11.784 3.12 11.872 3.2 11.952 3.28C12.08 3.424 12.272 3.536 12.528 3.616C12.56 3.632 12.592 3.648 12.624 3.664C12.672 3.68 12.704 3.696 12.72 3.712C12.752 3.84 12.784 3.968 12.816 4.096C12.864 4.208 12.896 4.328 12.912 4.456C12.896 4.6 12.872 4.72 12.84 4.816C12.872 4.96 12.936 5.08 13.032 5.176C13.128 5.256 13.216 5.344 13.296 5.44C13.52 5.792 13.632 6.2 13.632 6.664C13.632 6.824 13.64 6.984 13.656 7.144C13.672 7.288 13.664 7.432 13.632 7.576C13.616 7.704 13.624 7.832 13.656 7.96C13.704 8.088 13.712 8.216 13.68 8.344ZM10.128 7.888C10.096 7.808 10.048 7.728 9.984 7.648C9.936 7.552 9.896 7.456 9.864 7.36C9.816 7.264 9.776 7.168 9.744 7.072C9.712 6.96 9.68 6.848 9.648 6.736C9.392 6.704 9.168 6.624 8.976 6.496C8.8 6.368 8.624 6.24 8.448 6.112H8.088C7.928 5.984 7.776 5.872 7.632 5.776C7.488 5.664 7.336 5.552 7.176 5.44C6.904 5.408 6.632 5.408 6.36 5.44C6.104 5.456 5.864 5.44 5.64 5.392C5.496 5.44 5.368 5.48 5.256 5.512C5.16 5.528 5.064 5.552 4.968 5.584C4.872 5.648 4.808 5.696 4.776 5.728C4.728 5.968 4.712 6.208 4.728 6.448C4.744 6.688 4.76 6.928 4.776 7.168C4.84 7.264 4.848 7.36 4.8 7.456C4.768 7.536 4.76 7.616 4.776 7.696C4.792 7.744 4.8 7.792 4.8 7.84C4.816 7.888 4.832 7.952 4.848 8.032C4.816 8.128 4.792 8.232 4.776 8.344C4.776 8.44 4.768 8.552 4.752 8.68C4.752 8.936 4.728 9.176 4.68 9.4C4.728 9.48 4.768 9.56 4.8 9.64C4.832 9.704 4.864 9.776 4.896 9.856C4.848 10 4.792 10.152 4.728 10.312C4.68 10.456 4.64 10.592 4.608 10.72C4.608 10.8 4.608 10.88 4.608 10.96C4.624 11.04 4.624 11.12 4.608 11.2C4.592 11.392 4.544 11.584 4.464 11.776L4.56 11.944C4.656 12.184 4.848 12.272 5.136 12.208C5.312 12.208 5.456 12.184 5.568 12.136C5.68 12.104 5.784 12.104 5.88 12.136C5.992 12.152 6.104 12.152 6.216 12.136C6.344 12.104 6.48 12.064 6.624 12.016C6.784 11.952 6.928 11.896 7.056 11.848C7.136 11.832 7.208 11.816 7.272 11.8C7.336 11.784 7.4 11.784 7.464 11.8C7.608 11.816 7.76 11.816 7.92 11.8C8.08 11.784 8.24 11.768 8.4 11.752C8.432 11.72 8.48 11.696 8.544 11.68C8.608 11.648 8.664 11.616 8.712 11.584C8.952 11.472 9.16 11.288 9.336 11.032C9.416 10.92 9.48 10.8 9.528 10.672C9.592 10.528 9.656 10.4 9.72 10.288C9.848 10.016 9.944 9.752 10.008 9.496C10.072 9.224 10.088 8.944 10.056 8.656C10.04 8.592 10.032 8.528 10.032 8.464C10.048 8.4 10.064 8.336 10.08 8.272C10.096 8.208 10.112 8.144 10.128 8.08C10.144 8.016 10.144 7.952 10.128 7.888ZM25.5299 4.456C25.4339 4.536 25.3219 4.576 25.1939 4.576C25.0659 4.576 24.9379 4.576 24.8099 4.576C24.6979 4.576 24.6019 4.6 24.5219 4.648L24.1139 4.576C24.0499 4.592 23.9939 4.608 23.9459 4.624C23.8979 4.624 23.8339 4.632 23.7539 4.648C23.7059 4.648 23.6179 4.632 23.4899 4.6C23.2979 4.568 23.1299 4.576 22.9859 4.624C22.7939 4.688 22.5779 4.712 22.3379 4.696C22.1939 4.664 22.0419 4.672 21.8819 4.72C21.7379 4.752 21.6019 4.784 21.4739 4.816C21.4099 4.8 21.3459 4.792 21.2819 4.792C21.2339 4.776 21.1939 4.76 21.1619 4.744C21.0659 4.76 20.9699 4.792 20.8739 4.84C20.7939 4.888 20.7059 4.944 20.6099 5.008C20.5619 5.072 20.5139 5.152 20.4659 5.248C20.4339 5.328 20.3859 5.408 20.3219 5.488C20.3059 5.68 20.2979 5.88 20.2979 6.088C20.2979 6.28 20.2899 6.464 20.2739 6.64C20.2579 6.768 20.2099 6.872 20.1299 6.952C20.0659 7.016 20.0339 7.096 20.0339 7.192C20.0819 7.32 20.1699 7.392 20.2979 7.408C20.3939 7.44 20.4979 7.464 20.6099 7.48C20.7219 7.48 20.8339 7.488 20.9459 7.504C21.0739 7.456 21.2019 7.408 21.3299 7.36C21.4579 7.312 21.5779 7.264 21.6899 7.216C21.8659 7.216 22.0179 7.216 22.1459 7.216C22.2739 7.216 22.4019 7.208 22.5299 7.192C22.5779 7.192 22.6259 7.192 22.6739 7.192C22.7219 7.176 22.7699 7.16 22.8179 7.144C23.0419 7.048 23.2659 7 23.4899 7C23.7139 7 23.9379 7.016 24.1619 7.048C24.3219 7.096 24.4259 7.216 24.4739 7.408C24.4739 7.44 24.4739 7.48 24.4739 7.528C24.4899 7.56 24.5059 7.6 24.5219 7.648C24.5059 7.696 24.4899 7.752 24.4739 7.816C24.4579 7.88 24.4499 7.952 24.4499 8.032C24.4659 8.288 24.4579 8.544 24.4259 8.8C24.4099 9.056 24.4099 9.32 24.4259 9.592C24.4419 9.704 24.4259 9.816 24.3779 9.928C24.3459 10.04 24.3059 10.136 24.2579 10.216L24.1859 10.264C24.0899 10.28 24.0019 10.28 23.9219 10.264C23.8579 10.232 23.7859 10.216 23.7059 10.216C23.6099 10.216 23.5299 10.24 23.4659 10.288C23.4019 10.336 23.3299 10.376 23.2499 10.408C23.1379 10.424 23.0179 10.432 22.8899 10.432C22.7779 10.432 22.6579 10.424 22.5299 10.408C22.4659 10.376 22.3939 10.376 22.3139 10.408C22.2499 10.44 22.1859 10.472 22.1219 10.504C21.9779 10.488 21.8339 10.472 21.6899 10.456C21.5619 10.424 21.4339 10.376 21.3059 10.312C21.2099 10.312 21.1139 10.312 21.0179 10.312C20.9219 10.312 20.8179 10.32 20.7059 10.336C20.4979 10.352 20.2819 10.352 20.0579 10.336C19.8819 10.304 19.7219 10.352 19.5779 10.48C19.5459 10.496 19.5139 10.544 19.4819 10.624C19.4499 10.688 19.4419 10.744 19.4579 10.792C19.5219 10.92 19.5539 11.056 19.5539 11.2C19.5699 11.344 19.5779 11.48 19.5779 11.608C19.5939 11.656 19.6099 11.696 19.6259 11.728C19.6419 11.76 19.6579 11.792 19.6739 11.824C19.6579 11.856 19.6339 11.888 19.6019 11.92C19.5859 11.952 19.5699 11.984 19.5539 12.016C19.4899 12.176 19.5299 12.272 19.6739 12.304C19.8659 12.352 20.0579 12.4 20.2499 12.448C20.4579 12.496 20.6659 12.536 20.8739 12.568C20.9219 12.552 20.9779 12.536 21.0419 12.52C21.1059 12.504 21.1619 12.496 21.2099 12.496C21.4339 12.496 21.6579 12.48 21.8819 12.448C22.1219 12.4 22.3539 12.376 22.5779 12.376C22.6259 12.376 22.6819 12.376 22.7459 12.376C22.8099 12.36 22.8739 12.36 22.9379 12.376C23.0659 12.424 23.2019 12.456 23.3459 12.472C23.4899 12.488 23.6339 12.496 23.7779 12.496C23.8739 12.496 23.9619 12.504 24.0419 12.52C24.1379 12.52 24.2339 12.528 24.3299 12.544C24.4579 12.576 24.5219 12.64 24.5219 12.736C24.5059 12.816 24.4739 12.904 24.4259 13C24.3939 13.08 24.3619 13.152 24.3299 13.216C24.3139 13.328 24.3299 13.416 24.3779 13.48C24.4259 13.544 24.4579 13.608 24.4739 13.672C24.4579 13.832 24.4339 13.984 24.4019 14.128C24.3859 14.272 24.3379 14.4 24.2579 14.512C24.2579 14.608 24.2819 14.68 24.3299 14.728C24.3779 14.776 24.4099 14.832 24.4259 14.896C24.3939 14.928 24.3619 14.976 24.3299 15.04C24.3139 15.088 24.2899 15.144 24.2579 15.208C24.2899 15.336 24.3139 15.472 24.3299 15.616C24.3619 15.76 24.3299 15.896 24.2339 16.024C24.1859 16.04 24.1299 16.064 24.0659 16.096C24.0179 16.144 23.9619 16.16 23.8979 16.144C23.7379 16.112 23.5779 16.112 23.4179 16.144C23.2739 16.176 23.1299 16.2 22.9859 16.216C22.8739 16.232 22.7699 16.264 22.6739 16.312C22.5779 16.36 22.4819 16.4 22.3859 16.432C22.2259 16.464 22.0659 16.488 21.9059 16.504C21.7459 16.52 21.5779 16.544 21.4019 16.576L21.0659 16.504C20.9219 16.52 20.7539 16.544 20.5619 16.576L19.9139 16.432C19.8499 16.384 19.7859 16.328 19.7219 16.264C19.6739 16.216 19.6099 16.176 19.5299 16.144C19.5139 16.128 19.4819 16.12 19.4339 16.12C19.4019 16.136 19.3859 16.152 19.3859 16.168C19.3859 16.328 19.2979 16.432 19.1219 16.48C19.0419 16.448 18.9539 16.424 18.8579 16.408C18.7619 16.392 18.6739 16.376 18.5939 16.36C18.5139 16.344 18.4259 16.336 18.3299 16.336C18.2339 16.352 18.1459 16.36 18.0659 16.36C17.8739 16.36 17.6819 16.336 17.4899 16.288C17.3139 16.24 17.1299 16.136 16.9379 15.976C16.9219 15.928 16.8979 15.88 16.8659 15.832C16.8339 15.784 16.8019 15.728 16.7699 15.664C16.7059 15.632 16.6419 15.592 16.5779 15.544C16.5299 15.496 16.4739 15.456 16.4099 15.424L16.1459 15.28C16.0819 15.184 16.0499 15.096 16.0499 15.016C16.0499 14.92 16.0419 14.832 16.0259 14.752C16.0099 14.672 15.9939 14.592 15.9779 14.512C15.9779 14.416 15.9699 14.32 15.9539 14.224C15.9859 14.032 16.0019 13.84 16.0019 13.648C16.0179 13.456 16.0179 13.256 16.0019 13.048C15.9859 12.872 15.9859 12.696 16.0019 12.52C16.0339 12.328 16.0819 12.144 16.1459 11.968C16.1299 11.904 16.1059 11.848 16.0739 11.8C16.0579 11.752 16.0499 11.696 16.0499 11.632C16.0499 11.552 16.0659 11.472 16.0979 11.392C16.1299 11.312 16.1299 11.232 16.0979 11.152C16.0979 11.12 16.1059 11.096 16.1219 11.08C16.1539 11.064 16.1779 11.048 16.1939 11.032C16.2419 10.92 16.2259 10.856 16.1459 10.84C15.9859 10.792 15.9059 10.712 15.9059 10.6C15.9379 10.504 15.9459 10.408 15.9299 10.312C15.9139 10.216 15.9059 10.112 15.9059 10C15.9059 9.92 15.9139 9.84 15.9299 9.76C15.9459 9.68 15.9379 9.6 15.9059 9.52C15.9059 9.504 15.8979 9.48 15.8819 9.448C15.8819 9.416 15.8899 9.392 15.9059 9.376C15.9859 9.2 16.0099 9.032 15.9779 8.872C15.9619 8.712 15.9299 8.552 15.8819 8.392C15.9459 8.248 15.9859 8.112 16.0019 7.984C16.0179 7.84 16.0259 7.696 16.0259 7.552V6.904C16.0419 6.856 16.0499 6.808 16.0499 6.76C16.0499 6.696 16.0579 6.648 16.0739 6.616C16.2019 6.264 16.1939 5.896 16.0499 5.512C16.0339 5.48 16.0259 5.432 16.0259 5.368C16.0579 5.272 16.0899 5.184 16.1219 5.104C16.1699 5.008 16.2019 4.912 16.2179 4.816C16.2499 4.688 16.2819 4.552 16.3139 4.408C16.3619 4.264 16.3939 4.128 16.4099 4V3.832C16.3939 3.752 16.3859 3.672 16.3859 3.592C16.4019 3.496 16.4019 3.408 16.3859 3.328C16.3699 3.248 16.3619 3.168 16.3619 3.088C16.3779 3.008 16.3859 2.936 16.3859 2.872C16.3859 2.808 16.3779 2.76 16.3619 2.728C16.3619 2.68 16.3539 2.632 16.3379 2.584C16.3699 2.472 16.4339 2.384 16.5299 2.32C16.6259 2.256 16.6819 2.176 16.6979 2.08C16.8899 1.952 17.0819 1.872 17.2739 1.84C17.4819 1.792 17.6739 1.72 17.8499 1.624C18.0259 1.528 18.2099 1.472 18.4019 1.456C18.5939 1.44 18.7779 1.4 18.9539 1.336C19.0659 1.368 19.1699 1.4 19.2659 1.432C19.3779 1.464 19.4899 1.496 19.6019 1.528C19.6659 1.528 19.7299 1.528 19.7939 1.528C19.8739 1.512 19.9459 1.496 20.0099 1.48C20.1219 1.496 20.2259 1.52 20.3219 1.552C20.4179 1.584 20.5219 1.592 20.6339 1.576C20.8099 1.528 20.9779 1.528 21.1379 1.576C21.2179 1.576 21.2899 1.584 21.3539 1.6C21.4179 1.6 21.4819 1.608 21.5459 1.624C21.7859 1.448 22.0419 1.4 22.3139 1.48C22.4419 1.528 22.5699 1.544 22.6979 1.528C22.8259 1.512 22.9539 1.528 23.0819 1.576C23.2099 1.608 23.3299 1.624 23.4419 1.624C23.5699 1.608 23.6899 1.6 23.8019 1.6C23.9459 1.568 24.0899 1.568 24.2339 1.6C24.3619 1.632 24.4979 1.656 24.6419 1.672C24.8019 1.688 24.9459 1.696 25.0739 1.696C25.1539 1.696 25.2659 1.752 25.4099 1.864C25.6339 2.744 25.6739 3.608 25.5299 4.456ZM40.0918 5.68C40.1078 5.808 40.0918 5.936 40.0438 6.064C40.0118 6.176 39.9718 6.288 39.9238 6.4C39.8278 6.4 39.7478 6.408 39.6838 6.424C39.6198 6.456 39.5958 6.512 39.6118 6.592C39.6438 6.672 39.6358 6.744 39.5878 6.808C39.5558 6.872 39.5238 6.944 39.4918 7.024C39.4598 7.104 39.4278 7.168 39.3958 7.216C39.3798 7.328 39.4038 7.416 39.4678 7.48C39.5478 7.544 39.5878 7.624 39.5878 7.72C39.6038 7.784 39.5958 7.848 39.5638 7.912C39.5478 7.96 39.5238 8.016 39.4918 8.08C39.4598 8.144 39.4198 8.2 39.3718 8.248C39.3398 8.296 39.3078 8.352 39.2758 8.416C39.2278 8.496 39.1718 8.584 39.1078 8.68C39.0598 8.776 39.0118 8.864 38.9637 8.944C38.8998 9.008 38.8198 9.072 38.7238 9.136C38.6438 9.2 38.5638 9.264 38.4838 9.328C38.4518 9.376 38.4198 9.432 38.3878 9.496C38.3558 9.544 38.3238 9.608 38.2918 9.688C38.0358 9.896 37.7798 10.104 37.5238 10.312C37.2678 10.52 37.0038 10.712 36.7318 10.888C36.5398 10.952 36.3398 11.008 36.1318 11.056C35.9238 11.088 35.7158 11.12 35.5078 11.152C35.3478 11.168 35.1878 11.192 35.0278 11.224C34.8678 11.256 34.6998 11.296 34.5238 11.344C34.4278 11.36 34.3318 11.376 34.2358 11.392C34.1398 11.392 34.0278 11.392 33.8997 11.392C33.6918 11.408 33.4838 11.424 33.2758 11.44C33.0838 11.44 32.8998 11.44 32.7238 11.44C32.5318 11.52 32.4278 11.616 32.4118 11.728C32.3958 11.824 32.3718 11.92 32.3398 12.016C32.3078 12.112 32.2758 12.208 32.2438 12.304C32.2438 12.512 32.2278 12.728 32.1958 12.952C32.1798 13.176 32.1798 13.392 32.1958 13.6C32.1958 13.68 32.1878 13.736 32.1718 13.768C32.1718 13.864 32.1638 13.968 32.1478 14.08C32.1478 14.176 32.1478 14.272 32.1478 14.368C32.1478 14.464 32.1478 14.56 32.1478 14.656C32.1638 14.736 32.1798 14.816 32.1958 14.896C32.2438 15.2 32.2038 15.504 32.0758 15.808C32.0758 15.888 32.0598 15.96 32.0278 16.024C31.9798 16.152 31.8918 16.2 31.7638 16.168C31.5238 16.088 31.2838 16.04 31.0438 16.024C30.8198 16.024 30.5798 16.04 30.3238 16.072H30.0117C29.7878 16.184 29.5558 16.256 29.3158 16.288C29.0758 16.32 28.8278 16.344 28.5718 16.36C28.4278 16.36 28.3398 16.312 28.3078 16.216C28.3078 16.216 28.2998 16.208 28.2838 16.192C28.2838 16.192 28.2838 16.184 28.2838 16.168C28.2518 15.768 28.2118 15.36 28.1638 14.944C28.1158 14.528 28.0998 14.12 28.1158 13.72C28.1158 13.64 28.1078 13.56 28.0918 13.48C28.0918 13.4 28.0838 13.328 28.0678 13.264C28.0358 13.088 28.0118 12.912 27.9958 12.736C27.9798 12.544 27.9638 12.36 27.9478 12.184C27.9478 12.12 27.9478 12.056 27.9478 11.992C27.9478 11.928 27.9318 11.864 27.8998 11.8C27.8358 11.672 27.8038 11.536 27.8038 11.392C27.8198 11.248 27.8278 11.12 27.8278 11.008C27.8758 10.896 27.9078 10.808 27.9238 10.744C27.9398 10.664 27.9558 10.576 27.9718 10.48C27.9238 10.416 27.8998 10.36 27.8998 10.312C27.9158 10.248 27.9078 10.192 27.8758 10.144C27.8758 10.112 27.8678 10.088 27.8518 10.072C27.8358 10.04 27.8278 10.016 27.8278 10C27.8118 9.6 27.7958 9.144 27.7798 8.632C27.7798 8.12 27.7798 7.64 27.7798 7.192C27.7958 6.744 27.8118 6.424 27.8278 6.232C27.8598 6.168 27.8918 6.112 27.9238 6.064C27.9718 6.016 28.0038 5.968 28.0198 5.92C28.0198 5.872 28.0038 5.84 27.9718 5.824C27.9398 5.792 27.9078 5.768 27.8758 5.752C27.9078 5.608 27.9398 5.464 27.9718 5.32C28.0198 5.176 28.0598 5.032 28.0918 4.888C28.0758 4.808 28.0598 4.736 28.0438 4.672C28.0278 4.608 28.0038 4.544 27.9718 4.48C28.0198 4.368 28.0678 4.24 28.1158 4.096C28.0998 3.968 28.0838 3.824 28.0678 3.664C28.0678 3.504 28.0518 3.336 28.0198 3.16C28.0518 3.112 28.0758 3.048 28.0918 2.968C28.1078 2.872 28.1318 2.784 28.1638 2.704C28.1958 2.624 28.1958 2.544 28.1638 2.464C28.1478 2.384 28.1638 2.312 28.2118 2.248C28.3078 2.216 28.3878 2.208 28.4518 2.224C28.4838 2.24 28.5238 2.264 28.5718 2.296C28.6198 2.312 28.6598 2.328 28.6918 2.344H28.8598C29.0518 2.28 29.2438 2.224 29.4358 2.176C29.6438 2.112 29.8358 2.04 30.0117 1.96C30.1238 1.896 30.2518 1.88 30.3958 1.912C30.4918 1.928 30.5798 1.944 30.6598 1.96C30.7558 1.96 30.8438 1.944 30.9238 1.912C31.0358 1.896 31.1398 1.888 31.2358 1.888C31.3478 1.872 31.4598 1.864 31.5718 1.864C31.8758 1.864 32.1798 1.84 32.4838 1.792C32.7878 1.744 33.0918 1.688 33.3958 1.624C33.5238 1.576 33.6598 1.56 33.8038 1.576C33.9478 1.592 34.0838 1.592 34.2118 1.576C34.3238 1.608 34.4358 1.648 34.5478 1.696C34.6598 1.728 34.7718 1.76 34.8838 1.792C34.9958 1.824 35.1078 1.856 35.2198 1.888C35.3318 1.904 35.4598 1.928 35.6038 1.96C35.8438 1.896 36.0998 1.872 36.3718 1.888C36.6438 1.888 36.9078 1.896 37.1638 1.912C37.3078 1.928 37.4438 1.96 37.5718 2.008C37.7158 2.056 37.8438 2.12 37.9558 2.2C38.1158 2.264 38.2918 2.368 38.4838 2.512C38.5638 2.576 38.6358 2.648 38.6998 2.728C38.7798 2.792 38.8518 2.864 38.9158 2.944C38.9478 2.96 38.9718 2.992 38.9878 3.04C39.0038 3.072 39.0198 3.104 39.0358 3.136C39.0678 3.248 39.1238 3.336 39.2038 3.4C39.2838 3.464 39.3558 3.536 39.4198 3.616C39.7078 4.048 39.8518 4.544 39.8518 5.104C39.8838 5.2 39.9238 5.304 39.9718 5.416C40.0198 5.512 40.0598 5.6 40.0918 5.68ZM36.2278 6.016C36.2118 5.92 36.1798 5.824 36.1318 5.728C36.0998 5.632 36.0678 5.536 36.0358 5.44C36.0198 5.392 35.9958 5.352 35.9638 5.32C35.9478 5.288 35.9318 5.264 35.9158 5.248C35.8838 5.168 35.8198 5.144 35.7238 5.176C35.6918 5.208 35.6598 5.232 35.6278 5.248C35.5958 5.264 35.5638 5.288 35.5318 5.32C35.4518 5.336 35.3718 5.352 35.2918 5.368C35.2278 5.368 35.1558 5.376 35.0758 5.392H34.7878C34.7398 5.36 34.6838 5.328 34.6198 5.296C34.5718 5.248 34.5078 5.2 34.4278 5.152C34.3158 5.136 34.1878 5.128 34.0438 5.128C33.9158 5.112 33.7878 5.112 33.6598 5.128C33.3558 5.192 33.1158 5.312 32.9398 5.488C32.8438 5.456 32.7638 5.44 32.6998 5.44C32.6518 5.408 32.6038 5.4 32.5558 5.416C32.5078 5.432 32.4598 5.44 32.4118 5.44C32.3158 5.488 32.2278 5.544 32.1478 5.608C32.0678 5.672 32.0038 5.76 31.9558 5.872C31.9398 5.936 31.9158 6.008 31.8838 6.088C31.8678 6.152 31.8598 6.224 31.8598 6.304C31.8438 6.464 31.8278 6.632 31.8118 6.808C31.8118 6.968 31.8038 7.136 31.7878 7.312C31.7878 7.408 31.7798 7.512 31.7638 7.624C31.7638 7.72 31.7718 7.816 31.7878 7.912C31.7878 7.928 31.7958 7.96 31.8118 8.008C31.8278 8.056 31.8438 8.096 31.8598 8.128C32.0838 8.096 32.2918 8.08 32.4838 8.08C32.6758 8.064 32.8598 8.072 33.0358 8.104C33.2118 8.152 33.3878 8.184 33.5638 8.2C33.7558 8.216 33.9318 8.248 34.0918 8.296C34.1718 8.312 34.2678 8.304 34.3798 8.272C34.4758 8.192 34.5638 8.112 34.6438 8.032C34.7398 7.952 34.8358 7.872 34.9318 7.792C35.0118 7.776 35.0838 7.768 35.1478 7.768C35.2278 7.752 35.2998 7.736 35.3638 7.72C35.4598 7.64 35.5558 7.56 35.6518 7.48C35.7478 7.384 35.8358 7.296 35.9158 7.216C35.9478 7.104 35.9718 7 35.9878 6.904C36.0198 6.808 36.0438 6.704 36.0598 6.592C36.0918 6.496 36.1238 6.408 36.1558 6.328C36.2038 6.232 36.2278 6.128 36.2278 6.016ZM52.8649 14.488C52.8489 14.472 52.8329 14.464 52.8169 14.464L52.8409 14.488C52.7769 14.52 52.7289 14.592 52.6969 14.704C52.6809 14.816 52.6409 14.896 52.5769 14.944C52.5609 14.992 52.5049 15.064 52.4089 15.16C52.3129 15.256 52.2409 15.296 52.1929 15.28C51.9689 15.232 51.7049 15.232 51.4009 15.28C51.3529 15.328 51.3049 15.376 51.2569 15.424C51.2089 15.472 51.1449 15.528 51.0649 15.592C51.0489 15.592 51.0329 15.6 51.0169 15.616C51.0009 15.616 50.9769 15.616 50.9449 15.616C50.8969 15.632 50.8249 15.64 50.7289 15.64C50.2169 15.624 49.7129 15.72 49.2169 15.928C49.1049 15.96 48.9849 15.984 48.8569 16C48.7289 16 48.6009 15.976 48.4729 15.928C48.3769 15.88 48.2809 15.856 48.1849 15.856C48.1049 15.84 48.0169 15.84 47.9209 15.856C47.7129 15.856 47.5129 15.824 47.3209 15.76C47.2409 15.776 47.1529 15.792 47.0569 15.808C46.9769 15.824 46.8969 15.848 46.8169 15.88C46.7369 15.912 46.6569 15.952 46.5769 16C46.4969 16.064 46.4089 16.088 46.3129 16.072C46.2969 16.04 46.2729 16.008 46.2409 15.976C46.2089 15.928 46.1769 15.872 46.1449 15.808C46.1129 15.792 46.0729 15.776 46.0249 15.76C45.9769 15.728 45.9369 15.704 45.9049 15.688C45.6969 15.656 45.5049 15.584 45.3289 15.472C45.0889 15.312 44.8569 15.192 44.6329 15.112C44.5209 15.08 44.4249 15.024 44.3449 14.944C44.2809 14.848 44.2089 14.768 44.1289 14.704C44.0649 14.544 44.0089 14.392 43.9609 14.248C43.9129 14.104 43.8809 13.952 43.8649 13.792C43.8169 13.76 43.7769 13.728 43.7449 13.696C43.7129 13.648 43.6809 13.608 43.6489 13.576C43.5529 13.512 43.5049 13.456 43.5049 13.408C43.4889 13.264 43.4409 13.152 43.3609 13.072C43.2809 12.992 43.2089 12.88 43.1449 12.736C43.1449 12.704 43.1369 12.656 43.1209 12.592C43.1209 12.528 43.1129 12.464 43.0969 12.4C43.0969 12.368 43.0969 12.328 43.0969 12.28C43.0969 12.216 43.0889 12.168 43.0729 12.136C43.0089 12.008 42.9449 11.888 42.8809 11.776C42.8169 11.648 42.7609 11.528 42.7129 11.416C42.7129 11.336 42.7289 11.216 42.7609 11.056C42.8409 10.72 42.8329 10.392 42.7369 10.072C42.6889 9.96 42.6569 9.848 42.6409 9.736C42.6249 9.624 42.6009 9.512 42.5689 9.4C42.5849 9.368 42.6009 9.328 42.6169 9.28C42.6489 9.216 42.6809 9.168 42.7129 9.136L42.5449 8.632C42.5129 8.552 42.4649 8.48 42.4009 8.416C42.3529 8.336 42.3049 8.264 42.2569 8.2C42.2409 8.072 42.2649 7.952 42.3289 7.84C42.4089 7.728 42.4569 7.616 42.4729 7.504C42.4729 7.456 42.4649 7.408 42.4489 7.36C42.4489 7.312 42.4489 7.264 42.4489 7.216C42.5769 7.04 42.6569 6.856 42.6889 6.664C42.7369 6.472 42.7689 6.272 42.7849 6.064C42.8969 6 42.9929 5.928 43.0729 5.848C43.1529 5.768 43.2089 5.664 43.2409 5.536C43.2569 5.488 43.2649 5.432 43.2649 5.368C43.2809 5.304 43.2969 5.24 43.3129 5.176C43.3929 5.048 43.4729 4.92 43.5529 4.792C43.6489 4.648 43.7369 4.52 43.8169 4.408C43.8489 4.328 43.8729 4.24 43.8889 4.144C43.9209 4.048 43.9689 3.968 44.0329 3.904C44.1129 3.856 44.1689 3.792 44.2009 3.712C44.2489 3.632 44.2889 3.552 44.3209 3.472C44.4329 3.456 44.5289 3.432 44.6089 3.4C44.6889 3.368 44.7609 3.344 44.8249 3.328C44.9049 3.28 44.9449 3.232 44.9449 3.184C44.9929 2.96 45.0889 2.8 45.2329 2.704C45.3929 2.592 45.5689 2.512 45.7609 2.464C45.8249 2.448 45.8809 2.44 45.9289 2.44C45.9769 2.424 46.0409 2.408 46.1209 2.392C46.1529 2.36 46.1929 2.32 46.2409 2.272C46.2889 2.208 46.3369 2.144 46.3849 2.08C46.4809 2.048 46.5689 2.016 46.6489 1.984C46.7449 1.952 46.8249 1.92 46.8889 1.888H47.0569C47.1849 1.936 47.3129 1.984 47.4409 2.032C47.5849 2.064 47.7369 2.104 47.8969 2.152C48.0249 2.136 48.1529 2.112 48.2809 2.08C48.4249 2.032 48.5609 2.024 48.6889 2.056C48.7049 2.056 48.7209 2.064 48.7369 2.08C48.7529 2.08 48.7689 2.072 48.7849 2.056C48.8969 2.056 49.0089 2.04 49.1209 2.008C49.2329 1.976 49.3449 1.968 49.4569 1.984C49.5529 1.984 49.6489 1.976 49.7449 1.96C49.8569 1.944 49.9609 1.912 50.0569 1.864C50.1369 1.848 50.2089 1.84 50.2729 1.84C50.3529 1.824 50.4329 1.832 50.5129 1.864C50.5609 1.912 50.6089 1.96 50.6569 2.008C50.7049 2.04 50.7609 2.088 50.8249 2.152C50.9529 2.168 51.0889 2.2 51.2329 2.248C51.3929 2.28 51.5529 2.32 51.7129 2.368C51.7929 2.384 51.8649 2.424 51.9289 2.488C52.0089 2.552 52.1049 2.6 52.2169 2.632C52.3129 2.664 52.4089 2.688 52.5049 2.704C52.6169 2.704 52.7289 2.704 52.8409 2.704C53.0969 2.96 53.4009 3.136 53.7529 3.232C53.7849 3.248 53.8169 3.264 53.8489 3.28C53.8809 3.296 53.9129 3.312 53.9449 3.328C54.0729 3.44 54.1929 3.56 54.3049 3.688C54.4329 3.8 54.5529 3.912 54.6649 4.024C54.7769 4.152 54.8409 4.288 54.8569 4.432C54.9849 4.544 55.0569 4.632 55.0729 4.696C55.1049 4.744 55.1209 4.896 55.1209 5.152C55.2169 5.2 55.3049 5.256 55.3849 5.32C55.4649 5.368 55.5129 5.448 55.5289 5.56C55.5609 5.624 55.5929 5.688 55.6249 5.752C55.6569 5.8 55.6809 5.856 55.6969 5.92C55.7449 5.984 55.7929 6.04 55.8409 6.088C55.9049 6.12 55.9689 6.168 56.0329 6.232C56.0809 6.344 56.1209 6.456 56.1529 6.568C56.1849 6.664 56.1849 6.776 56.1529 6.904C56.1209 7.016 56.1129 7.136 56.1289 7.264C56.1449 7.392 56.1449 7.528 56.1289 7.672C56.1129 7.8 56.1129 7.936 56.1289 8.08C56.1449 8.224 56.1609 8.36 56.1769 8.488C56.1929 8.552 56.2009 8.624 56.2009 8.704C56.2009 8.768 56.2089 8.824 56.2249 8.872C56.2889 8.984 56.3209 9.096 56.3209 9.208C56.3369 9.32 56.3369 9.432 56.3209 9.544C56.3209 9.608 56.3209 9.672 56.3209 9.736C56.3369 9.784 56.3449 9.848 56.3449 9.928C56.2809 10.136 56.2249 10.352 56.1769 10.576C56.1289 10.784 56.0569 10.984 55.9609 11.176C55.8649 11.352 55.7689 11.528 55.6729 11.704C55.5769 11.88 55.4649 12.048 55.3369 12.208V12.616C55.2569 12.664 55.1769 12.72 55.0969 12.784C55.0329 12.832 54.9769 12.872 54.9289 12.904C54.8169 13.096 54.7449 13.272 54.7129 13.432C54.6969 13.576 54.6649 13.712 54.6169 13.84C54.5529 13.904 54.4889 13.968 54.4249 14.032C54.3609 14.096 54.2889 14.16 54.2089 14.224C54.1289 14.288 54.0329 14.344 53.9209 14.392C53.8249 14.424 53.7129 14.416 53.5849 14.368C53.4409 14.336 53.3209 14.344 53.2249 14.392C53.1609 14.408 53.0969 14.424 53.0329 14.44C52.9689 14.456 52.9129 14.472 52.8649 14.488ZM52.4809 9.064C52.4489 8.984 52.4249 8.912 52.4089 8.848C52.4089 8.768 52.4009 8.688 52.3849 8.608C52.3849 8.48 52.3769 8.376 52.3609 8.296C52.3289 8.168 52.2809 8.032 52.2169 7.888C52.1689 7.728 52.1129 7.576 52.0489 7.432C52.0329 7.368 52.0009 7.304 51.9529 7.24C51.9209 7.16 51.8889 7.088 51.8569 7.024C51.7289 6.768 51.5289 6.616 51.2569 6.568C51.2089 6.552 51.1529 6.536 51.0889 6.52C51.0249 6.488 50.9689 6.456 50.9209 6.424C50.8249 6.36 50.7289 6.312 50.6329 6.28C50.5369 6.248 50.4409 6.224 50.3449 6.208C50.2169 6.176 50.0809 6.144 49.9369 6.112C49.7929 6.064 49.6569 6.032 49.5289 6.016C49.3689 5.936 49.2169 5.944 49.0729 6.04C48.6409 6.216 48.2489 6.448 47.8969 6.736C47.5449 7.008 47.2409 7.384 46.9849 7.864C46.9369 7.928 46.8889 8 46.8409 8.08C46.8089 8.16 46.7769 8.24 46.7449 8.32C46.6809 8.4 46.6249 8.488 46.5769 8.584C46.5289 8.664 46.4889 8.744 46.4569 8.824C46.4729 8.952 46.5289 9.056 46.6249 9.136C46.7209 9.216 46.7769 9.32 46.7929 9.448C46.7929 9.512 46.7689 9.576 46.7209 9.64C46.6729 9.688 46.6409 9.744 46.6249 9.808C46.6569 9.872 46.6969 9.944 46.7449 10.024C46.7929 10.104 46.8329 10.184 46.8649 10.264C46.9129 10.344 46.9449 10.432 46.9609 10.528C46.9929 10.608 47.0169 10.696 47.0329 10.792C47.0649 10.872 47.0889 10.952 47.1049 11.032C47.1369 11.112 47.1609 11.192 47.1769 11.272L47.5129 11.536C47.5609 11.568 47.6089 11.616 47.6569 11.68C47.7209 11.728 47.7849 11.768 47.8489 11.8C48.0409 11.848 48.2089 11.896 48.3529 11.944C48.4809 11.976 48.5929 11.992 48.6889 11.992C48.7849 11.992 48.8889 11.992 49.0009 11.992C49.0009 11.992 48.9929 11.992 48.9769 11.992C48.9769 11.992 48.9769 12 48.9769 12.016H49.0249C49.0089 12.016 49.0009 12.008 49.0009 11.992C49.0329 11.96 49.0729 11.944 49.1209 11.944C49.1689 11.928 49.2089 11.92 49.2409 11.92C49.3369 11.92 49.4329 11.928 49.5289 11.944C49.6409 11.944 49.7529 11.936 49.8649 11.92C49.8969 11.888 49.9369 11.888 49.9849 11.92C50.0489 11.936 50.1049 11.952 50.1529 11.968C50.2169 11.968 50.2649 11.952 50.2969 11.92C50.2969 11.856 50.2889 11.8 50.2729 11.752C50.2729 11.704 50.2969 11.664 50.3449 11.632C50.5529 11.52 50.7529 11.432 50.9449 11.368C51.0249 11.304 51.0889 11.248 51.1369 11.2C51.2009 11.152 51.2569 11.096 51.3049 11.032C51.3689 11 51.4169 10.96 51.4489 10.912C51.4969 10.864 51.5529 10.832 51.6169 10.816C51.7609 10.768 51.8809 10.704 51.9769 10.624C52.0889 10.528 52.1929 10.432 52.2889 10.336C52.3049 10.304 52.3129 10.28 52.3129 10.264C52.3289 10.232 52.3449 10.2 52.3609 10.168C52.5369 9.8 52.5769 9.432 52.4809 9.064ZM67.5147 3.928C67.4187 4.136 67.2907 4.312 67.1307 4.456C66.9707 4.584 66.8347 4.736 66.7227 4.912C66.5947 4.944 66.4667 5 66.3387 5.08C66.2267 5.16 66.1227 5.24 66.0267 5.32C65.8667 5.416 65.7227 5.416 65.5947 5.32C65.5307 5.288 65.4747 5.256 65.4267 5.224C65.3947 5.176 65.3467 5.136 65.2827 5.104C65.1547 4.992 64.9867 4.952 64.7787 4.984C64.7627 5 64.7387 4.992 64.7067 4.96V4.72C64.6907 4.704 64.6667 4.68 64.6347 4.648C64.6187 4.616 64.5947 4.6 64.5627 4.6C64.2427 4.472 63.9387 4.464 63.6507 4.576C63.5547 4.592 63.4587 4.616 63.3627 4.648C63.2667 4.68 63.1707 4.712 63.0747 4.744C63.0107 4.84 62.9467 4.936 62.8827 5.032C62.8347 5.128 62.7787 5.216 62.7147 5.296C62.7307 5.424 62.7387 5.552 62.7387 5.68C62.7547 5.808 62.7707 5.936 62.7867 6.064C62.8667 6.16 62.9387 6.264 63.0027 6.376C63.0827 6.472 63.1547 6.576 63.2187 6.688C63.3627 6.8 63.5147 6.912 63.6747 7.024C63.8347 7.12 63.9867 7.232 64.1307 7.36C64.2267 7.424 64.3227 7.48 64.4187 7.528C64.5307 7.56 64.6267 7.616 64.7067 7.696C64.7867 7.776 64.8587 7.848 64.9227 7.912C65.0027 7.96 65.0747 8.024 65.1387 8.104C65.1867 8.12 65.2347 8.144 65.2827 8.176C65.3307 8.208 65.3787 8.24 65.4267 8.272C65.6987 8.448 65.9067 8.688 66.0507 8.992C66.1307 9.12 66.2107 9.256 66.2907 9.4C66.3867 9.544 66.4747 9.68 66.5547 9.808C66.6667 9.904 66.7387 10.016 66.7707 10.144C66.8187 10.272 66.8667 10.4 66.9147 10.528C66.9307 10.544 66.9387 10.576 66.9387 10.624C66.9707 10.816 67.0187 11 67.0827 11.176C67.1627 11.352 67.2427 11.528 67.3227 11.704C67.3707 11.912 67.3947 12.12 67.3947 12.328C67.4107 12.52 67.4027 12.712 67.3707 12.904C67.3707 13.064 67.3467 13.224 67.2987 13.384C67.2667 13.528 67.2187 13.664 67.1547 13.792C67.1387 13.808 67.1307 13.824 67.1307 13.84C67.1307 13.856 67.1147 13.88 67.0827 13.912C66.9387 14.056 66.8187 14.216 66.7227 14.392C66.6427 14.568 66.5467 14.744 66.4347 14.92C66.4187 14.936 66.4107 14.96 66.4107 14.992C66.4107 15.008 66.3947 15.024 66.3627 15.04C66.2027 15.152 66.0667 15.272 65.9547 15.4C65.8587 15.528 65.7467 15.656 65.6187 15.784C65.5547 15.848 65.4747 15.904 65.3787 15.952C65.2827 16 65.1947 16.056 65.1147 16.12L64.6107 16.36C64.4507 16.376 64.2827 16.4 64.1067 16.432C63.9467 16.464 63.7787 16.52 63.6027 16.6C63.4907 16.664 63.3627 16.712 63.2187 16.744C63.0907 16.776 62.9627 16.808 62.8347 16.84C62.7707 16.856 62.7067 16.872 62.6427 16.888C62.5787 16.904 62.5147 16.92 62.4507 16.936C62.2427 16.776 62.0107 16.696 61.7547 16.696C61.5787 16.696 61.4267 16.664 61.2987 16.6C61.1067 16.52 60.9227 16.432 60.7467 16.336C60.5707 16.256 60.4107 16.144 60.2667 16C60.1707 15.92 60.0747 15.848 59.9787 15.784C59.8827 15.72 59.7947 15.656 59.7147 15.592C59.6507 15.528 59.5707 15.488 59.4747 15.472C59.3947 15.44 59.3147 15.408 59.2347 15.376C59.1227 15.296 59.0587 15.208 59.0427 15.112C59.0587 14.984 59.1067 14.864 59.1867 14.752C59.2827 14.64 59.3627 14.52 59.4267 14.392C59.4267 14.296 59.4507 14.176 59.4987 14.032C59.6427 13.84 59.7947 13.648 59.9547 13.456C60.1147 13.248 60.2747 13.04 60.4347 12.832C60.4987 12.784 60.5707 12.736 60.6507 12.688C60.7307 12.624 60.8187 12.56 60.9147 12.496C61.2347 12.576 61.5387 12.664 61.8267 12.76C62.1147 12.856 62.4107 12.944 62.7147 13.024C62.7787 13.008 62.8267 12.992 62.8587 12.976C62.8907 12.944 62.9147 12.92 62.9307 12.904C62.9787 12.888 63.0187 12.872 63.0507 12.856C63.0827 12.84 63.1067 12.824 63.1227 12.808H63.5547C63.5707 12.776 63.5867 12.752 63.6027 12.736C63.6347 12.704 63.6587 12.672 63.6747 12.64C63.7387 12.48 63.8027 12.328 63.8667 12.184C63.9307 12.04 63.9707 11.88 63.9867 11.704C63.9547 11.576 63.9147 11.44 63.8667 11.296C63.8347 11.152 63.7627 11.008 63.6507 10.864C63.5867 10.816 63.5147 10.76 63.4347 10.696C63.3547 10.632 63.2747 10.568 63.1947 10.504C62.9227 10.472 62.6427 10.4 62.3547 10.288C62.0827 10.176 61.8107 10.12 61.5387 10.12C61.4267 10.088 61.3387 10.04 61.2747 9.976C61.2107 9.896 61.1387 9.824 61.0587 9.76C60.9467 9.728 60.8267 9.704 60.6987 9.688C60.5707 9.672 60.4667 9.608 60.3867 9.496C60.1307 9.352 59.9147 9.248 59.7387 9.184C59.6587 9.088 59.5787 8.992 59.4987 8.896C59.4347 8.8 59.3627 8.712 59.2827 8.632C59.2187 8.552 59.1547 8.456 59.0907 8.344C59.0427 8.216 58.9787 8.096 58.8987 7.984C58.8347 7.904 58.7787 7.816 58.7307 7.72C58.6827 7.608 58.6347 7.496 58.5867 7.384C58.5387 7.16 58.4907 6.92 58.4427 6.664C58.4747 6.488 58.4987 6.312 58.5147 6.136C58.5467 5.944 58.5707 5.752 58.5867 5.56L58.4907 5.32C58.5547 5.288 58.6027 5.24 58.6347 5.176C58.6667 5.112 58.6987 5.048 58.7307 4.984C58.7627 4.888 58.8027 4.808 58.8507 4.744C58.8987 4.68 58.9147 4.592 58.8987 4.48C58.8987 4.176 58.9787 3.896 59.1387 3.64C59.1707 3.576 59.1947 3.52 59.2107 3.472C59.2427 3.424 59.2667 3.376 59.2827 3.328C59.3627 3.28 59.4267 3.232 59.4747 3.184C59.5387 3.12 59.5787 3.08 59.5947 3.064C59.6747 2.984 59.7067 2.912 59.6907 2.848C59.6747 2.768 59.6747 2.696 59.6907 2.632C59.7547 2.536 59.8267 2.44 59.9067 2.344C59.9867 2.248 60.0747 2.144 60.1707 2.032C60.2827 1.952 60.4027 1.888 60.5307 1.84C60.6587 1.776 60.7787 1.688 60.8907 1.576C60.9227 1.528 60.9627 1.496 61.0107 1.48C61.0587 1.448 61.1147 1.424 61.1787 1.408C61.2587 1.36 61.3467 1.32 61.4427 1.288C61.5387 1.256 61.6347 1.216 61.7307 1.168C61.8907 1.136 62.0507 1.112 62.2107 1.096C62.3867 1.08 62.5547 1.064 62.7147 1.048C62.7307 1.048 62.7467 1.048 62.7627 1.048C62.7947 1.032 62.8267 1.032 62.8587 1.048C63.0347 1.112 63.2107 1.112 63.3867 1.048C63.5787 0.983999 63.7707 0.959999 63.9627 0.975999C64.1387 0.975999 64.3067 0.999999 64.4667 1.048C64.6427 1.096 64.8107 1.136 64.9707 1.168C65.1467 1.296 65.3227 1.416 65.4987 1.528C65.6747 1.624 65.8667 1.704 66.0747 1.768C66.1387 1.832 66.1947 1.904 66.2427 1.984C66.3067 2.048 66.3707 2.12 66.4347 2.2C66.4987 2.264 66.5627 2.32 66.6267 2.368C66.6907 2.416 66.7467 2.472 66.7947 2.536C66.9227 2.776 67.0427 3.016 67.1547 3.256C67.2827 3.48 67.4027 3.704 67.5147 3.928ZM77.7283 2.944C77.7763 3.056 77.8003 3.176 77.8003 3.304C77.8163 3.432 77.7843 3.56 77.7043 3.688C77.6723 3.752 77.6563 3.816 77.6563 3.88C77.6723 3.928 77.6803 3.992 77.6803 4.072C77.6483 4.12 77.6083 4.168 77.5603 4.216C77.5123 4.248 77.4723 4.296 77.4403 4.36C77.4083 4.392 77.3763 4.432 77.3443 4.48C77.3283 4.528 77.2883 4.568 77.2243 4.6C77.1443 4.584 77.0483 4.576 76.9363 4.576C76.8243 4.576 76.7203 4.576 76.6243 4.576C76.3843 4.576 76.1683 4.64 75.9763 4.768C75.9123 4.832 75.8483 4.88 75.7843 4.912C75.7203 4.928 75.6563 4.952 75.5923 4.984C75.4963 5.08 75.4643 5.176 75.4963 5.272V5.728C75.5123 5.872 75.5283 6.016 75.5443 6.16C75.5763 6.288 75.5843 6.432 75.5683 6.592C75.5523 6.624 75.5523 6.672 75.5683 6.736C75.5843 6.784 75.6003 6.824 75.6163 6.856C75.6003 6.92 75.5763 6.976 75.5443 7.024C75.5283 7.056 75.5123 7.104 75.4963 7.168C75.5123 7.232 75.5283 7.296 75.5443 7.36C75.5603 7.408 75.5763 7.464 75.5923 7.528C75.5923 7.608 75.5843 7.664 75.5683 7.696C75.5363 7.792 75.5043 7.888 75.4723 7.984C75.4563 8.08 75.4323 8.176 75.4003 8.272C75.3523 8.384 75.3443 8.488 75.3763 8.584C75.4083 8.68 75.4003 8.776 75.3523 8.872C75.3523 9.208 75.3363 9.536 75.3043 9.856C75.2723 10.176 75.2483 10.496 75.2323 10.816C75.2323 11.232 75.3043 11.656 75.4483 12.088C75.5123 12.232 75.6163 12.304 75.7603 12.304C75.7923 12.288 75.8243 12.264 75.8563 12.232C75.9043 12.2 75.9523 12.176 76.0003 12.16C76.0483 12.16 76.0883 12.176 76.1203 12.208C76.2483 12.352 76.3923 12.448 76.5523 12.496C76.8083 12.56 76.8803 12.688 76.7683 12.88C76.7203 12.992 76.6963 13.112 76.6963 13.24C76.7123 13.368 76.7123 13.496 76.6963 13.624C76.6643 13.976 76.6483 14.336 76.6483 14.704C76.6483 15.056 76.6723 15.416 76.7203 15.784C76.7203 15.96 76.7043 16.072 76.6723 16.12C76.6563 16.184 76.5603 16.28 76.3843 16.408H76.3123C76.1843 16.392 76.0563 16.376 75.9283 16.36C75.8163 16.344 75.7043 16.328 75.5923 16.312C75.2883 16.36 75.0163 16.384 74.7763 16.384C74.6643 16.4 74.5523 16.424 74.4403 16.456C74.3443 16.504 74.2323 16.52 74.1043 16.504C73.9763 16.472 73.8483 16.472 73.7203 16.504C73.5923 16.536 73.4643 16.552 73.3363 16.552C73.2723 16.52 73.2083 16.496 73.1443 16.48C73.0963 16.464 73.0323 16.44 72.9523 16.408C72.5683 16.472 72.1843 16.512 71.8003 16.528C71.4163 16.544 71.0243 16.56 70.6243 16.576C70.5443 16.464 70.4643 16.36 70.3843 16.264C70.3043 16.184 70.2323 16.096 70.1683 16C70.1363 15.888 70.0723 15.792 69.9763 15.712C69.8963 15.632 69.8163 15.56 69.7363 15.496C69.7203 15.336 69.6883 15.184 69.6403 15.04C69.6083 14.912 69.6083 14.784 69.6403 14.656C69.6883 14.576 69.7043 14.496 69.6883 14.416C69.6563 14.272 69.6483 14.128 69.6643 13.984C69.6963 13.824 69.7283 13.672 69.7603 13.528V13.24C69.8883 13.208 70.0163 13.184 70.1443 13.168C70.2723 13.136 70.4003 13.136 70.5283 13.168C70.5923 13.136 70.6483 13.104 70.6963 13.072C70.7443 13.024 70.8003 12.976 70.8643 12.928C70.9443 12.96 71.0243 12.992 71.1043 13.024C71.1843 13.056 71.2723 13.088 71.3683 13.12C71.5283 13.024 71.7123 12.896 71.9203 12.736C71.9523 12.64 71.9683 12.568 71.9683 12.52C71.9683 12.344 71.9683 12.168 71.9683 11.992C71.9683 11.8 71.9763 11.616 71.9923 11.44V11.368C71.9283 11.208 71.9043 11.056 71.9203 10.912C71.9363 10.768 71.9363 10.616 71.9203 10.456V10.144C71.9523 9.776 71.9603 9.416 71.9443 9.064C71.9443 8.696 71.9363 8.328 71.9203 7.96L72.0883 7.648C72.0723 7.568 72.0563 7.488 72.0403 7.408C72.0243 7.328 72.0083 7.248 71.9923 7.168C72.0083 7.088 72.0243 7.016 72.0403 6.952C72.0723 6.888 72.0963 6.816 72.1123 6.736C72.1123 6.672 72.1043 6.624 72.0883 6.592C72.0083 6.4 71.9763 6.224 71.9923 6.064V5.704C71.9923 5.64 71.9763 5.592 71.9443 5.56C71.9123 5.512 71.8963 5.456 71.8963 5.392C71.9123 5.36 71.9203 5.288 71.9203 5.176C71.9043 5.08 71.8883 4.984 71.8723 4.888C71.8563 4.792 71.8323 4.696 71.8003 4.6C71.7203 4.52 71.6323 4.496 71.5363 4.528C71.4403 4.544 71.3523 4.544 71.2723 4.528C71.1923 4.496 71.1043 4.48 71.0083 4.48C70.9123 4.48 70.8083 4.48 70.6963 4.48C70.5843 4.416 70.4563 4.392 70.3123 4.408C70.1843 4.408 70.0563 4.384 69.9283 4.336C69.8643 4.256 69.8323 4.16 69.8323 4.048C69.8483 3.936 69.8323 3.856 69.7843 3.808C69.7523 3.744 69.7523 3.664 69.7843 3.568C69.8163 3.456 69.8163 3.36 69.7843 3.28C69.8483 3.2 69.8563 3.144 69.8083 3.112C69.7603 3.08 69.7603 3.016 69.8083 2.92C69.8563 2.84 69.8803 2.752 69.8803 2.656C69.8803 2.544 69.9123 2.456 69.9763 2.392C70.0083 2.36 70.0163 2.312 70.0003 2.248C70.0003 2.168 70.0083 2.096 70.0243 2.032C70.0563 2 70.1283 1.984 70.2402 1.984C70.3523 1.968 70.4163 1.944 70.4323 1.912C70.4963 1.832 70.5683 1.776 70.6483 1.744C70.7443 1.712 70.8403 1.672 70.9363 1.624C70.9683 1.624 71.0083 1.624 71.0563 1.624C71.1043 1.608 71.1603 1.6 71.2243 1.6C71.3523 1.6 71.4883 1.6 71.6323 1.6C71.7763 1.6 71.9123 1.592 72.0403 1.576C72.1683 1.544 72.2963 1.52 72.4243 1.504C72.5523 1.472 72.6883 1.448 72.8323 1.432C72.9763 1.4 73.1203 1.408 73.2643 1.456C73.4723 1.52 73.7283 1.512 74.0323 1.432C74.0963 1.416 74.1523 1.4 74.2003 1.384C74.2483 1.368 74.2883 1.352 74.3203 1.336C74.4323 1.352 74.5283 1.368 74.6083 1.384C74.7043 1.4 74.7843 1.408 74.8483 1.408C74.8963 1.408 74.9443 1.4 74.9922 1.384C75.0563 1.368 75.1043 1.36 75.1363 1.36C75.2963 1.36 75.4403 1.368 75.5683 1.384C75.7123 1.384 75.8563 1.4 76.0003 1.432C76.3043 1.48 76.5763 1.496 76.8163 1.48C76.8963 1.464 76.9603 1.464 77.0083 1.48C77.0723 1.48 77.1123 1.48 77.1283 1.48C77.2403 1.496 77.3203 1.536 77.3683 1.6C77.4323 1.648 77.4803 1.688 77.5123 1.72C77.7683 1.976 77.8243 2.24 77.6803 2.512C77.6643 2.528 77.6563 2.584 77.6563 2.68C77.6723 2.712 77.6803 2.752 77.6803 2.8C77.6963 2.832 77.7123 2.88 77.7283 2.944ZM91.1753 2.056C91.1433 2.248 91.1193 2.44 91.1033 2.632C91.1033 2.808 91.1033 2.992 91.1033 3.184C91.1033 3.408 91.0953 3.624 91.0793 3.832C91.0793 4.04 91.0633 4.256 91.0312 4.48C91.0153 4.512 91.0073 4.56 91.0073 4.624C91.0233 4.784 91.0473 4.944 91.0793 5.104C91.1273 5.248 91.1353 5.384 91.1033 5.512C91.0713 5.592 91.0633 5.672 91.0793 5.752C91.0953 5.832 91.0873 5.912 91.0553 5.992C91.0393 6.024 91.0233 6.056 91.0073 6.088C90.9913 6.12 90.9753 6.152 90.9593 6.184C90.8793 6.2 90.7993 6.216 90.7193 6.232C90.6553 6.232 90.5833 6.232 90.5033 6.232C90.4713 6.248 90.4233 6.28 90.3593 6.328C90.3113 6.36 90.2633 6.392 90.2153 6.424C90.1513 6.392 90.0953 6.36 90.0473 6.328C90.0153 6.296 89.9753 6.272 89.9273 6.256C89.8953 6.256 89.8553 6.256 89.8073 6.256C89.7593 6.24 89.7193 6.24 89.6873 6.256C89.5753 6.304 89.4233 6.32 89.2313 6.304C89.0553 6.272 88.9033 6.256 88.7753 6.256C88.6153 6.256 88.4633 6.28 88.3193 6.328C88.1913 6.36 88.0553 6.408 87.9113 6.472C87.7993 6.536 87.6793 6.576 87.5513 6.592C87.4393 6.592 87.3193 6.616 87.1913 6.664C87.1113 6.776 87.0793 6.88 87.0953 6.976C87.1273 7.104 87.1513 7.248 87.1673 7.408C87.1993 7.552 87.1833 7.704 87.1193 7.864C87.1193 7.928 87.1273 7.968 87.1433 7.984C87.2073 8.144 87.2393 8.304 87.2393 8.464C87.2393 8.624 87.2233 8.792 87.1913 8.968C87.1753 9.128 87.1673 9.288 87.1673 9.448C87.1673 9.592 87.1513 9.752 87.1193 9.928C87.0873 10.104 87.0953 10.264 87.1433 10.408C87.1593 10.504 87.1673 10.6 87.1673 10.696C87.1673 10.792 87.1673 10.88 87.1673 10.96C87.1513 11.072 87.1433 11.104 87.1433 11.056C87.1433 10.992 87.1433 10.96 87.1433 10.96V11.032C87.1433 11.048 87.1353 11.064 87.1193 11.08C87.1193 11.08 87.1193 11.088 87.1193 11.104C87.1353 11.376 87.1353 11.584 87.1193 11.728C87.1193 11.856 87.1113 11.976 87.0953 12.088C87.0793 12.184 87.0473 12.336 86.9993 12.544V12.664C87.0633 12.92 87.0953 13.184 87.0953 13.456C87.0953 13.712 87.0873 13.968 87.0713 14.224C87.0713 14.4 87.0713 14.576 87.0713 14.752C87.0873 14.928 87.1273 15.112 87.1913 15.304C87.1753 15.4 87.1513 15.512 87.1193 15.64C87.0873 15.752 87.0473 15.864 86.9993 15.976C86.9833 16.04 86.9513 16.096 86.9033 16.144C86.8713 16.192 86.8153 16.248 86.7353 16.312C86.3513 16.28 85.9913 16.312 85.6553 16.408C85.4793 16.472 85.2953 16.448 85.1033 16.336C85.0713 16.304 85.0553 16.288 85.0553 16.288C84.8153 16.144 84.5833 16.12 84.3593 16.216C84.2633 16.264 84.1673 16.28 84.0713 16.264C83.9753 16.248 83.8873 16.24 83.8073 16.24C83.6953 16.24 83.5993 16.28 83.5193 16.36C83.4393 16.44 83.3353 16.448 83.2073 16.384C83.1913 16.256 83.1993 16.136 83.2313 16.024C83.2793 15.912 83.3113 15.784 83.3273 15.64C83.3113 15.528 83.2793 15.408 83.2313 15.28C83.1993 15.152 83.1673 15.024 83.1353 14.896C83.1673 14.816 83.1913 14.744 83.2073 14.68C83.2233 14.6 83.2313 14.528 83.2313 14.464C83.2473 14.384 83.2473 14.304 83.2313 14.224C83.2313 14.128 83.2313 14.04 83.2313 13.96C83.2473 13.704 83.2473 13.464 83.2313 13.24C83.2313 13 83.2153 12.76 83.1833 12.52C83.1513 12.328 83.1273 12.144 83.1113 11.968C83.1113 11.776 83.1033 11.576 83.0873 11.368C83.1353 11.304 83.1753 11.24 83.2073 11.176C83.2553 11.112 83.3113 11.048 83.3753 10.984C83.3913 10.856 83.3993 10.792 83.3993 10.792C83.3993 10.776 83.3993 10.696 83.3993 10.552C83.3833 10.328 83.3833 10.096 83.3993 9.856C83.4153 9.6 83.4473 9.36 83.4953 9.136C83.4793 8.96 83.4553 8.792 83.4233 8.632C83.3913 8.456 83.3353 8.288 83.2553 8.128C83.2873 8.048 83.3193 7.968 83.3513 7.888C83.3993 7.808 83.4313 7.736 83.4473 7.672C83.4313 7.544 83.4313 7.432 83.4473 7.336C83.4793 7.24 83.4713 7.136 83.4233 7.024C83.4073 6.976 83.3673 6.936 83.3033 6.904C83.1913 6.904 83.0793 6.896 82.9673 6.88C82.8553 6.864 82.7433 6.856 82.6313 6.856C82.5193 6.856 82.4073 6.84 82.2953 6.808C82.1993 6.776 82.0953 6.776 81.9833 6.808C81.8873 6.856 81.7913 6.864 81.6953 6.832C81.6153 6.784 81.5273 6.768 81.4313 6.784H80.8073L80.2073 6.688C80.1753 6.688 80.1353 6.664 80.0873 6.616C80.0393 6.568 80.0153 6.52 80.0153 6.472V6.304C80.0473 6.208 80.0713 6.112 80.0873 6.016C80.1193 5.904 80.1193 5.792 80.0873 5.68C80.0713 5.664 80.0633 5.64 80.0633 5.608C80.0793 5.56 80.0873 5.528 80.0873 5.512C80.1513 5.224 80.1833 4.888 80.1833 4.504C80.1833 4.12 80.1673 3.784 80.1353 3.496C80.1353 3.4 80.1353 3.304 80.1353 3.208C80.1353 3.112 80.1513 3.024 80.1833 2.944C80.2633 2.864 80.3433 2.824 80.4233 2.824C80.5033 2.808 80.5833 2.792 80.6633 2.776C80.7433 2.744 80.8153 2.712 80.8793 2.68C80.9433 2.632 81.0153 2.6 81.0953 2.584C81.4633 2.456 81.8073 2.456 82.1273 2.584C82.1273 2.584 82.1833 2.6 82.2953 2.632C82.4393 2.568 82.5913 2.544 82.7513 2.56C82.9113 2.56 83.0793 2.52 83.2553 2.44C83.2873 2.44 83.3353 2.448 83.3993 2.464C83.4793 2.464 83.5593 2.464 83.6393 2.464C83.7833 2.4 83.9273 2.336 84.0713 2.272C84.2313 2.208 84.3833 2.112 84.5273 1.984C84.7833 1.952 85.0313 1.944 85.2713 1.96C85.5273 1.976 85.7673 1.944 85.9913 1.864C86.1033 1.88 86.1993 1.912 86.2793 1.96C86.3753 1.992 86.4553 2.024 86.5193 2.056C86.6313 2.056 86.7193 2.024 86.7833 1.96C86.8473 1.88 86.9433 1.832 87.0713 1.816C87.1993 1.784 87.3833 1.792 87.6233 1.84C87.7193 1.856 87.8153 1.904 87.9113 1.984C88.0233 2.048 88.1353 2.072 88.2473 2.056C88.3273 2.008 88.3913 1.96 88.4393 1.912C88.5033 1.864 88.5753 1.816 88.6553 1.768C88.7513 1.768 88.8553 1.792 88.9673 1.84C89.0793 1.872 89.1833 1.88 89.2793 1.864C89.3913 1.848 89.4953 1.832 89.5913 1.816C89.7033 1.784 89.8393 1.768 89.9993 1.768C90.0633 1.784 90.1273 1.808 90.1913 1.84C90.2553 1.856 90.3193 1.88 90.3833 1.912C90.4793 1.88 90.5753 1.856 90.6713 1.84C90.7833 1.824 90.8953 1.808 91.0073 1.792C91.0393 1.84 91.0713 1.888 91.1033 1.936C91.1353 1.984 91.1593 2.024 91.1753 2.056ZM108.148 3.928C108.052 4.136 107.924 4.312 107.764 4.456C107.604 4.584 107.468 4.736 107.356 4.912C107.228 4.944 107.1 5 106.972 5.08C106.86 5.16 106.756 5.24 106.66 5.32C106.5 5.416 106.356 5.416 106.228 5.32C106.164 5.288 106.108 5.256 106.06 5.224C106.028 5.176 105.98 5.136 105.916 5.104C105.788 4.992 105.62 4.952 105.412 4.984C105.396 5 105.372 4.992 105.34 4.96V4.72C105.324 4.704 105.3 4.68 105.268 4.648C105.252 4.616 105.228 4.6 105.196 4.6C104.876 4.472 104.572 4.464 104.284 4.576C104.188 4.592 104.092 4.616 103.996 4.648C103.9 4.68 103.804 4.712 103.708 4.744C103.644 4.84 103.58 4.936 103.516 5.032C103.468 5.128 103.412 5.216 103.348 5.296C103.364 5.424 103.372 5.552 103.372 5.68C103.388 5.808 103.404 5.936 103.42 6.064C103.5 6.16 103.572 6.264 103.636 6.376C103.716 6.472 103.788 6.576 103.852 6.688C103.996 6.8 104.148 6.912 104.308 7.024C104.468 7.12 104.62 7.232 104.764 7.36C104.86 7.424 104.956 7.48 105.052 7.528C105.164 7.56 105.26 7.616 105.34 7.696C105.42 7.776 105.492 7.848 105.556 7.912C105.636 7.96 105.708 8.024 105.772 8.104C105.82 8.12 105.868 8.144 105.916 8.176C105.964 8.208 106.012 8.24 106.06 8.272C106.332 8.448 106.54 8.688 106.684 8.992C106.764 9.12 106.844 9.256 106.924 9.4C107.02 9.544 107.108 9.68 107.188 9.808C107.3 9.904 107.372 10.016 107.404 10.144C107.452 10.272 107.5 10.4 107.548 10.528C107.564 10.544 107.572 10.576 107.572 10.624C107.604 10.816 107.652 11 107.716 11.176C107.796 11.352 107.876 11.528 107.956 11.704C108.004 11.912 108.028 12.12 108.028 12.328C108.044 12.52 108.036 12.712 108.004 12.904C108.004 13.064 107.98 13.224 107.932 13.384C107.9 13.528 107.852 13.664 107.788 13.792C107.772 13.808 107.764 13.824 107.764 13.84C107.764 13.856 107.748 13.88 107.716 13.912C107.572 14.056 107.452 14.216 107.356 14.392C107.276 14.568 107.18 14.744 107.068 14.92C107.052 14.936 107.044 14.96 107.044 14.992C107.044 15.008 107.028 15.024 106.996 15.04C106.836 15.152 106.7 15.272 106.588 15.4C106.492 15.528 106.38 15.656 106.252 15.784C106.188 15.848 106.108 15.904 106.012 15.952C105.916 16 105.828 16.056 105.748 16.12L105.243 16.36C105.084 16.376 104.916 16.4 104.74 16.432C104.58 16.464 104.412 16.52 104.236 16.6C104.124 16.664 103.996 16.712 103.852 16.744C103.724 16.776 103.596 16.808 103.468 16.84C103.404 16.856 103.34 16.872 103.276 16.888C103.212 16.904 103.148 16.92 103.084 16.936C102.876 16.776 102.644 16.696 102.388 16.696C102.212 16.696 102.06 16.664 101.932 16.6C101.74 16.52 101.556 16.432 101.38 16.336C101.204 16.256 101.044 16.144 100.9 16C100.804 15.92 100.708 15.848 100.612 15.784C100.516 15.72 100.428 15.656 100.348 15.592C100.284 15.528 100.204 15.488 100.108 15.472C100.028 15.44 99.9475 15.408 99.8675 15.376C99.7555 15.296 99.6915 15.208 99.6755 15.112C99.6915 14.984 99.7395 14.864 99.8195 14.752C99.9155 14.64 99.9955 14.52 100.06 14.392C100.06 14.296 100.084 14.176 100.132 14.032C100.276 13.84 100.428 13.648 100.588 13.456C100.748 13.248 100.908 13.04 101.068 12.832C101.132 12.784 101.204 12.736 101.284 12.688C101.364 12.624 101.452 12.56 101.548 12.496C101.868 12.576 102.172 12.664 102.46 12.76C102.748 12.856 103.044 12.944 103.348 13.024C103.412 13.008 103.46 12.992 103.492 12.976C103.524 12.944 103.548 12.92 103.564 12.904C103.612 12.888 103.652 12.872 103.684 12.856C103.716 12.84 103.74 12.824 103.756 12.808H104.188C104.204 12.776 104.22 12.752 104.236 12.736C104.268 12.704 104.292 12.672 104.308 12.64C104.372 12.48 104.436 12.328 104.5 12.184C104.564 12.04 104.604 11.88 104.62 11.704C104.588 11.576 104.548 11.44 104.5 11.296C104.468 11.152 104.396 11.008 104.284 10.864C104.22 10.816 104.148 10.76 104.068 10.696C103.988 10.632 103.908 10.568 103.828 10.504C103.556 10.472 103.276 10.4 102.988 10.288C102.716 10.176 102.444 10.12 102.172 10.12C102.06 10.088 101.972 10.04 101.908 9.976C101.844 9.896 101.772 9.824 101.692 9.76C101.58 9.728 101.46 9.704 101.332 9.688C101.204 9.672 101.1 9.608 101.02 9.496C100.764 9.352 100.548 9.248 100.372 9.184C100.292 9.088 100.212 8.992 100.132 8.896C100.068 8.8 99.9955 8.712 99.9155 8.632C99.8515 8.552 99.7875 8.456 99.7235 8.344C99.6755 8.216 99.6115 8.096 99.5315 7.984C99.4675 7.904 99.4115 7.816 99.3635 7.72C99.3155 7.608 99.2675 7.496 99.2195 7.384C99.1715 7.16 99.1235 6.92 99.0755 6.664C99.1075 6.488 99.1315 6.312 99.1475 6.136C99.1795 5.944 99.2035 5.752 99.2195 5.56L99.1235 5.32C99.1875 5.288 99.2355 5.24 99.2675 5.176C99.2995 5.112 99.3315 5.048 99.3635 4.984C99.3955 4.888 99.4355 4.808 99.4835 4.744C99.5315 4.68 99.5475 4.592 99.5315 4.48C99.5315 4.176 99.6115 3.896 99.7715 3.64C99.8035 3.576 99.8275 3.52 99.8435 3.472C99.8755 3.424 99.8995 3.376 99.9155 3.328C99.9955 3.28 100.06 3.232 100.108 3.184C100.172 3.12 100.212 3.08 100.228 3.064C100.308 2.984 100.34 2.912 100.324 2.848C100.308 2.768 100.308 2.696 100.324 2.632C100.388 2.536 100.46 2.44 100.54 2.344C100.62 2.248 100.708 2.144 100.804 2.032C100.916 1.952 101.036 1.888 101.164 1.84C101.292 1.776 101.412 1.688 101.524 1.576C101.556 1.528 101.596 1.496 101.644 1.48C101.692 1.448 101.748 1.424 101.812 1.408C101.892 1.36 101.98 1.32 102.076 1.288C102.172 1.256 102.268 1.216 102.364 1.168C102.524 1.136 102.684 1.112 102.844 1.096C103.02 1.08 103.188 1.064 103.348 1.048C103.364 1.048 103.38 1.048 103.396 1.048C103.428 1.032 103.46 1.032 103.492 1.048C103.668 1.112 103.844 1.112 104.02 1.048C104.212 0.983999 104.404 0.959999 104.596 0.975999C104.772 0.975999 104.94 0.999999 105.1 1.048C105.276 1.096 105.444 1.136 105.604 1.168C105.78 1.296 105.956 1.416 106.132 1.528C106.308 1.624 106.5 1.704 106.708 1.768C106.772 1.832 106.828 1.904 106.876 1.984C106.94 2.048 107.004 2.12 107.068 2.2C107.132 2.264 107.196 2.32 107.26 2.368C107.324 2.416 107.38 2.472 107.428 2.536C107.556 2.776 107.676 3.016 107.788 3.256C107.916 3.48 108.036 3.704 108.148 3.928ZM124.145 3.52C124.049 3.824 124.009 4.112 124.025 4.384C124.041 4.464 124.041 4.552 124.025 4.648C124.009 4.728 123.993 4.808 123.977 4.888C123.961 4.952 123.953 5.032 123.953 5.128C123.969 5.224 123.961 5.304 123.929 5.368C123.897 5.48 123.897 5.592 123.929 5.704C123.961 5.8 123.985 5.896 124.001 5.992C123.969 6.104 123.937 6.232 123.905 6.376C123.873 6.504 123.865 6.648 123.881 6.808C123.881 7 123.857 7.192 123.809 7.384C123.793 7.496 123.793 7.608 123.809 7.72C123.873 7.928 123.897 8.128 123.881 8.32C123.865 8.512 123.825 8.704 123.761 8.896C123.697 9.008 123.665 9.12 123.665 9.232C123.681 9.408 123.657 9.576 123.593 9.736C123.529 9.896 123.457 10.056 123.377 10.216C123.361 10.264 123.329 10.304 123.281 10.336C123.233 10.368 123.193 10.408 123.161 10.456C123.049 10.824 122.961 11.088 122.897 11.248C122.833 11.392 122.713 11.624 122.537 11.944C122.521 11.976 122.489 12.016 122.441 12.064C122.393 12.112 122.353 12.152 122.321 12.184C122.305 12.216 122.281 12.24 122.249 12.256C122.233 12.272 122.225 12.288 122.225 12.304C122.161 12.512 122.065 12.688 121.937 12.832C121.809 12.976 121.681 13.112 121.553 13.24C121.489 13.304 121.433 13.376 121.385 13.456C121.353 13.52 121.305 13.592 121.241 13.672C121.081 13.784 120.929 13.896 120.785 14.008C120.641 14.12 120.489 14.232 120.329 14.344C120.233 14.408 120.137 14.464 120.041 14.512C119.929 14.544 119.817 14.592 119.705 14.656C119.593 14.704 119.481 14.744 119.369 14.776C119.257 14.84 119.145 14.896 119.033 14.944C118.921 14.976 118.809 15.024 118.697 15.088H118.145C118.065 15.12 117.977 15.16 117.881 15.208C117.801 15.24 117.713 15.248 117.617 15.232C117.521 15.216 117.425 15.24 117.329 15.304C117.249 15.352 117.161 15.384 117.065 15.4C117.017 15.384 116.961 15.368 116.897 15.352C116.833 15.336 116.769 15.328 116.705 15.328C116.641 15.376 116.577 15.424 116.513 15.472C116.465 15.504 116.409 15.544 116.345 15.592C116.329 15.592 116.305 15.6 116.273 15.616C116.257 15.616 116.233 15.616 116.201 15.616C116.137 15.616 116.065 15.624 115.985 15.64C115.921 15.64 115.857 15.632 115.793 15.616C115.681 15.552 115.577 15.528 115.481 15.544C115.385 15.56 115.281 15.544 115.169 15.496C115.041 15.464 114.977 15.392 114.977 15.28C114.977 15.136 114.897 15.048 114.737 15.016C114.689 15.016 114.641 15.024 114.593 15.04C114.561 15.04 114.521 15.04 114.473 15.04C114.409 15.024 114.353 14.992 114.305 14.944C114.257 14.896 114.201 14.856 114.137 14.824C114.057 14.76 113.969 14.704 113.873 14.656C113.777 14.592 113.673 14.552 113.561 14.536C113.465 14.52 113.369 14.496 113.273 14.464C113.193 14.416 113.113 14.384 113.033 14.368C112.857 14.304 112.729 14.16 112.649 13.936C112.601 13.728 112.513 13.56 112.385 13.432C112.337 13.368 112.297 13.312 112.265 13.264C112.233 13.2 112.201 13.136 112.169 13.072C112.137 13.04 112.105 12.992 112.073 12.928C112.041 12.864 112.009 12.824 111.977 12.808C111.817 12.712 111.689 12.592 111.593 12.448C111.513 12.304 111.441 12.152 111.377 11.992C111.361 11.976 111.345 11.952 111.329 11.92C111.329 11.888 111.321 11.864 111.305 11.848C111.193 11.784 111.137 11.688 111.137 11.56C111.137 11.432 111.121 11.312 111.089 11.2C111.057 11.168 111.017 11.128 110.969 11.08C110.921 11.032 110.873 10.976 110.825 10.912C110.793 10.784 110.753 10.656 110.705 10.528C110.657 10.4 110.617 10.264 110.585 10.12C110.585 9.864 110.577 9.68 110.561 9.568C110.561 9.44 110.553 9.32 110.537 9.208C110.521 9.08 110.481 8.904 110.417 8.68C110.417 8.552 110.441 8.424 110.489 8.296C110.553 8.168 110.569 8.016 110.537 7.84C110.489 7.76 110.441 7.664 110.393 7.552C110.361 7.44 110.313 7.328 110.249 7.216C110.249 7.184 110.241 7.144 110.225 7.096C110.225 7.048 110.225 7.008 110.225 6.976C110.241 6.848 110.249 6.728 110.249 6.616C110.249 6.504 110.249 6.392 110.249 6.28C110.249 6.152 110.265 6.024 110.297 5.896C110.329 5.752 110.353 5.624 110.369 5.512C110.401 5.336 110.425 5.168 110.441 5.008C110.473 4.832 110.505 4.656 110.537 4.48C110.569 4.224 110.625 3.968 110.705 3.712C110.785 3.456 110.873 3.2 110.969 2.944C111.145 2.832 111.305 2.728 111.449 2.632C111.609 2.536 111.769 2.432 111.929 2.32H112.961L113.225 2.416C113.305 2.432 113.385 2.432 113.465 2.416C113.545 2.384 113.625 2.36 113.705 2.344C113.785 2.392 113.873 2.448 113.969 2.512C114.081 2.56 114.193 2.624 114.305 2.704C114.305 2.736 114.313 2.776 114.329 2.824C114.361 2.872 114.377 2.912 114.377 2.944C114.377 3.056 114.369 3.176 114.353 3.304C114.353 3.432 114.329 3.56 114.281 3.688C114.249 3.832 114.249 3.984 114.281 4.144C114.297 4.192 114.305 4.272 114.305 4.384C114.289 4.512 114.265 4.648 114.233 4.792C114.201 4.936 114.161 5.072 114.113 5.2C114.097 5.264 114.089 5.328 114.089 5.392C114.089 5.44 114.097 5.488 114.113 5.536C114.161 5.664 114.161 5.784 114.113 5.896C114.081 6.008 114.081 6.12 114.113 6.232C114.209 6.424 114.241 6.648 114.209 6.904C114.209 7.032 114.233 7.136 114.281 7.216C114.361 7.36 114.401 7.504 114.401 7.648C114.417 7.776 114.417 7.912 114.401 8.056C114.369 8.184 114.361 8.312 114.377 8.44C114.409 8.568 114.449 8.688 114.497 8.8C114.561 8.896 114.609 8.992 114.641 9.088C114.673 9.168 114.721 9.264 114.785 9.376C114.865 9.456 114.953 9.544 115.049 9.64C115.145 9.736 115.225 9.848 115.289 9.976C115.305 10.056 115.369 10.152 115.481 10.264C115.481 10.264 115.505 10.28 115.553 10.312C115.633 10.328 115.713 10.336 115.793 10.336C115.889 10.336 115.977 10.336 116.057 10.336C116.137 10.4 116.209 10.456 116.273 10.504C116.337 10.552 116.401 10.6 116.465 10.648C116.561 10.6 116.649 10.552 116.729 10.504C116.809 10.456 116.889 10.4 116.969 10.336L117.305 10.264C117.321 10.264 117.337 10.264 117.353 10.264C117.385 10.248 117.409 10.248 117.425 10.264C117.873 10.408 118.217 10.256 118.457 9.808C118.489 9.712 118.537 9.616 118.601 9.52C118.665 9.424 118.713 9.32 118.745 9.208C118.777 9.128 118.817 9.056 118.865 8.992C118.913 8.928 118.961 8.864 119.009 8.8V8.464C119.057 8.432 119.105 8.392 119.153 8.344C119.217 8.28 119.281 8.232 119.345 8.2C119.377 8.12 119.401 8.04 119.417 7.96C119.449 7.88 119.489 7.8 119.537 7.72C119.569 7.656 119.593 7.6 119.609 7.552C119.641 7.488 119.681 7.424 119.729 7.36C119.713 7.28 119.697 7.216 119.681 7.168C119.665 7.12 119.649 7.064 119.633 7C119.745 6.744 119.809 6.496 119.825 6.256C119.841 6.176 119.841 6.096 119.825 6.016C119.825 5.92 119.817 5.824 119.801 5.728C119.833 5.648 119.857 5.576 119.873 5.512C119.905 5.432 119.929 5.36 119.945 5.296C119.945 5.168 119.929 5.048 119.897 4.936C119.881 4.808 119.889 4.688 119.921 4.576C119.953 4.464 119.961 4.384 119.945 4.336C119.881 4.08 119.865 3.832 119.897 3.592C119.929 3.352 119.977 3.128 120.041 2.92C120.025 2.84 120.009 2.76 119.993 2.68C119.993 2.6 119.993 2.52 119.993 2.44C120.025 2.408 120.057 2.384 120.089 2.368C120.121 2.352 120.145 2.32 120.161 2.272C120.241 2.304 120.305 2.336 120.353 2.368C120.417 2.384 120.481 2.4 120.545 2.416C120.769 2.496 120.993 2.56 121.217 2.608C121.441 2.656 121.673 2.648 121.913 2.584C122.185 2.6 122.457 2.616 122.729 2.632C123.017 2.632 123.297 2.672 123.569 2.752C123.793 2.816 123.929 2.936 123.977 3.112L124.145 3.52ZM143.24 13.168C143.256 13.424 143.264 13.68 143.264 13.936C143.28 14.176 143.256 14.424 143.192 14.68C143.176 14.76 143.16 14.84 143.144 14.92C143.144 15 143.144 15.08 143.144 15.16C143.144 15.288 143.112 15.384 143.048 15.448C142.984 15.512 142.912 15.568 142.832 15.616C142.784 15.632 142.736 15.648 142.688 15.664C142.64 15.68 142.584 15.688 142.52 15.688C142.392 15.672 142.272 15.696 142.16 15.76C142.048 15.808 141.944 15.864 141.848 15.928C141.784 15.928 141.72 15.92 141.656 15.904C141.592 15.888 141.536 15.896 141.488 15.928C141.232 15.976 140.984 16.048 140.744 16.144C140.52 16.192 140.312 16.208 140.12 16.192C140.104 16.176 140.088 16.16 140.072 16.144C140.056 16.144 140.032 16.136 140 16.12C139.936 16.04 139.904 15.944 139.904 15.832C139.904 15.72 139.888 15.616 139.856 15.52C139.808 15.296 139.768 15.08 139.736 14.872C139.72 14.648 139.704 14.424 139.688 14.2C139.688 14.072 139.68 13.952 139.664 13.84C139.648 13.712 139.632 13.576 139.616 13.432C139.632 13.32 139.648 13.208 139.664 13.096C139.68 12.968 139.664 12.84 139.616 12.712C139.632 12.504 139.608 12.312 139.544 12.136C139.48 11.944 139.456 11.752 139.472 11.56C139.456 11.448 139.424 11.336 139.376 11.224C139.344 11.112 139.312 11 139.28 10.888C139.296 10.616 139.296 10.344 139.28 10.072C139.264 9.784 139.216 9.512 139.136 9.256C139.152 9.144 139.168 9.04 139.184 8.944C139.216 8.848 139.24 8.752 139.256 8.656C139.256 8.56 139.216 8.456 139.136 8.344C139.024 8.328 138.912 8.312 138.8 8.296C138.688 8.28 138.608 8.216 138.56 8.104C138.496 8.12 138.44 8.136 138.392 8.152C138.344 8.168 138.304 8.192 138.272 8.224C138.144 8.336 138.024 8.456 137.912 8.584C137.8 8.712 137.72 8.872 137.672 9.064C137.656 9.176 137.624 9.288 137.576 9.4C137.528 9.496 137.48 9.592 137.432 9.688C137.336 9.832 137.24 9.984 137.144 10.144C137.064 10.288 136.984 10.44 136.904 10.6C136.856 10.712 136.824 10.832 136.808 10.96C136.792 11.088 136.76 11.216 136.712 11.344C136.632 11.504 136.56 11.672 136.496 11.848C136.448 12.008 136.392 12.176 136.328 12.352C136.264 12.512 136.184 12.672 136.088 12.832C136.008 12.992 135.928 13.144 135.848 13.288C135.736 13.496 135.624 13.696 135.512 13.888C135.416 14.064 135.328 14.264 135.248 14.488C135.232 14.552 135.192 14.608 135.128 14.656C135.064 14.688 135 14.696 134.936 14.68C134.76 14.616 134.576 14.6 134.384 14.632C134.208 14.648 134.032 14.624 133.856 14.56C133.84 14.544 133.816 14.544 133.784 14.56C133.752 14.56 133.72 14.56 133.688 14.56C133.576 14.608 133.464 14.616 133.352 14.584C133.24 14.552 133.128 14.528 133.016 14.512C132.904 14.496 132.832 14.424 132.8 14.296C132.72 13.976 132.608 13.672 132.464 13.384C132.32 13.096 132.232 12.792 132.2 12.472C132.136 12.392 132.072 12.304 132.008 12.208C131.96 12.112 131.904 12.032 131.84 11.968C131.792 11.744 131.744 11.52 131.696 11.296C131.648 11.056 131.6 10.824 131.552 10.6C131.488 10.52 131.432 10.448 131.384 10.384C131.336 10.304 131.272 10.224 131.192 10.144C131.176 10.032 131.152 9.92 131.12 9.808C131.104 9.68 131.08 9.552 131.048 9.424C130.968 9.2 130.864 9.008 130.736 8.848C130.64 8.816 130.576 8.856 130.544 8.968C130.528 9 130.52 9.04 130.52 9.088C130.52 9.136 130.52 9.176 130.52 9.208C130.472 9.272 130.416 9.336 130.352 9.4C130.304 9.448 130.264 9.504 130.232 9.568C130.2 10.08 130.16 10.584 130.112 11.08C130.064 11.56 130 12.04 129.92 12.52C129.952 12.712 129.944 12.904 129.896 13.096C129.864 13.288 129.856 13.496 129.872 13.72C129.888 13.864 129.88 14.016 129.848 14.176C129.832 14.32 129.824 14.472 129.824 14.632C129.808 14.824 129.784 15 129.752 15.16C129.736 15.32 129.696 15.488 129.632 15.664C129.584 15.776 129.504 15.84 129.392 15.856C129.328 15.872 129.272 15.888 129.224 15.904C129.176 15.92 129.128 15.944 129.08 15.976C128.968 16.024 128.84 16.08 128.696 16.144C128.568 16.208 128.44 16.28 128.312 16.36C127.96 16.376 127.696 16.384 127.52 16.384C127.36 16.384 127.232 16.376 127.136 16.36C127.056 16.344 126.936 16.32 126.776 16.288C126.728 16.24 126.696 16.184 126.68 16.12C126.664 16.072 126.648 16.024 126.632 15.976C126.632 15.688 126.576 15.408 126.464 15.136C126.384 14.928 126.336 14.72 126.32 14.512C126.304 14.288 126.304 14.056 126.32 13.816C126.352 13.704 126.384 13.568 126.416 13.408C126.448 13.232 126.464 13.064 126.464 12.904C126.464 12.728 126.448 12.56 126.416 12.4C126.4 12.272 126.392 12.152 126.392 12.04C126.392 11.912 126.384 11.784 126.368 11.656C126.368 11.624 126.368 11.592 126.368 11.56C126.384 11.512 126.4 11.464 126.416 11.416C126.464 11.24 126.464 11.072 126.416 10.912C126.384 10.816 126.376 10.736 126.392 10.672C126.424 10.576 126.432 10.48 126.416 10.384C126.4 10.288 126.384 10.2 126.368 10.12C126.416 10.04 126.464 9.984 126.512 9.952C126.56 9.904 126.6 9.848 126.632 9.784C126.664 9.736 126.672 9.688 126.656 9.64C126.656 9.576 126.648 9.512 126.632 9.448C126.6 9.32 126.552 9.224 126.488 9.16C126.472 9.064 126.456 8.968 126.44 8.872C126.44 8.776 126.456 8.68 126.488 8.584C126.584 8.424 126.624 8.264 126.608 8.104C126.608 8.024 126.608 7.952 126.608 7.888C126.624 7.824 126.64 7.76 126.656 7.696C126.672 7.632 126.68 7.576 126.68 7.528C126.696 7.48 126.696 7.424 126.68 7.36C126.648 7.184 126.64 7.016 126.656 6.856C126.672 6.68 126.664 6.512 126.632 6.352C126.616 6.224 126.624 6.104 126.656 5.992C126.704 5.864 126.744 5.744 126.776 5.632C126.776 5.472 126.752 5.32 126.704 5.176C126.704 5.128 126.72 5.08 126.752 5.032C126.784 4.968 126.808 4.904 126.824 4.84C126.856 4.776 126.872 4.712 126.872 4.648C126.904 4.536 126.928 4.432 126.944 4.336C126.976 4.224 126.992 4.112 126.992 4C127.024 3.856 127.032 3.72 127.016 3.592C127.016 3.448 127 3.312 126.968 3.184C127 3.056 127.048 2.968 127.112 2.92C127.192 2.872 127.288 2.832 127.4 2.8C127.48 2.816 127.56 2.832 127.64 2.848C127.736 2.864 127.824 2.88 127.904 2.896C128.016 2.864 128.128 2.832 128.24 2.8C128.368 2.752 128.488 2.72 128.6 2.704C128.696 2.72 128.792 2.736 128.888 2.752C129 2.752 129.096 2.76 129.176 2.776C129.208 2.776 129.224 2.776 129.224 2.776C129.24 2.76 129.256 2.752 129.272 2.752C129.336 2.688 129.392 2.632 129.44 2.584C129.504 2.536 129.56 2.488 129.608 2.44C129.784 2.408 129.944 2.384 130.088 2.368C130.248 2.352 130.4 2.336 130.544 2.32C130.624 2.288 130.704 2.288 130.784 2.32C130.864 2.336 130.944 2.344 131.024 2.344C131.12 2.344 131.2 2.296 131.264 2.2C131.344 2.232 131.392 2.272 131.408 2.32C131.664 2.656 131.896 3.008 132.104 3.376C132.328 3.728 132.48 4.128 132.56 4.576C132.608 4.768 132.672 4.96 132.752 5.152C132.832 5.328 132.928 5.512 133.04 5.704C133.12 5.848 133.248 5.992 133.424 6.136C133.424 6.264 133.424 6.392 133.424 6.52C133.44 6.648 133.448 6.784 133.448 6.928C133.496 6.992 133.544 7.056 133.592 7.12C133.64 7.184 133.688 7.256 133.736 7.336C133.8 7.448 133.864 7.56 133.928 7.672C134.008 7.784 134.088 7.904 134.168 8.032C134.2 8.064 134.24 8.08 134.288 8.08C134.352 8.08 134.392 8.048 134.408 7.984C134.472 7.84 134.528 7.696 134.576 7.552C134.64 7.408 134.696 7.272 134.744 7.144C134.808 7.032 134.872 6.928 134.936 6.832C135.016 6.72 135.12 6.648 135.248 6.616C135.392 6.568 135.488 6.448 135.536 6.256C135.616 6.048 135.704 5.864 135.8 5.704C135.912 5.528 136.04 5.36 136.184 5.2C136.312 5.024 136.432 4.84 136.544 4.648C136.656 4.456 136.776 4.272 136.904 4.096C136.936 4.032 136.976 3.968 137.024 3.904C137.072 3.84 137.128 3.784 137.192 3.736C137.448 3.56 137.608 3.344 137.672 3.088C137.688 3.024 137.704 2.968 137.72 2.92C137.752 2.872 137.776 2.824 137.792 2.776C137.92 2.6 138.056 2.432 138.2 2.272C138.344 2.096 138.472 1.928 138.584 1.768C138.792 1.624 139.008 1.552 139.232 1.552C139.456 1.552 139.672 1.544 139.88 1.528C140.072 1.592 140.256 1.664 140.432 1.744C140.624 1.808 140.824 1.88 141.032 1.96C141.16 1.928 141.288 1.904 141.416 1.888C141.56 1.856 141.712 1.856 141.872 1.888C142.064 1.968 142.184 2.096 142.232 2.272C142.312 2.432 142.376 2.592 142.424 2.752C142.488 2.912 142.52 3.08 142.52 3.256C142.52 3.32 142.536 3.376 142.568 3.424C142.6 3.52 142.632 3.624 142.664 3.736C142.712 3.832 142.736 3.936 142.736 4.048C142.736 4.256 142.744 4.464 142.76 4.672C142.792 4.88 142.808 5.088 142.808 5.296C142.808 5.488 142.808 5.68 142.808 5.872C142.808 6.048 142.816 6.224 142.832 6.4C142.832 6.464 142.832 6.536 142.832 6.616C142.848 6.68 142.856 6.752 142.856 6.832C142.84 6.944 142.824 7.064 142.808 7.192C142.792 7.32 142.768 7.456 142.736 7.6C142.752 7.744 142.76 7.904 142.76 8.08C142.776 8.24 142.776 8.408 142.76 8.584C142.728 8.696 142.712 8.832 142.712 8.992C142.728 9.136 142.72 9.272 142.688 9.4C142.672 9.56 142.672 9.728 142.688 9.904C142.752 10.08 142.792 10.264 142.808 10.456C142.824 10.632 142.84 10.808 142.856 10.984C142.872 11.08 142.888 11.176 142.904 11.272C142.92 11.368 142.904 11.464 142.856 11.56V11.728C142.936 12.016 142.984 12.336 143 12.688C143.032 12.752 143.064 12.832 143.096 12.928C143.144 13.008 143.192 13.088 143.24 13.168ZM162.404 13.168C162.42 13.424 162.428 13.68 162.428 13.936C162.444 14.176 162.42 14.424 162.356 14.68C162.34 14.76 162.324 14.84 162.308 14.92C162.308 15 162.308 15.08 162.308 15.16C162.308 15.288 162.276 15.384 162.212 15.448C162.148 15.512 162.076 15.568 161.996 15.616C161.948 15.632 161.9 15.648 161.852 15.664C161.804 15.68 161.748 15.688 161.684 15.688C161.556 15.672 161.436 15.696 161.324 15.76C161.212 15.808 161.108 15.864 161.012 15.928C160.948 15.928 160.884 15.92 160.82 15.904C160.756 15.888 160.7 15.896 160.652 15.928C160.396 15.976 160.148 16.048 159.908 16.144C159.684 16.192 159.476 16.208 159.284 16.192C159.268 16.176 159.252 16.16 159.236 16.144C159.22 16.144 159.196 16.136 159.164 16.12C159.1 16.04 159.068 15.944 159.068 15.832C159.068 15.72 159.052 15.616 159.02 15.52C158.972 15.296 158.932 15.08 158.9 14.872C158.884 14.648 158.868 14.424 158.852 14.2C158.852 14.072 158.844 13.952 158.828 13.84C158.812 13.712 158.796 13.576 158.78 13.432C158.796 13.32 158.812 13.208 158.828 13.096C158.844 12.968 158.828 12.84 158.78 12.712C158.796 12.504 158.772 12.312 158.708 12.136C158.644 11.944 158.62 11.752 158.636 11.56C158.62 11.448 158.588 11.336 158.54 11.224C158.508 11.112 158.476 11 158.444 10.888C158.46 10.616 158.46 10.344 158.444 10.072C158.428 9.784 158.38 9.512 158.3 9.256C158.316 9.144 158.332 9.04 158.348 8.944C158.38 8.848 158.404 8.752 158.42 8.656C158.42 8.56 158.38 8.456 158.3 8.344C158.188 8.328 158.076 8.312 157.964 8.296C157.852 8.28 157.772 8.216 157.724 8.104C157.66 8.12 157.604 8.136 157.556 8.152C157.508 8.168 157.468 8.192 157.436 8.224C157.308 8.336 157.188 8.456 157.076 8.584C156.964 8.712 156.884 8.872 156.836 9.064C156.82 9.176 156.788 9.288 156.74 9.4C156.692 9.496 156.644 9.592 156.596 9.688C156.5 9.832 156.404 9.984 156.308 10.144C156.228 10.288 156.148 10.44 156.068 10.6C156.02 10.712 155.988 10.832 155.972 10.96C155.956 11.088 155.924 11.216 155.876 11.344C155.796 11.504 155.724 11.672 155.66 11.848C155.612 12.008 155.556 12.176 155.492 12.352C155.428 12.512 155.348 12.672 155.252 12.832C155.172 12.992 155.092 13.144 155.012 13.288C154.9 13.496 154.788 13.696 154.676 13.888C154.58 14.064 154.492 14.264 154.412 14.488C154.396 14.552 154.356 14.608 154.292 14.656C154.228 14.688 154.164 14.696 154.1 14.68C153.924 14.616 153.74 14.6 153.548 14.632C153.372 14.648 153.196 14.624 153.02 14.56C153.004 14.544 152.98 14.544 152.948 14.56C152.916 14.56 152.884 14.56 152.852 14.56C152.74 14.608 152.628 14.616 152.516 14.584C152.404 14.552 152.292 14.528 152.18 14.512C152.068 14.496 151.996 14.424 151.964 14.296C151.884 13.976 151.772 13.672 151.628 13.384C151.484 13.096 151.396 12.792 151.364 12.472C151.3 12.392 151.236 12.304 151.172 12.208C151.124 12.112 151.068 12.032 151.004 11.968C150.956 11.744 150.908 11.52 150.86 11.296C150.812 11.056 150.764 10.824 150.716 10.6C150.652 10.52 150.596 10.448 150.548 10.384C150.5 10.304 150.436 10.224 150.356 10.144C150.34 10.032 150.316 9.92 150.284 9.808C150.268 9.68 150.244 9.552 150.212 9.424C150.132 9.2 150.028 9.008 149.9 8.848C149.804 8.816 149.74 8.856 149.708 8.968C149.692 9 149.684 9.04 149.684 9.088C149.684 9.136 149.684 9.176 149.684 9.208C149.636 9.272 149.58 9.336 149.516 9.4C149.468 9.448 149.428 9.504 149.396 9.568C149.364 10.08 149.324 10.584 149.276 11.08C149.228 11.56 149.164 12.04 149.084 12.52C149.116 12.712 149.108 12.904 149.06 13.096C149.028 13.288 149.02 13.496 149.036 13.72C149.052 13.864 149.044 14.016 149.012 14.176C148.996 14.32 148.988 14.472 148.988 14.632C148.972 14.824 148.948 15 148.916 15.16C148.9 15.32 148.86 15.488 148.796 15.664C148.748 15.776 148.668 15.84 148.556 15.856C148.492 15.872 148.436 15.888 148.388 15.904C148.34 15.92 148.292 15.944 148.244 15.976C148.132 16.024 148.004 16.08 147.86 16.144C147.732 16.208 147.604 16.28 147.476 16.36C147.124 16.376 146.86 16.384 146.684 16.384C146.524 16.384 146.396 16.376 146.3 16.36C146.22 16.344 146.1 16.32 145.94 16.288C145.892 16.24 145.86 16.184 145.844 16.12C145.828 16.072 145.812 16.024 145.796 15.976C145.796 15.688 145.74 15.408 145.628 15.136C145.548 14.928 145.5 14.72 145.484 14.512C145.468 14.288 145.468 14.056 145.484 13.816C145.516 13.704 145.548 13.568 145.58 13.408C145.612 13.232 145.628 13.064 145.628 12.904C145.628 12.728 145.612 12.56 145.58 12.4C145.564 12.272 145.556 12.152 145.556 12.04C145.556 11.912 145.548 11.784 145.532 11.656C145.532 11.624 145.532 11.592 145.532 11.56C145.548 11.512 145.564 11.464 145.58 11.416C145.628 11.24 145.628 11.072 145.58 10.912C145.548 10.816 145.54 10.736 145.556 10.672C145.588 10.576 145.596 10.48 145.58 10.384C145.564 10.288 145.548 10.2 145.532 10.12C145.58 10.04 145.628 9.984 145.676 9.952C145.724 9.904 145.764 9.848 145.796 9.784C145.828 9.736 145.836 9.688 145.82 9.64C145.82 9.576 145.812 9.512 145.796 9.448C145.764 9.32 145.716 9.224 145.652 9.16C145.636 9.064 145.62 8.968 145.604 8.872C145.604 8.776 145.62 8.68 145.652 8.584C145.748 8.424 145.788 8.264 145.772 8.104C145.772 8.024 145.772 7.952 145.772 7.888C145.788 7.824 145.804 7.76 145.82 7.696C145.836 7.632 145.844 7.576 145.844 7.528C145.86 7.48 145.86 7.424 145.844 7.36C145.812 7.184 145.804 7.016 145.82 6.856C145.836 6.68 145.828 6.512 145.796 6.352C145.78 6.224 145.788 6.104 145.82 5.992C145.868 5.864 145.908 5.744 145.94 5.632C145.94 5.472 145.916 5.32 145.868 5.176C145.868 5.128 145.884 5.08 145.916 5.032C145.948 4.968 145.972 4.904 145.988 4.84C146.02 4.776 146.036 4.712 146.036 4.648C146.068 4.536 146.092 4.432 146.108 4.336C146.14 4.224 146.156 4.112 146.156 4C146.188 3.856 146.196 3.72 146.18 3.592C146.18 3.448 146.164 3.312 146.132 3.184C146.164 3.056 146.212 2.968 146.276 2.92C146.356 2.872 146.452 2.832 146.564 2.8C146.644 2.816 146.724 2.832 146.804 2.848C146.9 2.864 146.988 2.88 147.068 2.896C147.18 2.864 147.292 2.832 147.404 2.8C147.532 2.752 147.652 2.72 147.764 2.704C147.86 2.72 147.956 2.736 148.052 2.752C148.164 2.752 148.26 2.76 148.34 2.776C148.372 2.776 148.388 2.776 148.388 2.776C148.404 2.76 148.42 2.752 148.436 2.752C148.5 2.688 148.556 2.632 148.604 2.584C148.668 2.536 148.724 2.488 148.772 2.44C148.948 2.408 149.108 2.384 149.252 2.368C149.412 2.352 149.564 2.336 149.708 2.32C149.788 2.288 149.868 2.288 149.948 2.32C150.028 2.336 150.108 2.344 150.188 2.344C150.284 2.344 150.364 2.296 150.428 2.2C150.508 2.232 150.556 2.272 150.572 2.32C150.828 2.656 151.06 3.008 151.268 3.376C151.492 3.728 151.644 4.128 151.724 4.576C151.772 4.768 151.836 4.96 151.916 5.152C151.996 5.328 152.092 5.512 152.204 5.704C152.284 5.848 152.412 5.992 152.588 6.136C152.588 6.264 152.588 6.392 152.588 6.52C152.604 6.648 152.612 6.784 152.612 6.928C152.66 6.992 152.708 7.056 152.756 7.12C152.804 7.184 152.852 7.256 152.9 7.336C152.964 7.448 153.028 7.56 153.092 7.672C153.172 7.784 153.252 7.904 153.332 8.032C153.364 8.064 153.404 8.08 153.452 8.08C153.516 8.08 153.556 8.048 153.572 7.984C153.636 7.84 153.692 7.696 153.74 7.552C153.804 7.408 153.86 7.272 153.908 7.144C153.972 7.032 154.036 6.928 154.1 6.832C154.18 6.72 154.284 6.648 154.412 6.616C154.556 6.568 154.652 6.448 154.7 6.256C154.78 6.048 154.868 5.864 154.964 5.704C155.076 5.528 155.204 5.36 155.348 5.2C155.476 5.024 155.596 4.84 155.708 4.648C155.82 4.456 155.94 4.272 156.068 4.096C156.1 4.032 156.14 3.968 156.188 3.904C156.236 3.84 156.292 3.784 156.356 3.736C156.612 3.56 156.772 3.344 156.836 3.088C156.852 3.024 156.868 2.968 156.884 2.92C156.916 2.872 156.94 2.824 156.956 2.776C157.084 2.6 157.22 2.432 157.364 2.272C157.508 2.096 157.636 1.928 157.748 1.768C157.956 1.624 158.172 1.552 158.396 1.552C158.62 1.552 158.836 1.544 159.044 1.528C159.236 1.592 159.42 1.664 159.596 1.744C159.788 1.808 159.988 1.88 160.196 1.96C160.324 1.928 160.452 1.904 160.58 1.888C160.724 1.856 160.876 1.856 161.036 1.888C161.228 1.968 161.348 2.096 161.396 2.272C161.476 2.432 161.54 2.592 161.588 2.752C161.652 2.912 161.684 3.08 161.684 3.256C161.684 3.32 161.7 3.376 161.732 3.424C161.764 3.52 161.796 3.624 161.828 3.736C161.876 3.832 161.9 3.936 161.9 4.048C161.9 4.256 161.908 4.464 161.924 4.672C161.956 4.88 161.972 5.088 161.972 5.296C161.972 5.488 161.972 5.68 161.972 5.872C161.972 6.048 161.98 6.224 161.996 6.4C161.996 6.464 161.996 6.536 161.996 6.616C162.012 6.68 162.02 6.752 162.02 6.832C162.004 6.944 161.988 7.064 161.972 7.192C161.956 7.32 161.932 7.456 161.9 7.6C161.916 7.744 161.924 7.904 161.924 8.08C161.94 8.24 161.94 8.408 161.924 8.584C161.892 8.696 161.876 8.832 161.876 8.992C161.892 9.136 161.884 9.272 161.852 9.4C161.836 9.56 161.836 9.728 161.852 9.904C161.916 10.08 161.956 10.264 161.972 10.456C161.988 10.632 162.004 10.808 162.02 10.984C162.036 11.08 162.052 11.176 162.068 11.272C162.084 11.368 162.068 11.464 162.02 11.56V11.728C162.1 12.016 162.148 12.336 162.164 12.688C162.196 12.752 162.228 12.832 162.26 12.928C162.308 13.008 162.356 13.088 162.404 13.168ZM179.072 14.968C179.104 15.048 179.08 15.16 179 15.304C178.872 15.32 178.736 15.32 178.592 15.304C178.464 15.272 178.336 15.24 178.208 15.208C178 15.288 177.856 15.344 177.776 15.376C177.712 15.408 177.648 15.424 177.584 15.424C177.52 15.408 177.392 15.4 177.2 15.4C177.152 15.416 177.104 15.44 177.056 15.472C177.024 15.504 176.976 15.536 176.912 15.568C176.912 15.568 176.904 15.576 176.888 15.592C176.888 15.592 176.88 15.592 176.864 15.592C176.704 15.592 176.544 15.6 176.384 15.616C176.224 15.616 176.072 15.616 175.928 15.616C175.832 15.52 175.768 15.448 175.736 15.4C175.72 15.352 175.688 15.24 175.64 15.064C175.608 14.968 175.536 14.856 175.424 14.728C175.264 14.552 175.096 14.312 174.92 14.008C174.76 13.704 174.632 13.448 174.536 13.24L174.416 13.12C174.352 13.12 174.304 13.136 174.272 13.168C174.016 13.328 173.776 13.352 173.552 13.24C173.408 13.208 173.264 13.192 173.12 13.192C172.992 13.192 172.856 13.192 172.712 13.192C172.6 13.176 172.488 13.176 172.376 13.192C172.264 13.208 172.144 13.216 172.016 13.216C171.92 13.216 171.816 13.216 171.704 13.216C171.608 13.2 171.512 13.192 171.416 13.192C171.288 13.208 171.152 13.232 171.008 13.264C170.88 13.296 170.752 13.344 170.624 13.408C170.512 13.472 170.392 13.512 170.264 13.528C170.152 13.544 170.032 13.56 169.904 13.576C169.728 13.576 169.552 13.6 169.376 13.648C169.216 13.68 169.048 13.72 168.872 13.768C168.824 13.784 168.768 13.808 168.704 13.84C168.656 13.856 168.616 13.896 168.584 13.96C168.584 14.04 168.576 14.128 168.56 14.224C168.56 14.304 168.56 14.392 168.56 14.488C168.512 14.632 168.48 14.784 168.464 14.944C168.4 15.168 168.296 15.36 168.152 15.52C168.024 15.68 167.888 15.84 167.744 16C167.68 16 167.616 16 167.552 16C167.504 15.984 167.448 15.976 167.384 15.976C167.336 15.976 167.28 15.984 167.216 16C167.168 16 167.112 16.008 167.048 16.024C166.872 16.04 166.688 16.016 166.496 15.952C166.48 15.936 166.464 15.936 166.448 15.952C166.448 15.952 166.432 15.952 166.4 15.952H166.28L166.232 15.928C166.216 15.896 166.192 15.888 166.16 15.904C166.144 15.904 166.096 15.896 166.016 15.88C165.92 15.848 165.832 15.832 165.752 15.832C165.688 15.832 165.632 15.832 165.584 15.832C165.536 15.832 165.472 15.824 165.392 15.808C165.36 15.792 165.312 15.784 165.248 15.784C165.184 15.768 165.112 15.744 165.032 15.712C164.984 15.696 164.944 15.696 164.912 15.712C164.896 15.712 164.864 15.704 164.816 15.688L164.744 15.664H164.696L164.648 15.64C164.68 15.416 164.712 15.2 164.744 14.992C164.792 14.768 164.872 14.552 164.984 14.344C165.016 14.28 165.04 14.224 165.056 14.176C165.072 14.128 165.08 14.072 165.08 14.008L165.152 13.6C165.2 13.52 165.248 13.432 165.296 13.336C165.344 13.24 165.392 13.16 165.44 13.096C165.472 13 165.472 12.904 165.44 12.808C165.424 12.712 165.448 12.624 165.512 12.544C165.56 12.464 165.584 12.384 165.584 12.304C165.6 12.224 165.64 12.16 165.704 12.112C165.768 11.984 165.824 11.864 165.872 11.752C165.936 11.624 165.984 11.496 166.016 11.368C166.032 11.352 166.04 11.32 166.04 11.272C166.088 10.936 166.224 10.648 166.448 10.408C166.432 10.344 166.424 10.288 166.424 10.24C166.424 10.176 166.424 10.128 166.424 10.096C166.456 10 166.512 9.912 166.592 9.832C166.672 9.752 166.744 9.68 166.808 9.616C166.888 9.52 166.96 9.424 167.024 9.328C167.088 9.232 167.128 9.128 167.144 9.016C167.208 8.776 167.296 8.552 167.408 8.344C167.52 8.136 167.656 7.936 167.816 7.744C167.912 7.616 167.992 7.48 168.056 7.336C168.136 7.176 168.216 7.016 168.296 6.856C168.36 6.728 168.416 6.592 168.464 6.448C168.528 6.304 168.568 6.16 168.584 6.016C168.712 5.856 168.8 5.736 168.848 5.656C168.896 5.56 168.936 5.456 168.968 5.344C169.016 5.216 169.072 5.024 169.136 4.768C169.168 4.736 169.208 4.712 169.256 4.696C169.32 4.664 169.36 4.616 169.376 4.552C169.376 4.488 169.416 4.44 169.496 4.408C169.624 4.328 169.712 4.216 169.76 4.072C169.808 3.944 169.872 3.832 169.952 3.736C170.048 3.624 170.136 3.52 170.216 3.424C170.296 3.344 170.344 3.264 170.36 3.184C170.44 2.96 170.544 2.76 170.672 2.584C170.816 2.392 170.936 2.2 171.032 2.008C171.112 1.944 171.184 1.912 171.248 1.912C171.312 1.896 171.376 1.888 171.44 1.888H171.512C171.672 1.952 171.84 2 172.016 2.032C172.128 2.048 172.232 2.056 172.328 2.056C172.424 2.056 172.504 2.056 172.568 2.056C172.616 2.056 172.664 2.056 172.712 2.056C172.76 2.056 172.808 2.064 172.856 2.08C173.064 2.144 173.28 2.176 173.504 2.176C173.728 2.176 173.944 2.184 174.152 2.2C174.424 2.392 174.656 2.576 174.848 2.752C175.04 2.928 175.192 3.232 175.304 3.664C175.32 3.68 175.344 3.696 175.376 3.712C175.408 3.728 175.432 3.752 175.448 3.784C175.48 3.8 175.512 3.816 175.544 3.832C175.576 3.848 175.608 3.872 175.64 3.904C175.672 3.968 175.696 4.04 175.712 4.12C175.744 4.184 175.776 4.256 175.808 4.336C175.84 4.4 175.88 4.472 175.928 4.552C175.976 4.616 176.032 4.688 176.096 4.768C176.128 4.928 176.176 5.088 176.24 5.248C176.32 5.408 176.352 5.592 176.336 5.8L176.504 6.04C176.504 6.12 176.504 6.208 176.504 6.304C176.52 6.384 176.528 6.472 176.528 6.568C176.608 6.616 176.648 6.68 176.648 6.76C176.664 6.84 176.68 6.928 176.696 7.024C176.744 7.088 176.792 7.16 176.84 7.24C176.888 7.304 176.936 7.368 176.984 7.432C177.016 7.544 177.048 7.656 177.08 7.768C177.112 7.864 177.136 7.96 177.152 8.056C177.136 8.12 177.12 8.184 177.104 8.248C177.104 8.312 177.096 8.376 177.08 8.44C177.112 8.6 177.168 8.744 177.248 8.872C177.344 8.984 177.432 9.104 177.512 9.232C177.592 9.536 177.664 9.848 177.728 10.168C177.808 10.472 177.864 10.784 177.896 11.104C178.072 11.328 178.176 11.568 178.208 11.824C178.256 12.08 178.312 12.344 178.376 12.616C178.408 12.728 178.424 12.84 178.424 12.952C178.424 13.048 178.432 13.152 178.448 13.264C178.48 13.36 178.552 13.488 178.664 13.648C178.776 13.792 178.864 13.904 178.928 13.984C178.928 14.144 178.936 14.312 178.952 14.488C178.968 14.648 179.008 14.808 179.072 14.968ZM173.288 9.904C173.272 9.792 173.232 9.696 173.168 9.616C173.104 9.52 173.088 9.416 173.12 9.304C173.056 9.192 173.024 9.056 173.024 8.896C173.024 8.736 173.04 8.648 173.072 8.632C173.056 8.6 173.048 8.552 173.048 8.488C172.984 8.408 172.92 8.336 172.856 8.272C172.808 8.208 172.76 8.136 172.712 8.056C172.712 8.072 172.68 8.048 172.616 7.984C172.536 7.968 172.472 7.92 172.424 7.84C172.408 7.792 172.384 7.744 172.352 7.696C172.336 7.648 172.304 7.616 172.256 7.6C172.192 7.6 172.144 7.624 172.112 7.672C172.08 7.704 172.032 7.736 171.968 7.768C171.904 7.784 171.84 7.8 171.776 7.816C171.728 7.832 171.672 7.848 171.608 7.864C171.496 7.96 171.424 8.088 171.392 8.248V8.536C171.328 8.648 171.256 8.744 171.176 8.824C171.112 8.904 171.064 8.992 171.032 9.088C170.984 9.312 170.912 9.512 170.816 9.688C170.816 9.8 170.792 9.904 170.744 10C170.696 10.08 170.656 10.168 170.624 10.264C170.608 10.28 170.6 10.328 170.6 10.408C170.6 10.504 170.656 10.552 170.768 10.552C170.832 10.552 170.896 10.552 170.96 10.552C171.024 10.536 171.088 10.528 171.152 10.528C171.184 10.544 171.224 10.568 171.272 10.6C171.32 10.616 171.36 10.632 171.392 10.648C171.632 10.616 171.856 10.568 172.064 10.504C172.288 10.44 172.504 10.368 172.712 10.288C172.808 10.208 172.912 10.152 173.024 10.12C173.136 10.088 173.224 10.016 173.288 9.904ZM194.648 5.44C194.632 5.632 194.632 5.824 194.648 6.016C194.664 6.192 194.656 6.368 194.624 6.544C194.576 6.752 194.544 6.96 194.528 7.168C194.512 7.376 194.496 7.584 194.48 7.792C194.416 7.904 194.36 8.024 194.312 8.152C194.28 8.264 194.232 8.368 194.168 8.464C194.104 8.56 194.04 8.656 193.976 8.752C193.912 8.832 193.84 8.928 193.76 9.04C193.728 9.072 193.712 9.128 193.712 9.208C193.568 9.4 193.408 9.576 193.232 9.736C193.072 9.88 192.888 10 192.68 10.096C192.568 10.288 192.456 10.44 192.344 10.552C192.312 10.6 192.256 10.64 192.176 10.672C191.968 10.768 191.736 10.84 191.48 10.888C191.16 10.968 190.936 11.136 190.808 11.392V11.824C190.824 11.888 190.872 11.928 190.952 11.944C191.048 11.96 191.128 12.008 191.192 12.088C191.192 12.104 191.208 12.12 191.24 12.136C191.272 12.152 191.288 12.176 191.288 12.208C191.352 12.48 191.512 12.656 191.768 12.736C191.864 12.864 191.952 12.992 192.032 13.12C192.128 13.232 192.216 13.344 192.296 13.456C192.376 13.504 192.448 13.552 192.512 13.6C192.592 13.632 192.672 13.672 192.752 13.72C192.784 13.784 192.824 13.864 192.872 13.96C192.936 14.04 192.992 14.12 193.04 14.2C193.104 14.264 193.168 14.32 193.232 14.368C193.296 14.4 193.336 14.432 193.352 14.464C193.4 14.672 193.392 14.808 193.328 14.872C193.136 15.096 193.008 15.304 192.944 15.496C192.912 15.544 192.88 15.584 192.848 15.616C192.816 15.632 192.784 15.656 192.752 15.688C192.64 15.752 192.52 15.792 192.392 15.808C192.264 15.824 192.16 15.872 192.08 15.952C192 16.016 191.912 16.048 191.816 16.048C191.72 16.064 191.632 16.104 191.552 16.168C191.424 16.264 191.304 16.368 191.192 16.48C191.096 16.608 190.968 16.712 190.808 16.792C190.744 16.776 190.664 16.768 190.568 16.768C190.472 16.768 190.384 16.768 190.304 16.768L189.824 16.432C189.76 16.368 189.728 16.328 189.728 16.312C189.696 16.232 189.664 16.152 189.632 16.072C189.6 16.008 189.568 15.944 189.536 15.88C189.52 15.816 189.48 15.76 189.416 15.712C189.352 15.648 189.304 15.584 189.272 15.52V15.328C189.272 15.2 189.216 15.136 189.104 15.136C189.056 15.12 189.016 15.112 188.984 15.112C188.952 15.112 188.92 15.112 188.888 15.112C188.648 14.936 188.424 14.72 188.216 14.464C188.056 14.304 187.896 14.184 187.736 14.104C187.592 14.008 187.456 13.888 187.328 13.744C187.2 13.6 187.072 13.456 186.944 13.312C186.864 13.216 186.784 13.12 186.704 13.024C186.624 12.912 186.536 12.824 186.44 12.76C186.296 12.744 186.152 12.744 186.008 12.76C185.864 12.776 185.736 12.816 185.624 12.88C185.592 12.88 185.552 12.92 185.504 13C185.488 13.112 185.472 13.224 185.456 13.336C185.44 13.432 185.424 13.536 185.408 13.648C185.472 13.952 185.48 14.264 185.432 14.584C185.384 14.76 185.352 14.936 185.336 15.112C185.336 15.288 185.328 15.464 185.312 15.64C185.312 15.704 185.312 15.776 185.312 15.856C185.312 15.936 185.296 16.008 185.264 16.072C185.232 16.216 185.144 16.312 185 16.36H184.904C184.84 16.344 184.776 16.328 184.712 16.312C184.664 16.312 184.6 16.304 184.52 16.288C184.28 16.352 184.032 16.36 183.776 16.312C183.52 16.264 183.264 16.224 183.008 16.192C182.752 16.16 182.504 16.12 182.264 16.072C182.232 16.072 182.2 16.064 182.168 16.048C182.152 16.048 182.128 16.04 182.096 16.024C182.032 15.96 182 15.904 182 15.856C182 15.712 181.992 15.568 181.976 15.424C181.96 15.264 181.936 15.104 181.904 14.944C181.824 14.656 181.84 14.408 181.952 14.2C181.936 14.056 181.92 13.912 181.904 13.768C181.888 13.624 181.888 13.488 181.904 13.36C181.936 13.296 181.936 13.216 181.904 13.12C181.888 13.024 181.848 12.992 181.784 13.024C181.768 13.04 181.744 13.048 181.712 13.048C181.68 13.032 181.664 13.016 181.664 13C181.648 12.968 181.632 12.936 181.616 12.904C181.6 12.856 181.584 12.824 181.568 12.808C181.568 12.728 181.568 12.64 181.568 12.544C181.568 12.448 181.56 12.36 181.544 12.28C181.544 12.2 181.544 12.12 181.544 12.04C181.544 11.96 181.528 11.888 181.496 11.824C181.448 11.664 181.424 11.496 181.424 11.32C181.424 11.144 181.424 10.976 181.424 10.816C181.408 10.752 181.392 10.704 181.376 10.672C181.36 10.624 181.336 10.576 181.304 10.528C181.336 10.416 181.36 10.312 181.376 10.216C181.408 10.104 181.384 9.992 181.304 9.88C181.336 9.752 181.344 9.624 181.328 9.496C181.312 9.352 181.344 9.208 181.424 9.064C181.456 8.984 181.464 8.904 181.448 8.824C181.432 8.744 181.416 8.648 181.4 8.536C181.432 8.408 181.472 8.288 181.52 8.176C181.568 8.048 181.608 7.904 181.64 7.744C181.624 7.664 181.6 7.528 181.568 7.336C181.536 7.256 181.512 7.184 181.496 7.12C181.48 7.056 181.464 6.992 181.448 6.928C181.432 6.848 181.44 6.776 181.472 6.712C181.52 6.632 181.528 6.552 181.496 6.472C181.48 6.36 181.472 6.288 181.472 6.256C181.488 6.224 181.528 6.16 181.592 6.064C181.576 6.032 181.568 6.008 181.568 5.992C181.568 5.96 181.56 5.936 181.544 5.92C181.4 5.728 181.368 5.488 181.448 5.2C181.48 5.104 181.512 5.008 181.544 4.912C181.592 4.816 181.624 4.728 181.64 4.648C181.624 4.584 181.608 4.52 181.592 4.456C181.592 4.392 181.584 4.328 181.568 4.264L181.736 3.688C181.704 3.576 181.68 3.464 181.664 3.352C181.648 3.24 181.624 3.128 181.592 3.016C181.592 2.872 181.656 2.72 181.784 2.56C181.848 2.48 181.912 2.448 181.976 2.464C182.056 2.48 182.152 2.48 182.264 2.464C182.376 2.432 182.488 2.392 182.6 2.344C182.728 2.296 182.864 2.264 183.008 2.248C183.152 2.232 183.288 2.168 183.416 2.056C183.544 1.976 183.672 1.912 183.8 1.864C183.928 1.8 184.056 1.752 184.184 1.72C184.44 1.768 184.6 1.792 184.664 1.792C184.744 1.776 184.872 1.712 185.048 1.6H185.48C185.56 1.584 185.64 1.568 185.72 1.552C185.8 1.52 185.888 1.496 185.984 1.48C186.016 1.448 186.064 1.408 186.128 1.36C186.208 1.312 186.28 1.272 186.344 1.24C186.44 1.224 186.544 1.208 186.656 1.192C186.768 1.16 186.88 1.136 186.992 1.12C187.04 1.136 187.08 1.16 187.112 1.192C187.16 1.208 187.208 1.232 187.256 1.264C187.352 1.312 187.432 1.368 187.496 1.432C187.56 1.464 187.616 1.48 187.664 1.48C187.824 1.496 187.976 1.512 188.12 1.528C188.264 1.528 188.416 1.52 188.576 1.504C188.624 1.488 188.68 1.48 188.744 1.48C188.824 1.48 188.896 1.48 188.96 1.48C189.04 1.48 189.128 1.488 189.224 1.504C189.32 1.504 189.408 1.512 189.488 1.528C189.584 1.528 189.656 1.56 189.704 1.624C189.768 1.688 189.824 1.72 189.872 1.72C190.096 1.784 190.304 1.816 190.496 1.816C190.688 1.816 190.88 1.808 191.072 1.792C191.152 1.824 191.232 1.864 191.312 1.912C191.408 1.944 191.496 1.976 191.576 2.008C191.64 1.976 191.688 1.952 191.72 1.936C191.768 1.904 191.816 1.88 191.864 1.864C191.992 1.832 192.088 1.84 192.152 1.888C192.2 1.92 192.24 1.952 192.272 1.984C192.32 2.016 192.368 2.048 192.416 2.08C192.448 2.128 192.48 2.176 192.512 2.224C192.544 2.272 192.592 2.312 192.656 2.344H192.992C193.056 2.36 193.128 2.424 193.208 2.536C193.304 2.648 193.392 2.76 193.472 2.872C193.568 2.984 193.672 3.104 193.784 3.232C193.896 3.344 193.992 3.472 194.072 3.616C194.152 3.744 194.248 3.872 194.36 4C194.408 4.032 194.44 4.08 194.456 4.144C194.488 4.208 194.512 4.272 194.528 4.336C194.528 4.528 194.528 4.72 194.528 4.912C194.544 5.088 194.584 5.264 194.648 5.44ZM182.84 2.464V2.44H182.792L182.84 2.464ZM191.12 6.76C191.12 6.76 191.112 6.752 191.096 6.736C191.08 6.72 191.072 6.704 191.072 6.688C191.072 6.544 191.048 6.408 191 6.28C190.952 6.136 190.864 6.016 190.736 5.92C190.672 5.888 190.624 5.848 190.592 5.8C190.56 5.736 190.52 5.68 190.472 5.632C190.36 5.488 190.232 5.368 190.088 5.272C190.072 5.24 190.04 5.224 189.992 5.224C189.944 5.208 189.904 5.192 189.872 5.176C189.792 5.224 189.656 5.272 189.464 5.32C189.336 5.24 189.2 5.2 189.056 5.2C188.912 5.2 188.76 5.216 188.6 5.248C188.44 5.248 188.272 5.248 188.096 5.248C187.936 5.232 187.776 5.248 187.616 5.296C187.44 5.28 187.264 5.28 187.088 5.296C186.912 5.312 186.736 5.328 186.56 5.344C186.416 5.344 186.312 5.352 186.248 5.368C186.136 5.432 186.024 5.464 185.912 5.464C185.816 5.448 185.712 5.456 185.6 5.488C185.536 5.552 185.496 5.632 185.48 5.728C185.464 5.824 185.44 5.912 185.408 5.992C185.504 6.36 185.488 6.728 185.36 7.096C185.44 7.208 185.496 7.32 185.528 7.432C185.576 7.528 185.576 7.64 185.528 7.768C185.528 7.784 185.528 7.8 185.528 7.816C185.544 7.832 185.552 7.848 185.552 7.864C185.584 7.96 185.6 8.056 185.6 8.152C185.6 8.248 185.584 8.344 185.552 8.44C185.52 8.456 185.48 8.48 185.432 8.512C185.4 8.528 185.368 8.552 185.336 8.584C185.416 8.664 185.512 8.704 185.624 8.704C185.672 8.672 185.728 8.648 185.792 8.632C185.856 8.6 185.92 8.56 185.984 8.512C186.256 8.592 186.528 8.624 186.8 8.608C187.088 8.592 187.36 8.64 187.616 8.752H187.784C187.848 8.752 187.92 8.744 188 8.728C188.08 8.712 188.152 8.704 188.216 8.704C188.28 8.656 188.368 8.616 188.48 8.584C188.832 8.488 189.144 8.328 189.416 8.104C189.528 8.024 189.64 7.976 189.752 7.96C189.864 7.928 189.976 7.904 190.088 7.888C190.136 7.888 190.184 7.888 190.232 7.888C190.296 7.888 190.36 7.88 190.424 7.864C190.472 7.736 190.552 7.632 190.664 7.552C190.792 7.456 190.896 7.344 190.976 7.216C190.912 7.136 190.912 7.064 190.976 7C191.056 6.936 191.104 6.856 191.12 6.76ZM209.627 4.024C209.611 4.088 209.587 4.152 209.555 4.216C209.539 4.264 209.515 4.312 209.483 4.36C209.403 4.472 209.339 4.584 209.291 4.696C209.243 4.808 209.203 4.92 209.171 5.032C209.075 5.144 208.971 5.224 208.859 5.272C208.747 5.304 208.635 5.344 208.523 5.392C208.395 5.488 208.299 5.608 208.235 5.752C208.187 5.88 208.123 6 208.043 6.112C207.947 6.176 207.851 6.24 207.755 6.304C207.675 6.352 207.595 6.4 207.515 6.448L207.035 6.784C206.987 6.784 206.939 6.792 206.891 6.808C206.859 6.808 206.819 6.808 206.771 6.808C206.659 6.92 206.547 7.048 206.435 7.192C206.339 7.32 206.251 7.448 206.171 7.576C206.123 7.672 206.059 7.76 205.979 7.84C205.899 7.904 205.835 7.976 205.787 8.056C205.771 8.104 205.763 8.176 205.763 8.272C205.603 8.336 205.443 8.4 205.283 8.464C205.139 8.528 205.003 8.6 204.875 8.68C204.779 8.84 204.731 9.008 204.731 9.184C204.747 9.344 204.747 9.512 204.731 9.688C204.715 9.816 204.675 9.92 204.611 10C204.547 10.08 204.523 10.192 204.539 10.336C204.555 10.352 204.563 10.4 204.563 10.48C204.563 10.544 204.587 10.592 204.635 10.624C204.667 10.656 204.683 10.72 204.683 10.816C204.699 10.896 204.707 10.976 204.707 11.056C204.723 11.136 204.747 11.208 204.779 11.272C204.811 11.32 204.811 11.384 204.779 11.464C204.763 11.528 204.755 11.592 204.755 11.656C204.755 11.72 204.755 11.776 204.755 11.824C204.771 12.032 204.779 12.24 204.779 12.448C204.795 12.656 204.787 12.864 204.755 13.072C204.755 13.136 204.763 13.208 204.779 13.288C204.811 13.368 204.835 13.448 204.851 13.528C204.883 13.624 204.891 13.712 204.875 13.792C204.875 13.872 204.875 13.96 204.875 14.056C204.891 14.12 204.899 14.192 204.899 14.272C204.915 14.352 204.931 14.432 204.947 14.512C204.979 14.576 204.995 14.648 204.995 14.728C205.011 14.808 205.019 14.88 205.019 14.944C205.019 15.008 205.027 15.064 205.043 15.112C205.059 15.144 205.075 15.192 205.091 15.256C205.059 15.288 205.019 15.328 204.971 15.376C204.923 15.424 204.883 15.472 204.851 15.52C204.803 15.584 204.763 15.648 204.731 15.712C204.715 15.76 204.691 15.8 204.659 15.832C204.595 15.896 204.523 15.928 204.443 15.928C204.363 15.928 204.283 15.936 204.203 15.952C204.139 15.968 204.075 15.976 204.011 15.976C203.947 15.976 203.891 15.976 203.843 15.976C203.715 16.024 203.627 16.064 203.579 16.096C203.547 16.144 203.499 16.208 203.435 16.288C203.323 16.288 203.243 16.272 203.195 16.24C203.147 16.224 203.083 16.208 203.003 16.192C202.923 16.16 202.843 16.152 202.763 16.168C202.683 16.2 202.603 16.224 202.523 16.24C202.411 16.24 202.299 16.232 202.187 16.216C202.075 16.216 201.971 16.184 201.875 16.12C201.811 16.072 201.747 16.04 201.683 16.024C201.635 16.008 201.579 15.992 201.515 15.976C201.451 15.976 201.395 15.976 201.347 15.976C201.315 15.96 201.267 15.952 201.203 15.952C201.187 15.856 201.163 15.768 201.131 15.688C201.099 15.592 201.083 15.496 201.083 15.4C201.083 15.176 201.059 14.968 201.011 14.776C200.963 14.584 200.907 14.392 200.843 14.2C200.875 14.056 200.883 13.96 200.867 13.912C200.835 13.784 200.835 13.664 200.867 13.552C200.915 13.44 200.907 13.328 200.843 13.216C200.779 12.928 200.747 12.64 200.747 12.352C200.763 12.048 200.771 11.744 200.771 11.44C200.771 11.408 200.779 11.368 200.795 11.32C200.811 11.256 200.827 11.2 200.843 11.152C200.827 10.928 200.803 10.712 200.771 10.504C200.739 10.296 200.683 10.096 200.603 9.904C200.619 9.824 200.627 9.76 200.627 9.712C200.627 9.648 200.635 9.6 200.651 9.568C200.731 9.36 200.755 9.16 200.723 8.968C200.691 8.76 200.635 8.552 200.555 8.344C200.539 8.264 200.515 8.184 200.483 8.104C200.451 8.024 200.411 7.936 200.363 7.84C200.331 7.808 200.299 7.768 200.267 7.72C200.235 7.656 200.187 7.6 200.123 7.552C200.043 7.472 199.947 7.392 199.835 7.312C199.739 7.232 199.651 7.144 199.571 7.048C199.491 6.968 199.403 6.888 199.307 6.808C199.227 6.728 199.147 6.648 199.067 6.568C198.987 6.488 198.899 6.432 198.803 6.4C198.723 6.368 198.643 6.32 198.563 6.256C198.451 6.016 198.339 5.752 198.227 5.464C197.987 5.288 197.747 5.096 197.507 4.888C197.267 4.68 197.067 4.408 196.907 4.072C196.939 3.928 196.987 3.784 197.051 3.64C197.131 3.48 197.219 3.328 197.315 3.184C197.347 3.152 197.379 3.112 197.411 3.064C197.459 3.016 197.491 2.984 197.507 2.968C197.635 2.84 197.747 2.712 197.843 2.584C197.955 2.456 198.059 2.328 198.155 2.2C198.235 2.216 198.307 2.224 198.371 2.224C198.435 2.224 198.499 2.232 198.563 2.248C198.595 2.216 198.619 2.192 198.635 2.176C198.667 2.16 198.691 2.128 198.707 2.08C198.755 2.048 198.795 2 198.827 1.936C198.859 1.872 198.883 1.816 198.899 1.768C198.995 1.64 199.107 1.608 199.235 1.672C199.619 1.832 200.027 2.008 200.459 2.2C200.539 2.28 200.619 2.368 200.699 2.464C200.779 2.544 200.851 2.624 200.915 2.704C201.011 2.816 201.123 2.92 201.251 3.016C201.379 3.112 201.475 3.232 201.539 3.376C201.651 3.456 201.763 3.544 201.875 3.64C202.003 3.72 202.131 3.808 202.259 3.904C202.307 3.984 202.371 4.08 202.451 4.192C202.531 4.304 202.619 4.432 202.715 4.576C202.763 4.608 202.827 4.656 202.907 4.72C202.987 4.784 203.059 4.84 203.123 4.888C203.235 4.936 203.339 4.984 203.435 5.032C203.531 5.08 203.627 5.12 203.723 5.152C203.819 5.184 203.915 5.176 204.011 5.128C204.107 5.064 204.203 5.008 204.299 4.96C204.411 4.896 204.523 4.848 204.635 4.816C204.667 4.816 204.699 4.8 204.731 4.768C204.763 4.736 204.795 4.712 204.827 4.696C204.875 4.632 204.931 4.568 204.995 4.504C205.059 4.44 205.123 4.368 205.187 4.288C205.299 4.08 205.483 3.912 205.739 3.784C205.803 3.736 205.867 3.696 205.931 3.664C205.995 3.632 206.059 3.6 206.123 3.568C206.251 3.392 206.371 3.224 206.483 3.064C206.595 2.888 206.699 2.712 206.795 2.536C206.827 2.488 206.859 2.448 206.891 2.416C206.923 2.368 206.955 2.336 206.987 2.32C207.115 2.256 207.211 2.176 207.275 2.08C207.339 1.984 207.419 1.904 207.515 1.84C207.691 1.792 207.835 1.84 207.947 1.984C207.995 2.048 208.043 2.12 208.091 2.2C208.139 2.264 208.195 2.344 208.259 2.44C208.403 2.504 208.531 2.592 208.643 2.704C208.771 2.816 208.891 2.936 209.003 3.064C209.035 3.112 209.059 3.168 209.075 3.232C209.107 3.28 209.131 3.344 209.147 3.424C209.339 3.536 209.499 3.656 209.627 3.784C209.627 3.816 209.627 3.856 209.627 3.904C209.643 3.936 209.643 3.976 209.627 4.024Z" fill="#404040"/>
</svg>
