<svg width="175" height="22" viewBox="0 0 175 22" fill="none" xmlns="http://www.w3.org/2000/svg">
<path d="M13.68 8.344C13.712 8.456 13.704 8.568 13.656 8.68C13.608 8.792 13.6 8.912 13.632 9.04C13.632 9.104 13.616 9.168 13.584 9.232C13.584 9.264 13.576 9.296 13.56 9.328C13.544 9.344 13.536 9.36 13.536 9.376C13.552 9.632 13.552 9.808 13.536 9.904C13.536 9.984 13.496 10.152 13.416 10.408C13.432 10.472 13.44 10.552 13.44 10.648C13.456 10.728 13.472 10.816 13.488 10.912C13.472 11.024 13.432 11.168 13.368 11.344C13.32 11.312 13.272 11.288 13.224 11.272C13.192 11.256 13.16 11.24 13.128 11.224C13.032 11.192 12.984 11.232 12.984 11.344C12.984 11.456 13 11.56 13.032 11.656C13.08 11.736 13.136 11.816 13.2 11.896C13.168 12.024 13.136 12.16 13.104 12.304C13.088 12.448 13.064 12.6 13.032 12.76C12.952 12.904 12.864 13.056 12.768 13.216C12.672 13.36 12.544 13.472 12.384 13.552C12.368 13.632 12.352 13.704 12.336 13.768C12.32 13.816 12.296 13.88 12.264 13.96C12.12 14.072 11.976 14.192 11.832 14.32C11.688 14.432 11.568 14.552 11.472 14.68C11.392 14.744 11.32 14.768 11.256 14.752C11.192 14.736 11.128 14.736 11.064 14.752C10.952 14.832 10.84 14.912 10.728 14.992C10.632 15.072 10.528 15.152 10.416 15.232C10.304 15.296 10.2 15.368 10.104 15.448C10.008 15.528 9.904 15.608 9.792 15.688H9.432C9.352 15.752 9.28 15.808 9.216 15.856C9.152 15.888 9.08 15.928 9 15.976C8.952 15.976 8.912 15.984 8.88 16C8.864 16 8.84 15.992 8.808 15.976C8.648 15.96 8.536 15.968 8.472 16C8.408 16.016 8.28 16.064 8.088 16.144C7.944 16.192 7.8 16.24 7.656 16.288C7.512 16.352 7.368 16.416 7.224 16.48C7.048 16.4 6.864 16.36 6.672 16.36C6.496 16.36 6.312 16.36 6.12 16.36C6.024 16.296 5.928 16.24 5.832 16.192C5.768 16.16 5.712 16.136 5.664 16.12C5.632 16.104 5.584 16.088 5.52 16.072C5.488 16.072 5.44 16.072 5.376 16.072C5.328 16.072 5.272 16.088 5.208 16.12C5.176 16.136 5.136 16.16 5.088 16.192C5.04 16.224 5 16.264 4.968 16.312C4.664 16.264 4.352 16.216 4.032 16.168C3.712 16.136 3.392 16.088 3.072 16.024C2.944 15.992 2.816 15.96 2.688 15.928C2.576 15.88 2.456 15.84 2.328 15.808C2.232 15.824 2.136 15.84 2.04 15.856C1.944 15.872 1.84 15.896 1.728 15.928C1.472 15.96 1.288 15.848 1.176 15.592C1.176 15.56 1.168 15.528 1.152 15.496C1.152 15.464 1.152 15.44 1.152 15.424C1.184 15.248 1.216 15.08 1.248 14.92C1.28 14.76 1.304 14.608 1.32 14.464C1.32 14.432 1.352 14.384 1.416 14.32V14.224C1.352 14.176 1.288 14.128 1.224 14.08C1.176 14.032 1.128 13.984 1.08 13.936L1.056 11.776V11.752H1.224C1.208 11.72 1.184 11.696 1.152 11.68C1.12 11.648 1.088 11.624 1.056 11.608C1.056 11.608 1.08 11.536 1.128 11.392C1.176 11.248 1.208 11.144 1.224 11.08C1.256 10.984 1.248 10.904 1.2 10.84C1.168 10.776 1.144 10.712 1.128 10.648C1.16 10.584 1.192 10.528 1.224 10.48C1.256 10.416 1.28 10.352 1.296 10.288C1.28 10.208 1.256 10.136 1.224 10.072C1.192 10.008 1.16 9.944 1.128 9.88C1.112 9.8 1.112 9.72 1.128 9.64C1.16 9.544 1.176 9.464 1.176 9.4C1.208 9.32 1.216 9.24 1.2 9.16C1.184 9.08 1.176 8.984 1.176 8.872C1.128 8.696 1.056 8.504 0.96 8.296C1.008 8.2 1.048 8.104 1.08 8.008C1.112 7.912 1.144 7.816 1.176 7.72L1.104 7.384C1.136 7.256 1.168 7.128 1.2 7C1.248 6.856 1.28 6.728 1.296 6.616C1.232 6.376 1.2 6.144 1.2 5.92C1.216 5.68 1.224 5.44 1.224 5.2C1.224 5.072 1.264 4.928 1.344 4.768C1.376 4.736 1.392 4.704 1.392 4.672C1.408 4.624 1.424 4.592 1.44 4.576C1.36 4.416 1.312 4.296 1.296 4.216C1.296 4.12 1.312 4.024 1.344 3.928C1.376 3.816 1.352 3.72 1.272 3.64C1.224 3.464 1.208 3.304 1.224 3.16C1.24 3 1.264 2.84 1.296 2.68C1.376 2.6 1.44 2.52 1.488 2.44C1.552 2.344 1.616 2.248 1.68 2.152C1.76 2.136 1.84 2.12 1.92 2.104C2.016 2.072 2.096 2.064 2.16 2.08C2.416 2.128 2.688 2.088 2.976 1.96C3.056 1.912 3.136 1.896 3.216 1.912C3.312 1.928 3.408 1.952 3.504 1.984C3.808 1.936 4.112 1.888 4.416 1.84C4.72 1.792 5.016 1.728 5.304 1.648C5.384 1.616 5.464 1.608 5.544 1.624C5.624 1.64 5.72 1.648 5.832 1.648L6.264 1.456C6.344 1.472 6.424 1.496 6.504 1.528C6.584 1.544 6.664 1.568 6.744 1.6C6.84 1.584 6.936 1.56 7.032 1.528C7.128 1.496 7.232 1.472 7.344 1.456C7.408 1.488 7.472 1.528 7.536 1.576C7.6 1.624 7.664 1.664 7.728 1.696C7.904 1.68 8.064 1.648 8.208 1.6C8.368 1.552 8.528 1.52 8.688 1.504C8.752 1.568 8.8 1.64 8.832 1.72C8.864 1.784 8.912 1.84 8.976 1.888C9.04 1.968 9.128 2.008 9.24 2.008C9.368 1.992 9.456 1.936 9.504 1.84C9.536 1.76 9.584 1.728 9.648 1.744C9.728 1.76 9.808 1.832 9.888 1.96C9.984 1.96 10.08 1.952 10.176 1.936C10.272 1.92 10.376 1.912 10.488 1.912C10.568 1.96 10.632 2.008 10.68 2.056C10.744 2.088 10.808 2.136 10.872 2.2C10.936 2.264 11 2.328 11.064 2.392C11.128 2.44 11.2 2.488 11.28 2.536C11.376 2.584 11.44 2.656 11.472 2.752C11.536 2.848 11.608 2.944 11.688 3.04C11.784 3.12 11.872 3.2 11.952 3.28C12.08 3.424 12.272 3.536 12.528 3.616C12.56 3.632 12.592 3.648 12.624 3.664C12.672 3.68 12.704 3.696 12.72 3.712C12.752 3.84 12.784 3.968 12.816 4.096C12.864 4.208 12.896 4.328 12.912 4.456C12.896 4.6 12.872 4.72 12.84 4.816C12.872 4.96 12.936 5.08 13.032 5.176C13.128 5.256 13.216 5.344 13.296 5.44C13.52 5.792 13.632 6.2 13.632 6.664C13.632 6.824 13.64 6.984 13.656 7.144C13.672 7.288 13.664 7.432 13.632 7.576C13.616 7.704 13.624 7.832 13.656 7.96C13.704 8.088 13.712 8.216 13.68 8.344ZM10.128 7.888C10.096 7.808 10.048 7.728 9.984 7.648C9.936 7.552 9.896 7.456 9.864 7.36C9.816 7.264 9.776 7.168 9.744 7.072C9.712 6.96 9.68 6.848 9.648 6.736C9.392 6.704 9.168 6.624 8.976 6.496C8.8 6.368 8.624 6.24 8.448 6.112H8.088C7.928 5.984 7.776 5.872 7.632 5.776C7.488 5.664 7.336 5.552 7.176 5.44C6.904 5.408 6.632 5.408 6.36 5.44C6.104 5.456 5.864 5.44 5.64 5.392C5.496 5.44 5.368 5.48 5.256 5.512C5.16 5.528 5.064 5.552 4.968 5.584C4.872 5.648 4.808 5.696 4.776 5.728C4.728 5.968 4.712 6.208 4.728 6.448C4.744 6.688 4.76 6.928 4.776 7.168C4.84 7.264 4.848 7.36 4.8 7.456C4.768 7.536 4.76 7.616 4.776 7.696C4.792 7.744 4.8 7.792 4.8 7.84C4.816 7.888 4.832 7.952 4.848 8.032C4.816 8.128 4.792 8.232 4.776 8.344C4.776 8.44 4.768 8.552 4.752 8.68C4.752 8.936 4.728 9.176 4.68 9.4C4.728 9.48 4.768 9.56 4.8 9.64C4.832 9.704 4.864 9.776 4.896 9.856C4.848 10 4.792 10.152 4.728 10.312C4.68 10.456 4.64 10.592 4.608 10.72C4.608 10.8 4.608 10.88 4.608 10.96C4.624 11.04 4.624 11.12 4.608 11.2C4.592 11.392 4.544 11.584 4.464 11.776L4.56 11.944C4.656 12.184 4.848 12.272 5.136 12.208C5.312 12.208 5.456 12.184 5.568 12.136C5.68 12.104 5.784 12.104 5.88 12.136C5.992 12.152 6.104 12.152 6.216 12.136C6.344 12.104 6.48 12.064 6.624 12.016C6.784 11.952 6.928 11.896 7.056 11.848C7.136 11.832 7.208 11.816 7.272 11.8C7.336 11.784 7.4 11.784 7.464 11.8C7.608 11.816 7.76 11.816 7.92 11.8C8.08 11.784 8.24 11.768 8.4 11.752C8.432 11.72 8.48 11.696 8.544 11.68C8.608 11.648 8.664 11.616 8.712 11.584C8.952 11.472 9.16 11.288 9.336 11.032C9.416 10.92 9.48 10.8 9.528 10.672C9.592 10.528 9.656 10.4 9.72 10.288C9.848 10.016 9.944 9.752 10.008 9.496C10.072 9.224 10.088 8.944 10.056 8.656C10.04 8.592 10.032 8.528 10.032 8.464C10.048 8.4 10.064 8.336 10.08 8.272C10.096 8.208 10.112 8.144 10.128 8.08C10.144 8.016 10.144 7.952 10.128 7.888ZM26.0099 7.168C26.0419 7.264 26.0499 7.36 26.0339 7.456C26.0339 7.552 26.0179 7.64 25.9859 7.72C25.9539 7.832 25.9299 7.952 25.9139 8.08C25.9139 8.192 25.9139 8.312 25.9139 8.44C25.9139 8.6 25.9059 8.76 25.8899 8.92C25.8899 9.064 25.8899 9.216 25.8899 9.376C25.8899 9.488 25.8899 9.608 25.8899 9.736C25.8899 9.864 25.8739 10 25.8419 10.144C25.7779 10.4 25.7059 10.664 25.6259 10.936C25.5459 11.208 25.4819 11.488 25.4339 11.776C25.4179 11.808 25.4019 11.856 25.3859 11.92C25.3859 11.968 25.3699 12.024 25.3379 12.088C25.1939 12.392 25.0499 12.728 24.9059 13.096C24.8419 13.176 24.7699 13.264 24.6899 13.36C24.6259 13.456 24.5539 13.544 24.4739 13.624C24.4099 13.672 24.3379 13.712 24.2579 13.744C24.1939 13.776 24.1299 13.808 24.0659 13.84C24.0339 13.84 24.0099 13.872 23.9939 13.936C24.0259 13.968 24.0499 14.008 24.0659 14.056C24.0979 14.104 24.1219 14.144 24.1379 14.176C24.0099 14.368 23.8179 14.552 23.5619 14.728C23.4979 14.744 23.4179 14.768 23.3219 14.8C23.2419 14.816 23.1539 14.832 23.0579 14.848C22.8979 14.944 22.7139 15.072 22.5059 15.232C22.4899 15.264 22.4659 15.312 22.4339 15.376C22.4019 15.424 22.3699 15.464 22.3379 15.496C22.2259 15.56 22.1139 15.584 22.0019 15.568C21.9059 15.552 21.7939 15.536 21.6659 15.52C21.6179 15.536 21.5699 15.56 21.5219 15.592C21.4899 15.608 21.4499 15.632 21.4019 15.664C21.3699 15.68 21.3299 15.712 21.2819 15.76C21.2499 15.792 21.2179 15.816 21.1859 15.832C20.9939 15.912 20.8019 15.936 20.6099 15.904C20.4179 15.872 20.2259 15.88 20.0339 15.928C19.9539 15.88 19.8659 15.84 19.7699 15.808C19.6899 15.776 19.6099 15.744 19.5299 15.712C19.5299 15.68 19.5299 15.648 19.5299 15.616C19.5459 15.584 19.5619 15.544 19.5779 15.496C19.5459 15.384 19.4739 15.32 19.3619 15.304C19.2499 15.272 19.1379 15.24 19.0259 15.208C18.9299 15.176 18.8259 15.176 18.7139 15.208C18.6019 15.208 18.5459 15.128 18.5459 14.968C18.5139 14.824 18.4579 14.752 18.3779 14.752H18.2819C18.1699 14.8 18.0579 14.808 17.9459 14.776C17.8499 14.728 17.7539 14.664 17.6579 14.584C17.5939 14.52 17.5539 14.432 17.5379 14.32C17.5379 14.208 17.5059 14.096 17.4419 13.984C17.3939 13.904 17.3139 13.84 17.2019 13.792C17.1059 13.728 17.0179 13.664 16.9379 13.6C16.8419 13.36 16.7459 13.136 16.6499 12.928C16.5539 12.704 16.4659 12.488 16.3859 12.28C16.3379 12.184 16.3139 12.104 16.3139 12.04C16.3299 11.96 16.3379 11.864 16.3379 11.752L16.2659 11.632C16.2659 11.632 16.2499 11.6 16.2179 11.536C16.1059 11.216 16.0339 10.896 16.0019 10.576C15.9699 10.256 16.0019 9.928 16.0979 9.592C16.0819 9.544 16.0579 9.496 16.0259 9.448C16.0099 9.4 15.9859 9.36 15.9539 9.328C15.9219 9.248 15.9219 9.168 15.9539 9.088C16.0019 9.008 16.0259 8.936 16.0259 8.872C15.9939 8.648 16.0019 8.464 16.0499 8.32C16.0819 8.24 16.0899 8.16 16.0739 8.08C16.0579 8 16.0579 7.928 16.0739 7.864C16.1219 7.672 16.1539 7.488 16.1699 7.312C16.1859 7.12 16.2019 6.936 16.2179 6.76C16.2339 6.408 16.2819 6.064 16.3619 5.728C16.3939 5.6 16.4419 5.488 16.5059 5.392C16.5699 5.296 16.6339 5.2 16.6979 5.104C16.7299 5.072 16.7699 5.048 16.8179 5.032C16.8659 5.016 16.9139 5 16.9619 4.984C17.0579 4.968 17.1539 4.952 17.2499 4.936C17.3619 4.92 17.4899 4.904 17.6339 4.888C17.7139 4.904 17.8019 4.92 17.8979 4.936C18.0099 4.952 18.1219 4.96 18.2339 4.96C18.3459 4.976 18.4579 4.992 18.5699 5.008C18.6819 5.008 18.8019 5.016 18.9299 5.032C18.9459 5.08 18.9619 5.12 18.9779 5.152C18.9939 5.184 19.0099 5.216 19.0259 5.248C19.0259 5.36 19.0179 5.472 19.0019 5.584C19.0019 5.68 19.0019 5.784 19.0019 5.896C19.0179 5.944 19.0339 5.992 19.0499 6.04C19.0819 6.072 19.1059 6.12 19.1219 6.184C19.1059 6.248 19.0819 6.32 19.0499 6.4C19.0339 6.48 19.0099 6.56 18.9779 6.64C19.0259 6.896 19.0499 7.168 19.0499 7.456C19.0499 7.728 19.0659 8 19.0979 8.272C19.1299 8.448 19.1539 8.624 19.1699 8.8C19.1859 8.96 19.2179 9.128 19.2659 9.304C19.2499 9.416 19.2579 9.528 19.2899 9.64C19.3219 9.752 19.3539 9.864 19.3859 9.976C19.4339 10.088 19.4659 10.2 19.4819 10.312C19.5139 10.424 19.5459 10.544 19.5779 10.672C19.6579 10.928 19.7779 11.16 19.9379 11.368C20.0339 11.464 20.1059 11.528 20.1539 11.56C20.1859 11.576 20.2179 11.584 20.2499 11.584C20.2979 11.584 20.3379 11.592 20.3699 11.608C20.4819 11.608 20.5699 11.576 20.6339 11.512C20.6979 11.448 20.7699 11.408 20.8499 11.392C21.0259 11.312 21.1939 11.248 21.3539 11.2C21.4339 11.216 21.5139 11.224 21.5939 11.224H21.7619L22.1459 10.984C22.2259 10.856 22.2819 10.712 22.3139 10.552C22.3459 10.392 22.4179 10.256 22.5299 10.144C22.6099 10.016 22.6819 9.888 22.7459 9.76C22.8099 9.632 22.8899 9.528 22.9859 9.448C23.0179 9.224 23.0419 9.016 23.0579 8.824C23.0739 8.632 23.1139 8.44 23.1779 8.248C23.1939 8.2 23.1939 8.152 23.1779 8.104C23.1779 8.04 23.1779 7.984 23.1779 7.936C23.1619 7.84 23.1459 7.752 23.1299 7.672C23.1299 7.576 23.1299 7.512 23.1299 7.48C23.1459 7.304 23.1539 7.144 23.1539 7C23.1539 6.856 23.1619 6.72 23.1779 6.592C23.1939 6.464 23.2019 6.336 23.2019 6.208C23.2019 6.064 23.2099 5.936 23.2259 5.824C23.2579 5.568 23.3699 5.392 23.5619 5.296C23.6259 5.264 23.6819 5.24 23.7299 5.224C23.7779 5.192 23.8339 5.168 23.8979 5.152C23.9619 5.136 24.0259 5.128 24.0899 5.128C24.1539 5.128 24.2339 5.12 24.3299 5.104C24.4099 5.12 24.4899 5.144 24.5699 5.176C24.6659 5.208 24.7619 5.24 24.8579 5.272C24.9539 5.288 25.0419 5.288 25.1219 5.272C25.2179 5.256 25.3139 5.232 25.4099 5.2C25.4739 5.216 25.5299 5.232 25.5779 5.248C25.6259 5.264 25.6819 5.288 25.7459 5.32C25.7619 5.336 25.7779 5.36 25.7939 5.392C25.8099 5.408 25.8179 5.432 25.8179 5.464C25.8339 5.544 25.8499 5.632 25.8659 5.728C25.8819 5.824 25.8899 5.92 25.8899 6.016C25.9059 6.208 25.9139 6.4 25.9139 6.592C25.9299 6.784 25.9619 6.976 26.0099 7.168ZM36.8165 5.872C36.8485 6.128 36.8085 6.312 36.6965 6.424C36.6165 6.52 36.5605 6.624 36.5285 6.736C36.5125 6.848 36.4965 6.968 36.4805 7.096C36.4485 7.144 36.4165 7.192 36.3845 7.24C36.3685 7.288 36.3445 7.336 36.3125 7.384C36.2485 7.448 36.1845 7.52 36.1205 7.6C36.0725 7.68 36.0245 7.76 35.9765 7.84C35.9445 7.904 35.9205 7.976 35.9045 8.056C35.8885 8.136 35.8645 8.216 35.8325 8.296C35.8165 8.312 35.8005 8.336 35.7845 8.368C35.7845 8.384 35.7765 8.4 35.7605 8.416C35.7445 8.432 35.7205 8.44 35.6885 8.44C35.6725 8.44 35.6565 8.448 35.6405 8.464H35.5205C35.1685 8.32 34.8245 8.312 34.4885 8.44C34.4245 8.456 34.3685 8.464 34.3205 8.464C34.2725 8.464 34.2165 8.464 34.1525 8.464C34.1045 8.48 34.0565 8.488 34.0085 8.488C33.9765 8.488 33.9445 8.496 33.9125 8.512C33.7205 8.592 33.5525 8.696 33.4085 8.824C33.2645 8.952 33.1285 9.088 33.0005 9.232C32.9365 9.424 32.8645 9.624 32.7845 9.832C32.7205 10.024 32.6885 10.24 32.6885 10.48C32.6885 10.496 32.6805 10.528 32.6645 10.576C32.6485 10.608 32.6325 10.64 32.6165 10.672C32.6005 10.736 32.5765 10.792 32.5445 10.84C32.5285 10.872 32.5045 10.92 32.4725 10.984C32.4405 11.08 32.4005 11.176 32.3525 11.272C32.3045 11.368 32.2645 11.464 32.2325 11.56C32.2645 11.672 32.2565 11.776 32.2085 11.872C32.1765 11.968 32.1605 12.064 32.1605 12.16C32.1925 12.304 32.1925 12.44 32.1605 12.568C32.1445 12.68 32.1205 12.8 32.0885 12.928C32.0405 13.072 32.0165 13.224 32.0165 13.384C32.0325 13.528 32.0405 13.672 32.0405 13.816C32.0245 13.992 32.0165 14.176 32.0165 14.368C32.0325 14.56 32.0405 14.744 32.0405 14.92C32.0405 15.032 32.0325 15.152 32.0165 15.28C32.0005 15.408 31.9925 15.536 31.9925 15.664C31.9445 15.76 31.9045 15.824 31.8725 15.856C31.7605 16.032 31.6245 16.152 31.4645 16.216C31.3045 16.296 31.1285 16.328 30.9365 16.312C30.8085 16.296 30.6725 16.28 30.5285 16.264C30.4005 16.248 30.2725 16.232 30.1445 16.216C30.0805 16.2 30.0005 16.176 29.9045 16.144C29.8085 16.128 29.7205 16.104 29.6405 16.072C29.5765 16.088 29.5205 16.096 29.4725 16.096C29.4405 16.112 29.4005 16.128 29.3525 16.144C29.1445 16.08 28.9525 15.96 28.7765 15.784C28.7925 15.672 28.8005 15.56 28.8005 15.448C28.8005 15.336 28.8085 15.224 28.8245 15.112C28.8085 15.064 28.7925 15.008 28.7765 14.944C28.7765 14.864 28.7605 14.792 28.7285 14.728C28.7125 14.632 28.6885 14.536 28.6565 14.44C28.6245 14.344 28.6165 14.24 28.6325 14.128C28.6165 13.888 28.5685 13.608 28.4885 13.288C28.5205 13.256 28.5445 13.216 28.5605 13.168C28.5925 13.104 28.6165 13.048 28.6325 13C28.6485 12.952 28.6565 12.912 28.6565 12.88C28.6725 12.832 28.6805 12.784 28.6805 12.736C28.6805 12.704 28.6885 12.68 28.7045 12.664C28.7205 12.632 28.7125 12.6 28.6805 12.568C28.6645 12.52 28.6485 12.472 28.6325 12.424C28.6325 12.36 28.6245 12.304 28.6085 12.256C28.5925 12.096 28.5925 11.936 28.6085 11.776C28.6245 11.712 28.6325 11.656 28.6325 11.608C28.6485 11.544 28.6645 11.48 28.6805 11.416C28.7125 11.336 28.7205 11.248 28.7045 11.152C28.7045 11.056 28.6645 10.976 28.5845 10.912C28.5685 10.896 28.5525 10.88 28.5365 10.864C28.5365 10.832 28.5205 10.808 28.4885 10.792C28.4725 10.712 28.4565 10.624 28.4405 10.528C28.4405 10.432 28.4245 10.344 28.3925 10.264C28.3765 10.152 28.3525 10.048 28.3205 9.952C28.3045 9.856 28.2965 9.752 28.2965 9.64C28.3285 9.448 28.3365 9.264 28.3205 9.088C28.3045 8.896 28.3205 8.704 28.3685 8.512C28.3685 8.48 28.3605 8.44 28.3445 8.392C28.3445 8.344 28.3445 8.304 28.3445 8.272C28.3285 8.096 28.3125 7.92 28.2965 7.744C28.2965 7.568 28.3285 7.392 28.3925 7.216C28.4245 7.152 28.4405 7.08 28.4405 7C28.4405 6.92 28.4405 6.84 28.4405 6.76C28.4405 6.616 28.4405 6.48 28.4405 6.352C28.4565 6.208 28.4965 6.072 28.5605 5.944C28.5605 5.896 28.5365 5.816 28.4885 5.704C28.5205 5.624 28.5445 5.544 28.5605 5.464C28.5925 5.368 28.6165 5.28 28.6325 5.2C28.6645 5.12 28.6885 5.048 28.7045 4.984C28.7205 4.904 28.7365 4.832 28.7525 4.768C28.8485 4.672 28.9365 4.632 29.0165 4.648C29.1765 4.696 29.3365 4.704 29.4965 4.672C29.6725 4.624 29.8405 4.608 30.0005 4.624C30.0485 4.624 30.0965 4.616 30.1445 4.6C30.1925 4.568 30.2405 4.544 30.2885 4.528C30.5605 4.448 30.7845 4.456 30.9605 4.552C31.0725 4.744 31.1365 4.888 31.1525 4.984C31.1685 5.08 31.1845 5.312 31.2005 5.68C31.2485 5.856 31.3365 6.024 31.4645 6.184C31.4965 6.216 31.5445 6.24 31.6085 6.256C31.6885 6.256 31.7445 6.24 31.7765 6.208C31.8405 6.16 31.8965 6.12 31.9445 6.088C31.9925 6.04 32.0405 5.984 32.0885 5.92C32.1845 5.84 32.2725 5.76 32.3525 5.68C32.4485 5.584 32.5285 5.504 32.5925 5.44C32.7685 5.36 32.9365 5.28 33.0965 5.2C33.2725 5.12 33.4645 5.04 33.6725 4.96H34.2245L34.2725 4.936C34.2885 4.936 34.2965 4.936 34.2965 4.936C34.3125 4.92 34.3285 4.92 34.3445 4.936L34.4165 4.912C34.6085 5.008 34.7765 5.032 34.9205 4.984C35.1765 4.904 35.4245 4.936 35.6645 5.08C35.8085 5.144 35.9445 5.208 36.0725 5.272C36.2005 5.336 36.3365 5.408 36.4805 5.488C36.5285 5.552 36.5845 5.616 36.6485 5.68C36.7125 5.744 36.7685 5.808 36.8165 5.872ZM43.2231 3.184C43.2711 3.296 43.2871 3.416 43.2711 3.544C43.2551 3.656 43.2311 3.768 43.1991 3.88C43.1831 3.976 43.1511 4.072 43.1031 4.168C43.0551 4.248 43.0151 4.328 42.9831 4.408C42.9191 4.504 42.8471 4.592 42.7671 4.672C42.7031 4.752 42.6391 4.832 42.5751 4.912C42.5271 4.928 42.4871 4.96 42.4551 5.008C42.4231 5.04 42.3831 5.072 42.3351 5.104C42.2231 5.184 42.0471 5.264 41.8071 5.344C41.5671 5.408 41.3751 5.44 41.2311 5.44C41.1511 5.44 41.0871 5.424 41.0391 5.392C40.9431 5.392 40.8471 5.392 40.7511 5.392C40.6551 5.376 40.5671 5.368 40.4871 5.368C40.4391 5.336 40.3831 5.304 40.3191 5.272C40.2711 5.24 40.2311 5.208 40.1991 5.176C40.1191 5.144 40.0311 5.128 39.9351 5.128C39.8551 5.128 39.7751 5.128 39.6951 5.128C39.6311 5.08 39.5511 5.04 39.4551 5.008C39.3751 4.96 39.2951 4.92 39.2151 4.888L39.0711 4.456C39.0871 4.328 39.1031 4.192 39.1191 4.048C39.1351 3.888 39.1191 3.728 39.0711 3.568C39.0231 3.536 39.0231 3.496 39.0711 3.448C39.1191 3.336 39.1191 3.224 39.0711 3.112C39.0231 3 39.0231 2.888 39.0711 2.776C39.0871 2.744 39.0951 2.696 39.0951 2.632C39.0471 2.536 39.0471 2.448 39.0951 2.368C39.1431 2.272 39.1831 2.192 39.2151 2.128C39.1991 2.08 39.1911 2.032 39.1911 1.984C39.1911 1.92 39.1911 1.872 39.1911 1.84C39.2071 1.824 39.2151 1.808 39.2151 1.792C39.2311 1.76 39.2551 1.736 39.2871 1.72C39.4151 1.688 39.5191 1.632 39.5991 1.552C39.6951 1.456 39.7991 1.384 39.9111 1.336C40.0231 1.24 40.1431 1.16 40.2711 1.096C40.4151 1.032 40.5511 0.968 40.6791 0.904C40.8071 0.904 40.9191 0.904 41.0151 0.904C41.1111 0.904 41.2071 0.92 41.3031 0.951999C41.3511 0.967999 41.4071 0.975999 41.4711 0.975999C41.5351 0.975999 41.5991 0.975999 41.6631 0.975999C41.8871 0.943999 42.0631 1.032 42.1911 1.24C42.2231 1.32 42.2791 1.368 42.3591 1.384C42.4391 1.4 42.5111 1.424 42.5751 1.456C42.7351 1.6 42.8391 1.784 42.8871 2.008C42.9191 2.104 42.9511 2.2 42.9831 2.296C43.0311 2.392 43.0631 2.488 43.0791 2.584C43.1111 2.68 43.1351 2.784 43.1511 2.896C43.1831 2.992 43.2071 3.088 43.2231 3.184ZM43.0791 8.704C43.0471 8.8 43.0311 8.912 43.0311 9.04C43.0311 9.152 43.0311 9.272 43.0311 9.4C43.0471 9.512 43.0471 9.632 43.0311 9.76C43.0151 9.872 43.0071 9.984 43.0071 10.096L42.8391 10.336C42.9191 10.416 42.9671 10.504 42.9831 10.6C42.9991 10.696 43.0071 10.8 43.0071 10.912C43.0071 11.024 43.0071 11.144 43.0071 11.272C43.0071 11.384 42.9991 11.504 42.9831 11.632C42.9671 11.744 42.9351 11.864 42.8871 11.992C42.8391 12.12 42.7991 12.256 42.7671 12.4C42.7671 12.56 42.7591 12.752 42.7431 12.976C42.7431 13.184 42.7511 13.392 42.7671 13.6C42.7831 13.904 42.7671 14.216 42.7191 14.536C42.6711 14.84 42.5751 15.128 42.4311 15.4C42.4311 15.528 42.4471 15.656 42.4791 15.784C42.5111 15.896 42.5431 16.016 42.5751 16.144C42.5751 16.16 42.5671 16.176 42.5511 16.192C42.5351 16.224 42.5271 16.256 42.5271 16.288C42.4471 16.4 42.3511 16.496 42.2391 16.576C42.2231 16.576 42.2071 16.584 42.1911 16.6H42.0951C41.9191 16.6 41.7351 16.608 41.5431 16.624C41.3671 16.656 41.1671 16.648 40.9431 16.6C40.8791 16.568 40.8071 16.528 40.7271 16.48C40.6631 16.432 40.5911 16.392 40.5111 16.36C40.4471 16.36 40.3671 16.352 40.2711 16.336C40.1911 16.336 40.1111 16.328 40.0311 16.312C39.9031 16.168 39.7751 16.016 39.6471 15.856C39.5991 15.824 39.5431 15.8 39.4791 15.784C39.4151 15.768 39.3511 15.744 39.2871 15.712C39.1751 15.632 39.1351 15.504 39.1671 15.328C39.1991 15.152 39.2391 15 39.2871 14.872C39.3351 14.664 39.3271 14.464 39.2631 14.272L39.1671 13.936C39.1671 13.808 39.1591 13.688 39.1431 13.576C39.1271 13.464 39.1271 13.352 39.1431 13.24C39.1591 13.08 39.1591 12.928 39.1431 12.784C39.1431 12.64 39.1431 12.488 39.1431 12.328C39.1591 12.104 39.1671 11.888 39.1671 11.68C39.1671 11.456 39.1671 11.24 39.1671 11.032C39.1671 10.952 39.1751 10.904 39.1911 10.888C39.2711 10.76 39.3111 10.64 39.3111 10.528C39.3111 10.4 39.3111 10.272 39.3111 10.144C39.2951 10.016 39.2951 9.888 39.3111 9.76C39.3431 9.616 39.3431 9.488 39.3111 9.376C39.3111 9.232 39.3111 9.096 39.3111 8.968C39.3111 8.824 39.3191 8.68 39.3351 8.536C39.3511 8.456 39.3591 8.376 39.3591 8.296C39.3751 8.2 39.3671 8.096 39.3351 7.984C39.4791 7.92 39.5991 7.872 39.6951 7.84C39.8071 7.808 39.9111 7.792 40.0071 7.792C40.0711 7.792 40.1351 7.792 40.1991 7.792C40.2791 7.792 40.3511 7.784 40.4151 7.768C40.5751 7.736 40.7111 7.704 40.8231 7.672C40.9031 7.688 40.9671 7.72 41.0151 7.768C41.0791 7.8 41.1431 7.832 41.2071 7.864C41.3191 7.864 41.4311 7.84 41.5431 7.792C41.6551 7.776 41.7511 7.784 41.8311 7.816C41.9271 7.848 41.9991 7.928 42.0471 8.056C42.0631 8.072 42.0711 8.088 42.0711 8.104C42.0871 8.12 42.1031 8.136 42.1191 8.152L42.2871 8.248C42.3991 8.264 42.4951 8.248 42.5751 8.2C42.6551 8.136 42.7351 8.096 42.8151 8.08C42.9111 8.08 42.9671 8.12 42.9831 8.2C43.0311 8.312 43.0631 8.48 43.0791 8.704ZM55.0594 12.472C55.0594 12.6 55.0594 12.736 55.0594 12.88C55.0754 13.008 55.0674 13.136 55.0354 13.264C55.0034 13.344 54.9954 13.416 55.0114 13.48C55.0434 13.56 55.0434 13.648 55.0114 13.744C54.9954 13.824 54.9954 13.904 55.0114 13.984C55.0434 14.096 55.0514 14.224 55.0354 14.368C55.0194 14.496 55.0194 14.624 55.0354 14.752C54.9714 14.864 54.8674 14.92 54.7234 14.92C54.5634 14.92 54.3874 14.928 54.1954 14.944C54.0194 14.96 53.8434 15 53.6674 15.064C53.5714 15.096 53.4674 15.112 53.3554 15.112C53.2434 15.112 53.1314 15.112 53.0194 15.112C52.9234 15.048 52.8514 14.992 52.8034 14.944C52.6114 15.008 52.4514 14.936 52.3234 14.728C52.2594 14.632 52.2034 14.528 52.1554 14.416C52.1234 14.304 52.1074 14.184 52.1074 14.056C52.1234 13.928 52.1234 13.8 52.1074 13.672C52.0914 13.544 52.0914 13.408 52.1074 13.264C52.1394 13.024 52.1074 12.792 52.0114 12.568C51.9954 12.52 51.9794 12.472 51.9634 12.424C51.9474 12.376 51.9394 12.328 51.9394 12.28C51.9394 12.104 51.9314 11.928 51.9154 11.752C51.8994 11.56 51.8674 11.384 51.8194 11.224C51.8034 11.144 51.7874 11.072 51.7714 11.008C51.7714 10.928 51.7714 10.856 51.7714 10.792C51.7234 10.6 51.6194 10.448 51.4594 10.336C51.4434 10.208 51.4274 10.096 51.4114 10C51.3954 9.888 51.3714 9.768 51.3394 9.64C51.3074 9.608 51.2434 9.56 51.1474 9.496C51.0834 9.448 51.0034 9.408 50.9074 9.376C50.8274 9.344 50.7474 9.304 50.6674 9.256C50.6354 9.224 50.5954 9.184 50.5474 9.136C50.5154 9.072 50.4754 9.016 50.4274 8.968H50.2834C50.2194 8.984 50.1634 9 50.1154 9.016C50.0674 9.016 50.0034 9.008 49.9234 8.992C49.8914 8.976 49.8514 8.976 49.8034 8.992C49.7554 8.992 49.7154 8.992 49.6834 8.992C49.6034 9.104 49.5234 9.224 49.4434 9.352C49.3794 9.4 49.3154 9.448 49.2514 9.496C49.2034 9.528 49.1634 9.56 49.1314 9.592C49.0834 9.64 49.0594 9.688 49.0594 9.736L48.8914 10.24C48.9234 10.336 48.9234 10.432 48.8914 10.528C48.8594 10.608 48.8674 10.696 48.9154 10.792C48.9314 10.84 48.9314 10.888 48.9154 10.936C48.8994 10.984 48.8834 11.024 48.8674 11.056C48.8194 11.12 48.8114 11.168 48.8434 11.2C48.8754 11.232 48.8994 11.272 48.9154 11.32C48.9314 11.336 48.9474 11.368 48.9634 11.416C48.9634 11.608 48.9634 11.792 48.9634 11.968C48.9634 12.144 48.9314 12.32 48.8674 12.496C48.8834 12.56 48.8914 12.624 48.8914 12.688C48.9074 12.736 48.9234 12.8 48.9394 12.88C48.9234 12.976 48.8994 13.088 48.8674 13.216C48.8514 13.328 48.8514 13.448 48.8674 13.576C48.8834 13.656 48.8834 13.744 48.8674 13.84C48.8674 13.936 48.8514 14.032 48.8194 14.128C48.8034 14.176 48.8034 14.224 48.8194 14.272C48.8674 14.464 48.8674 14.632 48.8194 14.776C48.7714 14.92 48.6834 15.072 48.5554 15.232C48.5394 15.248 48.5074 15.264 48.4594 15.28C48.4114 15.296 48.3714 15.312 48.3394 15.328C48.3074 15.36 48.2754 15.384 48.2434 15.4C48.2114 15.4 48.1794 15.408 48.1474 15.424C48.0834 15.424 48.0194 15.424 47.9554 15.424C47.8914 15.408 47.8354 15.4 47.7874 15.4C47.7234 15.416 47.6674 15.44 47.6194 15.472C47.5874 15.488 47.5314 15.52 47.4514 15.568C47.2434 15.536 47.0274 15.496 46.8034 15.448C46.5954 15.4 46.3874 15.416 46.1794 15.496C46.0834 15.48 46.0034 15.44 45.9394 15.376C45.8754 15.312 45.8194 15.24 45.7714 15.16C45.7074 15.064 45.6674 14.96 45.6514 14.848C45.6354 14.72 45.6114 14.6 45.5794 14.488C45.6114 14.216 45.6274 14.032 45.6274 13.936C45.6274 13.824 45.6034 13.584 45.5554 13.216C45.6034 12.96 45.6354 12.704 45.6514 12.448C45.6674 12.176 45.6754 11.912 45.6754 11.656C45.6754 11.32 45.6754 10.976 45.6754 10.624C45.6754 10.272 45.6834 9.92 45.6994 9.568C45.6994 9.472 45.7074 9.376 45.7234 9.28C45.7394 9.184 45.7554 9.096 45.7714 9.016C45.8034 8.84 45.8354 8.672 45.8674 8.512C45.8994 8.352 45.9394 8.2 45.9874 8.056C46.0194 7.944 46.0754 7.848 46.1554 7.768C46.2354 7.688 46.2914 7.592 46.3234 7.48C46.3554 7.256 46.4194 7.064 46.5154 6.904C46.6274 6.728 46.7394 6.56 46.8514 6.4C46.9314 6.176 47.0754 6.088 47.2834 6.136C47.3154 6.136 47.3314 6.128 47.3314 6.112C47.3794 6.064 47.3874 6 47.3554 5.92C47.3394 5.84 47.3634 5.768 47.4274 5.704C47.5714 5.576 47.7394 5.48 47.9314 5.416C48.1234 5.336 48.2994 5.264 48.4594 5.2C48.6034 5.2 48.6994 5.216 48.7474 5.248C48.9554 5.312 49.1554 5.312 49.3474 5.248C49.4914 5.216 49.6194 5.256 49.7314 5.368C49.8914 5.4 50.0434 5.432 50.1874 5.464C50.3314 5.496 50.4834 5.528 50.6434 5.56C50.7074 5.544 50.7714 5.536 50.8354 5.536C50.8994 5.52 50.9634 5.504 51.0274 5.488C51.1874 5.552 51.3154 5.648 51.4114 5.776C51.5234 5.888 51.6354 6.008 51.7474 6.136C51.8274 6.2 51.9154 6.224 52.0114 6.208C52.1074 6.192 52.2114 6.2 52.3234 6.232C52.4034 6.312 52.4834 6.4 52.5634 6.496C52.6594 6.592 52.7554 6.68 52.8514 6.76C52.8674 6.824 52.8834 6.888 52.8994 6.952C52.9314 7 52.9554 7.056 52.9714 7.12C53.0514 7.136 53.1074 7.176 53.1394 7.24C53.1714 7.304 53.1954 7.36 53.2114 7.408C53.3714 7.472 53.5314 7.52 53.6914 7.552C53.7714 7.632 53.8434 7.728 53.9074 7.84C53.9714 7.936 54.0754 7.984 54.2194 7.984C54.2514 8.144 54.2834 8.288 54.3154 8.416C54.3474 8.544 54.3794 8.672 54.4114 8.8C54.4434 9.04 54.4994 9.248 54.5794 9.424C54.6434 9.552 54.6994 9.688 54.7474 9.832C54.7954 9.96 54.8194 10.104 54.8194 10.264C54.8354 10.36 54.8674 10.448 54.9154 10.528C54.9794 10.608 55.0274 10.696 55.0594 10.792C55.0434 10.856 55.0274 10.92 55.0114 10.984C55.0114 11.048 55.0114 11.12 55.0114 11.2C55.0114 11.264 55.0114 11.32 55.0114 11.368C55.0274 11.416 55.0434 11.48 55.0594 11.56C55.0594 11.592 55.0594 11.64 55.0594 11.704C55.0754 11.752 55.0754 11.792 55.0594 11.824C55.0274 11.936 55.0194 12.048 55.0354 12.16C55.0514 12.272 55.0594 12.376 55.0594 12.472ZM68.039 10.312C68.023 10.328 68.015 10.352 68.015 10.384C68.031 10.4 68.031 10.424 68.015 10.456C67.967 10.616 67.951 10.768 67.967 10.912C67.967 11.088 67.919 11.272 67.823 11.464C67.855 11.528 67.879 11.6 67.895 11.68C67.927 11.744 67.951 11.816 67.967 11.896C67.935 12.072 67.895 12.256 67.847 12.448C67.815 12.64 67.855 12.824 67.967 13C67.951 13.096 67.927 13.192 67.895 13.288C67.863 13.384 67.831 13.472 67.799 13.552C67.783 13.632 67.759 13.712 67.727 13.792C67.711 13.872 67.687 13.976 67.655 14.104C67.655 14.072 67.647 14.064 67.631 14.08C67.631 14.096 67.639 14.12 67.655 14.152C67.719 14.408 67.719 14.656 67.655 14.896C67.591 15.136 67.511 15.376 67.415 15.616C67.399 15.632 67.383 15.664 67.367 15.712C67.351 15.744 67.327 15.776 67.295 15.808C67.119 16.112 66.951 16.424 66.791 16.744C66.647 17.064 66.495 17.384 66.335 17.704C66.319 17.768 66.287 17.84 66.239 17.92C66.191 18 66.151 18.08 66.119 18.16C66.055 18.256 65.999 18.328 65.951 18.376C65.839 18.472 65.719 18.568 65.591 18.664C65.463 18.776 65.335 18.88 65.207 18.976C65.047 19.04 64.911 19.128 64.799 19.24C64.687 19.352 64.583 19.488 64.487 19.648C64.375 19.68 64.271 19.728 64.175 19.792C64.079 19.824 63.991 19.888 63.911 19.984C63.879 20.048 63.823 20.08 63.743 20.08C63.663 20.096 63.591 20.136 63.527 20.2C63.479 20.264 63.415 20.312 63.335 20.344C63.191 20.392 63.063 20.472 62.951 20.584C62.807 20.68 62.655 20.752 62.495 20.8C62.415 20.816 62.335 20.848 62.255 20.896C62.175 20.96 62.103 21.008 62.039 21.04C62.007 21.024 61.983 21.016 61.967 21.016C61.951 21.016 61.943 21.016 61.943 21.016L61.223 20.296C61.191 20.008 61.159 19.792 61.127 19.648C61.111 19.52 61.071 19.4 61.007 19.288C60.959 19.192 60.863 19.056 60.719 18.88C60.735 18.848 60.743 18.824 60.743 18.808C60.743 18.792 60.751 18.776 60.767 18.76C60.815 18.728 60.871 18.688 60.935 18.64C60.999 18.592 61.063 18.56 61.127 18.544C61.255 18.464 61.367 18.376 61.463 18.28C61.559 18.2 61.663 18.12 61.775 18.04C61.871 17.96 61.975 17.88 62.087 17.8C62.199 17.736 62.311 17.672 62.423 17.608C62.535 17.528 62.639 17.44 62.735 17.344C62.847 17.264 62.943 17.168 63.023 17.056C63.071 16.992 63.119 16.936 63.167 16.888C63.215 16.84 63.263 16.792 63.311 16.744C63.327 16.68 63.335 16.616 63.335 16.552C63.335 16.504 63.343 16.456 63.359 16.408C63.423 16.248 63.415 16.064 63.335 15.856V15.808L63.503 15.568C63.503 15.584 63.511 15.544 63.527 15.448C63.559 15.352 63.575 15.304 63.575 15.304C63.575 15.16 63.567 15.048 63.551 14.968C63.551 14.872 63.551 14.76 63.551 14.632C63.487 14.552 63.439 14.512 63.407 14.512C63.391 14.496 63.367 14.504 63.335 14.536C63.271 14.6 63.191 14.648 63.095 14.68C62.999 14.712 62.903 14.744 62.807 14.776C62.791 14.776 62.759 14.792 62.711 14.824C62.663 14.856 62.623 14.864 62.591 14.848L62.279 15.064C62.263 15.064 62.247 15.072 62.231 15.088C62.231 15.088 62.223 15.088 62.207 15.088H61.607C61.559 15.024 61.503 14.968 61.439 14.92C61.375 14.872 61.319 14.816 61.271 14.752C61.159 14.72 61.071 14.72 61.007 14.752C60.959 14.768 60.895 14.776 60.815 14.776L60.407 14.704H60.071C59.959 14.624 59.855 14.552 59.759 14.488C59.663 14.408 59.559 14.336 59.447 14.272C59.175 14.288 58.999 14.296 58.919 14.296C58.839 14.28 58.703 14.216 58.511 14.104C58.479 14.056 58.455 14.008 58.439 13.96C58.423 13.912 58.399 13.864 58.367 13.816C58.319 13.72 58.279 13.624 58.247 13.528C58.231 13.416 58.199 13.32 58.151 13.24C58.087 13.176 58.055 13.088 58.055 12.976C58.071 12.848 58.055 12.736 58.007 12.64C57.959 12.528 57.919 12.416 57.887 12.304C57.871 12.192 57.831 12.088 57.767 11.992C57.703 11.896 57.655 11.8 57.623 11.704C57.639 11.528 57.591 11.368 57.479 11.224C57.447 11 57.399 10.792 57.335 10.6C57.415 10.312 57.455 10.072 57.455 9.88C57.455 9.752 57.463 9.64 57.479 9.544C57.511 9.432 57.535 9.32 57.551 9.208C57.535 9.176 57.519 9.144 57.503 9.112C57.487 9.064 57.463 9.032 57.431 9.016H57.455L57.599 8.872C57.647 8.84 57.687 8.76 57.719 8.632C57.703 8.568 57.687 8.512 57.671 8.464C57.655 8.4 57.639 8.336 57.623 8.272C57.623 8.192 57.631 8.144 57.647 8.128C57.807 8 57.903 7.904 57.935 7.84C57.967 7.776 58.015 7.64 58.079 7.432C58.095 7.416 58.119 7.4 58.151 7.384C58.199 7.368 58.231 7.352 58.247 7.336C58.247 7.336 58.295 7.304 58.391 7.24C58.423 7.16 58.455 7.08 58.487 7C58.535 6.904 58.575 6.8 58.607 6.688C58.735 6.56 58.871 6.44 59.015 6.328C59.175 6.216 59.335 6.112 59.495 6.016C59.703 5.888 59.839 5.8 59.903 5.752C59.967 5.688 60.087 5.568 60.263 5.392C60.375 5.344 60.487 5.296 60.599 5.248C60.727 5.184 60.847 5.104 60.959 5.008C61.039 4.96 61.119 4.912 61.199 4.864C61.279 4.816 61.351 4.776 61.415 4.744C61.495 4.76 61.559 4.768 61.607 4.768C61.671 4.768 61.727 4.768 61.775 4.768C61.871 4.752 61.943 4.712 61.991 4.648C62.039 4.568 62.095 4.504 62.159 4.456C62.319 4.408 62.495 4.4 62.687 4.432C62.767 4.432 62.847 4.44 62.927 4.456C63.023 4.456 63.111 4.456 63.191 4.456C63.367 4.456 63.535 4.456 63.695 4.456C63.871 4.44 64.031 4.408 64.175 4.36C64.303 4.44 64.415 4.528 64.511 4.624C64.623 4.704 64.735 4.76 64.847 4.792C64.879 4.84 64.911 4.88 64.943 4.912C64.975 4.944 64.999 4.976 65.015 5.008C65.079 5.104 65.143 5.112 65.207 5.032C65.239 5 65.263 4.976 65.279 4.96C65.295 4.944 65.319 4.928 65.351 4.912C65.367 4.896 65.383 4.88 65.399 4.864C65.431 4.832 65.455 4.808 65.471 4.792C65.551 4.856 65.639 4.928 65.735 5.008C65.831 5.072 65.919 5.136 65.999 5.2C66.079 5.264 66.159 5.336 66.239 5.416C66.335 5.48 66.423 5.536 66.503 5.584C66.567 5.648 66.671 5.696 66.815 5.728C66.847 5.792 66.879 5.856 66.911 5.92C66.943 5.984 66.975 6.048 67.007 6.112C67.087 6.256 67.159 6.4 67.223 6.544C67.303 6.688 67.391 6.824 67.487 6.952C67.663 7.176 67.775 7.424 67.823 7.696C67.823 7.808 67.799 7.92 67.751 8.032C67.719 8.144 67.719 8.288 67.751 8.464C67.783 8.544 67.815 8.64 67.847 8.752C67.895 8.848 67.935 8.952 67.967 9.064C67.999 9.224 67.999 9.376 67.967 9.52C67.951 9.648 67.927 9.784 67.895 9.928C67.927 9.992 67.951 10.056 67.967 10.12C67.983 10.168 68.007 10.232 68.039 10.312ZM64.607 10.312C64.527 10.2 64.463 10.088 64.415 9.976C64.399 9.896 64.375 9.816 64.343 9.736C64.327 9.656 64.319 9.584 64.319 9.52C64.303 9.44 64.295 9.36 64.295 9.28C64.295 9.184 64.287 9.096 64.271 9.016C64.255 8.936 64.247 8.856 64.247 8.776C64.247 8.68 64.207 8.6 64.127 8.536C64.079 8.504 64.015 8.48 63.935 8.464C63.871 8.448 63.799 8.424 63.719 8.392C63.655 8.328 63.583 8.272 63.503 8.224C63.439 8.16 63.375 8.112 63.311 8.08C63.247 8.064 63.191 8.056 63.143 8.056C62.999 8.072 62.855 8.096 62.711 8.128C62.583 8.144 62.447 8.152 62.303 8.152C62.271 8.152 62.231 8.16 62.183 8.176C62.135 8.192 62.095 8.208 62.063 8.224C61.983 8.304 61.887 8.36 61.775 8.392C61.679 8.408 61.583 8.432 61.487 8.464C61.423 8.48 61.351 8.512 61.271 8.56C61.191 8.608 61.135 8.672 61.103 8.752C61.055 8.848 60.991 8.92 60.911 8.968C60.847 9 60.783 9.032 60.719 9.064C60.655 9.128 60.615 9.192 60.599 9.256C60.599 9.304 60.591 9.352 60.575 9.4C60.559 9.464 60.535 9.52 60.503 9.568C60.471 9.6 60.439 9.64 60.407 9.688C60.503 9.992 60.591 10.248 60.671 10.456C60.751 10.648 60.847 10.84 60.959 11.032C60.975 11.096 60.975 11.152 60.959 11.2C60.959 11.232 60.975 11.272 61.007 11.32C61.119 11.336 61.223 11.336 61.319 11.32C61.415 11.304 61.503 11.264 61.583 11.2C61.599 11.184 61.623 11.184 61.655 11.2C61.687 11.2 61.711 11.2 61.727 11.2C61.791 11.264 61.847 11.328 61.895 11.392C61.943 11.44 61.991 11.488 62.039 11.536C62.167 11.584 62.287 11.624 62.399 11.656C62.511 11.688 62.623 11.68 62.735 11.632C62.831 11.568 62.911 11.488 62.975 11.392C63.039 11.28 63.127 11.208 63.239 11.176C63.303 11.176 63.367 11.184 63.431 11.2C63.511 11.2 63.591 11.2 63.671 11.2C63.703 11.168 63.743 11.136 63.791 11.104C63.855 11.072 63.903 11.04 63.935 11.008C64.015 10.928 64.087 10.856 64.151 10.792C64.231 10.728 64.319 10.672 64.415 10.624C64.527 10.544 64.591 10.44 64.607 10.312ZM83.9425 14.272C83.8625 14.432 83.7905 14.592 83.7265 14.752C83.6625 14.912 83.5905 15.072 83.5105 15.232L83.0065 15.712C82.7025 16.048 82.3425 16.248 81.9265 16.312C81.7185 16.344 81.5025 16.352 81.2785 16.336C81.0705 16.336 80.8545 16.304 80.6305 16.24C80.5025 16.208 80.3665 16.16 80.2225 16.096C80.0945 16.048 79.9665 15.992 79.8385 15.928C79.7425 15.88 79.6385 15.848 79.5265 15.832C79.4145 15.8 79.2945 15.776 79.1665 15.76C79.1185 15.728 79.0625 15.696 78.9985 15.664C78.9345 15.616 78.8625 15.568 78.7825 15.52C78.6705 15.328 78.5345 15.152 78.3745 14.992C78.2305 14.832 78.1185 14.632 78.0385 14.392C78.0385 14.2 78.0305 14.072 78.0145 14.008C77.9985 13.928 77.9505 13.776 77.8705 13.552V11.968C77.8705 11.84 77.8625 11.72 77.8465 11.608C77.8465 11.48 77.8305 11.36 77.7985 11.248C77.7825 11.136 77.7745 11.04 77.7745 10.96C77.7905 10.88 77.8065 10.784 77.8225 10.672C77.8705 10.48 77.8705 10.28 77.8225 10.072C77.8705 9.88 77.9265 9.688 77.9905 9.496C77.9905 9.4 77.9665 9.264 77.9185 9.088C77.8705 8.912 77.8145 8.744 77.7505 8.584C77.6705 8.584 77.5905 8.576 77.5105 8.56C77.4305 8.544 77.3425 8.528 77.2465 8.512C77.1505 8.544 77.0465 8.576 76.9345 8.608C76.8385 8.64 76.7265 8.672 76.5985 8.704C76.5505 8.736 76.4785 8.752 76.3825 8.752C76.3665 8.752 76.3345 8.736 76.2865 8.704C76.2545 8.656 76.2385 8.624 76.2385 8.608C76.2225 8.56 76.2145 8.512 76.2145 8.464C76.2145 8.416 76.2145 8.368 76.2145 8.32C76.1985 8.192 76.1905 8.056 76.1905 7.912C76.1905 7.768 76.1905 7.632 76.1905 7.504C76.1905 7.376 76.1825 7.256 76.1665 7.144C76.1505 7.016 76.1265 6.896 76.0945 6.784C76.1105 6.704 76.1265 6.632 76.1425 6.568C76.1585 6.488 76.1745 6.416 76.1905 6.352V5.896C76.1905 5.768 76.2065 5.656 76.2385 5.56C76.2865 5.464 76.3745 5.376 76.5025 5.296C76.5985 5.264 76.7025 5.248 76.8145 5.248C76.9425 5.248 77.0785 5.248 77.2225 5.248C77.3505 5.264 77.4785 5.264 77.6065 5.248C77.7505 5.216 77.8785 5.144 77.9905 5.032C78.0225 5 78.0625 4.984 78.1105 4.984C78.1745 4.984 78.2225 4.984 78.2545 4.984C78.5745 5 78.8545 4.872 79.0945 4.6C79.1105 4.504 79.1585 4.368 79.2385 4.192C79.1905 4.08 79.1505 3.96 79.1185 3.832C79.0865 3.688 79.0465 3.552 78.9985 3.424C79.0305 3.376 79.0625 3.328 79.0945 3.28C79.1265 3.232 79.1505 3.176 79.1665 3.112C79.1985 3.032 79.1985 2.96 79.1665 2.896C79.1345 2.816 79.1265 2.752 79.1425 2.704C79.1105 2.624 79.0945 2.568 79.0945 2.536C79.0945 2.504 79.0785 2.448 79.0465 2.368C79.0625 2.336 79.0785 2.304 79.0945 2.272C79.1105 2.224 79.1265 2.184 79.1425 2.152C79.1585 2.088 79.1745 2.04 79.1905 2.008C79.2065 1.96 79.2225 1.904 79.2385 1.84H79.5025C79.5825 1.856 79.6625 1.872 79.7425 1.888C79.8385 1.888 79.9265 1.88 80.0065 1.864C80.0385 1.864 80.0785 1.872 80.1265 1.888C80.1745 1.888 80.2225 1.888 80.2705 1.888C80.5425 1.92 80.8065 1.96 81.0625 2.008C81.3345 2.056 81.5985 2.08 81.8545 2.08C81.8865 2.08 81.9185 2.088 81.9505 2.104C81.9985 2.12 82.0305 2.136 82.0465 2.152C82.1105 2.184 82.1665 2.224 82.2145 2.272C82.1985 2.336 82.1745 2.4 82.1425 2.464C82.1105 2.512 82.0865 2.56 82.0705 2.608C82.0545 2.672 82.0385 2.744 82.0225 2.824C82.0225 2.904 82.0145 2.984 81.9985 3.064C81.9825 3.176 81.9665 3.288 81.9505 3.4C81.9345 3.512 81.9105 3.64 81.8785 3.784C81.8945 3.8 81.9025 3.84 81.9025 3.904C81.9025 3.968 81.9105 4.024 81.9265 4.072C81.9105 4.184 81.8865 4.288 81.8545 4.384C81.8385 4.48 81.8225 4.592 81.8065 4.72C82.0145 4.88 82.2385 5.016 82.4785 5.128C82.7345 5.24 83.0385 5.344 83.3905 5.44C83.5665 5.552 83.6705 5.736 83.7025 5.992C83.7025 6.36 83.6785 6.728 83.6305 7.096C83.6145 7.24 83.5985 7.384 83.5825 7.528C83.5665 7.672 83.5665 7.816 83.5825 7.96C83.3745 8.088 83.1265 8.152 82.8385 8.152C82.7905 8.152 82.7425 8.16 82.6945 8.176C82.6465 8.192 82.6065 8.2 82.5745 8.2C82.3185 8.216 82.1185 8.24 81.9745 8.272C81.8465 8.304 81.6385 8.384 81.3505 8.512C81.3025 8.576 81.2785 8.664 81.2785 8.776C81.2625 8.872 81.2465 8.968 81.2305 9.064C81.2305 9.16 81.2385 9.264 81.2545 9.376C81.2545 9.376 81.2545 9.384 81.2545 9.4C81.2545 9.4 81.2385 9.408 81.2065 9.424C81.1105 9.616 81.0385 9.76 80.9905 9.856C80.9425 9.952 80.9105 10.048 80.8945 10.144C80.8945 10.24 80.8945 10.4 80.8945 10.624V11.776C80.8945 11.856 80.9025 11.904 80.9185 11.92C80.9345 12.064 81.0065 12.184 81.1345 12.28C81.1985 12.296 81.2545 12.312 81.3025 12.328C81.3665 12.344 81.4145 12.384 81.4465 12.448C81.5905 12.64 81.7505 12.744 81.9265 12.76C82.1185 12.76 82.3185 12.728 82.5265 12.664C82.5905 12.632 82.6545 12.6 82.7185 12.568C82.7825 12.536 82.8465 12.512 82.9105 12.496C83.0385 12.528 83.1185 12.6 83.1505 12.712C83.1825 12.824 83.2385 12.92 83.3185 13C83.3985 13.08 83.4625 13.168 83.5105 13.264C83.5745 13.36 83.6385 13.456 83.7025 13.552C83.7345 13.648 83.7745 13.76 83.8225 13.888C83.8705 14 83.9105 14.128 83.9425 14.272ZM96.2186 12.064C96.1546 12.272 96.1306 12.48 96.1466 12.688C96.1786 12.88 96.1786 13.08 96.1466 13.288C96.1306 13.4 96.1306 13.512 96.1466 13.624C96.1626 13.736 96.1546 13.856 96.1226 13.984C96.1066 14.08 96.0986 14.184 96.0986 14.296C96.1146 14.392 96.1226 14.488 96.1226 14.584C96.1066 14.648 96.0986 14.728 96.0986 14.824C96.0666 14.936 96.0426 15.048 96.0266 15.16C96.0266 15.256 96.0106 15.368 95.9786 15.496C95.9786 15.512 95.9706 15.536 95.9546 15.568C95.9546 15.584 95.9546 15.608 95.9546 15.64C95.9546 15.752 95.8906 15.808 95.7626 15.808C95.7466 15.792 95.7066 15.784 95.6426 15.784C95.5306 15.736 95.4346 15.728 95.3546 15.76C95.2746 15.792 95.1946 15.824 95.1146 15.856C95.0666 15.904 95.0186 15.952 94.9706 16C94.9226 16.048 94.8746 16.104 94.8266 16.168C94.6506 16.264 94.4826 16.288 94.3226 16.24C94.1786 16.208 94.0266 16.144 93.8666 16.048C93.7706 16.048 93.6986 16.056 93.6506 16.072H93.5786C93.5626 16.056 93.5386 16.048 93.5066 16.048C93.4426 16 93.3786 15.952 93.3146 15.904C93.2666 15.856 93.2106 15.808 93.1466 15.76C93.0186 15.632 92.9706 15.504 93.0026 15.376C93.0186 15.312 93.0346 15.256 93.0506 15.208C93.0826 15.144 93.0906 15.08 93.0746 15.016C93.0586 14.936 93.0346 14.856 93.0026 14.776C92.9866 14.696 92.9786 14.616 92.9786 14.536C92.9786 14.456 92.9866 14.376 93.0026 14.296C93.0346 14.216 93.0586 14.136 93.0746 14.056C93.0426 13.928 92.9946 13.8 92.9306 13.672C92.8666 13.544 92.8186 13.408 92.7866 13.264C92.7706 13.136 92.7466 13.008 92.7146 12.88C92.6986 12.736 92.6906 12.6 92.6906 12.472C92.6746 12.328 92.6586 12.192 92.6426 12.064C92.6426 11.92 92.6426 11.768 92.6426 11.608C92.6106 11.416 92.5306 11.264 92.4026 11.152C92.2906 11.024 92.1946 10.904 92.1146 10.792C92.0346 10.68 91.9626 10.552 91.8986 10.408C91.8186 10.344 91.7146 10.288 91.5866 10.24C91.5706 10.208 91.5546 10.176 91.5386 10.144C91.5226 10.112 91.4986 10.088 91.4666 10.072C91.4506 10.056 91.4426 10.04 91.4426 10.024C91.4426 9.992 91.4346 9.968 91.4186 9.952L91.2746 9.808C91.2106 9.776 91.1466 9.776 91.0826 9.808C91.0186 9.84 90.9626 9.856 90.9146 9.856C90.8506 9.872 90.7946 9.88 90.7466 9.88C90.6986 9.88 90.6346 9.888 90.5546 9.904C90.4906 9.936 90.4346 9.976 90.3866 10.024C90.3546 10.056 90.2986 10.088 90.2186 10.12C90.1706 10.168 90.1146 10.208 90.0506 10.24C89.9866 10.256 89.9226 10.28 89.8586 10.312C89.7946 10.456 89.7866 10.592 89.8346 10.72C89.8666 10.88 89.8826 11.048 89.8826 11.224C89.8986 11.4 89.9226 11.576 89.9546 11.752C89.9706 11.912 89.9546 12.096 89.9066 12.304C89.9066 12.352 89.8986 12.408 89.8826 12.472C89.8666 12.52 89.8586 12.576 89.8586 12.64C89.8746 12.896 89.8586 13.152 89.8106 13.408C89.7626 13.648 89.6986 13.896 89.6186 14.152C89.6346 14.312 89.6506 14.472 89.6666 14.632C89.6826 14.776 89.6986 14.928 89.7146 15.088V15.592C89.7146 15.8 89.6026 15.92 89.3786 15.952H88.8746C88.7146 15.968 88.5546 15.984 88.3946 16C88.2506 16.016 88.1146 16.064 87.9866 16.144C87.9226 16.16 87.8586 16.184 87.7946 16.216C87.7466 16.248 87.6826 16.28 87.6026 16.312L87.4346 16.48C87.4026 16.48 87.3626 16.48 87.3146 16.48C87.2826 16.496 87.2506 16.496 87.2186 16.48C87.0586 16.4 86.9066 16.336 86.7626 16.288C86.6026 16.08 86.5066 15.856 86.4746 15.616C86.4426 15.376 86.3866 15.152 86.3066 14.944C86.3226 14.848 86.3386 14.76 86.3546 14.68C86.3866 14.584 86.3866 14.496 86.3546 14.416C86.3386 14.368 86.3306 14.28 86.3306 14.152C86.3306 14.104 86.3306 14.064 86.3306 14.032C86.3466 13.984 86.3466 13.944 86.3306 13.912C86.2826 13.608 86.2986 13.344 86.3786 13.12C86.4106 12.976 86.4026 12.824 86.3546 12.664C86.2906 12.376 86.2666 12.08 86.2826 11.776C86.3306 11.52 86.3226 11.264 86.2586 11.008C86.2106 10.96 86.2106 10.896 86.2586 10.816C86.2586 10.736 86.2586 10.656 86.2586 10.576C86.2746 10.48 86.2906 10.4 86.3066 10.336C86.3226 10.272 86.3546 10.224 86.4026 10.192C86.4506 10.144 86.4906 10.104 86.5226 10.072L86.5946 9.64C86.6266 9.592 86.6026 9.512 86.5226 9.4C86.5066 9.368 86.4826 9.368 86.4506 9.4C86.4186 9.416 86.3866 9.432 86.3546 9.448L86.3306 9.424C86.3306 9.248 86.3306 9.088 86.3306 8.944C86.3466 8.784 86.3466 8.624 86.3306 8.464C86.3146 8.4 86.3146 8.344 86.3306 8.296C86.3466 8.248 86.3546 8.192 86.3546 8.128C86.3546 8.08 86.3466 8.024 86.3306 7.96C86.3146 7.896 86.3066 7.832 86.3066 7.768C86.3066 7.736 86.3066 7.696 86.3066 7.648C86.3066 7.6 86.3146 7.552 86.3306 7.504C86.3466 7.424 86.3626 7.344 86.3786 7.264C86.3946 7.184 86.4186 7.096 86.4506 7C86.3866 6.872 86.3546 6.736 86.3546 6.592C86.3706 6.448 86.3626 6.296 86.3306 6.136C86.3146 6.088 86.3146 6.032 86.3306 5.968C86.3626 5.904 86.3866 5.832 86.4026 5.752C86.3386 5.608 86.3146 5.448 86.3306 5.272C86.3466 5.08 86.3466 4.896 86.3306 4.72C86.3626 4.624 86.3706 4.536 86.3546 4.456C86.3386 4.36 86.3306 4.264 86.3306 4.168C86.3466 4.008 86.3466 3.856 86.3306 3.712C86.3146 3.568 86.3226 3.424 86.3546 3.28C86.3706 3.232 86.3706 3.192 86.3546 3.16C86.3546 3.128 86.3546 3.096 86.3546 3.064C86.3226 2.76 86.3306 2.48 86.3786 2.224C86.3946 2.176 86.4026 2.112 86.4026 2.032C86.4026 1.952 86.4026 1.88 86.4026 1.816C86.3866 1.752 86.3706 1.696 86.3546 1.648C86.3546 1.6 86.3626 1.544 86.3786 1.48C86.4266 1.384 86.4426 1.288 86.4266 1.192C86.4266 1.08 86.4586 0.975999 86.5226 0.879999C86.5226 0.879999 86.5226 0.871999 86.5226 0.855999C86.5386 0.839999 86.5466 0.823999 86.5466 0.808L86.5946 0.784C86.5946 0.767999 86.6186 0.759999 86.6666 0.759999C86.7466 0.727999 86.8186 0.704 86.8826 0.688C86.9626 0.655999 87.0426 0.631999 87.1226 0.615999C87.1706 0.647999 87.2186 0.679999 87.2666 0.711999C87.3146 0.743999 87.3706 0.775999 87.4346 0.808H87.8186C87.8506 0.775999 87.8826 0.751999 87.9146 0.735999C87.9466 0.719999 87.9706 0.704 87.9866 0.688L88.2266 0.519999C88.2906 0.487999 88.3546 0.472 88.4186 0.472C88.4986 0.456 88.5626 0.472 88.6106 0.519999C88.7546 0.615999 88.8906 0.695999 89.0186 0.759999C89.1626 0.823999 89.3066 0.863999 89.4506 0.879999C89.5306 1.008 89.5866 1.128 89.6186 1.24C89.6666 1.352 89.7146 1.472 89.7626 1.6C89.8106 1.76 89.8826 1.944 89.9786 2.152C89.9786 2.232 89.9466 2.296 89.8826 2.344C89.8346 2.392 89.8026 2.464 89.7866 2.56C89.7866 2.592 89.7866 2.64 89.7866 2.704C89.8026 2.768 89.8186 2.84 89.8346 2.92C89.8346 2.984 89.8266 3.048 89.8106 3.112C89.7946 3.176 89.7946 3.248 89.8106 3.328C89.8426 3.584 89.8506 3.84 89.8346 4.096C89.8186 4.352 89.7946 4.6 89.7626 4.84V5.176C89.7626 5.336 89.8026 5.496 89.8826 5.656C89.9466 5.72 90.0026 5.792 90.0506 5.872C90.1146 5.936 90.1706 6.008 90.2186 6.088C90.3146 6.184 90.4186 6.232 90.5306 6.232C90.7546 6.232 90.9786 6.256 91.2026 6.304C91.4426 6.336 91.6746 6.336 91.8986 6.304C91.9466 6.288 91.9866 6.288 92.0186 6.304C92.0506 6.304 92.0906 6.304 92.1386 6.304C92.1866 6.336 92.2426 6.36 92.3066 6.376C92.3866 6.392 92.4586 6.408 92.5226 6.424C92.6986 6.456 92.7706 6.56 92.7386 6.736C92.7386 6.736 92.7466 6.744 92.7626 6.76C92.7786 6.76 92.7946 6.768 92.8106 6.784C92.8426 6.768 92.8746 6.76 92.9066 6.76C92.9386 6.76 92.9626 6.752 92.9786 6.736C93.1866 6.656 93.3706 6.672 93.5306 6.784C93.6266 6.864 93.7386 6.928 93.8666 6.976C93.9946 7.008 94.1146 7.088 94.2266 7.216C94.3386 7.408 94.4826 7.592 94.6586 7.768C94.8346 7.928 95.0106 8.104 95.1866 8.296C95.2186 8.344 95.2586 8.392 95.3066 8.44C95.3546 8.472 95.3946 8.504 95.4266 8.536C95.5706 8.68 95.6506 8.824 95.6666 8.968C95.7146 9.192 95.7706 9.368 95.8346 9.496C95.8826 9.672 95.9546 9.872 96.0506 10.096V10.336C96.0666 10.4 96.0826 10.472 96.0986 10.552C96.1146 10.616 96.1226 10.688 96.1226 10.768C96.1386 10.96 96.1546 11.152 96.1706 11.344C96.1866 11.536 96.2026 11.728 96.2186 11.92C96.2186 11.936 96.2186 11.96 96.2186 11.992C96.2346 12.008 96.2346 12.032 96.2186 12.064ZM108.877 7.528C108.861 7.688 108.845 7.856 108.829 8.032C108.829 8.192 108.813 8.352 108.781 8.512C108.765 8.672 108.757 8.848 108.757 9.04C108.757 9.216 108.725 9.4 108.661 9.592C108.629 9.64 108.589 9.696 108.541 9.76C108.493 9.808 108.445 9.872 108.397 9.952C108.397 10.016 108.397 10.072 108.397 10.12C108.413 10.168 108.429 10.224 108.445 10.288C108.413 10.368 108.365 10.44 108.301 10.504C108.237 10.552 108.173 10.592 108.109 10.624C107.949 10.672 107.797 10.72 107.653 10.768C107.525 10.816 107.389 10.856 107.245 10.888C107.021 10.92 106.789 10.928 106.549 10.912C106.309 10.88 106.069 10.872 105.829 10.888C105.621 10.888 105.397 10.896 105.157 10.912C104.933 10.912 104.701 10.912 104.461 10.912H103.117C103.053 10.96 102.981 10.976 102.901 10.96C102.837 10.944 102.773 10.952 102.709 10.984C102.645 10.952 102.573 10.952 102.493 10.984C102.413 11 102.333 10.992 102.253 10.96C102.189 10.976 102.125 10.992 102.061 11.008C102.013 11.008 101.949 11.016 101.869 11.032C101.805 11.016 101.749 11 101.701 10.984C101.653 10.952 101.597 10.96 101.533 11.008C101.565 11.056 101.597 11.112 101.629 11.176C101.677 11.224 101.709 11.288 101.725 11.368C101.773 11.432 101.813 11.496 101.845 11.56C101.877 11.624 101.909 11.696 101.941 11.776C101.973 11.84 101.997 11.912 102.013 11.992C102.029 12.056 102.045 12.12 102.061 12.184C102.141 12.264 102.229 12.344 102.325 12.424C102.421 12.504 102.517 12.584 102.613 12.664C102.693 12.68 102.773 12.696 102.853 12.712C102.949 12.728 103.037 12.744 103.117 12.76C103.213 12.776 103.309 12.792 103.405 12.808C103.501 12.824 103.605 12.824 103.717 12.808C103.829 12.776 103.933 12.784 104.029 12.832C104.125 12.864 104.229 12.888 104.341 12.904C104.485 12.888 104.629 12.872 104.773 12.856C104.933 12.84 105.085 12.824 105.229 12.808C105.293 12.76 105.357 12.72 105.421 12.688C105.501 12.64 105.573 12.592 105.637 12.544C105.845 12.496 106.053 12.504 106.261 12.568C106.309 12.648 106.365 12.728 106.429 12.808C106.509 12.888 106.581 12.976 106.645 13.072C106.741 13.216 106.837 13.36 106.933 13.504C107.029 13.632 107.093 13.784 107.125 13.96C107.157 14.04 107.205 14.12 107.269 14.2C107.333 14.28 107.381 14.352 107.413 14.416C107.429 14.496 107.421 14.568 107.389 14.632C107.373 14.696 107.357 14.768 107.341 14.848C107.277 14.912 107.197 14.968 107.101 15.016C107.085 15.016 107.069 15.032 107.053 15.064C107.037 15.096 107.013 15.12 106.981 15.136C106.885 15.2 106.789 15.264 106.693 15.328C106.597 15.392 106.509 15.456 106.429 15.52C106.205 15.712 105.973 15.808 105.733 15.808C105.637 15.808 105.565 15.816 105.517 15.832C105.437 15.848 105.357 15.88 105.277 15.928C105.197 15.976 105.109 16.016 105.013 16.048C104.933 16.048 104.853 16.056 104.773 16.072C104.693 16.104 104.613 16.128 104.533 16.144C104.485 16.144 104.429 16.136 104.365 16.12C104.301 16.12 104.237 16.12 104.173 16.12C104.029 16.136 103.885 16.128 103.741 16.096C103.597 16.064 103.453 16.048 103.309 16.048C103.261 16.032 103.213 16.016 103.165 16C103.117 15.984 103.069 15.976 103.021 15.976C102.749 15.992 102.493 15.952 102.253 15.856C102.013 15.744 101.773 15.632 101.533 15.52C101.341 15.472 101.205 15.384 101.125 15.256C101.013 15.128 100.885 15.024 100.741 14.944C100.613 14.848 100.469 14.768 100.309 14.704C100.213 14.672 100.117 14.632 100.021 14.584C99.9246 14.52 99.8206 14.456 99.7086 14.392C99.6926 14.328 99.6686 14.264 99.6366 14.2C99.6046 14.136 99.5726 14.072 99.5406 14.008C99.5086 13.96 99.4606 13.912 99.3966 13.864C99.3486 13.816 99.3006 13.768 99.2526 13.72C99.2046 13.672 99.1646 13.616 99.1326 13.552C99.0526 13.28 98.9726 13.016 98.8926 12.76C98.8126 12.488 98.7086 12.224 98.5806 11.968C98.5966 11.856 98.6046 11.744 98.6046 11.632C98.6206 11.504 98.6126 11.368 98.5806 11.224C98.5646 11.192 98.5566 11.152 98.5566 11.104C98.5566 11.056 98.5566 11.016 98.5566 10.984C98.5566 10.904 98.5566 10.84 98.5566 10.792C98.5726 10.728 98.5726 10.672 98.5566 10.624C98.5406 10.496 98.5246 10.368 98.5086 10.24C98.4926 10.112 98.5006 9.992 98.5326 9.88C98.5646 9.752 98.5966 9.624 98.6286 9.496C98.6606 9.368 98.7006 9.232 98.7486 9.088C98.7326 9.056 98.7246 9.008 98.7246 8.944C98.7246 8.88 98.7166 8.816 98.7006 8.752C98.7326 8.576 98.7646 8.4 98.7966 8.224C98.8286 8.048 98.8686 7.88 98.9166 7.72C98.9646 7.624 99.0126 7.536 99.0606 7.456C99.1246 7.36 99.1886 7.264 99.2526 7.168C99.3646 6.976 99.4526 6.792 99.5166 6.616C99.7086 6.52 99.8206 6.464 99.8526 6.448C99.9006 6.416 99.9406 6.376 99.9726 6.328C100.005 6.28 100.109 6.184 100.285 6.04C100.269 5.992 100.309 5.92 100.405 5.824C100.501 5.728 100.533 5.648 100.501 5.584C100.645 5.312 100.853 5.096 101.125 4.936C101.221 4.872 101.309 4.808 101.389 4.744C101.485 4.664 101.565 4.592 101.629 4.528C101.709 4.48 101.781 4.464 101.845 4.48C101.925 4.48 101.997 4.48 102.061 4.48C102.109 4.464 102.157 4.456 102.205 4.456C102.269 4.44 102.333 4.424 102.397 4.408C102.429 4.392 102.469 4.376 102.517 4.36C102.565 4.344 102.605 4.32 102.637 4.288C102.669 4.272 102.701 4.256 102.733 4.24C102.765 4.224 102.797 4.216 102.829 4.216C102.973 4.2 103.109 4.16 103.237 4.096C103.365 4.032 103.485 3.968 103.597 3.904C103.837 4 104.085 4.032 104.341 4C104.501 3.984 104.653 3.992 104.797 4.024C104.957 4.056 105.101 4.096 105.229 4.144L105.565 4.048C105.693 4.064 105.813 4.104 105.925 4.168C106.037 4.232 106.149 4.296 106.261 4.36H106.477C106.493 4.376 106.509 4.392 106.525 4.408C106.541 4.408 106.557 4.416 106.573 4.432C106.749 4.592 106.917 4.744 107.077 4.888C107.237 5.016 107.405 5.152 107.581 5.296C107.821 5.456 107.973 5.648 108.037 5.872C108.101 5.968 108.157 6.04 108.205 6.088C108.397 6.248 108.565 6.464 108.709 6.736C108.709 6.768 108.709 6.816 108.709 6.88C108.725 6.928 108.733 6.976 108.733 7.024C108.717 7.104 108.733 7.184 108.781 7.264C108.829 7.344 108.861 7.432 108.877 7.528ZM105.829 8.32V7.72C105.829 7.64 105.821 7.592 105.805 7.576C105.789 7.528 105.765 7.48 105.733 7.432C105.717 7.384 105.701 7.352 105.685 7.336V6.928L105.613 6.856C105.549 6.856 105.469 6.84 105.373 6.808C105.341 6.664 105.301 6.552 105.253 6.472C105.205 6.408 105.141 6.368 105.061 6.352C104.981 6.336 104.893 6.312 104.797 6.28C104.589 6.344 104.365 6.4 104.125 6.448C103.885 6.496 103.653 6.56 103.429 6.64C103.317 6.656 103.213 6.664 103.117 6.664C103.021 6.664 102.925 6.672 102.829 6.688C102.669 6.752 102.525 6.856 102.397 7C102.285 7.128 102.173 7.256 102.061 7.384C101.997 7.464 101.941 7.552 101.893 7.648C101.845 7.744 101.789 7.832 101.725 7.912C101.709 7.928 101.701 7.976 101.701 8.056C101.749 8.184 101.821 8.264 101.917 8.296C102.013 8.312 102.109 8.336 102.205 8.368C102.301 8.4 102.405 8.432 102.517 8.464C102.565 8.448 102.605 8.44 102.637 8.44C102.685 8.44 102.733 8.432 102.781 8.416C102.973 8.336 103.133 8.328 103.261 8.392C103.389 8.408 103.501 8.408 103.597 8.392C103.709 8.376 103.821 8.36 103.933 8.344C104.029 8.392 104.125 8.424 104.221 8.44C104.333 8.456 104.437 8.48 104.533 8.512C104.741 8.576 104.941 8.608 105.133 8.608C105.325 8.608 105.517 8.584 105.709 8.536C105.789 8.456 105.829 8.384 105.829 8.32ZM129.418 10.96C129.402 11.024 129.37 11.12 129.322 11.248C129.29 11.376 129.258 11.512 129.226 11.656C129.21 11.72 129.194 11.784 129.178 11.848C129.178 11.896 129.178 11.944 129.178 11.992C129.162 12.072 129.154 12.152 129.154 12.232C129.154 12.296 129.154 12.352 129.154 12.4C129.042 12.608 128.93 12.816 128.818 13.024C128.722 13.216 128.65 13.424 128.602 13.648C128.538 13.904 128.434 14.144 128.29 14.368C128.146 14.576 128.01 14.792 127.882 15.016C127.818 15.08 127.762 15.144 127.714 15.208C127.666 15.256 127.618 15.312 127.57 15.376C127.394 15.44 127.226 15.52 127.066 15.616C126.906 15.696 126.762 15.8 126.634 15.928C126.618 15.944 126.586 15.96 126.538 15.976C126.506 15.992 126.474 16.008 126.442 16.024C126.266 16.088 126.09 16.16 125.914 16.24C125.738 16.32 125.562 16.4 125.386 16.48L124.738 16.384C124.626 16.4 124.514 16.424 124.402 16.456C124.29 16.504 124.186 16.544 124.09 16.576C123.978 16.56 123.89 16.504 123.826 16.408C123.778 16.376 123.73 16.336 123.682 16.288C123.634 16.256 123.57 16.256 123.49 16.288C123.394 16.304 123.314 16.28 123.25 16.216C123.186 16.152 123.114 16.104 123.034 16.072C122.986 16.088 122.938 16.096 122.89 16.096C122.858 16.112 122.802 16.128 122.722 16.144L122.338 16.048C122.194 16.048 122.058 16.072 121.93 16.12C121.85 16.088 121.77 16.048 121.69 16C121.61 15.952 121.514 15.928 121.402 15.928C121.29 15.928 121.178 15.912 121.066 15.88C120.97 15.832 120.866 15.8 120.754 15.784C120.658 15.768 120.562 15.752 120.466 15.736C120.386 15.72 120.306 15.704 120.226 15.688C120.162 15.656 120.114 15.616 120.082 15.568C120.05 15.52 120.018 15.472 119.986 15.424C119.922 15.392 119.874 15.376 119.842 15.376C119.794 15.328 119.738 15.296 119.674 15.28C119.61 15.248 119.538 15.224 119.458 15.208C119.346 15.16 119.25 15.104 119.17 15.04C119.09 14.96 119.01 14.888 118.93 14.824C118.818 14.696 118.714 14.576 118.618 14.464C118.538 14.336 118.434 14.216 118.306 14.104L118.186 13.864C118.106 13.768 118.034 13.688 117.97 13.624C117.922 13.56 117.834 13.496 117.706 13.432H117.418C117.402 13.432 117.386 13.416 117.37 13.384C117.354 13.352 117.354 13.328 117.37 13.312C117.386 13.248 117.402 13.184 117.418 13.12C117.434 13.04 117.45 12.968 117.466 12.904C117.466 12.824 117.442 12.752 117.394 12.688C117.362 12.624 117.33 12.552 117.298 12.472C117.282 12.136 117.226 11.816 117.13 11.512C117.05 11.192 116.962 10.872 116.866 10.552V9.856C116.914 9.808 116.954 9.752 116.986 9.688C117.034 9.624 117.074 9.568 117.106 9.52C117.09 9.44 117.074 9.36 117.058 9.28C117.058 9.2 117.066 9.12 117.082 9.04C117.082 8.944 117.074 8.848 117.058 8.752C117.042 8.64 117.026 8.528 117.01 8.416C117.01 8.4 117.018 8.368 117.034 8.32C117.05 8.256 117.058 8.192 117.058 8.128C117.074 8.08 117.082 8.032 117.082 7.984C117.098 7.92 117.098 7.856 117.082 7.792C117.05 7.664 117.042 7.544 117.058 7.432C117.074 7.304 117.09 7.168 117.106 7.024C117.138 6.912 117.17 6.808 117.202 6.712C117.234 6.6 117.242 6.488 117.226 6.376C117.226 6.28 117.242 6.216 117.274 6.184C117.354 6.088 117.402 5.984 117.418 5.872C117.434 5.76 117.45 5.656 117.466 5.56C117.546 5.416 117.634 5.272 117.73 5.128C117.842 4.968 117.97 4.832 118.114 4.72C118.162 4.656 118.21 4.592 118.258 4.528C118.306 4.464 118.354 4.408 118.402 4.36C118.69 4.072 118.914 3.76 119.074 3.424C119.138 3.376 119.194 3.336 119.242 3.304C119.306 3.272 119.37 3.232 119.434 3.184C119.45 3.136 119.482 3.104 119.53 3.088C119.594 2.768 119.802 2.56 120.154 2.464C120.186 2.464 120.226 2.464 120.274 2.464C120.338 2.448 120.402 2.432 120.466 2.416C120.514 2.384 120.57 2.344 120.634 2.296C120.714 2.232 120.786 2.184 120.85 2.152C120.898 2.088 120.962 2.04 121.042 2.008C121.122 1.96 121.202 1.92 121.282 1.888C121.378 1.872 121.466 1.84 121.546 1.792C121.626 1.728 121.706 1.68 121.786 1.648C121.978 1.616 122.146 1.624 122.29 1.672C122.61 1.784 122.906 1.76 123.178 1.6C123.29 1.536 123.402 1.504 123.514 1.504C123.642 1.488 123.746 1.44 123.826 1.36C124.002 1.424 124.17 1.48 124.33 1.528L124.81 1.624C124.97 1.656 125.13 1.704 125.29 1.768C125.45 1.816 125.602 1.864 125.746 1.912C125.906 1.976 126.066 2.04 126.226 2.104C126.386 2.168 126.53 2.24 126.658 2.32C126.722 2.352 126.778 2.376 126.826 2.392C126.89 2.392 126.946 2.408 126.994 2.44C127.074 2.472 127.146 2.504 127.21 2.536C127.274 2.552 127.33 2.576 127.378 2.608C127.426 2.672 127.466 2.736 127.498 2.8C127.546 2.864 127.602 2.928 127.666 2.992C127.698 3.024 127.738 3.056 127.786 3.088C127.834 3.104 127.882 3.128 127.93 3.16C128.042 3.224 128.13 3.304 128.194 3.4C128.274 3.48 128.314 3.584 128.314 3.712C128.314 3.776 128.338 3.832 128.386 3.88C128.45 3.928 128.49 3.992 128.506 4.072C128.426 4.232 128.362 4.384 128.314 4.528C128.25 4.736 128.122 4.896 127.93 5.008C127.914 5.024 127.898 5.048 127.882 5.08C127.882 5.096 127.874 5.12 127.858 5.152C127.89 5.328 127.866 5.48 127.786 5.608C127.706 5.736 127.61 5.864 127.498 5.992C127.498 6.056 127.498 6.12 127.498 6.184C127.498 6.232 127.458 6.264 127.378 6.28C127.362 6.264 127.322 6.28 127.258 6.328C127.194 6.36 127.154 6.392 127.138 6.424C127.122 6.488 127.074 6.536 126.994 6.568C126.93 6.584 126.874 6.576 126.826 6.544C126.746 6.448 126.634 6.4 126.49 6.4L126.466 6.376C126.45 6.36 126.434 6.344 126.418 6.328C126.402 6.296 126.386 6.28 126.37 6.28C126.274 6.248 126.194 6.232 126.13 6.232C125.89 6.232 125.69 6.104 125.53 5.848C125.514 5.816 125.482 5.776 125.434 5.728C125.226 5.648 125.026 5.568 124.834 5.488C124.642 5.392 124.434 5.328 124.21 5.296C124.05 5.312 123.898 5.32 123.754 5.32C123.61 5.304 123.45 5.328 123.274 5.392L122.962 5.704C122.85 5.752 122.738 5.792 122.626 5.824C122.53 5.84 122.434 5.864 122.338 5.896C122.258 5.96 122.17 6.008 122.074 6.04C121.978 6.056 121.882 6.104 121.786 6.184C121.738 6.216 121.674 6.296 121.594 6.424V6.688C121.498 6.736 121.41 6.76 121.33 6.76C121.298 6.824 121.274 6.888 121.258 6.952C121.258 7 121.258 7.056 121.258 7.12C121.258 7.344 121.226 7.552 121.162 7.744C121.146 7.856 121.13 7.976 121.114 8.104C121.098 8.232 121.074 8.36 121.042 8.488C121.026 8.504 121.018 8.536 121.018 8.584C121.034 8.616 121.042 8.648 121.042 8.68C121.074 8.76 121.082 8.808 121.066 8.824C121.05 8.936 121.034 9.056 121.018 9.184C121.002 9.296 121.01 9.408 121.042 9.52C121.074 9.632 121.098 9.744 121.114 9.856C121.13 9.968 121.146 10.088 121.162 10.216C121.194 10.28 121.21 10.344 121.21 10.408C121.226 10.472 121.242 10.544 121.258 10.624C121.322 10.72 121.394 10.808 121.474 10.888C121.458 10.952 121.45 11.024 121.45 11.104C121.45 11.168 121.442 11.24 121.426 11.32C121.442 11.448 121.49 11.568 121.57 11.68C121.65 11.776 121.714 11.888 121.762 12.016C121.842 12.08 121.93 12.136 122.026 12.184C122.122 12.216 122.194 12.28 122.242 12.376C122.37 12.472 122.49 12.568 122.602 12.664C122.73 12.76 122.85 12.864 122.962 12.976C123.026 12.992 123.082 13.008 123.13 13.024C123.194 13.04 123.258 13.064 123.322 13.096C123.498 13.064 123.674 13.032 123.85 13C124.026 12.968 124.21 12.928 124.402 12.88C124.45 12.88 124.498 12.888 124.546 12.904C124.594 12.904 124.65 12.912 124.714 12.928C124.762 12.928 124.81 12.928 124.858 12.928C124.922 12.912 124.962 12.888 124.978 12.856C125.042 12.808 125.09 12.76 125.122 12.712C125.17 12.648 125.226 12.592 125.29 12.544C125.338 12.512 125.386 12.488 125.434 12.472C125.482 12.44 125.522 12.408 125.554 12.376C125.65 12.264 125.73 12.152 125.794 12.04C125.858 11.928 125.922 11.816 125.986 11.704C125.986 11.608 125.97 11.512 125.938 11.416C125.922 11.32 125.898 11.232 125.866 11.152C125.834 11.008 125.73 10.92 125.554 10.888C125.426 10.856 125.338 10.848 125.29 10.864C125.066 10.928 124.842 10.952 124.618 10.936C124.41 10.92 124.202 10.928 123.994 10.96C123.93 10.912 123.842 10.872 123.73 10.84C123.682 10.776 123.674 10.728 123.706 10.696C123.754 10.584 123.794 10.48 123.826 10.384C123.858 10.288 123.866 10.184 123.85 10.072C123.85 9.816 123.874 9.568 123.922 9.328C123.97 9.088 124.018 8.856 124.066 8.632C124.162 8.472 124.306 8.392 124.498 8.392C124.658 8.36 124.818 8.328 124.978 8.296C125.138 8.248 125.29 8.184 125.434 8.104C125.578 8.088 125.722 8.088 125.866 8.104C126.01 8.104 126.146 8.136 126.274 8.2C126.482 8.216 126.682 8.24 126.874 8.272C127.082 8.288 127.29 8.288 127.498 8.272C127.53 8.288 127.562 8.304 127.594 8.32C127.642 8.336 127.674 8.36 127.69 8.392C127.738 8.344 127.81 8.288 127.906 8.224C127.986 8.256 128.066 8.296 128.146 8.344C128.226 8.392 128.298 8.432 128.362 8.464C128.394 8.48 128.434 8.488 128.482 8.488C128.546 8.488 128.602 8.496 128.65 8.512C128.778 8.576 128.898 8.656 129.01 8.752C129.138 8.848 129.258 8.912 129.37 8.944C129.514 9.088 129.57 9.232 129.538 9.376C129.522 9.504 129.466 9.624 129.37 9.736C129.37 9.832 129.362 9.928 129.346 10.024C129.346 10.12 129.354 10.216 129.37 10.312C129.386 10.376 129.402 10.456 129.418 10.552C129.45 10.648 129.45 10.784 129.418 10.96ZM143.334 14.824C143.382 14.936 143.398 15.04 143.382 15.136C143.366 15.232 143.334 15.328 143.286 15.424C143.27 15.44 143.238 15.464 143.19 15.496C143.142 15.512 143.102 15.536 143.07 15.568C143.006 15.584 142.95 15.592 142.902 15.592C142.854 15.592 142.798 15.608 142.734 15.64C142.494 15.688 142.35 15.816 142.302 16.024C142.286 16.056 142.254 16.096 142.206 16.144C142.094 16.16 142.014 16.176 141.966 16.192C141.918 16.224 141.822 16.28 141.678 16.36C141.566 16.36 141.454 16.376 141.342 16.408C141.23 16.44 141.126 16.504 141.03 16.6C140.998 16.6 140.974 16.6 140.958 16.6C140.942 16.616 140.918 16.624 140.886 16.624C140.822 16.656 140.75 16.64 140.67 16.576C140.59 16.528 140.55 16.464 140.55 16.384V16.24C140.486 16.208 140.406 16.208 140.31 16.24C140.23 16.272 140.166 16.24 140.118 16.144V15.784C140.07 15.752 140.022 15.728 139.974 15.712C139.942 15.68 139.902 15.656 139.854 15.64C139.79 15.512 139.718 15.376 139.638 15.232C139.558 15.088 139.478 14.96 139.398 14.848C139.334 14.8 139.278 14.784 139.23 14.8C139.182 14.816 139.142 14.84 139.11 14.872C139.078 14.904 139.054 14.944 139.038 14.992C139.022 15.024 138.998 15.056 138.966 15.088C138.934 15.12 138.91 15.16 138.894 15.208C138.878 15.256 138.854 15.296 138.822 15.328C138.614 15.424 138.406 15.512 138.198 15.592C137.99 15.656 137.79 15.712 137.598 15.76C137.486 15.84 137.374 15.912 137.262 15.976C137.15 16.04 137.046 16.104 136.95 16.168C136.854 16.184 136.758 16.208 136.662 16.24C136.566 16.272 136.478 16.296 136.398 16.312C136.302 16.264 136.206 16.248 136.11 16.264C136.03 16.296 135.926 16.328 135.798 16.36C135.654 16.328 135.502 16.288 135.342 16.24C135.182 16.208 135.014 16.176 134.838 16.144C134.79 16.16 134.742 16.168 134.694 16.168C134.646 16.168 134.606 16.176 134.574 16.192C134.51 16.16 134.454 16.128 134.406 16.096C134.374 16.064 134.326 16.04 134.262 16.024C134.182 15.992 134.11 15.992 134.046 16.024C133.982 16.056 133.91 16.088 133.83 16.12C133.75 16.088 133.662 16.064 133.566 16.048C133.47 16.048 133.374 16.04 133.278 16.024C133.198 15.944 133.126 15.872 133.062 15.808C133.014 15.744 132.982 15.664 132.966 15.568C132.934 15.536 132.902 15.512 132.87 15.496C132.838 15.464 132.814 15.44 132.798 15.424C132.734 15.2 132.662 15.008 132.582 14.848C132.358 14.368 132.206 13.84 132.126 13.264C132.094 13.232 132.062 13.2 132.03 13.168C131.998 13.12 131.958 13.072 131.91 13.024C131.894 12.88 131.878 12.744 131.862 12.616C131.846 12.472 131.822 12.32 131.79 12.16C131.822 12.064 131.838 11.976 131.838 11.896C131.806 11.736 131.774 11.592 131.742 11.464C131.806 11.272 131.87 11.08 131.934 10.888C132.014 10.696 132.038 10.496 132.006 10.288C132.038 10.224 132.078 10.168 132.126 10.12C132.174 10.056 132.214 10 132.246 9.952C132.39 9.792 132.494 9.608 132.558 9.4C132.606 9.224 132.686 9.072 132.798 8.944C132.926 8.816 133.062 8.712 133.206 8.632C133.382 8.552 133.55 8.472 133.71 8.392C133.886 8.296 134.054 8.216 134.214 8.152C134.246 8.152 134.286 8.16 134.334 8.176C134.398 8.176 134.446 8.168 134.478 8.152C134.766 8.104 135.014 8.088 135.222 8.104C135.318 8.12 135.414 8.12 135.51 8.104C135.606 8.088 135.694 8.08 135.774 8.08L136.278 7.984C136.374 8 136.47 8.024 136.566 8.056C136.662 8.088 136.758 8.08 136.854 8.032C136.886 8.032 136.91 8.04 136.926 8.056C136.958 8.056 136.982 8.056 136.998 8.056C137.078 8.088 137.15 8.128 137.214 8.176C137.278 8.208 137.35 8.224 137.43 8.224C137.606 8.256 137.718 8.224 137.766 8.128C137.75 7.856 137.726 7.68 137.694 7.6C137.678 7.52 137.63 7.392 137.55 7.216C137.502 7.12 137.47 7.024 137.454 6.928C137.438 6.816 137.422 6.712 137.406 6.616C137.39 6.552 137.374 6.496 137.358 6.448C137.358 6.384 137.326 6.32 137.262 6.256C137.054 6.192 136.798 6.144 136.494 6.112H136.35C136.206 6.176 136.054 6.208 135.894 6.208C135.734 6.208 135.566 6.224 135.39 6.256C135.278 6.272 135.158 6.304 135.03 6.352C134.918 6.4 134.798 6.44 134.67 6.472C134.542 6.536 134.414 6.504 134.286 6.376C134.238 6.232 134.214 6.088 134.214 5.944C134.23 5.784 134.246 5.624 134.262 5.464C134.23 5.352 134.19 5.224 134.142 5.08C134.094 4.92 134.07 4.736 134.07 4.528L134.094 4.36C134.078 4.328 134.046 4.296 133.998 4.264C133.966 4.232 133.934 4.208 133.902 4.192C133.854 4.144 133.846 4.096 133.878 4.048C133.878 4 133.902 3.976 133.95 3.976C134.078 3.944 134.198 3.92 134.31 3.904C134.422 3.888 134.534 3.872 134.646 3.856L134.934 3.568C134.966 3.552 135.006 3.544 135.054 3.544C135.422 3.608 135.686 3.632 135.846 3.616C136.022 3.6 136.286 3.536 136.638 3.424C136.814 3.44 136.982 3.464 137.142 3.496C137.318 3.528 137.494 3.536 137.67 3.52C137.718 3.568 137.766 3.616 137.814 3.664C137.878 3.696 137.942 3.736 138.006 3.784C138.086 3.752 138.166 3.728 138.246 3.712C138.326 3.68 138.398 3.656 138.462 3.64C138.558 3.704 138.662 3.768 138.774 3.832C138.854 3.848 138.918 3.832 138.966 3.784C139.03 3.736 139.094 3.712 139.158 3.712C139.302 3.728 139.414 3.8 139.494 3.928C139.59 4.04 139.694 4.136 139.806 4.216C139.902 4.28 139.99 4.36 140.07 4.456C140.166 4.552 140.262 4.64 140.358 4.72C140.39 4.768 140.422 4.816 140.454 4.864C140.486 4.912 140.51 4.96 140.526 5.008C140.606 5.072 140.678 5.128 140.742 5.176C140.806 5.208 140.862 5.256 140.91 5.32C140.99 5.384 141.07 5.432 141.15 5.464C141.246 5.496 141.318 5.552 141.366 5.632C141.398 5.712 141.43 5.8 141.462 5.896C141.494 5.976 141.55 6.048 141.63 6.112C141.678 6.272 141.726 6.44 141.774 6.616C141.822 6.776 141.83 6.944 141.798 7.12C141.798 7.2 141.79 7.272 141.774 7.336C141.806 7.416 141.83 7.504 141.846 7.6C141.862 7.696 141.886 7.784 141.918 7.864V7.984C141.918 8.032 141.91 8.088 141.894 8.152C141.894 8.2 141.902 8.24 141.918 8.272C141.95 8.368 141.99 8.44 142.038 8.488C142.038 8.584 141.998 8.672 141.918 8.752C141.886 8.768 141.846 8.784 141.798 8.8C141.75 8.816 141.71 8.84 141.678 8.872C141.486 8.984 141.462 9.128 141.606 9.304C141.622 9.32 141.646 9.352 141.678 9.4C141.726 9.432 141.758 9.472 141.774 9.52C141.79 9.584 141.798 9.656 141.798 9.736C141.798 9.8 141.806 9.872 141.822 9.952C141.758 10.256 141.638 10.544 141.462 10.816C141.51 11.04 141.582 11.256 141.678 11.464C141.79 11.672 141.886 11.888 141.966 12.112C142.046 12.16 142.11 12.208 142.158 12.256C142.206 12.304 142.262 12.344 142.326 12.376C142.342 12.424 142.35 12.456 142.35 12.472C142.366 12.488 142.374 12.512 142.374 12.544C142.374 12.704 142.39 12.864 142.422 13.024C142.47 13.184 142.526 13.336 142.59 13.48C142.654 13.624 142.718 13.76 142.782 13.888C142.846 14.016 142.926 14.144 143.022 14.272C143.102 14.336 143.166 14.424 143.214 14.536C143.262 14.648 143.302 14.744 143.334 14.824ZM138.078 11.584C137.982 11.344 137.862 11.184 137.718 11.104C137.542 11.024 137.43 10.92 137.382 10.792C137.366 10.728 137.334 10.688 137.286 10.672C137.238 10.656 137.19 10.64 137.142 10.624C137.078 10.624 136.998 10.632 136.902 10.648C136.822 10.648 136.742 10.656 136.662 10.672C136.566 10.672 136.47 10.656 136.374 10.624C136.294 10.592 136.214 10.568 136.134 10.552C135.99 10.552 135.854 10.592 135.726 10.672C135.662 10.72 135.606 10.768 135.558 10.816C135.51 10.848 135.462 10.896 135.414 10.96L135.102 11.536C135.134 11.632 135.174 11.72 135.222 11.8C135.27 11.864 135.27 11.96 135.222 12.088C135.254 12.232 135.286 12.384 135.318 12.544C135.366 12.688 135.43 12.832 135.51 12.976C135.542 13.008 135.566 13.024 135.582 13.024C135.758 13.056 135.934 13.072 136.11 13.072C136.286 13.072 136.454 13.064 136.614 13.048C136.678 13.048 136.726 13.04 136.758 13.024C136.934 12.928 137.15 12.84 137.406 12.76C137.502 12.744 137.59 12.672 137.67 12.544C137.734 12.4 137.798 12.248 137.862 12.088C137.926 11.912 137.998 11.744 138.078 11.584ZM132.99 15.52C132.99 15.52 132.982 15.52 132.966 15.52C132.966 15.52 132.966 15.536 132.966 15.568C132.998 15.536 133.006 15.52 132.99 15.52ZM161.737 11.512C161.721 11.64 161.705 11.784 161.689 11.944C161.689 12.088 161.681 12.232 161.665 12.376C161.649 12.504 161.641 12.624 161.641 12.736C161.641 12.848 161.617 12.968 161.569 13.096C161.537 13.176 161.521 13.264 161.521 13.36C161.521 13.44 161.521 13.528 161.521 13.624C161.521 13.704 161.521 13.792 161.521 13.888C161.521 13.968 161.513 14.048 161.497 14.128C161.481 14.256 161.457 14.392 161.425 14.536C161.409 14.664 161.385 14.792 161.353 14.92C161.337 14.984 161.313 15.056 161.281 15.136C161.249 15.2 161.217 15.256 161.185 15.304L161.017 15.472C160.921 15.568 160.809 15.6 160.681 15.568C160.601 15.536 160.521 15.512 160.441 15.496C160.377 15.48 160.305 15.504 160.225 15.568C160.113 15.488 159.977 15.424 159.817 15.376H159.553C159.521 15.376 159.489 15.368 159.457 15.352C159.425 15.336 159.393 15.328 159.361 15.328C159.313 15.344 159.265 15.36 159.217 15.376C159.169 15.392 159.129 15.408 159.097 15.424C159.001 15.424 158.937 15.416 158.905 15.4C158.729 15.256 158.641 15.08 158.641 14.872C158.625 14.696 158.593 14.528 158.545 14.368C158.497 14.192 158.449 14.016 158.401 13.84C158.433 13.712 158.441 13.576 158.425 13.432C158.425 13.288 158.433 13.144 158.449 13C158.465 12.92 158.465 12.84 158.449 12.76C158.449 12.664 158.481 12.576 158.545 12.496C158.545 12.304 158.569 12.088 158.617 11.848C158.633 11.784 158.633 11.712 158.617 11.632C158.601 11.472 158.569 11.32 158.521 11.176C158.489 11.016 158.433 10.864 158.353 10.72C158.321 10.656 158.281 10.6 158.233 10.552C158.201 10.488 158.145 10.448 158.065 10.432C158.001 10.384 157.929 10.344 157.849 10.312C157.769 10.28 157.697 10.248 157.633 10.216C157.521 10.264 157.425 10.296 157.345 10.312C157.313 10.296 157.273 10.28 157.225 10.264C157.177 10.248 157.137 10.232 157.105 10.216C157.089 10.232 157.065 10.24 157.033 10.24C157.017 10.24 157.001 10.248 156.985 10.264C156.889 10.408 156.769 10.528 156.625 10.624C156.561 10.64 156.497 10.68 156.433 10.744C156.369 10.792 156.305 10.84 156.241 10.888C156.193 10.936 156.129 10.968 156.049 10.984C155.985 11 155.913 11.024 155.833 11.056C155.817 11.104 155.801 11.152 155.785 11.2C155.785 11.248 155.769 11.296 155.737 11.344C155.721 11.376 155.697 11.416 155.665 11.464C155.649 11.512 155.633 11.552 155.617 11.584C155.537 11.808 155.489 12.016 155.473 12.208C155.457 12.256 155.449 12.304 155.449 12.352C155.481 12.448 155.473 12.528 155.425 12.592C155.393 12.64 155.361 12.696 155.329 12.76C155.313 13.032 155.297 13.304 155.281 13.576C155.281 13.848 155.273 14.12 155.257 14.392C155.257 14.488 155.249 14.568 155.233 14.632C155.201 14.728 155.169 14.832 155.137 14.944C155.121 15.04 155.097 15.144 155.065 15.256L154.561 15.16C154.481 15.16 154.393 15.16 154.297 15.16C154.201 15.16 154.105 15.152 154.009 15.136H153.529C153.417 15.136 153.305 15.136 153.193 15.136C153.081 15.136 152.969 15.128 152.857 15.112C152.681 15.112 152.553 15.048 152.473 14.92C152.409 14.728 152.353 14.536 152.305 14.344C152.257 14.136 152.233 13.928 152.233 13.72C152.233 13.656 152.233 13.592 152.233 13.528C152.249 13.464 152.273 13.408 152.305 13.36C152.337 13.232 152.353 13.12 152.353 13.024C152.369 12.928 152.377 12.824 152.377 12.712C152.361 12.488 152.361 12.256 152.377 12.016C152.409 11.776 152.417 11.544 152.401 11.32C152.385 11.256 152.377 11.2 152.377 11.152C152.377 11.104 152.377 11.056 152.377 11.008C152.361 10.928 152.337 10.856 152.305 10.792C152.273 10.728 152.265 10.664 152.281 10.6C152.281 10.52 152.281 10.44 152.281 10.36C152.297 10.28 152.305 10.2 152.305 10.12C152.257 10.056 152.209 10 152.161 9.952C152.129 9.904 152.081 9.848 152.017 9.784C151.969 9.784 151.913 9.784 151.849 9.784C151.801 9.768 151.745 9.752 151.681 9.736C151.617 9.704 151.537 9.664 151.441 9.616C151.361 9.568 151.281 9.528 151.201 9.496C151.137 9.464 151.065 9.432 150.985 9.4C150.921 9.368 150.865 9.344 150.817 9.328C150.689 9.376 150.553 9.44 150.409 9.52C150.361 9.536 150.305 9.552 150.241 9.568C150.193 9.568 150.137 9.576 150.073 9.592C149.993 9.672 149.905 9.752 149.809 9.832C149.729 9.912 149.641 10 149.545 10.096C149.513 10.16 149.481 10.232 149.449 10.312C149.417 10.376 149.385 10.448 149.353 10.528C149.257 10.752 149.177 10.984 149.113 11.224C149.065 11.448 149.041 11.696 149.041 11.968V12.76C149.041 13.032 149.025 13.304 148.993 13.576C148.961 13.832 148.921 14.096 148.873 14.368C148.857 14.48 148.825 14.584 148.777 14.68C148.745 14.776 148.713 14.888 148.681 15.016C148.601 15.128 148.513 15.232 148.417 15.328C148.321 15.408 148.209 15.464 148.081 15.496C147.857 15.48 147.705 15.48 147.625 15.496C147.561 15.496 147.417 15.536 147.193 15.616C147.129 15.632 147.065 15.648 147.001 15.664C146.953 15.68 146.889 15.696 146.809 15.712C146.729 15.728 146.657 15.728 146.593 15.712C146.529 15.696 146.417 15.664 146.257 15.616C146.193 15.52 146.113 15.416 146.017 15.304C145.937 15.192 145.857 15.08 145.777 14.968C145.793 14.92 145.801 14.872 145.801 14.824C145.817 14.776 145.833 14.736 145.849 14.704C145.881 14.496 145.881 14.296 145.849 14.104C145.801 13.912 145.761 13.72 145.729 13.528C145.697 13.336 145.657 13.16 145.609 13C145.609 12.872 145.633 12.768 145.681 12.688C145.745 12.608 145.785 12.504 145.801 12.376C145.833 12.264 145.849 12.136 145.849 11.992C145.865 11.832 145.881 11.68 145.897 11.536C145.897 11.376 145.897 11.224 145.897 11.08C145.897 10.92 145.913 10.776 145.945 10.648C145.945 10.536 145.937 10.464 145.921 10.432C145.873 10.112 145.889 9.8 145.969 9.496C146.001 9.416 146.017 9.352 146.017 9.304C146.033 9.24 146.049 9.192 146.065 9.16C146.113 9.064 146.177 9 146.257 8.968C146.337 8.936 146.409 8.888 146.473 8.824C146.553 8.68 146.569 8.536 146.521 8.392C146.489 8.248 146.465 8.096 146.449 7.936C146.481 7.856 146.513 7.776 146.545 7.696C146.577 7.6 146.601 7.504 146.617 7.408C146.745 7.28 146.857 7.144 146.953 7C147.065 6.856 147.169 6.72 147.265 6.592C147.297 6.56 147.313 6.504 147.313 6.424C147.313 6.344 147.345 6.288 147.409 6.256C147.441 6.24 147.473 6.232 147.505 6.232C147.553 6.216 147.585 6.2 147.601 6.184C147.873 6.104 148.145 6.024 148.417 5.944C148.689 5.864 148.953 5.768 149.209 5.656C149.497 5.528 149.785 5.464 150.073 5.464C150.105 5.464 150.137 5.464 150.169 5.464C150.201 5.448 150.241 5.44 150.289 5.44C150.497 5.36 150.705 5.312 150.913 5.296C151.137 5.28 151.361 5.272 151.585 5.272H151.873C151.953 5.288 152.033 5.312 152.113 5.344C152.209 5.36 152.297 5.4 152.377 5.464C152.505 5.528 152.625 5.592 152.737 5.656C152.865 5.704 153.001 5.736 153.145 5.752C153.209 5.768 153.257 5.8 153.289 5.848C153.337 5.88 153.385 5.912 153.433 5.944C153.513 6.008 153.577 6.08 153.625 6.16C153.689 6.24 153.753 6.32 153.817 6.4C153.849 6.464 153.873 6.536 153.889 6.616C153.921 6.68 153.945 6.752 153.961 6.832C154.025 6.896 154.089 6.96 154.153 7.024C154.217 7.088 154.305 7.112 154.417 7.096C154.497 7.016 154.577 6.944 154.657 6.88C154.737 6.8 154.809 6.72 154.873 6.64C154.921 6.656 154.993 6.664 155.089 6.664L155.689 6.256C155.721 6.176 155.753 6.112 155.785 6.064C155.817 6.016 155.841 5.96 155.857 5.896C155.937 5.88 156.017 5.872 156.097 5.872C156.177 5.856 156.257 5.84 156.337 5.824C156.449 5.76 156.553 5.712 156.649 5.68C156.745 5.632 156.841 5.576 156.937 5.512C157.017 5.512 157.097 5.52 157.177 5.536C157.273 5.536 157.361 5.536 157.441 5.536C157.505 5.552 157.569 5.56 157.633 5.56C157.713 5.544 157.785 5.552 157.849 5.584C158.057 5.648 158.265 5.688 158.473 5.704C158.681 5.704 158.889 5.72 159.097 5.752C159.129 5.784 159.193 5.8 159.289 5.8L159.817 6.304C159.817 6.32 159.825 6.336 159.841 6.352C159.857 6.368 159.865 6.384 159.865 6.4C160.009 6.816 160.249 7.112 160.585 7.288C160.601 7.32 160.609 7.368 160.609 7.432C160.625 7.48 160.641 7.52 160.657 7.552C160.753 7.648 160.857 7.696 160.969 7.696C161.161 7.728 161.249 7.816 161.233 7.96C161.233 8.152 161.257 8.344 161.305 8.536C161.369 8.728 161.433 8.912 161.497 9.088L161.665 9.688C161.665 9.8 161.665 9.928 161.665 10.072C161.681 10.216 161.689 10.352 161.689 10.48C161.689 10.544 161.689 10.608 161.689 10.672C161.705 10.72 161.721 10.776 161.737 10.84C161.785 11.048 161.785 11.272 161.737 11.512ZM174.439 7.528C174.423 7.688 174.407 7.856 174.391 8.032C174.391 8.192 174.375 8.352 174.343 8.512C174.327 8.672 174.319 8.848 174.319 9.04C174.319 9.216 174.287 9.4 174.223 9.592C174.191 9.64 174.151 9.696 174.103 9.76C174.055 9.808 174.007 9.872 173.959 9.952C173.959 10.016 173.959 10.072 173.959 10.12C173.975 10.168 173.991 10.224 174.007 10.288C173.975 10.368 173.927 10.44 173.863 10.504C173.799 10.552 173.735 10.592 173.671 10.624C173.511 10.672 173.359 10.72 173.215 10.768C173.087 10.816 172.951 10.856 172.807 10.888C172.583 10.92 172.351 10.928 172.111 10.912C171.871 10.88 171.631 10.872 171.391 10.888C171.183 10.888 170.959 10.896 170.719 10.912C170.495 10.912 170.263 10.912 170.023 10.912H168.679C168.615 10.96 168.543 10.976 168.463 10.96C168.399 10.944 168.335 10.952 168.271 10.984C168.207 10.952 168.135 10.952 168.055 10.984C167.975 11 167.895 10.992 167.815 10.96C167.751 10.976 167.687 10.992 167.623 11.008C167.575 11.008 167.511 11.016 167.431 11.032C167.367 11.016 167.311 11 167.263 10.984C167.215 10.952 167.159 10.96 167.095 11.008C167.127 11.056 167.159 11.112 167.191 11.176C167.239 11.224 167.271 11.288 167.287 11.368C167.335 11.432 167.375 11.496 167.407 11.56C167.439 11.624 167.471 11.696 167.503 11.776C167.535 11.84 167.559 11.912 167.575 11.992C167.591 12.056 167.607 12.12 167.623 12.184C167.703 12.264 167.791 12.344 167.887 12.424C167.983 12.504 168.079 12.584 168.175 12.664C168.255 12.68 168.335 12.696 168.415 12.712C168.511 12.728 168.599 12.744 168.679 12.76C168.775 12.776 168.871 12.792 168.967 12.808C169.063 12.824 169.167 12.824 169.279 12.808C169.391 12.776 169.495 12.784 169.591 12.832C169.687 12.864 169.791 12.888 169.903 12.904C170.047 12.888 170.191 12.872 170.335 12.856C170.495 12.84 170.647 12.824 170.791 12.808C170.855 12.76 170.919 12.72 170.983 12.688C171.063 12.64 171.135 12.592 171.199 12.544C171.407 12.496 171.615 12.504 171.823 12.568C171.871 12.648 171.927 12.728 171.991 12.808C172.071 12.888 172.143 12.976 172.207 13.072C172.303 13.216 172.399 13.36 172.495 13.504C172.591 13.632 172.655 13.784 172.687 13.96C172.719 14.04 172.767 14.12 172.831 14.2C172.895 14.28 172.943 14.352 172.975 14.416C172.991 14.496 172.983 14.568 172.951 14.632C172.935 14.696 172.919 14.768 172.903 14.848C172.839 14.912 172.759 14.968 172.663 15.016C172.647 15.016 172.631 15.032 172.615 15.064C172.599 15.096 172.575 15.12 172.543 15.136C172.447 15.2 172.351 15.264 172.255 15.328C172.159 15.392 172.071 15.456 171.991 15.52C171.767 15.712 171.535 15.808 171.295 15.808C171.199 15.808 171.127 15.816 171.079 15.832C170.999 15.848 170.919 15.88 170.839 15.928C170.759 15.976 170.671 16.016 170.575 16.048C170.495 16.048 170.415 16.056 170.335 16.072C170.255 16.104 170.175 16.128 170.095 16.144C170.047 16.144 169.991 16.136 169.927 16.12C169.863 16.12 169.799 16.12 169.735 16.12C169.591 16.136 169.447 16.128 169.303 16.096C169.159 16.064 169.015 16.048 168.871 16.048C168.823 16.032 168.775 16.016 168.727 16C168.679 15.984 168.631 15.976 168.583 15.976C168.311 15.992 168.055 15.952 167.815 15.856C167.575 15.744 167.335 15.632 167.095 15.52C166.903 15.472 166.767 15.384 166.687 15.256C166.575 15.128 166.447 15.024 166.303 14.944C166.175 14.848 166.031 14.768 165.871 14.704C165.775 14.672 165.679 14.632 165.583 14.584C165.487 14.52 165.383 14.456 165.271 14.392C165.255 14.328 165.231 14.264 165.199 14.2C165.167 14.136 165.135 14.072 165.103 14.008C165.071 13.96 165.023 13.912 164.959 13.864C164.911 13.816 164.863 13.768 164.815 13.72C164.767 13.672 164.727 13.616 164.695 13.552C164.615 13.28 164.535 13.016 164.455 12.76C164.375 12.488 164.271 12.224 164.143 11.968C164.159 11.856 164.167 11.744 164.167 11.632C164.183 11.504 164.175 11.368 164.143 11.224C164.127 11.192 164.119 11.152 164.119 11.104C164.119 11.056 164.119 11.016 164.119 10.984C164.119 10.904 164.119 10.84 164.119 10.792C164.135 10.728 164.135 10.672 164.119 10.624C164.103 10.496 164.087 10.368 164.071 10.24C164.055 10.112 164.063 9.992 164.095 9.88C164.127 9.752 164.159 9.624 164.191 9.496C164.223 9.368 164.263 9.232 164.311 9.088C164.295 9.056 164.287 9.008 164.287 8.944C164.287 8.88 164.279 8.816 164.263 8.752C164.295 8.576 164.327 8.4 164.359 8.224C164.391 8.048 164.431 7.88 164.479 7.72C164.527 7.624 164.575 7.536 164.623 7.456C164.687 7.36 164.751 7.264 164.815 7.168C164.927 6.976 165.015 6.792 165.079 6.616C165.271 6.52 165.383 6.464 165.415 6.448C165.463 6.416 165.503 6.376 165.535 6.328C165.567 6.28 165.671 6.184 165.847 6.04C165.831 5.992 165.871 5.92 165.967 5.824C166.063 5.728 166.095 5.648 166.063 5.584C166.207 5.312 166.415 5.096 166.687 4.936C166.783 4.872 166.871 4.808 166.951 4.744C167.047 4.664 167.127 4.592 167.191 4.528C167.271 4.48 167.343 4.464 167.407 4.48C167.487 4.48 167.559 4.48 167.623 4.48C167.671 4.464 167.719 4.456 167.767 4.456C167.831 4.44 167.895 4.424 167.959 4.408C167.991 4.392 168.031 4.376 168.079 4.36C168.127 4.344 168.167 4.32 168.199 4.288C168.231 4.272 168.263 4.256 168.295 4.24C168.327 4.224 168.359 4.216 168.391 4.216C168.535 4.2 168.671 4.16 168.799 4.096C168.927 4.032 169.047 3.968 169.159 3.904C169.399 4 169.647 4.032 169.903 4C170.063 3.984 170.215 3.992 170.359 4.024C170.519 4.056 170.663 4.096 170.791 4.144L171.127 4.048C171.255 4.064 171.375 4.104 171.487 4.168C171.599 4.232 171.711 4.296 171.823 4.36H172.039C172.055 4.376 172.071 4.392 172.087 4.408C172.103 4.408 172.119 4.416 172.135 4.432C172.311 4.592 172.479 4.744 172.639 4.888C172.799 5.016 172.967 5.152 173.143 5.296C173.383 5.456 173.535 5.648 173.599 5.872C173.663 5.968 173.719 6.04 173.767 6.088C173.959 6.248 174.127 6.464 174.271 6.736C174.271 6.768 174.271 6.816 174.271 6.88C174.287 6.928 174.295 6.976 174.295 7.024C174.279 7.104 174.295 7.184 174.343 7.264C174.391 7.344 174.423 7.432 174.439 7.528ZM171.391 8.32V7.72C171.391 7.64 171.383 7.592 171.367 7.576C171.351 7.528 171.327 7.48 171.295 7.432C171.279 7.384 171.263 7.352 171.247 7.336V6.928L171.175 6.856C171.111 6.856 171.031 6.84 170.935 6.808C170.903 6.664 170.863 6.552 170.815 6.472C170.767 6.408 170.703 6.368 170.623 6.352C170.543 6.336 170.455 6.312 170.359 6.28C170.151 6.344 169.927 6.4 169.687 6.448C169.447 6.496 169.215 6.56 168.991 6.64C168.879 6.656 168.775 6.664 168.679 6.664C168.583 6.664 168.487 6.672 168.391 6.688C168.231 6.752 168.087 6.856 167.959 7C167.847 7.128 167.735 7.256 167.623 7.384C167.559 7.464 167.503 7.552 167.455 7.648C167.407 7.744 167.351 7.832 167.287 7.912C167.271 7.928 167.263 7.976 167.263 8.056C167.311 8.184 167.383 8.264 167.479 8.296C167.575 8.312 167.671 8.336 167.767 8.368C167.863 8.4 167.967 8.432 168.079 8.464C168.127 8.448 168.167 8.44 168.199 8.44C168.247 8.44 168.295 8.432 168.343 8.416C168.535 8.336 168.695 8.328 168.823 8.392C168.951 8.408 169.063 8.408 169.159 8.392C169.271 8.376 169.383 8.36 169.495 8.344C169.591 8.392 169.687 8.424 169.783 8.44C169.895 8.456 169.999 8.48 170.095 8.512C170.303 8.576 170.503 8.608 170.695 8.608C170.887 8.608 171.079 8.584 171.271 8.536C171.351 8.456 171.391 8.384 171.391 8.32Z" fill="#404040"/>
</svg>
