<svg width="157" height="16" viewBox="0 0 157 16" fill="none" xmlns="http://www.w3.org/2000/svg">
<path d="M13.248 4.68C13.264 4.808 13.248 4.936 13.2 5.064C13.168 5.176 13.128 5.288 13.08 5.4C12.984 5.4 12.904 5.408 12.84 5.424C12.776 5.456 12.752 5.512 12.768 5.592C12.8 5.672 12.792 5.744 12.744 5.808C12.712 5.872 12.68 5.944 12.648 6.024C12.616 6.104 12.584 6.168 12.552 6.216C12.536 6.328 12.56 6.416 12.624 6.48C12.704 6.544 12.744 6.624 12.744 6.72C12.76 6.784 12.752 6.848 12.72 6.912C12.704 6.96 12.68 7.016 12.648 7.08C12.616 7.144 12.576 7.2 12.528 7.248C12.496 7.296 12.464 7.352 12.432 7.416C12.384 7.496 12.328 7.584 12.264 7.68C12.216 7.776 12.168 7.864 12.12 7.944C12.056 8.008 11.976 8.072 11.88 8.136C11.8 8.2 11.72 8.264 11.64 8.328C11.608 8.376 11.576 8.432 11.544 8.496C11.512 8.544 11.48 8.608 11.448 8.688C11.192 8.896 10.936 9.104 10.68 9.312C10.424 9.52 10.16 9.712 9.888 9.888C9.696 9.952 9.496 10.008 9.288 10.056C9.08 10.088 8.872 10.12 8.664 10.152C8.504 10.168 8.344 10.192 8.184 10.224C8.024 10.256 7.856 10.296 7.68 10.344C7.584 10.36 7.488 10.376 7.392 10.392C7.296 10.392 7.184 10.392 7.056 10.392C6.848 10.408 6.64 10.424 6.432 10.44C6.24 10.44 6.056 10.44 5.88 10.44C5.688 10.52 5.584 10.616 5.568 10.728C5.552 10.824 5.528 10.92 5.496 11.016C5.464 11.112 5.432 11.208 5.4 11.304C5.4 11.512 5.384 11.728 5.352 11.952C5.336 12.176 5.336 12.392 5.352 12.6C5.352 12.68 5.344 12.736 5.328 12.768C5.328 12.864 5.32 12.968 5.304 13.08C5.304 13.176 5.304 13.272 5.304 13.368C5.304 13.464 5.304 13.56 5.304 13.656C5.32 13.736 5.336 13.816 5.352 13.896C5.4 14.2 5.36 14.504 5.232 14.808C5.232 14.888 5.216 14.96 5.184 15.024C5.136 15.152 5.048 15.2 4.92 15.168C4.68 15.088 4.44 15.04 4.2 15.024C3.976 15.024 3.736 15.04 3.48 15.072H3.168C2.944 15.184 2.712 15.256 2.472 15.288C2.232 15.32 1.984 15.344 1.728 15.36C1.584 15.36 1.496 15.312 1.464 15.216C1.464 15.216 1.456 15.208 1.44 15.192C1.44 15.192 1.44 15.184 1.44 15.168C1.408 14.768 1.368 14.36 1.32 13.944C1.272 13.528 1.256 13.12 1.272 12.72C1.272 12.64 1.264 12.56 1.248 12.48C1.248 12.4 1.24 12.328 1.224 12.264C1.192 12.088 1.168 11.912 1.152 11.736C1.136 11.544 1.12 11.36 1.104 11.184C1.104 11.12 1.104 11.056 1.104 10.992C1.104 10.928 1.088 10.864 1.056 10.8C0.992 10.672 0.96 10.536 0.96 10.392C0.976 10.248 0.984 10.12 0.984 10.008C1.032 9.896 1.064 9.808 1.08 9.744C1.096 9.664 1.112 9.576 1.128 9.48C1.08 9.416 1.056 9.36 1.056 9.312C1.072 9.248 1.064 9.192 1.032 9.144C1.032 9.112 1.024 9.088 1.008 9.072C0.992 9.04 0.984 9.016 0.984 9C0.968 8.6 0.952 8.144 0.936 7.632C0.936 7.12 0.936 6.64 0.936 6.192C0.952 5.744 0.968 5.424 0.984 5.232C1.016 5.168 1.048 5.112 1.08 5.064C1.128 5.016 1.16 4.968 1.176 4.92C1.176 4.872 1.16 4.84 1.128 4.824C1.096 4.792 1.064 4.768 1.032 4.752C1.064 4.608 1.096 4.464 1.128 4.32C1.176 4.176 1.216 4.032 1.248 3.888C1.232 3.808 1.216 3.736 1.2 3.672C1.184 3.608 1.16 3.544 1.128 3.48C1.176 3.368 1.224 3.24 1.272 3.096C1.256 2.968 1.24 2.824 1.224 2.664C1.224 2.504 1.208 2.336 1.176 2.16C1.208 2.112 1.232 2.048 1.248 1.968C1.264 1.872 1.288 1.784 1.32 1.704C1.352 1.624 1.352 1.544 1.32 1.464C1.304 1.384 1.32 1.312 1.368 1.248C1.464 1.216 1.544 1.208 1.608 1.224C1.64 1.24 1.68 1.264 1.728 1.296C1.776 1.312 1.816 1.328 1.848 1.344H2.016C2.208 1.28 2.4 1.224 2.592 1.176C2.8 1.112 2.992 1.04 3.168 0.959999C3.28 0.895999 3.408 0.879999 3.552 0.912C3.648 0.927999 3.736 0.943999 3.816 0.959999C3.912 0.959999 4 0.943999 4.08 0.912C4.192 0.896 4.296 0.888 4.392 0.888C4.504 0.871999 4.616 0.863999 4.728 0.863999C5.032 0.863999 5.336 0.839999 5.64 0.792C5.944 0.743999 6.248 0.687999 6.552 0.623999C6.68 0.575999 6.816 0.559999 6.96 0.576C7.104 0.592 7.24 0.592 7.368 0.576C7.48 0.607999 7.592 0.647999 7.704 0.696C7.816 0.727999 7.928 0.759999 8.04 0.792C8.152 0.823999 8.264 0.855999 8.376 0.888C8.488 0.904 8.616 0.927999 8.76 0.959999C9 0.895999 9.256 0.871999 9.528 0.888C9.8 0.888 10.064 0.896 10.32 0.912C10.464 0.927999 10.6 0.96 10.728 1.008C10.872 1.056 11 1.12 11.112 1.2C11.272 1.264 11.448 1.368 11.64 1.512C11.72 1.576 11.792 1.648 11.856 1.728C11.936 1.792 12.008 1.864 12.072 1.944C12.104 1.96 12.128 1.992 12.144 2.04C12.16 2.072 12.176 2.104 12.192 2.136C12.224 2.248 12.28 2.336 12.36 2.4C12.44 2.464 12.512 2.536 12.576 2.616C12.864 3.048 13.008 3.544 13.008 4.104C13.04 4.2 13.08 4.304 13.128 4.416C13.176 4.512 13.216 4.6 13.248 4.68ZM9.384 5.016C9.368 4.92 9.336 4.824 9.288 4.728C9.256 4.632 9.224 4.536 9.192 4.44C9.176 4.392 9.152 4.352 9.12 4.32C9.104 4.288 9.088 4.264 9.072 4.248C9.04 4.168 8.976 4.144 8.88 4.176C8.848 4.208 8.816 4.232 8.784 4.248C8.752 4.264 8.72 4.288 8.688 4.32C8.608 4.336 8.528 4.352 8.448 4.368C8.384 4.368 8.312 4.376 8.232 4.392H7.944C7.896 4.36 7.84 4.328 7.776 4.296C7.728 4.248 7.664 4.2 7.584 4.152C7.472 4.136 7.344 4.128 7.2 4.128C7.072 4.112 6.944 4.112 6.816 4.128C6.512 4.192 6.272 4.312 6.096 4.488C6 4.456 5.92 4.44 5.856 4.44C5.808 4.408 5.76 4.4 5.712 4.416C5.664 4.432 5.616 4.44 5.568 4.44C5.472 4.488 5.384 4.544 5.304 4.608C5.224 4.672 5.16 4.76 5.112 4.872C5.096 4.936 5.072 5.008 5.04 5.088C5.024 5.152 5.016 5.224 5.016 5.304C5 5.464 4.984 5.632 4.968 5.808C4.968 5.968 4.96 6.136 4.944 6.312C4.944 6.408 4.936 6.512 4.92 6.624C4.92 6.72 4.928 6.816 4.944 6.912C4.944 6.928 4.952 6.96 4.968 7.008C4.984 7.056 5 7.096 5.016 7.128C5.24 7.096 5.448 7.08 5.64 7.08C5.832 7.064 6.016 7.072 6.192 7.104C6.368 7.152 6.544 7.184 6.72 7.2C6.912 7.216 7.088 7.248 7.248 7.296C7.328 7.312 7.424 7.304 7.536 7.272C7.632 7.192 7.72 7.112 7.8 7.032C7.896 6.952 7.992 6.872 8.088 6.792C8.168 6.776 8.24 6.768 8.304 6.768C8.384 6.752 8.456 6.736 8.52 6.72C8.616 6.64 8.712 6.56 8.808 6.48C8.904 6.384 8.992 6.296 9.072 6.216C9.104 6.104 9.128 6 9.144 5.904C9.176 5.808 9.2 5.704 9.216 5.592C9.248 5.496 9.28 5.408 9.312 5.328C9.36 5.232 9.384 5.128 9.384 5.016ZM26.9783 13.968C27.0103 14.048 26.9863 14.16 26.9063 14.304C26.7783 14.32 26.6423 14.32 26.4983 14.304C26.3703 14.272 26.2423 14.24 26.1143 14.208C25.9063 14.288 25.7623 14.344 25.6823 14.376C25.6183 14.408 25.5543 14.424 25.4903 14.424C25.4263 14.408 25.2983 14.4 25.1063 14.4C25.0583 14.416 25.0103 14.44 24.9623 14.472C24.9303 14.504 24.8823 14.536 24.8183 14.568C24.8183 14.568 24.8103 14.576 24.7943 14.592C24.7943 14.592 24.7863 14.592 24.7703 14.592C24.6103 14.592 24.4503 14.6 24.2903 14.616C24.1303 14.616 23.9783 14.616 23.8343 14.616C23.7383 14.52 23.6743 14.448 23.6423 14.4C23.6263 14.352 23.5943 14.24 23.5463 14.064C23.5143 13.968 23.4423 13.856 23.3303 13.728C23.1703 13.552 23.0023 13.312 22.8263 13.008C22.6663 12.704 22.5383 12.448 22.4423 12.24L22.3223 12.12C22.2583 12.12 22.2103 12.136 22.1783 12.168C21.9223 12.328 21.6823 12.352 21.4583 12.24C21.3143 12.208 21.1703 12.192 21.0263 12.192C20.8983 12.192 20.7623 12.192 20.6183 12.192C20.5063 12.176 20.3943 12.176 20.2823 12.192C20.1703 12.208 20.0503 12.216 19.9223 12.216C19.8263 12.216 19.7223 12.216 19.6103 12.216C19.5143 12.2 19.4183 12.192 19.3223 12.192C19.1943 12.208 19.0583 12.232 18.9143 12.264C18.7863 12.296 18.6583 12.344 18.5303 12.408C18.4183 12.472 18.2983 12.512 18.1703 12.528C18.0583 12.544 17.9383 12.56 17.8103 12.576C17.6343 12.576 17.4583 12.6 17.2823 12.648C17.1223 12.68 16.9543 12.72 16.7783 12.768C16.7303 12.784 16.6743 12.808 16.6103 12.84C16.5623 12.856 16.5223 12.896 16.4903 12.96C16.4903 13.04 16.4823 13.128 16.4663 13.224C16.4663 13.304 16.4663 13.392 16.4663 13.488C16.4183 13.632 16.3863 13.784 16.3703 13.944C16.3063 14.168 16.2023 14.36 16.0583 14.52C15.9303 14.68 15.7943 14.84 15.6503 15C15.5863 15 15.5223 15 15.4583 15C15.4103 14.984 15.3543 14.976 15.2903 14.976C15.2423 14.976 15.1863 14.984 15.1223 15C15.0743 15 15.0183 15.008 14.9543 15.024C14.7783 15.04 14.5943 15.016 14.4023 14.952C14.3863 14.936 14.3703 14.936 14.3543 14.952C14.3543 14.952 14.3383 14.952 14.3063 14.952H14.1863L14.1383 14.928C14.1223 14.896 14.0983 14.888 14.0663 14.904C14.0503 14.904 14.0023 14.896 13.9223 14.88C13.8263 14.848 13.7383 14.832 13.6583 14.832C13.5943 14.832 13.5383 14.832 13.4903 14.832C13.4423 14.832 13.3783 14.824 13.2983 14.808C13.2663 14.792 13.2183 14.784 13.1543 14.784C13.0903 14.768 13.0183 14.744 12.9383 14.712C12.8903 14.696 12.8503 14.696 12.8183 14.712C12.8023 14.712 12.7703 14.704 12.7223 14.688L12.6503 14.664H12.6023L12.5543 14.64C12.5863 14.416 12.6183 14.2 12.6503 13.992C12.6983 13.768 12.7783 13.552 12.8903 13.344C12.9223 13.28 12.9463 13.224 12.9623 13.176C12.9783 13.128 12.9863 13.072 12.9863 13.008L13.0583 12.6C13.1063 12.52 13.1543 12.432 13.2023 12.336C13.2503 12.24 13.2983 12.16 13.3463 12.096C13.3783 12 13.3783 11.904 13.3463 11.808C13.3303 11.712 13.3543 11.624 13.4183 11.544C13.4663 11.464 13.4903 11.384 13.4903 11.304C13.5063 11.224 13.5463 11.16 13.6103 11.112C13.6743 10.984 13.7303 10.864 13.7783 10.752C13.8423 10.624 13.8903 10.496 13.9223 10.368C13.9383 10.352 13.9463 10.32 13.9463 10.272C13.9943 9.936 14.1303 9.648 14.3543 9.408C14.3383 9.344 14.3303 9.288 14.3303 9.24C14.3303 9.176 14.3303 9.128 14.3303 9.096C14.3623 9 14.4183 8.912 14.4983 8.832C14.5783 8.752 14.6503 8.68 14.7143 8.616C14.7943 8.52 14.8663 8.424 14.9303 8.328C14.9943 8.232 15.0343 8.128 15.0503 8.016C15.1143 7.776 15.2023 7.552 15.3143 7.344C15.4263 7.136 15.5623 6.936 15.7223 6.744C15.8183 6.616 15.8983 6.48 15.9623 6.336C16.0423 6.176 16.1223 6.016 16.2023 5.856C16.2663 5.728 16.3223 5.592 16.3703 5.448C16.4343 5.304 16.4743 5.16 16.4903 5.016C16.6183 4.856 16.7063 4.736 16.7543 4.656C16.8023 4.56 16.8423 4.456 16.8743 4.344C16.9223 4.216 16.9783 4.024 17.0423 3.768C17.0743 3.736 17.1143 3.712 17.1623 3.696C17.2263 3.664 17.2663 3.616 17.2823 3.552C17.2823 3.488 17.3223 3.44 17.4023 3.408C17.5303 3.328 17.6183 3.216 17.6663 3.072C17.7143 2.944 17.7783 2.832 17.8583 2.736C17.9543 2.624 18.0423 2.52 18.1223 2.424C18.2023 2.344 18.2503 2.264 18.2663 2.184C18.3463 1.96 18.4503 1.76 18.5783 1.584C18.7223 1.392 18.8423 1.2 18.9383 1.008C19.0183 0.944 19.0903 0.912 19.1543 0.912C19.2183 0.896 19.2823 0.888 19.3463 0.888H19.4183C19.5783 0.951999 19.7463 0.999999 19.9223 1.032C20.0343 1.048 20.1383 1.056 20.2343 1.056C20.3303 1.056 20.4103 1.056 20.4743 1.056C20.5223 1.056 20.5703 1.056 20.6183 1.056C20.6663 1.056 20.7143 1.064 20.7623 1.08C20.9703 1.144 21.1863 1.176 21.4103 1.176C21.6343 1.176 21.8503 1.184 22.0583 1.2C22.3303 1.392 22.5623 1.576 22.7543 1.752C22.9463 1.928 23.0983 2.232 23.2103 2.664C23.2263 2.68 23.2503 2.696 23.2823 2.712C23.3143 2.728 23.3383 2.752 23.3543 2.784C23.3863 2.8 23.4183 2.816 23.4503 2.832C23.4823 2.848 23.5143 2.872 23.5463 2.904C23.5783 2.968 23.6023 3.04 23.6183 3.12C23.6503 3.184 23.6823 3.256 23.7143 3.336C23.7463 3.4 23.7863 3.472 23.8343 3.552C23.8823 3.616 23.9383 3.688 24.0023 3.768C24.0343 3.928 24.0823 4.088 24.1463 4.248C24.2263 4.408 24.2583 4.592 24.2423 4.8L24.4103 5.04C24.4103 5.12 24.4103 5.208 24.4103 5.304C24.4263 5.384 24.4343 5.472 24.4343 5.568C24.5143 5.616 24.5543 5.68 24.5543 5.76C24.5703 5.84 24.5863 5.928 24.6023 6.024C24.6503 6.088 24.6983 6.16 24.7463 6.24C24.7943 6.304 24.8423 6.368 24.8903 6.432C24.9223 6.544 24.9543 6.656 24.9863 6.768C25.0183 6.864 25.0423 6.96 25.0583 7.056C25.0423 7.12 25.0263 7.184 25.0103 7.248C25.0103 7.312 25.0023 7.376 24.9863 7.44C25.0183 7.6 25.0743 7.744 25.1543 7.872C25.2503 7.984 25.3383 8.104 25.4183 8.232C25.4983 8.536 25.5703 8.848 25.6343 9.168C25.7143 9.472 25.7703 9.784 25.8023 10.104C25.9783 10.328 26.0823 10.568 26.1143 10.824C26.1623 11.08 26.2183 11.344 26.2823 11.616C26.3143 11.728 26.3303 11.84 26.3303 11.952C26.3303 12.048 26.3383 12.152 26.3543 12.264C26.3863 12.36 26.4583 12.488 26.5703 12.648C26.6823 12.792 26.7703 12.904 26.8343 12.984C26.8343 13.144 26.8423 13.312 26.8583 13.488C26.8743 13.648 26.9143 13.808 26.9783 13.968ZM21.1943 8.904C21.1783 8.792 21.1383 8.696 21.0743 8.616C21.0103 8.52 20.9943 8.416 21.0263 8.304C20.9623 8.192 20.9303 8.056 20.9303 7.896C20.9303 7.736 20.9463 7.648 20.9783 7.632C20.9623 7.6 20.9543 7.552 20.9543 7.488C20.8903 7.408 20.8263 7.336 20.7623 7.272C20.7143 7.208 20.6663 7.136 20.6183 7.056C20.6183 7.072 20.5863 7.048 20.5223 6.984C20.4423 6.968 20.3783 6.92 20.3303 6.84C20.3143 6.792 20.2903 6.744 20.2583 6.696C20.2423 6.648 20.2103 6.616 20.1623 6.6C20.0983 6.6 20.0503 6.624 20.0183 6.672C19.9863 6.704 19.9383 6.736 19.8743 6.768C19.8103 6.784 19.7463 6.8 19.6823 6.816C19.6343 6.832 19.5783 6.848 19.5143 6.864C19.4023 6.96 19.3303 7.088 19.2983 7.248V7.536C19.2343 7.648 19.1623 7.744 19.0823 7.824C19.0183 7.904 18.9703 7.992 18.9383 8.088C18.8903 8.312 18.8183 8.512 18.7223 8.688C18.7223 8.8 18.6983 8.904 18.6503 9C18.6023 9.08 18.5623 9.168 18.5303 9.264C18.5143 9.28 18.5063 9.328 18.5063 9.408C18.5063 9.504 18.5623 9.552 18.6743 9.552C18.7383 9.552 18.8023 9.552 18.8663 9.552C18.9303 9.536 18.9943 9.528 19.0583 9.528C19.0903 9.544 19.1303 9.568 19.1783 9.6C19.2263 9.616 19.2663 9.632 19.2983 9.648C19.5383 9.616 19.7623 9.568 19.9703 9.504C20.1943 9.44 20.4103 9.368 20.6183 9.288C20.7143 9.208 20.8183 9.152 20.9303 9.12C21.0423 9.088 21.1303 9.016 21.1943 8.904ZM39.5879 3.024C39.5719 3.088 39.5479 3.152 39.5159 3.216C39.4999 3.264 39.4759 3.312 39.4439 3.36C39.3639 3.472 39.2999 3.584 39.2519 3.696C39.2039 3.808 39.1639 3.92 39.1319 4.032C39.0359 4.144 38.9319 4.224 38.8199 4.272C38.7079 4.304 38.5959 4.344 38.4839 4.392C38.3559 4.488 38.2599 4.608 38.1959 4.752C38.1479 4.88 38.0839 5 38.0039 5.112C37.9079 5.176 37.8119 5.24 37.7159 5.304C37.6359 5.352 37.5559 5.4 37.4759 5.448L36.9959 5.784C36.9479 5.784 36.8999 5.792 36.8519 5.808C36.8199 5.808 36.7799 5.808 36.7319 5.808C36.6199 5.92 36.5079 6.048 36.3959 6.192C36.2999 6.32 36.2119 6.448 36.1319 6.576C36.0839 6.672 36.0199 6.76 35.9399 6.84C35.8599 6.904 35.7959 6.976 35.7479 7.056C35.7319 7.104 35.7239 7.176 35.7239 7.272C35.5639 7.336 35.4039 7.4 35.2439 7.464C35.0999 7.528 34.9639 7.6 34.8359 7.68C34.7399 7.84 34.6919 8.008 34.6919 8.184C34.7079 8.344 34.7079 8.512 34.6919 8.688C34.6759 8.816 34.6359 8.92 34.5719 9C34.5079 9.08 34.4839 9.192 34.4999 9.336C34.5159 9.352 34.5239 9.4 34.5239 9.48C34.5239 9.544 34.5479 9.592 34.5959 9.624C34.6279 9.656 34.6439 9.72 34.6439 9.816C34.6599 9.896 34.6679 9.976 34.6679 10.056C34.6839 10.136 34.7079 10.208 34.7399 10.272C34.7719 10.32 34.7719 10.384 34.7399 10.464C34.7239 10.528 34.7159 10.592 34.7159 10.656C34.7159 10.72 34.7159 10.776 34.7159 10.824C34.7319 11.032 34.7399 11.24 34.7399 11.448C34.7559 11.656 34.7479 11.864 34.7159 12.072C34.7159 12.136 34.7239 12.208 34.7399 12.288C34.7719 12.368 34.7959 12.448 34.8119 12.528C34.8439 12.624 34.8519 12.712 34.8359 12.792C34.8359 12.872 34.8359 12.96 34.8359 13.056C34.8519 13.12 34.8599 13.192 34.8599 13.272C34.8759 13.352 34.8919 13.432 34.9079 13.512C34.9399 13.576 34.9559 13.648 34.9559 13.728C34.9719 13.808 34.9799 13.88 34.9799 13.944C34.9799 14.008 34.9879 14.064 35.0039 14.112C35.0199 14.144 35.0359 14.192 35.0519 14.256C35.0199 14.288 34.9799 14.328 34.9319 14.376C34.8839 14.424 34.8439 14.472 34.8119 14.52C34.7639 14.584 34.7239 14.648 34.6919 14.712C34.6759 14.76 34.6519 14.8 34.6199 14.832C34.5559 14.896 34.4839 14.928 34.4039 14.928C34.3239 14.928 34.2439 14.936 34.1639 14.952C34.0999 14.968 34.0359 14.976 33.9719 14.976C33.9079 14.976 33.8519 14.976 33.8039 14.976C33.6759 15.024 33.5879 15.064 33.5399 15.096C33.5079 15.144 33.4599 15.208 33.3959 15.288C33.2839 15.288 33.2039 15.272 33.1559 15.24C33.1079 15.224 33.0439 15.208 32.9639 15.192C32.8839 15.16 32.8039 15.152 32.7239 15.168C32.6439 15.2 32.5639 15.224 32.4839 15.24C32.3719 15.24 32.2599 15.232 32.1479 15.216C32.0359 15.216 31.9319 15.184 31.8359 15.12C31.7719 15.072 31.7079 15.04 31.6439 15.024C31.5959 15.008 31.5399 14.992 31.4759 14.976C31.4119 14.976 31.3559 14.976 31.3079 14.976C31.2759 14.96 31.2279 14.952 31.1639 14.952C31.1479 14.856 31.1239 14.768 31.0919 14.688C31.0599 14.592 31.0439 14.496 31.0439 14.4C31.0439 14.176 31.0199 13.968 30.9719 13.776C30.9239 13.584 30.8679 13.392 30.8039 13.2C30.8359 13.056 30.8439 12.96 30.8279 12.912C30.7959 12.784 30.7959 12.664 30.8279 12.552C30.8759 12.44 30.8679 12.328 30.8039 12.216C30.7399 11.928 30.7079 11.64 30.7079 11.352C30.7239 11.048 30.7319 10.744 30.7319 10.44C30.7319 10.408 30.7399 10.368 30.7559 10.32C30.7719 10.256 30.7879 10.2 30.8039 10.152C30.7879 9.928 30.7639 9.712 30.7319 9.504C30.6999 9.296 30.6439 9.096 30.5639 8.904C30.5799 8.824 30.5879 8.76 30.5879 8.712C30.5879 8.648 30.5959 8.6 30.6119 8.568C30.6919 8.36 30.7159 8.16 30.6839 7.968C30.6519 7.76 30.5959 7.552 30.5159 7.344C30.4999 7.264 30.4759 7.184 30.4439 7.104C30.4119 7.024 30.3719 6.936 30.3239 6.84C30.2919 6.808 30.2599 6.768 30.2279 6.72C30.1959 6.656 30.1479 6.6 30.0839 6.552C30.0039 6.472 29.9079 6.392 29.7959 6.312C29.6999 6.232 29.6119 6.144 29.5319 6.048C29.4519 5.968 29.3639 5.888 29.2679 5.808C29.1879 5.728 29.1079 5.648 29.0279 5.568C28.9479 5.488 28.8599 5.432 28.7639 5.4C28.6839 5.368 28.6039 5.32 28.5239 5.256C28.4119 5.016 28.2999 4.752 28.1879 4.464C27.9479 4.288 27.7079 4.096 27.4679 3.888C27.2279 3.68 27.0279 3.408 26.8679 3.072C26.8999 2.928 26.9479 2.784 27.0119 2.64C27.0919 2.48 27.1799 2.328 27.2759 2.184C27.3079 2.152 27.3399 2.112 27.3719 2.064C27.4199 2.016 27.4519 1.984 27.4679 1.968C27.5959 1.84 27.7079 1.712 27.8039 1.584C27.9159 1.456 28.0199 1.328 28.1159 1.2C28.1959 1.216 28.2679 1.224 28.3319 1.224C28.3959 1.224 28.4599 1.232 28.5239 1.248C28.5559 1.216 28.5799 1.192 28.5959 1.176C28.6279 1.16 28.6519 1.128 28.6679 1.08C28.7159 1.048 28.7559 1 28.7879 0.935999C28.8199 0.871999 28.8439 0.815999 28.8599 0.767999C28.9559 0.639999 29.0679 0.608 29.1959 0.672C29.5799 0.832 29.9879 1.008 30.4199 1.2C30.4999 1.28 30.5799 1.368 30.6599 1.464C30.7399 1.544 30.8119 1.624 30.8759 1.704C30.9719 1.816 31.0839 1.92 31.2119 2.016C31.3399 2.112 31.4359 2.232 31.4999 2.376C31.6119 2.456 31.7239 2.544 31.8359 2.64C31.9639 2.72 32.0919 2.808 32.2199 2.904C32.2679 2.984 32.3319 3.08 32.4119 3.192C32.4919 3.304 32.5799 3.432 32.6759 3.576C32.7239 3.608 32.7879 3.656 32.8679 3.72C32.9479 3.784 33.0199 3.84 33.0839 3.888C33.1959 3.936 33.2999 3.984 33.3959 4.032C33.4919 4.08 33.5879 4.12 33.6839 4.152C33.7799 4.184 33.8759 4.176 33.9719 4.128C34.0679 4.064 34.1639 4.008 34.2599 3.96C34.3719 3.896 34.4839 3.848 34.5959 3.816C34.6279 3.816 34.6599 3.8 34.6919 3.768C34.7239 3.736 34.7559 3.712 34.7879 3.696C34.8359 3.632 34.8919 3.568 34.9559 3.504C35.0199 3.44 35.0839 3.368 35.1479 3.288C35.2599 3.08 35.4439 2.912 35.6999 2.784C35.7639 2.736 35.8279 2.696 35.8919 2.664C35.9559 2.632 36.0199 2.6 36.0839 2.568C36.2119 2.392 36.3319 2.224 36.4439 2.064C36.5559 1.888 36.6599 1.712 36.7559 1.536C36.7879 1.488 36.8199 1.448 36.8519 1.416C36.8839 1.368 36.9159 1.336 36.9479 1.32C37.0759 1.256 37.1719 1.176 37.2359 1.08C37.2999 0.983999 37.3799 0.903999 37.4759 0.839999C37.6519 0.791999 37.7959 0.839999 37.9079 0.983999C37.9559 1.048 38.0039 1.12 38.0519 1.2C38.0999 1.264 38.1559 1.344 38.2199 1.44C38.3639 1.504 38.4919 1.592 38.6039 1.704C38.7319 1.816 38.8519 1.936 38.9639 2.064C38.9959 2.112 39.0199 2.168 39.0359 2.232C39.0679 2.28 39.0919 2.344 39.1079 2.424C39.2999 2.536 39.4599 2.656 39.5879 2.784C39.5879 2.816 39.5879 2.856 39.5879 2.904C39.6039 2.936 39.6039 2.976 39.5879 3.024ZM49.947 1.944C49.995 2.056 50.019 2.176 50.019 2.304C50.035 2.432 50.003 2.56 49.923 2.688C49.891 2.752 49.875 2.816 49.875 2.88C49.891 2.928 49.899 2.992 49.899 3.072C49.867 3.12 49.827 3.168 49.779 3.216C49.731 3.248 49.691 3.296 49.659 3.36C49.627 3.392 49.595 3.432 49.563 3.48C49.547 3.528 49.507 3.568 49.443 3.6C49.363 3.584 49.267 3.576 49.155 3.576C49.043 3.576 48.939 3.576 48.843 3.576C48.603 3.576 48.387 3.64 48.195 3.768C48.131 3.832 48.067 3.88 48.003 3.912C47.939 3.928 47.875 3.952 47.811 3.984C47.715 4.08 47.683 4.176 47.715 4.272V4.728C47.731 4.872 47.747 5.016 47.763 5.16C47.795 5.288 47.803 5.432 47.787 5.592C47.771 5.624 47.771 5.672 47.787 5.736C47.803 5.784 47.819 5.824 47.835 5.856C47.819 5.92 47.795 5.976 47.763 6.024C47.747 6.056 47.731 6.104 47.715 6.168C47.731 6.232 47.747 6.296 47.763 6.36C47.779 6.408 47.795 6.464 47.811 6.528C47.811 6.608 47.803 6.664 47.787 6.696C47.755 6.792 47.723 6.888 47.691 6.984C47.675 7.08 47.651 7.176 47.619 7.272C47.571 7.384 47.563 7.488 47.595 7.584C47.627 7.68 47.619 7.776 47.571 7.872C47.571 8.208 47.555 8.536 47.523 8.856C47.491 9.176 47.467 9.496 47.451 9.816C47.451 10.232 47.523 10.656 47.667 11.088C47.731 11.232 47.835 11.304 47.979 11.304C48.011 11.288 48.043 11.264 48.075 11.232C48.123 11.2 48.171 11.176 48.219 11.16C48.267 11.16 48.307 11.176 48.339 11.208C48.467 11.352 48.611 11.448 48.771 11.496C49.027 11.56 49.099 11.688 48.987 11.88C48.939 11.992 48.915 12.112 48.915 12.24C48.931 12.368 48.931 12.496 48.915 12.624C48.883 12.976 48.867 13.336 48.867 13.704C48.867 14.056 48.891 14.416 48.939 14.784C48.939 14.96 48.923 15.072 48.891 15.12C48.875 15.184 48.779 15.28 48.603 15.408H48.531C48.403 15.392 48.275 15.376 48.147 15.36C48.035 15.344 47.923 15.328 47.811 15.312C47.507 15.36 47.235 15.384 46.995 15.384C46.883 15.4 46.771 15.424 46.659 15.456C46.563 15.504 46.451 15.52 46.323 15.504C46.195 15.472 46.067 15.472 45.939 15.504C45.811 15.536 45.683 15.552 45.555 15.552C45.491 15.52 45.427 15.496 45.363 15.48C45.315 15.464 45.251 15.44 45.171 15.408C44.787 15.472 44.403 15.512 44.019 15.528C43.635 15.544 43.243 15.56 42.843 15.576C42.763 15.464 42.683 15.36 42.603 15.264C42.523 15.184 42.451 15.096 42.387 15C42.355 14.888 42.291 14.792 42.195 14.712C42.115 14.632 42.035 14.56 41.955 14.496C41.939 14.336 41.907 14.184 41.859 14.04C41.827 13.912 41.827 13.784 41.859 13.656C41.907 13.576 41.923 13.496 41.907 13.416C41.875 13.272 41.867 13.128 41.883 12.984C41.915 12.824 41.947 12.672 41.979 12.528V12.24C42.107 12.208 42.235 12.184 42.363 12.168C42.491 12.136 42.619 12.136 42.747 12.168C42.811 12.136 42.867 12.104 42.915 12.072C42.963 12.024 43.019 11.976 43.083 11.928C43.163 11.96 43.243 11.992 43.323 12.024C43.403 12.056 43.491 12.088 43.587 12.12C43.747 12.024 43.931 11.896 44.139 11.736C44.171 11.64 44.187 11.568 44.187 11.52C44.187 11.344 44.187 11.168 44.187 10.992C44.187 10.8 44.195 10.616 44.211 10.44V10.368C44.147 10.208 44.123 10.056 44.139 9.912C44.155 9.768 44.155 9.616 44.139 9.456V9.144C44.171 8.776 44.179 8.416 44.163 8.064C44.163 7.696 44.155 7.328 44.139 6.96L44.307 6.648C44.291 6.568 44.275 6.488 44.259 6.408C44.243 6.328 44.227 6.248 44.211 6.168C44.227 6.088 44.243 6.016 44.259 5.952C44.291 5.888 44.315 5.816 44.331 5.736C44.331 5.672 44.323 5.624 44.307 5.592C44.227 5.4 44.195 5.224 44.211 5.064V4.704C44.211 4.64 44.195 4.592 44.163 4.56C44.131 4.512 44.115 4.456 44.115 4.392C44.131 4.36 44.139 4.288 44.139 4.176C44.123 4.08 44.107 3.984 44.091 3.888C44.075 3.792 44.051 3.696 44.019 3.6C43.939 3.52 43.851 3.496 43.755 3.528C43.659 3.544 43.571 3.544 43.491 3.528C43.411 3.496 43.323 3.48 43.227 3.48C43.131 3.48 43.027 3.48 42.915 3.48C42.803 3.416 42.675 3.392 42.531 3.408C42.403 3.408 42.275 3.384 42.147 3.336C42.083 3.256 42.051 3.16 42.051 3.048C42.067 2.936 42.051 2.856 42.003 2.808C41.971 2.744 41.971 2.664 42.003 2.568C42.035 2.456 42.035 2.36 42.003 2.28C42.067 2.2 42.075 2.144 42.027 2.112C41.979 2.08 41.979 2.016 42.027 1.92C42.075 1.84 42.099 1.752 42.099 1.656C42.099 1.544 42.131 1.456 42.195 1.392C42.227 1.36 42.235 1.312 42.219 1.248C42.219 1.168 42.227 1.096 42.243 1.032C42.275 0.999999 42.347 0.983999 42.459 0.983999C42.571 0.967999 42.635 0.943999 42.651 0.912C42.715 0.832 42.787 0.776 42.867 0.743999C42.963 0.711999 43.059 0.671999 43.155 0.623999C43.187 0.623999 43.227 0.623999 43.275 0.623999C43.323 0.607999 43.379 0.599999 43.443 0.599999C43.571 0.599999 43.707 0.599999 43.851 0.599999C43.995 0.599999 44.131 0.592 44.259 0.576C44.387 0.543999 44.515 0.519999 44.643 0.503999C44.771 0.472 44.907 0.447999 45.051 0.431999C45.195 0.399999 45.339 0.408 45.483 0.456C45.691 0.519999 45.947 0.511999 46.251 0.431999C46.315 0.415999 46.371 0.399999 46.419 0.383999C46.467 0.368 46.507 0.352 46.539 0.336C46.651 0.352 46.747 0.368 46.827 0.383999C46.923 0.399999 47.003 0.407999 47.067 0.407999C47.115 0.407999 47.163 0.399999 47.211 0.383999C47.275 0.368 47.323 0.36 47.355 0.36C47.515 0.36 47.659 0.368 47.787 0.383999C47.931 0.383999 48.075 0.399999 48.219 0.431999C48.523 0.479999 48.795 0.495999 49.035 0.48C49.115 0.464 49.179 0.464 49.227 0.48C49.291 0.48 49.331 0.48 49.347 0.48C49.459 0.495999 49.539 0.535999 49.587 0.599999C49.651 0.648 49.699 0.688 49.731 0.719999C49.987 0.975999 50.043 1.24 49.899 1.512C49.883 1.528 49.875 1.584 49.875 1.68C49.891 1.712 49.899 1.752 49.899 1.8C49.915 1.832 49.931 1.88 49.947 1.944ZM66.202 1.992C66.138 2.168 66.114 2.344 66.13 2.52C66.146 2.696 66.162 2.872 66.178 3.048V3.168C66.162 3.248 66.138 3.336 66.106 3.432C66.074 3.528 66.042 3.624 66.01 3.72C66.058 3.992 66.082 4.264 66.082 4.536C66.082 4.792 66.082 5.048 66.082 5.304C66.082 5.432 66.074 5.56 66.058 5.688C66.058 5.8 66.066 5.912 66.082 6.024C66.082 6.136 66.09 6.248 66.106 6.36C66.122 6.472 66.138 6.592 66.154 6.72C66.122 6.88 66.09 7.064 66.058 7.272C66.042 7.464 65.994 7.656 65.914 7.848C65.914 8.04 65.882 8.232 65.818 8.424C65.77 8.616 65.77 8.808 65.818 9C65.802 9.16 65.786 9.32 65.77 9.48C65.77 9.64 65.762 9.808 65.746 9.984C65.73 10.128 65.714 10.272 65.698 10.416C65.698 10.56 65.714 10.704 65.746 10.848C65.746 10.992 65.722 11.152 65.674 11.328C65.594 11.52 65.578 11.696 65.626 11.856C65.61 12.16 65.586 12.472 65.554 12.792C65.538 13.112 65.474 13.424 65.362 13.728C65.346 13.792 65.338 13.872 65.338 13.968C65.338 14.048 65.346 14.104 65.362 14.136L65.194 14.304C65.066 14.32 64.938 14.336 64.81 14.352C64.698 14.368 64.578 14.384 64.45 14.4C64.402 14.416 64.346 14.448 64.282 14.496C64.234 14.528 64.162 14.576 64.066 14.64C63.842 14.704 63.618 14.76 63.394 14.808C63.17 14.84 62.946 14.88 62.722 14.928C62.61 14.896 62.506 14.88 62.41 14.88C62.33 14.88 62.25 14.872 62.17 14.856C62.106 14.84 62.034 14.832 61.954 14.832C61.89 14.816 61.818 14.8 61.738 14.784C61.706 14.8 61.666 14.816 61.618 14.832C61.57 14.848 61.53 14.864 61.498 14.88L61.258 14.664C61.194 14.536 61.162 14.416 61.162 14.304C61.178 14.192 61.178 14.08 61.162 13.968C61.098 13.872 61.018 13.808 60.922 13.776C60.826 13.744 60.738 13.696 60.658 13.632C60.546 13.504 60.458 13.368 60.394 13.224C60.33 13.08 60.234 12.952 60.106 12.84C59.994 12.744 59.898 12.632 59.818 12.504C59.754 12.376 59.666 12.264 59.554 12.168C59.474 11.992 59.386 11.824 59.29 11.664C59.194 11.504 59.106 11.344 59.026 11.184C58.946 11.04 58.858 10.912 58.762 10.8C58.666 10.72 58.57 10.632 58.474 10.536C58.394 10.424 58.306 10.32 58.21 10.224C58.194 10.112 58.154 10.016 58.09 9.936C58.026 9.856 57.962 9.768 57.898 9.672C57.77 9.448 57.618 9.24 57.442 9.048C57.266 8.856 57.106 8.648 56.962 8.424C56.93 8.44 56.898 8.448 56.866 8.448C56.834 8.448 56.81 8.464 56.794 8.496C56.698 8.64 56.65 8.824 56.65 9.048C56.65 9.096 56.658 9.144 56.674 9.192C56.69 9.24 56.682 9.288 56.65 9.336C56.618 9.368 56.578 9.4 56.53 9.432C56.482 9.464 56.434 9.496 56.386 9.528C56.322 9.688 56.298 9.856 56.314 10.032C56.33 10.208 56.322 10.384 56.29 10.56C56.274 10.72 56.266 10.888 56.266 11.064C56.266 11.24 56.266 11.408 56.266 11.568L56.026 12C55.962 12.224 55.946 12.448 55.978 12.672C56.01 12.896 56.066 13.12 56.146 13.344C56.098 13.456 56.058 13.584 56.026 13.728C56.01 13.84 55.994 13.96 55.978 14.088C55.962 14.2 55.962 14.32 55.978 14.448C55.994 14.768 55.834 14.992 55.498 15.12C55.466 15.12 55.418 15.128 55.354 15.144C55.21 15.064 55.05 15.016 54.874 15C54.698 14.968 54.522 14.912 54.346 14.832C54.186 14.752 54.026 14.712 53.866 14.712C53.706 14.696 53.554 14.688 53.41 14.688C53.33 14.656 53.242 14.616 53.146 14.568C53.066 14.504 52.986 14.464 52.906 14.448C52.826 14.416 52.746 14.392 52.666 14.376C52.586 14.36 52.506 14.336 52.426 14.304C52.41 14.272 52.394 14.232 52.378 14.184C52.378 14.136 52.37 14.104 52.354 14.088C52.338 13.816 52.33 13.56 52.33 13.32C52.346 13.064 52.346 12.816 52.33 12.576C52.33 12.4 52.33 12.224 52.33 12.048C52.346 11.872 52.354 11.696 52.354 11.52V11.28C52.338 11.2 52.306 11.12 52.258 11.04C52.21 10.944 52.194 10.848 52.21 10.752C52.226 10.656 52.234 10.56 52.234 10.464C52.234 10.368 52.234 10.28 52.234 10.2C52.266 10.104 52.266 10.008 52.234 9.912C52.218 9.816 52.21 9.728 52.21 9.648C52.242 9.488 52.282 9.328 52.33 9.168C52.378 9.008 52.442 8.864 52.522 8.736V6.24C52.522 6.176 52.514 6.128 52.498 6.096C52.418 5.936 52.386 5.784 52.402 5.64C52.418 5.56 52.426 5.48 52.426 5.4C52.442 5.304 52.458 5.216 52.474 5.136C52.442 5.024 52.41 4.912 52.378 4.8C52.346 4.688 52.314 4.576 52.282 4.464C52.314 4.368 52.306 4.264 52.258 4.152C52.226 4.04 52.218 3.928 52.234 3.816C52.266 3.72 52.322 3.64 52.402 3.576C52.482 3.496 52.53 3.4 52.546 3.288C52.53 3.16 52.474 3.04 52.378 2.928C52.282 2.8 52.234 2.656 52.234 2.496C52.314 2.368 52.394 2.296 52.474 2.28C52.65 2.248 52.81 2.2 52.954 2.136C53.114 2.056 53.266 1.968 53.41 1.872C53.426 1.856 53.49 1.832 53.602 1.8C53.666 1.816 53.73 1.832 53.794 1.848C53.874 1.864 53.962 1.88 54.058 1.896C54.186 1.848 54.314 1.816 54.442 1.8C54.586 1.784 54.738 1.776 54.898 1.776C55.026 1.776 55.146 1.768 55.258 1.752C55.386 1.736 55.53 1.72 55.69 1.704C55.77 1.72 55.85 1.736 55.93 1.752C56.026 1.768 56.122 1.784 56.218 1.8C56.346 1.864 56.458 1.944 56.554 2.04C56.666 2.12 56.746 2.224 56.794 2.352C56.89 2.576 57.01 2.784 57.154 2.976C57.298 3.168 57.41 3.368 57.49 3.576C57.57 3.64 57.65 3.696 57.73 3.744C57.826 3.792 57.898 3.856 57.946 3.936C58.074 4.064 58.218 4.176 58.378 4.272C58.538 4.368 58.698 4.456 58.858 4.536C59.002 4.728 59.13 4.92 59.242 5.112C59.37 5.304 59.522 5.464 59.698 5.592C59.762 5.72 59.818 5.848 59.866 5.976C59.914 6.104 59.962 6.216 60.01 6.312C60.074 6.408 60.146 6.464 60.226 6.48C60.322 6.48 60.402 6.488 60.466 6.504C60.498 6.52 60.522 6.536 60.538 6.552C60.57 6.552 60.594 6.56 60.61 6.576C60.738 6.688 60.842 6.816 60.922 6.96C61.002 7.088 61.082 7.232 61.162 7.392C61.242 7.44 61.314 7.496 61.378 7.56C61.442 7.608 61.514 7.656 61.594 7.704C61.626 7.72 61.658 7.728 61.69 7.728C61.738 7.712 61.77 7.704 61.786 7.704C61.866 7.592 61.93 7.488 61.978 7.392C62.042 7.28 62.066 7.16 62.05 7.032C62.034 6.984 62.034 6.936 62.05 6.888C62.066 6.84 62.074 6.784 62.074 6.72C62.106 6.528 62.146 6.336 62.194 6.144C62.242 5.952 62.274 5.752 62.29 5.544C62.306 5.4 62.322 5.256 62.338 5.112C62.354 4.952 62.346 4.808 62.314 4.68C62.33 4.424 62.33 4.184 62.314 3.96C62.298 3.72 62.282 3.48 62.266 3.24C62.25 2.888 62.258 2.544 62.29 2.208C62.322 1.872 62.386 1.528 62.482 1.176C62.482 1.16 62.482 1.152 62.482 1.152C62.498 1.152 62.506 1.144 62.506 1.128C62.57 1.048 62.634 1 62.698 0.983999C62.778 0.951999 62.85 0.911999 62.914 0.863999C62.994 0.816 63.074 0.792 63.154 0.792C63.234 0.792 63.314 0.808 63.394 0.839999C63.49 0.919999 63.594 0.999999 63.706 1.08C63.738 1.08 63.762 1.088 63.778 1.104C63.81 1.12 63.842 1.128 63.874 1.128H64.666C64.778 1.144 64.89 1.168 65.002 1.2C65.114 1.216 65.226 1.264 65.338 1.344C65.37 1.36 65.394 1.368 65.41 1.368C65.442 1.352 65.466 1.352 65.482 1.368C65.562 1.336 65.634 1.304 65.698 1.272C65.778 1.224 65.858 1.192 65.938 1.176C65.97 1.192 65.994 1.216 66.01 1.248C66.042 1.264 66.074 1.296 66.106 1.344C66.17 1.44 66.21 1.544 66.226 1.656C66.258 1.768 66.25 1.88 66.202 1.992ZM80.9489 9.96C80.9329 10.024 80.9009 10.12 80.8529 10.248C80.8209 10.376 80.7889 10.512 80.7569 10.656C80.7409 10.72 80.7249 10.784 80.7089 10.848C80.7089 10.896 80.7089 10.944 80.7089 10.992C80.6929 11.072 80.6849 11.152 80.6849 11.232C80.6849 11.296 80.6849 11.352 80.6849 11.4C80.5729 11.608 80.4609 11.816 80.3489 12.024C80.2529 12.216 80.1809 12.424 80.1329 12.648C80.0689 12.904 79.9649 13.144 79.8209 13.368C79.6769 13.576 79.5409 13.792 79.4129 14.016C79.3489 14.08 79.2929 14.144 79.2449 14.208C79.1969 14.256 79.1489 14.312 79.1009 14.376C78.9249 14.44 78.7569 14.52 78.5969 14.616C78.4369 14.696 78.2929 14.8 78.1649 14.928C78.1489 14.944 78.1169 14.96 78.0689 14.976C78.0369 14.992 78.0049 15.008 77.9729 15.024C77.7969 15.088 77.6209 15.16 77.4449 15.24C77.2689 15.32 77.0929 15.4 76.9169 15.48L76.2689 15.384C76.1569 15.4 76.0449 15.424 75.9329 15.456C75.8209 15.504 75.7169 15.544 75.6209 15.576C75.5089 15.56 75.4209 15.504 75.3569 15.408C75.3089 15.376 75.2609 15.336 75.2129 15.288C75.1649 15.256 75.1009 15.256 75.0209 15.288C74.9249 15.304 74.8449 15.28 74.7809 15.216C74.7169 15.152 74.6449 15.104 74.5649 15.072C74.5169 15.088 74.4689 15.096 74.4209 15.096C74.3889 15.112 74.3329 15.128 74.2529 15.144L73.8689 15.048C73.7249 15.048 73.5889 15.072 73.4609 15.12C73.3809 15.088 73.3009 15.048 73.2209 15C73.1409 14.952 73.0449 14.928 72.9329 14.928C72.8209 14.928 72.7089 14.912 72.5969 14.88C72.5009 14.832 72.3969 14.8 72.2849 14.784C72.1889 14.768 72.0929 14.752 71.9969 14.736C71.9169 14.72 71.8369 14.704 71.7569 14.688C71.6929 14.656 71.6449 14.616 71.6129 14.568C71.5809 14.52 71.5489 14.472 71.5169 14.424C71.4529 14.392 71.4049 14.376 71.3729 14.376C71.3249 14.328 71.2689 14.296 71.2049 14.28C71.1409 14.248 71.0689 14.224 70.9889 14.208C70.8769 14.16 70.7809 14.104 70.7009 14.04C70.6209 13.96 70.5409 13.888 70.4609 13.824C70.3489 13.696 70.2449 13.576 70.1489 13.464C70.0689 13.336 69.9649 13.216 69.8369 13.104L69.7169 12.864C69.6369 12.768 69.5649 12.688 69.5009 12.624C69.4529 12.56 69.3649 12.496 69.2369 12.432H68.9489C68.9329 12.432 68.9169 12.416 68.9009 12.384C68.8849 12.352 68.8849 12.328 68.9009 12.312C68.9169 12.248 68.9329 12.184 68.9489 12.12C68.9649 12.04 68.9809 11.968 68.9969 11.904C68.9969 11.824 68.9729 11.752 68.9249 11.688C68.8929 11.624 68.8609 11.552 68.8289 11.472C68.8129 11.136 68.7569 10.816 68.6609 10.512C68.5809 10.192 68.4929 9.872 68.3969 9.552V8.856C68.4449 8.808 68.4849 8.752 68.5169 8.688C68.5649 8.624 68.6049 8.568 68.6369 8.52C68.6209 8.44 68.6049 8.36 68.5889 8.28C68.5889 8.2 68.5969 8.12 68.6129 8.04C68.6129 7.944 68.6049 7.848 68.5889 7.752C68.5729 7.64 68.5569 7.528 68.5409 7.416C68.5409 7.4 68.5489 7.368 68.5649 7.32C68.5809 7.256 68.5889 7.192 68.5889 7.128C68.6049 7.08 68.6129 7.032 68.6129 6.984C68.6289 6.92 68.6289 6.856 68.6129 6.792C68.5809 6.664 68.5729 6.544 68.5889 6.432C68.6049 6.304 68.6209 6.168 68.6369 6.024C68.6689 5.912 68.7009 5.808 68.7329 5.712C68.7649 5.6 68.7729 5.488 68.7569 5.376C68.7569 5.28 68.7729 5.216 68.8049 5.184C68.8849 5.088 68.9329 4.984 68.9489 4.872C68.9649 4.76 68.9809 4.656 68.9969 4.56C69.0769 4.416 69.1649 4.272 69.2609 4.128C69.3729 3.968 69.5009 3.832 69.6449 3.72C69.6929 3.656 69.7409 3.592 69.7889 3.528C69.8369 3.464 69.8849 3.408 69.9329 3.36C70.2209 3.072 70.4449 2.76 70.6049 2.424C70.6689 2.376 70.7249 2.336 70.7729 2.304C70.8369 2.272 70.9009 2.232 70.9649 2.184C70.9809 2.136 71.0129 2.104 71.0609 2.088C71.1249 1.768 71.3329 1.56 71.6849 1.464C71.7169 1.464 71.7569 1.464 71.8049 1.464C71.8689 1.448 71.9329 1.432 71.9969 1.416C72.0449 1.384 72.1009 1.344 72.1649 1.296C72.2449 1.232 72.3169 1.184 72.3809 1.152C72.4289 1.088 72.4929 1.04 72.5729 1.008C72.6529 0.96 72.7329 0.92 72.8129 0.888C72.9089 0.871999 72.9969 0.839999 73.0769 0.792C73.1569 0.728 73.2369 0.679999 73.3169 0.647999C73.5089 0.615999 73.6769 0.624 73.8209 0.672C74.1409 0.783999 74.4369 0.759999 74.7089 0.599999C74.8209 0.535999 74.9329 0.503999 75.0449 0.503999C75.1729 0.487999 75.2769 0.44 75.3569 0.36C75.5329 0.424 75.7009 0.48 75.8609 0.527999L76.3409 0.623999C76.5009 0.656 76.6609 0.704 76.8209 0.767999C76.9809 0.815999 77.1329 0.863999 77.2769 0.912C77.4369 0.976 77.5969 1.04 77.7569 1.104C77.9169 1.168 78.0609 1.24 78.1889 1.32C78.2529 1.352 78.3089 1.376 78.3569 1.392C78.4209 1.392 78.4769 1.408 78.5249 1.44C78.6049 1.472 78.6769 1.504 78.7409 1.536C78.8049 1.552 78.8609 1.576 78.9089 1.608C78.9569 1.672 78.9969 1.736 79.0289 1.8C79.0769 1.864 79.1329 1.928 79.1969 1.992C79.2289 2.024 79.2689 2.056 79.3169 2.088C79.3649 2.104 79.4129 2.128 79.4609 2.16C79.5729 2.224 79.6609 2.304 79.7249 2.4C79.8049 2.48 79.8449 2.584 79.8449 2.712C79.8449 2.776 79.8689 2.832 79.9169 2.88C79.9809 2.928 80.0209 2.992 80.0369 3.072C79.9569 3.232 79.8929 3.384 79.8449 3.528C79.7809 3.736 79.6529 3.896 79.4609 4.008C79.4449 4.024 79.4289 4.048 79.4129 4.08C79.4129 4.096 79.4049 4.12 79.3889 4.152C79.4209 4.328 79.3969 4.48 79.3169 4.608C79.2369 4.736 79.1409 4.864 79.0289 4.992C79.0289 5.056 79.0289 5.12 79.0289 5.184C79.0289 5.232 78.9889 5.264 78.9089 5.28C78.8929 5.264 78.8529 5.28 78.7889 5.328C78.7249 5.36 78.6849 5.392 78.6689 5.424C78.6529 5.488 78.6049 5.536 78.5249 5.568C78.4609 5.584 78.4049 5.576 78.3569 5.544C78.2769 5.448 78.1649 5.4 78.0209 5.4L77.9969 5.376C77.9809 5.36 77.9649 5.344 77.9489 5.328C77.9329 5.296 77.9169 5.28 77.9009 5.28C77.8049 5.248 77.7249 5.232 77.6609 5.232C77.4209 5.232 77.2209 5.104 77.0609 4.848C77.0449 4.816 77.0129 4.776 76.9649 4.728C76.7569 4.648 76.5569 4.568 76.3649 4.488C76.1729 4.392 75.9649 4.328 75.7409 4.296C75.5809 4.312 75.4289 4.32 75.2849 4.32C75.1409 4.304 74.9809 4.328 74.8049 4.392L74.4929 4.704C74.3809 4.752 74.2689 4.792 74.1569 4.824C74.0609 4.84 73.9649 4.864 73.8689 4.896C73.7889 4.96 73.7009 5.008 73.6049 5.04C73.5089 5.056 73.4129 5.104 73.3169 5.184C73.2689 5.216 73.2049 5.296 73.1249 5.424V5.688C73.0289 5.736 72.9409 5.76 72.8609 5.76C72.8289 5.824 72.8049 5.888 72.7889 5.952C72.7889 6 72.7889 6.056 72.7889 6.12C72.7889 6.344 72.7569 6.552 72.6929 6.744C72.6769 6.856 72.6609 6.976 72.6449 7.104C72.6289 7.232 72.6049 7.36 72.5729 7.488C72.5569 7.504 72.5489 7.536 72.5489 7.584C72.5649 7.616 72.5729 7.648 72.5729 7.68C72.6049 7.76 72.6129 7.808 72.5969 7.824C72.5809 7.936 72.5649 8.056 72.5489 8.184C72.5329 8.296 72.5409 8.408 72.5729 8.52C72.6049 8.632 72.6289 8.744 72.6449 8.856C72.6609 8.968 72.6769 9.088 72.6929 9.216C72.7249 9.28 72.7409 9.344 72.7409 9.408C72.7569 9.472 72.7729 9.544 72.7889 9.624C72.8529 9.72 72.9249 9.808 73.0049 9.888C72.9889 9.952 72.9809 10.024 72.9809 10.104C72.9809 10.168 72.9729 10.24 72.9569 10.32C72.9729 10.448 73.0209 10.568 73.1009 10.68C73.1809 10.776 73.2449 10.888 73.2929 11.016C73.3729 11.08 73.4609 11.136 73.5569 11.184C73.6529 11.216 73.7249 11.28 73.7729 11.376C73.9009 11.472 74.0209 11.568 74.1329 11.664C74.2609 11.76 74.3809 11.864 74.4929 11.976C74.5569 11.992 74.6129 12.008 74.6609 12.024C74.7249 12.04 74.7889 12.064 74.8529 12.096C75.0289 12.064 75.2049 12.032 75.3809 12C75.5569 11.968 75.7409 11.928 75.9329 11.88C75.9809 11.88 76.0289 11.888 76.0769 11.904C76.1249 11.904 76.1809 11.912 76.2449 11.928C76.2929 11.928 76.3409 11.928 76.3889 11.928C76.4529 11.912 76.4929 11.888 76.5089 11.856C76.5729 11.808 76.6209 11.76 76.6529 11.712C76.7009 11.648 76.7569 11.592 76.8209 11.544C76.8689 11.512 76.9169 11.488 76.9649 11.472C77.0129 11.44 77.0529 11.408 77.0849 11.376C77.1809 11.264 77.2609 11.152 77.3249 11.04C77.3889 10.928 77.4529 10.816 77.5169 10.704C77.5169 10.608 77.5009 10.512 77.4689 10.416C77.4529 10.32 77.4289 10.232 77.3969 10.152C77.3649 10.008 77.2609 9.92 77.0849 9.888C76.9569 9.856 76.8689 9.848 76.8209 9.864C76.5969 9.928 76.3729 9.952 76.1489 9.936C75.9409 9.92 75.7329 9.928 75.5249 9.96C75.4609 9.912 75.3729 9.872 75.2609 9.84C75.2129 9.776 75.2049 9.728 75.2369 9.696C75.2849 9.584 75.3249 9.48 75.3569 9.384C75.3889 9.288 75.3969 9.184 75.3809 9.072C75.3809 8.816 75.4049 8.568 75.4529 8.328C75.5009 8.088 75.5489 7.856 75.5969 7.632C75.6929 7.472 75.8369 7.392 76.0289 7.392C76.1889 7.36 76.3489 7.328 76.5089 7.296C76.6689 7.248 76.8209 7.184 76.9649 7.104C77.1089 7.088 77.2529 7.088 77.3969 7.104C77.5409 7.104 77.6769 7.136 77.8049 7.2C78.0129 7.216 78.2129 7.24 78.4049 7.272C78.6129 7.288 78.8209 7.288 79.0289 7.272C79.0609 7.288 79.0929 7.304 79.1249 7.32C79.1729 7.336 79.2049 7.36 79.2209 7.392C79.2689 7.344 79.3409 7.288 79.4369 7.224C79.5169 7.256 79.5969 7.296 79.6769 7.344C79.7569 7.392 79.8289 7.432 79.8929 7.464C79.9249 7.48 79.9649 7.488 80.0129 7.488C80.0769 7.488 80.1329 7.496 80.1809 7.512C80.3089 7.576 80.4289 7.656 80.5409 7.752C80.6689 7.848 80.7889 7.912 80.9009 7.944C81.0449 8.088 81.1009 8.232 81.0689 8.376C81.0529 8.504 80.9969 8.624 80.9009 8.736C80.9009 8.832 80.8929 8.928 80.8769 9.024C80.8769 9.12 80.8849 9.216 80.9009 9.312C80.9169 9.376 80.9329 9.456 80.9489 9.552C80.9809 9.648 80.9809 9.784 80.9489 9.96ZM110.582 3.192C110.518 3.24 110.486 3.36 110.486 3.552C110.486 3.728 110.462 3.856 110.414 3.936C110.382 4 110.326 4.064 110.246 4.128C110.182 4.176 110.126 4.24 110.078 4.32C110.094 4.352 110.11 4.392 110.126 4.44C110.142 4.488 110.158 4.528 110.174 4.56C110.11 4.64 110.046 4.72 109.982 4.8C109.918 4.88 109.846 4.968 109.766 5.064C109.718 5.064 109.646 5.08 109.55 5.112C109.486 5.128 109.454 5.176 109.454 5.256C109.454 5.32 109.462 5.392 109.478 5.472C109.51 5.536 109.526 5.608 109.526 5.688C109.462 5.928 109.398 6.168 109.334 6.408C109.27 6.648 109.166 6.872 109.022 7.08C109.006 7.336 108.934 7.584 108.806 7.824C108.678 8.048 108.566 8.288 108.47 8.544C108.422 8.64 108.382 8.736 108.35 8.832C108.334 8.928 108.31 9.032 108.278 9.144C108.214 9.208 108.158 9.272 108.11 9.336C108.062 9.4 107.998 9.464 107.918 9.528C107.87 9.608 107.83 9.696 107.798 9.792C107.766 9.888 107.734 9.984 107.702 10.08C107.638 10.16 107.582 10.248 107.534 10.344C107.502 10.44 107.454 10.528 107.39 10.608C107.246 10.864 107.134 11.136 107.054 11.424C106.99 11.696 106.958 11.968 106.958 12.24C106.91 12.352 106.862 12.456 106.814 12.552C106.782 12.632 106.726 12.712 106.646 12.792C106.582 12.904 106.526 13.024 106.478 13.152C106.446 13.264 106.39 13.376 106.31 13.488C106.166 13.728 106.078 13.888 106.046 13.968C106.014 14.048 105.998 14.128 105.998 14.208C106.014 14.288 105.982 14.456 105.902 14.712C105.838 14.792 105.734 14.872 105.59 14.952C105.446 15.032 105.318 15.088 105.206 15.12C105.142 15.088 105.038 15.072 104.894 15.072C104.75 15.088 104.646 15.088 104.582 15.072C104.502 15.056 104.414 15.048 104.318 15.048C104.222 15.048 104.134 15.048 104.054 15.048C103.942 15.048 103.822 15.048 103.694 15.048C103.582 15.048 103.47 15.04 103.358 15.024C103.262 14.992 103.19 14.944 103.142 14.88C103.078 14.72 103.022 14.576 102.974 14.448C102.942 14.304 102.95 14.16 102.998 14.016C103.014 13.952 102.99 13.896 102.926 13.848C102.878 13.8 102.838 13.768 102.806 13.752C102.758 13.656 102.71 13.56 102.662 13.464C102.63 13.352 102.574 13.248 102.494 13.152C102.398 12.992 102.302 12.84 102.206 12.696C102.11 12.552 102.022 12.4 101.942 12.24C101.926 12.176 101.878 12.12 101.798 12.072C101.734 12.024 101.702 11.968 101.702 11.904C101.702 11.776 101.678 11.664 101.63 11.568C101.598 11.472 101.558 11.368 101.51 11.256C101.478 11.16 101.438 11.064 101.39 10.968C101.358 10.856 101.326 10.752 101.294 10.656C101.23 10.48 101.158 10.328 101.078 10.2C100.918 9.976 100.75 9.752 100.574 9.528C100.414 9.304 100.246 9.088 100.07 8.88C99.9583 8.72 99.8303 8.64 99.6863 8.64C99.6223 8.64 99.5903 8.672 99.5903 8.736C99.5903 8.848 99.5903 8.952 99.5903 9.048C99.6063 9.144 99.6143 9.24 99.6143 9.336C99.6143 9.624 99.5343 9.848 99.3743 10.008C99.2623 10.12 99.1903 10.248 99.1583 10.392C99.1263 10.52 99.0943 10.648 99.0623 10.776C99.0143 10.92 98.9503 11.056 98.8703 11.184C98.8063 11.312 98.7583 11.44 98.7263 11.568C98.6303 11.664 98.5423 11.752 98.4623 11.832C98.3823 11.912 98.3183 12.008 98.2703 12.12C98.2223 12.264 98.1503 12.392 98.0543 12.504C97.9583 12.616 97.8943 12.752 97.8623 12.912C97.8463 13.056 97.7823 13.184 97.6703 13.296C97.5743 13.408 97.5183 13.544 97.5023 13.704C97.4703 13.8 97.4223 13.896 97.3583 13.992C97.3103 14.072 97.2703 14.16 97.2383 14.256C97.1583 14.352 97.0943 14.48 97.0463 14.64C96.7903 14.752 96.5743 14.824 96.3983 14.856C96.2383 14.888 95.9983 14.936 95.6783 15C95.5663 14.968 95.4383 14.928 95.2943 14.88C95.1663 14.832 95.0223 14.792 94.8623 14.76C94.8143 14.776 94.7663 14.792 94.7183 14.808C94.6703 14.824 94.6143 14.84 94.5503 14.856C94.5183 14.888 94.4783 14.912 94.4303 14.928C94.3983 14.944 94.3663 14.96 94.3343 14.976C94.2223 14.96 94.1183 14.944 94.0223 14.928C93.9263 14.896 93.8223 14.896 93.7103 14.928C93.6303 14.784 93.5423 14.648 93.4463 14.52C93.3663 14.376 93.3103 14.224 93.2783 14.064C93.2623 13.888 93.2063 13.744 93.1103 13.632C93.0143 13.504 92.9503 13.36 92.9183 13.2C92.8703 13.12 92.8143 13.056 92.7503 13.008C92.7023 12.96 92.6543 12.912 92.6063 12.864C92.5423 12.704 92.4943 12.536 92.4623 12.36C92.4303 12.184 92.4143 12.008 92.4143 11.832C92.2063 11.592 92.1023 11.336 92.1023 11.064C91.9263 10.824 91.8143 10.672 91.7663 10.608C91.7343 10.528 91.7023 10.384 91.6703 10.176C91.5103 9.968 91.3423 9.752 91.1663 9.528C91.0063 9.304 90.8383 9.088 90.6623 8.88C90.5983 8.624 90.5343 8.376 90.4703 8.136C90.4223 7.896 90.3663 7.656 90.3023 7.416C90.2223 7.096 90.1263 6.792 90.0143 6.504C89.9023 6.2 89.8063 5.896 89.7263 5.592C89.6943 5.448 89.6543 5.32 89.6063 5.208C89.5583 5.08 89.5183 4.952 89.4863 4.824C89.4863 4.76 89.4703 4.704 89.4383 4.656C89.4223 4.592 89.3983 4.544 89.3663 4.512C89.3023 4.432 89.2623 4.352 89.2463 4.272C89.2303 4.176 89.2143 4.088 89.1983 4.008C89.1823 3.896 89.1583 3.8 89.1263 3.72C89.0943 3.624 89.0623 3.528 89.0303 3.432C89.1423 3.16 89.3023 2.92 89.5103 2.712C89.5903 2.664 89.6623 2.64 89.7263 2.64C89.8063 2.624 89.8783 2.6 89.9423 2.568C90.1823 2.504 90.3583 2.44 90.4703 2.376C90.5823 2.296 90.7503 2.2 90.9743 2.088C91.3583 1.864 91.7583 1.704 92.1743 1.608C92.2543 1.624 92.3103 1.656 92.3423 1.704C92.3743 1.752 92.3983 1.808 92.4143 1.872C92.4623 2.032 92.5103 2.2 92.5583 2.376C92.6223 2.536 92.7103 2.688 92.8223 2.832C92.9023 3.056 92.9983 3.28 93.1103 3.504C93.2383 3.728 93.3503 3.944 93.4463 4.152C93.4623 4.168 93.5023 4.248 93.5663 4.392C93.6303 4.52 93.6943 4.656 93.7583 4.8C93.8383 4.928 93.8863 4.992 93.9023 4.992C94.1263 5.184 94.2863 5.336 94.3823 5.448C94.4943 5.56 94.5903 5.688 94.6703 5.832C94.7503 5.96 94.8383 6.16 94.9343 6.432C95.0143 6.608 95.0943 6.784 95.1743 6.96C95.2543 7.136 95.3263 7.32 95.3903 7.512C95.4063 7.624 95.4143 7.736 95.4143 7.848C95.4143 7.96 95.4223 8.08 95.4383 8.208C95.4863 8.288 95.5263 8.376 95.5583 8.472C95.6063 8.568 95.6463 8.664 95.6783 8.76C95.7423 8.792 95.7983 8.808 95.8463 8.808C95.8463 8.824 95.8543 8.832 95.8703 8.832C95.9023 8.816 95.9183 8.8 95.9183 8.784C96.0303 8.608 96.1263 8.44 96.2063 8.28C96.3023 8.12 96.3663 7.952 96.3983 7.776C96.4143 7.648 96.4463 7.544 96.4943 7.464C96.5423 7.384 96.5743 7.296 96.5903 7.2C96.5743 7.12 96.5663 7.032 96.5663 6.936C96.5663 6.84 96.5583 6.752 96.5423 6.672C96.6063 6.544 96.6623 6.432 96.7103 6.336C96.7743 6.24 96.8303 6.144 96.8783 6.048C96.9103 5.952 96.9343 5.856 96.9503 5.76C96.9823 5.648 97.0223 5.552 97.0703 5.472C97.1503 5.296 97.2303 5.136 97.3103 4.992C97.3903 4.832 97.4783 4.664 97.5743 4.488C97.5903 4.408 97.5823 4.328 97.5503 4.248C97.5183 4.168 97.4943 4.096 97.4783 4.032C97.4943 4 97.5023 3.968 97.5023 3.936C97.5183 3.888 97.5423 3.856 97.5743 3.84C97.7823 3.744 97.9263 3.584 98.0063 3.36C98.1343 3.072 98.2303 2.84 98.2943 2.664C98.3743 2.472 98.5023 2.248 98.6783 1.992C98.7103 1.944 98.7903 1.848 98.9183 1.704C99.0463 1.544 99.1263 1.432 99.1583 1.368C99.1743 1.32 99.2223 1.28 99.3023 1.248C99.3663 1.264 99.4143 1.288 99.4463 1.32C99.4943 1.336 99.5503 1.36 99.6143 1.392C99.6783 1.392 99.7343 1.384 99.7823 1.368C99.8943 1.256 100.022 1.2 100.166 1.2C100.294 1.184 100.422 1.176 100.55 1.176C100.694 1.16 100.822 1.168 100.934 1.2C101.062 1.232 101.15 1.288 101.198 1.368C101.246 1.448 101.326 1.472 101.438 1.44C101.55 1.584 101.622 1.736 101.654 1.896C101.686 2.056 101.742 2.2 101.822 2.328C101.886 2.408 101.966 2.456 102.062 2.472C102.174 2.488 102.246 2.52 102.278 2.568C102.358 2.68 102.398 2.792 102.398 2.904C102.414 3 102.43 3.088 102.446 3.168C102.478 3.248 102.502 3.328 102.518 3.408C102.55 3.488 102.558 3.584 102.542 3.696C102.526 3.712 102.526 3.744 102.542 3.792C102.574 3.84 102.598 3.88 102.614 3.912C102.646 3.96 102.686 4.008 102.734 4.056C102.782 4.088 102.814 4.12 102.83 4.152L102.998 4.56C103.014 4.576 103.03 4.6 103.046 4.632C103.078 4.648 103.094 4.672 103.094 4.704C103.11 4.768 103.118 4.84 103.118 4.92C103.134 4.984 103.142 5.056 103.142 5.136C103.142 5.472 103.198 5.76 103.31 6C103.39 6.208 103.454 6.36 103.502 6.456C103.55 6.536 103.686 6.672 103.91 6.864C103.942 6.912 103.966 6.968 103.982 7.032C104.014 7.096 104.046 7.16 104.078 7.224C104.094 7.256 104.126 7.344 104.174 7.488C104.238 7.616 104.302 7.736 104.366 7.848C104.43 7.96 104.478 8.016 104.51 8.016C104.606 7.968 104.694 7.848 104.774 7.656C104.854 7.464 104.934 7.264 105.014 7.056C105.094 6.848 105.166 6.712 105.23 6.648C105.278 6.472 105.326 6.296 105.374 6.12C105.438 5.944 105.478 5.76 105.494 5.568C105.51 5.376 105.542 5.192 105.59 5.016C105.654 4.824 105.694 4.64 105.71 4.464C105.726 4.416 105.798 4.32 105.926 4.176C106.07 4.016 106.15 3.928 106.166 3.912C106.31 3.592 106.374 3.344 106.358 3.168C106.358 2.976 106.422 2.728 106.55 2.424C106.63 2.28 106.718 2.144 106.814 2.016C106.91 1.888 106.99 1.76 107.054 1.632C107.198 1.536 107.334 1.504 107.462 1.536C107.59 1.552 107.71 1.544 107.822 1.512C108.014 1.56 108.174 1.584 108.302 1.584C108.43 1.584 108.566 1.632 108.71 1.728C108.79 1.76 108.878 1.8 108.974 1.848C109.086 1.896 109.182 1.936 109.262 1.968C109.326 2.064 109.406 2.152 109.502 2.232C109.598 2.296 109.678 2.376 109.742 2.472C109.934 2.6 110.078 2.704 110.174 2.784C110.286 2.864 110.422 3 110.582 3.192ZM120.853 1.944C120.901 2.056 120.925 2.176 120.925 2.304C120.941 2.432 120.909 2.56 120.829 2.688C120.797 2.752 120.781 2.816 120.781 2.88C120.797 2.928 120.805 2.992 120.805 3.072C120.773 3.12 120.733 3.168 120.685 3.216C120.637 3.248 120.597 3.296 120.565 3.36C120.533 3.392 120.501 3.432 120.469 3.48C120.453 3.528 120.413 3.568 120.349 3.6C120.269 3.584 120.173 3.576 120.061 3.576C119.949 3.576 119.845 3.576 119.749 3.576C119.509 3.576 119.293 3.64 119.101 3.768C119.037 3.832 118.973 3.88 118.909 3.912C118.845 3.928 118.781 3.952 118.717 3.984C118.621 4.08 118.589 4.176 118.621 4.272V4.728C118.637 4.872 118.653 5.016 118.669 5.16C118.701 5.288 118.709 5.432 118.693 5.592C118.677 5.624 118.677 5.672 118.693 5.736C118.709 5.784 118.725 5.824 118.741 5.856C118.725 5.92 118.701 5.976 118.669 6.024C118.653 6.056 118.637 6.104 118.621 6.168C118.637 6.232 118.653 6.296 118.669 6.36C118.685 6.408 118.701 6.464 118.717 6.528C118.717 6.608 118.709 6.664 118.693 6.696C118.661 6.792 118.629 6.888 118.597 6.984C118.581 7.08 118.557 7.176 118.525 7.272C118.477 7.384 118.469 7.488 118.501 7.584C118.533 7.68 118.525 7.776 118.477 7.872C118.477 8.208 118.461 8.536 118.429 8.856C118.397 9.176 118.373 9.496 118.357 9.816C118.357 10.232 118.429 10.656 118.573 11.088C118.637 11.232 118.741 11.304 118.885 11.304C118.917 11.288 118.949 11.264 118.981 11.232C119.029 11.2 119.077 11.176 119.125 11.16C119.173 11.16 119.213 11.176 119.245 11.208C119.373 11.352 119.517 11.448 119.677 11.496C119.933 11.56 120.005 11.688 119.893 11.88C119.845 11.992 119.821 12.112 119.821 12.24C119.837 12.368 119.837 12.496 119.821 12.624C119.789 12.976 119.773 13.336 119.773 13.704C119.773 14.056 119.797 14.416 119.845 14.784C119.845 14.96 119.829 15.072 119.797 15.12C119.781 15.184 119.685 15.28 119.509 15.408H119.437C119.309 15.392 119.181 15.376 119.053 15.36C118.941 15.344 118.829 15.328 118.717 15.312C118.413 15.36 118.141 15.384 117.901 15.384C117.789 15.4 117.677 15.424 117.565 15.456C117.469 15.504 117.357 15.52 117.229 15.504C117.101 15.472 116.973 15.472 116.845 15.504C116.717 15.536 116.589 15.552 116.461 15.552C116.397 15.52 116.333 15.496 116.269 15.48C116.221 15.464 116.157 15.44 116.077 15.408C115.693 15.472 115.309 15.512 114.925 15.528C114.541 15.544 114.149 15.56 113.749 15.576C113.669 15.464 113.589 15.36 113.509 15.264C113.429 15.184 113.357 15.096 113.293 15C113.261 14.888 113.197 14.792 113.101 14.712C113.021 14.632 112.941 14.56 112.861 14.496C112.845 14.336 112.813 14.184 112.765 14.04C112.733 13.912 112.733 13.784 112.765 13.656C112.813 13.576 112.829 13.496 112.813 13.416C112.781 13.272 112.773 13.128 112.789 12.984C112.821 12.824 112.853 12.672 112.885 12.528V12.24C113.013 12.208 113.141 12.184 113.269 12.168C113.397 12.136 113.525 12.136 113.653 12.168C113.717 12.136 113.773 12.104 113.821 12.072C113.869 12.024 113.925 11.976 113.989 11.928C114.069 11.96 114.149 11.992 114.229 12.024C114.309 12.056 114.397 12.088 114.493 12.12C114.653 12.024 114.837 11.896 115.045 11.736C115.077 11.64 115.093 11.568 115.093 11.52C115.093 11.344 115.093 11.168 115.093 10.992C115.093 10.8 115.101 10.616 115.117 10.44V10.368C115.053 10.208 115.029 10.056 115.045 9.912C115.061 9.768 115.061 9.616 115.045 9.456V9.144C115.077 8.776 115.085 8.416 115.069 8.064C115.069 7.696 115.061 7.328 115.045 6.96L115.213 6.648C115.197 6.568 115.181 6.488 115.165 6.408C115.149 6.328 115.133 6.248 115.117 6.168C115.133 6.088 115.149 6.016 115.165 5.952C115.197 5.888 115.221 5.816 115.237 5.736C115.237 5.672 115.229 5.624 115.213 5.592C115.133 5.4 115.101 5.224 115.117 5.064V4.704C115.117 4.64 115.101 4.592 115.069 4.56C115.037 4.512 115.021 4.456 115.021 4.392C115.037 4.36 115.045 4.288 115.045 4.176C115.029 4.08 115.013 3.984 114.997 3.888C114.981 3.792 114.957 3.696 114.925 3.6C114.845 3.52 114.757 3.496 114.661 3.528C114.565 3.544 114.477 3.544 114.397 3.528C114.317 3.496 114.229 3.48 114.133 3.48C114.037 3.48 113.933 3.48 113.821 3.48C113.709 3.416 113.581 3.392 113.437 3.408C113.309 3.408 113.181 3.384 113.053 3.336C112.989 3.256 112.957 3.16 112.957 3.048C112.973 2.936 112.957 2.856 112.909 2.808C112.877 2.744 112.877 2.664 112.909 2.568C112.941 2.456 112.941 2.36 112.909 2.28C112.973 2.2 112.981 2.144 112.933 2.112C112.885 2.08 112.885 2.016 112.933 1.92C112.981 1.84 113.005 1.752 113.005 1.656C113.005 1.544 113.037 1.456 113.101 1.392C113.133 1.36 113.141 1.312 113.125 1.248C113.125 1.168 113.133 1.096 113.149 1.032C113.181 0.999999 113.253 0.983999 113.365 0.983999C113.477 0.967999 113.541 0.943999 113.557 0.912C113.621 0.832 113.693 0.776 113.773 0.743999C113.869 0.711999 113.965 0.671999 114.061 0.623999C114.093 0.623999 114.133 0.623999 114.181 0.623999C114.229 0.607999 114.285 0.599999 114.349 0.599999C114.477 0.599999 114.613 0.599999 114.757 0.599999C114.901 0.599999 115.037 0.592 115.165 0.576C115.293 0.543999 115.421 0.519999 115.549 0.503999C115.677 0.472 115.813 0.447999 115.957 0.431999C116.101 0.399999 116.245 0.408 116.389 0.456C116.597 0.519999 116.853 0.511999 117.157 0.431999C117.221 0.415999 117.277 0.399999 117.325 0.383999C117.373 0.368 117.413 0.352 117.445 0.336C117.557 0.352 117.653 0.368 117.733 0.383999C117.829 0.399999 117.909 0.407999 117.973 0.407999C118.021 0.407999 118.069 0.399999 118.117 0.383999C118.181 0.368 118.229 0.36 118.261 0.36C118.421 0.36 118.565 0.368 118.693 0.383999C118.837 0.383999 118.981 0.399999 119.125 0.431999C119.429 0.479999 119.701 0.495999 119.941 0.48C120.021 0.464 120.085 0.464 120.133 0.48C120.197 0.48 120.237 0.48 120.253 0.48C120.365 0.495999 120.445 0.535999 120.493 0.599999C120.557 0.648 120.605 0.688 120.637 0.719999C120.893 0.975999 120.949 1.24 120.805 1.512C120.789 1.528 120.781 1.584 120.781 1.68C120.797 1.712 120.805 1.752 120.805 1.8C120.821 1.832 120.837 1.88 120.853 1.944ZM134.3 1.056C134.268 1.248 134.244 1.44 134.228 1.632C134.228 1.808 134.228 1.992 134.228 2.184C134.228 2.408 134.22 2.624 134.204 2.832C134.204 3.04 134.188 3.256 134.156 3.48C134.14 3.512 134.132 3.56 134.132 3.624C134.148 3.784 134.172 3.944 134.204 4.104C134.252 4.248 134.26 4.384 134.228 4.512C134.196 4.592 134.188 4.672 134.204 4.752C134.22 4.832 134.212 4.912 134.18 4.992C134.164 5.024 134.148 5.056 134.132 5.088C134.116 5.12 134.1 5.152 134.084 5.184C134.004 5.2 133.924 5.216 133.844 5.232C133.78 5.232 133.708 5.232 133.628 5.232C133.596 5.248 133.548 5.28 133.484 5.328C133.436 5.36 133.388 5.392 133.34 5.424C133.276 5.392 133.22 5.36 133.172 5.328C133.14 5.296 133.1 5.272 133.052 5.256C133.02 5.256 132.98 5.256 132.932 5.256C132.884 5.24 132.844 5.24 132.812 5.256C132.7 5.304 132.548 5.32 132.356 5.304C132.18 5.272 132.028 5.256 131.9 5.256C131.74 5.256 131.588 5.28 131.444 5.328C131.316 5.36 131.18 5.408 131.036 5.472C130.924 5.536 130.804 5.576 130.676 5.592C130.564 5.592 130.444 5.616 130.316 5.664C130.236 5.776 130.204 5.88 130.22 5.976C130.252 6.104 130.276 6.248 130.292 6.408C130.324 6.552 130.308 6.704 130.244 6.864C130.244 6.928 130.252 6.968 130.268 6.984C130.332 7.144 130.364 7.304 130.364 7.464C130.364 7.624 130.348 7.792 130.316 7.968C130.3 8.128 130.292 8.288 130.292 8.448C130.292 8.592 130.276 8.752 130.244 8.928C130.212 9.104 130.22 9.264 130.268 9.408C130.284 9.504 130.292 9.6 130.292 9.696C130.292 9.792 130.292 9.88 130.292 9.96C130.276 10.072 130.268 10.104 130.268 10.056C130.268 9.992 130.268 9.96 130.268 9.96V10.032C130.268 10.048 130.26 10.064 130.244 10.08C130.244 10.08 130.244 10.088 130.244 10.104C130.26 10.376 130.26 10.584 130.244 10.728C130.244 10.856 130.236 10.976 130.22 11.088C130.204 11.184 130.172 11.336 130.124 11.544V11.664C130.188 11.92 130.22 12.184 130.22 12.456C130.22 12.712 130.212 12.968 130.196 13.224C130.196 13.4 130.196 13.576 130.196 13.752C130.212 13.928 130.252 14.112 130.316 14.304C130.3 14.4 130.276 14.512 130.244 14.64C130.212 14.752 130.172 14.864 130.124 14.976C130.108 15.04 130.076 15.096 130.028 15.144C129.996 15.192 129.94 15.248 129.86 15.312C129.476 15.28 129.116 15.312 128.78 15.408C128.604 15.472 128.42 15.448 128.228 15.336C128.196 15.304 128.18 15.288 128.18 15.288C127.94 15.144 127.708 15.12 127.484 15.216C127.388 15.264 127.292 15.28 127.196 15.264C127.1 15.248 127.012 15.24 126.932 15.24C126.82 15.24 126.724 15.28 126.644 15.36C126.564 15.44 126.46 15.448 126.332 15.384C126.316 15.256 126.324 15.136 126.356 15.024C126.404 14.912 126.436 14.784 126.452 14.64C126.436 14.528 126.404 14.408 126.356 14.28C126.324 14.152 126.292 14.024 126.26 13.896C126.292 13.816 126.316 13.744 126.332 13.68C126.348 13.6 126.356 13.528 126.356 13.464C126.372 13.384 126.372 13.304 126.356 13.224C126.356 13.128 126.356 13.04 126.356 12.96C126.372 12.704 126.372 12.464 126.356 12.24C126.356 12 126.34 11.76 126.308 11.52C126.276 11.328 126.252 11.144 126.236 10.968C126.236 10.776 126.228 10.576 126.212 10.368C126.26 10.304 126.3 10.24 126.332 10.176C126.38 10.112 126.436 10.048 126.5 9.984C126.516 9.856 126.524 9.792 126.524 9.792C126.524 9.776 126.524 9.696 126.524 9.552C126.508 9.328 126.508 9.096 126.524 8.856C126.54 8.6 126.572 8.36 126.62 8.136C126.604 7.96 126.58 7.792 126.548 7.632C126.516 7.456 126.46 7.288 126.38 7.128C126.412 7.048 126.444 6.968 126.476 6.888C126.524 6.808 126.556 6.736 126.572 6.672C126.556 6.544 126.556 6.432 126.572 6.336C126.604 6.24 126.596 6.136 126.548 6.024C126.532 5.976 126.492 5.936 126.428 5.904C126.316 5.904 126.204 5.896 126.092 5.88C125.98 5.864 125.868 5.856 125.756 5.856C125.644 5.856 125.532 5.84 125.42 5.808C125.324 5.776 125.22 5.776 125.108 5.808C125.012 5.856 124.916 5.864 124.82 5.832C124.74 5.784 124.652 5.768 124.556 5.784H123.932L123.332 5.688C123.3 5.688 123.26 5.664 123.212 5.616C123.164 5.568 123.14 5.52 123.14 5.472V5.304C123.172 5.208 123.196 5.112 123.212 5.016C123.244 4.904 123.244 4.792 123.212 4.68C123.196 4.664 123.188 4.64 123.188 4.608C123.204 4.56 123.212 4.528 123.212 4.512C123.276 4.224 123.308 3.888 123.308 3.504C123.308 3.12 123.292 2.784 123.26 2.496C123.26 2.4 123.26 2.304 123.26 2.208C123.26 2.112 123.276 2.024 123.308 1.944C123.388 1.864 123.468 1.824 123.548 1.824C123.628 1.808 123.708 1.792 123.788 1.776C123.868 1.744 123.94 1.712 124.004 1.68C124.068 1.632 124.14 1.6 124.22 1.584C124.588 1.456 124.932 1.456 125.252 1.584C125.252 1.584 125.308 1.6 125.42 1.632C125.564 1.568 125.716 1.544 125.876 1.56C126.036 1.56 126.204 1.52 126.38 1.44C126.412 1.44 126.46 1.448 126.524 1.464C126.604 1.464 126.684 1.464 126.764 1.464C126.908 1.4 127.052 1.336 127.196 1.272C127.356 1.208 127.508 1.112 127.652 0.983999C127.908 0.951999 128.156 0.943999 128.396 0.959999C128.652 0.975999 128.892 0.943999 129.116 0.863999C129.228 0.88 129.324 0.912 129.404 0.959999C129.5 0.992 129.58 1.024 129.644 1.056C129.756 1.056 129.844 1.024 129.908 0.959999C129.972 0.879999 130.068 0.831999 130.196 0.816C130.324 0.783999 130.508 0.791999 130.748 0.839999C130.844 0.855999 130.94 0.903999 131.036 0.983999C131.148 1.048 131.26 1.072 131.372 1.056C131.452 1.008 131.516 0.959999 131.564 0.912C131.628 0.863999 131.7 0.815999 131.78 0.767999C131.876 0.767999 131.98 0.791999 132.092 0.839999C132.204 0.872 132.308 0.88 132.404 0.863999C132.516 0.847999 132.62 0.831999 132.716 0.816C132.828 0.783999 132.964 0.767999 133.124 0.767999C133.188 0.783999 133.252 0.808 133.316 0.839999C133.38 0.855999 133.444 0.879999 133.508 0.912C133.604 0.879999 133.7 0.855999 133.796 0.839999C133.908 0.823999 134.02 0.808 134.132 0.792C134.164 0.839999 134.196 0.887999 134.228 0.935999C134.26 0.984 134.284 1.024 134.3 1.056ZM150.243 2.16C150.227 2.224 150.219 2.28 150.219 2.328C150.219 2.376 150.219 2.424 150.219 2.472C150.219 2.52 150.219 2.576 150.219 2.64C150.235 2.688 150.235 2.736 150.219 2.784C150.203 2.88 150.203 2.968 150.219 3.048C150.235 3.128 150.227 3.208 150.195 3.288C150.179 3.32 150.163 3.352 150.147 3.384C150.131 3.4 150.123 3.424 150.123 3.456C150.155 3.744 150.139 4.024 150.075 4.296C150.011 4.568 149.955 4.848 149.907 5.136L150.075 5.64C150.059 5.736 150.027 5.832 149.979 5.928C149.947 6.024 149.915 6.128 149.883 6.24C149.899 6.336 149.907 6.44 149.907 6.552C149.923 6.648 149.939 6.752 149.955 6.864C149.923 6.96 149.899 7.064 149.883 7.176C149.867 7.288 149.875 7.4 149.907 7.512C149.971 7.688 149.987 7.872 149.955 8.064C149.939 8.24 149.939 8.416 149.955 8.592C149.955 8.608 149.955 8.632 149.955 8.664C149.955 8.696 149.947 8.72 149.931 8.736C149.883 8.848 149.859 8.976 149.859 9.12C149.859 9.248 149.867 9.376 149.883 9.504C149.915 9.664 149.931 9.816 149.931 9.96C149.947 10.104 149.995 10.248 150.075 10.392C150.091 10.52 150.099 10.656 150.099 10.8C150.099 10.944 150.107 11.08 150.123 11.208C150.091 11.272 150.051 11.344 150.003 11.424C149.955 11.488 149.915 11.552 149.883 11.616C149.867 11.744 149.859 11.872 149.859 12C149.859 12.112 149.891 12.232 149.955 12.36C149.971 12.376 149.979 12.448 149.979 12.576C149.995 12.688 150.011 12.808 150.027 12.936C150.043 13.048 150.051 13.112 150.051 13.128C150.179 13.288 150.179 13.456 150.051 13.632C150.035 13.664 150.011 13.696 149.979 13.728C149.963 13.76 149.947 13.8 149.931 13.848C149.963 13.96 149.995 14.072 150.027 14.184C150.059 14.28 150.083 14.384 150.099 14.496C150.131 14.64 150.123 14.744 150.075 14.808C150.027 14.872 149.955 14.944 149.859 15.024C149.843 15.04 149.811 15.048 149.763 15.048C149.715 15.064 149.675 15.088 149.643 15.12C149.579 15.12 149.531 15.128 149.499 15.144C149.435 15.16 149.371 15.168 149.307 15.168C149.259 15.184 149.195 15.2 149.115 15.216L148.851 15.048C148.787 15.032 148.691 15.048 148.563 15.096C148.451 15.16 148.347 15.152 148.251 15.072C148.235 15.024 148.163 14.984 148.035 14.952C147.907 14.904 147.851 14.904 147.867 14.952V14.976C147.867 14.976 147.795 15 147.651 15.048C147.507 15.112 147.395 15.168 147.315 15.216C147.187 15.2 147.027 15.136 146.835 15.024C146.659 14.912 146.531 14.856 146.451 14.856C146.387 14.776 146.347 14.704 146.331 14.64C146.331 14.576 146.331 14.504 146.331 14.424C146.347 14.344 146.363 14.272 146.379 14.208C146.395 14.128 146.411 14.048 146.427 13.968C146.507 13.808 146.507 13.616 146.427 13.392C146.395 13.28 146.355 13.176 146.307 13.08C146.275 12.968 146.251 12.856 146.235 12.744C146.219 12.696 146.211 12.608 146.211 12.48C146.211 12.352 146.195 12.272 146.163 12.24C146.147 12.128 146.139 12.016 146.139 11.904C146.155 11.792 146.131 11.68 146.067 11.568C146.019 11.408 146.027 11.24 146.091 11.064C146.123 11 146.139 10.944 146.139 10.896C146.155 10.832 146.171 10.784 146.187 10.752C146.219 10.56 146.203 10.416 146.139 10.32C145.979 10.048 145.811 9.848 145.635 9.72C145.523 9.704 145.403 9.688 145.275 9.672C145.147 9.656 145.019 9.648 144.891 9.648C144.875 9.648 144.843 9.648 144.795 9.648C144.747 9.632 144.691 9.616 144.627 9.6C144.387 9.552 144.155 9.552 143.931 9.6C143.723 9.648 143.483 9.68 143.211 9.696C143.035 9.696 142.867 9.632 142.707 9.504C142.691 9.52 142.659 9.544 142.611 9.576C142.563 9.592 142.523 9.616 142.491 9.648C142.331 9.552 142.147 9.48 141.939 9.432C141.843 9.4 141.739 9.384 141.627 9.384C141.531 9.368 141.419 9.352 141.291 9.336C141.163 9.368 141.083 9.48 141.051 9.672V9.888C141.083 10.096 141.091 10.304 141.075 10.512C141.059 10.72 141.011 10.92 140.931 11.112C140.931 11.144 140.931 11.184 140.931 11.232C140.931 11.28 140.923 11.32 140.907 11.352C140.955 11.416 140.995 11.488 141.027 11.568C141.059 11.632 141.091 11.696 141.123 11.76C141.075 11.92 141.003 12.088 140.907 12.264C140.923 12.376 140.931 12.488 140.931 12.6C140.947 12.712 140.963 12.824 140.979 12.936C140.995 12.968 141.011 13.008 141.027 13.056C141.043 13.088 141.059 13.12 141.075 13.152C141.251 13.424 141.227 13.68 141.003 13.92C140.987 13.936 140.979 13.952 140.979 13.968C140.979 13.984 140.963 14.008 140.931 14.04C140.931 14.104 140.931 14.176 140.931 14.256C140.931 14.336 140.923 14.424 140.907 14.52C140.907 14.584 140.883 14.664 140.835 14.76C140.835 14.776 140.819 14.792 140.787 14.808C140.771 14.824 140.747 14.848 140.715 14.88C140.491 14.96 140.291 15.024 140.115 15.072C139.859 15.104 139.643 15.096 139.467 15.048C139.307 15.016 139.099 14.952 138.843 14.856C138.667 14.888 138.483 14.912 138.291 14.928C138.115 14.928 137.923 14.896 137.715 14.832C137.635 14.8 137.539 14.752 137.427 14.688C137.331 14.624 137.227 14.56 137.115 14.496C137.003 14.448 136.891 14.4 136.779 14.352C136.683 14.304 136.587 14.264 136.491 14.232C136.443 14.088 136.435 13.96 136.467 13.848C136.499 13.752 136.523 13.648 136.539 13.536C136.571 13.424 136.603 13.32 136.635 13.224C136.715 13.016 136.755 12.816 136.755 12.624C136.691 12.544 136.699 12.44 136.779 12.312C136.843 12.184 136.859 12.048 136.827 11.904C136.811 11.76 136.811 11.624 136.827 11.496C136.763 11.272 136.747 11.048 136.779 10.824C136.811 10.584 136.843 10.36 136.875 10.152C136.891 10.024 136.915 9.912 136.947 9.816C136.979 9.72 136.979 9.624 136.947 9.528C136.979 9.4 137.035 9.304 137.115 9.24C137.195 9.16 137.235 9.072 137.235 8.976C137.251 8.848 137.235 8.744 137.187 8.664C137.155 8.568 137.131 8.464 137.115 8.352C137.115 8.304 137.115 8.248 137.115 8.184C137.131 8.104 137.139 8.032 137.139 7.968C137.139 7.888 137.139 7.816 137.139 7.752C137.139 7.688 137.147 7.632 137.163 7.584C137.195 7.456 137.187 7.328 137.139 7.2C137.107 7.072 137.099 6.936 137.115 6.792C137.115 6.76 137.107 6.728 137.091 6.696C137.075 6.664 137.059 6.624 137.043 6.576C137.027 6.448 137.027 6.312 137.043 6.168C137.059 6.024 137.067 5.888 137.067 5.76C137.067 5.616 137.059 5.48 137.043 5.352C137.027 5.224 137.027 5.104 137.043 4.992C137.043 4.96 137.043 4.944 137.043 4.944C137.059 4.928 137.067 4.912 137.067 4.896C137.099 4.88 137.131 4.88 137.163 4.896C137.211 4.912 137.243 4.912 137.259 4.896C137.339 4.72 137.355 4.552 137.307 4.392C137.259 4.216 137.227 4.048 137.211 3.888C137.259 3.808 137.283 3.712 137.283 3.6C137.283 3.472 137.259 3.4 137.211 3.384C137.211 3.272 137.203 3.16 137.187 3.048C137.187 2.936 137.179 2.824 137.163 2.712C137.147 2.584 137.123 2.464 137.091 2.352C137.059 2.24 137.051 2.12 137.067 1.992C137.099 1.896 137.131 1.8 137.163 1.704C137.195 1.608 137.243 1.512 137.307 1.416C137.371 1.4 137.443 1.384 137.523 1.368C137.619 1.352 137.707 1.32 137.787 1.272C137.867 1.24 137.931 1.2 137.979 1.152C138.027 1.104 138.083 1.072 138.147 1.056C138.275 1.04 138.387 1.056 138.483 1.104C138.595 1.152 138.699 1.184 138.795 1.2C139.019 1.216 139.195 1.2 139.323 1.152C139.451 1.104 139.611 1.008 139.803 0.863999C139.883 0.911999 139.963 0.96 140.043 1.008C140.139 1.056 140.219 1.104 140.283 1.152C140.363 1.184 140.427 1.216 140.475 1.248C140.539 1.28 140.603 1.312 140.667 1.344C140.795 1.424 140.859 1.544 140.859 1.704C140.875 1.816 140.883 1.92 140.883 2.016C140.883 2.112 140.891 2.208 140.907 2.304C140.907 2.432 140.907 2.56 140.907 2.688C140.923 2.816 140.955 2.944 141.003 3.072C141.019 3.136 141.027 3.2 141.027 3.264C141.027 3.328 141.035 3.392 141.051 3.456C141.067 3.664 141.067 3.952 141.051 4.32C141.051 4.672 141.011 4.944 140.931 5.136C140.915 5.184 140.907 5.24 140.907 5.304C140.987 5.416 141.075 5.456 141.171 5.424C141.283 5.392 141.387 5.376 141.483 5.376C141.659 5.456 141.795 5.544 141.891 5.64C141.987 5.736 142.123 5.832 142.299 5.928C142.475 5.848 142.635 5.816 142.779 5.832C142.939 5.832 143.115 5.8 143.307 5.736H144.435C144.851 5.736 145.259 5.688 145.659 5.592C145.739 5.56 145.811 5.544 145.875 5.544C145.955 5.528 146.027 5.512 146.091 5.496C146.123 5.48 146.155 5.464 146.187 5.448C146.219 5.432 146.243 5.416 146.259 5.4C146.291 5.288 146.283 5.112 146.235 4.872C146.187 4.616 146.163 4.44 146.163 4.344C146.147 4.264 146.123 4.176 146.091 4.08C146.075 3.984 146.067 3.896 146.067 3.816C146.099 3.64 146.099 3.472 146.067 3.312C146.051 3.152 146.043 2.992 146.043 2.832C146.043 2.752 146.035 2.664 146.019 2.568C146.019 2.472 146.011 2.384 145.995 2.304C145.899 1.968 145.891 1.608 145.971 1.224C146.227 1 146.555 0.864 146.955 0.816C147.131 0.767999 147.299 0.767999 147.459 0.816C147.635 0.847999 147.803 0.879999 147.963 0.912C148.043 0.879999 148.131 0.847999 148.227 0.816C148.323 0.767999 148.435 0.711999 148.563 0.647999C148.739 0.647999 148.859 0.647999 148.923 0.647999C149.003 0.647999 149.139 0.639999 149.331 0.623999C149.459 0.623999 149.555 0.615999 149.619 0.599999C149.683 0.567999 149.787 0.543999 149.931 0.527999C149.947 0.543999 149.979 0.607999 150.027 0.719999C150.091 0.832 150.123 0.92 150.123 0.983999C150.107 1 150.115 1.088 150.147 1.248C150.195 1.392 150.211 1.52 150.195 1.632C150.195 1.728 150.203 1.824 150.219 1.92C150.235 2 150.243 2.08 150.243 2.16ZM156.43 4.92C156.414 5.176 156.366 5.472 156.286 5.808C156.174 6 156.07 6.184 155.974 6.36C155.878 6.536 155.774 6.712 155.662 6.888C155.598 6.904 155.534 6.936 155.47 6.984C155.422 7.016 155.358 7.048 155.278 7.08C155.134 7.144 154.99 7.2 154.846 7.248C154.702 7.296 154.558 7.352 154.414 7.416C154.35 7.4 154.286 7.384 154.222 7.368C154.174 7.336 154.11 7.312 154.03 7.296C153.966 7.248 153.894 7.24 153.814 7.272C153.734 7.288 153.67 7.264 153.622 7.2C153.51 7.168 153.414 7.128 153.334 7.08C153.27 7.032 153.182 6.984 153.07 6.936C153.006 6.92 152.966 6.888 152.95 6.84C152.95 6.792 152.958 6.752 152.974 6.72L152.782 6.144C152.766 6.064 152.75 5.984 152.734 5.904C152.734 5.808 152.734 5.712 152.734 5.616C152.734 5.488 152.75 5.344 152.782 5.184C152.782 5.008 152.806 4.824 152.854 4.632C152.982 4.376 153.126 4.128 153.286 3.888C153.462 3.648 153.71 3.48 154.03 3.384C154.126 3.4 154.222 3.416 154.318 3.432C154.43 3.448 154.534 3.464 154.63 3.48C154.71 3.48 154.798 3.488 154.894 3.504C154.99 3.52 155.078 3.528 155.158 3.528C155.35 3.672 155.55 3.8 155.758 3.912C155.982 4.024 156.174 4.208 156.334 4.464C156.35 4.496 156.366 4.552 156.382 4.632C156.398 4.712 156.414 4.808 156.43 4.92ZM156.454 10.272C156.422 10.416 156.374 10.56 156.31 10.704C156.262 10.832 156.222 10.976 156.19 11.136C156.094 11.52 155.854 11.832 155.47 12.072C155.406 12.12 155.334 12.16 155.254 12.192C155.19 12.224 155.126 12.256 155.062 12.288C154.55 12.576 154.03 12.608 153.502 12.384C153.39 12.336 153.286 12.288 153.19 12.24C153.11 12.176 153.038 12.088 152.974 11.976C152.958 11.912 152.918 11.856 152.854 11.808C152.806 11.76 152.766 11.72 152.734 11.688C152.654 11.608 152.59 11.512 152.542 11.4C152.494 11.288 152.446 11.176 152.398 11.064C152.462 10.824 152.518 10.584 152.566 10.344C152.614 10.104 152.67 9.856 152.734 9.6C152.766 9.52 152.806 9.44 152.854 9.36C152.918 9.28 152.974 9.208 153.021 9.144L153.142 9C153.318 8.92 153.486 8.848 153.646 8.784C153.806 8.704 153.974 8.632 154.15 8.568C154.294 8.536 154.438 8.512 154.582 8.496C154.742 8.464 154.91 8.464 155.086 8.496C155.182 8.544 155.278 8.608 155.374 8.688C155.47 8.768 155.574 8.832 155.686 8.88C155.766 8.896 155.814 8.936 155.83 9C155.862 9.064 155.886 9.12 155.902 9.168C156.11 9.328 156.238 9.512 156.286 9.72C156.334 9.8 156.366 9.888 156.382 9.984C156.414 10.064 156.438 10.16 156.454 10.272Z" fill="#404040"/>
</svg>
