<svg width="135" height="17" viewBox="0 0 135 17" fill="none" xmlns="http://www.w3.org/2000/svg">
<path d="M13.248 5.68C13.264 5.808 13.248 5.936 13.2 6.064C13.168 6.176 13.128 6.288 13.08 6.4C12.984 6.4 12.904 6.408 12.84 6.424C12.776 6.456 12.752 6.512 12.768 6.592C12.8 6.672 12.792 6.744 12.744 6.808C12.712 6.872 12.68 6.944 12.648 7.024C12.616 7.104 12.584 7.168 12.552 7.216C12.536 7.328 12.56 7.416 12.624 7.48C12.704 7.544 12.744 7.624 12.744 7.72C12.76 7.784 12.752 7.848 12.72 7.912C12.704 7.96 12.68 8.016 12.648 8.08C12.616 8.144 12.576 8.2 12.528 8.248C12.496 8.296 12.464 8.352 12.432 8.416C12.384 8.496 12.328 8.584 12.264 8.68C12.216 8.776 12.168 8.864 12.12 8.944C12.056 9.008 11.976 9.072 11.88 9.136C11.8 9.2 11.72 9.264 11.64 9.328C11.608 9.376 11.576 9.432 11.544 9.496C11.512 9.544 11.48 9.608 11.448 9.688C11.192 9.896 10.936 10.104 10.68 10.312C10.424 10.52 10.16 10.712 9.888 10.888C9.696 10.952 9.496 11.008 9.288 11.056C9.08 11.088 8.872 11.12 8.664 11.152C8.504 11.168 8.344 11.192 8.184 11.224C8.024 11.256 7.856 11.296 7.68 11.344C7.584 11.36 7.488 11.376 7.392 11.392C7.296 11.392 7.184 11.392 7.056 11.392C6.848 11.408 6.64 11.424 6.432 11.44C6.24 11.44 6.056 11.44 5.88 11.44C5.688 11.52 5.584 11.616 5.568 11.728C5.552 11.824 5.528 11.92 5.496 12.016C5.464 12.112 5.432 12.208 5.4 12.304C5.4 12.512 5.384 12.728 5.352 12.952C5.336 13.176 5.336 13.392 5.352 13.6C5.352 13.68 5.344 13.736 5.328 13.768C5.328 13.864 5.32 13.968 5.304 14.08C5.304 14.176 5.304 14.272 5.304 14.368C5.304 14.464 5.304 14.56 5.304 14.656C5.32 14.736 5.336 14.816 5.352 14.896C5.4 15.2 5.36 15.504 5.232 15.808C5.232 15.888 5.216 15.96 5.184 16.024C5.136 16.152 5.048 16.2 4.92 16.168C4.68 16.088 4.44 16.04 4.2 16.024C3.976 16.024 3.736 16.04 3.48 16.072H3.168C2.944 16.184 2.712 16.256 2.472 16.288C2.232 16.32 1.984 16.344 1.728 16.36C1.584 16.36 1.496 16.312 1.464 16.216C1.464 16.216 1.456 16.208 1.44 16.192C1.44 16.192 1.44 16.184 1.44 16.168C1.408 15.768 1.368 15.36 1.32 14.944C1.272 14.528 1.256 14.12 1.272 13.72C1.272 13.64 1.264 13.56 1.248 13.48C1.248 13.4 1.24 13.328 1.224 13.264C1.192 13.088 1.168 12.912 1.152 12.736C1.136 12.544 1.12 12.36 1.104 12.184C1.104 12.12 1.104 12.056 1.104 11.992C1.104 11.928 1.088 11.864 1.056 11.8C0.992 11.672 0.96 11.536 0.96 11.392C0.976 11.248 0.984 11.12 0.984 11.008C1.032 10.896 1.064 10.808 1.08 10.744C1.096 10.664 1.112 10.576 1.128 10.48C1.08 10.416 1.056 10.36 1.056 10.312C1.072 10.248 1.064 10.192 1.032 10.144C1.032 10.112 1.024 10.088 1.008 10.072C0.992 10.04 0.984 10.016 0.984 10C0.968 9.6 0.952 9.144 0.936 8.632C0.936 8.12 0.936 7.64 0.936 7.192C0.952 6.744 0.968 6.424 0.984 6.232C1.016 6.168 1.048 6.112 1.08 6.064C1.128 6.016 1.16 5.968 1.176 5.92C1.176 5.872 1.16 5.84 1.128 5.824C1.096 5.792 1.064 5.768 1.032 5.752C1.064 5.608 1.096 5.464 1.128 5.32C1.176 5.176 1.216 5.032 1.248 4.888C1.232 4.808 1.216 4.736 1.2 4.672C1.184 4.608 1.16 4.544 1.128 4.48C1.176 4.368 1.224 4.24 1.272 4.096C1.256 3.968 1.24 3.824 1.224 3.664C1.224 3.504 1.208 3.336 1.176 3.16C1.208 3.112 1.232 3.048 1.248 2.968C1.264 2.872 1.288 2.784 1.32 2.704C1.352 2.624 1.352 2.544 1.32 2.464C1.304 2.384 1.32 2.312 1.368 2.248C1.464 2.216 1.544 2.208 1.608 2.224C1.64 2.24 1.68 2.264 1.728 2.296C1.776 2.312 1.816 2.328 1.848 2.344H2.016C2.208 2.28 2.4 2.224 2.592 2.176C2.8 2.112 2.992 2.04 3.168 1.96C3.28 1.896 3.408 1.88 3.552 1.912C3.648 1.928 3.736 1.944 3.816 1.96C3.912 1.96 4 1.944 4.08 1.912C4.192 1.896 4.296 1.888 4.392 1.888C4.504 1.872 4.616 1.864 4.728 1.864C5.032 1.864 5.336 1.84 5.64 1.792C5.944 1.744 6.248 1.688 6.552 1.624C6.68 1.576 6.816 1.56 6.96 1.576C7.104 1.592 7.24 1.592 7.368 1.576C7.48 1.608 7.592 1.648 7.704 1.696C7.816 1.728 7.928 1.76 8.04 1.792C8.152 1.824 8.264 1.856 8.376 1.888C8.488 1.904 8.616 1.928 8.76 1.96C9 1.896 9.256 1.872 9.528 1.888C9.8 1.888 10.064 1.896 10.32 1.912C10.464 1.928 10.6 1.96 10.728 2.008C10.872 2.056 11 2.12 11.112 2.2C11.272 2.264 11.448 2.368 11.64 2.512C11.72 2.576 11.792 2.648 11.856 2.728C11.936 2.792 12.008 2.864 12.072 2.944C12.104 2.96 12.128 2.992 12.144 3.04C12.16 3.072 12.176 3.104 12.192 3.136C12.224 3.248 12.28 3.336 12.36 3.4C12.44 3.464 12.512 3.536 12.576 3.616C12.864 4.048 13.008 4.544 13.008 5.104C13.04 5.2 13.08 5.304 13.128 5.416C13.176 5.512 13.216 5.6 13.248 5.68ZM9.384 6.016C9.368 5.92 9.336 5.824 9.288 5.728C9.256 5.632 9.224 5.536 9.192 5.44C9.176 5.392 9.152 5.352 9.12 5.32C9.104 5.288 9.088 5.264 9.072 5.248C9.04 5.168 8.976 5.144 8.88 5.176C8.848 5.208 8.816 5.232 8.784 5.248C8.752 5.264 8.72 5.288 8.688 5.32C8.608 5.336 8.528 5.352 8.448 5.368C8.384 5.368 8.312 5.376 8.232 5.392H7.944C7.896 5.36 7.84 5.328 7.776 5.296C7.728 5.248 7.664 5.2 7.584 5.152C7.472 5.136 7.344 5.128 7.2 5.128C7.072 5.112 6.944 5.112 6.816 5.128C6.512 5.192 6.272 5.312 6.096 5.488C6 5.456 5.92 5.44 5.856 5.44C5.808 5.408 5.76 5.4 5.712 5.416C5.664 5.432 5.616 5.44 5.568 5.44C5.472 5.488 5.384 5.544 5.304 5.608C5.224 5.672 5.16 5.76 5.112 5.872C5.096 5.936 5.072 6.008 5.04 6.088C5.024 6.152 5.016 6.224 5.016 6.304C5 6.464 4.984 6.632 4.968 6.808C4.968 6.968 4.96 7.136 4.944 7.312C4.944 7.408 4.936 7.512 4.92 7.624C4.92 7.72 4.928 7.816 4.944 7.912C4.944 7.928 4.952 7.96 4.968 8.008C4.984 8.056 5 8.096 5.016 8.128C5.24 8.096 5.448 8.08 5.64 8.08C5.832 8.064 6.016 8.072 6.192 8.104C6.368 8.152 6.544 8.184 6.72 8.2C6.912 8.216 7.088 8.248 7.248 8.296C7.328 8.312 7.424 8.304 7.536 8.272C7.632 8.192 7.72 8.112 7.8 8.032C7.896 7.952 7.992 7.872 8.088 7.792C8.168 7.776 8.24 7.768 8.304 7.768C8.384 7.752 8.456 7.736 8.52 7.72C8.616 7.64 8.712 7.56 8.808 7.48C8.904 7.384 8.992 7.296 9.072 7.216C9.104 7.104 9.128 7 9.144 6.904C9.176 6.808 9.2 6.704 9.216 6.592C9.248 6.496 9.28 6.408 9.312 6.328C9.36 6.232 9.384 6.128 9.384 6.016ZM23.2306 5.872C23.2626 6.128 23.2226 6.312 23.1106 6.424C23.0306 6.52 22.9746 6.624 22.9426 6.736C22.9266 6.848 22.9106 6.968 22.8946 7.096C22.8626 7.144 22.8306 7.192 22.7986 7.24C22.7826 7.288 22.7586 7.336 22.7266 7.384C22.6626 7.448 22.5986 7.52 22.5346 7.6C22.4866 7.68 22.4386 7.76 22.3906 7.84C22.3586 7.904 22.3346 7.976 22.3186 8.056C22.3026 8.136 22.2786 8.216 22.2466 8.296C22.2306 8.312 22.2146 8.336 22.1986 8.368C22.1986 8.384 22.1906 8.4 22.1746 8.416C22.1586 8.432 22.1346 8.44 22.1026 8.44C22.0866 8.44 22.0706 8.448 22.0546 8.464H21.9346C21.5826 8.32 21.2386 8.312 20.9026 8.44C20.8386 8.456 20.7826 8.464 20.7346 8.464C20.6866 8.464 20.6306 8.464 20.5666 8.464C20.5186 8.48 20.4706 8.488 20.4226 8.488C20.3906 8.488 20.3586 8.496 20.3266 8.512C20.1346 8.592 19.9666 8.696 19.8226 8.824C19.6786 8.952 19.5426 9.088 19.4146 9.232C19.3506 9.424 19.2786 9.624 19.1986 9.832C19.1346 10.024 19.1026 10.24 19.1026 10.48C19.1026 10.496 19.0946 10.528 19.0786 10.576C19.0626 10.608 19.0466 10.64 19.0306 10.672C19.0146 10.736 18.9906 10.792 18.9586 10.84C18.9426 10.872 18.9186 10.92 18.8866 10.984C18.8546 11.08 18.8146 11.176 18.7666 11.272C18.7186 11.368 18.6786 11.464 18.6466 11.56C18.6786 11.672 18.6706 11.776 18.6226 11.872C18.5906 11.968 18.5746 12.064 18.5746 12.16C18.6066 12.304 18.6066 12.44 18.5746 12.568C18.5586 12.68 18.5346 12.8 18.5026 12.928C18.4546 13.072 18.4306 13.224 18.4306 13.384C18.4466 13.528 18.4546 13.672 18.4546 13.816C18.4386 13.992 18.4306 14.176 18.4306 14.368C18.4466 14.56 18.4546 14.744 18.4546 14.92C18.4546 15.032 18.4466 15.152 18.4306 15.28C18.4146 15.408 18.4066 15.536 18.4066 15.664C18.3586 15.76 18.3186 15.824 18.2866 15.856C18.1746 16.032 18.0386 16.152 17.8786 16.216C17.7186 16.296 17.5426 16.328 17.3506 16.312C17.2226 16.296 17.0866 16.28 16.9426 16.264C16.8146 16.248 16.6866 16.232 16.5586 16.216C16.4946 16.2 16.4146 16.176 16.3186 16.144C16.2226 16.128 16.1346 16.104 16.0546 16.072C15.9906 16.088 15.9346 16.096 15.8866 16.096C15.8546 16.112 15.8146 16.128 15.7666 16.144C15.5586 16.08 15.3666 15.96 15.1906 15.784C15.2066 15.672 15.2146 15.56 15.2146 15.448C15.2146 15.336 15.2226 15.224 15.2386 15.112C15.2226 15.064 15.2066 15.008 15.1906 14.944C15.1906 14.864 15.1746 14.792 15.1426 14.728C15.1266 14.632 15.1026 14.536 15.0706 14.44C15.0386 14.344 15.0306 14.24 15.0466 14.128C15.0306 13.888 14.9826 13.608 14.9026 13.288C14.9346 13.256 14.9586 13.216 14.9746 13.168C15.0066 13.104 15.0306 13.048 15.0466 13C15.0626 12.952 15.0706 12.912 15.0706 12.88C15.0866 12.832 15.0946 12.784 15.0946 12.736C15.0946 12.704 15.1026 12.68 15.1186 12.664C15.1346 12.632 15.1266 12.6 15.0946 12.568C15.0786 12.52 15.0626 12.472 15.0466 12.424C15.0466 12.36 15.0386 12.304 15.0226 12.256C15.0066 12.096 15.0066 11.936 15.0226 11.776C15.0386 11.712 15.0466 11.656 15.0466 11.608C15.0626 11.544 15.0786 11.48 15.0946 11.416C15.1266 11.336 15.1346 11.248 15.1186 11.152C15.1186 11.056 15.0786 10.976 14.9986 10.912C14.9826 10.896 14.9666 10.88 14.9506 10.864C14.9506 10.832 14.9346 10.808 14.9026 10.792C14.8866 10.712 14.8706 10.624 14.8546 10.528C14.8546 10.432 14.8386 10.344 14.8066 10.264C14.7906 10.152 14.7666 10.048 14.7346 9.952C14.7186 9.856 14.7106 9.752 14.7106 9.64C14.7426 9.448 14.7506 9.264 14.7346 9.088C14.7186 8.896 14.7346 8.704 14.7826 8.512C14.7826 8.48 14.7746 8.44 14.7586 8.392C14.7586 8.344 14.7586 8.304 14.7586 8.272C14.7426 8.096 14.7266 7.92 14.7106 7.744C14.7106 7.568 14.7426 7.392 14.8066 7.216C14.8386 7.152 14.8546 7.08 14.8546 7C14.8546 6.92 14.8546 6.84 14.8546 6.76C14.8546 6.616 14.8546 6.48 14.8546 6.352C14.8706 6.208 14.9106 6.072 14.9746 5.944C14.9746 5.896 14.9506 5.816 14.9026 5.704C14.9346 5.624 14.9586 5.544 14.9746 5.464C15.0066 5.368 15.0306 5.28 15.0466 5.2C15.0786 5.12 15.1026 5.048 15.1186 4.984C15.1346 4.904 15.1506 4.832 15.1666 4.768C15.2626 4.672 15.3506 4.632 15.4306 4.648C15.5906 4.696 15.7506 4.704 15.9106 4.672C16.0866 4.624 16.2546 4.608 16.4146 4.624C16.4626 4.624 16.5106 4.616 16.5586 4.6C16.6066 4.568 16.6546 4.544 16.7026 4.528C16.9746 4.448 17.1986 4.456 17.3746 4.552C17.4866 4.744 17.5506 4.888 17.5666 4.984C17.5826 5.08 17.5986 5.312 17.6146 5.68C17.6626 5.856 17.7506 6.024 17.8786 6.184C17.9106 6.216 17.9586 6.24 18.0226 6.256C18.1026 6.256 18.1586 6.24 18.1906 6.208C18.2546 6.16 18.3106 6.12 18.3586 6.088C18.4066 6.04 18.4546 5.984 18.5026 5.92C18.5986 5.84 18.6866 5.76 18.7666 5.68C18.8626 5.584 18.9426 5.504 19.0066 5.44C19.1826 5.36 19.3506 5.28 19.5106 5.2C19.6866 5.12 19.8786 5.04 20.0866 4.96H20.6386L20.6866 4.936C20.7026 4.936 20.7106 4.936 20.7106 4.936C20.7266 4.92 20.7426 4.92 20.7586 4.936L20.8306 4.912C21.0226 5.008 21.1906 5.032 21.3346 4.984C21.5906 4.904 21.8386 4.936 22.0786 5.08C22.2226 5.144 22.3586 5.208 22.4866 5.272C22.6146 5.336 22.7506 5.408 22.8946 5.488C22.9426 5.552 22.9986 5.616 23.0626 5.68C23.1266 5.744 23.1826 5.808 23.2306 5.872ZM29.6371 3.184C29.6851 3.296 29.7011 3.416 29.6851 3.544C29.6691 3.656 29.6451 3.768 29.6131 3.88C29.5971 3.976 29.5651 4.072 29.5171 4.168C29.4691 4.248 29.4291 4.328 29.3971 4.408C29.3331 4.504 29.2611 4.592 29.1811 4.672C29.1171 4.752 29.0531 4.832 28.9891 4.912C28.9411 4.928 28.9011 4.96 28.8691 5.008C28.8371 5.04 28.7971 5.072 28.7491 5.104C28.6371 5.184 28.4611 5.264 28.2211 5.344C27.9811 5.408 27.7891 5.44 27.6451 5.44C27.5651 5.44 27.5011 5.424 27.4531 5.392C27.3571 5.392 27.2611 5.392 27.1651 5.392C27.0691 5.376 26.9811 5.368 26.9011 5.368C26.8531 5.336 26.7971 5.304 26.7331 5.272C26.6851 5.24 26.6451 5.208 26.6131 5.176C26.5331 5.144 26.4451 5.128 26.3491 5.128C26.2691 5.128 26.1891 5.128 26.1091 5.128C26.0451 5.08 25.9651 5.04 25.8691 5.008C25.7891 4.96 25.7091 4.92 25.6291 4.888L25.4851 4.456C25.5011 4.328 25.5171 4.192 25.5331 4.048C25.5491 3.888 25.5331 3.728 25.4851 3.568C25.4371 3.536 25.4371 3.496 25.4851 3.448C25.5331 3.336 25.5331 3.224 25.4851 3.112C25.4371 3 25.4371 2.888 25.4851 2.776C25.5011 2.744 25.5091 2.696 25.5091 2.632C25.4611 2.536 25.4611 2.448 25.5091 2.368C25.5571 2.272 25.5971 2.192 25.6291 2.128C25.6131 2.08 25.6051 2.032 25.6051 1.984C25.6051 1.92 25.6051 1.872 25.6051 1.84C25.6211 1.824 25.6291 1.808 25.6291 1.792C25.6451 1.76 25.6691 1.736 25.7011 1.72C25.8291 1.688 25.9331 1.632 26.0131 1.552C26.1091 1.456 26.2131 1.384 26.3251 1.336C26.4371 1.24 26.5571 1.16 26.6851 1.096C26.8291 1.032 26.9651 0.968 27.0931 0.904C27.2211 0.904 27.3331 0.904 27.4291 0.904C27.5251 0.904 27.6211 0.92 27.7171 0.951999C27.7651 0.967999 27.8211 0.975999 27.8851 0.975999C27.9491 0.975999 28.0131 0.975999 28.0771 0.975999C28.3011 0.943999 28.4771 1.032 28.6051 1.24C28.6371 1.32 28.6931 1.368 28.7731 1.384C28.8531 1.4 28.9251 1.424 28.9891 1.456C29.1491 1.6 29.2531 1.784 29.3011 2.008C29.3331 2.104 29.3651 2.2 29.3971 2.296C29.4451 2.392 29.4771 2.488 29.4931 2.584C29.5251 2.68 29.5491 2.784 29.5651 2.896C29.5971 2.992 29.6211 3.088 29.6371 3.184ZM29.4931 8.704C29.4611 8.8 29.4451 8.912 29.4451 9.04C29.4451 9.152 29.4451 9.272 29.4451 9.4C29.4611 9.512 29.4611 9.632 29.4451 9.76C29.4291 9.872 29.4211 9.984 29.4211 10.096L29.2531 10.336C29.3331 10.416 29.3811 10.504 29.3971 10.6C29.4131 10.696 29.4211 10.8 29.4211 10.912C29.4211 11.024 29.4211 11.144 29.4211 11.272C29.4211 11.384 29.4131 11.504 29.3971 11.632C29.3811 11.744 29.3491 11.864 29.3011 11.992C29.2531 12.12 29.2131 12.256 29.1811 12.4C29.1811 12.56 29.1731 12.752 29.1571 12.976C29.1571 13.184 29.1651 13.392 29.1811 13.6C29.1971 13.904 29.1811 14.216 29.1331 14.536C29.0851 14.84 28.9891 15.128 28.8451 15.4C28.8451 15.528 28.8611 15.656 28.8931 15.784C28.9251 15.896 28.9571 16.016 28.9891 16.144C28.9891 16.16 28.9811 16.176 28.9651 16.192C28.9491 16.224 28.9411 16.256 28.9411 16.288C28.8611 16.4 28.7651 16.496 28.6531 16.576C28.6371 16.576 28.6211 16.584 28.6051 16.6H28.5091C28.3331 16.6 28.1491 16.608 27.9571 16.624C27.7811 16.656 27.5811 16.648 27.3571 16.6C27.2931 16.568 27.2211 16.528 27.1411 16.48C27.0771 16.432 27.0051 16.392 26.9251 16.36C26.8611 16.36 26.7811 16.352 26.6851 16.336C26.6051 16.336 26.5251 16.328 26.4451 16.312C26.3171 16.168 26.1891 16.016 26.0611 15.856C26.0131 15.824 25.9571 15.8 25.8931 15.784C25.8291 15.768 25.7651 15.744 25.7011 15.712C25.5891 15.632 25.5491 15.504 25.5811 15.328C25.6131 15.152 25.6531 15 25.7011 14.872C25.7491 14.664 25.7411 14.464 25.6771 14.272L25.5811 13.936C25.5811 13.808 25.5731 13.688 25.5571 13.576C25.5411 13.464 25.5411 13.352 25.5571 13.24C25.5731 13.08 25.5731 12.928 25.5571 12.784C25.5571 12.64 25.5571 12.488 25.5571 12.328C25.5731 12.104 25.5811 11.888 25.5811 11.68C25.5811 11.456 25.5811 11.24 25.5811 11.032C25.5811 10.952 25.5891 10.904 25.6051 10.888C25.6851 10.76 25.7251 10.64 25.7251 10.528C25.7251 10.4 25.7251 10.272 25.7251 10.144C25.7091 10.016 25.7091 9.888 25.7251 9.76C25.7571 9.616 25.7571 9.488 25.7251 9.376C25.7251 9.232 25.7251 9.096 25.7251 8.968C25.7251 8.824 25.7331 8.68 25.7491 8.536C25.7651 8.456 25.7731 8.376 25.7731 8.296C25.7891 8.2 25.7811 8.096 25.7491 7.984C25.8931 7.92 26.0131 7.872 26.1091 7.84C26.2211 7.808 26.3251 7.792 26.4211 7.792C26.4851 7.792 26.5491 7.792 26.6131 7.792C26.6931 7.792 26.7651 7.784 26.8291 7.768C26.9891 7.736 27.1251 7.704 27.2371 7.672C27.3171 7.688 27.3811 7.72 27.4291 7.768C27.4931 7.8 27.5571 7.832 27.6211 7.864C27.7331 7.864 27.8451 7.84 27.9571 7.792C28.0691 7.776 28.1651 7.784 28.2451 7.816C28.3411 7.848 28.4131 7.928 28.4611 8.056C28.4771 8.072 28.4851 8.088 28.4851 8.104C28.5011 8.12 28.5171 8.136 28.5331 8.152L28.7011 8.248C28.8131 8.264 28.9091 8.248 28.9891 8.2C29.0691 8.136 29.1491 8.096 29.2291 8.08C29.3251 8.08 29.3811 8.12 29.3971 8.2C29.4451 8.312 29.4771 8.48 29.4931 8.704ZM40.8975 15.232C40.8815 15.344 40.8495 15.448 40.8015 15.544C40.7535 15.624 40.6975 15.704 40.6335 15.784C40.5695 15.816 40.5135 15.832 40.4655 15.832C40.4015 15.832 40.3375 15.832 40.2735 15.832C40.2095 15.832 40.1535 15.824 40.1055 15.808C39.9295 15.776 39.7695 15.784 39.6255 15.832C39.4975 15.848 39.3615 15.872 39.2175 15.904C39.0735 15.92 38.9375 15.936 38.8095 15.952C38.7455 15.968 38.6895 15.976 38.6415 15.976C38.5935 15.96 38.5295 15.952 38.4495 15.952C38.4015 15.968 38.3535 15.976 38.3055 15.976C38.2735 15.96 38.2255 15.968 38.1615 16C38.1135 15.968 38.0575 15.952 37.9935 15.952C37.9455 15.952 37.9055 15.944 37.8735 15.928C37.6175 15.944 37.4495 15.952 37.3695 15.952C37.2895 15.952 37.1615 15.928 36.9855 15.88C36.8735 15.912 36.7535 15.936 36.6255 15.952C36.5135 15.968 36.4015 15.992 36.2895 16.024C36.2255 16.04 36.1615 16.048 36.0975 16.048C36.0335 16.048 35.9695 16.048 35.9055 16.048C35.7935 16.048 35.6735 16.072 35.5455 16.12C35.4495 16.088 35.3535 16.064 35.2575 16.048C35.1615 16.032 35.0575 16.024 34.9455 16.024C34.8815 16.024 34.8095 16.032 34.7295 16.048C34.6495 16.064 34.5695 16.088 34.4895 16.12C34.4575 16.088 34.4095 16.064 34.3455 16.048C34.2815 16.048 34.2095 16.04 34.1295 16.024C34.0655 15.992 33.9935 15.976 33.9135 15.976C33.8495 15.976 33.7775 15.968 33.6975 15.952C33.6655 15.952 33.6175 15.96 33.5535 15.976C33.5055 15.976 33.4495 15.984 33.3855 16C33.1935 16.032 33.0735 15.952 33.0255 15.76C33.0255 15.696 33.0175 15.648 33.0015 15.616C33.0015 15.568 33.0015 15.52 33.0015 15.472C33.0015 15.392 32.9855 15.272 32.9535 15.112C32.9535 15.064 32.9455 15.016 32.9295 14.968C32.9135 14.904 32.8975 14.84 32.8815 14.776C32.8655 14.632 32.8495 14.488 32.8335 14.344C32.8175 14.184 32.8015 14.04 32.7855 13.912C32.7855 13.832 32.7855 13.76 32.7855 13.696C32.7855 13.616 32.7775 13.536 32.7615 13.456C32.7935 13.376 32.8255 13.304 32.8575 13.24C32.9055 13.176 32.9455 13.112 32.9775 13.048C33.1055 12.84 33.2335 12.632 33.3615 12.424C33.4895 12.2 33.6175 11.992 33.7455 11.8C33.8415 11.656 33.9455 11.512 34.0575 11.368C34.1855 11.208 34.3055 11.056 34.4175 10.912C34.7535 10.528 35.0175 10.096 35.2095 9.616C35.3055 9.44 35.4015 9.272 35.4975 9.112C35.5935 8.952 35.7135 8.792 35.8575 8.632V8.584C35.8255 8.504 35.7775 8.424 35.7135 8.344C35.6655 8.264 35.6095 8.192 35.5455 8.128C35.3855 8.048 35.2175 8.024 35.0415 8.056C34.8175 8.088 34.5775 8.096 34.3215 8.08C34.0815 8.064 33.8495 8.064 33.6255 8.08C33.5775 8.08 33.5215 8.08 33.4575 8.08C33.4095 8.08 33.3695 8.072 33.3375 8.056C33.2095 7.992 33.0735 7.96 32.9295 7.96C32.7855 7.944 32.6495 7.936 32.5215 7.936C32.3615 7.936 32.2175 7.864 32.0895 7.72C32.0415 7.64 32.0175 7.56 32.0175 7.48C32.0335 7.4 32.0335 7.32 32.0175 7.24C32.0175 7.176 32.0175 7.112 32.0175 7.048C32.0335 6.968 32.0335 6.896 32.0175 6.832C32.0175 6.752 32.0095 6.68 31.9935 6.616C31.9935 6.536 31.9935 6.456 31.9935 6.376C32.0095 6.328 32.0255 6.288 32.0415 6.256C32.0575 6.208 32.0735 6.16 32.0895 6.112C32.1055 6.032 32.1055 5.96 32.0895 5.896C32.0895 5.816 32.0975 5.736 32.1135 5.656C32.1455 5.576 32.1615 5.504 32.1615 5.44C32.1615 5.376 32.1615 5.312 32.1615 5.248C32.1615 5.168 32.1535 5.088 32.1375 5.008C32.1375 4.912 32.1615 4.816 32.2095 4.72C32.2415 4.704 32.2655 4.68 32.2815 4.648C32.3135 4.616 32.3535 4.592 32.4015 4.576C32.4975 4.528 32.5935 4.488 32.6895 4.456C32.7855 4.408 32.8815 4.352 32.9775 4.288C33.1535 4.336 33.3135 4.36 33.4575 4.36C33.5375 4.36 33.6175 4.352 33.6975 4.336C33.7775 4.304 33.8575 4.28 33.9375 4.264C34.0015 4.28 34.0655 4.304 34.1295 4.336C34.1935 4.352 34.2575 4.352 34.3215 4.336C34.4495 4.304 34.5615 4.288 34.6575 4.288C34.7535 4.288 34.8495 4.304 34.9455 4.336C35.0735 4.352 35.2015 4.36 35.3295 4.36C35.4735 4.36 35.6015 4.352 35.7135 4.336C35.8255 4.288 35.9375 4.288 36.0495 4.336C36.0975 4.336 36.1455 4.344 36.1935 4.36C36.2415 4.36 36.2815 4.352 36.3135 4.336C36.4895 4.256 36.6575 4.224 36.8175 4.24C36.9775 4.24 37.1375 4.24 37.2975 4.24C37.3295 4.24 37.3695 4.24 37.4175 4.24C37.4815 4.24 37.5375 4.248 37.5855 4.264C37.6495 4.296 37.7135 4.336 37.7775 4.384C37.8575 4.416 37.9295 4.448 37.9935 4.48C38.0735 4.496 38.1615 4.512 38.2575 4.528C38.3535 4.528 38.4415 4.544 38.5215 4.576C38.6015 4.592 38.6735 4.632 38.7375 4.696C38.8175 4.76 38.8895 4.808 38.9535 4.84H39.2175C39.3295 4.888 39.4415 4.92 39.5535 4.936C39.6655 4.936 39.7855 4.936 39.9135 4.936C40.1215 4.936 40.3055 5.016 40.4655 5.176C40.4975 5.24 40.5135 5.304 40.5135 5.368C40.5295 5.432 40.5455 5.496 40.5615 5.56C40.5455 5.656 40.5295 5.752 40.5135 5.848C40.4975 5.928 40.4815 6.016 40.4655 6.112V6.592C40.4655 6.96 40.3775 7.344 40.2015 7.744C40.1855 7.808 40.1535 7.856 40.1055 7.888C40.0735 7.92 40.0415 7.968 40.0095 8.032L39.5295 8.608C39.4655 8.64 39.4175 8.688 39.3855 8.752C39.3535 8.816 39.3215 8.888 39.2895 8.968C39.2575 9.128 39.1935 9.28 39.0975 9.424C39.0015 9.568 38.8975 9.712 38.7855 9.856C38.7215 9.92 38.6655 9.992 38.6175 10.072C38.5855 10.136 38.5375 10.208 38.4735 10.288C38.4415 10.352 38.4095 10.408 38.3775 10.456C38.3455 10.488 38.3215 10.536 38.3055 10.6C38.2735 10.712 38.2255 10.816 38.1615 10.912C38.0975 11.008 38.0335 11.112 37.9695 11.224C37.9055 11.32 37.8495 11.416 37.8015 11.512C37.7535 11.608 37.6895 11.704 37.6095 11.8C37.5455 11.896 37.4735 11.992 37.3935 12.088C37.3295 12.168 37.2495 12.264 37.1535 12.376C37.2015 12.44 37.1855 12.528 37.1055 12.64C37.0255 12.736 36.9935 12.816 37.0095 12.88C37.0415 12.928 37.1295 12.952 37.2735 12.952C37.4335 12.936 37.5375 12.96 37.5855 13.024C37.8255 13.056 38.0495 13.024 38.2575 12.928C38.5615 12.832 38.8975 12.8 39.2655 12.832C39.4895 12.848 39.6975 12.864 39.8895 12.88C40.0975 12.88 40.3055 12.888 40.5135 12.904C40.5295 12.936 40.5375 12.96 40.5375 12.976C40.5535 12.992 40.5695 13.016 40.5855 13.048C40.6175 13.16 40.6415 13.28 40.6575 13.408C40.6895 13.536 40.7135 13.664 40.7295 13.792C40.7295 13.808 40.7215 13.84 40.7055 13.888C40.7055 13.92 40.7135 13.952 40.7295 13.984C40.8415 14.192 40.8895 14.408 40.8735 14.632C40.8735 14.84 40.8815 15.04 40.8975 15.232ZM53.6031 7.528C53.5871 7.688 53.5711 7.856 53.5551 8.032C53.5551 8.192 53.5391 8.352 53.5071 8.512C53.4911 8.672 53.4831 8.848 53.4831 9.04C53.4831 9.216 53.4511 9.4 53.3871 9.592C53.3551 9.64 53.3151 9.696 53.2671 9.76C53.2191 9.808 53.1711 9.872 53.1231 9.952C53.1231 10.016 53.1231 10.072 53.1231 10.12C53.1391 10.168 53.1551 10.224 53.1711 10.288C53.1391 10.368 53.0911 10.44 53.0271 10.504C52.9631 10.552 52.8991 10.592 52.8351 10.624C52.6751 10.672 52.5231 10.72 52.3791 10.768C52.2511 10.816 52.1151 10.856 51.9711 10.888C51.7471 10.92 51.5151 10.928 51.2751 10.912C51.0351 10.88 50.7951 10.872 50.5551 10.888C50.3471 10.888 50.1231 10.896 49.8831 10.912C49.6591 10.912 49.4271 10.912 49.1871 10.912H47.8431C47.7791 10.96 47.7071 10.976 47.6271 10.96C47.5631 10.944 47.4991 10.952 47.4351 10.984C47.3711 10.952 47.2991 10.952 47.2191 10.984C47.1391 11 47.0591 10.992 46.9791 10.96C46.9151 10.976 46.8511 10.992 46.7871 11.008C46.7391 11.008 46.6751 11.016 46.5951 11.032C46.5311 11.016 46.4751 11 46.4271 10.984C46.3791 10.952 46.3231 10.96 46.2591 11.008C46.2911 11.056 46.3231 11.112 46.3551 11.176C46.4031 11.224 46.4351 11.288 46.4511 11.368C46.4991 11.432 46.5391 11.496 46.5711 11.56C46.6031 11.624 46.6351 11.696 46.6671 11.776C46.6991 11.84 46.7231 11.912 46.7391 11.992C46.7551 12.056 46.7711 12.12 46.7871 12.184C46.8671 12.264 46.9551 12.344 47.0511 12.424C47.1471 12.504 47.2431 12.584 47.3391 12.664C47.4191 12.68 47.4991 12.696 47.5791 12.712C47.6751 12.728 47.7631 12.744 47.8431 12.76C47.9391 12.776 48.0351 12.792 48.1311 12.808C48.2271 12.824 48.3311 12.824 48.4431 12.808C48.5551 12.776 48.6591 12.784 48.7551 12.832C48.8511 12.864 48.9551 12.888 49.0671 12.904C49.2111 12.888 49.3551 12.872 49.4991 12.856C49.6591 12.84 49.8111 12.824 49.9551 12.808C50.0191 12.76 50.0831 12.72 50.1471 12.688C50.2271 12.64 50.2991 12.592 50.3631 12.544C50.5711 12.496 50.7791 12.504 50.9871 12.568C51.0351 12.648 51.0911 12.728 51.1551 12.808C51.2351 12.888 51.3071 12.976 51.3711 13.072C51.4671 13.216 51.5631 13.36 51.6591 13.504C51.7551 13.632 51.8191 13.784 51.8511 13.96C51.8831 14.04 51.9311 14.12 51.9951 14.2C52.0591 14.28 52.1071 14.352 52.1391 14.416C52.1551 14.496 52.1471 14.568 52.1151 14.632C52.0991 14.696 52.0831 14.768 52.0671 14.848C52.0031 14.912 51.9231 14.968 51.8271 15.016C51.8111 15.016 51.7951 15.032 51.7791 15.064C51.7631 15.096 51.7391 15.12 51.7071 15.136C51.6111 15.2 51.5151 15.264 51.4191 15.328C51.3231 15.392 51.2351 15.456 51.1551 15.52C50.9311 15.712 50.6991 15.808 50.4591 15.808C50.3631 15.808 50.2911 15.816 50.2431 15.832C50.1631 15.848 50.0831 15.88 50.0031 15.928C49.9231 15.976 49.8351 16.016 49.7391 16.048C49.6591 16.048 49.5791 16.056 49.4991 16.072C49.4191 16.104 49.3391 16.128 49.2591 16.144C49.2111 16.144 49.1551 16.136 49.0911 16.12C49.0271 16.12 48.9631 16.12 48.8991 16.12C48.7551 16.136 48.6111 16.128 48.4671 16.096C48.3231 16.064 48.1791 16.048 48.0351 16.048C47.9871 16.032 47.9391 16.016 47.8911 16C47.8431 15.984 47.7951 15.976 47.7471 15.976C47.4751 15.992 47.2191 15.952 46.9791 15.856C46.7391 15.744 46.4991 15.632 46.2591 15.52C46.0671 15.472 45.9311 15.384 45.8511 15.256C45.7391 15.128 45.6111 15.024 45.4671 14.944C45.3391 14.848 45.1951 14.768 45.0351 14.704C44.9391 14.672 44.8431 14.632 44.7471 14.584C44.6511 14.52 44.5471 14.456 44.4351 14.392C44.4191 14.328 44.3951 14.264 44.3631 14.2C44.3311 14.136 44.2991 14.072 44.2671 14.008C44.2351 13.96 44.1871 13.912 44.1231 13.864C44.0751 13.816 44.0271 13.768 43.9791 13.72C43.9311 13.672 43.8911 13.616 43.8591 13.552C43.7791 13.28 43.6991 13.016 43.6191 12.76C43.5391 12.488 43.4351 12.224 43.3071 11.968C43.3231 11.856 43.3311 11.744 43.3311 11.632C43.3471 11.504 43.3391 11.368 43.3071 11.224C43.2911 11.192 43.2831 11.152 43.2831 11.104C43.2831 11.056 43.2831 11.016 43.2831 10.984C43.2831 10.904 43.2831 10.84 43.2831 10.792C43.2991 10.728 43.2991 10.672 43.2831 10.624C43.2671 10.496 43.2511 10.368 43.2351 10.24C43.2191 10.112 43.2271 9.992 43.2591 9.88C43.2911 9.752 43.3231 9.624 43.3551 9.496C43.3871 9.368 43.4271 9.232 43.4751 9.088C43.4591 9.056 43.4511 9.008 43.4511 8.944C43.4511 8.88 43.4431 8.816 43.4271 8.752C43.4591 8.576 43.4911 8.4 43.5231 8.224C43.5551 8.048 43.5951 7.88 43.6431 7.72C43.6911 7.624 43.7391 7.536 43.7871 7.456C43.8511 7.36 43.9151 7.264 43.9791 7.168C44.0911 6.976 44.1791 6.792 44.2431 6.616C44.4351 6.52 44.5471 6.464 44.5791 6.448C44.6271 6.416 44.6671 6.376 44.6991 6.328C44.7311 6.28 44.8351 6.184 45.0111 6.04C44.9951 5.992 45.0351 5.92 45.1311 5.824C45.2271 5.728 45.2591 5.648 45.2271 5.584C45.3711 5.312 45.5791 5.096 45.8511 4.936C45.9471 4.872 46.0351 4.808 46.1151 4.744C46.2111 4.664 46.2911 4.592 46.3551 4.528C46.4351 4.48 46.5071 4.464 46.5711 4.48C46.6511 4.48 46.7231 4.48 46.7871 4.48C46.8351 4.464 46.8831 4.456 46.9311 4.456C46.9951 4.44 47.0591 4.424 47.1231 4.408C47.1551 4.392 47.1951 4.376 47.2431 4.36C47.2911 4.344 47.3311 4.32 47.3631 4.288C47.3951 4.272 47.4271 4.256 47.4591 4.24C47.4911 4.224 47.5231 4.216 47.5551 4.216C47.6991 4.2 47.8351 4.16 47.9631 4.096C48.0911 4.032 48.2111 3.968 48.3231 3.904C48.5631 4 48.8111 4.032 49.0671 4C49.2271 3.984 49.3791 3.992 49.5231 4.024C49.6831 4.056 49.8271 4.096 49.9551 4.144L50.2911 4.048C50.4191 4.064 50.5391 4.104 50.6511 4.168C50.7631 4.232 50.8751 4.296 50.9871 4.36H51.2031C51.2191 4.376 51.2351 4.392 51.2511 4.408C51.2671 4.408 51.2831 4.416 51.2991 4.432C51.4751 4.592 51.6431 4.744 51.8031 4.888C51.9631 5.016 52.1311 5.152 52.3071 5.296C52.5471 5.456 52.6991 5.648 52.7631 5.872C52.8271 5.968 52.8831 6.04 52.9311 6.088C53.1231 6.248 53.2911 6.464 53.4351 6.736C53.4351 6.768 53.4351 6.816 53.4351 6.88C53.4511 6.928 53.4591 6.976 53.4591 7.024C53.4431 7.104 53.4591 7.184 53.5071 7.264C53.5551 7.344 53.5871 7.432 53.6031 7.528ZM50.5551 8.32V7.72C50.5551 7.64 50.5471 7.592 50.5311 7.576C50.5151 7.528 50.4911 7.48 50.4591 7.432C50.4431 7.384 50.4271 7.352 50.4111 7.336V6.928L50.3391 6.856C50.2751 6.856 50.1951 6.84 50.0991 6.808C50.0671 6.664 50.0271 6.552 49.9791 6.472C49.9311 6.408 49.8671 6.368 49.7871 6.352C49.7071 6.336 49.6191 6.312 49.5231 6.28C49.3151 6.344 49.0911 6.4 48.8511 6.448C48.6111 6.496 48.3791 6.56 48.1551 6.64C48.0431 6.656 47.9391 6.664 47.8431 6.664C47.7471 6.664 47.6511 6.672 47.5551 6.688C47.3951 6.752 47.2511 6.856 47.1231 7C47.0111 7.128 46.8991 7.256 46.7871 7.384C46.7231 7.464 46.6671 7.552 46.6191 7.648C46.5711 7.744 46.5151 7.832 46.4511 7.912C46.4351 7.928 46.4271 7.976 46.4271 8.056C46.4751 8.184 46.5471 8.264 46.6431 8.296C46.7391 8.312 46.8351 8.336 46.9311 8.368C47.0271 8.4 47.1311 8.432 47.2431 8.464C47.2911 8.448 47.3311 8.44 47.3631 8.44C47.4111 8.44 47.4591 8.432 47.5071 8.416C47.6991 8.336 47.8591 8.328 47.9871 8.392C48.1151 8.408 48.2271 8.408 48.3231 8.392C48.4351 8.376 48.5471 8.36 48.6591 8.344C48.7551 8.392 48.8511 8.424 48.9471 8.44C49.0591 8.456 49.1631 8.48 49.2591 8.512C49.4671 8.576 49.6671 8.608 49.8591 8.608C50.0511 8.608 50.2431 8.584 50.4351 8.536C50.5151 8.456 50.5551 8.384 50.5551 8.32ZM63.443 6.28C63.395 6.488 63.299 6.664 63.155 6.808C63.091 6.872 63.035 6.944 62.987 7.024C62.955 7.088 62.907 7.136 62.843 7.168C62.779 7.232 62.731 7.288 62.699 7.336C62.667 7.384 62.635 7.448 62.603 7.528C62.523 7.688 62.387 7.704 62.195 7.576C62.099 7.512 62.035 7.448 62.003 7.384L61.715 7.36C61.683 7.36 61.659 7.352 61.643 7.336C61.563 7.304 61.507 7.256 61.475 7.192C61.443 7.112 61.387 7.048 61.307 7C61.067 6.888 60.827 6.808 60.587 6.76C60.347 6.712 60.099 6.728 59.843 6.808C59.683 7.016 59.579 7.168 59.531 7.264C59.483 7.344 59.427 7.496 59.363 7.72C59.363 7.832 59.379 7.944 59.411 8.056C59.459 8.152 59.499 8.264 59.531 8.392C59.611 8.52 59.715 8.608 59.843 8.656C59.907 8.656 59.971 8.664 60.035 8.68C60.099 8.68 60.163 8.688 60.227 8.704C60.291 8.752 60.347 8.8 60.395 8.848C60.443 8.88 60.491 8.912 60.539 8.944C60.651 9.008 60.755 9.096 60.851 9.208C60.963 9.304 61.075 9.376 61.187 9.424C61.315 9.488 61.435 9.544 61.547 9.592C61.659 9.64 61.771 9.696 61.883 9.76C61.979 9.776 62.059 9.816 62.123 9.88C62.203 9.944 62.275 10.016 62.339 10.096C62.387 10.192 62.443 10.288 62.507 10.384C62.587 10.48 62.659 10.584 62.723 10.696C62.771 10.872 62.811 11.056 62.843 11.248C62.891 11.424 62.915 11.616 62.915 11.824C62.915 11.968 62.923 12.112 62.939 12.256C62.955 12.384 62.971 12.52 62.987 12.664C63.003 12.744 63.011 12.832 63.011 12.928C63.027 13.024 63.027 13.128 63.011 13.24C62.963 13.336 62.915 13.44 62.867 13.552C62.819 13.664 62.779 13.784 62.747 13.912C62.683 14.152 62.595 14.376 62.483 14.584C62.419 14.664 62.347 14.744 62.267 14.824C62.187 14.904 62.107 14.984 62.027 15.064C61.979 15.096 61.939 15.136 61.907 15.184C61.875 15.232 61.843 15.272 61.811 15.304C61.651 15.4 61.523 15.512 61.427 15.64C61.331 15.768 61.243 15.904 61.163 16.048C61.051 16.064 60.939 16.08 60.827 16.096C60.715 16.128 60.595 16.16 60.467 16.192C60.371 16.208 60.275 16.232 60.179 16.264C60.083 16.312 59.995 16.352 59.915 16.384H59.339C59.163 16.304 58.995 16.272 58.835 16.288C58.675 16.304 58.507 16.336 58.331 16.384C58.171 16.416 58.059 16.4 57.995 16.336C57.883 16.256 57.763 16.192 57.635 16.144C57.523 16.112 57.411 16.088 57.299 16.072C57.139 15.912 56.971 15.76 56.795 15.616C56.619 15.472 56.459 15.312 56.315 15.136C56.315 15.088 56.307 15.04 56.291 14.992C56.291 14.928 56.291 14.872 56.291 14.824C56.291 14.696 56.291 14.584 56.291 14.488C56.307 14.376 56.315 14.264 56.315 14.152C56.363 13.928 56.443 13.712 56.555 13.504C56.683 13.296 56.803 13.088 56.915 12.88C57.011 12.896 57.099 12.912 57.179 12.928C57.259 12.944 57.347 12.968 57.443 13C57.523 13.064 57.619 13.12 57.731 13.168C57.843 13.216 57.955 13.264 58.067 13.312C58.211 13.392 58.323 13.424 58.403 13.408C58.467 13.408 58.523 13.416 58.571 13.432C58.619 13.448 58.675 13.464 58.739 13.48C58.931 13.56 59.115 13.536 59.291 13.408C59.371 13.36 59.443 13.312 59.507 13.264C59.587 13.2 59.651 13.12 59.699 13.024C59.699 12.928 59.699 12.824 59.699 12.712C59.699 12.584 59.707 12.464 59.723 12.352C59.723 12.304 59.715 12.256 59.699 12.208C59.683 12.16 59.667 12.112 59.651 12.064C59.635 12 59.619 11.944 59.603 11.896L59.267 11.632C59.203 11.552 59.155 11.472 59.123 11.392C59.091 11.296 59.035 11.224 58.955 11.176L58.379 11.008C58.283 10.96 58.203 10.904 58.139 10.84C58.075 10.776 58.011 10.72 57.947 10.672C57.915 10.64 57.883 10.616 57.851 10.6C57.819 10.584 57.787 10.568 57.755 10.552C57.691 10.536 57.627 10.52 57.563 10.504C57.499 10.488 57.427 10.464 57.347 10.432C57.251 10.352 57.123 10.28 56.963 10.216C56.867 10.104 56.803 9.992 56.771 9.88C56.739 9.768 56.683 9.664 56.603 9.568C56.539 9.488 56.475 9.4 56.411 9.304C56.347 9.208 56.275 9.112 56.195 9.016C56.147 8.84 56.099 8.664 56.051 8.488C56.019 8.296 55.979 8.112 55.931 7.936C55.851 7.696 55.843 7.464 55.907 7.24C55.939 7.096 55.971 6.944 56.003 6.784C56.051 6.624 56.107 6.464 56.171 6.304C56.267 6.112 56.387 5.848 56.531 5.512C56.691 5.256 56.899 5.024 57.155 4.816C57.427 4.592 57.691 4.368 57.947 4.144C58.011 4.112 58.083 4.088 58.163 4.072C58.243 4.04 58.315 4.016 58.379 4C58.571 3.936 58.715 3.888 58.811 3.856C58.907 3.808 59.011 3.776 59.123 3.76C59.251 3.744 59.435 3.736 59.675 3.736H59.723C59.947 3.656 60.163 3.632 60.371 3.664C60.595 3.696 60.811 3.744 61.019 3.808C61.067 3.808 61.115 3.816 61.163 3.832C61.227 3.832 61.267 3.832 61.283 3.832C61.427 3.912 61.547 4.008 61.643 4.12C61.755 4.232 61.875 4.336 62.003 4.432C62.083 4.48 62.171 4.528 62.267 4.576C62.363 4.608 62.451 4.648 62.531 4.696C62.691 4.824 62.827 4.968 62.939 5.128C63.067 5.288 63.187 5.44 63.299 5.584C63.331 5.696 63.355 5.808 63.371 5.92C63.387 6.032 63.411 6.152 63.443 6.28ZM79.3488 14.272C79.2688 14.432 79.1968 14.592 79.1328 14.752C79.0688 14.912 78.9968 15.072 78.9168 15.232L78.4128 15.712C78.1088 16.048 77.7488 16.248 77.3328 16.312C77.1248 16.344 76.9088 16.352 76.6848 16.336C76.4768 16.336 76.2608 16.304 76.0368 16.24C75.9088 16.208 75.7728 16.16 75.6288 16.096C75.5008 16.048 75.3728 15.992 75.2448 15.928C75.1488 15.88 75.0448 15.848 74.9328 15.832C74.8208 15.8 74.7008 15.776 74.5728 15.76C74.5248 15.728 74.4688 15.696 74.4048 15.664C74.3408 15.616 74.2688 15.568 74.1888 15.52C74.0768 15.328 73.9408 15.152 73.7808 14.992C73.6368 14.832 73.5248 14.632 73.4448 14.392C73.4448 14.2 73.4368 14.072 73.4208 14.008C73.4048 13.928 73.3568 13.776 73.2768 13.552V11.968C73.2768 11.84 73.2688 11.72 73.2528 11.608C73.2528 11.48 73.2368 11.36 73.2048 11.248C73.1888 11.136 73.1808 11.04 73.1808 10.96C73.1968 10.88 73.2128 10.784 73.2288 10.672C73.2768 10.48 73.2768 10.28 73.2288 10.072C73.2768 9.88 73.3328 9.688 73.3968 9.496C73.3968 9.4 73.3728 9.264 73.3248 9.088C73.2768 8.912 73.2208 8.744 73.1568 8.584C73.0768 8.584 72.9968 8.576 72.9168 8.56C72.8368 8.544 72.7488 8.528 72.6528 8.512C72.5568 8.544 72.4528 8.576 72.3408 8.608C72.2448 8.64 72.1328 8.672 72.0048 8.704C71.9568 8.736 71.8848 8.752 71.7888 8.752C71.7728 8.752 71.7408 8.736 71.6928 8.704C71.6608 8.656 71.6448 8.624 71.6448 8.608C71.6288 8.56 71.6208 8.512 71.6208 8.464C71.6208 8.416 71.6208 8.368 71.6208 8.32C71.6048 8.192 71.5968 8.056 71.5968 7.912C71.5968 7.768 71.5968 7.632 71.5968 7.504C71.5968 7.376 71.5888 7.256 71.5728 7.144C71.5568 7.016 71.5328 6.896 71.5008 6.784C71.5168 6.704 71.5328 6.632 71.5488 6.568C71.5648 6.488 71.5808 6.416 71.5968 6.352V5.896C71.5968 5.768 71.6128 5.656 71.6448 5.56C71.6928 5.464 71.7808 5.376 71.9088 5.296C72.0048 5.264 72.1088 5.248 72.2208 5.248C72.3488 5.248 72.4848 5.248 72.6288 5.248C72.7568 5.264 72.8848 5.264 73.0128 5.248C73.1568 5.216 73.2848 5.144 73.3968 5.032C73.4288 5 73.4688 4.984 73.5168 4.984C73.5808 4.984 73.6288 4.984 73.6608 4.984C73.9808 5 74.2608 4.872 74.5008 4.6C74.5168 4.504 74.5648 4.368 74.6448 4.192C74.5968 4.08 74.5568 3.96 74.5248 3.832C74.4928 3.688 74.4528 3.552 74.4048 3.424C74.4368 3.376 74.4688 3.328 74.5008 3.28C74.5328 3.232 74.5568 3.176 74.5728 3.112C74.6048 3.032 74.6048 2.96 74.5728 2.896C74.5408 2.816 74.5328 2.752 74.5488 2.704C74.5168 2.624 74.5008 2.568 74.5008 2.536C74.5008 2.504 74.4848 2.448 74.4528 2.368C74.4688 2.336 74.4848 2.304 74.5008 2.272C74.5168 2.224 74.5328 2.184 74.5488 2.152C74.5648 2.088 74.5808 2.04 74.5968 2.008C74.6128 1.96 74.6288 1.904 74.6448 1.84H74.9088C74.9888 1.856 75.0688 1.872 75.1488 1.888C75.2448 1.888 75.3328 1.88 75.4128 1.864C75.4448 1.864 75.4848 1.872 75.5328 1.888C75.5808 1.888 75.6288 1.888 75.6768 1.888C75.9488 1.92 76.2128 1.96 76.4688 2.008C76.7408 2.056 77.0048 2.08 77.2608 2.08C77.2928 2.08 77.3248 2.088 77.3568 2.104C77.4048 2.12 77.4368 2.136 77.4528 2.152C77.5168 2.184 77.5728 2.224 77.6208 2.272C77.6048 2.336 77.5808 2.4 77.5488 2.464C77.5168 2.512 77.4928 2.56 77.4768 2.608C77.4608 2.672 77.4448 2.744 77.4288 2.824C77.4288 2.904 77.4208 2.984 77.4048 3.064C77.3888 3.176 77.3728 3.288 77.3568 3.4C77.3408 3.512 77.3168 3.64 77.2848 3.784C77.3008 3.8 77.3088 3.84 77.3088 3.904C77.3088 3.968 77.3168 4.024 77.3328 4.072C77.3168 4.184 77.2928 4.288 77.2608 4.384C77.2448 4.48 77.2288 4.592 77.2128 4.72C77.4208 4.88 77.6448 5.016 77.8848 5.128C78.1408 5.24 78.4448 5.344 78.7968 5.44C78.9728 5.552 79.0768 5.736 79.1088 5.992C79.1088 6.36 79.0848 6.728 79.0368 7.096C79.0208 7.24 79.0048 7.384 78.9888 7.528C78.9728 7.672 78.9728 7.816 78.9888 7.96C78.7808 8.088 78.5328 8.152 78.2448 8.152C78.1968 8.152 78.1488 8.16 78.1008 8.176C78.0528 8.192 78.0128 8.2 77.9808 8.2C77.7248 8.216 77.5248 8.24 77.3808 8.272C77.2528 8.304 77.0448 8.384 76.7568 8.512C76.7088 8.576 76.6848 8.664 76.6848 8.776C76.6688 8.872 76.6528 8.968 76.6367 9.064C76.6367 9.16 76.6448 9.264 76.6608 9.376C76.6608 9.376 76.6608 9.384 76.6608 9.4C76.6608 9.4 76.6448 9.408 76.6128 9.424C76.5168 9.616 76.4448 9.76 76.3968 9.856C76.3488 9.952 76.3168 10.048 76.3008 10.144C76.3008 10.24 76.3008 10.4 76.3008 10.624V11.776C76.3008 11.856 76.3088 11.904 76.3248 11.92C76.3408 12.064 76.4128 12.184 76.5408 12.28C76.6048 12.296 76.6608 12.312 76.7088 12.328C76.7728 12.344 76.8207 12.384 76.8528 12.448C76.9968 12.64 77.1568 12.744 77.3328 12.76C77.5248 12.76 77.7248 12.728 77.9328 12.664C77.9968 12.632 78.0608 12.6 78.1248 12.568C78.1888 12.536 78.2528 12.512 78.3168 12.496C78.4448 12.528 78.5248 12.6 78.5568 12.712C78.5888 12.824 78.6448 12.92 78.7248 13C78.8048 13.08 78.8688 13.168 78.9168 13.264C78.9808 13.36 79.0448 13.456 79.1088 13.552C79.1408 13.648 79.1808 13.76 79.2288 13.888C79.2768 14 79.3168 14.128 79.3488 14.272ZM92.2488 9.448C92.2968 9.64 92.2888 9.816 92.2248 9.976C92.1928 10.056 92.1688 10.136 92.1528 10.216C92.1368 10.296 92.1368 10.376 92.1528 10.456C92.1688 10.472 92.1688 10.496 92.1528 10.528C92.1528 10.544 92.1528 10.568 92.1528 10.6C92.0888 10.728 92.0568 10.864 92.0568 11.008C92.0728 11.152 92.0888 11.288 92.1048 11.416L91.8648 11.752V12.064C91.8328 12.096 91.7928 12.136 91.7448 12.184C91.6968 12.216 91.6328 12.264 91.5528 12.328C91.5208 12.44 91.4728 12.56 91.4088 12.688C91.3608 12.816 91.3208 12.936 91.2888 13.048V13.288C91.2248 13.352 91.1448 13.408 91.0488 13.456C90.9528 13.504 90.8728 13.576 90.8088 13.672C90.7448 13.72 90.6808 13.76 90.6168 13.792C90.5528 13.824 90.4808 13.864 90.4008 13.912C90.3688 13.928 90.3288 13.936 90.2808 13.936C90.2488 13.92 90.2168 13.92 90.1848 13.936C89.9448 13.936 89.8248 14.048 89.8248 14.272C89.6488 14.384 89.4728 14.504 89.2968 14.632C89.1368 14.76 88.9688 14.888 88.7928 15.016C88.5208 15.224 88.1688 15.368 87.7368 15.448C87.5928 15.464 87.4568 15.504 87.3288 15.568C87.2008 15.616 87.0648 15.656 86.9208 15.688C86.8888 15.688 86.8488 15.68 86.8008 15.664C86.7528 15.648 86.7128 15.648 86.6808 15.664C86.4888 15.68 86.2888 15.664 86.0808 15.616C86.0168 15.6 85.9528 15.6 85.8888 15.616C85.8248 15.632 85.7688 15.648 85.7208 15.664C85.6088 15.648 85.4968 15.632 85.3848 15.616C85.2728 15.6 85.1528 15.584 85.0248 15.568C84.8808 15.504 84.7448 15.432 84.6168 15.352C84.5048 15.272 84.3848 15.2 84.2568 15.136C84.1608 15.104 84.0728 15.048 83.9928 14.968C83.9128 14.888 83.8488 14.808 83.8008 14.728C83.7848 14.696 83.7608 14.672 83.7288 14.656C83.7128 14.624 83.6888 14.592 83.6568 14.56C83.6088 14.528 83.5608 14.504 83.5128 14.488C83.4648 14.456 83.4168 14.416 83.3688 14.368C83.1128 14.192 82.8808 14 82.6728 13.792C82.4808 13.584 82.3368 13.328 82.2408 13.024C82.1608 12.816 82.0648 12.632 81.9528 12.472C81.9208 12.408 81.8808 12.352 81.8328 12.304C81.8008 12.24 81.7688 12.176 81.7368 12.112C81.7528 12.08 81.7768 12.016 81.8088 11.92C81.7768 11.872 81.7448 11.824 81.7128 11.776C81.6808 11.728 81.6648 11.672 81.6648 11.608C81.6648 11.56 81.6568 11.512 81.6408 11.464C81.6408 11.4 81.6488 11.336 81.6648 11.272C81.6968 11.16 81.7048 11.048 81.6888 10.936C81.6728 10.824 81.6728 10.712 81.6888 10.6C81.7048 10.504 81.6968 10.4 81.6648 10.288C81.6488 10.176 81.6648 10.072 81.7128 9.976C81.7448 9.864 81.7688 9.76 81.7848 9.664C81.8008 9.568 81.8248 9.472 81.8568 9.376C81.8888 9.28 81.9208 9.192 81.9528 9.112C81.9848 9.016 82.0168 8.928 82.0488 8.848C82.0808 8.752 82.1128 8.656 82.1448 8.56C82.1768 8.464 82.2248 8.36 82.2888 8.248C82.2888 8.216 82.2888 8.176 82.2888 8.128C82.2888 8.08 82.2968 8.048 82.3128 8.032C82.3768 7.904 82.4248 7.784 82.4568 7.672C82.4888 7.56 82.4968 7.448 82.4808 7.336C82.5448 7.256 82.6008 7.192 82.6488 7.144C82.6968 7.096 82.7368 7.04 82.7688 6.976C82.8008 6.896 82.8328 6.824 82.8648 6.76C82.9128 6.68 82.9608 6.608 83.0088 6.544C83.0568 6.416 83.1288 6.304 83.2248 6.208C83.2888 6.128 83.3448 6.064 83.3928 6.016C83.4408 5.952 83.4808 5.904 83.5128 5.872C83.5608 5.776 83.5768 5.696 83.5608 5.632C83.5448 5.552 83.5368 5.488 83.5368 5.44C83.5688 5.36 83.5928 5.312 83.6088 5.296C83.6568 5.28 83.6968 5.256 83.7288 5.224C83.7768 5.192 83.8248 5.168 83.8728 5.152C84.0008 5.072 84.1368 4.992 84.2808 4.912C84.4248 4.832 84.5688 4.768 84.7128 4.72C84.8568 4.624 85.0008 4.56 85.1448 4.528C85.3048 4.48 85.4648 4.432 85.6248 4.384C85.7528 4.384 85.8808 4.384 86.0088 4.384C86.1368 4.384 86.2568 4.392 86.3688 4.408H86.5848C86.7608 4.472 86.9368 4.504 87.1128 4.504C87.3048 4.504 87.4888 4.496 87.6648 4.48C87.7448 4.48 87.8248 4.48 87.9048 4.48C88.0008 4.464 88.0888 4.456 88.1688 4.456C88.2488 4.52 88.3128 4.576 88.3608 4.624C88.4248 4.656 88.4888 4.704 88.5528 4.768C88.6008 4.784 88.6488 4.808 88.6968 4.84C88.7448 4.872 88.8008 4.896 88.8648 4.912C89.0888 4.928 89.2888 5 89.4648 5.128C89.6568 5.256 89.8328 5.384 89.9928 5.512C89.9928 5.544 89.9928 5.592 89.9928 5.656C89.9928 5.704 90.0008 5.752 90.0168 5.8C90.0168 5.88 90.0648 5.952 90.1608 6.016C90.2088 6.032 90.2648 6.04 90.3288 6.04C90.3928 6.04 90.4568 6.056 90.5208 6.088C90.5528 6.152 90.5928 6.224 90.6408 6.304C90.7048 6.384 90.7608 6.464 90.8088 6.544C90.8728 6.608 90.9368 6.672 91.0008 6.736C91.0648 6.8 91.1128 6.872 91.1448 6.952C91.1768 6.984 91.2008 7.024 91.2168 7.072C91.2488 7.12 91.2728 7.16 91.2888 7.192C91.3368 7.24 91.3848 7.288 91.4328 7.336C91.4808 7.384 91.5128 7.448 91.5288 7.528C91.5608 7.64 91.6088 7.752 91.6728 7.864C91.7368 7.976 91.7848 8.096 91.8168 8.224C91.8328 8.272 91.8568 8.32 91.8888 8.368C91.9368 8.416 91.9848 8.472 92.0328 8.536C92.0648 8.68 92.0888 8.832 92.1048 8.992C92.1368 9.152 92.1848 9.304 92.2488 9.448ZM88.8888 10.312C88.9048 10.2 88.8888 10.104 88.8408 10.024C88.7928 9.928 88.7768 9.832 88.7928 9.736C88.7928 9.704 88.7688 9.664 88.7208 9.616C88.7048 9.584 88.6968 9.52 88.6968 9.424C88.7128 9.392 88.7208 9.352 88.7208 9.304C88.7208 9.24 88.7208 9.2 88.7208 9.184C88.6088 9.008 88.5048 8.848 88.4088 8.704C88.3128 8.544 88.2088 8.392 88.0968 8.248C88.0968 8.216 88.0808 8.2 88.0488 8.2C88.0168 8.184 87.9848 8.152 87.9528 8.104C87.6808 8.104 87.3848 8.032 87.0648 7.888C86.8728 7.792 86.6408 7.784 86.3688 7.864C86.3528 7.864 86.3288 7.872 86.2968 7.888C86.2808 7.904 86.2568 7.928 86.2248 7.96H86.1048C85.8488 7.912 85.6808 8.008 85.6008 8.248C85.5688 8.312 85.5288 8.384 85.4808 8.464C85.4488 8.528 85.4248 8.6 85.4088 8.68C85.3928 8.744 85.3608 8.816 85.3128 8.896C85.2648 8.96 85.2248 9.024 85.1928 9.088C85.1288 9.168 85.0728 9.256 85.0248 9.352C84.9768 9.448 84.9208 9.536 84.8568 9.616C84.8408 9.776 84.8008 9.936 84.7368 10.096C84.6888 10.256 84.6568 10.408 84.6408 10.552C84.6888 10.632 84.7368 10.72 84.7848 10.816C84.8328 10.896 84.8728 10.976 84.9048 11.056C85.0008 11.264 85.0408 11.464 85.0248 11.656C85.0248 11.688 85.0328 11.72 85.0488 11.752C85.0648 11.784 85.0808 11.816 85.0968 11.848C85.2408 11.88 85.3768 11.912 85.5048 11.944C85.6488 11.976 85.7848 12.016 85.9128 12.064C86.0248 12.096 86.1368 12.12 86.2488 12.136C86.3608 12.152 86.4728 12.136 86.5848 12.088H86.6568C86.7848 12.12 86.9048 12.128 87.0168 12.112C87.1448 12.08 87.2808 12.048 87.4248 12.016C87.5368 11.936 87.6488 11.848 87.7608 11.752C87.8888 11.656 88.0168 11.576 88.1448 11.512C88.2568 11.288 88.3928 11.088 88.5528 10.912C88.7128 10.736 88.8248 10.536 88.8888 10.312ZM116.312 7.648C116.28 7.792 116.248 7.936 116.216 8.08C116.2 8.224 116.152 8.36 116.072 8.488C116.008 8.632 115.96 8.776 115.928 8.92C115.896 9.064 115.864 9.208 115.832 9.352C115.864 9.464 115.848 9.568 115.784 9.664C115.72 9.744 115.688 9.84 115.688 9.952C115.592 10.112 115.512 10.272 115.448 10.432C115.4 10.592 115.36 10.744 115.328 10.888C115.168 11.224 115 11.536 114.824 11.824C114.744 11.968 114.656 12.112 114.56 12.256C114.48 12.4 114.392 12.56 114.296 12.736C114.168 12.784 114.04 12.824 113.912 12.856C113.816 12.984 113.728 13.128 113.648 13.288C113.584 13.448 113.544 13.616 113.528 13.792C113.528 13.808 113.52 13.84 113.504 13.888C113.488 13.92 113.472 13.952 113.456 13.984C113.44 14.048 113.416 14.104 113.384 14.152C113.368 14.2 113.344 14.256 113.312 14.32C113.264 14.352 113.216 14.392 113.168 14.44C113.12 14.488 113.072 14.528 113.024 14.56C112.992 14.64 112.96 14.728 112.928 14.824C112.896 14.92 112.864 15.024 112.832 15.136C112.768 15.2 112.696 15.272 112.616 15.352C112.552 15.432 112.488 15.512 112.424 15.592C112.392 15.592 112.36 15.6 112.328 15.616C112.312 15.616 112.288 15.616 112.256 15.616C112.144 15.6 112.024 15.592 111.896 15.592C111.768 15.576 111.64 15.584 111.512 15.616C111.448 15.632 111.384 15.64 111.32 15.64C111.256 15.64 111.184 15.64 111.104 15.64C110.992 15.608 110.888 15.576 110.792 15.544C110.696 15.496 110.608 15.464 110.528 15.448C110.336 15.32 110.232 15.176 110.216 15.016C110.216 14.968 110.208 14.92 110.192 14.872C110.192 14.824 110.176 14.776 110.144 14.728C110.112 14.712 110.08 14.704 110.048 14.704C110.032 14.704 110.008 14.696 109.976 14.68C109.848 14.632 109.8 14.544 109.832 14.416C109.832 14.384 109.84 14.352 109.856 14.32C109.872 14.288 109.88 14.256 109.88 14.224V13.984C109.72 13.856 109.576 13.736 109.448 13.624C109.368 13.368 109.28 13.128 109.184 12.904C109.104 12.664 109.024 12.424 108.944 12.184C108.928 12.152 108.904 12.128 108.872 12.112C108.84 12.08 108.808 12.048 108.776 12.016L108.656 11.896C108.64 11.832 108.632 11.776 108.632 11.728C108.648 11.664 108.64 11.616 108.608 11.584C108.592 11.456 108.512 11.368 108.368 11.32C108.32 11.32 108.28 11.328 108.248 11.344C108.232 11.376 108.216 11.416 108.2 11.464C108.184 11.512 108.16 11.552 108.128 11.584C108.112 11.696 108.072 11.784 108.008 11.848C107.816 12.104 107.704 12.432 107.672 12.832C107.672 12.832 107.656 12.888 107.624 13C107.592 13.048 107.552 13.104 107.504 13.168C107.456 13.232 107.408 13.304 107.36 13.384C107.296 13.672 107.248 13.856 107.216 13.936C107.2 14.016 107.128 14.152 107 14.344C106.968 14.52 106.952 14.712 106.952 14.92C106.952 15.112 106.864 15.312 106.688 15.52C106.704 15.504 106.696 15.512 106.664 15.544C106.648 15.576 106.624 15.592 106.592 15.592C106.528 15.608 106.456 15.624 106.376 15.64C106.296 15.64 106.216 15.656 106.136 15.688C106.072 15.72 106 15.76 105.92 15.808C105.84 15.84 105.768 15.88 105.704 15.928C105.64 15.928 105.568 15.92 105.488 15.904C105.408 15.888 105.328 15.88 105.248 15.88C105.184 15.896 105.12 15.92 105.056 15.952C105.008 15.968 104.952 15.992 104.888 16.024C104.84 16.04 104.784 16.048 104.72 16.048C104.672 16.048 104.608 16.056 104.528 16.072C104.512 16.12 104.488 16.16 104.456 16.192C104.44 16.24 104.416 16.28 104.384 16.312C104.352 16.28 104.32 16.256 104.288 16.24C104.272 16.24 104.256 16.232 104.24 16.216C104.192 16.136 104.144 16.048 104.096 15.952C104.064 15.856 104.024 15.768 103.976 15.688C103.912 15.448 103.784 15.224 103.592 15.016C103.432 14.84 103.344 14.672 103.328 14.512C103.232 14.208 103.088 13.96 102.896 13.768C102.88 13.528 102.808 13.304 102.68 13.096C102.568 12.888 102.488 12.632 102.44 12.328C102.44 12.328 102.44 12.288 102.44 12.208C102.456 12.128 102.456 12.048 102.44 11.968C102.424 11.76 102.384 11.56 102.32 11.368C102.256 11.16 102.184 10.968 102.104 10.792C101.992 10.536 101.864 10.296 101.72 10.072C101.576 9.848 101.432 9.632 101.288 9.424C101.176 9.12 101.056 8.824 100.928 8.536C100.8 8.248 100.632 7.992 100.424 7.768C100.328 7.544 100.328 7.336 100.424 7.144L100.688 6.856C100.752 6.792 100.808 6.744 100.856 6.712C100.92 6.664 100.976 6.616 101.024 6.568C101.104 6.488 101.184 6.408 101.264 6.328C101.344 6.248 101.424 6.16 101.504 6.064C101.568 6.032 101.64 6 101.72 5.968C101.8 5.92 101.88 5.872 101.96 5.824C102.088 5.744 102.216 5.68 102.344 5.632C102.488 5.568 102.632 5.504 102.776 5.44C102.888 5.472 102.984 5.52 103.064 5.584C103.144 5.648 103.232 5.72 103.328 5.8C103.408 5.928 103.496 6.064 103.592 6.208C103.688 6.352 103.784 6.488 103.88 6.616C103.864 6.728 103.88 6.816 103.928 6.88C103.992 6.944 104.04 7.024 104.072 7.12L104.12 7.504C104.152 7.616 104.208 7.712 104.288 7.792C104.368 7.872 104.368 7.976 104.288 8.104C104.464 8.216 104.608 8.344 104.72 8.488C104.832 8.632 104.92 8.792 104.984 8.968C105.016 9.032 105.04 9.096 105.056 9.16C105.088 9.224 105.128 9.296 105.176 9.376C105.352 9.664 105.456 10.008 105.488 10.408C105.488 10.424 105.496 10.44 105.512 10.456C105.528 10.456 105.536 10.464 105.536 10.48C105.568 10.496 105.584 10.512 105.584 10.528C105.6 10.544 105.616 10.552 105.632 10.552C105.712 10.552 105.752 10.536 105.752 10.504C105.848 10.28 105.944 10.048 106.04 9.808C106.152 9.568 106.264 9.328 106.376 9.088C106.44 8.976 106.488 8.84 106.52 8.68C106.6 8.504 106.664 8.32 106.712 8.128C106.76 7.936 106.832 7.752 106.928 7.576C106.944 7.544 106.96 7.512 106.976 7.48C106.992 7.432 107 7.4 107 7.384C107.048 7.016 107.144 6.688 107.288 6.4C107.32 6.352 107.336 6.304 107.336 6.256C107.352 6.208 107.368 6.168 107.384 6.136C107.432 6.056 107.488 6.016 107.552 6.016C107.632 6 107.704 5.968 107.768 5.92C107.816 5.888 107.864 5.864 107.912 5.848C107.96 5.816 108.008 5.784 108.056 5.752C108.408 5.832 108.752 5.872 109.088 5.872C109.44 5.856 109.792 5.84 110.144 5.824C110.16 5.84 110.176 5.856 110.192 5.872C110.224 5.872 110.24 5.88 110.24 5.896C110.352 6.28 110.528 6.6 110.768 6.856C110.832 6.984 110.88 7.104 110.912 7.216C110.96 7.328 111.008 7.432 111.056 7.528C111.104 7.624 111.152 7.72 111.2 7.816C111.264 7.896 111.312 7.976 111.344 8.056C111.424 8.408 111.504 8.752 111.584 9.088C111.664 9.424 111.736 9.752 111.8 10.072C111.832 10.136 111.872 10.184 111.92 10.216C111.968 10.232 112.016 10.248 112.064 10.264C112.128 10.2 112.144 10.136 112.112 10.072C112.096 10.008 112.112 9.92 112.16 9.808C112.224 9.68 112.28 9.608 112.328 9.592C112.424 9.496 112.472 9.36 112.472 9.184C112.504 9.104 112.528 9.032 112.544 8.968C112.56 8.904 112.584 8.84 112.616 8.776C112.68 8.68 112.728 8.568 112.76 8.44C112.792 8.312 112.816 8.192 112.832 8.08C112.864 7.92 112.896 7.768 112.928 7.624C112.976 7.48 113.024 7.328 113.072 7.168C113.12 7.088 113.168 7.016 113.216 6.952C113.264 6.872 113.304 6.8 113.336 6.736C113.416 6.576 113.504 6.432 113.6 6.304C113.696 6.16 113.744 6.008 113.744 5.848C113.872 5.768 113.976 5.72 114.056 5.704C114.152 5.688 114.256 5.672 114.368 5.656C114.448 5.72 114.536 5.784 114.632 5.848C114.744 5.896 114.84 5.968 114.92 6.064C114.968 6.128 115.024 6.184 115.088 6.232C115.168 6.264 115.24 6.312 115.304 6.376C115.384 6.44 115.448 6.52 115.496 6.616C115.56 6.712 115.64 6.784 115.736 6.832C115.832 6.88 115.92 6.944 116 7.024C116.08 7.088 116.16 7.144 116.24 7.192C116.304 7.352 116.328 7.504 116.312 7.648ZM122.778 3.184C122.826 3.296 122.842 3.416 122.826 3.544C122.81 3.656 122.786 3.768 122.754 3.88C122.738 3.976 122.706 4.072 122.658 4.168C122.61 4.248 122.57 4.328 122.538 4.408C122.474 4.504 122.402 4.592 122.322 4.672C122.258 4.752 122.194 4.832 122.13 4.912C122.082 4.928 122.042 4.96 122.01 5.008C121.978 5.04 121.938 5.072 121.89 5.104C121.778 5.184 121.602 5.264 121.362 5.344C121.122 5.408 120.93 5.44 120.786 5.44C120.706 5.44 120.642 5.424 120.594 5.392C120.498 5.392 120.402 5.392 120.306 5.392C120.21 5.376 120.122 5.368 120.042 5.368C119.994 5.336 119.938 5.304 119.874 5.272C119.826 5.24 119.786 5.208 119.754 5.176C119.674 5.144 119.586 5.128 119.49 5.128C119.41 5.128 119.33 5.128 119.25 5.128C119.186 5.08 119.106 5.04 119.01 5.008C118.93 4.96 118.85 4.92 118.77 4.888L118.626 4.456C118.642 4.328 118.658 4.192 118.674 4.048C118.69 3.888 118.674 3.728 118.626 3.568C118.578 3.536 118.578 3.496 118.626 3.448C118.674 3.336 118.674 3.224 118.626 3.112C118.578 3 118.578 2.888 118.626 2.776C118.642 2.744 118.65 2.696 118.65 2.632C118.602 2.536 118.602 2.448 118.65 2.368C118.698 2.272 118.738 2.192 118.77 2.128C118.754 2.08 118.746 2.032 118.746 1.984C118.746 1.92 118.746 1.872 118.746 1.84C118.762 1.824 118.77 1.808 118.77 1.792C118.786 1.76 118.81 1.736 118.842 1.72C118.97 1.688 119.074 1.632 119.154 1.552C119.25 1.456 119.354 1.384 119.466 1.336C119.578 1.24 119.698 1.16 119.826 1.096C119.97 1.032 120.106 0.968 120.234 0.904C120.362 0.904 120.474 0.904 120.57 0.904C120.666 0.904 120.762 0.92 120.858 0.951999C120.906 0.967999 120.962 0.975999 121.026 0.975999C121.09 0.975999 121.154 0.975999 121.218 0.975999C121.442 0.943999 121.618 1.032 121.746 1.24C121.778 1.32 121.834 1.368 121.914 1.384C121.994 1.4 122.066 1.424 122.13 1.456C122.29 1.6 122.394 1.784 122.442 2.008C122.474 2.104 122.506 2.2 122.538 2.296C122.586 2.392 122.618 2.488 122.634 2.584C122.666 2.68 122.69 2.784 122.706 2.896C122.738 2.992 122.762 3.088 122.778 3.184ZM122.634 8.704C122.602 8.8 122.586 8.912 122.586 9.04C122.586 9.152 122.586 9.272 122.586 9.4C122.602 9.512 122.602 9.632 122.586 9.76C122.57 9.872 122.562 9.984 122.562 10.096L122.394 10.336C122.474 10.416 122.522 10.504 122.538 10.6C122.554 10.696 122.562 10.8 122.562 10.912C122.562 11.024 122.562 11.144 122.562 11.272C122.562 11.384 122.554 11.504 122.538 11.632C122.522 11.744 122.49 11.864 122.442 11.992C122.394 12.12 122.354 12.256 122.322 12.4C122.322 12.56 122.314 12.752 122.298 12.976C122.298 13.184 122.306 13.392 122.322 13.6C122.338 13.904 122.322 14.216 122.274 14.536C122.226 14.84 122.13 15.128 121.986 15.4C121.986 15.528 122.002 15.656 122.034 15.784C122.066 15.896 122.098 16.016 122.13 16.144C122.13 16.16 122.122 16.176 122.106 16.192C122.09 16.224 122.082 16.256 122.082 16.288C122.002 16.4 121.906 16.496 121.794 16.576C121.778 16.576 121.762 16.584 121.746 16.6H121.65C121.474 16.6 121.29 16.608 121.098 16.624C120.922 16.656 120.722 16.648 120.498 16.6C120.434 16.568 120.362 16.528 120.282 16.48C120.218 16.432 120.146 16.392 120.066 16.36C120.002 16.36 119.922 16.352 119.826 16.336C119.746 16.336 119.666 16.328 119.586 16.312C119.458 16.168 119.33 16.016 119.202 15.856C119.154 15.824 119.098 15.8 119.034 15.784C118.97 15.768 118.906 15.744 118.842 15.712C118.73 15.632 118.69 15.504 118.722 15.328C118.754 15.152 118.794 15 118.842 14.872C118.89 14.664 118.882 14.464 118.818 14.272L118.722 13.936C118.722 13.808 118.714 13.688 118.698 13.576C118.682 13.464 118.682 13.352 118.698 13.24C118.714 13.08 118.714 12.928 118.698 12.784C118.698 12.64 118.698 12.488 118.698 12.328C118.714 12.104 118.722 11.888 118.722 11.68C118.722 11.456 118.722 11.24 118.722 11.032C118.722 10.952 118.73 10.904 118.746 10.888C118.826 10.76 118.866 10.64 118.866 10.528C118.866 10.4 118.866 10.272 118.866 10.144C118.85 10.016 118.85 9.888 118.866 9.76C118.898 9.616 118.898 9.488 118.866 9.376C118.866 9.232 118.866 9.096 118.866 8.968C118.866 8.824 118.874 8.68 118.89 8.536C118.906 8.456 118.914 8.376 118.914 8.296C118.93 8.2 118.922 8.096 118.89 7.984C119.034 7.92 119.154 7.872 119.25 7.84C119.362 7.808 119.466 7.792 119.562 7.792C119.626 7.792 119.69 7.792 119.754 7.792C119.834 7.792 119.906 7.784 119.97 7.768C120.13 7.736 120.266 7.704 120.378 7.672C120.458 7.688 120.522 7.72 120.57 7.768C120.634 7.8 120.698 7.832 120.762 7.864C120.874 7.864 120.986 7.84 121.098 7.792C121.21 7.776 121.306 7.784 121.386 7.816C121.482 7.848 121.554 7.928 121.602 8.056C121.618 8.072 121.626 8.088 121.626 8.104C121.642 8.12 121.658 8.136 121.674 8.152L121.842 8.248C121.954 8.264 122.05 8.248 122.13 8.2C122.21 8.136 122.29 8.096 122.37 8.08C122.466 8.08 122.522 8.12 122.538 8.2C122.586 8.312 122.618 8.48 122.634 8.704ZM134.614 12.472C134.614 12.6 134.614 12.736 134.614 12.88C134.63 13.008 134.622 13.136 134.59 13.264C134.558 13.344 134.55 13.416 134.566 13.48C134.598 13.56 134.598 13.648 134.566 13.744C134.55 13.824 134.55 13.904 134.566 13.984C134.598 14.096 134.606 14.224 134.59 14.368C134.574 14.496 134.574 14.624 134.59 14.752C134.526 14.864 134.422 14.92 134.278 14.92C134.118 14.92 133.942 14.928 133.75 14.944C133.574 14.96 133.398 15 133.222 15.064C133.126 15.096 133.022 15.112 132.91 15.112C132.798 15.112 132.686 15.112 132.574 15.112C132.478 15.048 132.406 14.992 132.358 14.944C132.166 15.008 132.006 14.936 131.878 14.728C131.814 14.632 131.758 14.528 131.71 14.416C131.678 14.304 131.662 14.184 131.662 14.056C131.678 13.928 131.678 13.8 131.662 13.672C131.646 13.544 131.646 13.408 131.662 13.264C131.694 13.024 131.662 12.792 131.566 12.568C131.55 12.52 131.534 12.472 131.518 12.424C131.502 12.376 131.494 12.328 131.494 12.28C131.494 12.104 131.486 11.928 131.47 11.752C131.454 11.56 131.422 11.384 131.374 11.224C131.358 11.144 131.342 11.072 131.326 11.008C131.326 10.928 131.326 10.856 131.326 10.792C131.278 10.6 131.174 10.448 131.014 10.336C130.998 10.208 130.982 10.096 130.966 10C130.95 9.888 130.926 9.768 130.894 9.64C130.862 9.608 130.798 9.56 130.702 9.496C130.638 9.448 130.558 9.408 130.462 9.376C130.382 9.344 130.302 9.304 130.222 9.256C130.19 9.224 130.15 9.184 130.102 9.136C130.07 9.072 130.03 9.016 129.982 8.968H129.838C129.774 8.984 129.718 9 129.67 9.016C129.622 9.016 129.558 9.008 129.478 8.992C129.446 8.976 129.406 8.976 129.358 8.992C129.31 8.992 129.27 8.992 129.238 8.992C129.158 9.104 129.078 9.224 128.998 9.352C128.934 9.4 128.87 9.448 128.806 9.496C128.758 9.528 128.718 9.56 128.686 9.592C128.638 9.64 128.614 9.688 128.614 9.736L128.446 10.24C128.478 10.336 128.478 10.432 128.446 10.528C128.414 10.608 128.422 10.696 128.47 10.792C128.486 10.84 128.486 10.888 128.47 10.936C128.454 10.984 128.438 11.024 128.422 11.056C128.374 11.12 128.366 11.168 128.398 11.2C128.43 11.232 128.454 11.272 128.47 11.32C128.486 11.336 128.502 11.368 128.518 11.416C128.518 11.608 128.518 11.792 128.518 11.968C128.518 12.144 128.486 12.32 128.422 12.496C128.438 12.56 128.446 12.624 128.446 12.688C128.462 12.736 128.478 12.8 128.494 12.88C128.478 12.976 128.454 13.088 128.422 13.216C128.406 13.328 128.406 13.448 128.422 13.576C128.438 13.656 128.438 13.744 128.422 13.84C128.422 13.936 128.406 14.032 128.374 14.128C128.358 14.176 128.358 14.224 128.374 14.272C128.422 14.464 128.422 14.632 128.374 14.776C128.326 14.92 128.238 15.072 128.11 15.232C128.094 15.248 128.062 15.264 128.014 15.28C127.966 15.296 127.926 15.312 127.894 15.328C127.862 15.36 127.83 15.384 127.798 15.4C127.766 15.4 127.734 15.408 127.702 15.424C127.638 15.424 127.574 15.424 127.51 15.424C127.446 15.408 127.39 15.4 127.342 15.4C127.278 15.416 127.222 15.44 127.174 15.472C127.142 15.488 127.086 15.52 127.006 15.568C126.798 15.536 126.582 15.496 126.358 15.448C126.15 15.4 125.942 15.416 125.734 15.496C125.638 15.48 125.558 15.44 125.494 15.376C125.43 15.312 125.374 15.24 125.326 15.16C125.262 15.064 125.222 14.96 125.206 14.848C125.19 14.72 125.166 14.6 125.134 14.488C125.166 14.216 125.182 14.032 125.182 13.936C125.182 13.824 125.158 13.584 125.11 13.216C125.158 12.96 125.19 12.704 125.206 12.448C125.222 12.176 125.23 11.912 125.23 11.656C125.23 11.32 125.23 10.976 125.23 10.624C125.23 10.272 125.238 9.92 125.254 9.568C125.254 9.472 125.262 9.376 125.278 9.28C125.294 9.184 125.31 9.096 125.326 9.016C125.358 8.84 125.39 8.672 125.422 8.512C125.454 8.352 125.494 8.2 125.542 8.056C125.574 7.944 125.63 7.848 125.71 7.768C125.79 7.688 125.846 7.592 125.878 7.48C125.91 7.256 125.974 7.064 126.07 6.904C126.182 6.728 126.294 6.56 126.406 6.4C126.486 6.176 126.63 6.088 126.838 6.136C126.87 6.136 126.886 6.128 126.886 6.112C126.934 6.064 126.942 6 126.91 5.92C126.894 5.84 126.918 5.768 126.982 5.704C127.126 5.576 127.294 5.48 127.486 5.416C127.678 5.336 127.854 5.264 128.014 5.2C128.158 5.2 128.254 5.216 128.302 5.248C128.51 5.312 128.71 5.312 128.902 5.248C129.046 5.216 129.174 5.256 129.286 5.368C129.446 5.4 129.598 5.432 129.742 5.464C129.886 5.496 130.038 5.528 130.198 5.56C130.262 5.544 130.326 5.536 130.39 5.536C130.454 5.52 130.518 5.504 130.582 5.488C130.742 5.552 130.87 5.648 130.966 5.776C131.078 5.888 131.19 6.008 131.302 6.136C131.382 6.2 131.47 6.224 131.566 6.208C131.662 6.192 131.766 6.2 131.878 6.232C131.958 6.312 132.038 6.4 132.118 6.496C132.214 6.592 132.31 6.68 132.406 6.76C132.422 6.824 132.438 6.888 132.454 6.952C132.486 7 132.51 7.056 132.526 7.12C132.606 7.136 132.662 7.176 132.694 7.24C132.726 7.304 132.75 7.36 132.766 7.408C132.926 7.472 133.086 7.52 133.246 7.552C133.326 7.632 133.398 7.728 133.462 7.84C133.526 7.936 133.63 7.984 133.774 7.984C133.806 8.144 133.838 8.288 133.87 8.416C133.902 8.544 133.934 8.672 133.966 8.8C133.998 9.04 134.054 9.248 134.134 9.424C134.198 9.552 134.254 9.688 134.302 9.832C134.35 9.96 134.374 10.104 134.374 10.264C134.39 10.36 134.422 10.448 134.47 10.528C134.534 10.608 134.582 10.696 134.614 10.792C134.598 10.856 134.582 10.92 134.566 10.984C134.566 11.048 134.566 11.12 134.566 11.2C134.566 11.264 134.566 11.32 134.566 11.368C134.582 11.416 134.598 11.48 134.614 11.56C134.614 11.592 134.614 11.64 134.614 11.704C134.63 11.752 134.63 11.792 134.614 11.824C134.582 11.936 134.574 12.048 134.59 12.16C134.606 12.272 134.614 12.376 134.614 12.472Z" fill="#404040"/>
</svg>
