<svg width="177" height="17" viewBox="0 0 177 17" fill="none" xmlns="http://www.w3.org/2000/svg">
<path d="M14.328 5.44C14.312 5.632 14.312 5.824 14.328 6.016C14.344 6.192 14.336 6.368 14.304 6.544C14.256 6.752 14.224 6.96 14.208 7.168C14.192 7.376 14.176 7.584 14.16 7.792C14.096 7.904 14.04 8.024 13.992 8.152C13.96 8.264 13.912 8.368 13.848 8.464C13.784 8.56 13.72 8.656 13.656 8.752C13.592 8.832 13.52 8.928 13.44 9.04C13.408 9.072 13.392 9.128 13.392 9.208C13.248 9.4 13.088 9.576 12.912 9.736C12.752 9.88 12.568 10 12.36 10.096C12.248 10.288 12.136 10.44 12.024 10.552C11.992 10.6 11.936 10.64 11.856 10.672C11.648 10.768 11.416 10.84 11.16 10.888C10.84 10.968 10.616 11.136 10.488 11.392V11.824C10.504 11.888 10.552 11.928 10.632 11.944C10.728 11.96 10.808 12.008 10.872 12.088C10.872 12.104 10.888 12.12 10.92 12.136C10.952 12.152 10.968 12.176 10.968 12.208C11.032 12.48 11.192 12.656 11.448 12.736C11.544 12.864 11.632 12.992 11.712 13.12C11.808 13.232 11.896 13.344 11.976 13.456C12.056 13.504 12.128 13.552 12.192 13.6C12.272 13.632 12.352 13.672 12.432 13.72C12.464 13.784 12.504 13.864 12.552 13.96C12.616 14.04 12.672 14.12 12.72 14.2C12.784 14.264 12.848 14.32 12.912 14.368C12.976 14.4 13.016 14.432 13.032 14.464C13.08 14.672 13.072 14.808 13.008 14.872C12.816 15.096 12.688 15.304 12.624 15.496C12.592 15.544 12.56 15.584 12.528 15.616C12.496 15.632 12.464 15.656 12.432 15.688C12.32 15.752 12.2 15.792 12.072 15.808C11.944 15.824 11.84 15.872 11.76 15.952C11.68 16.016 11.592 16.048 11.496 16.048C11.4 16.064 11.312 16.104 11.232 16.168C11.104 16.264 10.984 16.368 10.872 16.48C10.776 16.608 10.648 16.712 10.488 16.792C10.424 16.776 10.344 16.768 10.248 16.768C10.152 16.768 10.064 16.768 9.984 16.768L9.504 16.432C9.44 16.368 9.408 16.328 9.408 16.312C9.376 16.232 9.344 16.152 9.312 16.072C9.28 16.008 9.248 15.944 9.216 15.88C9.2 15.816 9.16 15.76 9.096 15.712C9.032 15.648 8.984 15.584 8.952 15.52V15.328C8.952 15.2 8.896 15.136 8.784 15.136C8.736 15.12 8.696 15.112 8.664 15.112C8.632 15.112 8.6 15.112 8.568 15.112C8.328 14.936 8.104 14.72 7.896 14.464C7.736 14.304 7.576 14.184 7.416 14.104C7.272 14.008 7.136 13.888 7.008 13.744C6.88 13.6 6.752 13.456 6.624 13.312C6.544 13.216 6.464 13.12 6.384 13.024C6.304 12.912 6.216 12.824 6.12 12.76C5.976 12.744 5.832 12.744 5.688 12.76C5.544 12.776 5.416 12.816 5.304 12.88C5.272 12.88 5.232 12.92 5.184 13C5.168 13.112 5.152 13.224 5.136 13.336C5.12 13.432 5.104 13.536 5.088 13.648C5.152 13.952 5.16 14.264 5.112 14.584C5.064 14.76 5.032 14.936 5.016 15.112C5.016 15.288 5.008 15.464 4.992 15.64C4.992 15.704 4.992 15.776 4.992 15.856C4.992 15.936 4.976 16.008 4.944 16.072C4.912 16.216 4.824 16.312 4.68 16.36H4.584C4.52 16.344 4.456 16.328 4.392 16.312C4.344 16.312 4.28 16.304 4.2 16.288C3.96 16.352 3.712 16.36 3.456 16.312C3.2 16.264 2.944 16.224 2.688 16.192C2.432 16.16 2.184 16.12 1.944 16.072C1.912 16.072 1.88 16.064 1.848 16.048C1.832 16.048 1.808 16.04 1.776 16.024C1.712 15.96 1.68 15.904 1.68 15.856C1.68 15.712 1.672 15.568 1.656 15.424C1.64 15.264 1.616 15.104 1.584 14.944C1.504 14.656 1.52 14.408 1.632 14.2C1.616 14.056 1.6 13.912 1.584 13.768C1.568 13.624 1.568 13.488 1.584 13.36C1.616 13.296 1.616 13.216 1.584 13.12C1.568 13.024 1.528 12.992 1.464 13.024C1.448 13.04 1.424 13.048 1.392 13.048C1.36 13.032 1.344 13.016 1.344 13C1.328 12.968 1.312 12.936 1.296 12.904C1.28 12.856 1.264 12.824 1.248 12.808C1.248 12.728 1.248 12.64 1.248 12.544C1.248 12.448 1.24 12.36 1.224 12.28C1.224 12.2 1.224 12.12 1.224 12.04C1.224 11.96 1.208 11.888 1.176 11.824C1.128 11.664 1.104 11.496 1.104 11.32C1.104 11.144 1.104 10.976 1.104 10.816C1.088 10.752 1.072 10.704 1.056 10.672C1.04 10.624 1.016 10.576 0.984 10.528C1.016 10.416 1.04 10.312 1.056 10.216C1.088 10.104 1.064 9.992 0.984 9.88C1.016 9.752 1.024 9.624 1.008 9.496C0.992 9.352 1.024 9.208 1.104 9.064C1.136 8.984 1.144 8.904 1.128 8.824C1.112 8.744 1.096 8.648 1.08 8.536C1.112 8.408 1.152 8.288 1.2 8.176C1.248 8.048 1.288 7.904 1.32 7.744C1.304 7.664 1.28 7.528 1.248 7.336C1.216 7.256 1.192 7.184 1.176 7.12C1.16 7.056 1.144 6.992 1.128 6.928C1.112 6.848 1.12 6.776 1.152 6.712C1.2 6.632 1.208 6.552 1.176 6.472C1.16 6.36 1.152 6.288 1.152 6.256C1.168 6.224 1.208 6.16 1.272 6.064C1.256 6.032 1.248 6.008 1.248 5.992C1.248 5.96 1.24 5.936 1.224 5.92C1.08 5.728 1.048 5.488 1.128 5.2C1.16 5.104 1.192 5.008 1.224 4.912C1.272 4.816 1.304 4.728 1.32 4.648C1.304 4.584 1.288 4.52 1.272 4.456C1.272 4.392 1.264 4.328 1.248 4.264L1.416 3.688C1.384 3.576 1.36 3.464 1.344 3.352C1.328 3.24 1.304 3.128 1.272 3.016C1.272 2.872 1.336 2.72 1.464 2.56C1.528 2.48 1.592 2.448 1.656 2.464C1.736 2.48 1.832 2.48 1.944 2.464C2.056 2.432 2.168 2.392 2.28 2.344C2.408 2.296 2.544 2.264 2.688 2.248C2.832 2.232 2.968 2.168 3.096 2.056C3.224 1.976 3.352 1.912 3.48 1.864C3.608 1.8 3.736 1.752 3.864 1.72C4.12 1.768 4.28 1.792 4.344 1.792C4.424 1.776 4.552 1.712 4.728 1.6H5.16C5.24 1.584 5.32 1.568 5.4 1.552C5.48 1.52 5.568 1.496 5.664 1.48C5.696 1.448 5.744 1.408 5.808 1.36C5.888 1.312 5.96 1.272 6.024 1.24C6.12 1.224 6.224 1.208 6.336 1.192C6.448 1.16 6.56 1.136 6.672 1.12C6.72 1.136 6.76 1.16 6.792 1.192C6.84 1.208 6.888 1.232 6.936 1.264C7.032 1.312 7.112 1.368 7.176 1.432C7.24 1.464 7.296 1.48 7.344 1.48C7.504 1.496 7.656 1.512 7.8 1.528C7.944 1.528 8.096 1.52 8.256 1.504C8.304 1.488 8.36 1.48 8.424 1.48C8.504 1.48 8.576 1.48 8.64 1.48C8.72 1.48 8.808 1.488 8.904 1.504C9 1.504 9.088 1.512 9.168 1.528C9.264 1.528 9.336 1.56 9.384 1.624C9.448 1.688 9.504 1.72 9.552 1.72C9.776 1.784 9.984 1.816 10.176 1.816C10.368 1.816 10.56 1.808 10.752 1.792C10.832 1.824 10.912 1.864 10.992 1.912C11.088 1.944 11.176 1.976 11.256 2.008C11.32 1.976 11.368 1.952 11.4 1.936C11.448 1.904 11.496 1.88 11.544 1.864C11.672 1.832 11.768 1.84 11.832 1.888C11.88 1.92 11.92 1.952 11.952 1.984C12 2.016 12.048 2.048 12.096 2.08C12.128 2.128 12.16 2.176 12.192 2.224C12.224 2.272 12.272 2.312 12.336 2.344H12.672C12.736 2.36 12.808 2.424 12.888 2.536C12.984 2.648 13.072 2.76 13.152 2.872C13.248 2.984 13.352 3.104 13.464 3.232C13.576 3.344 13.672 3.472 13.752 3.616C13.832 3.744 13.928 3.872 14.04 4C14.088 4.032 14.12 4.08 14.136 4.144C14.168 4.208 14.192 4.272 14.208 4.336C14.208 4.528 14.208 4.72 14.208 4.912C14.224 5.088 14.264 5.264 14.328 5.44ZM2.52 2.464V2.44H2.472L2.52 2.464ZM10.8 6.76C10.8 6.76 10.792 6.752 10.776 6.736C10.76 6.72 10.752 6.704 10.752 6.688C10.752 6.544 10.728 6.408 10.68 6.28C10.632 6.136 10.544 6.016 10.416 5.92C10.352 5.888 10.304 5.848 10.272 5.8C10.24 5.736 10.2 5.68 10.152 5.632C10.04 5.488 9.912 5.368 9.768 5.272C9.752 5.24 9.72 5.224 9.672 5.224C9.624 5.208 9.584 5.192 9.552 5.176C9.472 5.224 9.336 5.272 9.144 5.32C9.016 5.24 8.88 5.2 8.736 5.2C8.592 5.2 8.44 5.216 8.28 5.248C8.12 5.248 7.952 5.248 7.776 5.248C7.616 5.232 7.456 5.248 7.296 5.296C7.12 5.28 6.944 5.28 6.768 5.296C6.592 5.312 6.416 5.328 6.24 5.344C6.096 5.344 5.992 5.352 5.928 5.368C5.816 5.432 5.704 5.464 5.592 5.464C5.496 5.448 5.392 5.456 5.28 5.488C5.216 5.552 5.176 5.632 5.16 5.728C5.144 5.824 5.12 5.912 5.088 5.992C5.184 6.36 5.168 6.728 5.04 7.096C5.12 7.208 5.176 7.32 5.208 7.432C5.256 7.528 5.256 7.64 5.208 7.768C5.208 7.784 5.208 7.8 5.208 7.816C5.224 7.832 5.232 7.848 5.232 7.864C5.264 7.96 5.28 8.056 5.28 8.152C5.28 8.248 5.264 8.344 5.232 8.44C5.2 8.456 5.16 8.48 5.112 8.512C5.08 8.528 5.048 8.552 5.016 8.584C5.096 8.664 5.192 8.704 5.304 8.704C5.352 8.672 5.408 8.648 5.472 8.632C5.536 8.6 5.6 8.56 5.664 8.512C5.936 8.592 6.208 8.624 6.48 8.608C6.768 8.592 7.04 8.64 7.296 8.752H7.464C7.528 8.752 7.6 8.744 7.68 8.728C7.76 8.712 7.832 8.704 7.896 8.704C7.96 8.656 8.048 8.616 8.16 8.584C8.512 8.488 8.824 8.328 9.096 8.104C9.208 8.024 9.32 7.976 9.432 7.96C9.544 7.928 9.656 7.904 9.768 7.888C9.816 7.888 9.864 7.888 9.912 7.888C9.976 7.888 10.04 7.88 10.104 7.864C10.152 7.736 10.232 7.632 10.344 7.552C10.472 7.456 10.576 7.344 10.656 7.216C10.592 7.136 10.592 7.064 10.656 7C10.736 6.936 10.784 6.856 10.8 6.76ZM26.1627 4.456C26.0667 4.536 25.9547 4.576 25.8267 4.576C25.6987 4.576 25.5707 4.576 25.4427 4.576C25.3307 4.576 25.2347 4.6 25.1547 4.648L24.7467 4.576C24.6827 4.592 24.6267 4.608 24.5787 4.624C24.5307 4.624 24.4667 4.632 24.3867 4.648C24.3387 4.648 24.2507 4.632 24.1227 4.6C23.9307 4.568 23.7627 4.576 23.6187 4.624C23.4267 4.688 23.2107 4.712 22.9707 4.696C22.8267 4.664 22.6747 4.672 22.5147 4.72C22.3707 4.752 22.2347 4.784 22.1067 4.816C22.0427 4.8 21.9787 4.792 21.9147 4.792C21.8667 4.776 21.8267 4.76 21.7947 4.744C21.6987 4.76 21.6027 4.792 21.5067 4.84C21.4267 4.888 21.3387 4.944 21.2427 5.008C21.1947 5.072 21.1467 5.152 21.0987 5.248C21.0667 5.328 21.0187 5.408 20.9547 5.488C20.9387 5.68 20.9307 5.88 20.9307 6.088C20.9307 6.28 20.9227 6.464 20.9067 6.64C20.8907 6.768 20.8427 6.872 20.7627 6.952C20.6987 7.016 20.6667 7.096 20.6667 7.192C20.7147 7.32 20.8027 7.392 20.9307 7.408C21.0267 7.44 21.1307 7.464 21.2427 7.48C21.3547 7.48 21.4667 7.488 21.5787 7.504C21.7067 7.456 21.8347 7.408 21.9627 7.36C22.0907 7.312 22.2107 7.264 22.3227 7.216C22.4987 7.216 22.6507 7.216 22.7787 7.216C22.9067 7.216 23.0347 7.208 23.1627 7.192C23.2107 7.192 23.2587 7.192 23.3067 7.192C23.3547 7.176 23.4027 7.16 23.4507 7.144C23.6747 7.048 23.8987 7 24.1227 7C24.3467 7 24.5707 7.016 24.7947 7.048C24.9547 7.096 25.0587 7.216 25.1067 7.408C25.1067 7.44 25.1067 7.48 25.1067 7.528C25.1227 7.56 25.1387 7.6 25.1547 7.648C25.1387 7.696 25.1227 7.752 25.1067 7.816C25.0907 7.88 25.0827 7.952 25.0827 8.032C25.0987 8.288 25.0907 8.544 25.0587 8.8C25.0427 9.056 25.0427 9.32 25.0587 9.592C25.0747 9.704 25.0587 9.816 25.0107 9.928C24.9787 10.04 24.9387 10.136 24.8907 10.216L24.8187 10.264C24.7227 10.28 24.6347 10.28 24.5547 10.264C24.4907 10.232 24.4187 10.216 24.3387 10.216C24.2427 10.216 24.1627 10.24 24.0987 10.288C24.0347 10.336 23.9627 10.376 23.8827 10.408C23.7707 10.424 23.6507 10.432 23.5227 10.432C23.4107 10.432 23.2907 10.424 23.1627 10.408C23.0987 10.376 23.0267 10.376 22.9467 10.408C22.8827 10.44 22.8187 10.472 22.7547 10.504C22.6107 10.488 22.4667 10.472 22.3227 10.456C22.1947 10.424 22.0667 10.376 21.9387 10.312C21.8427 10.312 21.7467 10.312 21.6507 10.312C21.5547 10.312 21.4507 10.32 21.3387 10.336C21.1307 10.352 20.9147 10.352 20.6907 10.336C20.5147 10.304 20.3547 10.352 20.2107 10.48C20.1787 10.496 20.1467 10.544 20.1147 10.624C20.0827 10.688 20.0747 10.744 20.0907 10.792C20.1547 10.92 20.1867 11.056 20.1867 11.2C20.2027 11.344 20.2107 11.48 20.2107 11.608C20.2267 11.656 20.2427 11.696 20.2587 11.728C20.2747 11.76 20.2907 11.792 20.3067 11.824C20.2907 11.856 20.2667 11.888 20.2347 11.92C20.2187 11.952 20.2027 11.984 20.1867 12.016C20.1227 12.176 20.1627 12.272 20.3067 12.304C20.4987 12.352 20.6907 12.4 20.8827 12.448C21.0907 12.496 21.2987 12.536 21.5067 12.568C21.5547 12.552 21.6107 12.536 21.6747 12.52C21.7387 12.504 21.7947 12.496 21.8427 12.496C22.0667 12.496 22.2907 12.48 22.5147 12.448C22.7547 12.4 22.9867 12.376 23.2107 12.376C23.2587 12.376 23.3147 12.376 23.3787 12.376C23.4427 12.36 23.5067 12.36 23.5707 12.376C23.6987 12.424 23.8347 12.456 23.9787 12.472C24.1227 12.488 24.2667 12.496 24.4107 12.496C24.5067 12.496 24.5947 12.504 24.6747 12.52C24.7707 12.52 24.8667 12.528 24.9627 12.544C25.0907 12.576 25.1547 12.64 25.1547 12.736C25.1387 12.816 25.1067 12.904 25.0587 13C25.0267 13.08 24.9947 13.152 24.9627 13.216C24.9467 13.328 24.9627 13.416 25.0107 13.48C25.0587 13.544 25.0907 13.608 25.1067 13.672C25.0907 13.832 25.0667 13.984 25.0347 14.128C25.0187 14.272 24.9707 14.4 24.8907 14.512C24.8907 14.608 24.9147 14.68 24.9627 14.728C25.0107 14.776 25.0427 14.832 25.0587 14.896C25.0267 14.928 24.9947 14.976 24.9627 15.04C24.9467 15.088 24.9227 15.144 24.8907 15.208C24.9227 15.336 24.9467 15.472 24.9627 15.616C24.9947 15.76 24.9627 15.896 24.8667 16.024C24.8187 16.04 24.7627 16.064 24.6987 16.096C24.6507 16.144 24.5947 16.16 24.5307 16.144C24.3707 16.112 24.2107 16.112 24.0507 16.144C23.9067 16.176 23.7627 16.2 23.6187 16.216C23.5067 16.232 23.4027 16.264 23.3067 16.312C23.2107 16.36 23.1147 16.4 23.0187 16.432C22.8587 16.464 22.6987 16.488 22.5387 16.504C22.3787 16.52 22.2107 16.544 22.0347 16.576L21.6987 16.504C21.5547 16.52 21.3867 16.544 21.1947 16.576L20.5467 16.432C20.4827 16.384 20.4187 16.328 20.3547 16.264C20.3067 16.216 20.2427 16.176 20.1627 16.144C20.1467 16.128 20.1147 16.12 20.0667 16.12C20.0347 16.136 20.0187 16.152 20.0187 16.168C20.0187 16.328 19.9307 16.432 19.7547 16.48C19.6747 16.448 19.5867 16.424 19.4907 16.408C19.3947 16.392 19.3067 16.376 19.2267 16.36C19.1467 16.344 19.0587 16.336 18.9627 16.336C18.8667 16.352 18.7787 16.36 18.6987 16.36C18.5067 16.36 18.3147 16.336 18.1227 16.288C17.9467 16.24 17.7627 16.136 17.5707 15.976C17.5547 15.928 17.5307 15.88 17.4987 15.832C17.4667 15.784 17.4347 15.728 17.4027 15.664C17.3387 15.632 17.2747 15.592 17.2107 15.544C17.1627 15.496 17.1067 15.456 17.0427 15.424L16.7787 15.28C16.7147 15.184 16.6827 15.096 16.6827 15.016C16.6827 14.92 16.6747 14.832 16.6587 14.752C16.6427 14.672 16.6267 14.592 16.6107 14.512C16.6107 14.416 16.6027 14.32 16.5867 14.224C16.6187 14.032 16.6347 13.84 16.6347 13.648C16.6507 13.456 16.6507 13.256 16.6347 13.048C16.6187 12.872 16.6187 12.696 16.6347 12.52C16.6667 12.328 16.7147 12.144 16.7787 11.968C16.7627 11.904 16.7387 11.848 16.7067 11.8C16.6907 11.752 16.6827 11.696 16.6827 11.632C16.6827 11.552 16.6987 11.472 16.7307 11.392C16.7627 11.312 16.7627 11.232 16.7307 11.152C16.7307 11.12 16.7387 11.096 16.7547 11.08C16.7867 11.064 16.8107 11.048 16.8267 11.032C16.8747 10.92 16.8587 10.856 16.7787 10.84C16.6187 10.792 16.5387 10.712 16.5387 10.6C16.5707 10.504 16.5787 10.408 16.5627 10.312C16.5467 10.216 16.5387 10.112 16.5387 10C16.5387 9.92 16.5467 9.84 16.5627 9.76C16.5787 9.68 16.5707 9.6 16.5387 9.52C16.5387 9.504 16.5307 9.48 16.5147 9.448C16.5147 9.416 16.5227 9.392 16.5387 9.376C16.6187 9.2 16.6427 9.032 16.6107 8.872C16.5947 8.712 16.5627 8.552 16.5147 8.392C16.5787 8.248 16.6187 8.112 16.6347 7.984C16.6507 7.84 16.6587 7.696 16.6587 7.552V6.904C16.6747 6.856 16.6827 6.808 16.6827 6.76C16.6827 6.696 16.6907 6.648 16.7067 6.616C16.8347 6.264 16.8267 5.896 16.6827 5.512C16.6667 5.48 16.6587 5.432 16.6587 5.368C16.6907 5.272 16.7227 5.184 16.7547 5.104C16.8027 5.008 16.8347 4.912 16.8507 4.816C16.8827 4.688 16.9147 4.552 16.9467 4.408C16.9947 4.264 17.0267 4.128 17.0427 4V3.832C17.0267 3.752 17.0187 3.672 17.0187 3.592C17.0347 3.496 17.0347 3.408 17.0187 3.328C17.0027 3.248 16.9947 3.168 16.9947 3.088C17.0107 3.008 17.0187 2.936 17.0187 2.872C17.0187 2.808 17.0107 2.76 16.9947 2.728C16.9947 2.68 16.9867 2.632 16.9707 2.584C17.0027 2.472 17.0667 2.384 17.1627 2.32C17.2587 2.256 17.3147 2.176 17.3307 2.08C17.5227 1.952 17.7147 1.872 17.9067 1.84C18.1147 1.792 18.3067 1.72 18.4827 1.624C18.6587 1.528 18.8427 1.472 19.0347 1.456C19.2267 1.44 19.4107 1.4 19.5867 1.336C19.6987 1.368 19.8027 1.4 19.8987 1.432C20.0107 1.464 20.1227 1.496 20.2347 1.528C20.2987 1.528 20.3627 1.528 20.4267 1.528C20.5067 1.512 20.5787 1.496 20.6427 1.48C20.7547 1.496 20.8587 1.52 20.9547 1.552C21.0507 1.584 21.1547 1.592 21.2667 1.576C21.4427 1.528 21.6107 1.528 21.7707 1.576C21.8507 1.576 21.9227 1.584 21.9867 1.6C22.0507 1.6 22.1147 1.608 22.1787 1.624C22.4187 1.448 22.6747 1.4 22.9467 1.48C23.0747 1.528 23.2027 1.544 23.3307 1.528C23.4587 1.512 23.5867 1.528 23.7147 1.576C23.8427 1.608 23.9627 1.624 24.0747 1.624C24.2027 1.608 24.3227 1.6 24.4347 1.6C24.5787 1.568 24.7227 1.568 24.8667 1.6C24.9947 1.632 25.1307 1.656 25.2747 1.672C25.4347 1.688 25.5787 1.696 25.7067 1.696C25.7867 1.696 25.8987 1.752 26.0427 1.864C26.2667 2.744 26.3067 3.608 26.1627 4.456ZM38.9966 4.192C38.9966 4.32 38.9406 4.4 38.8286 4.432C38.6366 4.448 38.4526 4.512 38.2766 4.624C38.1166 4.72 37.9486 4.792 37.7726 4.84C37.5646 4.824 37.3646 4.832 37.1726 4.864C36.9806 4.896 36.7726 4.888 36.5486 4.84C36.5166 4.872 36.4766 4.904 36.4286 4.936C36.3806 4.968 36.3326 5 36.2846 5.032C36.2206 5.032 36.1486 5.04 36.0686 5.056C35.9886 5.072 35.9086 5.08 35.8286 5.08H35.2286C35.1006 5.08 34.9726 5.088 34.8446 5.104C34.7166 5.104 34.5886 5.096 34.4606 5.08C34.3166 5.08 34.1886 5.112 34.0766 5.176C33.9646 5.224 33.8446 5.248 33.7166 5.248C33.6526 5.248 33.5966 5.256 33.5486 5.272C33.5006 5.272 33.4526 5.28 33.4046 5.296C33.2926 5.264 33.1806 5.24 33.0686 5.224C32.9726 5.192 32.8686 5.232 32.7566 5.344C32.6766 5.616 32.6046 5.896 32.5406 6.184C32.4926 6.472 32.4526 6.752 32.4206 7.024C32.3726 7.312 32.3726 7.584 32.4206 7.84C32.4366 7.872 32.4446 7.904 32.4446 7.936C32.4606 7.968 32.4766 8 32.4926 8.032H33.2126C33.3246 8.08 33.4366 8.136 33.5486 8.2C33.6766 8.264 33.8046 8.336 33.9326 8.416C33.9646 8.432 34.0046 8.448 34.0526 8.464C34.1166 8.464 34.1806 8.472 34.2446 8.488C34.2926 8.504 34.3486 8.52 34.4126 8.536C34.4766 8.552 34.5406 8.576 34.6046 8.608C34.7166 8.608 34.8206 8.576 34.9166 8.512C35.0126 8.448 35.1166 8.408 35.2286 8.392H35.3486C35.4286 8.392 35.5006 8.4 35.5646 8.416C35.6446 8.432 35.7166 8.432 35.7806 8.416C35.9886 8.368 36.1966 8.368 36.4046 8.416C36.6126 8.448 36.8126 8.464 37.0046 8.464C37.1326 8.464 37.2526 8.488 37.3646 8.536C37.4926 8.584 37.6126 8.64 37.7246 8.704C37.7886 9.248 37.8126 9.8 37.7966 10.36C37.7966 10.904 37.7886 11.448 37.7726 11.992C37.7726 12.056 37.7486 12.096 37.7006 12.112C37.6526 12.128 37.6046 12.128 37.5566 12.112C37.5246 12.096 37.4846 12.08 37.4366 12.064C37.4046 12.048 37.3566 12.032 37.2926 12.016H35.9006C35.7566 12 35.6206 12 35.4926 12.016C35.3806 12.032 35.2606 12.032 35.1326 12.016C35.0046 12 34.8766 11.992 34.7486 11.992C34.6206 11.976 34.4846 11.96 34.3406 11.944C34.2286 11.928 34.1086 11.92 33.9806 11.92C33.8526 11.92 33.7166 11.912 33.5726 11.896C33.4926 11.896 33.4046 11.88 33.3086 11.848C33.2286 11.816 33.1486 11.792 33.0686 11.776C32.9566 11.792 32.8686 11.832 32.8046 11.896C32.7566 11.96 32.6926 12.024 32.6126 12.088C32.5966 12.12 32.5726 12.168 32.5406 12.232C32.5246 12.28 32.5006 12.328 32.4686 12.376C32.4846 12.424 32.4926 12.48 32.4926 12.544C32.5726 12.64 32.6206 12.752 32.6366 12.88C32.6686 12.992 32.6846 13.112 32.6846 13.24C32.6846 13.432 32.6926 13.624 32.7086 13.816C32.7406 14.008 32.7406 14.2 32.7086 14.392C32.7086 14.552 32.7086 14.712 32.7086 14.872C32.7246 15.032 32.7646 15.184 32.8286 15.328C32.8446 15.36 32.8526 15.416 32.8526 15.496C32.7566 15.72 32.6286 15.936 32.4686 16.144C32.3086 16.256 32.1486 16.328 31.9886 16.36C31.8446 16.408 31.6846 16.472 31.5086 16.552C31.4446 16.536 31.3726 16.528 31.2926 16.528C31.2286 16.528 31.1566 16.528 31.0766 16.528C31.0126 16.544 30.9086 16.6 30.7646 16.696H29.9486C29.8206 16.696 29.6846 16.696 29.5406 16.696C29.4126 16.712 29.2686 16.72 29.1086 16.72C28.9486 16.72 28.8366 16.648 28.7726 16.504C28.7566 16.44 28.7486 16.368 28.7486 16.288C28.7486 16.208 28.7406 16.12 28.7246 16.024C28.6766 15.944 28.6366 15.872 28.6046 15.808C28.5726 15.728 28.5406 15.656 28.5086 15.592C28.4926 15.496 28.4766 15.4 28.4606 15.304C28.4606 15.208 28.4526 15.12 28.4366 15.04C28.4846 14.896 28.5246 14.76 28.5566 14.632C28.6046 14.504 28.6526 14.368 28.7006 14.224C28.6366 13.856 28.5966 13.48 28.5806 13.096C28.5646 12.696 28.5886 12.296 28.6526 11.896C28.6526 11.816 28.6366 11.728 28.6046 11.632C28.5886 11.536 28.6046 11.432 28.6526 11.32C28.7486 11.144 28.7486 10.976 28.6526 10.816C28.6366 10.704 28.6206 10.592 28.6046 10.48C28.6046 10.368 28.6206 10.256 28.6526 10.144C28.6846 10.096 28.7006 10.04 28.7006 9.976C28.7006 9.912 28.7006 9.848 28.7006 9.784C28.7166 9.704 28.7086 9.616 28.6766 9.52C28.6446 9.424 28.6366 9.328 28.6526 9.232C28.6846 9.152 28.7006 9.072 28.7006 8.992C28.7166 8.896 28.7246 8.8 28.7246 8.704C28.7246 8.592 28.7326 8.48 28.7486 8.368C28.7646 8.256 28.7886 8.152 28.8206 8.056C28.8046 7.944 28.7886 7.848 28.7726 7.768C28.7726 7.672 28.7646 7.576 28.7486 7.48C28.8286 7.304 28.8686 7.128 28.8686 6.952C28.8846 6.76 28.8926 6.568 28.8926 6.376C28.8926 6.248 28.8926 6.12 28.8926 5.992C28.8926 5.864 28.9006 5.744 28.9166 5.632C28.9326 5.504 28.9406 5.384 28.9406 5.272C28.9566 5.144 28.9646 5.024 28.9646 4.912C28.9646 4.88 28.9566 4.848 28.9406 4.816C28.9406 4.768 28.9486 4.728 28.9646 4.696C29.0286 4.568 29.0526 4.448 29.0366 4.336C29.0366 4.208 29.0446 4.088 29.0606 3.976C29.0606 3.88 29.0606 3.784 29.0606 3.688C29.0766 3.576 29.0926 3.472 29.1086 3.376C29.0926 3.296 29.0686 3.208 29.0366 3.112C29.0046 3.016 28.9806 2.936 28.9646 2.872C28.9806 2.792 28.9966 2.712 29.0126 2.632C29.0446 2.552 29.0606 2.472 29.0606 2.392C29.0766 2.2 29.2046 2.072 29.4446 2.008C29.7326 1.912 30.0366 1.84 30.3566 1.792C30.4686 1.792 30.5566 1.76 30.6206 1.696C30.6846 1.664 30.7566 1.648 30.8366 1.648C30.9326 1.664 31.0286 1.664 31.1246 1.648C31.2366 1.632 31.3486 1.616 31.4606 1.6C31.5886 1.52 31.7326 1.48 31.8926 1.48C32.1966 1.464 32.5006 1.424 32.8046 1.36C33.1086 1.296 33.4126 1.256 33.7166 1.24C33.8766 1.224 34.0286 1.216 34.1726 1.216C34.3166 1.2 34.4686 1.216 34.6286 1.264C34.7566 1.28 34.8846 1.296 35.0126 1.312C35.1406 1.312 35.2686 1.312 35.3966 1.312C35.4606 1.312 35.5246 1.312 35.5886 1.312C35.6526 1.296 35.7166 1.288 35.7806 1.288C36.0046 1.272 36.1726 1.272 36.2846 1.288C36.3966 1.288 36.5086 1.296 36.6206 1.312C36.7326 1.328 36.9006 1.36 37.1246 1.408C37.2366 1.424 37.3406 1.44 37.4366 1.456C37.5486 1.456 37.6526 1.472 37.7486 1.504C37.9246 1.584 38.1166 1.64 38.3246 1.672C38.4046 1.688 38.4686 1.72 38.5166 1.768C38.5646 1.8 38.6046 1.832 38.6366 1.864C38.7006 2.12 38.7006 2.368 38.6366 2.608C38.6846 2.752 38.7326 2.92 38.7806 3.112C38.7806 3.128 38.7726 3.168 38.7566 3.232C38.7566 3.28 38.7566 3.32 38.7566 3.352C38.7566 3.432 38.7646 3.48 38.7806 3.496C38.8126 3.56 38.8446 3.632 38.8766 3.712C38.9086 3.776 38.9326 3.84 38.9486 3.904C38.9806 3.952 38.9966 4 38.9966 4.048C38.9966 4.096 38.9966 4.144 38.9966 4.192ZM50.8033 4.456C50.7073 4.536 50.5953 4.576 50.4673 4.576C50.3393 4.576 50.2113 4.576 50.0833 4.576C49.9713 4.576 49.8753 4.6 49.7953 4.648L49.3873 4.576C49.3233 4.592 49.2673 4.608 49.2193 4.624C49.1713 4.624 49.1073 4.632 49.0273 4.648C48.9793 4.648 48.8913 4.632 48.7633 4.6C48.5713 4.568 48.4033 4.576 48.2593 4.624C48.0673 4.688 47.8513 4.712 47.6113 4.696C47.4673 4.664 47.3153 4.672 47.1553 4.72C47.0113 4.752 46.8753 4.784 46.7473 4.816C46.6833 4.8 46.6193 4.792 46.5553 4.792C46.5073 4.776 46.4673 4.76 46.4353 4.744C46.3393 4.76 46.2433 4.792 46.1473 4.84C46.0673 4.888 45.9793 4.944 45.8833 5.008C45.8353 5.072 45.7873 5.152 45.7393 5.248C45.7073 5.328 45.6593 5.408 45.5953 5.488C45.5793 5.68 45.5713 5.88 45.5713 6.088C45.5713 6.28 45.5633 6.464 45.5473 6.64C45.5313 6.768 45.4833 6.872 45.4033 6.952C45.3393 7.016 45.3073 7.096 45.3073 7.192C45.3553 7.32 45.4433 7.392 45.5713 7.408C45.6673 7.44 45.7713 7.464 45.8833 7.48C45.9953 7.48 46.1073 7.488 46.2193 7.504C46.3473 7.456 46.4753 7.408 46.6033 7.36C46.7313 7.312 46.8513 7.264 46.9633 7.216C47.1393 7.216 47.2913 7.216 47.4193 7.216C47.5473 7.216 47.6753 7.208 47.8033 7.192C47.8513 7.192 47.8993 7.192 47.9473 7.192C47.9953 7.176 48.0433 7.16 48.0913 7.144C48.3153 7.048 48.5393 7 48.7633 7C48.9873 7 49.2113 7.016 49.4353 7.048C49.5953 7.096 49.6993 7.216 49.7473 7.408C49.7473 7.44 49.7473 7.48 49.7473 7.528C49.7633 7.56 49.7793 7.6 49.7953 7.648C49.7793 7.696 49.7633 7.752 49.7473 7.816C49.7313 7.88 49.7233 7.952 49.7233 8.032C49.7393 8.288 49.7313 8.544 49.6993 8.8C49.6833 9.056 49.6833 9.32 49.6993 9.592C49.7153 9.704 49.6993 9.816 49.6513 9.928C49.6193 10.04 49.5793 10.136 49.5313 10.216L49.4593 10.264C49.3633 10.28 49.2753 10.28 49.1953 10.264C49.1313 10.232 49.0593 10.216 48.9793 10.216C48.8833 10.216 48.8033 10.24 48.7393 10.288C48.6753 10.336 48.6033 10.376 48.5233 10.408C48.4113 10.424 48.2913 10.432 48.1633 10.432C48.0513 10.432 47.9313 10.424 47.8033 10.408C47.7393 10.376 47.6673 10.376 47.5873 10.408C47.5233 10.44 47.4593 10.472 47.3953 10.504C47.2513 10.488 47.1073 10.472 46.9633 10.456C46.8353 10.424 46.7073 10.376 46.5793 10.312C46.4833 10.312 46.3873 10.312 46.2913 10.312C46.1953 10.312 46.0913 10.32 45.9793 10.336C45.7713 10.352 45.5553 10.352 45.3313 10.336C45.1553 10.304 44.9953 10.352 44.8513 10.48C44.8193 10.496 44.7873 10.544 44.7553 10.624C44.7233 10.688 44.7153 10.744 44.7313 10.792C44.7953 10.92 44.8273 11.056 44.8273 11.2C44.8433 11.344 44.8513 11.48 44.8513 11.608C44.8673 11.656 44.8833 11.696 44.8993 11.728C44.9153 11.76 44.9313 11.792 44.9473 11.824C44.9313 11.856 44.9073 11.888 44.8753 11.92C44.8593 11.952 44.8433 11.984 44.8273 12.016C44.7633 12.176 44.8033 12.272 44.9473 12.304C45.1393 12.352 45.3313 12.4 45.5233 12.448C45.7313 12.496 45.9393 12.536 46.1473 12.568C46.1953 12.552 46.2513 12.536 46.3153 12.52C46.3793 12.504 46.4353 12.496 46.4833 12.496C46.7073 12.496 46.9313 12.48 47.1553 12.448C47.3953 12.4 47.6273 12.376 47.8513 12.376C47.8993 12.376 47.9553 12.376 48.0193 12.376C48.0833 12.36 48.1473 12.36 48.2113 12.376C48.3393 12.424 48.4753 12.456 48.6193 12.472C48.7633 12.488 48.9073 12.496 49.0513 12.496C49.1473 12.496 49.2353 12.504 49.3153 12.52C49.4113 12.52 49.5073 12.528 49.6033 12.544C49.7313 12.576 49.7953 12.64 49.7953 12.736C49.7793 12.816 49.7473 12.904 49.6993 13C49.6673 13.08 49.6353 13.152 49.6033 13.216C49.5873 13.328 49.6033 13.416 49.6513 13.48C49.6993 13.544 49.7313 13.608 49.7473 13.672C49.7313 13.832 49.7073 13.984 49.6753 14.128C49.6593 14.272 49.6113 14.4 49.5313 14.512C49.5313 14.608 49.5553 14.68 49.6033 14.728C49.6513 14.776 49.6833 14.832 49.6993 14.896C49.6673 14.928 49.6353 14.976 49.6033 15.04C49.5873 15.088 49.5633 15.144 49.5313 15.208C49.5633 15.336 49.5873 15.472 49.6033 15.616C49.6353 15.76 49.6033 15.896 49.5073 16.024C49.4593 16.04 49.4033 16.064 49.3393 16.096C49.2913 16.144 49.2353 16.16 49.1713 16.144C49.0113 16.112 48.8513 16.112 48.6913 16.144C48.5473 16.176 48.4033 16.2 48.2593 16.216C48.1473 16.232 48.0433 16.264 47.9473 16.312C47.8513 16.36 47.7553 16.4 47.6593 16.432C47.4993 16.464 47.3393 16.488 47.1793 16.504C47.0193 16.52 46.8513 16.544 46.6753 16.576L46.3393 16.504C46.1953 16.52 46.0273 16.544 45.8353 16.576L45.1873 16.432C45.1233 16.384 45.0593 16.328 44.9953 16.264C44.9473 16.216 44.8833 16.176 44.8033 16.144C44.7873 16.128 44.7553 16.12 44.7073 16.12C44.6753 16.136 44.6593 16.152 44.6593 16.168C44.6593 16.328 44.5713 16.432 44.3953 16.48C44.3153 16.448 44.2273 16.424 44.1313 16.408C44.0353 16.392 43.9473 16.376 43.8673 16.36C43.7873 16.344 43.6993 16.336 43.6033 16.336C43.5073 16.352 43.4193 16.36 43.3393 16.36C43.1473 16.36 42.9553 16.336 42.7633 16.288C42.5873 16.24 42.4033 16.136 42.2113 15.976C42.1953 15.928 42.1713 15.88 42.1393 15.832C42.1073 15.784 42.0753 15.728 42.0433 15.664C41.9793 15.632 41.9153 15.592 41.8513 15.544C41.8033 15.496 41.7473 15.456 41.6833 15.424L41.4193 15.28C41.3553 15.184 41.3233 15.096 41.3233 15.016C41.3233 14.92 41.3153 14.832 41.2993 14.752C41.2833 14.672 41.2673 14.592 41.2513 14.512C41.2513 14.416 41.2433 14.32 41.2273 14.224C41.2593 14.032 41.2753 13.84 41.2753 13.648C41.2913 13.456 41.2913 13.256 41.2753 13.048C41.2593 12.872 41.2593 12.696 41.2753 12.52C41.3073 12.328 41.3553 12.144 41.4193 11.968C41.4033 11.904 41.3793 11.848 41.3473 11.8C41.3313 11.752 41.3233 11.696 41.3233 11.632C41.3233 11.552 41.3393 11.472 41.3713 11.392C41.4033 11.312 41.4033 11.232 41.3713 11.152C41.3713 11.12 41.3793 11.096 41.3953 11.08C41.4273 11.064 41.4513 11.048 41.4673 11.032C41.5153 10.92 41.4993 10.856 41.4193 10.84C41.2593 10.792 41.1793 10.712 41.1793 10.6C41.2113 10.504 41.2193 10.408 41.2033 10.312C41.1873 10.216 41.1793 10.112 41.1793 10C41.1793 9.92 41.1873 9.84 41.2033 9.76C41.2193 9.68 41.2113 9.6 41.1793 9.52C41.1793 9.504 41.1713 9.48 41.1553 9.448C41.1553 9.416 41.1633 9.392 41.1793 9.376C41.2593 9.2 41.2833 9.032 41.2513 8.872C41.2353 8.712 41.2033 8.552 41.1553 8.392C41.2193 8.248 41.2593 8.112 41.2753 7.984C41.2913 7.84 41.2993 7.696 41.2993 7.552V6.904C41.3153 6.856 41.3233 6.808 41.3233 6.76C41.3233 6.696 41.3313 6.648 41.3473 6.616C41.4753 6.264 41.4673 5.896 41.3233 5.512C41.3073 5.48 41.2993 5.432 41.2993 5.368C41.3313 5.272 41.3633 5.184 41.3953 5.104C41.4433 5.008 41.4753 4.912 41.4913 4.816C41.5233 4.688 41.5553 4.552 41.5873 4.408C41.6353 4.264 41.6673 4.128 41.6833 4V3.832C41.6673 3.752 41.6593 3.672 41.6593 3.592C41.6753 3.496 41.6753 3.408 41.6593 3.328C41.6433 3.248 41.6353 3.168 41.6353 3.088C41.6513 3.008 41.6593 2.936 41.6593 2.872C41.6593 2.808 41.6513 2.76 41.6353 2.728C41.6353 2.68 41.6273 2.632 41.6113 2.584C41.6433 2.472 41.7073 2.384 41.8033 2.32C41.8993 2.256 41.9553 2.176 41.9713 2.08C42.1633 1.952 42.3553 1.872 42.5473 1.84C42.7553 1.792 42.9473 1.72 43.1233 1.624C43.2993 1.528 43.4833 1.472 43.6753 1.456C43.8673 1.44 44.0513 1.4 44.2273 1.336C44.3393 1.368 44.4433 1.4 44.5393 1.432C44.6513 1.464 44.7633 1.496 44.8753 1.528C44.9393 1.528 45.0033 1.528 45.0673 1.528C45.1473 1.512 45.2193 1.496 45.2833 1.48C45.3953 1.496 45.4993 1.52 45.5953 1.552C45.6913 1.584 45.7953 1.592 45.9073 1.576C46.0833 1.528 46.2513 1.528 46.4113 1.576C46.4913 1.576 46.5633 1.584 46.6273 1.6C46.6913 1.6 46.7553 1.608 46.8193 1.624C47.0593 1.448 47.3153 1.4 47.5873 1.48C47.7153 1.528 47.8433 1.544 47.9713 1.528C48.0993 1.512 48.2273 1.528 48.3553 1.576C48.4833 1.608 48.6033 1.624 48.7153 1.624C48.8433 1.608 48.9633 1.6 49.0753 1.6C49.2193 1.568 49.3633 1.568 49.5073 1.6C49.6353 1.632 49.7713 1.656 49.9153 1.672C50.0753 1.688 50.2193 1.696 50.3473 1.696C50.4273 1.696 50.5393 1.752 50.6833 1.864C50.9073 2.744 50.9473 3.608 50.8033 4.456ZM66.4452 5.44C66.4292 5.632 66.4292 5.824 66.4452 6.016C66.4612 6.192 66.4532 6.368 66.4212 6.544C66.3732 6.752 66.3412 6.96 66.3252 7.168C66.3092 7.376 66.2932 7.584 66.2772 7.792C66.2132 7.904 66.1572 8.024 66.1092 8.152C66.0772 8.264 66.0292 8.368 65.9652 8.464C65.9012 8.56 65.8372 8.656 65.7732 8.752C65.7092 8.832 65.6372 8.928 65.5572 9.04C65.5252 9.072 65.5092 9.128 65.5092 9.208C65.3652 9.4 65.2052 9.576 65.0292 9.736C64.8692 9.88 64.6852 10 64.4772 10.096C64.3652 10.288 64.2532 10.44 64.1412 10.552C64.1092 10.6 64.0532 10.64 63.9732 10.672C63.7652 10.768 63.5332 10.84 63.2772 10.888C62.9572 10.968 62.7332 11.136 62.6052 11.392V11.824C62.6212 11.888 62.6692 11.928 62.7492 11.944C62.8452 11.96 62.9252 12.008 62.9892 12.088C62.9892 12.104 63.0052 12.12 63.0372 12.136C63.0692 12.152 63.0852 12.176 63.0852 12.208C63.1492 12.48 63.3092 12.656 63.5652 12.736C63.6612 12.864 63.7492 12.992 63.8292 13.12C63.9252 13.232 64.0132 13.344 64.0932 13.456C64.1732 13.504 64.2452 13.552 64.3092 13.6C64.3892 13.632 64.4692 13.672 64.5492 13.72C64.5812 13.784 64.6212 13.864 64.6692 13.96C64.7332 14.04 64.7892 14.12 64.8372 14.2C64.9012 14.264 64.9652 14.32 65.0292 14.368C65.0932 14.4 65.1332 14.432 65.1492 14.464C65.1972 14.672 65.1892 14.808 65.1252 14.872C64.9332 15.096 64.8052 15.304 64.7412 15.496C64.7092 15.544 64.6772 15.584 64.6452 15.616C64.6132 15.632 64.5812 15.656 64.5492 15.688C64.4372 15.752 64.3172 15.792 64.1892 15.808C64.0612 15.824 63.9572 15.872 63.8772 15.952C63.7972 16.016 63.7092 16.048 63.6132 16.048C63.5172 16.064 63.4292 16.104 63.3492 16.168C63.2212 16.264 63.1012 16.368 62.9892 16.48C62.8932 16.608 62.7652 16.712 62.6052 16.792C62.5412 16.776 62.4612 16.768 62.3652 16.768C62.2692 16.768 62.1812 16.768 62.1012 16.768L61.6212 16.432C61.5572 16.368 61.5252 16.328 61.5252 16.312C61.4932 16.232 61.4612 16.152 61.4292 16.072C61.3972 16.008 61.3652 15.944 61.3332 15.88C61.3172 15.816 61.2772 15.76 61.2132 15.712C61.1492 15.648 61.1012 15.584 61.0692 15.52V15.328C61.0692 15.2 61.0132 15.136 60.9012 15.136C60.8532 15.12 60.8132 15.112 60.7812 15.112C60.7492 15.112 60.7172 15.112 60.6852 15.112C60.4452 14.936 60.2212 14.72 60.0132 14.464C59.8532 14.304 59.6932 14.184 59.5332 14.104C59.3892 14.008 59.2532 13.888 59.1252 13.744C58.9972 13.6 58.8692 13.456 58.7412 13.312C58.6612 13.216 58.5812 13.12 58.5012 13.024C58.4212 12.912 58.3332 12.824 58.2372 12.76C58.0932 12.744 57.9492 12.744 57.8052 12.76C57.6612 12.776 57.5332 12.816 57.4212 12.88C57.3892 12.88 57.3492 12.92 57.3012 13C57.2852 13.112 57.2692 13.224 57.2532 13.336C57.2372 13.432 57.2212 13.536 57.2052 13.648C57.2692 13.952 57.2772 14.264 57.2292 14.584C57.1812 14.76 57.1492 14.936 57.1332 15.112C57.1332 15.288 57.1252 15.464 57.1092 15.64C57.1092 15.704 57.1092 15.776 57.1092 15.856C57.1092 15.936 57.0932 16.008 57.0612 16.072C57.0292 16.216 56.9412 16.312 56.7972 16.36H56.7012C56.6372 16.344 56.5732 16.328 56.5092 16.312C56.4612 16.312 56.3972 16.304 56.3172 16.288C56.0772 16.352 55.8292 16.36 55.5732 16.312C55.3172 16.264 55.0612 16.224 54.8052 16.192C54.5492 16.16 54.3012 16.12 54.0612 16.072C54.0292 16.072 53.9972 16.064 53.9652 16.048C53.9492 16.048 53.9252 16.04 53.8932 16.024C53.8292 15.96 53.7972 15.904 53.7972 15.856C53.7972 15.712 53.7892 15.568 53.7732 15.424C53.7572 15.264 53.7332 15.104 53.7012 14.944C53.6212 14.656 53.6372 14.408 53.7492 14.2C53.7332 14.056 53.7172 13.912 53.7012 13.768C53.6852 13.624 53.6852 13.488 53.7012 13.36C53.7332 13.296 53.7332 13.216 53.7012 13.12C53.6852 13.024 53.6452 12.992 53.5812 13.024C53.5652 13.04 53.5412 13.048 53.5092 13.048C53.4772 13.032 53.4612 13.016 53.4612 13C53.4452 12.968 53.4292 12.936 53.4132 12.904C53.3972 12.856 53.3812 12.824 53.3652 12.808C53.3652 12.728 53.3652 12.64 53.3652 12.544C53.3652 12.448 53.3572 12.36 53.3412 12.28C53.3412 12.2 53.3412 12.12 53.3412 12.04C53.3412 11.96 53.3252 11.888 53.2932 11.824C53.2452 11.664 53.2212 11.496 53.2212 11.32C53.2212 11.144 53.2212 10.976 53.2212 10.816C53.2052 10.752 53.1892 10.704 53.1732 10.672C53.1572 10.624 53.1332 10.576 53.1012 10.528C53.1332 10.416 53.1572 10.312 53.1732 10.216C53.2052 10.104 53.1812 9.992 53.1012 9.88C53.1332 9.752 53.1412 9.624 53.1252 9.496C53.1092 9.352 53.1412 9.208 53.2212 9.064C53.2532 8.984 53.2612 8.904 53.2452 8.824C53.2292 8.744 53.2132 8.648 53.1972 8.536C53.2292 8.408 53.2692 8.288 53.3172 8.176C53.3652 8.048 53.4052 7.904 53.4372 7.744C53.4212 7.664 53.3972 7.528 53.3652 7.336C53.3332 7.256 53.3092 7.184 53.2932 7.12C53.2772 7.056 53.2612 6.992 53.2452 6.928C53.2292 6.848 53.2372 6.776 53.2692 6.712C53.3172 6.632 53.3252 6.552 53.2932 6.472C53.2772 6.36 53.2692 6.288 53.2692 6.256C53.2852 6.224 53.3252 6.16 53.3892 6.064C53.3732 6.032 53.3652 6.008 53.3652 5.992C53.3652 5.96 53.3572 5.936 53.3412 5.92C53.1972 5.728 53.1652 5.488 53.2452 5.2C53.2772 5.104 53.3092 5.008 53.3412 4.912C53.3892 4.816 53.4212 4.728 53.4372 4.648C53.4212 4.584 53.4052 4.52 53.3892 4.456C53.3892 4.392 53.3812 4.328 53.3652 4.264L53.5332 3.688C53.5012 3.576 53.4772 3.464 53.4612 3.352C53.4452 3.24 53.4212 3.128 53.3892 3.016C53.3892 2.872 53.4532 2.72 53.5812 2.56C53.6452 2.48 53.7092 2.448 53.7732 2.464C53.8532 2.48 53.9492 2.48 54.0612 2.464C54.1732 2.432 54.2852 2.392 54.3972 2.344C54.5252 2.296 54.6612 2.264 54.8052 2.248C54.9492 2.232 55.0852 2.168 55.2132 2.056C55.3412 1.976 55.4692 1.912 55.5972 1.864C55.7252 1.8 55.8532 1.752 55.9812 1.72C56.2372 1.768 56.3972 1.792 56.4612 1.792C56.5412 1.776 56.6692 1.712 56.8452 1.6H57.2772C57.3572 1.584 57.4372 1.568 57.5172 1.552C57.5972 1.52 57.6852 1.496 57.7812 1.48C57.8132 1.448 57.8612 1.408 57.9252 1.36C58.0052 1.312 58.0772 1.272 58.1412 1.24C58.2372 1.224 58.3412 1.208 58.4532 1.192C58.5652 1.16 58.6772 1.136 58.7892 1.12C58.8372 1.136 58.8772 1.16 58.9092 1.192C58.9572 1.208 59.0052 1.232 59.0532 1.264C59.1492 1.312 59.2292 1.368 59.2932 1.432C59.3572 1.464 59.4132 1.48 59.4612 1.48C59.6212 1.496 59.7732 1.512 59.9172 1.528C60.0612 1.528 60.2132 1.52 60.3732 1.504C60.4212 1.488 60.4772 1.48 60.5412 1.48C60.6212 1.48 60.6932 1.48 60.7572 1.48C60.8372 1.48 60.9252 1.488 61.0212 1.504C61.1172 1.504 61.2052 1.512 61.2852 1.528C61.3812 1.528 61.4532 1.56 61.5012 1.624C61.5652 1.688 61.6212 1.72 61.6692 1.72C61.8932 1.784 62.1012 1.816 62.2932 1.816C62.4852 1.816 62.6772 1.808 62.8692 1.792C62.9492 1.824 63.0292 1.864 63.1092 1.912C63.2052 1.944 63.2932 1.976 63.3732 2.008C63.4372 1.976 63.4852 1.952 63.5172 1.936C63.5652 1.904 63.6132 1.88 63.6612 1.864C63.7892 1.832 63.8852 1.84 63.9492 1.888C63.9972 1.92 64.0372 1.952 64.0692 1.984C64.1172 2.016 64.1652 2.048 64.2132 2.08C64.2452 2.128 64.2772 2.176 64.3092 2.224C64.3412 2.272 64.3892 2.312 64.4532 2.344H64.7892C64.8532 2.36 64.9252 2.424 65.0052 2.536C65.1012 2.648 65.1892 2.76 65.2692 2.872C65.3652 2.984 65.4692 3.104 65.5812 3.232C65.6932 3.344 65.7892 3.472 65.8692 3.616C65.9492 3.744 66.0452 3.872 66.1572 4C66.2052 4.032 66.2372 4.08 66.2532 4.144C66.2852 4.208 66.3092 4.272 66.3252 4.336C66.3252 4.528 66.3252 4.72 66.3252 4.912C66.3412 5.088 66.3812 5.264 66.4452 5.44ZM54.6372 2.464V2.44H54.5892L54.6372 2.464ZM62.9172 6.76C62.9172 6.76 62.9092 6.752 62.8932 6.736C62.8772 6.72 62.8692 6.704 62.8692 6.688C62.8692 6.544 62.8452 6.408 62.7972 6.28C62.7492 6.136 62.6612 6.016 62.5332 5.92C62.4692 5.888 62.4212 5.848 62.3892 5.8C62.3572 5.736 62.3172 5.68 62.2692 5.632C62.1572 5.488 62.0292 5.368 61.8852 5.272C61.8692 5.24 61.8372 5.224 61.7892 5.224C61.7412 5.208 61.7012 5.192 61.6692 5.176C61.5892 5.224 61.4532 5.272 61.2612 5.32C61.1332 5.24 60.9972 5.2 60.8532 5.2C60.7092 5.2 60.5572 5.216 60.3972 5.248C60.2372 5.248 60.0692 5.248 59.8932 5.248C59.7332 5.232 59.5732 5.248 59.4132 5.296C59.2372 5.28 59.0612 5.28 58.8852 5.296C58.7092 5.312 58.5332 5.328 58.3572 5.344C58.2132 5.344 58.1092 5.352 58.0452 5.368C57.9332 5.432 57.8212 5.464 57.7092 5.464C57.6132 5.448 57.5092 5.456 57.3972 5.488C57.3332 5.552 57.2932 5.632 57.2772 5.728C57.2612 5.824 57.2372 5.912 57.2052 5.992C57.3012 6.36 57.2852 6.728 57.1572 7.096C57.2372 7.208 57.2932 7.32 57.3252 7.432C57.3732 7.528 57.3732 7.64 57.3252 7.768C57.3252 7.784 57.3252 7.8 57.3252 7.816C57.3412 7.832 57.3492 7.848 57.3492 7.864C57.3812 7.96 57.3972 8.056 57.3972 8.152C57.3972 8.248 57.3812 8.344 57.3492 8.44C57.3172 8.456 57.2772 8.48 57.2292 8.512C57.1972 8.528 57.1652 8.552 57.1332 8.584C57.2132 8.664 57.3092 8.704 57.4212 8.704C57.4692 8.672 57.5252 8.648 57.5892 8.632C57.6532 8.6 57.7172 8.56 57.7812 8.512C58.0532 8.592 58.3252 8.624 58.5972 8.608C58.8852 8.592 59.1572 8.64 59.4132 8.752H59.5812C59.6452 8.752 59.7172 8.744 59.7972 8.728C59.8772 8.712 59.9492 8.704 60.0132 8.704C60.0772 8.656 60.1652 8.616 60.2772 8.584C60.6292 8.488 60.9412 8.328 61.2132 8.104C61.3252 8.024 61.4372 7.976 61.5492 7.96C61.6612 7.928 61.7732 7.904 61.8852 7.888C61.9332 7.888 61.9812 7.888 62.0292 7.888C62.0932 7.888 62.1572 7.88 62.2212 7.864C62.2692 7.736 62.3492 7.632 62.4612 7.552C62.5892 7.456 62.6932 7.344 62.7732 7.216C62.7092 7.136 62.7092 7.064 62.7732 7C62.8532 6.936 62.9012 6.856 62.9172 6.76ZM81.9999 5.44C81.9839 5.632 81.9839 5.824 81.9999 6.016C82.0159 6.192 82.0079 6.368 81.9759 6.544C81.9279 6.752 81.8959 6.96 81.8799 7.168C81.8639 7.376 81.8479 7.584 81.8319 7.792C81.7679 7.904 81.7119 8.024 81.6639 8.152C81.6319 8.264 81.5839 8.368 81.5199 8.464C81.4559 8.56 81.3919 8.656 81.3279 8.752C81.2639 8.832 81.1919 8.928 81.1119 9.04C81.0799 9.072 81.0639 9.128 81.0639 9.208C80.9199 9.4 80.7599 9.576 80.5839 9.736C80.4239 9.88 80.2399 10 80.0319 10.096C79.9199 10.288 79.8079 10.44 79.6959 10.552C79.6639 10.6 79.6079 10.64 79.5279 10.672C79.3199 10.768 79.0879 10.84 78.8319 10.888C78.5119 10.968 78.2879 11.136 78.1599 11.392V11.824C78.1759 11.888 78.2239 11.928 78.3039 11.944C78.3999 11.96 78.4799 12.008 78.5439 12.088C78.5439 12.104 78.5599 12.12 78.5919 12.136C78.6239 12.152 78.6399 12.176 78.6399 12.208C78.7039 12.48 78.8639 12.656 79.1199 12.736C79.2159 12.864 79.3039 12.992 79.3839 13.12C79.4799 13.232 79.5679 13.344 79.6479 13.456C79.7279 13.504 79.7999 13.552 79.8639 13.6C79.9439 13.632 80.0239 13.672 80.1039 13.72C80.1359 13.784 80.1759 13.864 80.2239 13.96C80.2879 14.04 80.3439 14.12 80.3919 14.2C80.4559 14.264 80.5199 14.32 80.5839 14.368C80.6479 14.4 80.6879 14.432 80.7039 14.464C80.7519 14.672 80.7439 14.808 80.6799 14.872C80.4879 15.096 80.3599 15.304 80.2959 15.496C80.2639 15.544 80.2319 15.584 80.1999 15.616C80.1679 15.632 80.1359 15.656 80.1039 15.688C79.9919 15.752 79.8719 15.792 79.7439 15.808C79.6159 15.824 79.5119 15.872 79.4319 15.952C79.3519 16.016 79.2639 16.048 79.1679 16.048C79.0719 16.064 78.9839 16.104 78.9039 16.168C78.7759 16.264 78.6559 16.368 78.5439 16.48C78.4479 16.608 78.3199 16.712 78.1599 16.792C78.0959 16.776 78.0159 16.768 77.9199 16.768C77.8239 16.768 77.7359 16.768 77.6559 16.768L77.1759 16.432C77.1119 16.368 77.0799 16.328 77.0799 16.312C77.0479 16.232 77.0159 16.152 76.9839 16.072C76.9519 16.008 76.9199 15.944 76.8879 15.88C76.8719 15.816 76.8319 15.76 76.7679 15.712C76.7039 15.648 76.6559 15.584 76.6239 15.52V15.328C76.6239 15.2 76.5679 15.136 76.4559 15.136C76.4079 15.12 76.3679 15.112 76.3359 15.112C76.3039 15.112 76.2719 15.112 76.2399 15.112C75.9999 14.936 75.7759 14.72 75.5679 14.464C75.4079 14.304 75.2479 14.184 75.0879 14.104C74.9439 14.008 74.8079 13.888 74.6799 13.744C74.5519 13.6 74.4239 13.456 74.2959 13.312C74.2159 13.216 74.1359 13.12 74.0559 13.024C73.9759 12.912 73.8879 12.824 73.7919 12.76C73.6479 12.744 73.5039 12.744 73.3599 12.76C73.2159 12.776 73.0879 12.816 72.9759 12.88C72.9439 12.88 72.9039 12.92 72.8559 13C72.8399 13.112 72.8239 13.224 72.8079 13.336C72.7919 13.432 72.7759 13.536 72.7599 13.648C72.8239 13.952 72.8319 14.264 72.7839 14.584C72.7359 14.76 72.7039 14.936 72.6879 15.112C72.6879 15.288 72.6799 15.464 72.6639 15.64C72.6639 15.704 72.6639 15.776 72.6639 15.856C72.6639 15.936 72.6479 16.008 72.6159 16.072C72.5839 16.216 72.4959 16.312 72.3519 16.36H72.2559C72.1919 16.344 72.1279 16.328 72.0639 16.312C72.0159 16.312 71.9519 16.304 71.8719 16.288C71.6319 16.352 71.3839 16.36 71.1279 16.312C70.8719 16.264 70.6159 16.224 70.3599 16.192C70.1039 16.16 69.8559 16.12 69.6159 16.072C69.5839 16.072 69.5519 16.064 69.5199 16.048C69.5039 16.048 69.4799 16.04 69.4479 16.024C69.3839 15.96 69.3519 15.904 69.3519 15.856C69.3519 15.712 69.3439 15.568 69.3279 15.424C69.3119 15.264 69.2879 15.104 69.2559 14.944C69.1759 14.656 69.1919 14.408 69.3039 14.2C69.2879 14.056 69.2719 13.912 69.2559 13.768C69.2399 13.624 69.2399 13.488 69.2559 13.36C69.2879 13.296 69.2879 13.216 69.2559 13.12C69.2399 13.024 69.1999 12.992 69.1359 13.024C69.1199 13.04 69.0959 13.048 69.0639 13.048C69.0319 13.032 69.0159 13.016 69.0159 13C68.9999 12.968 68.9839 12.936 68.9679 12.904C68.9519 12.856 68.9359 12.824 68.9199 12.808C68.9199 12.728 68.9199 12.64 68.9199 12.544C68.9199 12.448 68.9119 12.36 68.8959 12.28C68.8959 12.2 68.8959 12.12 68.8959 12.04C68.8959 11.96 68.8799 11.888 68.8479 11.824C68.7999 11.664 68.7759 11.496 68.7759 11.32C68.7759 11.144 68.7759 10.976 68.7759 10.816C68.7599 10.752 68.7439 10.704 68.7279 10.672C68.7119 10.624 68.6879 10.576 68.6559 10.528C68.6879 10.416 68.7119 10.312 68.7279 10.216C68.7599 10.104 68.7359 9.992 68.6559 9.88C68.6879 9.752 68.6959 9.624 68.6799 9.496C68.6639 9.352 68.6959 9.208 68.7759 9.064C68.8079 8.984 68.8159 8.904 68.7999 8.824C68.7839 8.744 68.7679 8.648 68.7519 8.536C68.7839 8.408 68.8239 8.288 68.8719 8.176C68.9199 8.048 68.9599 7.904 68.9919 7.744C68.9759 7.664 68.9519 7.528 68.9199 7.336C68.8879 7.256 68.8639 7.184 68.8479 7.12C68.8319 7.056 68.8159 6.992 68.7999 6.928C68.7839 6.848 68.7919 6.776 68.8239 6.712C68.8719 6.632 68.8799 6.552 68.8479 6.472C68.8319 6.36 68.8239 6.288 68.8239 6.256C68.8399 6.224 68.8799 6.16 68.9439 6.064C68.9279 6.032 68.9199 6.008 68.9199 5.992C68.9199 5.96 68.9119 5.936 68.8959 5.92C68.7519 5.728 68.7199 5.488 68.7999 5.2C68.8319 5.104 68.8639 5.008 68.8959 4.912C68.9439 4.816 68.9759 4.728 68.9919 4.648C68.9759 4.584 68.9599 4.52 68.9439 4.456C68.9439 4.392 68.9359 4.328 68.9199 4.264L69.0879 3.688C69.0559 3.576 69.0319 3.464 69.0159 3.352C68.9999 3.24 68.9759 3.128 68.9439 3.016C68.9439 2.872 69.0079 2.72 69.1359 2.56C69.1999 2.48 69.2639 2.448 69.3279 2.464C69.4079 2.48 69.5039 2.48 69.6159 2.464C69.7279 2.432 69.8399 2.392 69.9519 2.344C70.0799 2.296 70.2159 2.264 70.3599 2.248C70.5039 2.232 70.6399 2.168 70.7679 2.056C70.8959 1.976 71.0239 1.912 71.1519 1.864C71.2799 1.8 71.4079 1.752 71.5359 1.72C71.7919 1.768 71.9519 1.792 72.0159 1.792C72.0959 1.776 72.2239 1.712 72.3999 1.6H72.8319C72.9119 1.584 72.9919 1.568 73.0719 1.552C73.1519 1.52 73.2399 1.496 73.3359 1.48C73.3679 1.448 73.4159 1.408 73.4799 1.36C73.5599 1.312 73.6319 1.272 73.6959 1.24C73.7919 1.224 73.8959 1.208 74.0079 1.192C74.1199 1.16 74.2319 1.136 74.3439 1.12C74.3919 1.136 74.4319 1.16 74.4639 1.192C74.5119 1.208 74.5599 1.232 74.6079 1.264C74.7039 1.312 74.7839 1.368 74.8479 1.432C74.9119 1.464 74.9679 1.48 75.0159 1.48C75.1759 1.496 75.3279 1.512 75.4719 1.528C75.6159 1.528 75.7679 1.52 75.9279 1.504C75.9759 1.488 76.0319 1.48 76.0959 1.48C76.1759 1.48 76.2479 1.48 76.3119 1.48C76.3919 1.48 76.4799 1.488 76.5759 1.504C76.6719 1.504 76.7599 1.512 76.8399 1.528C76.9359 1.528 77.0079 1.56 77.0559 1.624C77.1199 1.688 77.1759 1.72 77.2239 1.72C77.4479 1.784 77.6559 1.816 77.8479 1.816C78.0399 1.816 78.2319 1.808 78.4239 1.792C78.5039 1.824 78.5839 1.864 78.6639 1.912C78.7599 1.944 78.8479 1.976 78.9279 2.008C78.9919 1.976 79.0399 1.952 79.0719 1.936C79.1199 1.904 79.1679 1.88 79.2159 1.864C79.3439 1.832 79.4399 1.84 79.5039 1.888C79.5519 1.92 79.5919 1.952 79.6239 1.984C79.6719 2.016 79.7199 2.048 79.7679 2.08C79.7999 2.128 79.8319 2.176 79.8639 2.224C79.8959 2.272 79.9439 2.312 80.0079 2.344H80.3439C80.4079 2.36 80.4799 2.424 80.5599 2.536C80.6559 2.648 80.7439 2.76 80.8239 2.872C80.9199 2.984 81.0239 3.104 81.1359 3.232C81.2479 3.344 81.3439 3.472 81.4239 3.616C81.5039 3.744 81.5999 3.872 81.7119 4C81.7599 4.032 81.7919 4.08 81.8079 4.144C81.8399 4.208 81.8639 4.272 81.8799 4.336C81.8799 4.528 81.8799 4.72 81.8799 4.912C81.8959 5.088 81.9359 5.264 81.9999 5.44ZM70.1919 2.464V2.44H70.1439L70.1919 2.464ZM78.4719 6.76C78.4719 6.76 78.4639 6.752 78.4479 6.736C78.4319 6.72 78.4239 6.704 78.4239 6.688C78.4239 6.544 78.3999 6.408 78.3519 6.28C78.3039 6.136 78.2159 6.016 78.0879 5.92C78.0239 5.888 77.9759 5.848 77.9439 5.8C77.9119 5.736 77.8719 5.68 77.8239 5.632C77.7119 5.488 77.5839 5.368 77.4399 5.272C77.4239 5.24 77.3919 5.224 77.3439 5.224C77.2959 5.208 77.2559 5.192 77.2239 5.176C77.1439 5.224 77.0079 5.272 76.8159 5.32C76.6879 5.24 76.5519 5.2 76.4079 5.2C76.2639 5.2 76.1119 5.216 75.9519 5.248C75.7919 5.248 75.6239 5.248 75.4479 5.248C75.2879 5.232 75.1279 5.248 74.9679 5.296C74.7919 5.28 74.6159 5.28 74.4399 5.296C74.2639 5.312 74.0879 5.328 73.9119 5.344C73.7679 5.344 73.6639 5.352 73.5999 5.368C73.4879 5.432 73.3759 5.464 73.2639 5.464C73.1679 5.448 73.0639 5.456 72.9519 5.488C72.8879 5.552 72.8479 5.632 72.8319 5.728C72.8159 5.824 72.7919 5.912 72.7599 5.992C72.8559 6.36 72.8399 6.728 72.7119 7.096C72.7919 7.208 72.8479 7.32 72.8799 7.432C72.9279 7.528 72.9279 7.64 72.8799 7.768C72.8799 7.784 72.8799 7.8 72.8799 7.816C72.8959 7.832 72.9039 7.848 72.9039 7.864C72.9359 7.96 72.9519 8.056 72.9519 8.152C72.9519 8.248 72.9359 8.344 72.9039 8.44C72.8719 8.456 72.8319 8.48 72.7839 8.512C72.7519 8.528 72.7199 8.552 72.6879 8.584C72.7679 8.664 72.8639 8.704 72.9759 8.704C73.0239 8.672 73.0799 8.648 73.1439 8.632C73.2079 8.6 73.2719 8.56 73.3359 8.512C73.6079 8.592 73.8799 8.624 74.1519 8.608C74.4399 8.592 74.7119 8.64 74.9679 8.752H75.1359C75.1999 8.752 75.2719 8.744 75.3519 8.728C75.4319 8.712 75.5039 8.704 75.5679 8.704C75.6319 8.656 75.7199 8.616 75.8319 8.584C76.1839 8.488 76.4959 8.328 76.7679 8.104C76.8799 8.024 76.9919 7.976 77.1039 7.96C77.2159 7.928 77.3279 7.904 77.4399 7.888C77.4879 7.888 77.5359 7.888 77.5839 7.888C77.6479 7.888 77.7119 7.88 77.7759 7.864C77.8239 7.736 77.9039 7.632 78.0159 7.552C78.1439 7.456 78.2479 7.344 78.3279 7.216C78.2639 7.136 78.2639 7.064 78.3279 7C78.4079 6.936 78.4559 6.856 78.4719 6.76ZM98.6346 14.968C98.6666 15.048 98.6426 15.16 98.5626 15.304C98.4346 15.32 98.2986 15.32 98.1546 15.304C98.0266 15.272 97.8986 15.24 97.7706 15.208C97.5626 15.288 97.4186 15.344 97.3386 15.376C97.2746 15.408 97.2106 15.424 97.1466 15.424C97.0826 15.408 96.9546 15.4 96.7626 15.4C96.7146 15.416 96.6666 15.44 96.6186 15.472C96.5866 15.504 96.5386 15.536 96.4746 15.568C96.4746 15.568 96.4666 15.576 96.4506 15.592C96.4506 15.592 96.4426 15.592 96.4266 15.592C96.2666 15.592 96.1066 15.6 95.9466 15.616C95.7866 15.616 95.6346 15.616 95.4906 15.616C95.3946 15.52 95.3306 15.448 95.2986 15.4C95.2826 15.352 95.2506 15.24 95.2026 15.064C95.1706 14.968 95.0986 14.856 94.9866 14.728C94.8266 14.552 94.6586 14.312 94.4826 14.008C94.3226 13.704 94.1946 13.448 94.0986 13.24L93.9786 13.12C93.9146 13.12 93.8666 13.136 93.8346 13.168C93.5786 13.328 93.3386 13.352 93.1146 13.24C92.9706 13.208 92.8266 13.192 92.6826 13.192C92.5546 13.192 92.4186 13.192 92.2746 13.192C92.1626 13.176 92.0506 13.176 91.9386 13.192C91.8266 13.208 91.7066 13.216 91.5786 13.216C91.4826 13.216 91.3786 13.216 91.2666 13.216C91.1706 13.2 91.0746 13.192 90.9786 13.192C90.8506 13.208 90.7146 13.232 90.5706 13.264C90.4426 13.296 90.3146 13.344 90.1866 13.408C90.0746 13.472 89.9546 13.512 89.8266 13.528C89.7146 13.544 89.5946 13.56 89.4666 13.576C89.2906 13.576 89.1146 13.6 88.9386 13.648C88.7786 13.68 88.6106 13.72 88.4346 13.768C88.3866 13.784 88.3306 13.808 88.2666 13.84C88.2186 13.856 88.1786 13.896 88.1466 13.96C88.1466 14.04 88.1386 14.128 88.1226 14.224C88.1226 14.304 88.1226 14.392 88.1226 14.488C88.0746 14.632 88.0426 14.784 88.0266 14.944C87.9626 15.168 87.8586 15.36 87.7146 15.52C87.5866 15.68 87.4506 15.84 87.3066 16C87.2426 16 87.1786 16 87.1146 16C87.0666 15.984 87.0106 15.976 86.9466 15.976C86.8986 15.976 86.8426 15.984 86.7786 16C86.7306 16 86.6746 16.008 86.6106 16.024C86.4346 16.04 86.2506 16.016 86.0586 15.952C86.0426 15.936 86.0266 15.936 86.0106 15.952C86.0106 15.952 85.9946 15.952 85.9626 15.952H85.8426L85.7946 15.928C85.7786 15.896 85.7546 15.888 85.7226 15.904C85.7066 15.904 85.6586 15.896 85.5786 15.88C85.4826 15.848 85.3946 15.832 85.3146 15.832C85.2506 15.832 85.1946 15.832 85.1466 15.832C85.0986 15.832 85.0346 15.824 84.9546 15.808C84.9226 15.792 84.8746 15.784 84.8106 15.784C84.7466 15.768 84.6746 15.744 84.5946 15.712C84.5466 15.696 84.5066 15.696 84.4746 15.712C84.4586 15.712 84.4266 15.704 84.3786 15.688L84.3066 15.664H84.2586L84.2106 15.64C84.2426 15.416 84.2746 15.2 84.3066 14.992C84.3546 14.768 84.4346 14.552 84.5466 14.344C84.5786 14.28 84.6026 14.224 84.6186 14.176C84.6346 14.128 84.6426 14.072 84.6426 14.008L84.7146 13.6C84.7626 13.52 84.8106 13.432 84.8586 13.336C84.9066 13.24 84.9546 13.16 85.0026 13.096C85.0346 13 85.0346 12.904 85.0026 12.808C84.9866 12.712 85.0106 12.624 85.0746 12.544C85.1226 12.464 85.1466 12.384 85.1466 12.304C85.1626 12.224 85.2026 12.16 85.2666 12.112C85.3306 11.984 85.3866 11.864 85.4346 11.752C85.4986 11.624 85.5466 11.496 85.5786 11.368C85.5946 11.352 85.6026 11.32 85.6026 11.272C85.6506 10.936 85.7866 10.648 86.0106 10.408C85.9946 10.344 85.9866 10.288 85.9866 10.24C85.9866 10.176 85.9866 10.128 85.9866 10.096C86.0186 10 86.0746 9.912 86.1546 9.832C86.2346 9.752 86.3066 9.68 86.3706 9.616C86.4506 9.52 86.5226 9.424 86.5866 9.328C86.6506 9.232 86.6906 9.128 86.7066 9.016C86.7706 8.776 86.8586 8.552 86.9706 8.344C87.0826 8.136 87.2186 7.936 87.3786 7.744C87.4746 7.616 87.5546 7.48 87.6186 7.336C87.6986 7.176 87.7786 7.016 87.8586 6.856C87.9226 6.728 87.9786 6.592 88.0266 6.448C88.0906 6.304 88.1306 6.16 88.1466 6.016C88.2746 5.856 88.3626 5.736 88.4106 5.656C88.4586 5.56 88.4986 5.456 88.5306 5.344C88.5786 5.216 88.6346 5.024 88.6986 4.768C88.7306 4.736 88.7706 4.712 88.8186 4.696C88.8826 4.664 88.9226 4.616 88.9386 4.552C88.9386 4.488 88.9786 4.44 89.0586 4.408C89.1866 4.328 89.2746 4.216 89.3226 4.072C89.3706 3.944 89.4346 3.832 89.5146 3.736C89.6106 3.624 89.6986 3.52 89.7786 3.424C89.8586 3.344 89.9066 3.264 89.9226 3.184C90.0026 2.96 90.1066 2.76 90.2346 2.584C90.3786 2.392 90.4986 2.2 90.5946 2.008C90.6746 1.944 90.7466 1.912 90.8106 1.912C90.8746 1.896 90.9386 1.888 91.0026 1.888H91.0746C91.2346 1.952 91.4026 2 91.5786 2.032C91.6906 2.048 91.7946 2.056 91.8906 2.056C91.9866 2.056 92.0666 2.056 92.1306 2.056C92.1786 2.056 92.2266 2.056 92.2746 2.056C92.3226 2.056 92.3706 2.064 92.4186 2.08C92.6266 2.144 92.8426 2.176 93.0666 2.176C93.2906 2.176 93.5066 2.184 93.7146 2.2C93.9866 2.392 94.2186 2.576 94.4106 2.752C94.6026 2.928 94.7546 3.232 94.8666 3.664C94.8826 3.68 94.9066 3.696 94.9386 3.712C94.9706 3.728 94.9946 3.752 95.0106 3.784C95.0426 3.8 95.0746 3.816 95.1066 3.832C95.1386 3.848 95.1706 3.872 95.2026 3.904C95.2346 3.968 95.2586 4.04 95.2746 4.12C95.3066 4.184 95.3386 4.256 95.3706 4.336C95.4026 4.4 95.4426 4.472 95.4906 4.552C95.5386 4.616 95.5946 4.688 95.6586 4.768C95.6906 4.928 95.7386 5.088 95.8026 5.248C95.8826 5.408 95.9146 5.592 95.8986 5.8L96.0666 6.04C96.0666 6.12 96.0666 6.208 96.0666 6.304C96.0826 6.384 96.0906 6.472 96.0906 6.568C96.1706 6.616 96.2106 6.68 96.2106 6.76C96.2266 6.84 96.2426 6.928 96.2586 7.024C96.3066 7.088 96.3546 7.16 96.4026 7.24C96.4506 7.304 96.4986 7.368 96.5466 7.432C96.5786 7.544 96.6106 7.656 96.6426 7.768C96.6746 7.864 96.6986 7.96 96.7146 8.056C96.6986 8.12 96.6826 8.184 96.6666 8.248C96.6666 8.312 96.6586 8.376 96.6426 8.44C96.6746 8.6 96.7306 8.744 96.8106 8.872C96.9066 8.984 96.9946 9.104 97.0746 9.232C97.1546 9.536 97.2266 9.848 97.2906 10.168C97.3706 10.472 97.4266 10.784 97.4586 11.104C97.6346 11.328 97.7386 11.568 97.7706 11.824C97.8186 12.08 97.8746 12.344 97.9386 12.616C97.9706 12.728 97.9866 12.84 97.9866 12.952C97.9866 13.048 97.9946 13.152 98.0106 13.264C98.0426 13.36 98.1146 13.488 98.2266 13.648C98.3386 13.792 98.4266 13.904 98.4906 13.984C98.4906 14.144 98.4986 14.312 98.5146 14.488C98.5306 14.648 98.5706 14.808 98.6346 14.968ZM92.8506 9.904C92.8346 9.792 92.7946 9.696 92.7306 9.616C92.6666 9.52 92.6506 9.416 92.6826 9.304C92.6186 9.192 92.5866 9.056 92.5866 8.896C92.5866 8.736 92.6026 8.648 92.6346 8.632C92.6186 8.6 92.6106 8.552 92.6106 8.488C92.5466 8.408 92.4826 8.336 92.4186 8.272C92.3706 8.208 92.3226 8.136 92.2746 8.056C92.2746 8.072 92.2426 8.048 92.1786 7.984C92.0986 7.968 92.0346 7.92 91.9866 7.84C91.9706 7.792 91.9466 7.744 91.9146 7.696C91.8986 7.648 91.8666 7.616 91.8186 7.6C91.7546 7.6 91.7066 7.624 91.6746 7.672C91.6426 7.704 91.5946 7.736 91.5306 7.768C91.4666 7.784 91.4026 7.8 91.3386 7.816C91.2906 7.832 91.2346 7.848 91.1706 7.864C91.0586 7.96 90.9866 8.088 90.9546 8.248V8.536C90.8906 8.648 90.8186 8.744 90.7386 8.824C90.6746 8.904 90.6266 8.992 90.5946 9.088C90.5466 9.312 90.4746 9.512 90.3786 9.688C90.3786 9.8 90.3546 9.904 90.3066 10C90.2586 10.08 90.2186 10.168 90.1866 10.264C90.1706 10.28 90.1626 10.328 90.1626 10.408C90.1626 10.504 90.2186 10.552 90.3306 10.552C90.3946 10.552 90.4586 10.552 90.5226 10.552C90.5866 10.536 90.6506 10.528 90.7146 10.528C90.7466 10.544 90.7866 10.568 90.8346 10.6C90.8826 10.616 90.9226 10.632 90.9546 10.648C91.1946 10.616 91.4186 10.568 91.6266 10.504C91.8506 10.44 92.0666 10.368 92.2746 10.288C92.3706 10.208 92.4746 10.152 92.5866 10.12C92.6986 10.088 92.7866 10.016 92.8506 9.904ZM109.579 12.832C109.595 12.944 109.587 13.072 109.555 13.216C109.539 13.344 109.531 13.472 109.531 13.6C109.531 13.712 109.523 13.832 109.507 13.96C109.491 14.088 109.467 14.216 109.435 14.344C109.387 14.456 109.371 14.576 109.387 14.704C109.403 14.816 109.403 14.936 109.387 15.064C109.355 15.128 109.315 15.2 109.267 15.28C109.235 15.36 109.195 15.44 109.147 15.52C109.131 15.584 109.107 15.656 109.075 15.736C109.043 15.8 109.011 15.872 108.979 15.952C108.867 16 108.755 16.048 108.643 16.096C108.547 16.16 108.451 16.208 108.355 16.24C108.147 16.288 107.923 16.296 107.683 16.264C107.459 16.232 107.235 16.248 107.011 16.312C106.979 16.328 106.939 16.344 106.891 16.36C106.859 16.376 106.811 16.4 106.747 16.432C106.683 16.448 106.603 16.464 106.507 16.48C106.427 16.496 106.347 16.512 106.267 16.528C106.203 16.528 106.139 16.528 106.075 16.528C106.027 16.528 105.987 16.52 105.955 16.504C105.859 16.456 105.763 16.432 105.667 16.432C105.587 16.432 105.507 16.448 105.427 16.48C105.363 16.48 105.299 16.472 105.235 16.456C105.171 16.44 105.099 16.424 105.019 16.408C104.939 16.488 104.835 16.552 104.707 16.6C104.579 16.648 104.443 16.656 104.299 16.624C104.155 16.608 104.027 16.64 103.915 16.72C103.819 16.672 103.731 16.632 103.651 16.6C103.587 16.568 103.515 16.544 103.435 16.528C103.323 16.512 103.211 16.52 103.099 16.552C103.003 16.584 102.891 16.592 102.763 16.576C102.635 16.544 102.507 16.544 102.379 16.576C102.267 16.608 102.147 16.624 102.019 16.624C101.891 16.608 101.771 16.6 101.659 16.6C101.547 16.616 101.443 16.64 101.347 16.672C101.331 16.624 101.307 16.584 101.275 16.552C101.243 16.536 101.227 16.52 101.227 16.504C101.115 16.008 101.059 15.472 101.059 14.896C101.091 14.736 101.099 14.584 101.083 14.44C101.067 14.28 101.059 14.112 101.059 13.936C100.947 13.616 100.875 13.296 100.843 12.976C100.827 12.656 100.827 12.328 100.843 11.992C100.859 11.672 100.875 11.344 100.891 11.008C100.907 10.672 100.923 10.328 100.939 9.976C100.939 9.848 100.947 9.712 100.963 9.568C100.979 9.424 101.003 9.288 101.035 9.16C101.099 9 101.139 8.84 101.155 8.68C101.171 8.504 101.179 8.328 101.179 8.152C101.179 8.008 101.179 7.864 101.179 7.72C101.179 7.56 101.171 7.4 101.155 7.24C101.155 7.176 101.155 7.104 101.155 7.024C101.155 6.944 101.147 6.864 101.131 6.784C101.099 6.656 101.075 6.528 101.059 6.4C101.043 6.272 101.035 6.152 101.035 6.04C101.051 5.96 101.051 5.88 101.035 5.8C101.035 5.72 101.027 5.64 101.011 5.56C100.995 5.496 100.995 5.424 101.011 5.344C101.027 5.264 101.027 5.192 101.011 5.128C100.995 5.016 100.987 4.912 100.987 4.816C100.987 4.72 101.003 4.624 101.035 4.528C101.051 4.432 101.043 4.328 101.011 4.216C100.995 4.088 100.979 3.96 100.963 3.832C100.963 3.688 100.979 3.56 101.011 3.448C101.059 3.256 101.091 3.064 101.107 2.872C101.123 2.664 101.139 2.48 101.155 2.32C101.187 2.192 101.235 2.096 101.299 2.032C101.379 1.952 101.411 1.864 101.395 1.768C101.379 1.672 101.419 1.608 101.515 1.576C101.611 1.528 101.619 1.448 101.539 1.336C101.651 1.336 101.715 1.344 101.731 1.36C102.035 1.488 102.299 1.504 102.523 1.408C102.619 1.424 102.715 1.44 102.811 1.456C102.907 1.472 102.995 1.48 103.075 1.48C103.155 1.496 103.243 1.496 103.339 1.48C103.435 1.464 103.523 1.448 103.603 1.432C103.795 1.384 103.979 1.344 104.155 1.312C104.347 1.264 104.539 1.24 104.731 1.24C104.907 1.208 105.067 1.208 105.211 1.24C105.259 1.24 105.331 1.272 105.427 1.336C105.411 1.4 105.395 1.464 105.379 1.528C105.379 1.592 105.371 1.656 105.355 1.72C105.371 1.8 105.387 1.888 105.403 1.984C105.435 2.064 105.451 2.152 105.451 2.248C105.467 2.328 105.491 2.416 105.523 2.512C105.571 2.592 105.611 2.68 105.643 2.776C105.595 2.872 105.547 2.984 105.499 3.112C105.451 3.224 105.403 3.336 105.355 3.448C105.387 3.512 105.411 3.576 105.427 3.64C105.443 3.688 105.459 3.744 105.475 3.808C105.411 4.096 105.347 4.384 105.283 4.672C105.235 4.96 105.203 5.256 105.187 5.56C105.171 5.64 105.147 5.728 105.115 5.824C105.099 5.904 105.075 6 105.043 6.112C105.075 6.176 105.107 6.248 105.139 6.328C105.171 6.392 105.195 6.464 105.211 6.544L105.115 7.024C105.115 7.088 105.115 7.16 105.115 7.24C105.115 7.304 105.099 7.36 105.067 7.408C105.019 7.52 104.987 7.632 104.971 7.744C104.971 7.856 104.955 7.976 104.923 8.104C104.923 8.312 104.915 8.528 104.899 8.752C104.883 8.96 104.883 9.176 104.899 9.4C104.899 9.544 104.875 9.68 104.827 9.808C104.795 9.92 104.763 10.056 104.731 10.216C104.763 10.28 104.787 10.344 104.803 10.408C104.819 10.472 104.835 10.544 104.851 10.624C104.835 10.704 104.811 10.792 104.779 10.888C104.763 10.968 104.739 11.056 104.707 11.152C104.755 11.264 104.803 11.376 104.851 11.488C104.899 11.6 104.947 11.72 104.995 11.848C105.027 11.912 105.051 11.976 105.067 12.04C105.083 12.088 105.099 12.144 105.115 12.208C105.163 12.336 105.211 12.416 105.259 12.448C105.323 12.48 105.411 12.488 105.523 12.472C105.747 12.408 105.979 12.36 106.219 12.328C106.459 12.296 106.699 12.256 106.939 12.208C106.987 12.192 107.067 12.184 107.179 12.184C107.323 12.184 107.467 12.168 107.611 12.136C107.771 12.104 107.915 12.048 108.043 11.968C108.331 11.792 108.627 11.728 108.931 11.776C109.011 11.792 109.091 11.792 109.171 11.776C109.251 11.76 109.331 11.768 109.411 11.8C109.427 11.816 109.443 11.848 109.459 11.896C109.475 11.928 109.483 11.96 109.483 11.992C109.531 12.136 109.555 12.28 109.555 12.424C109.571 12.552 109.579 12.688 109.579 12.832ZM126.538 3.928C126.442 4.136 126.314 4.312 126.154 4.456C125.994 4.584 125.858 4.736 125.746 4.912C125.618 4.944 125.49 5 125.362 5.08C125.25 5.16 125.146 5.24 125.05 5.32C124.89 5.416 124.746 5.416 124.618 5.32C124.554 5.288 124.498 5.256 124.45 5.224C124.418 5.176 124.37 5.136 124.306 5.104C124.178 4.992 124.01 4.952 123.802 4.984C123.786 5 123.762 4.992 123.73 4.96V4.72C123.714 4.704 123.69 4.68 123.658 4.648C123.642 4.616 123.618 4.6 123.586 4.6C123.266 4.472 122.962 4.464 122.674 4.576C122.578 4.592 122.482 4.616 122.386 4.648C122.29 4.68 122.194 4.712 122.098 4.744C122.034 4.84 121.97 4.936 121.906 5.032C121.858 5.128 121.802 5.216 121.738 5.296C121.754 5.424 121.762 5.552 121.762 5.68C121.778 5.808 121.794 5.936 121.81 6.064C121.89 6.16 121.962 6.264 122.026 6.376C122.106 6.472 122.178 6.576 122.242 6.688C122.386 6.8 122.538 6.912 122.698 7.024C122.858 7.12 123.01 7.232 123.154 7.36C123.25 7.424 123.346 7.48 123.442 7.528C123.554 7.56 123.65 7.616 123.73 7.696C123.81 7.776 123.882 7.848 123.946 7.912C124.026 7.96 124.098 8.024 124.162 8.104C124.21 8.12 124.258 8.144 124.306 8.176C124.354 8.208 124.402 8.24 124.45 8.272C124.722 8.448 124.93 8.688 125.074 8.992C125.154 9.12 125.234 9.256 125.314 9.4C125.41 9.544 125.498 9.68 125.578 9.808C125.69 9.904 125.762 10.016 125.794 10.144C125.842 10.272 125.89 10.4 125.938 10.528C125.954 10.544 125.962 10.576 125.962 10.624C125.994 10.816 126.042 11 126.106 11.176C126.186 11.352 126.266 11.528 126.346 11.704C126.394 11.912 126.418 12.12 126.418 12.328C126.434 12.52 126.426 12.712 126.394 12.904C126.394 13.064 126.37 13.224 126.322 13.384C126.29 13.528 126.242 13.664 126.178 13.792C126.162 13.808 126.154 13.824 126.154 13.84C126.154 13.856 126.138 13.88 126.106 13.912C125.962 14.056 125.842 14.216 125.746 14.392C125.666 14.568 125.57 14.744 125.458 14.92C125.442 14.936 125.434 14.96 125.434 14.992C125.434 15.008 125.418 15.024 125.386 15.04C125.226 15.152 125.09 15.272 124.978 15.4C124.882 15.528 124.77 15.656 124.642 15.784C124.578 15.848 124.498 15.904 124.402 15.952C124.306 16 124.218 16.056 124.138 16.12L123.634 16.36C123.474 16.376 123.306 16.4 123.13 16.432C122.97 16.464 122.802 16.52 122.626 16.6C122.514 16.664 122.386 16.712 122.242 16.744C122.114 16.776 121.986 16.808 121.858 16.84C121.794 16.856 121.73 16.872 121.666 16.888C121.602 16.904 121.538 16.92 121.474 16.936C121.266 16.776 121.034 16.696 120.778 16.696C120.602 16.696 120.45 16.664 120.322 16.6C120.13 16.52 119.946 16.432 119.77 16.336C119.594 16.256 119.434 16.144 119.29 16C119.194 15.92 119.098 15.848 119.002 15.784C118.906 15.72 118.818 15.656 118.738 15.592C118.674 15.528 118.594 15.488 118.498 15.472C118.418 15.44 118.338 15.408 118.258 15.376C118.146 15.296 118.082 15.208 118.066 15.112C118.082 14.984 118.13 14.864 118.21 14.752C118.306 14.64 118.386 14.52 118.45 14.392C118.45 14.296 118.474 14.176 118.522 14.032C118.666 13.84 118.818 13.648 118.978 13.456C119.138 13.248 119.298 13.04 119.458 12.832C119.522 12.784 119.594 12.736 119.674 12.688C119.754 12.624 119.842 12.56 119.938 12.496C120.258 12.576 120.562 12.664 120.85 12.76C121.138 12.856 121.434 12.944 121.738 13.024C121.802 13.008 121.85 12.992 121.882 12.976C121.914 12.944 121.938 12.92 121.954 12.904C122.002 12.888 122.042 12.872 122.074 12.856C122.106 12.84 122.13 12.824 122.146 12.808H122.578C122.594 12.776 122.61 12.752 122.626 12.736C122.658 12.704 122.682 12.672 122.698 12.64C122.762 12.48 122.826 12.328 122.89 12.184C122.954 12.04 122.994 11.88 123.01 11.704C122.978 11.576 122.938 11.44 122.89 11.296C122.858 11.152 122.786 11.008 122.674 10.864C122.61 10.816 122.538 10.76 122.458 10.696C122.378 10.632 122.298 10.568 122.218 10.504C121.946 10.472 121.666 10.4 121.378 10.288C121.106 10.176 120.834 10.12 120.562 10.12C120.45 10.088 120.362 10.04 120.298 9.976C120.234 9.896 120.162 9.824 120.082 9.76C119.97 9.728 119.85 9.704 119.722 9.688C119.594 9.672 119.49 9.608 119.41 9.496C119.154 9.352 118.938 9.248 118.762 9.184C118.682 9.088 118.602 8.992 118.522 8.896C118.458 8.8 118.386 8.712 118.306 8.632C118.242 8.552 118.178 8.456 118.114 8.344C118.066 8.216 118.002 8.096 117.922 7.984C117.858 7.904 117.802 7.816 117.754 7.72C117.706 7.608 117.658 7.496 117.61 7.384C117.562 7.16 117.514 6.92 117.466 6.664C117.498 6.488 117.522 6.312 117.538 6.136C117.57 5.944 117.594 5.752 117.61 5.56L117.514 5.32C117.578 5.288 117.626 5.24 117.658 5.176C117.69 5.112 117.722 5.048 117.754 4.984C117.786 4.888 117.826 4.808 117.874 4.744C117.922 4.68 117.938 4.592 117.922 4.48C117.922 4.176 118.002 3.896 118.162 3.64C118.194 3.576 118.218 3.52 118.234 3.472C118.266 3.424 118.29 3.376 118.306 3.328C118.386 3.28 118.45 3.232 118.498 3.184C118.562 3.12 118.602 3.08 118.618 3.064C118.698 2.984 118.73 2.912 118.714 2.848C118.698 2.768 118.698 2.696 118.714 2.632C118.778 2.536 118.85 2.44 118.93 2.344C119.01 2.248 119.098 2.144 119.194 2.032C119.306 1.952 119.426 1.888 119.554 1.84C119.682 1.776 119.802 1.688 119.914 1.576C119.946 1.528 119.986 1.496 120.034 1.48C120.082 1.448 120.138 1.424 120.202 1.408C120.282 1.36 120.37 1.32 120.466 1.288C120.562 1.256 120.658 1.216 120.754 1.168C120.914 1.136 121.074 1.112 121.234 1.096C121.41 1.08 121.578 1.064 121.738 1.048C121.754 1.048 121.77 1.048 121.786 1.048C121.818 1.032 121.85 1.032 121.882 1.048C122.058 1.112 122.234 1.112 122.41 1.048C122.602 0.983999 122.794 0.959999 122.986 0.975999C123.162 0.975999 123.33 0.999999 123.49 1.048C123.666 1.096 123.834 1.136 123.994 1.168C124.17 1.296 124.346 1.416 124.522 1.528C124.698 1.624 124.89 1.704 125.098 1.768C125.162 1.832 125.218 1.904 125.266 1.984C125.33 2.048 125.394 2.12 125.458 2.2C125.522 2.264 125.586 2.32 125.65 2.368C125.714 2.416 125.77 2.472 125.818 2.536C125.946 2.776 126.066 3.016 126.178 3.256C126.306 3.48 126.426 3.704 126.538 3.928ZM139.824 2.056C139.792 2.248 139.768 2.44 139.752 2.632C139.752 2.808 139.752 2.992 139.752 3.184C139.752 3.408 139.744 3.624 139.728 3.832C139.728 4.04 139.712 4.256 139.68 4.48C139.664 4.512 139.656 4.56 139.656 4.624C139.672 4.784 139.696 4.944 139.728 5.104C139.776 5.248 139.784 5.384 139.752 5.512C139.72 5.592 139.712 5.672 139.728 5.752C139.744 5.832 139.736 5.912 139.704 5.992C139.688 6.024 139.672 6.056 139.656 6.088C139.64 6.12 139.624 6.152 139.608 6.184C139.528 6.2 139.448 6.216 139.368 6.232C139.304 6.232 139.232 6.232 139.152 6.232C139.12 6.248 139.072 6.28 139.008 6.328C138.96 6.36 138.912 6.392 138.864 6.424C138.8 6.392 138.744 6.36 138.696 6.328C138.664 6.296 138.624 6.272 138.576 6.256C138.544 6.256 138.504 6.256 138.456 6.256C138.408 6.24 138.368 6.24 138.336 6.256C138.224 6.304 138.072 6.32 137.88 6.304C137.704 6.272 137.552 6.256 137.424 6.256C137.264 6.256 137.112 6.28 136.968 6.328C136.84 6.36 136.704 6.408 136.56 6.472C136.448 6.536 136.328 6.576 136.2 6.592C136.088 6.592 135.968 6.616 135.84 6.664C135.76 6.776 135.728 6.88 135.744 6.976C135.776 7.104 135.8 7.248 135.816 7.408C135.848 7.552 135.832 7.704 135.768 7.864C135.768 7.928 135.776 7.968 135.792 7.984C135.856 8.144 135.888 8.304 135.888 8.464C135.888 8.624 135.872 8.792 135.84 8.968C135.824 9.128 135.816 9.288 135.816 9.448C135.816 9.592 135.8 9.752 135.768 9.928C135.736 10.104 135.744 10.264 135.792 10.408C135.808 10.504 135.816 10.6 135.816 10.696C135.816 10.792 135.816 10.88 135.816 10.96C135.8 11.072 135.792 11.104 135.792 11.056C135.792 10.992 135.792 10.96 135.792 10.96V11.032C135.792 11.048 135.784 11.064 135.768 11.08C135.768 11.08 135.768 11.088 135.768 11.104C135.784 11.376 135.784 11.584 135.768 11.728C135.768 11.856 135.76 11.976 135.744 12.088C135.728 12.184 135.696 12.336 135.648 12.544V12.664C135.712 12.92 135.744 13.184 135.744 13.456C135.744 13.712 135.736 13.968 135.72 14.224C135.72 14.4 135.72 14.576 135.72 14.752C135.736 14.928 135.776 15.112 135.84 15.304C135.824 15.4 135.8 15.512 135.768 15.64C135.736 15.752 135.696 15.864 135.648 15.976C135.632 16.04 135.6 16.096 135.552 16.144C135.52 16.192 135.464 16.248 135.384 16.312C135 16.28 134.64 16.312 134.304 16.408C134.128 16.472 133.944 16.448 133.752 16.336C133.72 16.304 133.704 16.288 133.704 16.288C133.464 16.144 133.232 16.12 133.008 16.216C132.912 16.264 132.816 16.28 132.72 16.264C132.624 16.248 132.536 16.24 132.456 16.24C132.344 16.24 132.248 16.28 132.168 16.36C132.088 16.44 131.984 16.448 131.856 16.384C131.84 16.256 131.848 16.136 131.88 16.024C131.928 15.912 131.96 15.784 131.976 15.64C131.96 15.528 131.928 15.408 131.88 15.28C131.848 15.152 131.816 15.024 131.784 14.896C131.816 14.816 131.84 14.744 131.856 14.68C131.872 14.6 131.88 14.528 131.88 14.464C131.896 14.384 131.896 14.304 131.88 14.224C131.88 14.128 131.88 14.04 131.88 13.96C131.896 13.704 131.896 13.464 131.88 13.24C131.88 13 131.864 12.76 131.832 12.52C131.8 12.328 131.776 12.144 131.76 11.968C131.76 11.776 131.752 11.576 131.736 11.368C131.784 11.304 131.824 11.24 131.856 11.176C131.904 11.112 131.96 11.048 132.024 10.984C132.04 10.856 132.048 10.792 132.048 10.792C132.048 10.776 132.048 10.696 132.048 10.552C132.032 10.328 132.032 10.096 132.048 9.856C132.064 9.6 132.096 9.36 132.144 9.136C132.128 8.96 132.104 8.792 132.072 8.632C132.04 8.456 131.984 8.288 131.904 8.128C131.936 8.048 131.968 7.968 132 7.888C132.048 7.808 132.08 7.736 132.096 7.672C132.08 7.544 132.08 7.432 132.096 7.336C132.128 7.24 132.12 7.136 132.072 7.024C132.056 6.976 132.016 6.936 131.952 6.904C131.84 6.904 131.728 6.896 131.616 6.88C131.504 6.864 131.392 6.856 131.28 6.856C131.168 6.856 131.056 6.84 130.944 6.808C130.848 6.776 130.744 6.776 130.632 6.808C130.536 6.856 130.44 6.864 130.344 6.832C130.264 6.784 130.176 6.768 130.08 6.784H129.456L128.856 6.688C128.824 6.688 128.784 6.664 128.736 6.616C128.688 6.568 128.664 6.52 128.664 6.472V6.304C128.696 6.208 128.72 6.112 128.736 6.016C128.768 5.904 128.768 5.792 128.736 5.68C128.72 5.664 128.712 5.64 128.712 5.608C128.728 5.56 128.736 5.528 128.736 5.512C128.8 5.224 128.832 4.888 128.832 4.504C128.832 4.12 128.816 3.784 128.784 3.496C128.784 3.4 128.784 3.304 128.784 3.208C128.784 3.112 128.8 3.024 128.832 2.944C128.912 2.864 128.992 2.824 129.072 2.824C129.152 2.808 129.232 2.792 129.312 2.776C129.392 2.744 129.464 2.712 129.528 2.68C129.592 2.632 129.664 2.6 129.744 2.584C130.112 2.456 130.456 2.456 130.776 2.584C130.776 2.584 130.832 2.6 130.944 2.632C131.088 2.568 131.24 2.544 131.4 2.56C131.56 2.56 131.728 2.52 131.904 2.44C131.936 2.44 131.984 2.448 132.048 2.464C132.128 2.464 132.208 2.464 132.288 2.464C132.432 2.4 132.576 2.336 132.72 2.272C132.88 2.208 133.032 2.112 133.176 1.984C133.432 1.952 133.68 1.944 133.92 1.96C134.176 1.976 134.416 1.944 134.64 1.864C134.752 1.88 134.848 1.912 134.928 1.96C135.024 1.992 135.104 2.024 135.168 2.056C135.28 2.056 135.368 2.024 135.432 1.96C135.496 1.88 135.592 1.832 135.72 1.816C135.848 1.784 136.032 1.792 136.272 1.84C136.368 1.856 136.464 1.904 136.56 1.984C136.672 2.048 136.784 2.072 136.896 2.056C136.976 2.008 137.04 1.96 137.088 1.912C137.152 1.864 137.224 1.816 137.304 1.768C137.4 1.768 137.504 1.792 137.616 1.84C137.728 1.872 137.832 1.88 137.928 1.864C138.04 1.848 138.144 1.832 138.24 1.816C138.352 1.784 138.488 1.768 138.648 1.768C138.712 1.784 138.776 1.808 138.84 1.84C138.904 1.856 138.968 1.88 139.032 1.912C139.128 1.88 139.224 1.856 139.32 1.84C139.432 1.824 139.544 1.808 139.656 1.792C139.688 1.84 139.72 1.888 139.752 1.936C139.784 1.984 139.808 2.024 139.824 2.056ZM153.58 14.968C153.612 15.048 153.588 15.16 153.508 15.304C153.38 15.32 153.244 15.32 153.1 15.304C152.972 15.272 152.844 15.24 152.716 15.208C152.508 15.288 152.364 15.344 152.284 15.376C152.22 15.408 152.156 15.424 152.092 15.424C152.028 15.408 151.9 15.4 151.708 15.4C151.66 15.416 151.612 15.44 151.564 15.472C151.532 15.504 151.484 15.536 151.42 15.568C151.42 15.568 151.412 15.576 151.396 15.592C151.396 15.592 151.388 15.592 151.372 15.592C151.212 15.592 151.052 15.6 150.892 15.616C150.732 15.616 150.58 15.616 150.436 15.616C150.34 15.52 150.276 15.448 150.244 15.4C150.228 15.352 150.196 15.24 150.148 15.064C150.116 14.968 150.044 14.856 149.932 14.728C149.772 14.552 149.604 14.312 149.428 14.008C149.268 13.704 149.14 13.448 149.044 13.24L148.924 13.12C148.86 13.12 148.812 13.136 148.78 13.168C148.524 13.328 148.284 13.352 148.06 13.24C147.916 13.208 147.772 13.192 147.628 13.192C147.5 13.192 147.364 13.192 147.22 13.192C147.108 13.176 146.996 13.176 146.884 13.192C146.772 13.208 146.652 13.216 146.524 13.216C146.428 13.216 146.324 13.216 146.212 13.216C146.116 13.2 146.02 13.192 145.924 13.192C145.796 13.208 145.66 13.232 145.516 13.264C145.388 13.296 145.26 13.344 145.132 13.408C145.02 13.472 144.9 13.512 144.772 13.528C144.66 13.544 144.54 13.56 144.412 13.576C144.236 13.576 144.06 13.6 143.884 13.648C143.724 13.68 143.556 13.72 143.38 13.768C143.332 13.784 143.276 13.808 143.212 13.84C143.164 13.856 143.124 13.896 143.092 13.96C143.092 14.04 143.084 14.128 143.068 14.224C143.068 14.304 143.068 14.392 143.068 14.488C143.02 14.632 142.988 14.784 142.972 14.944C142.908 15.168 142.804 15.36 142.66 15.52C142.532 15.68 142.396 15.84 142.252 16C142.188 16 142.124 16 142.06 16C142.012 15.984 141.956 15.976 141.892 15.976C141.844 15.976 141.788 15.984 141.724 16C141.676 16 141.62 16.008 141.556 16.024C141.38 16.04 141.196 16.016 141.004 15.952C140.988 15.936 140.972 15.936 140.956 15.952C140.956 15.952 140.94 15.952 140.908 15.952H140.788L140.74 15.928C140.724 15.896 140.7 15.888 140.668 15.904C140.652 15.904 140.604 15.896 140.524 15.88C140.428 15.848 140.34 15.832 140.26 15.832C140.196 15.832 140.14 15.832 140.092 15.832C140.044 15.832 139.98 15.824 139.9 15.808C139.868 15.792 139.82 15.784 139.756 15.784C139.692 15.768 139.62 15.744 139.54 15.712C139.492 15.696 139.452 15.696 139.42 15.712C139.404 15.712 139.372 15.704 139.324 15.688L139.252 15.664H139.204L139.156 15.64C139.188 15.416 139.22 15.2 139.252 14.992C139.3 14.768 139.38 14.552 139.492 14.344C139.524 14.28 139.548 14.224 139.564 14.176C139.58 14.128 139.588 14.072 139.588 14.008L139.66 13.6C139.708 13.52 139.756 13.432 139.804 13.336C139.852 13.24 139.9 13.16 139.948 13.096C139.98 13 139.98 12.904 139.948 12.808C139.932 12.712 139.956 12.624 140.02 12.544C140.068 12.464 140.092 12.384 140.092 12.304C140.108 12.224 140.148 12.16 140.212 12.112C140.276 11.984 140.332 11.864 140.38 11.752C140.444 11.624 140.492 11.496 140.524 11.368C140.54 11.352 140.548 11.32 140.548 11.272C140.596 10.936 140.732 10.648 140.956 10.408C140.94 10.344 140.932 10.288 140.932 10.24C140.932 10.176 140.932 10.128 140.932 10.096C140.964 10 141.02 9.912 141.1 9.832C141.18 9.752 141.252 9.68 141.316 9.616C141.396 9.52 141.468 9.424 141.532 9.328C141.596 9.232 141.636 9.128 141.652 9.016C141.716 8.776 141.804 8.552 141.916 8.344C142.028 8.136 142.164 7.936 142.324 7.744C142.42 7.616 142.5 7.48 142.564 7.336C142.644 7.176 142.724 7.016 142.804 6.856C142.868 6.728 142.924 6.592 142.972 6.448C143.036 6.304 143.076 6.16 143.092 6.016C143.22 5.856 143.308 5.736 143.356 5.656C143.404 5.56 143.444 5.456 143.476 5.344C143.524 5.216 143.58 5.024 143.644 4.768C143.676 4.736 143.716 4.712 143.764 4.696C143.828 4.664 143.868 4.616 143.884 4.552C143.884 4.488 143.924 4.44 144.004 4.408C144.132 4.328 144.22 4.216 144.268 4.072C144.316 3.944 144.38 3.832 144.46 3.736C144.556 3.624 144.644 3.52 144.724 3.424C144.804 3.344 144.852 3.264 144.868 3.184C144.948 2.96 145.052 2.76 145.18 2.584C145.324 2.392 145.444 2.2 145.54 2.008C145.62 1.944 145.692 1.912 145.756 1.912C145.82 1.896 145.884 1.888 145.948 1.888H146.02C146.18 1.952 146.348 2 146.524 2.032C146.636 2.048 146.74 2.056 146.836 2.056C146.932 2.056 147.012 2.056 147.076 2.056C147.124 2.056 147.172 2.056 147.22 2.056C147.268 2.056 147.316 2.064 147.364 2.08C147.572 2.144 147.788 2.176 148.012 2.176C148.236 2.176 148.452 2.184 148.66 2.2C148.932 2.392 149.164 2.576 149.356 2.752C149.548 2.928 149.7 3.232 149.812 3.664C149.828 3.68 149.852 3.696 149.884 3.712C149.916 3.728 149.94 3.752 149.956 3.784C149.988 3.8 150.02 3.816 150.052 3.832C150.084 3.848 150.116 3.872 150.148 3.904C150.18 3.968 150.204 4.04 150.22 4.12C150.252 4.184 150.284 4.256 150.316 4.336C150.348 4.4 150.388 4.472 150.436 4.552C150.484 4.616 150.54 4.688 150.604 4.768C150.636 4.928 150.684 5.088 150.748 5.248C150.828 5.408 150.86 5.592 150.844 5.8L151.012 6.04C151.012 6.12 151.012 6.208 151.012 6.304C151.028 6.384 151.036 6.472 151.036 6.568C151.116 6.616 151.156 6.68 151.156 6.76C151.172 6.84 151.188 6.928 151.204 7.024C151.252 7.088 151.3 7.16 151.348 7.24C151.396 7.304 151.444 7.368 151.492 7.432C151.524 7.544 151.556 7.656 151.588 7.768C151.62 7.864 151.644 7.96 151.66 8.056C151.644 8.12 151.628 8.184 151.612 8.248C151.612 8.312 151.604 8.376 151.588 8.44C151.62 8.6 151.676 8.744 151.756 8.872C151.852 8.984 151.94 9.104 152.02 9.232C152.1 9.536 152.172 9.848 152.236 10.168C152.316 10.472 152.372 10.784 152.404 11.104C152.58 11.328 152.684 11.568 152.716 11.824C152.764 12.08 152.82 12.344 152.884 12.616C152.916 12.728 152.932 12.84 152.932 12.952C152.932 13.048 152.94 13.152 152.956 13.264C152.988 13.36 153.06 13.488 153.172 13.648C153.284 13.792 153.372 13.904 153.436 13.984C153.436 14.144 153.444 14.312 153.46 14.488C153.476 14.648 153.516 14.808 153.58 14.968ZM147.796 9.904C147.78 9.792 147.74 9.696 147.676 9.616C147.612 9.52 147.596 9.416 147.628 9.304C147.564 9.192 147.532 9.056 147.532 8.896C147.532 8.736 147.548 8.648 147.58 8.632C147.564 8.6 147.556 8.552 147.556 8.488C147.492 8.408 147.428 8.336 147.364 8.272C147.316 8.208 147.268 8.136 147.22 8.056C147.22 8.072 147.188 8.048 147.124 7.984C147.044 7.968 146.98 7.92 146.932 7.84C146.916 7.792 146.892 7.744 146.86 7.696C146.844 7.648 146.812 7.616 146.764 7.6C146.7 7.6 146.652 7.624 146.62 7.672C146.588 7.704 146.54 7.736 146.476 7.768C146.412 7.784 146.348 7.8 146.284 7.816C146.236 7.832 146.18 7.848 146.116 7.864C146.004 7.96 145.932 8.088 145.9 8.248V8.536C145.836 8.648 145.764 8.744 145.684 8.824C145.62 8.904 145.572 8.992 145.54 9.088C145.492 9.312 145.42 9.512 145.324 9.688C145.324 9.8 145.3 9.904 145.252 10C145.204 10.08 145.164 10.168 145.132 10.264C145.116 10.28 145.108 10.328 145.108 10.408C145.108 10.504 145.164 10.552 145.276 10.552C145.34 10.552 145.404 10.552 145.468 10.552C145.532 10.536 145.596 10.528 145.66 10.528C145.692 10.544 145.732 10.568 145.78 10.6C145.828 10.616 145.868 10.632 145.9 10.648C146.14 10.616 146.364 10.568 146.572 10.504C146.796 10.44 147.012 10.368 147.22 10.288C147.316 10.208 147.42 10.152 147.532 10.12C147.644 10.088 147.732 10.016 147.796 9.904ZM165.05 2.056C165.018 2.248 164.994 2.44 164.978 2.632C164.978 2.808 164.978 2.992 164.978 3.184C164.978 3.408 164.97 3.624 164.954 3.832C164.954 4.04 164.938 4.256 164.906 4.48C164.89 4.512 164.882 4.56 164.882 4.624C164.898 4.784 164.922 4.944 164.954 5.104C165.002 5.248 165.01 5.384 164.978 5.512C164.946 5.592 164.938 5.672 164.954 5.752C164.97 5.832 164.962 5.912 164.93 5.992C164.914 6.024 164.898 6.056 164.882 6.088C164.866 6.12 164.85 6.152 164.834 6.184C164.754 6.2 164.674 6.216 164.594 6.232C164.53 6.232 164.458 6.232 164.378 6.232C164.346 6.248 164.298 6.28 164.234 6.328C164.186 6.36 164.138 6.392 164.09 6.424C164.026 6.392 163.97 6.36 163.922 6.328C163.89 6.296 163.85 6.272 163.802 6.256C163.77 6.256 163.73 6.256 163.682 6.256C163.634 6.24 163.594 6.24 163.562 6.256C163.45 6.304 163.298 6.32 163.106 6.304C162.93 6.272 162.778 6.256 162.65 6.256C162.49 6.256 162.338 6.28 162.194 6.328C162.066 6.36 161.93 6.408 161.786 6.472C161.674 6.536 161.554 6.576 161.426 6.592C161.314 6.592 161.194 6.616 161.066 6.664C160.986 6.776 160.954 6.88 160.97 6.976C161.002 7.104 161.026 7.248 161.042 7.408C161.074 7.552 161.058 7.704 160.994 7.864C160.994 7.928 161.002 7.968 161.018 7.984C161.082 8.144 161.114 8.304 161.114 8.464C161.114 8.624 161.098 8.792 161.066 8.968C161.05 9.128 161.042 9.288 161.042 9.448C161.042 9.592 161.026 9.752 160.994 9.928C160.962 10.104 160.97 10.264 161.018 10.408C161.034 10.504 161.042 10.6 161.042 10.696C161.042 10.792 161.042 10.88 161.042 10.96C161.026 11.072 161.018 11.104 161.018 11.056C161.018 10.992 161.018 10.96 161.018 10.96V11.032C161.018 11.048 161.01 11.064 160.994 11.08C160.994 11.08 160.994 11.088 160.994 11.104C161.01 11.376 161.01 11.584 160.994 11.728C160.994 11.856 160.986 11.976 160.97 12.088C160.954 12.184 160.922 12.336 160.874 12.544V12.664C160.938 12.92 160.97 13.184 160.97 13.456C160.97 13.712 160.962 13.968 160.946 14.224C160.946 14.4 160.946 14.576 160.946 14.752C160.962 14.928 161.002 15.112 161.066 15.304C161.05 15.4 161.026 15.512 160.994 15.64C160.962 15.752 160.922 15.864 160.874 15.976C160.858 16.04 160.826 16.096 160.778 16.144C160.746 16.192 160.69 16.248 160.61 16.312C160.226 16.28 159.866 16.312 159.53 16.408C159.354 16.472 159.17 16.448 158.978 16.336C158.946 16.304 158.93 16.288 158.93 16.288C158.69 16.144 158.458 16.12 158.234 16.216C158.138 16.264 158.042 16.28 157.946 16.264C157.85 16.248 157.762 16.24 157.682 16.24C157.57 16.24 157.474 16.28 157.394 16.36C157.314 16.44 157.21 16.448 157.082 16.384C157.066 16.256 157.074 16.136 157.106 16.024C157.154 15.912 157.186 15.784 157.202 15.64C157.186 15.528 157.154 15.408 157.106 15.28C157.074 15.152 157.042 15.024 157.01 14.896C157.042 14.816 157.066 14.744 157.082 14.68C157.098 14.6 157.106 14.528 157.106 14.464C157.122 14.384 157.122 14.304 157.106 14.224C157.106 14.128 157.106 14.04 157.106 13.96C157.122 13.704 157.122 13.464 157.106 13.24C157.106 13 157.09 12.76 157.058 12.52C157.026 12.328 157.002 12.144 156.986 11.968C156.986 11.776 156.978 11.576 156.962 11.368C157.01 11.304 157.05 11.24 157.082 11.176C157.13 11.112 157.186 11.048 157.25 10.984C157.266 10.856 157.274 10.792 157.274 10.792C157.274 10.776 157.274 10.696 157.274 10.552C157.258 10.328 157.258 10.096 157.274 9.856C157.29 9.6 157.322 9.36 157.37 9.136C157.354 8.96 157.33 8.792 157.298 8.632C157.266 8.456 157.21 8.288 157.13 8.128C157.162 8.048 157.194 7.968 157.226 7.888C157.274 7.808 157.306 7.736 157.322 7.672C157.306 7.544 157.306 7.432 157.322 7.336C157.354 7.24 157.346 7.136 157.298 7.024C157.282 6.976 157.242 6.936 157.178 6.904C157.066 6.904 156.954 6.896 156.842 6.88C156.73 6.864 156.618 6.856 156.506 6.856C156.394 6.856 156.282 6.84 156.17 6.808C156.074 6.776 155.97 6.776 155.858 6.808C155.762 6.856 155.666 6.864 155.57 6.832C155.49 6.784 155.402 6.768 155.306 6.784H154.682L154.082 6.688C154.05 6.688 154.01 6.664 153.962 6.616C153.914 6.568 153.89 6.52 153.89 6.472V6.304C153.922 6.208 153.946 6.112 153.962 6.016C153.994 5.904 153.994 5.792 153.962 5.68C153.946 5.664 153.938 5.64 153.938 5.608C153.954 5.56 153.962 5.528 153.962 5.512C154.026 5.224 154.058 4.888 154.058 4.504C154.058 4.12 154.042 3.784 154.01 3.496C154.01 3.4 154.01 3.304 154.01 3.208C154.01 3.112 154.026 3.024 154.058 2.944C154.138 2.864 154.218 2.824 154.298 2.824C154.378 2.808 154.458 2.792 154.538 2.776C154.618 2.744 154.69 2.712 154.754 2.68C154.818 2.632 154.89 2.6 154.97 2.584C155.338 2.456 155.682 2.456 156.002 2.584C156.002 2.584 156.058 2.6 156.17 2.632C156.314 2.568 156.466 2.544 156.626 2.56C156.786 2.56 156.954 2.52 157.13 2.44C157.162 2.44 157.21 2.448 157.274 2.464C157.354 2.464 157.434 2.464 157.514 2.464C157.658 2.4 157.802 2.336 157.946 2.272C158.106 2.208 158.258 2.112 158.402 1.984C158.658 1.952 158.906 1.944 159.146 1.96C159.402 1.976 159.642 1.944 159.866 1.864C159.978 1.88 160.074 1.912 160.154 1.96C160.25 1.992 160.33 2.024 160.394 2.056C160.506 2.056 160.594 2.024 160.658 1.96C160.722 1.88 160.818 1.832 160.946 1.816C161.074 1.784 161.258 1.792 161.498 1.84C161.594 1.856 161.69 1.904 161.786 1.984C161.898 2.048 162.01 2.072 162.122 2.056C162.202 2.008 162.266 1.96 162.314 1.912C162.378 1.864 162.45 1.816 162.53 1.768C162.626 1.768 162.73 1.792 162.842 1.84C162.954 1.872 163.058 1.88 163.154 1.864C163.266 1.848 163.37 1.832 163.466 1.816C163.578 1.784 163.714 1.768 163.874 1.768C163.938 1.784 164.002 1.808 164.066 1.84C164.13 1.856 164.194 1.88 164.258 1.912C164.354 1.88 164.45 1.856 164.546 1.84C164.658 1.824 164.77 1.808 164.882 1.792C164.914 1.84 164.946 1.888 164.978 1.936C165.01 1.984 165.034 2.024 165.05 2.056ZM176.241 3.928C176.145 4.136 176.017 4.312 175.857 4.456C175.697 4.584 175.561 4.736 175.449 4.912C175.321 4.944 175.193 5 175.065 5.08C174.953 5.16 174.849 5.24 174.753 5.32C174.593 5.416 174.449 5.416 174.321 5.32C174.257 5.288 174.201 5.256 174.153 5.224C174.121 5.176 174.073 5.136 174.009 5.104C173.881 4.992 173.713 4.952 173.505 4.984C173.489 5 173.465 4.992 173.433 4.96V4.72C173.417 4.704 173.393 4.68 173.361 4.648C173.345 4.616 173.321 4.6 173.289 4.6C172.969 4.472 172.665 4.464 172.377 4.576C172.281 4.592 172.185 4.616 172.089 4.648C171.993 4.68 171.897 4.712 171.801 4.744C171.737 4.84 171.673 4.936 171.609 5.032C171.561 5.128 171.505 5.216 171.441 5.296C171.457 5.424 171.465 5.552 171.465 5.68C171.481 5.808 171.497 5.936 171.513 6.064C171.593 6.16 171.665 6.264 171.729 6.376C171.809 6.472 171.881 6.576 171.945 6.688C172.089 6.8 172.241 6.912 172.401 7.024C172.561 7.12 172.713 7.232 172.857 7.36C172.953 7.424 173.049 7.48 173.145 7.528C173.257 7.56 173.353 7.616 173.433 7.696C173.513 7.776 173.585 7.848 173.649 7.912C173.729 7.96 173.801 8.024 173.865 8.104C173.913 8.12 173.961 8.144 174.009 8.176C174.057 8.208 174.105 8.24 174.153 8.272C174.425 8.448 174.633 8.688 174.777 8.992C174.857 9.12 174.937 9.256 175.017 9.4C175.113 9.544 175.201 9.68 175.281 9.808C175.393 9.904 175.465 10.016 175.497 10.144C175.545 10.272 175.593 10.4 175.641 10.528C175.657 10.544 175.665 10.576 175.665 10.624C175.697 10.816 175.745 11 175.809 11.176C175.889 11.352 175.969 11.528 176.049 11.704C176.097 11.912 176.121 12.12 176.121 12.328C176.137 12.52 176.129 12.712 176.097 12.904C176.097 13.064 176.073 13.224 176.025 13.384C175.993 13.528 175.945 13.664 175.881 13.792C175.865 13.808 175.857 13.824 175.857 13.84C175.857 13.856 175.841 13.88 175.809 13.912C175.665 14.056 175.545 14.216 175.449 14.392C175.369 14.568 175.273 14.744 175.161 14.92C175.145 14.936 175.137 14.96 175.137 14.992C175.137 15.008 175.121 15.024 175.089 15.04C174.929 15.152 174.793 15.272 174.681 15.4C174.585 15.528 174.473 15.656 174.345 15.784C174.281 15.848 174.201 15.904 174.105 15.952C174.009 16 173.921 16.056 173.841 16.12L173.337 16.36C173.177 16.376 173.009 16.4 172.833 16.432C172.673 16.464 172.505 16.52 172.329 16.6C172.217 16.664 172.089 16.712 171.945 16.744C171.817 16.776 171.689 16.808 171.561 16.84C171.497 16.856 171.433 16.872 171.369 16.888C171.305 16.904 171.241 16.92 171.177 16.936C170.969 16.776 170.737 16.696 170.481 16.696C170.305 16.696 170.153 16.664 170.025 16.6C169.833 16.52 169.649 16.432 169.473 16.336C169.297 16.256 169.137 16.144 168.993 16C168.897 15.92 168.801 15.848 168.705 15.784C168.609 15.72 168.521 15.656 168.441 15.592C168.377 15.528 168.297 15.488 168.201 15.472C168.121 15.44 168.041 15.408 167.961 15.376C167.849 15.296 167.785 15.208 167.769 15.112C167.785 14.984 167.833 14.864 167.913 14.752C168.009 14.64 168.089 14.52 168.153 14.392C168.153 14.296 168.177 14.176 168.225 14.032C168.369 13.84 168.521 13.648 168.681 13.456C168.841 13.248 169.001 13.04 169.161 12.832C169.225 12.784 169.297 12.736 169.377 12.688C169.457 12.624 169.545 12.56 169.641 12.496C169.961 12.576 170.265 12.664 170.553 12.76C170.841 12.856 171.137 12.944 171.441 13.024C171.505 13.008 171.553 12.992 171.585 12.976C171.617 12.944 171.641 12.92 171.657 12.904C171.705 12.888 171.745 12.872 171.777 12.856C171.809 12.84 171.833 12.824 171.849 12.808H172.281C172.297 12.776 172.313 12.752 172.329 12.736C172.361 12.704 172.385 12.672 172.401 12.64C172.465 12.48 172.529 12.328 172.593 12.184C172.657 12.04 172.697 11.88 172.713 11.704C172.681 11.576 172.641 11.44 172.593 11.296C172.561 11.152 172.489 11.008 172.377 10.864C172.313 10.816 172.241 10.76 172.161 10.696C172.081 10.632 172.001 10.568 171.921 10.504C171.649 10.472 171.369 10.4 171.081 10.288C170.809 10.176 170.537 10.12 170.265 10.12C170.153 10.088 170.065 10.04 170.001 9.976C169.937 9.896 169.865 9.824 169.785 9.76C169.673 9.728 169.553 9.704 169.425 9.688C169.297 9.672 169.193 9.608 169.113 9.496C168.857 9.352 168.641 9.248 168.465 9.184C168.385 9.088 168.305 8.992 168.225 8.896C168.161 8.8 168.089 8.712 168.009 8.632C167.945 8.552 167.881 8.456 167.817 8.344C167.769 8.216 167.705 8.096 167.625 7.984C167.561 7.904 167.505 7.816 167.457 7.72C167.409 7.608 167.361 7.496 167.313 7.384C167.265 7.16 167.217 6.92 167.169 6.664C167.201 6.488 167.225 6.312 167.241 6.136C167.273 5.944 167.297 5.752 167.313 5.56L167.217 5.32C167.281 5.288 167.329 5.24 167.361 5.176C167.393 5.112 167.425 5.048 167.457 4.984C167.489 4.888 167.529 4.808 167.577 4.744C167.625 4.68 167.641 4.592 167.625 4.48C167.625 4.176 167.705 3.896 167.865 3.64C167.897 3.576 167.921 3.52 167.937 3.472C167.969 3.424 167.993 3.376 168.009 3.328C168.089 3.28 168.153 3.232 168.201 3.184C168.265 3.12 168.305 3.08 168.321 3.064C168.401 2.984 168.433 2.912 168.417 2.848C168.401 2.768 168.401 2.696 168.417 2.632C168.481 2.536 168.553 2.44 168.633 2.344C168.713 2.248 168.801 2.144 168.897 2.032C169.009 1.952 169.129 1.888 169.257 1.84C169.385 1.776 169.505 1.688 169.617 1.576C169.649 1.528 169.689 1.496 169.737 1.48C169.785 1.448 169.841 1.424 169.905 1.408C169.985 1.36 170.073 1.32 170.169 1.288C170.265 1.256 170.361 1.216 170.457 1.168C170.617 1.136 170.777 1.112 170.937 1.096C171.113 1.08 171.281 1.064 171.441 1.048C171.457 1.048 171.473 1.048 171.489 1.048C171.521 1.032 171.553 1.032 171.585 1.048C171.761 1.112 171.937 1.112 172.113 1.048C172.305 0.983999 172.497 0.959999 172.689 0.975999C172.865 0.975999 173.033 0.999999 173.193 1.048C173.369 1.096 173.537 1.136 173.697 1.168C173.873 1.296 174.049 1.416 174.225 1.528C174.401 1.624 174.593 1.704 174.801 1.768C174.865 1.832 174.921 1.904 174.969 1.984C175.033 2.048 175.097 2.12 175.161 2.2C175.225 2.264 175.289 2.32 175.353 2.368C175.417 2.416 175.473 2.472 175.521 2.536C175.649 2.776 175.769 3.016 175.881 3.256C176.009 3.48 176.129 3.704 176.241 3.928Z" fill="#404040"/>
</svg>
