<svg width="60" height="17" viewBox="0 0 60 17" fill="none" xmlns="http://www.w3.org/2000/svg">
<path d="M9.96 3.928C9.864 4.136 9.736 4.312 9.576 4.456C9.416 4.584 9.28 4.736 9.168 4.912C9.04 4.944 8.912 5 8.784 5.08C8.672 5.16 8.568 5.24 8.472 5.32C8.312 5.416 8.168 5.416 8.04 5.32C7.976 5.288 7.92 5.256 7.872 5.224C7.84 5.176 7.792 5.136 7.728 5.104C7.6 4.992 7.432 4.952 7.224 4.984C7.208 5 7.184 4.992 7.152 4.96V4.72C7.136 4.704 7.112 4.68 7.08 4.648C7.064 4.616 7.04 4.6 7.008 4.6C6.688 4.472 6.384 4.464 6.096 4.576C6 4.592 5.904 4.616 5.808 4.648C5.712 4.68 5.616 4.712 5.52 4.744C5.456 4.84 5.392 4.936 5.328 5.032C5.28 5.128 5.224 5.216 5.16 5.296C5.176 5.424 5.184 5.552 5.184 5.68C5.2 5.808 5.216 5.936 5.232 6.064C5.312 6.16 5.384 6.264 5.448 6.376C5.528 6.472 5.6 6.576 5.664 6.688C5.808 6.8 5.96 6.912 6.12 7.024C6.28 7.12 6.432 7.232 6.576 7.36C6.672 7.424 6.768 7.48 6.864 7.528C6.976 7.56 7.072 7.616 7.152 7.696C7.232 7.776 7.304 7.848 7.368 7.912C7.448 7.96 7.52 8.024 7.584 8.104C7.632 8.12 7.68 8.144 7.728 8.176C7.776 8.208 7.824 8.24 7.872 8.272C8.144 8.448 8.352 8.688 8.496 8.992C8.576 9.12 8.656 9.256 8.736 9.4C8.832 9.544 8.92 9.68 9 9.808C9.112 9.904 9.184 10.016 9.216 10.144C9.264 10.272 9.312 10.4 9.36 10.528C9.376 10.544 9.384 10.576 9.384 10.624C9.416 10.816 9.464 11 9.528 11.176C9.608 11.352 9.688 11.528 9.768 11.704C9.816 11.912 9.84 12.12 9.84 12.328C9.856 12.52 9.848 12.712 9.816 12.904C9.816 13.064 9.792 13.224 9.744 13.384C9.712 13.528 9.664 13.664 9.6 13.792C9.584 13.808 9.576 13.824 9.576 13.84C9.576 13.856 9.56 13.88 9.528 13.912C9.384 14.056 9.264 14.216 9.168 14.392C9.088 14.568 8.992 14.744 8.88 14.92C8.864 14.936 8.856 14.96 8.856 14.992C8.856 15.008 8.84 15.024 8.808 15.04C8.648 15.152 8.512 15.272 8.4 15.4C8.304 15.528 8.192 15.656 8.064 15.784C8 15.848 7.92 15.904 7.824 15.952C7.728 16 7.64 16.056 7.56 16.12L7.056 16.36C6.896 16.376 6.728 16.4 6.552 16.432C6.392 16.464 6.224 16.52 6.048 16.6C5.936 16.664 5.808 16.712 5.664 16.744C5.536 16.776 5.408 16.808 5.28 16.84C5.216 16.856 5.152 16.872 5.088 16.888C5.024 16.904 4.96 16.92 4.896 16.936C4.688 16.776 4.456 16.696 4.2 16.696C4.024 16.696 3.872 16.664 3.744 16.6C3.552 16.52 3.368 16.432 3.192 16.336C3.016 16.256 2.856 16.144 2.712 16C2.616 15.92 2.52 15.848 2.424 15.784C2.328 15.72 2.24 15.656 2.16 15.592C2.096 15.528 2.016 15.488 1.92 15.472C1.84 15.44 1.76 15.408 1.68 15.376C1.568 15.296 1.504 15.208 1.488 15.112C1.504 14.984 1.552 14.864 1.632 14.752C1.728 14.64 1.808 14.52 1.872 14.392C1.872 14.296 1.896 14.176 1.944 14.032C2.088 13.84 2.24 13.648 2.4 13.456C2.56 13.248 2.72 13.04 2.88 12.832C2.944 12.784 3.016 12.736 3.096 12.688C3.176 12.624 3.264 12.56 3.36 12.496C3.68 12.576 3.984 12.664 4.272 12.76C4.56 12.856 4.856 12.944 5.16 13.024C5.224 13.008 5.272 12.992 5.304 12.976C5.336 12.944 5.36 12.92 5.376 12.904C5.424 12.888 5.464 12.872 5.496 12.856C5.528 12.84 5.552 12.824 5.568 12.808H6C6.016 12.776 6.032 12.752 6.048 12.736C6.08 12.704 6.104 12.672 6.12 12.64C6.184 12.48 6.248 12.328 6.312 12.184C6.376 12.04 6.416 11.88 6.432 11.704C6.4 11.576 6.36 11.44 6.312 11.296C6.28 11.152 6.208 11.008 6.096 10.864C6.032 10.816 5.96 10.76 5.88 10.696C5.8 10.632 5.72 10.568 5.64 10.504C5.368 10.472 5.088 10.4 4.8 10.288C4.528 10.176 4.256 10.12 3.984 10.12C3.872 10.088 3.784 10.04 3.72 9.976C3.656 9.896 3.584 9.824 3.504 9.76C3.392 9.728 3.272 9.704 3.144 9.688C3.016 9.672 2.912 9.608 2.832 9.496C2.576 9.352 2.36 9.248 2.184 9.184C2.104 9.088 2.024 8.992 1.944 8.896C1.88 8.8 1.808 8.712 1.728 8.632C1.664 8.552 1.6 8.456 1.536 8.344C1.488 8.216 1.424 8.096 1.344 7.984C1.28 7.904 1.224 7.816 1.176 7.72C1.128 7.608 1.08 7.496 1.032 7.384C0.984 7.16 0.936 6.92 0.888 6.664C0.92 6.488 0.944 6.312 0.96 6.136C0.992 5.944 1.016 5.752 1.032 5.56L0.936 5.32C1 5.288 1.048 5.24 1.08 5.176C1.112 5.112 1.144 5.048 1.176 4.984C1.208 4.888 1.248 4.808 1.296 4.744C1.344 4.68 1.36 4.592 1.344 4.48C1.344 4.176 1.424 3.896 1.584 3.64C1.616 3.576 1.64 3.52 1.656 3.472C1.688 3.424 1.712 3.376 1.728 3.328C1.808 3.28 1.872 3.232 1.92 3.184C1.984 3.12 2.024 3.08 2.04 3.064C2.12 2.984 2.152 2.912 2.136 2.848C2.12 2.768 2.12 2.696 2.136 2.632C2.2 2.536 2.272 2.44 2.352 2.344C2.432 2.248 2.52 2.144 2.616 2.032C2.728 1.952 2.848 1.888 2.976 1.84C3.104 1.776 3.224 1.688 3.336 1.576C3.368 1.528 3.408 1.496 3.456 1.48C3.504 1.448 3.56 1.424 3.624 1.408C3.704 1.36 3.792 1.32 3.888 1.288C3.984 1.256 4.08 1.216 4.176 1.168C4.336 1.136 4.496 1.112 4.656 1.096C4.832 1.08 5 1.064 5.16 1.048C5.176 1.048 5.192 1.048 5.208 1.048C5.24 1.032 5.272 1.032 5.304 1.048C5.48 1.112 5.656 1.112 5.832 1.048C6.024 0.983999 6.216 0.959999 6.408 0.975999C6.584 0.975999 6.752 0.999999 6.912 1.048C7.088 1.096 7.256 1.136 7.416 1.168C7.592 1.296 7.768 1.416 7.944 1.528C8.12 1.624 8.312 1.704 8.52 1.768C8.584 1.832 8.64 1.904 8.688 1.984C8.752 2.048 8.816 2.12 8.88 2.2C8.944 2.264 9.008 2.32 9.072 2.368C9.136 2.416 9.192 2.472 9.24 2.536C9.368 2.776 9.488 3.016 9.6 3.256C9.728 3.48 9.848 3.704 9.96 3.928ZM23.2456 2.056C23.2136 2.248 23.1896 2.44 23.1736 2.632C23.1736 2.808 23.1736 2.992 23.1736 3.184C23.1736 3.408 23.1656 3.624 23.1496 3.832C23.1496 4.04 23.1336 4.256 23.1016 4.48C23.0856 4.512 23.0776 4.56 23.0776 4.624C23.0936 4.784 23.1176 4.944 23.1496 5.104C23.1976 5.248 23.2056 5.384 23.1736 5.512C23.1416 5.592 23.1336 5.672 23.1496 5.752C23.1656 5.832 23.1576 5.912 23.1256 5.992C23.1096 6.024 23.0936 6.056 23.0776 6.088C23.0616 6.12 23.0456 6.152 23.0296 6.184C22.9496 6.2 22.8696 6.216 22.7896 6.232C22.7256 6.232 22.6536 6.232 22.5736 6.232C22.5416 6.248 22.4936 6.28 22.4296 6.328C22.3816 6.36 22.3336 6.392 22.2856 6.424C22.2216 6.392 22.1656 6.36 22.1176 6.328C22.0856 6.296 22.0456 6.272 21.9976 6.256C21.9656 6.256 21.9256 6.256 21.8776 6.256C21.8296 6.24 21.7896 6.24 21.7576 6.256C21.6456 6.304 21.4936 6.32 21.3016 6.304C21.1256 6.272 20.9736 6.256 20.8456 6.256C20.6856 6.256 20.5336 6.28 20.3896 6.328C20.2616 6.36 20.1256 6.408 19.9816 6.472C19.8696 6.536 19.7496 6.576 19.6216 6.592C19.5096 6.592 19.3896 6.616 19.2616 6.664C19.1816 6.776 19.1496 6.88 19.1656 6.976C19.1976 7.104 19.2216 7.248 19.2376 7.408C19.2696 7.552 19.2536 7.704 19.1896 7.864C19.1896 7.928 19.1976 7.968 19.2136 7.984C19.2776 8.144 19.3096 8.304 19.3096 8.464C19.3096 8.624 19.2936 8.792 19.2616 8.968C19.2456 9.128 19.2376 9.288 19.2376 9.448C19.2376 9.592 19.2216 9.752 19.1896 9.928C19.1576 10.104 19.1656 10.264 19.2136 10.408C19.2296 10.504 19.2376 10.6 19.2376 10.696C19.2376 10.792 19.2376 10.88 19.2376 10.96C19.2216 11.072 19.2136 11.104 19.2136 11.056C19.2136 10.992 19.2136 10.96 19.2136 10.96V11.032C19.2136 11.048 19.2056 11.064 19.1896 11.08C19.1896 11.08 19.1896 11.088 19.1896 11.104C19.2056 11.376 19.2056 11.584 19.1896 11.728C19.1896 11.856 19.1816 11.976 19.1656 12.088C19.1496 12.184 19.1176 12.336 19.0696 12.544V12.664C19.1336 12.92 19.1656 13.184 19.1656 13.456C19.1656 13.712 19.1576 13.968 19.1416 14.224C19.1416 14.4 19.1416 14.576 19.1416 14.752C19.1576 14.928 19.1976 15.112 19.2616 15.304C19.2456 15.4 19.2216 15.512 19.1896 15.64C19.1576 15.752 19.1176 15.864 19.0696 15.976C19.0536 16.04 19.0216 16.096 18.9736 16.144C18.9416 16.192 18.8856 16.248 18.8056 16.312C18.4216 16.28 18.0616 16.312 17.7256 16.408C17.5496 16.472 17.3656 16.448 17.1736 16.336C17.1416 16.304 17.1256 16.288 17.1256 16.288C16.8856 16.144 16.6536 16.12 16.4296 16.216C16.3336 16.264 16.2376 16.28 16.1416 16.264C16.0456 16.248 15.9576 16.24 15.8776 16.24C15.7656 16.24 15.6696 16.28 15.5896 16.36C15.5096 16.44 15.4056 16.448 15.2776 16.384C15.2616 16.256 15.2696 16.136 15.3016 16.024C15.3496 15.912 15.3816 15.784 15.3976 15.64C15.3816 15.528 15.3496 15.408 15.3016 15.28C15.2696 15.152 15.2376 15.024 15.2056 14.896C15.2376 14.816 15.2616 14.744 15.2776 14.68C15.2936 14.6 15.3016 14.528 15.3016 14.464C15.3176 14.384 15.3176 14.304 15.3016 14.224C15.3016 14.128 15.3016 14.04 15.3016 13.96C15.3176 13.704 15.3176 13.464 15.3016 13.24C15.3016 13 15.2856 12.76 15.2536 12.52C15.2216 12.328 15.1976 12.144 15.1816 11.968C15.1816 11.776 15.1736 11.576 15.1576 11.368C15.2056 11.304 15.2456 11.24 15.2776 11.176C15.3256 11.112 15.3816 11.048 15.4456 10.984C15.4616 10.856 15.4696 10.792 15.4696 10.792C15.4696 10.776 15.4696 10.696 15.4696 10.552C15.4536 10.328 15.4536 10.096 15.4696 9.856C15.4856 9.6 15.5176 9.36 15.5656 9.136C15.5496 8.96 15.5256 8.792 15.4936 8.632C15.4616 8.456 15.4056 8.288 15.3256 8.128C15.3576 8.048 15.3896 7.968 15.4216 7.888C15.4696 7.808 15.5016 7.736 15.5176 7.672C15.5016 7.544 15.5016 7.432 15.5176 7.336C15.5496 7.24 15.5416 7.136 15.4936 7.024C15.4776 6.976 15.4376 6.936 15.3736 6.904C15.2616 6.904 15.1496 6.896 15.0376 6.88C14.9256 6.864 14.8136 6.856 14.7016 6.856C14.5896 6.856 14.4776 6.84 14.3656 6.808C14.2696 6.776 14.1656 6.776 14.0536 6.808C13.9576 6.856 13.8616 6.864 13.7656 6.832C13.6856 6.784 13.5976 6.768 13.5016 6.784H12.8776L12.2776 6.688C12.2456 6.688 12.2056 6.664 12.1576 6.616C12.1096 6.568 12.0856 6.52 12.0856 6.472V6.304C12.1176 6.208 12.1416 6.112 12.1576 6.016C12.1896 5.904 12.1896 5.792 12.1576 5.68C12.1416 5.664 12.1336 5.64 12.1336 5.608C12.1496 5.56 12.1576 5.528 12.1576 5.512C12.2216 5.224 12.2536 4.888 12.2536 4.504C12.2536 4.12 12.2376 3.784 12.2056 3.496C12.2056 3.4 12.2056 3.304 12.2056 3.208C12.2056 3.112 12.2216 3.024 12.2536 2.944C12.3336 2.864 12.4136 2.824 12.4936 2.824C12.5736 2.808 12.6536 2.792 12.7336 2.776C12.8136 2.744 12.8856 2.712 12.9496 2.68C13.0136 2.632 13.0856 2.6 13.1656 2.584C13.5336 2.456 13.8776 2.456 14.1976 2.584C14.1976 2.584 14.2536 2.6 14.3656 2.632C14.5096 2.568 14.6616 2.544 14.8216 2.56C14.9816 2.56 15.1496 2.52 15.3256 2.44C15.3576 2.44 15.4056 2.448 15.4696 2.464C15.5496 2.464 15.6296 2.464 15.7096 2.464C15.8536 2.4 15.9976 2.336 16.1416 2.272C16.3016 2.208 16.4536 2.112 16.5976 1.984C16.8536 1.952 17.1016 1.944 17.3416 1.96C17.5976 1.976 17.8376 1.944 18.0616 1.864C18.1736 1.88 18.2696 1.912 18.3496 1.96C18.4456 1.992 18.5256 2.024 18.5896 2.056C18.7016 2.056 18.7896 2.024 18.8536 1.96C18.9176 1.88 19.0136 1.832 19.1416 1.816C19.2696 1.784 19.4536 1.792 19.6936 1.84C19.7896 1.856 19.8856 1.904 19.9816 1.984C20.0936 2.048 20.2056 2.072 20.3176 2.056C20.3976 2.008 20.4616 1.96 20.5096 1.912C20.5736 1.864 20.6456 1.816 20.7256 1.768C20.8216 1.768 20.9256 1.792 21.0376 1.84C21.1496 1.872 21.2536 1.88 21.3496 1.864C21.4616 1.848 21.5656 1.832 21.6616 1.816C21.7736 1.784 21.9096 1.768 22.0696 1.768C22.1336 1.784 22.1976 1.808 22.2616 1.84C22.3256 1.856 22.3896 1.88 22.4536 1.912C22.5496 1.88 22.6456 1.856 22.7416 1.84C22.8536 1.824 22.9656 1.808 23.0776 1.792C23.1096 1.84 23.1416 1.888 23.1736 1.936C23.2056 1.984 23.2296 2.024 23.2456 2.056ZM37.0018 14.968C37.0338 15.048 37.0098 15.16 36.9298 15.304C36.8018 15.32 36.6658 15.32 36.5218 15.304C36.3938 15.272 36.2658 15.24 36.1378 15.208C35.9298 15.288 35.7858 15.344 35.7057 15.376C35.6418 15.408 35.5778 15.424 35.5138 15.424C35.4498 15.408 35.3218 15.4 35.1298 15.4C35.0818 15.416 35.0338 15.44 34.9858 15.472C34.9538 15.504 34.9058 15.536 34.8418 15.568C34.8418 15.568 34.8338 15.576 34.8177 15.592C34.8177 15.592 34.8098 15.592 34.7938 15.592C34.6338 15.592 34.4738 15.6 34.3138 15.616C34.1538 15.616 34.0018 15.616 33.8578 15.616C33.7618 15.52 33.6978 15.448 33.6658 15.4C33.6498 15.352 33.6178 15.24 33.5698 15.064C33.5378 14.968 33.4658 14.856 33.3538 14.728C33.1938 14.552 33.0258 14.312 32.8498 14.008C32.6898 13.704 32.5618 13.448 32.4658 13.24L32.3458 13.12C32.2818 13.12 32.2338 13.136 32.2018 13.168C31.9458 13.328 31.7058 13.352 31.4818 13.24C31.3378 13.208 31.1938 13.192 31.0498 13.192C30.9218 13.192 30.7858 13.192 30.6418 13.192C30.5298 13.176 30.4178 13.176 30.3058 13.192C30.1938 13.208 30.0738 13.216 29.9458 13.216C29.8498 13.216 29.7458 13.216 29.6338 13.216C29.5378 13.2 29.4418 13.192 29.3458 13.192C29.2178 13.208 29.0818 13.232 28.9378 13.264C28.8098 13.296 28.6818 13.344 28.5538 13.408C28.4418 13.472 28.3218 13.512 28.1938 13.528C28.0818 13.544 27.9618 13.56 27.8338 13.576C27.6578 13.576 27.4818 13.6 27.3058 13.648C27.1458 13.68 26.9778 13.72 26.8018 13.768C26.7538 13.784 26.6978 13.808 26.6338 13.84C26.5858 13.856 26.5458 13.896 26.5138 13.96C26.5138 14.04 26.5058 14.128 26.4898 14.224C26.4898 14.304 26.4898 14.392 26.4898 14.488C26.4418 14.632 26.4098 14.784 26.3938 14.944C26.3298 15.168 26.2258 15.36 26.0818 15.52C25.9538 15.68 25.8178 15.84 25.6738 16C25.6098 16 25.5458 16 25.4818 16C25.4338 15.984 25.3778 15.976 25.3138 15.976C25.2658 15.976 25.2098 15.984 25.1458 16C25.0978 16 25.0418 16.008 24.9778 16.024C24.8018 16.04 24.6178 16.016 24.4258 15.952C24.4098 15.936 24.3938 15.936 24.3778 15.952C24.3778 15.952 24.3618 15.952 24.3298 15.952H24.2098L24.1618 15.928C24.1458 15.896 24.1218 15.888 24.0898 15.904C24.0738 15.904 24.0258 15.896 23.9458 15.88C23.8498 15.848 23.7618 15.832 23.6818 15.832C23.6178 15.832 23.5618 15.832 23.5138 15.832C23.4658 15.832 23.4018 15.824 23.3218 15.808C23.2898 15.792 23.2418 15.784 23.1777 15.784C23.1138 15.768 23.0418 15.744 22.9618 15.712C22.9138 15.696 22.8738 15.696 22.8418 15.712C22.8258 15.712 22.7938 15.704 22.7458 15.688L22.6738 15.664H22.6258L22.5778 15.64C22.6098 15.416 22.6418 15.2 22.6738 14.992C22.7218 14.768 22.8018 14.552 22.9138 14.344C22.9458 14.28 22.9698 14.224 22.9858 14.176C23.0018 14.128 23.0098 14.072 23.0098 14.008L23.0818 13.6C23.1298 13.52 23.1778 13.432 23.2258 13.336C23.2738 13.24 23.3218 13.16 23.3698 13.096C23.4018 13 23.4018 12.904 23.3698 12.808C23.3538 12.712 23.3778 12.624 23.4418 12.544C23.4898 12.464 23.5138 12.384 23.5138 12.304C23.5298 12.224 23.5698 12.16 23.6338 12.112C23.6978 11.984 23.7538 11.864 23.8018 11.752C23.8658 11.624 23.9138 11.496 23.9458 11.368C23.9618 11.352 23.9698 11.32 23.9698 11.272C24.0178 10.936 24.1538 10.648 24.3778 10.408C24.3618 10.344 24.3538 10.288 24.3538 10.24C24.3538 10.176 24.3538 10.128 24.3538 10.096C24.3858 10 24.4418 9.912 24.5218 9.832C24.6018 9.752 24.6738 9.68 24.7378 9.616C24.8178 9.52 24.8898 9.424 24.9538 9.328C25.0178 9.232 25.0578 9.128 25.0738 9.016C25.1378 8.776 25.2258 8.552 25.3378 8.344C25.4498 8.136 25.5858 7.936 25.7458 7.744C25.8418 7.616 25.9218 7.48 25.9858 7.336C26.0658 7.176 26.1458 7.016 26.2258 6.856C26.2898 6.728 26.3458 6.592 26.3938 6.448C26.4578 6.304 26.4978 6.16 26.5138 6.016C26.6418 5.856 26.7298 5.736 26.7778 5.656C26.8258 5.56 26.8658 5.456 26.8978 5.344C26.9458 5.216 27.0018 5.024 27.0658 4.768C27.0978 4.736 27.1378 4.712 27.1858 4.696C27.2498 4.664 27.2898 4.616 27.3058 4.552C27.3058 4.488 27.3458 4.44 27.4258 4.408C27.5538 4.328 27.6418 4.216 27.6898 4.072C27.7378 3.944 27.8018 3.832 27.8818 3.736C27.9778 3.624 28.0658 3.52 28.1458 3.424C28.2258 3.344 28.2738 3.264 28.2898 3.184C28.3698 2.96 28.4738 2.76 28.6018 2.584C28.7458 2.392 28.8658 2.2 28.9618 2.008C29.0418 1.944 29.1138 1.912 29.1778 1.912C29.2418 1.896 29.3058 1.888 29.3698 1.888H29.4418C29.6018 1.952 29.7698 2 29.9458 2.032C30.0578 2.048 30.1618 2.056 30.2578 2.056C30.3538 2.056 30.4338 2.056 30.4978 2.056C30.5458 2.056 30.5938 2.056 30.6418 2.056C30.6898 2.056 30.7378 2.064 30.7858 2.08C30.9938 2.144 31.2098 2.176 31.4338 2.176C31.6578 2.176 31.8738 2.184 32.0818 2.2C32.3538 2.392 32.5858 2.576 32.7778 2.752C32.9698 2.928 33.1218 3.232 33.2338 3.664C33.2498 3.68 33.2738 3.696 33.3058 3.712C33.3378 3.728 33.3618 3.752 33.3778 3.784C33.4098 3.8 33.4418 3.816 33.4738 3.832C33.5058 3.848 33.5378 3.872 33.5698 3.904C33.6018 3.968 33.6258 4.04 33.6418 4.12C33.6738 4.184 33.7058 4.256 33.7378 4.336C33.7698 4.4 33.8098 4.472 33.8578 4.552C33.9058 4.616 33.9618 4.688 34.0258 4.768C34.0578 4.928 34.1058 5.088 34.1698 5.248C34.2498 5.408 34.2818 5.592 34.2657 5.8L34.4338 6.04C34.4338 6.12 34.4338 6.208 34.4338 6.304C34.4498 6.384 34.4578 6.472 34.4578 6.568C34.5378 6.616 34.5778 6.68 34.5778 6.76C34.5938 6.84 34.6098 6.928 34.6258 7.024C34.6738 7.088 34.7218 7.16 34.7698 7.24C34.8178 7.304 34.8658 7.368 34.9138 7.432C34.9458 7.544 34.9778 7.656 35.0098 7.768C35.0418 7.864 35.0658 7.96 35.0818 8.056C35.0658 8.12 35.0498 8.184 35.0338 8.248C35.0338 8.312 35.0258 8.376 35.0098 8.44C35.0418 8.6 35.0978 8.744 35.1778 8.872C35.2738 8.984 35.3618 9.104 35.4418 9.232C35.5218 9.536 35.5938 9.848 35.6578 10.168C35.7378 10.472 35.7938 10.784 35.8258 11.104C36.0018 11.328 36.1058 11.568 36.1378 11.824C36.1858 12.08 36.2418 12.344 36.3058 12.616C36.3378 12.728 36.3538 12.84 36.3538 12.952C36.3538 13.048 36.3618 13.152 36.3778 13.264C36.4098 13.36 36.4818 13.488 36.5938 13.648C36.7058 13.792 36.7938 13.904 36.8578 13.984C36.8578 14.144 36.8658 14.312 36.8818 14.488C36.8978 14.648 36.9378 14.808 37.0018 14.968ZM31.2178 9.904C31.2018 9.792 31.1618 9.696 31.0978 9.616C31.0338 9.52 31.0178 9.416 31.0498 9.304C30.9858 9.192 30.9538 9.056 30.9538 8.896C30.9538 8.736 30.9698 8.648 31.0018 8.632C30.9858 8.6 30.9778 8.552 30.9778 8.488C30.9138 8.408 30.8498 8.336 30.7858 8.272C30.7378 8.208 30.6898 8.136 30.6418 8.056C30.6418 8.072 30.6098 8.048 30.5458 7.984C30.4658 7.968 30.4018 7.92 30.3538 7.84C30.3378 7.792 30.3138 7.744 30.2818 7.696C30.2658 7.648 30.2338 7.616 30.1858 7.6C30.1218 7.6 30.0738 7.624 30.0418 7.672C30.0098 7.704 29.9618 7.736 29.8978 7.768C29.8338 7.784 29.7698 7.8 29.7058 7.816C29.6578 7.832 29.6018 7.848 29.5378 7.864C29.4258 7.96 29.3538 8.088 29.3218 8.248V8.536C29.2578 8.648 29.1858 8.744 29.1058 8.824C29.0418 8.904 28.9938 8.992 28.9618 9.088C28.9138 9.312 28.8418 9.512 28.7458 9.688C28.7458 9.8 28.7218 9.904 28.6738 10C28.6258 10.08 28.5858 10.168 28.5538 10.264C28.5378 10.28 28.5298 10.328 28.5298 10.408C28.5298 10.504 28.5858 10.552 28.6978 10.552C28.7618 10.552 28.8258 10.552 28.8898 10.552C28.9538 10.536 29.0178 10.528 29.0818 10.528C29.1138 10.544 29.1538 10.568 29.2018 10.6C29.2498 10.616 29.2898 10.632 29.3218 10.648C29.5618 10.616 29.7858 10.568 29.9938 10.504C30.2178 10.44 30.4338 10.368 30.6418 10.288C30.7378 10.208 30.8418 10.152 30.9538 10.12C31.0658 10.088 31.1538 10.016 31.2178 9.904ZM48.4721 2.056C48.4401 2.248 48.4161 2.44 48.4001 2.632C48.4001 2.808 48.4001 2.992 48.4001 3.184C48.4001 3.408 48.3921 3.624 48.3761 3.832C48.3761 4.04 48.3601 4.256 48.3281 4.48C48.3121 4.512 48.3041 4.56 48.3041 4.624C48.3201 4.784 48.3441 4.944 48.3761 5.104C48.4241 5.248 48.4321 5.384 48.4001 5.512C48.3681 5.592 48.3601 5.672 48.3761 5.752C48.3921 5.832 48.3841 5.912 48.3521 5.992C48.3361 6.024 48.3201 6.056 48.3041 6.088C48.2881 6.12 48.2721 6.152 48.2561 6.184C48.1761 6.2 48.0961 6.216 48.0161 6.232C47.9521 6.232 47.8801 6.232 47.8001 6.232C47.7681 6.248 47.7201 6.28 47.6561 6.328C47.6081 6.36 47.5601 6.392 47.5121 6.424C47.4481 6.392 47.3921 6.36 47.3441 6.328C47.3121 6.296 47.2721 6.272 47.2241 6.256C47.1921 6.256 47.1521 6.256 47.1041 6.256C47.0561 6.24 47.0161 6.24 46.9841 6.256C46.8721 6.304 46.7201 6.32 46.5281 6.304C46.3521 6.272 46.2001 6.256 46.0721 6.256C45.9121 6.256 45.7601 6.28 45.6161 6.328C45.4881 6.36 45.3521 6.408 45.2081 6.472C45.0961 6.536 44.9761 6.576 44.8481 6.592C44.7361 6.592 44.6161 6.616 44.4881 6.664C44.4081 6.776 44.3761 6.88 44.3921 6.976C44.4241 7.104 44.4481 7.248 44.4641 7.408C44.4961 7.552 44.4801 7.704 44.4161 7.864C44.4161 7.928 44.4241 7.968 44.4401 7.984C44.5041 8.144 44.5361 8.304 44.5361 8.464C44.5361 8.624 44.5201 8.792 44.4881 8.968C44.4721 9.128 44.4641 9.288 44.4641 9.448C44.4641 9.592 44.4481 9.752 44.4161 9.928C44.3841 10.104 44.3921 10.264 44.4401 10.408C44.4561 10.504 44.4641 10.6 44.4641 10.696C44.4641 10.792 44.4641 10.88 44.4641 10.96C44.4481 11.072 44.4401 11.104 44.4401 11.056C44.4401 10.992 44.4401 10.96 44.4401 10.96V11.032C44.4401 11.048 44.4321 11.064 44.4161 11.08C44.4161 11.08 44.4161 11.088 44.4161 11.104C44.4321 11.376 44.4321 11.584 44.4161 11.728C44.4161 11.856 44.4081 11.976 44.3921 12.088C44.3761 12.184 44.3441 12.336 44.2961 12.544V12.664C44.3601 12.92 44.3921 13.184 44.3921 13.456C44.3921 13.712 44.3841 13.968 44.3681 14.224C44.3681 14.4 44.3681 14.576 44.3681 14.752C44.3841 14.928 44.4241 15.112 44.4881 15.304C44.4721 15.4 44.4481 15.512 44.4161 15.64C44.3841 15.752 44.3441 15.864 44.2961 15.976C44.2801 16.04 44.2481 16.096 44.2001 16.144C44.1681 16.192 44.1121 16.248 44.0321 16.312C43.6481 16.28 43.2881 16.312 42.9521 16.408C42.7761 16.472 42.5921 16.448 42.4001 16.336C42.3681 16.304 42.3521 16.288 42.3521 16.288C42.1121 16.144 41.8801 16.12 41.6561 16.216C41.5601 16.264 41.4641 16.28 41.3681 16.264C41.2721 16.248 41.1841 16.24 41.1041 16.24C40.9921 16.24 40.8961 16.28 40.8161 16.36C40.7361 16.44 40.6321 16.448 40.5041 16.384C40.4881 16.256 40.4961 16.136 40.5281 16.024C40.5761 15.912 40.6081 15.784 40.6241 15.64C40.6081 15.528 40.5761 15.408 40.5281 15.28C40.4961 15.152 40.4641 15.024 40.4321 14.896C40.4641 14.816 40.4881 14.744 40.5041 14.68C40.5201 14.6 40.5281 14.528 40.5281 14.464C40.5441 14.384 40.5441 14.304 40.5281 14.224C40.5281 14.128 40.5281 14.04 40.5281 13.96C40.5441 13.704 40.5441 13.464 40.5281 13.24C40.5281 13 40.5121 12.76 40.4801 12.52C40.4481 12.328 40.4241 12.144 40.4081 11.968C40.4081 11.776 40.4001 11.576 40.3841 11.368C40.4321 11.304 40.4721 11.24 40.5041 11.176C40.5521 11.112 40.6081 11.048 40.6721 10.984C40.6881 10.856 40.6961 10.792 40.6961 10.792C40.6961 10.776 40.6961 10.696 40.6961 10.552C40.6801 10.328 40.6801 10.096 40.6961 9.856C40.7121 9.6 40.7441 9.36 40.7921 9.136C40.7761 8.96 40.7521 8.792 40.7201 8.632C40.6881 8.456 40.6321 8.288 40.5521 8.128C40.5841 8.048 40.6161 7.968 40.6481 7.888C40.6961 7.808 40.7281 7.736 40.7441 7.672C40.7281 7.544 40.7281 7.432 40.7441 7.336C40.7761 7.24 40.7681 7.136 40.7201 7.024C40.7041 6.976 40.6641 6.936 40.6001 6.904C40.4881 6.904 40.3761 6.896 40.2641 6.88C40.1521 6.864 40.0401 6.856 39.9281 6.856C39.8161 6.856 39.7041 6.84 39.5921 6.808C39.4961 6.776 39.3921 6.776 39.2801 6.808C39.1841 6.856 39.0881 6.864 38.9921 6.832C38.9121 6.784 38.8241 6.768 38.7281 6.784H38.1041L37.5041 6.688C37.4721 6.688 37.4321 6.664 37.3841 6.616C37.3361 6.568 37.3121 6.52 37.3121 6.472V6.304C37.3441 6.208 37.3681 6.112 37.3841 6.016C37.4161 5.904 37.4161 5.792 37.3841 5.68C37.3681 5.664 37.3601 5.64 37.3601 5.608C37.3761 5.56 37.3841 5.528 37.3841 5.512C37.4481 5.224 37.4801 4.888 37.4801 4.504C37.4801 4.12 37.4641 3.784 37.4321 3.496C37.4321 3.4 37.4321 3.304 37.4321 3.208C37.4321 3.112 37.4481 3.024 37.4801 2.944C37.5601 2.864 37.6401 2.824 37.7201 2.824C37.8001 2.808 37.8801 2.792 37.9601 2.776C38.0401 2.744 38.1121 2.712 38.1761 2.68C38.2401 2.632 38.3121 2.6 38.3921 2.584C38.7601 2.456 39.1041 2.456 39.4241 2.584C39.4241 2.584 39.4801 2.6 39.5921 2.632C39.7361 2.568 39.8881 2.544 40.0481 2.56C40.2081 2.56 40.3761 2.52 40.5521 2.44C40.5841 2.44 40.6321 2.448 40.6961 2.464C40.7761 2.464 40.8561 2.464 40.9361 2.464C41.0801 2.4 41.2241 2.336 41.3681 2.272C41.5281 2.208 41.6801 2.112 41.8241 1.984C42.0801 1.952 42.3281 1.944 42.5681 1.96C42.8241 1.976 43.0641 1.944 43.2881 1.864C43.4001 1.88 43.4961 1.912 43.5761 1.96C43.6721 1.992 43.7521 2.024 43.8161 2.056C43.9281 2.056 44.0161 2.024 44.0801 1.96C44.1441 1.88 44.2401 1.832 44.3681 1.816C44.4961 1.784 44.6801 1.792 44.9201 1.84C45.0161 1.856 45.1121 1.904 45.2081 1.984C45.3201 2.048 45.4321 2.072 45.5441 2.056C45.6241 2.008 45.6881 1.96 45.7361 1.912C45.8001 1.864 45.8721 1.816 45.9521 1.768C46.0481 1.768 46.1521 1.792 46.2641 1.84C46.3761 1.872 46.4801 1.88 46.5761 1.864C46.6881 1.848 46.7921 1.832 46.8881 1.816C47.0001 1.784 47.1361 1.768 47.2961 1.768C47.3601 1.784 47.4241 1.808 47.4881 1.84C47.5521 1.856 47.6161 1.88 47.6801 1.912C47.7761 1.88 47.8721 1.856 47.9681 1.84C48.0801 1.824 48.1921 1.808 48.3041 1.792C48.3361 1.84 48.3681 1.888 48.4001 1.936C48.4321 1.984 48.4561 2.024 48.4721 2.056ZM59.6631 3.928C59.5671 4.136 59.4391 4.312 59.2791 4.456C59.1191 4.584 58.9831 4.736 58.8711 4.912C58.7431 4.944 58.6151 5 58.4871 5.08C58.3751 5.16 58.2711 5.24 58.1751 5.32C58.0151 5.416 57.8711 5.416 57.7431 5.32C57.6791 5.288 57.6231 5.256 57.5751 5.224C57.5431 5.176 57.4951 5.136 57.4311 5.104C57.3031 4.992 57.1351 4.952 56.9271 4.984C56.9111 5 56.8871 4.992 56.8551 4.96V4.72C56.8391 4.704 56.8151 4.68 56.7831 4.648C56.7671 4.616 56.7431 4.6 56.7111 4.6C56.3911 4.472 56.0871 4.464 55.7991 4.576C55.7031 4.592 55.6071 4.616 55.5111 4.648C55.4151 4.68 55.3191 4.712 55.2231 4.744C55.1591 4.84 55.0951 4.936 55.0311 5.032C54.9831 5.128 54.9271 5.216 54.8631 5.296C54.8791 5.424 54.8871 5.552 54.8871 5.68C54.9031 5.808 54.9191 5.936 54.9351 6.064C55.0151 6.16 55.0871 6.264 55.1511 6.376C55.2311 6.472 55.3031 6.576 55.3671 6.688C55.5111 6.8 55.6631 6.912 55.8231 7.024C55.9831 7.12 56.1351 7.232 56.2791 7.36C56.3751 7.424 56.4711 7.48 56.5671 7.528C56.6791 7.56 56.7751 7.616 56.8551 7.696C56.9351 7.776 57.0071 7.848 57.0711 7.912C57.1511 7.96 57.2231 8.024 57.2871 8.104C57.3351 8.12 57.3831 8.144 57.4311 8.176C57.4791 8.208 57.5271 8.24 57.5751 8.272C57.8471 8.448 58.0551 8.688 58.1991 8.992C58.2791 9.12 58.3591 9.256 58.4391 9.4C58.5351 9.544 58.6231 9.68 58.7031 9.808C58.8151 9.904 58.8871 10.016 58.9191 10.144C58.9671 10.272 59.0151 10.4 59.0631 10.528C59.0791 10.544 59.0871 10.576 59.0871 10.624C59.1191 10.816 59.1671 11 59.2311 11.176C59.3111 11.352 59.3911 11.528 59.4711 11.704C59.5191 11.912 59.5431 12.12 59.5431 12.328C59.5591 12.52 59.5511 12.712 59.5191 12.904C59.5191 13.064 59.4951 13.224 59.4471 13.384C59.4151 13.528 59.3671 13.664 59.3031 13.792C59.2871 13.808 59.2791 13.824 59.2791 13.84C59.2791 13.856 59.2631 13.88 59.2311 13.912C59.0871 14.056 58.9671 14.216 58.8711 14.392C58.7911 14.568 58.6951 14.744 58.5831 14.92C58.5671 14.936 58.5591 14.96 58.5591 14.992C58.5591 15.008 58.5431 15.024 58.5111 15.04C58.3511 15.152 58.2151 15.272 58.1031 15.4C58.0071 15.528 57.8951 15.656 57.7671 15.784C57.7031 15.848 57.6231 15.904 57.5271 15.952C57.4311 16 57.3431 16.056 57.2631 16.12L56.7591 16.36C56.5991 16.376 56.4311 16.4 56.2551 16.432C56.0951 16.464 55.9271 16.52 55.7511 16.6C55.6391 16.664 55.5111 16.712 55.3671 16.744C55.2391 16.776 55.1111 16.808 54.9831 16.84C54.9191 16.856 54.8551 16.872 54.7911 16.888C54.7271 16.904 54.6631 16.92 54.5991 16.936C54.3911 16.776 54.1591 16.696 53.9031 16.696C53.7271 16.696 53.5751 16.664 53.4471 16.6C53.2551 16.52 53.0711 16.432 52.8951 16.336C52.7191 16.256 52.5591 16.144 52.4151 16C52.3191 15.92 52.2231 15.848 52.1271 15.784C52.0311 15.72 51.9431 15.656 51.8631 15.592C51.7991 15.528 51.7191 15.488 51.6231 15.472C51.5431 15.44 51.4631 15.408 51.3831 15.376C51.2711 15.296 51.2071 15.208 51.1911 15.112C51.2071 14.984 51.2551 14.864 51.3351 14.752C51.4311 14.64 51.5111 14.52 51.5751 14.392C51.5751 14.296 51.5991 14.176 51.6471 14.032C51.7911 13.84 51.9431 13.648 52.1031 13.456C52.2631 13.248 52.4231 13.04 52.5831 12.832C52.6471 12.784 52.7191 12.736 52.7991 12.688C52.8791 12.624 52.9671 12.56 53.0631 12.496C53.3831 12.576 53.6871 12.664 53.9751 12.76C54.2631 12.856 54.5591 12.944 54.8631 13.024C54.9271 13.008 54.9751 12.992 55.0071 12.976C55.0391 12.944 55.0631 12.92 55.0791 12.904C55.1271 12.888 55.1671 12.872 55.1991 12.856C55.2311 12.84 55.2551 12.824 55.2711 12.808H55.7031C55.7191 12.776 55.7351 12.752 55.7511 12.736C55.7831 12.704 55.8071 12.672 55.8231 12.64C55.8871 12.48 55.9511 12.328 56.0151 12.184C56.0791 12.04 56.1191 11.88 56.1351 11.704C56.1031 11.576 56.0631 11.44 56.0151 11.296C55.9831 11.152 55.9111 11.008 55.7991 10.864C55.7351 10.816 55.6631 10.76 55.5831 10.696C55.5031 10.632 55.4231 10.568 55.3431 10.504C55.0711 10.472 54.7911 10.4 54.5031 10.288C54.2311 10.176 53.9591 10.12 53.6871 10.12C53.5751 10.088 53.4871 10.04 53.4231 9.976C53.3591 9.896 53.2871 9.824 53.2071 9.76C53.0951 9.728 52.9751 9.704 52.8471 9.688C52.7191 9.672 52.6151 9.608 52.5351 9.496C52.2791 9.352 52.0631 9.248 51.8871 9.184C51.8071 9.088 51.7271 8.992 51.6471 8.896C51.5831 8.8 51.5111 8.712 51.4311 8.632C51.3671 8.552 51.3031 8.456 51.2391 8.344C51.1911 8.216 51.1271 8.096 51.0471 7.984C50.9831 7.904 50.9271 7.816 50.8791 7.72C50.8311 7.608 50.7831 7.496 50.7351 7.384C50.6871 7.16 50.6391 6.92 50.5911 6.664C50.6231 6.488 50.6471 6.312 50.6631 6.136C50.6951 5.944 50.7191 5.752 50.7351 5.56L50.6391 5.32C50.7031 5.288 50.7511 5.24 50.7831 5.176C50.8151 5.112 50.8471 5.048 50.8791 4.984C50.9111 4.888 50.9511 4.808 50.9991 4.744C51.0471 4.68 51.0631 4.592 51.0471 4.48C51.0471 4.176 51.1271 3.896 51.2871 3.64C51.3191 3.576 51.3431 3.52 51.3591 3.472C51.3911 3.424 51.4151 3.376 51.4311 3.328C51.5111 3.28 51.5751 3.232 51.6231 3.184C51.6871 3.12 51.7271 3.08 51.7431 3.064C51.8231 2.984 51.8551 2.912 51.8391 2.848C51.8231 2.768 51.8231 2.696 51.8391 2.632C51.9031 2.536 51.9751 2.44 52.0551 2.344C52.1351 2.248 52.2231 2.144 52.3191 2.032C52.4311 1.952 52.5511 1.888 52.6791 1.84C52.8071 1.776 52.9271 1.688 53.0391 1.576C53.0711 1.528 53.1111 1.496 53.1591 1.48C53.2071 1.448 53.2631 1.424 53.3271 1.408C53.4071 1.36 53.4951 1.32 53.5911 1.288C53.6871 1.256 53.7831 1.216 53.8791 1.168C54.0391 1.136 54.1991 1.112 54.3591 1.096C54.5351 1.08 54.7031 1.064 54.8631 1.048C54.8791 1.048 54.8951 1.048 54.9111 1.048C54.9431 1.032 54.9751 1.032 55.0071 1.048C55.1831 1.112 55.3591 1.112 55.5351 1.048C55.7271 0.983999 55.9191 0.959999 56.1111 0.975999C56.2871 0.975999 56.4551 0.999999 56.6151 1.048C56.7911 1.096 56.9591 1.136 57.1191 1.168C57.2951 1.296 57.4711 1.416 57.6471 1.528C57.8231 1.624 58.0151 1.704 58.2231 1.768C58.2871 1.832 58.3431 1.904 58.3911 1.984C58.4551 2.048 58.5191 2.12 58.5831 2.2C58.6471 2.264 58.7111 2.32 58.7751 2.368C58.8391 2.416 58.8951 2.472 58.9431 2.536C59.0711 2.776 59.1911 3.016 59.3031 3.256C59.4311 3.48 59.5511 3.704 59.6631 3.928Z" fill="#404040"/>
</svg>
