<svg width="196" height="17" viewBox="0 0 196 17" fill="none" xmlns="http://www.w3.org/2000/svg">
<path d="M12.144 2.056C12.112 2.248 12.088 2.44 12.072 2.632C12.072 2.808 12.072 2.992 12.072 3.184C12.072 3.408 12.064 3.624 12.048 3.832C12.048 4.04 12.032 4.256 12 4.48C11.984 4.512 11.976 4.56 11.976 4.624C11.992 4.784 12.016 4.944 12.048 5.104C12.096 5.248 12.104 5.384 12.072 5.512C12.04 5.592 12.032 5.672 12.048 5.752C12.064 5.832 12.056 5.912 12.024 5.992C12.008 6.024 11.992 6.056 11.976 6.088C11.96 6.12 11.944 6.152 11.928 6.184C11.848 6.2 11.768 6.216 11.688 6.232C11.624 6.232 11.552 6.232 11.472 6.232C11.44 6.248 11.392 6.28 11.328 6.328C11.28 6.36 11.232 6.392 11.184 6.424C11.12 6.392 11.064 6.36 11.016 6.328C10.984 6.296 10.944 6.272 10.896 6.256C10.864 6.256 10.824 6.256 10.776 6.256C10.728 6.24 10.688 6.24 10.656 6.256C10.544 6.304 10.392 6.32 10.2 6.304C10.024 6.272 9.872 6.256 9.744 6.256C9.584 6.256 9.432 6.28 9.288 6.328C9.16 6.36 9.024 6.408 8.88 6.472C8.768 6.536 8.648 6.576 8.52 6.592C8.408 6.592 8.288 6.616 8.16 6.664C8.08 6.776 8.048 6.88 8.064 6.976C8.096 7.104 8.12 7.248 8.136 7.408C8.168 7.552 8.152 7.704 8.088 7.864C8.088 7.928 8.096 7.968 8.112 7.984C8.176 8.144 8.208 8.304 8.208 8.464C8.208 8.624 8.192 8.792 8.16 8.968C8.144 9.128 8.136 9.288 8.136 9.448C8.136 9.592 8.12 9.752 8.088 9.928C8.056 10.104 8.064 10.264 8.112 10.408C8.128 10.504 8.136 10.6 8.136 10.696C8.136 10.792 8.136 10.88 8.136 10.96C8.12 11.072 8.112 11.104 8.112 11.056C8.112 10.992 8.112 10.96 8.112 10.96V11.032C8.112 11.048 8.104 11.064 8.088 11.08C8.088 11.08 8.088 11.088 8.088 11.104C8.104 11.376 8.104 11.584 8.088 11.728C8.088 11.856 8.08 11.976 8.064 12.088C8.048 12.184 8.016 12.336 7.968 12.544V12.664C8.032 12.92 8.064 13.184 8.064 13.456C8.064 13.712 8.056 13.968 8.04 14.224C8.04 14.4 8.04 14.576 8.04 14.752C8.056 14.928 8.096 15.112 8.16 15.304C8.144 15.4 8.12 15.512 8.088 15.64C8.056 15.752 8.016 15.864 7.968 15.976C7.952 16.04 7.92 16.096 7.872 16.144C7.84 16.192 7.784 16.248 7.704 16.312C7.32 16.28 6.96 16.312 6.624 16.408C6.448 16.472 6.264 16.448 6.072 16.336C6.04 16.304 6.024 16.288 6.024 16.288C5.784 16.144 5.552 16.12 5.328 16.216C5.232 16.264 5.136 16.28 5.04 16.264C4.944 16.248 4.856 16.24 4.776 16.24C4.664 16.24 4.568 16.28 4.488 16.36C4.408 16.44 4.304 16.448 4.176 16.384C4.16 16.256 4.168 16.136 4.2 16.024C4.248 15.912 4.28 15.784 4.296 15.64C4.28 15.528 4.248 15.408 4.2 15.28C4.168 15.152 4.136 15.024 4.104 14.896C4.136 14.816 4.16 14.744 4.176 14.68C4.192 14.6 4.2 14.528 4.2 14.464C4.216 14.384 4.216 14.304 4.2 14.224C4.2 14.128 4.2 14.04 4.2 13.96C4.216 13.704 4.216 13.464 4.2 13.24C4.2 13 4.184 12.76 4.152 12.52C4.12 12.328 4.096 12.144 4.08 11.968C4.08 11.776 4.072 11.576 4.056 11.368C4.104 11.304 4.144 11.24 4.176 11.176C4.224 11.112 4.28 11.048 4.344 10.984C4.36 10.856 4.368 10.792 4.368 10.792C4.368 10.776 4.368 10.696 4.368 10.552C4.352 10.328 4.352 10.096 4.368 9.856C4.384 9.6 4.416 9.36 4.464 9.136C4.448 8.96 4.424 8.792 4.392 8.632C4.36 8.456 4.304 8.288 4.224 8.128C4.256 8.048 4.288 7.968 4.32 7.888C4.368 7.808 4.4 7.736 4.416 7.672C4.4 7.544 4.4 7.432 4.416 7.336C4.448 7.24 4.44 7.136 4.392 7.024C4.376 6.976 4.336 6.936 4.272 6.904C4.16 6.904 4.048 6.896 3.936 6.88C3.824 6.864 3.712 6.856 3.6 6.856C3.488 6.856 3.376 6.84 3.264 6.808C3.168 6.776 3.064 6.776 2.952 6.808C2.856 6.856 2.76 6.864 2.664 6.832C2.584 6.784 2.496 6.768 2.4 6.784H1.776L1.176 6.688C1.144 6.688 1.104 6.664 1.056 6.616C1.008 6.568 0.984 6.52 0.984 6.472V6.304C1.016 6.208 1.04 6.112 1.056 6.016C1.088 5.904 1.088 5.792 1.056 5.68C1.04 5.664 1.032 5.64 1.032 5.608C1.048 5.56 1.056 5.528 1.056 5.512C1.12 5.224 1.152 4.888 1.152 4.504C1.152 4.12 1.136 3.784 1.104 3.496C1.104 3.4 1.104 3.304 1.104 3.208C1.104 3.112 1.12 3.024 1.152 2.944C1.232 2.864 1.312 2.824 1.392 2.824C1.472 2.808 1.552 2.792 1.632 2.776C1.712 2.744 1.784 2.712 1.848 2.68C1.912 2.632 1.984 2.6 2.064 2.584C2.432 2.456 2.776 2.456 3.096 2.584C3.096 2.584 3.152 2.6 3.264 2.632C3.408 2.568 3.56 2.544 3.72 2.56C3.88 2.56 4.048 2.52 4.224 2.44C4.256 2.44 4.304 2.448 4.368 2.464C4.448 2.464 4.528 2.464 4.608 2.464C4.752 2.4 4.896 2.336 5.04 2.272C5.2 2.208 5.352 2.112 5.496 1.984C5.752 1.952 6 1.944 6.24 1.96C6.496 1.976 6.736 1.944 6.96 1.864C7.072 1.88 7.168 1.912 7.248 1.96C7.344 1.992 7.424 2.024 7.488 2.056C7.6 2.056 7.688 2.024 7.752 1.96C7.816 1.88 7.912 1.832 8.04 1.816C8.168 1.784 8.352 1.792 8.592 1.84C8.688 1.856 8.784 1.904 8.88 1.984C8.992 2.048 9.104 2.072 9.216 2.056C9.296 2.008 9.36 1.96 9.408 1.912C9.472 1.864 9.544 1.816 9.624 1.768C9.72 1.768 9.824 1.792 9.936 1.84C10.048 1.872 10.152 1.88 10.248 1.864C10.36 1.848 10.464 1.832 10.56 1.816C10.672 1.784 10.808 1.768 10.968 1.768C11.032 1.784 11.096 1.808 11.16 1.84C11.224 1.856 11.288 1.88 11.352 1.912C11.448 1.88 11.544 1.856 11.64 1.84C11.752 1.824 11.864 1.808 11.976 1.792C12.008 1.84 12.04 1.888 12.072 1.936C12.104 1.984 12.128 2.024 12.144 2.056ZM22.879 5.872C22.911 6.128 22.871 6.312 22.759 6.424C22.679 6.52 22.623 6.624 22.591 6.736C22.575 6.848 22.559 6.968 22.543 7.096C22.511 7.144 22.479 7.192 22.447 7.24C22.431 7.288 22.407 7.336 22.375 7.384C22.311 7.448 22.247 7.52 22.183 7.6C22.135 7.68 22.087 7.76 22.039 7.84C22.007 7.904 21.983 7.976 21.967 8.056C21.951 8.136 21.927 8.216 21.895 8.296C21.879 8.312 21.863 8.336 21.847 8.368C21.847 8.384 21.839 8.4 21.823 8.416C21.807 8.432 21.783 8.44 21.751 8.44C21.735 8.44 21.719 8.448 21.703 8.464H21.583C21.231 8.32 20.887 8.312 20.551 8.44C20.487 8.456 20.431 8.464 20.383 8.464C20.335 8.464 20.279 8.464 20.215 8.464C20.167 8.48 20.119 8.488 20.071 8.488C20.039 8.488 20.007 8.496 19.975 8.512C19.783 8.592 19.615 8.696 19.471 8.824C19.327 8.952 19.191 9.088 19.063 9.232C18.999 9.424 18.927 9.624 18.847 9.832C18.783 10.024 18.751 10.24 18.751 10.48C18.751 10.496 18.743 10.528 18.727 10.576C18.711 10.608 18.695 10.64 18.679 10.672C18.663 10.736 18.639 10.792 18.607 10.84C18.591 10.872 18.567 10.92 18.535 10.984C18.503 11.08 18.463 11.176 18.415 11.272C18.367 11.368 18.327 11.464 18.295 11.56C18.327 11.672 18.319 11.776 18.271 11.872C18.239 11.968 18.223 12.064 18.223 12.16C18.255 12.304 18.255 12.44 18.223 12.568C18.207 12.68 18.183 12.8 18.151 12.928C18.103 13.072 18.079 13.224 18.079 13.384C18.095 13.528 18.103 13.672 18.103 13.816C18.087 13.992 18.079 14.176 18.079 14.368C18.095 14.56 18.103 14.744 18.103 14.92C18.103 15.032 18.095 15.152 18.079 15.28C18.063 15.408 18.055 15.536 18.055 15.664C18.007 15.76 17.967 15.824 17.935 15.856C17.823 16.032 17.687 16.152 17.527 16.216C17.367 16.296 17.191 16.328 16.999 16.312C16.871 16.296 16.735 16.28 16.591 16.264C16.463 16.248 16.335 16.232 16.207 16.216C16.143 16.2 16.063 16.176 15.967 16.144C15.871 16.128 15.783 16.104 15.703 16.072C15.639 16.088 15.583 16.096 15.535 16.096C15.503 16.112 15.463 16.128 15.415 16.144C15.207 16.08 15.015 15.96 14.839 15.784C14.855 15.672 14.863 15.56 14.863 15.448C14.863 15.336 14.871 15.224 14.887 15.112C14.871 15.064 14.855 15.008 14.839 14.944C14.839 14.864 14.823 14.792 14.791 14.728C14.775 14.632 14.751 14.536 14.719 14.44C14.687 14.344 14.679 14.24 14.695 14.128C14.679 13.888 14.631 13.608 14.551 13.288C14.583 13.256 14.607 13.216 14.623 13.168C14.655 13.104 14.679 13.048 14.695 13C14.711 12.952 14.719 12.912 14.719 12.88C14.735 12.832 14.743 12.784 14.743 12.736C14.743 12.704 14.751 12.68 14.767 12.664C14.783 12.632 14.775 12.6 14.743 12.568C14.727 12.52 14.711 12.472 14.695 12.424C14.695 12.36 14.687 12.304 14.671 12.256C14.655 12.096 14.655 11.936 14.671 11.776C14.687 11.712 14.695 11.656 14.695 11.608C14.711 11.544 14.727 11.48 14.743 11.416C14.775 11.336 14.783 11.248 14.767 11.152C14.767 11.056 14.727 10.976 14.647 10.912C14.631 10.896 14.615 10.88 14.599 10.864C14.599 10.832 14.583 10.808 14.551 10.792C14.535 10.712 14.519 10.624 14.503 10.528C14.503 10.432 14.487 10.344 14.455 10.264C14.439 10.152 14.415 10.048 14.383 9.952C14.367 9.856 14.359 9.752 14.359 9.64C14.391 9.448 14.399 9.264 14.383 9.088C14.367 8.896 14.383 8.704 14.431 8.512C14.431 8.48 14.423 8.44 14.407 8.392C14.407 8.344 14.407 8.304 14.407 8.272C14.391 8.096 14.375 7.92 14.359 7.744C14.359 7.568 14.391 7.392 14.455 7.216C14.487 7.152 14.503 7.08 14.503 7C14.503 6.92 14.503 6.84 14.503 6.76C14.503 6.616 14.503 6.48 14.503 6.352C14.519 6.208 14.559 6.072 14.623 5.944C14.623 5.896 14.599 5.816 14.551 5.704C14.583 5.624 14.607 5.544 14.623 5.464C14.655 5.368 14.679 5.28 14.695 5.2C14.727 5.12 14.751 5.048 14.767 4.984C14.783 4.904 14.799 4.832 14.815 4.768C14.911 4.672 14.999 4.632 15.079 4.648C15.239 4.696 15.399 4.704 15.559 4.672C15.735 4.624 15.903 4.608 16.063 4.624C16.111 4.624 16.159 4.616 16.207 4.6C16.255 4.568 16.303 4.544 16.351 4.528C16.623 4.448 16.847 4.456 17.023 4.552C17.135 4.744 17.199 4.888 17.215 4.984C17.231 5.08 17.247 5.312 17.263 5.68C17.311 5.856 17.399 6.024 17.527 6.184C17.559 6.216 17.607 6.24 17.671 6.256C17.751 6.256 17.807 6.24 17.839 6.208C17.903 6.16 17.959 6.12 18.007 6.088C18.055 6.04 18.103 5.984 18.151 5.92C18.247 5.84 18.335 5.76 18.415 5.68C18.511 5.584 18.591 5.504 18.655 5.44C18.831 5.36 18.999 5.28 19.159 5.2C19.335 5.12 19.527 5.04 19.735 4.96H20.287L20.335 4.936C20.351 4.936 20.359 4.936 20.359 4.936C20.375 4.92 20.391 4.92 20.407 4.936L20.479 4.912C20.671 5.008 20.839 5.032 20.983 4.984C21.239 4.904 21.487 4.936 21.727 5.08C21.871 5.144 22.007 5.208 22.135 5.272C22.263 5.336 22.399 5.408 22.543 5.488C22.591 5.552 22.647 5.616 22.711 5.68C22.775 5.744 22.831 5.808 22.879 5.872ZM29.2856 3.184C29.3336 3.296 29.3496 3.416 29.3336 3.544C29.3176 3.656 29.2936 3.768 29.2616 3.88C29.2456 3.976 29.2136 4.072 29.1656 4.168C29.1176 4.248 29.0776 4.328 29.0456 4.408C28.9816 4.504 28.9096 4.592 28.8296 4.672C28.7656 4.752 28.7016 4.832 28.6376 4.912C28.5896 4.928 28.5496 4.96 28.5176 5.008C28.4856 5.04 28.4456 5.072 28.3976 5.104C28.2856 5.184 28.1096 5.264 27.8696 5.344C27.6296 5.408 27.4376 5.44 27.2936 5.44C27.2136 5.44 27.1496 5.424 27.1016 5.392C27.0056 5.392 26.9096 5.392 26.8136 5.392C26.7176 5.376 26.6296 5.368 26.5496 5.368C26.5016 5.336 26.4456 5.304 26.3816 5.272C26.3336 5.24 26.2936 5.208 26.2616 5.176C26.1816 5.144 26.0936 5.128 25.9976 5.128C25.9176 5.128 25.8376 5.128 25.7576 5.128C25.6936 5.08 25.6136 5.04 25.5176 5.008C25.4376 4.96 25.3576 4.92 25.2776 4.888L25.1336 4.456C25.1496 4.328 25.1656 4.192 25.1816 4.048C25.1976 3.888 25.1816 3.728 25.1336 3.568C25.0856 3.536 25.0856 3.496 25.1336 3.448C25.1816 3.336 25.1816 3.224 25.1336 3.112C25.0856 3 25.0856 2.888 25.1336 2.776C25.1496 2.744 25.1576 2.696 25.1576 2.632C25.1096 2.536 25.1096 2.448 25.1576 2.368C25.2056 2.272 25.2456 2.192 25.2776 2.128C25.2616 2.08 25.2536 2.032 25.2536 1.984C25.2536 1.92 25.2536 1.872 25.2536 1.84C25.2696 1.824 25.2776 1.808 25.2776 1.792C25.2936 1.76 25.3176 1.736 25.3496 1.72C25.4776 1.688 25.5816 1.632 25.6616 1.552C25.7576 1.456 25.8616 1.384 25.9736 1.336C26.0856 1.24 26.2056 1.16 26.3336 1.096C26.4776 1.032 26.6136 0.968 26.7416 0.904C26.8696 0.904 26.9816 0.904 27.0776 0.904C27.1736 0.904 27.2696 0.92 27.3656 0.951999C27.4136 0.967999 27.4696 0.975999 27.5336 0.975999C27.5976 0.975999 27.6616 0.975999 27.7256 0.975999C27.9496 0.943999 28.1256 1.032 28.2536 1.24C28.2856 1.32 28.3416 1.368 28.4216 1.384C28.5016 1.4 28.5736 1.424 28.6376 1.456C28.7976 1.6 28.9016 1.784 28.9496 2.008C28.9816 2.104 29.0136 2.2 29.0456 2.296C29.0936 2.392 29.1256 2.488 29.1416 2.584C29.1736 2.68 29.1976 2.784 29.2136 2.896C29.2456 2.992 29.2696 3.088 29.2856 3.184ZM29.1416 8.704C29.1096 8.8 29.0936 8.912 29.0936 9.04C29.0936 9.152 29.0936 9.272 29.0936 9.4C29.1096 9.512 29.1096 9.632 29.0936 9.76C29.0776 9.872 29.0696 9.984 29.0696 10.096L28.9016 10.336C28.9816 10.416 29.0296 10.504 29.0456 10.6C29.0616 10.696 29.0696 10.8 29.0696 10.912C29.0696 11.024 29.0696 11.144 29.0696 11.272C29.0696 11.384 29.0616 11.504 29.0456 11.632C29.0296 11.744 28.9976 11.864 28.9496 11.992C28.9016 12.12 28.8616 12.256 28.8296 12.4C28.8296 12.56 28.8216 12.752 28.8056 12.976C28.8056 13.184 28.8136 13.392 28.8296 13.6C28.8456 13.904 28.8296 14.216 28.7816 14.536C28.7336 14.84 28.6376 15.128 28.4936 15.4C28.4936 15.528 28.5096 15.656 28.5416 15.784C28.5736 15.896 28.6056 16.016 28.6376 16.144C28.6376 16.16 28.6296 16.176 28.6136 16.192C28.5976 16.224 28.5896 16.256 28.5896 16.288C28.5096 16.4 28.4136 16.496 28.3016 16.576C28.2856 16.576 28.2696 16.584 28.2536 16.6H28.1576C27.9816 16.6 27.7976 16.608 27.6056 16.624C27.4296 16.656 27.2296 16.648 27.0056 16.6C26.9416 16.568 26.8696 16.528 26.7896 16.48C26.7256 16.432 26.6536 16.392 26.5736 16.36C26.5096 16.36 26.4296 16.352 26.3336 16.336C26.2536 16.336 26.1736 16.328 26.0936 16.312C25.9656 16.168 25.8376 16.016 25.7096 15.856C25.6616 15.824 25.6056 15.8 25.5416 15.784C25.4776 15.768 25.4136 15.744 25.3496 15.712C25.2376 15.632 25.1976 15.504 25.2296 15.328C25.2616 15.152 25.3016 15 25.3496 14.872C25.3976 14.664 25.3896 14.464 25.3256 14.272L25.2296 13.936C25.2296 13.808 25.2216 13.688 25.2056 13.576C25.1896 13.464 25.1896 13.352 25.2056 13.24C25.2216 13.08 25.2216 12.928 25.2056 12.784C25.2056 12.64 25.2056 12.488 25.2056 12.328C25.2216 12.104 25.2296 11.888 25.2296 11.68C25.2296 11.456 25.2296 11.24 25.2296 11.032C25.2296 10.952 25.2376 10.904 25.2536 10.888C25.3336 10.76 25.3736 10.64 25.3736 10.528C25.3736 10.4 25.3736 10.272 25.3736 10.144C25.3576 10.016 25.3576 9.888 25.3736 9.76C25.4056 9.616 25.4056 9.488 25.3736 9.376C25.3736 9.232 25.3736 9.096 25.3736 8.968C25.3736 8.824 25.3816 8.68 25.3976 8.536C25.4136 8.456 25.4216 8.376 25.4216 8.296C25.4376 8.2 25.4296 8.096 25.3976 7.984C25.5416 7.92 25.6616 7.872 25.7576 7.84C25.8696 7.808 25.9736 7.792 26.0696 7.792C26.1336 7.792 26.1976 7.792 26.2616 7.792C26.3416 7.792 26.4136 7.784 26.4776 7.768C26.6376 7.736 26.7736 7.704 26.8856 7.672C26.9656 7.688 27.0296 7.72 27.0776 7.768C27.1416 7.8 27.2056 7.832 27.2696 7.864C27.3816 7.864 27.4936 7.84 27.6056 7.792C27.7176 7.776 27.8136 7.784 27.8936 7.816C27.9896 7.848 28.0616 7.928 28.1096 8.056C28.1256 8.072 28.1336 8.088 28.1336 8.104C28.1496 8.12 28.1656 8.136 28.1816 8.152L28.3496 8.248C28.4616 8.264 28.5576 8.248 28.6376 8.2C28.7176 8.136 28.7976 8.096 28.8776 8.08C28.9736 8.08 29.0296 8.12 29.0456 8.2C29.0936 8.312 29.1256 8.48 29.1416 8.704ZM42.5139 6.4C42.4819 6.512 42.4499 6.64 42.4179 6.784C42.4019 6.912 42.3779 7.04 42.3459 7.168C42.3299 7.264 42.2899 7.36 42.2259 7.456C42.1779 7.552 42.1379 7.648 42.1059 7.744C42.0419 7.904 41.9779 8.056 41.9139 8.2C41.8499 8.328 41.7779 8.472 41.6979 8.632C41.6499 8.76 41.5859 8.896 41.5059 9.04C41.4419 9.168 41.3619 9.296 41.2659 9.424C41.1699 9.568 41.0979 9.712 41.0499 9.856C41.0019 10 40.9459 10.152 40.8819 10.312C40.8339 10.36 40.7859 10.408 40.7379 10.456C40.7059 10.488 40.6579 10.52 40.5939 10.552C40.5299 10.696 40.4579 10.84 40.3779 10.984C40.2979 11.112 40.2179 11.256 40.1379 11.416C40.0739 11.512 40.0179 11.608 39.9699 11.704C39.9379 11.8 39.8819 11.896 39.8019 11.992C39.7699 12.04 39.7379 12.088 39.7059 12.136C39.6739 12.184 39.6499 12.24 39.6339 12.304C39.5379 12.56 39.3939 12.768 39.2019 12.928C39.1219 13.136 39.0419 13.336 38.9619 13.528C38.8819 13.72 38.7779 13.896 38.6499 14.056V14.416C38.5859 14.496 38.5139 14.584 38.4339 14.68C38.3539 14.76 38.2899 14.84 38.2419 14.92C38.1779 15 38.1059 15.072 38.0259 15.136C37.9619 15.184 37.8979 15.248 37.8339 15.328C37.8179 15.392 37.8019 15.464 37.7859 15.544C37.7859 15.608 37.7539 15.664 37.6899 15.712C37.5459 15.824 37.4099 15.872 37.2819 15.856C37.1539 15.84 37.0179 15.832 36.8739 15.832C36.7299 15.832 36.5939 15.816 36.4659 15.784C36.3699 15.752 36.2739 15.744 36.1779 15.76C36.0819 15.76 35.9859 15.76 35.8899 15.76C35.7939 15.728 35.6899 15.712 35.5779 15.712C35.4819 15.712 35.3699 15.704 35.2419 15.688C35.1779 15.688 35.0979 15.656 35.0019 15.592C34.9859 15.512 34.9619 15.432 34.9299 15.352C34.8979 15.272 34.8739 15.2 34.8579 15.136C34.7779 15.056 34.6979 15.016 34.6179 15.016C34.5379 15 34.4659 14.968 34.4019 14.92L34.2819 14.824C34.2179 14.6 34.1539 14.392 34.0899 14.2C34.0419 13.992 33.9859 13.784 33.9219 13.576C33.8739 13.4 33.8099 13.224 33.7299 13.048C33.6659 12.872 33.6099 12.696 33.5619 12.52C33.5459 12.344 33.5059 12.168 33.4419 11.992C33.3939 11.816 33.3379 11.64 33.2739 11.464C33.2099 11.256 33.1299 11.056 33.0339 10.864C32.9379 10.672 32.8579 10.472 32.7939 10.264C32.7939 10.232 32.7859 10.2 32.7699 10.168C32.7539 10.136 32.7379 10.104 32.7219 10.072C32.6739 9.816 32.6019 9.568 32.5059 9.328C32.4259 9.088 32.3459 8.848 32.2659 8.608C32.2019 8.4 32.1379 8.184 32.0739 7.96C32.0259 7.72 31.9859 7.496 31.9539 7.288C31.9379 7.256 31.9219 7.224 31.9059 7.192C31.8899 7.144 31.8739 7.112 31.8579 7.096C31.6339 6.776 31.6499 6.472 31.9059 6.184C31.9699 6.104 32.0339 6.04 32.0979 5.992C32.1619 5.944 32.2259 5.904 32.2899 5.872C32.3699 5.84 32.4499 5.808 32.5299 5.776C32.6099 5.728 32.6819 5.688 32.7459 5.656C33.0499 5.464 33.3379 5.344 33.6099 5.296C33.8979 5.232 34.1939 5.16 34.4979 5.08C34.5619 5.096 34.6019 5.128 34.6179 5.176C34.6499 5.208 34.6739 5.248 34.6899 5.296C34.7699 5.376 34.8579 5.392 34.9539 5.344L35.1219 5.272C35.1539 5.304 35.1699 5.32 35.1699 5.32C35.2019 5.432 35.2339 5.552 35.2659 5.68C35.3139 5.792 35.3459 5.904 35.3619 6.016V6.184C35.3619 6.44 35.4259 6.712 35.5539 7C35.5699 7.064 35.5859 7.128 35.6019 7.192C35.6179 7.24 35.6259 7.296 35.6259 7.36C35.7059 7.664 35.7779 7.968 35.8419 8.272C35.9059 8.576 35.9459 8.888 35.9619 9.208C35.9779 9.272 36.0179 9.336 36.0819 9.4C36.1779 9.608 36.2659 9.824 36.3459 10.048C36.4419 10.256 36.4979 10.472 36.5139 10.696C36.5299 10.712 36.5539 10.776 36.5859 10.888C36.6339 10.984 36.6659 11.032 36.6819 11.032C36.6979 11.128 36.7379 11.144 36.8019 11.08C36.8659 11 36.9299 10.904 36.9939 10.792C37.0579 10.68 37.0899 10.624 37.0899 10.624C37.2179 10.464 37.3059 10.312 37.3539 10.168C37.4179 10.024 37.5059 9.872 37.6179 9.712C37.6499 9.68 37.6659 9.648 37.6659 9.616C37.6819 9.584 37.6979 9.552 37.7139 9.52C37.7299 9.456 37.7379 9.392 37.7379 9.328C37.7539 9.264 37.7779 9.216 37.8099 9.184C37.8899 9.088 37.9459 8.976 37.9779 8.848C38.0099 8.72 38.0659 8.616 38.1459 8.536C38.1939 8.504 38.2099 8.464 38.1939 8.416C38.1779 8.352 38.1779 8.304 38.1939 8.272C38.2739 8.048 38.3859 7.848 38.5299 7.672C38.6739 7.496 38.7699 7.28 38.8179 7.024C38.8499 6.992 38.8819 6.968 38.9139 6.952C38.9459 6.936 38.9859 6.92 39.0339 6.904C39.1139 6.776 39.1459 6.656 39.1299 6.544C39.1299 6.416 39.1459 6.28 39.1779 6.136C39.2099 6.072 39.2499 6 39.2979 5.92C39.3619 5.84 39.4179 5.76 39.4659 5.68C39.5139 5.6 39.5539 5.52 39.5859 5.44C39.6339 5.344 39.6899 5.248 39.7539 5.152C39.8339 5.088 39.9059 5.032 39.9699 4.984C40.0339 4.936 40.1059 4.888 40.1859 4.84C40.3299 4.872 40.4419 4.912 40.5219 4.96C40.6179 4.992 40.7459 5 40.9059 4.984C41.0179 5.048 41.1139 5.112 41.1939 5.176C41.2899 5.24 41.3619 5.336 41.4099 5.464C41.4099 5.48 41.4179 5.496 41.4339 5.512C41.4499 5.528 41.4579 5.552 41.4579 5.584C41.5699 5.632 41.6659 5.664 41.7459 5.68C41.7779 5.744 41.8099 5.8 41.8419 5.848C41.8899 5.896 41.9299 5.952 41.9619 6.016C42.0419 6.096 42.1379 6.152 42.2499 6.184C42.3619 6.2 42.4499 6.272 42.5139 6.4ZM49.0512 3.184C49.0992 3.296 49.1152 3.416 49.0992 3.544C49.0832 3.656 49.0592 3.768 49.0272 3.88C49.0112 3.976 48.9792 4.072 48.9312 4.168C48.8832 4.248 48.8432 4.328 48.8112 4.408C48.7472 4.504 48.6752 4.592 48.5952 4.672C48.5312 4.752 48.4672 4.832 48.4032 4.912C48.3552 4.928 48.3152 4.96 48.2832 5.008C48.2512 5.04 48.2112 5.072 48.1632 5.104C48.0512 5.184 47.8752 5.264 47.6352 5.344C47.3952 5.408 47.2032 5.44 47.0592 5.44C46.9792 5.44 46.9152 5.424 46.8672 5.392C46.7712 5.392 46.6752 5.392 46.5792 5.392C46.4832 5.376 46.3952 5.368 46.3152 5.368C46.2672 5.336 46.2112 5.304 46.1472 5.272C46.0992 5.24 46.0592 5.208 46.0272 5.176C45.9472 5.144 45.8592 5.128 45.7632 5.128C45.6832 5.128 45.6032 5.128 45.5232 5.128C45.4592 5.08 45.3792 5.04 45.2832 5.008C45.2032 4.96 45.1232 4.92 45.0432 4.888L44.8992 4.456C44.9152 4.328 44.9312 4.192 44.9472 4.048C44.9632 3.888 44.9472 3.728 44.8992 3.568C44.8512 3.536 44.8512 3.496 44.8992 3.448C44.9472 3.336 44.9472 3.224 44.8992 3.112C44.8512 3 44.8512 2.888 44.8992 2.776C44.9152 2.744 44.9232 2.696 44.9232 2.632C44.8752 2.536 44.8752 2.448 44.9232 2.368C44.9712 2.272 45.0112 2.192 45.0432 2.128C45.0272 2.08 45.0192 2.032 45.0192 1.984C45.0192 1.92 45.0192 1.872 45.0192 1.84C45.0352 1.824 45.0432 1.808 45.0432 1.792C45.0592 1.76 45.0832 1.736 45.1152 1.72C45.2432 1.688 45.3472 1.632 45.4272 1.552C45.5232 1.456 45.6272 1.384 45.7392 1.336C45.8512 1.24 45.9712 1.16 46.0992 1.096C46.2432 1.032 46.3792 0.968 46.5072 0.904C46.6352 0.904 46.7472 0.904 46.8432 0.904C46.9392 0.904 47.0352 0.92 47.1312 0.951999C47.1792 0.967999 47.2352 0.975999 47.2992 0.975999C47.3632 0.975999 47.4272 0.975999 47.4912 0.975999C47.7152 0.943999 47.8912 1.032 48.0192 1.24C48.0512 1.32 48.1072 1.368 48.1872 1.384C48.2672 1.4 48.3392 1.424 48.4032 1.456C48.5632 1.6 48.6672 1.784 48.7152 2.008C48.7472 2.104 48.7792 2.2 48.8112 2.296C48.8592 2.392 48.8912 2.488 48.9072 2.584C48.9392 2.68 48.9632 2.784 48.9792 2.896C49.0112 2.992 49.0352 3.088 49.0512 3.184ZM48.9072 8.704C48.8752 8.8 48.8592 8.912 48.8592 9.04C48.8592 9.152 48.8592 9.272 48.8592 9.4C48.8752 9.512 48.8752 9.632 48.8592 9.76C48.8432 9.872 48.8352 9.984 48.8352 10.096L48.6672 10.336C48.7472 10.416 48.7952 10.504 48.8112 10.6C48.8272 10.696 48.8352 10.8 48.8352 10.912C48.8352 11.024 48.8352 11.144 48.8352 11.272C48.8352 11.384 48.8272 11.504 48.8112 11.632C48.7952 11.744 48.7632 11.864 48.7152 11.992C48.6672 12.12 48.6272 12.256 48.5952 12.4C48.5952 12.56 48.5872 12.752 48.5712 12.976C48.5712 13.184 48.5792 13.392 48.5952 13.6C48.6112 13.904 48.5952 14.216 48.5472 14.536C48.4992 14.84 48.4032 15.128 48.2592 15.4C48.2592 15.528 48.2752 15.656 48.3072 15.784C48.3392 15.896 48.3712 16.016 48.4032 16.144C48.4032 16.16 48.3952 16.176 48.3792 16.192C48.3632 16.224 48.3552 16.256 48.3552 16.288C48.2752 16.4 48.1792 16.496 48.0672 16.576C48.0512 16.576 48.0352 16.584 48.0192 16.6H47.9232C47.7472 16.6 47.5632 16.608 47.3712 16.624C47.1952 16.656 46.9952 16.648 46.7712 16.6C46.7072 16.568 46.6352 16.528 46.5552 16.48C46.4912 16.432 46.4192 16.392 46.3392 16.36C46.2752 16.36 46.1952 16.352 46.0992 16.336C46.0192 16.336 45.9392 16.328 45.8592 16.312C45.7312 16.168 45.6032 16.016 45.4752 15.856C45.4272 15.824 45.3712 15.8 45.3072 15.784C45.2432 15.768 45.1792 15.744 45.1152 15.712C45.0032 15.632 44.9632 15.504 44.9952 15.328C45.0272 15.152 45.0672 15 45.1152 14.872C45.1632 14.664 45.1552 14.464 45.0912 14.272L44.9952 13.936C44.9952 13.808 44.9872 13.688 44.9712 13.576C44.9552 13.464 44.9552 13.352 44.9712 13.24C44.9872 13.08 44.9872 12.928 44.9712 12.784C44.9712 12.64 44.9712 12.488 44.9712 12.328C44.9872 12.104 44.9952 11.888 44.9952 11.68C44.9952 11.456 44.9952 11.24 44.9952 11.032C44.9952 10.952 45.0032 10.904 45.0192 10.888C45.0992 10.76 45.1392 10.64 45.1392 10.528C45.1392 10.4 45.1392 10.272 45.1392 10.144C45.1232 10.016 45.1232 9.888 45.1392 9.76C45.1712 9.616 45.1712 9.488 45.1392 9.376C45.1392 9.232 45.1392 9.096 45.1392 8.968C45.1392 8.824 45.1472 8.68 45.1632 8.536C45.1792 8.456 45.1872 8.376 45.1872 8.296C45.2032 8.2 45.1952 8.096 45.1632 7.984C45.3072 7.92 45.4272 7.872 45.5232 7.84C45.6352 7.808 45.7392 7.792 45.8352 7.792C45.8992 7.792 45.9632 7.792 46.0272 7.792C46.1072 7.792 46.1792 7.784 46.2432 7.768C46.4032 7.736 46.5392 7.704 46.6512 7.672C46.7312 7.688 46.7952 7.72 46.8432 7.768C46.9072 7.8 46.9712 7.832 47.0352 7.864C47.1472 7.864 47.2592 7.84 47.3712 7.792C47.4832 7.776 47.5792 7.784 47.6592 7.816C47.7552 7.848 47.8272 7.928 47.8752 8.056C47.8912 8.072 47.8992 8.088 47.8992 8.104C47.9152 8.12 47.9312 8.136 47.9472 8.152L48.1152 8.248C48.2272 8.264 48.3232 8.248 48.4032 8.2C48.4832 8.136 48.5632 8.096 48.6432 8.08C48.7392 8.08 48.7952 8.12 48.8112 8.2C48.8592 8.312 48.8912 8.48 48.9072 8.704ZM62.9276 14.824C62.9756 14.936 62.9916 15.04 62.9756 15.136C62.9596 15.232 62.9276 15.328 62.8796 15.424C62.8636 15.44 62.8316 15.464 62.7836 15.496C62.7356 15.512 62.6956 15.536 62.6636 15.568C62.5996 15.584 62.5436 15.592 62.4956 15.592C62.4476 15.592 62.3916 15.608 62.3276 15.64C62.0876 15.688 61.9436 15.816 61.8956 16.024C61.8796 16.056 61.8476 16.096 61.7996 16.144C61.6876 16.16 61.6076 16.176 61.5596 16.192C61.5116 16.224 61.4156 16.28 61.2716 16.36C61.1596 16.36 61.0476 16.376 60.9356 16.408C60.8236 16.44 60.7196 16.504 60.6236 16.6C60.5916 16.6 60.5676 16.6 60.5516 16.6C60.5356 16.616 60.5116 16.624 60.4796 16.624C60.4156 16.656 60.3436 16.64 60.2636 16.576C60.1836 16.528 60.1436 16.464 60.1436 16.384V16.24C60.0796 16.208 59.9996 16.208 59.9036 16.24C59.8236 16.272 59.7596 16.24 59.7116 16.144V15.784C59.6636 15.752 59.6156 15.728 59.5676 15.712C59.5356 15.68 59.4956 15.656 59.4476 15.64C59.3836 15.512 59.3116 15.376 59.2316 15.232C59.1516 15.088 59.0716 14.96 58.9916 14.848C58.9276 14.8 58.8716 14.784 58.8236 14.8C58.7756 14.816 58.7356 14.84 58.7036 14.872C58.6716 14.904 58.6476 14.944 58.6316 14.992C58.6156 15.024 58.5916 15.056 58.5596 15.088C58.5276 15.12 58.5036 15.16 58.4876 15.208C58.4716 15.256 58.4476 15.296 58.4156 15.328C58.2076 15.424 57.9996 15.512 57.7916 15.592C57.5836 15.656 57.3836 15.712 57.1916 15.76C57.0796 15.84 56.9676 15.912 56.8556 15.976C56.7436 16.04 56.6396 16.104 56.5436 16.168C56.4476 16.184 56.3516 16.208 56.2556 16.24C56.1596 16.272 56.0716 16.296 55.9916 16.312C55.8956 16.264 55.7996 16.248 55.7036 16.264C55.6236 16.296 55.5196 16.328 55.3916 16.36C55.2476 16.328 55.0956 16.288 54.9356 16.24C54.7756 16.208 54.6076 16.176 54.4316 16.144C54.3836 16.16 54.3356 16.168 54.2876 16.168C54.2396 16.168 54.1996 16.176 54.1676 16.192C54.1036 16.16 54.0476 16.128 53.9996 16.096C53.9676 16.064 53.9196 16.04 53.8556 16.024C53.7756 15.992 53.7036 15.992 53.6396 16.024C53.5756 16.056 53.5036 16.088 53.4236 16.12C53.3436 16.088 53.2556 16.064 53.1596 16.048C53.0636 16.048 52.9676 16.04 52.8716 16.024C52.7916 15.944 52.7196 15.872 52.6556 15.808C52.6076 15.744 52.5756 15.664 52.5596 15.568C52.5276 15.536 52.4956 15.512 52.4636 15.496C52.4316 15.464 52.4076 15.44 52.3916 15.424C52.3276 15.2 52.2556 15.008 52.1756 14.848C51.9516 14.368 51.7996 13.84 51.7196 13.264C51.6876 13.232 51.6556 13.2 51.6236 13.168C51.5916 13.12 51.5516 13.072 51.5036 13.024C51.4876 12.88 51.4716 12.744 51.4556 12.616C51.4396 12.472 51.4156 12.32 51.3836 12.16C51.4156 12.064 51.4316 11.976 51.4316 11.896C51.3996 11.736 51.3676 11.592 51.3356 11.464C51.3996 11.272 51.4636 11.08 51.5276 10.888C51.6076 10.696 51.6316 10.496 51.5996 10.288C51.6316 10.224 51.6716 10.168 51.7196 10.12C51.7676 10.056 51.8076 10 51.8396 9.952C51.9836 9.792 52.0876 9.608 52.1516 9.4C52.1996 9.224 52.2796 9.072 52.3916 8.944C52.5196 8.816 52.6556 8.712 52.7996 8.632C52.9756 8.552 53.1436 8.472 53.3036 8.392C53.4796 8.296 53.6476 8.216 53.8076 8.152C53.8396 8.152 53.8796 8.16 53.9276 8.176C53.9916 8.176 54.0396 8.168 54.0716 8.152C54.3596 8.104 54.6076 8.088 54.8156 8.104C54.9116 8.12 55.0076 8.12 55.1036 8.104C55.1996 8.088 55.2876 8.08 55.3676 8.08L55.8716 7.984C55.9676 8 56.0636 8.024 56.1596 8.056C56.2556 8.088 56.3516 8.08 56.4476 8.032C56.4796 8.032 56.5036 8.04 56.5196 8.056C56.5516 8.056 56.5756 8.056 56.5916 8.056C56.6716 8.088 56.7436 8.128 56.8076 8.176C56.8716 8.208 56.9436 8.224 57.0236 8.224C57.1996 8.256 57.3116 8.224 57.3596 8.128C57.3436 7.856 57.3196 7.68 57.2876 7.6C57.2716 7.52 57.2236 7.392 57.1436 7.216C57.0956 7.12 57.0636 7.024 57.0476 6.928C57.0316 6.816 57.0156 6.712 56.9996 6.616C56.9836 6.552 56.9676 6.496 56.9516 6.448C56.9516 6.384 56.9196 6.32 56.8556 6.256C56.6476 6.192 56.3916 6.144 56.0876 6.112H55.9436C55.7996 6.176 55.6476 6.208 55.4876 6.208C55.3276 6.208 55.1596 6.224 54.9836 6.256C54.8716 6.272 54.7516 6.304 54.6236 6.352C54.5116 6.4 54.3916 6.44 54.2636 6.472C54.1356 6.536 54.0076 6.504 53.8796 6.376C53.8316 6.232 53.8076 6.088 53.8076 5.944C53.8236 5.784 53.8396 5.624 53.8556 5.464C53.8236 5.352 53.7836 5.224 53.7356 5.08C53.6876 4.92 53.6636 4.736 53.6636 4.528L53.6876 4.36C53.6716 4.328 53.6396 4.296 53.5916 4.264C53.5596 4.232 53.5276 4.208 53.4956 4.192C53.4476 4.144 53.4396 4.096 53.4716 4.048C53.4716 4 53.4956 3.976 53.5436 3.976C53.6716 3.944 53.7916 3.92 53.9036 3.904C54.0156 3.888 54.1276 3.872 54.2396 3.856L54.5276 3.568C54.5596 3.552 54.5996 3.544 54.6476 3.544C55.0156 3.608 55.2796 3.632 55.4396 3.616C55.6156 3.6 55.8796 3.536 56.2316 3.424C56.4076 3.44 56.5756 3.464 56.7356 3.496C56.9116 3.528 57.0876 3.536 57.2636 3.52C57.3116 3.568 57.3596 3.616 57.4076 3.664C57.4716 3.696 57.5356 3.736 57.5996 3.784C57.6796 3.752 57.7596 3.728 57.8396 3.712C57.9196 3.68 57.9916 3.656 58.0556 3.64C58.1516 3.704 58.2556 3.768 58.3676 3.832C58.4476 3.848 58.5116 3.832 58.5596 3.784C58.6236 3.736 58.6876 3.712 58.7516 3.712C58.8956 3.728 59.0076 3.8 59.0876 3.928C59.1836 4.04 59.2876 4.136 59.3996 4.216C59.4956 4.28 59.5836 4.36 59.6636 4.456C59.7596 4.552 59.8556 4.64 59.9516 4.72C59.9836 4.768 60.0156 4.816 60.0476 4.864C60.0796 4.912 60.1036 4.96 60.1196 5.008C60.1996 5.072 60.2716 5.128 60.3356 5.176C60.3996 5.208 60.4556 5.256 60.5036 5.32C60.5836 5.384 60.6636 5.432 60.7436 5.464C60.8396 5.496 60.9116 5.552 60.9596 5.632C60.9916 5.712 61.0236 5.8 61.0556 5.896C61.0876 5.976 61.1436 6.048 61.2236 6.112C61.2716 6.272 61.3196 6.44 61.3676 6.616C61.4156 6.776 61.4236 6.944 61.3916 7.12C61.3916 7.2 61.3836 7.272 61.3676 7.336C61.3996 7.416 61.4236 7.504 61.4396 7.6C61.4556 7.696 61.4796 7.784 61.5116 7.864V7.984C61.5116 8.032 61.5036 8.088 61.4876 8.152C61.4876 8.2 61.4956 8.24 61.5116 8.272C61.5436 8.368 61.5836 8.44 61.6316 8.488C61.6316 8.584 61.5916 8.672 61.5116 8.752C61.4796 8.768 61.4396 8.784 61.3916 8.8C61.3436 8.816 61.3036 8.84 61.2716 8.872C61.0796 8.984 61.0556 9.128 61.1996 9.304C61.2156 9.32 61.2396 9.352 61.2716 9.4C61.3196 9.432 61.3516 9.472 61.3676 9.52C61.3836 9.584 61.3916 9.656 61.3916 9.736C61.3916 9.8 61.3996 9.872 61.4156 9.952C61.3516 10.256 61.2316 10.544 61.0556 10.816C61.1036 11.04 61.1756 11.256 61.2716 11.464C61.3836 11.672 61.4796 11.888 61.5596 12.112C61.6396 12.16 61.7036 12.208 61.7516 12.256C61.7996 12.304 61.8556 12.344 61.9196 12.376C61.9356 12.424 61.9436 12.456 61.9436 12.472C61.9596 12.488 61.9676 12.512 61.9676 12.544C61.9676 12.704 61.9836 12.864 62.0156 13.024C62.0636 13.184 62.1196 13.336 62.1836 13.48C62.2476 13.624 62.3116 13.76 62.3756 13.888C62.4396 14.016 62.5196 14.144 62.6156 14.272C62.6956 14.336 62.7596 14.424 62.8076 14.536C62.8556 14.648 62.8956 14.744 62.9276 14.824ZM57.6716 11.584C57.5756 11.344 57.4556 11.184 57.3116 11.104C57.1356 11.024 57.0236 10.92 56.9756 10.792C56.9596 10.728 56.9276 10.688 56.8796 10.672C56.8316 10.656 56.7836 10.64 56.7356 10.624C56.6716 10.624 56.5916 10.632 56.4956 10.648C56.4156 10.648 56.3356 10.656 56.2556 10.672C56.1596 10.672 56.0636 10.656 55.9676 10.624C55.8876 10.592 55.8076 10.568 55.7276 10.552C55.5836 10.552 55.4476 10.592 55.3196 10.672C55.2556 10.72 55.1996 10.768 55.1516 10.816C55.1036 10.848 55.0556 10.896 55.0076 10.96L54.6956 11.536C54.7276 11.632 54.7676 11.72 54.8156 11.8C54.8636 11.864 54.8636 11.96 54.8156 12.088C54.8476 12.232 54.8796 12.384 54.9116 12.544C54.9596 12.688 55.0236 12.832 55.1036 12.976C55.1356 13.008 55.1596 13.024 55.1756 13.024C55.3516 13.056 55.5276 13.072 55.7036 13.072C55.8796 13.072 56.0476 13.064 56.2076 13.048C56.2716 13.048 56.3196 13.04 56.3516 13.024C56.5276 12.928 56.7436 12.84 56.9996 12.76C57.0956 12.744 57.1836 12.672 57.2636 12.544C57.3276 12.4 57.3916 12.248 57.4556 12.088C57.5196 11.912 57.5916 11.744 57.6716 11.584ZM52.5836 15.52C52.5836 15.52 52.5756 15.52 52.5596 15.52C52.5596 15.52 52.5596 15.536 52.5596 15.568C52.5916 15.536 52.5996 15.52 52.5836 15.52ZM84.328 5.44C84.312 5.632 84.312 5.824 84.328 6.016C84.344 6.192 84.336 6.368 84.304 6.544C84.256 6.752 84.224 6.96 84.208 7.168C84.192 7.376 84.176 7.584 84.16 7.792C84.096 7.904 84.04 8.024 83.992 8.152C83.96 8.264 83.912 8.368 83.848 8.464C83.784 8.56 83.72 8.656 83.656 8.752C83.592 8.832 83.52 8.928 83.44 9.04C83.408 9.072 83.392 9.128 83.392 9.208C83.248 9.4 83.088 9.576 82.912 9.736C82.752 9.88 82.568 10 82.36 10.096C82.248 10.288 82.136 10.44 82.024 10.552C81.992 10.6 81.936 10.64 81.856 10.672C81.648 10.768 81.416 10.84 81.16 10.888C80.84 10.968 80.616 11.136 80.488 11.392V11.824C80.504 11.888 80.552 11.928 80.632 11.944C80.728 11.96 80.808 12.008 80.872 12.088C80.872 12.104 80.888 12.12 80.92 12.136C80.952 12.152 80.968 12.176 80.968 12.208C81.032 12.48 81.192 12.656 81.448 12.736C81.544 12.864 81.632 12.992 81.712 13.12C81.808 13.232 81.896 13.344 81.976 13.456C82.056 13.504 82.128 13.552 82.192 13.6C82.272 13.632 82.352 13.672 82.432 13.72C82.464 13.784 82.504 13.864 82.552 13.96C82.616 14.04 82.672 14.12 82.72 14.2C82.784 14.264 82.848 14.32 82.912 14.368C82.976 14.4 83.016 14.432 83.032 14.464C83.08 14.672 83.072 14.808 83.008 14.872C82.816 15.096 82.688 15.304 82.624 15.496C82.592 15.544 82.56 15.584 82.528 15.616C82.496 15.632 82.464 15.656 82.432 15.688C82.32 15.752 82.2 15.792 82.072 15.808C81.944 15.824 81.84 15.872 81.76 15.952C81.68 16.016 81.592 16.048 81.496 16.048C81.4 16.064 81.312 16.104 81.232 16.168C81.104 16.264 80.984 16.368 80.872 16.48C80.776 16.608 80.648 16.712 80.488 16.792C80.424 16.776 80.344 16.768 80.248 16.768C80.152 16.768 80.064 16.768 79.984 16.768L79.504 16.432C79.44 16.368 79.408 16.328 79.408 16.312C79.376 16.232 79.344 16.152 79.312 16.072C79.28 16.008 79.248 15.944 79.216 15.88C79.2 15.816 79.16 15.76 79.096 15.712C79.032 15.648 78.984 15.584 78.952 15.52V15.328C78.952 15.2 78.896 15.136 78.784 15.136C78.736 15.12 78.696 15.112 78.664 15.112C78.632 15.112 78.6 15.112 78.568 15.112C78.328 14.936 78.104 14.72 77.896 14.464C77.736 14.304 77.576 14.184 77.416 14.104C77.272 14.008 77.136 13.888 77.008 13.744C76.88 13.6 76.752 13.456 76.624 13.312C76.544 13.216 76.464 13.12 76.384 13.024C76.304 12.912 76.216 12.824 76.12 12.76C75.976 12.744 75.832 12.744 75.688 12.76C75.544 12.776 75.416 12.816 75.304 12.88C75.272 12.88 75.232 12.92 75.184 13C75.168 13.112 75.152 13.224 75.136 13.336C75.12 13.432 75.104 13.536 75.088 13.648C75.152 13.952 75.16 14.264 75.112 14.584C75.064 14.76 75.032 14.936 75.016 15.112C75.016 15.288 75.008 15.464 74.992 15.64C74.992 15.704 74.992 15.776 74.992 15.856C74.992 15.936 74.976 16.008 74.944 16.072C74.912 16.216 74.824 16.312 74.68 16.36H74.584C74.52 16.344 74.456 16.328 74.392 16.312C74.344 16.312 74.28 16.304 74.2 16.288C73.96 16.352 73.712 16.36 73.456 16.312C73.2 16.264 72.944 16.224 72.688 16.192C72.432 16.16 72.184 16.12 71.944 16.072C71.912 16.072 71.88 16.064 71.848 16.048C71.832 16.048 71.808 16.04 71.776 16.024C71.712 15.96 71.68 15.904 71.68 15.856C71.68 15.712 71.672 15.568 71.656 15.424C71.64 15.264 71.616 15.104 71.584 14.944C71.504 14.656 71.52 14.408 71.632 14.2C71.616 14.056 71.6 13.912 71.584 13.768C71.568 13.624 71.568 13.488 71.584 13.36C71.616 13.296 71.616 13.216 71.584 13.12C71.568 13.024 71.528 12.992 71.464 13.024C71.448 13.04 71.424 13.048 71.392 13.048C71.36 13.032 71.344 13.016 71.344 13C71.328 12.968 71.312 12.936 71.296 12.904C71.28 12.856 71.264 12.824 71.248 12.808C71.248 12.728 71.248 12.64 71.248 12.544C71.248 12.448 71.24 12.36 71.224 12.28C71.224 12.2 71.224 12.12 71.224 12.04C71.224 11.96 71.208 11.888 71.176 11.824C71.128 11.664 71.104 11.496 71.104 11.32C71.104 11.144 71.104 10.976 71.104 10.816C71.088 10.752 71.072 10.704 71.056 10.672C71.04 10.624 71.016 10.576 70.984 10.528C71.016 10.416 71.04 10.312 71.056 10.216C71.088 10.104 71.064 9.992 70.984 9.88C71.016 9.752 71.024 9.624 71.008 9.496C70.992 9.352 71.024 9.208 71.104 9.064C71.136 8.984 71.144 8.904 71.128 8.824C71.112 8.744 71.096 8.648 71.08 8.536C71.112 8.408 71.152 8.288 71.2 8.176C71.248 8.048 71.288 7.904 71.32 7.744C71.304 7.664 71.28 7.528 71.248 7.336C71.216 7.256 71.192 7.184 71.176 7.12C71.16 7.056 71.144 6.992 71.128 6.928C71.112 6.848 71.12 6.776 71.152 6.712C71.2 6.632 71.208 6.552 71.176 6.472C71.16 6.36 71.152 6.288 71.152 6.256C71.168 6.224 71.208 6.16 71.272 6.064C71.256 6.032 71.248 6.008 71.248 5.992C71.248 5.96 71.24 5.936 71.224 5.92C71.08 5.728 71.048 5.488 71.128 5.2C71.16 5.104 71.192 5.008 71.224 4.912C71.272 4.816 71.304 4.728 71.32 4.648C71.304 4.584 71.288 4.52 71.272 4.456C71.272 4.392 71.264 4.328 71.248 4.264L71.416 3.688C71.384 3.576 71.36 3.464 71.344 3.352C71.328 3.24 71.304 3.128 71.272 3.016C71.272 2.872 71.336 2.72 71.464 2.56C71.528 2.48 71.592 2.448 71.656 2.464C71.736 2.48 71.832 2.48 71.944 2.464C72.056 2.432 72.168 2.392 72.28 2.344C72.408 2.296 72.544 2.264 72.688 2.248C72.832 2.232 72.968 2.168 73.096 2.056C73.224 1.976 73.352 1.912 73.48 1.864C73.608 1.8 73.736 1.752 73.864 1.72C74.12 1.768 74.28 1.792 74.344 1.792C74.424 1.776 74.552 1.712 74.728 1.6H75.16C75.24 1.584 75.32 1.568 75.4 1.552C75.48 1.52 75.568 1.496 75.664 1.48C75.696 1.448 75.744 1.408 75.808 1.36C75.888 1.312 75.96 1.272 76.024 1.24C76.12 1.224 76.224 1.208 76.336 1.192C76.448 1.16 76.56 1.136 76.672 1.12C76.72 1.136 76.76 1.16 76.792 1.192C76.84 1.208 76.888 1.232 76.936 1.264C77.032 1.312 77.112 1.368 77.176 1.432C77.24 1.464 77.296 1.48 77.344 1.48C77.504 1.496 77.656 1.512 77.8 1.528C77.944 1.528 78.096 1.52 78.256 1.504C78.304 1.488 78.36 1.48 78.424 1.48C78.504 1.48 78.576 1.48 78.64 1.48C78.72 1.48 78.808 1.488 78.904 1.504C79 1.504 79.088 1.512 79.168 1.528C79.264 1.528 79.336 1.56 79.384 1.624C79.448 1.688 79.504 1.72 79.552 1.72C79.776 1.784 79.984 1.816 80.176 1.816C80.368 1.816 80.56 1.808 80.752 1.792C80.832 1.824 80.912 1.864 80.992 1.912C81.088 1.944 81.176 1.976 81.256 2.008C81.32 1.976 81.368 1.952 81.4 1.936C81.448 1.904 81.496 1.88 81.544 1.864C81.672 1.832 81.768 1.84 81.832 1.888C81.88 1.92 81.92 1.952 81.952 1.984C82 2.016 82.048 2.048 82.096 2.08C82.128 2.128 82.16 2.176 82.192 2.224C82.224 2.272 82.272 2.312 82.336 2.344H82.672C82.736 2.36 82.808 2.424 82.888 2.536C82.984 2.648 83.072 2.76 83.152 2.872C83.248 2.984 83.352 3.104 83.464 3.232C83.576 3.344 83.672 3.472 83.752 3.616C83.832 3.744 83.928 3.872 84.04 4C84.088 4.032 84.12 4.08 84.136 4.144C84.168 4.208 84.192 4.272 84.208 4.336C84.208 4.528 84.208 4.72 84.208 4.912C84.224 5.088 84.264 5.264 84.328 5.44ZM72.52 2.464V2.44H72.472L72.52 2.464ZM80.8 6.76C80.8 6.76 80.792 6.752 80.776 6.736C80.76 6.72 80.752 6.704 80.752 6.688C80.752 6.544 80.728 6.408 80.68 6.28C80.632 6.136 80.544 6.016 80.416 5.92C80.352 5.888 80.304 5.848 80.272 5.8C80.24 5.736 80.2 5.68 80.152 5.632C80.04 5.488 79.912 5.368 79.768 5.272C79.752 5.24 79.72 5.224 79.672 5.224C79.624 5.208 79.584 5.192 79.552 5.176C79.472 5.224 79.336 5.272 79.144 5.32C79.016 5.24 78.88 5.2 78.736 5.2C78.592 5.2 78.44 5.216 78.28 5.248C78.12 5.248 77.952 5.248 77.776 5.248C77.616 5.232 77.456 5.248 77.296 5.296C77.12 5.28 76.944 5.28 76.768 5.296C76.592 5.312 76.416 5.328 76.24 5.344C76.096 5.344 75.992 5.352 75.928 5.368C75.816 5.432 75.704 5.464 75.592 5.464C75.496 5.448 75.392 5.456 75.28 5.488C75.216 5.552 75.176 5.632 75.16 5.728C75.144 5.824 75.12 5.912 75.088 5.992C75.184 6.36 75.168 6.728 75.04 7.096C75.12 7.208 75.176 7.32 75.208 7.432C75.256 7.528 75.256 7.64 75.208 7.768C75.208 7.784 75.208 7.8 75.208 7.816C75.224 7.832 75.232 7.848 75.232 7.864C75.264 7.96 75.28 8.056 75.28 8.152C75.28 8.248 75.264 8.344 75.232 8.44C75.2 8.456 75.16 8.48 75.112 8.512C75.08 8.528 75.048 8.552 75.016 8.584C75.096 8.664 75.192 8.704 75.304 8.704C75.352 8.672 75.408 8.648 75.472 8.632C75.536 8.6 75.6 8.56 75.664 8.512C75.936 8.592 76.208 8.624 76.48 8.608C76.768 8.592 77.04 8.64 77.296 8.752H77.464C77.528 8.752 77.6 8.744 77.68 8.728C77.76 8.712 77.832 8.704 77.896 8.704C77.96 8.656 78.048 8.616 78.16 8.584C78.512 8.488 78.824 8.328 79.096 8.104C79.208 8.024 79.32 7.976 79.432 7.96C79.544 7.928 79.656 7.904 79.768 7.888C79.816 7.888 79.864 7.888 79.912 7.888C79.976 7.888 80.04 7.88 80.104 7.864C80.152 7.736 80.232 7.632 80.344 7.552C80.472 7.456 80.576 7.344 80.656 7.216C80.592 7.136 80.592 7.064 80.656 7C80.736 6.936 80.784 6.856 80.8 6.76ZM96.6427 7.168C96.6747 7.264 96.6827 7.36 96.6667 7.456C96.6667 7.552 96.6507 7.64 96.6187 7.72C96.5867 7.832 96.5627 7.952 96.5467 8.08C96.5467 8.192 96.5467 8.312 96.5467 8.44C96.5467 8.6 96.5387 8.76 96.5227 8.92C96.5227 9.064 96.5227 9.216 96.5227 9.376C96.5227 9.488 96.5227 9.608 96.5227 9.736C96.5227 9.864 96.5067 10 96.4747 10.144C96.4107 10.4 96.3387 10.664 96.2587 10.936C96.1787 11.208 96.1147 11.488 96.0667 11.776C96.0507 11.808 96.0347 11.856 96.0187 11.92C96.0187 11.968 96.0027 12.024 95.9707 12.088C95.8267 12.392 95.6827 12.728 95.5387 13.096C95.4747 13.176 95.4027 13.264 95.3227 13.36C95.2587 13.456 95.1867 13.544 95.1067 13.624C95.0427 13.672 94.9707 13.712 94.8907 13.744C94.8267 13.776 94.7627 13.808 94.6987 13.84C94.6667 13.84 94.6427 13.872 94.6267 13.936C94.6587 13.968 94.6827 14.008 94.6987 14.056C94.7307 14.104 94.7547 14.144 94.7707 14.176C94.6427 14.368 94.4507 14.552 94.1947 14.728C94.1307 14.744 94.0507 14.768 93.9547 14.8C93.8747 14.816 93.7867 14.832 93.6907 14.848C93.5307 14.944 93.3467 15.072 93.1387 15.232C93.1227 15.264 93.0987 15.312 93.0667 15.376C93.0347 15.424 93.0027 15.464 92.9707 15.496C92.8587 15.56 92.7467 15.584 92.6347 15.568C92.5387 15.552 92.4267 15.536 92.2987 15.52C92.2507 15.536 92.2027 15.56 92.1547 15.592C92.1227 15.608 92.0827 15.632 92.0347 15.664C92.0027 15.68 91.9627 15.712 91.9147 15.76C91.8827 15.792 91.8507 15.816 91.8187 15.832C91.6267 15.912 91.4347 15.936 91.2427 15.904C91.0507 15.872 90.8587 15.88 90.6667 15.928C90.5867 15.88 90.4987 15.84 90.4027 15.808C90.3227 15.776 90.2427 15.744 90.1627 15.712C90.1627 15.68 90.1627 15.648 90.1627 15.616C90.1787 15.584 90.1947 15.544 90.2107 15.496C90.1787 15.384 90.1067 15.32 89.9947 15.304C89.8827 15.272 89.7707 15.24 89.6587 15.208C89.5627 15.176 89.4587 15.176 89.3467 15.208C89.2347 15.208 89.1787 15.128 89.1787 14.968C89.1467 14.824 89.0907 14.752 89.0107 14.752H88.9147C88.8027 14.8 88.6907 14.808 88.5787 14.776C88.4827 14.728 88.3867 14.664 88.2907 14.584C88.2267 14.52 88.1867 14.432 88.1707 14.32C88.1707 14.208 88.1387 14.096 88.0747 13.984C88.0267 13.904 87.9467 13.84 87.8347 13.792C87.7387 13.728 87.6507 13.664 87.5707 13.6C87.4747 13.36 87.3787 13.136 87.2827 12.928C87.1867 12.704 87.0987 12.488 87.0187 12.28C86.9707 12.184 86.9467 12.104 86.9467 12.04C86.9627 11.96 86.9707 11.864 86.9707 11.752L86.8987 11.632C86.8987 11.632 86.8827 11.6 86.8507 11.536C86.7387 11.216 86.6667 10.896 86.6347 10.576C86.6027 10.256 86.6347 9.928 86.7307 9.592C86.7147 9.544 86.6907 9.496 86.6587 9.448C86.6427 9.4 86.6187 9.36 86.5867 9.328C86.5547 9.248 86.5547 9.168 86.5867 9.088C86.6347 9.008 86.6587 8.936 86.6587 8.872C86.6267 8.648 86.6347 8.464 86.6827 8.32C86.7147 8.24 86.7227 8.16 86.7067 8.08C86.6907 8 86.6907 7.928 86.7067 7.864C86.7547 7.672 86.7867 7.488 86.8027 7.312C86.8187 7.12 86.8347 6.936 86.8507 6.76C86.8667 6.408 86.9147 6.064 86.9947 5.728C87.0267 5.6 87.0747 5.488 87.1387 5.392C87.2027 5.296 87.2667 5.2 87.3307 5.104C87.3627 5.072 87.4027 5.048 87.4507 5.032C87.4987 5.016 87.5467 5 87.5947 4.984C87.6907 4.968 87.7867 4.952 87.8827 4.936C87.9947 4.92 88.1227 4.904 88.2667 4.888C88.3467 4.904 88.4347 4.92 88.5307 4.936C88.6427 4.952 88.7547 4.96 88.8667 4.96C88.9787 4.976 89.0907 4.992 89.2027 5.008C89.3147 5.008 89.4347 5.016 89.5627 5.032C89.5787 5.08 89.5947 5.12 89.6107 5.152C89.6267 5.184 89.6427 5.216 89.6587 5.248C89.6587 5.36 89.6507 5.472 89.6347 5.584C89.6347 5.68 89.6347 5.784 89.6347 5.896C89.6507 5.944 89.6667 5.992 89.6827 6.04C89.7147 6.072 89.7387 6.12 89.7547 6.184C89.7387 6.248 89.7147 6.32 89.6827 6.4C89.6667 6.48 89.6427 6.56 89.6107 6.64C89.6587 6.896 89.6827 7.168 89.6827 7.456C89.6827 7.728 89.6987 8 89.7307 8.272C89.7627 8.448 89.7867 8.624 89.8027 8.8C89.8187 8.96 89.8507 9.128 89.8987 9.304C89.8827 9.416 89.8907 9.528 89.9227 9.64C89.9547 9.752 89.9867 9.864 90.0187 9.976C90.0667 10.088 90.0987 10.2 90.1147 10.312C90.1467 10.424 90.1787 10.544 90.2107 10.672C90.2907 10.928 90.4107 11.16 90.5707 11.368C90.6667 11.464 90.7387 11.528 90.7867 11.56C90.8187 11.576 90.8507 11.584 90.8827 11.584C90.9307 11.584 90.9707 11.592 91.0027 11.608C91.1147 11.608 91.2027 11.576 91.2667 11.512C91.3307 11.448 91.4027 11.408 91.4827 11.392C91.6587 11.312 91.8267 11.248 91.9867 11.2C92.0667 11.216 92.1467 11.224 92.2267 11.224H92.3947L92.7787 10.984C92.8587 10.856 92.9147 10.712 92.9467 10.552C92.9787 10.392 93.0507 10.256 93.1627 10.144C93.2427 10.016 93.3147 9.888 93.3787 9.76C93.4427 9.632 93.5227 9.528 93.6187 9.448C93.6507 9.224 93.6747 9.016 93.6907 8.824C93.7067 8.632 93.7467 8.44 93.8107 8.248C93.8267 8.2 93.8267 8.152 93.8107 8.104C93.8107 8.04 93.8107 7.984 93.8107 7.936C93.7947 7.84 93.7787 7.752 93.7627 7.672C93.7627 7.576 93.7627 7.512 93.7627 7.48C93.7787 7.304 93.7867 7.144 93.7867 7C93.7867 6.856 93.7947 6.72 93.8107 6.592C93.8267 6.464 93.8347 6.336 93.8347 6.208C93.8347 6.064 93.8427 5.936 93.8587 5.824C93.8907 5.568 94.0027 5.392 94.1947 5.296C94.2587 5.264 94.3147 5.24 94.3627 5.224C94.4107 5.192 94.4667 5.168 94.5307 5.152C94.5947 5.136 94.6587 5.128 94.7227 5.128C94.7867 5.128 94.8667 5.12 94.9627 5.104C95.0427 5.12 95.1227 5.144 95.2027 5.176C95.2987 5.208 95.3947 5.24 95.4907 5.272C95.5867 5.288 95.6747 5.288 95.7547 5.272C95.8507 5.256 95.9467 5.232 96.0427 5.2C96.1067 5.216 96.1627 5.232 96.2107 5.248C96.2587 5.264 96.3147 5.288 96.3787 5.32C96.3947 5.336 96.4107 5.36 96.4267 5.392C96.4427 5.408 96.4507 5.432 96.4507 5.464C96.4667 5.544 96.4827 5.632 96.4987 5.728C96.5147 5.824 96.5227 5.92 96.5227 6.016C96.5387 6.208 96.5467 6.4 96.5467 6.592C96.5627 6.784 96.5947 6.976 96.6427 7.168ZM105.361 14.056C105.361 14.2 105.297 14.32 105.169 14.416C105.041 14.544 105.009 14.696 105.073 14.872C105.105 14.984 105.121 15.104 105.121 15.232C105.121 15.36 105.121 15.488 105.121 15.616C105.105 15.648 105.081 15.688 105.049 15.736C105.033 15.768 105.009 15.8 104.977 15.832C104.913 15.864 104.873 15.88 104.857 15.88C104.729 15.896 104.601 15.912 104.473 15.928C104.345 15.928 104.217 15.928 104.089 15.928C104.009 15.928 103.969 15.928 103.969 15.928C103.745 15.864 103.521 15.832 103.297 15.832C103.089 15.816 102.881 15.792 102.673 15.76C102.545 15.728 102.425 15.712 102.313 15.712C102.201 15.712 102.089 15.728 101.977 15.76C101.817 15.68 101.657 15.6 101.497 15.52C101.353 15.424 101.193 15.336 101.017 15.256C100.905 15.08 100.761 14.936 100.585 14.824C100.425 14.696 100.281 14.544 100.153 14.368C100.121 14.288 100.081 14.208 100.033 14.128C100.001 14.048 99.9613 13.976 99.9133 13.912C99.7533 13.672 99.6493 13.408 99.6013 13.12C99.6013 13.008 99.5613 12.912 99.4813 12.832C99.3533 12.592 99.3213 12.368 99.3853 12.16C99.4013 12.128 99.4013 12.096 99.3853 12.064C99.3853 12.016 99.3933 11.984 99.4093 11.968C99.3453 11.888 99.2973 11.824 99.2653 11.776C99.2333 11.728 99.2013 11.68 99.1693 11.632C99.1693 11.52 99.1773 11.44 99.1933 11.392L99.0013 11.152C99.0333 10.976 99.0573 10.8 99.0733 10.624C99.1053 10.432 99.1373 10.256 99.1693 10.096L99.0013 9.856C99.0013 9.792 99.0253 9.744 99.0733 9.712C99.1213 9.664 99.1613 9.608 99.1933 9.544C99.2573 9.368 99.2973 9.2 99.3133 9.04C99.3613 8.848 99.3853 8.664 99.3853 8.488C99.3533 8.136 99.3533 7.792 99.3853 7.456C99.4173 7.12 99.4253 6.776 99.4093 6.424C99.4893 6.072 99.5213 5.72 99.5053 5.368C99.4893 5.016 99.5133 4.672 99.5773 4.336C99.5773 4.256 99.5773 4.216 99.5773 4.216C99.5293 4.024 99.5293 3.84 99.5773 3.664C99.6253 3.488 99.6813 3.328 99.7453 3.184C99.7293 3.152 99.7213 3.112 99.7213 3.064C99.7213 3.016 99.7053 2.976 99.6733 2.944C99.7053 2.832 99.7533 2.744 99.8173 2.68C99.8813 2.6 99.9373 2.528 99.9853 2.464C100.017 2.4 100.041 2.336 100.057 2.272C100.089 2.192 100.113 2.12 100.129 2.056L100.297 1.888C100.441 1.856 100.593 1.848 100.753 1.864C100.801 1.88 100.849 1.904 100.897 1.936C100.961 1.968 101.025 2 101.089 2.032C101.201 2.096 101.305 2.152 101.401 2.2C101.513 2.232 101.633 2.24 101.761 2.224C101.937 2.288 102.105 2.328 102.265 2.344C102.441 2.36 102.609 2.36 102.769 2.344H102.865C102.865 2.344 102.865 2.352 102.865 2.368C102.881 2.368 102.897 2.368 102.913 2.368C102.993 2.384 103.065 2.424 103.129 2.488C103.193 2.552 103.209 2.624 103.177 2.704C103.145 2.944 103.121 3.184 103.105 3.424C103.105 3.664 103.089 3.904 103.057 4.144C103.025 4.368 102.993 4.6 102.961 4.84C102.929 5.064 102.889 5.288 102.841 5.512C102.825 5.864 102.793 6.216 102.745 6.568C102.713 6.904 102.697 7.24 102.697 7.576C102.697 7.624 102.697 7.664 102.697 7.696C102.713 7.728 102.721 7.76 102.721 7.792C102.641 7.952 102.577 8.112 102.529 8.272C102.497 8.432 102.457 8.6 102.409 8.776C102.377 8.904 102.377 9.04 102.409 9.184C102.457 9.376 102.473 9.568 102.457 9.76C102.457 9.952 102.441 10.152 102.409 10.36V10.504C102.441 10.568 102.473 10.64 102.505 10.72C102.553 10.8 102.593 10.88 102.625 10.96C102.609 11.008 102.593 11.064 102.577 11.128C102.561 11.176 102.545 11.224 102.529 11.272C102.561 11.352 102.577 11.44 102.577 11.536C102.593 11.632 102.609 11.72 102.625 11.8C102.689 11.88 102.753 11.96 102.817 12.04C102.881 12.104 102.921 12.184 102.937 12.28C102.937 12.312 102.953 12.352 102.985 12.4C103.017 12.448 103.041 12.488 103.057 12.52C103.089 12.6 103.137 12.664 103.201 12.712C103.281 12.76 103.353 12.8 103.417 12.832C103.529 12.848 103.633 12.872 103.729 12.904C103.825 12.936 103.929 12.968 104.041 13C104.105 13 104.153 13 104.185 13C104.233 12.984 104.281 12.976 104.329 12.976C104.361 12.992 104.401 13.008 104.449 13.024C104.513 13.04 104.569 13.056 104.617 13.072C104.633 13.088 104.649 13.112 104.665 13.144C104.681 13.16 104.697 13.176 104.713 13.192C104.745 13.32 104.833 13.456 104.977 13.6C105.057 13.664 105.129 13.736 105.193 13.816C105.273 13.88 105.329 13.96 105.361 14.056ZM118.056 7.528C118.04 7.688 118.024 7.856 118.008 8.032C118.008 8.192 117.992 8.352 117.96 8.512C117.944 8.672 117.936 8.848 117.936 9.04C117.936 9.216 117.904 9.4 117.84 9.592C117.808 9.64 117.768 9.696 117.72 9.76C117.672 9.808 117.624 9.872 117.576 9.952C117.576 10.016 117.576 10.072 117.576 10.12C117.592 10.168 117.608 10.224 117.624 10.288C117.592 10.368 117.544 10.44 117.48 10.504C117.416 10.552 117.352 10.592 117.288 10.624C117.128 10.672 116.976 10.72 116.832 10.768C116.704 10.816 116.568 10.856 116.424 10.888C116.2 10.92 115.968 10.928 115.728 10.912C115.488 10.88 115.248 10.872 115.008 10.888C114.8 10.888 114.576 10.896 114.336 10.912C114.112 10.912 113.88 10.912 113.64 10.912H112.296C112.232 10.96 112.16 10.976 112.08 10.96C112.016 10.944 111.952 10.952 111.888 10.984C111.824 10.952 111.752 10.952 111.672 10.984C111.592 11 111.512 10.992 111.432 10.96C111.368 10.976 111.304 10.992 111.24 11.008C111.192 11.008 111.128 11.016 111.048 11.032C110.984 11.016 110.928 11 110.88 10.984C110.832 10.952 110.776 10.96 110.712 11.008C110.744 11.056 110.776 11.112 110.808 11.176C110.856 11.224 110.888 11.288 110.904 11.368C110.952 11.432 110.992 11.496 111.024 11.56C111.056 11.624 111.088 11.696 111.12 11.776C111.152 11.84 111.176 11.912 111.192 11.992C111.208 12.056 111.224 12.12 111.24 12.184C111.32 12.264 111.408 12.344 111.504 12.424C111.6 12.504 111.696 12.584 111.792 12.664C111.872 12.68 111.952 12.696 112.032 12.712C112.128 12.728 112.216 12.744 112.296 12.76C112.392 12.776 112.488 12.792 112.584 12.808C112.68 12.824 112.784 12.824 112.896 12.808C113.008 12.776 113.112 12.784 113.208 12.832C113.304 12.864 113.408 12.888 113.52 12.904C113.664 12.888 113.808 12.872 113.952 12.856C114.112 12.84 114.264 12.824 114.408 12.808C114.472 12.76 114.536 12.72 114.6 12.688C114.68 12.64 114.752 12.592 114.816 12.544C115.024 12.496 115.232 12.504 115.44 12.568C115.488 12.648 115.544 12.728 115.608 12.808C115.688 12.888 115.76 12.976 115.824 13.072C115.92 13.216 116.016 13.36 116.112 13.504C116.208 13.632 116.272 13.784 116.304 13.96C116.336 14.04 116.384 14.12 116.448 14.2C116.512 14.28 116.56 14.352 116.592 14.416C116.608 14.496 116.6 14.568 116.568 14.632C116.552 14.696 116.536 14.768 116.52 14.848C116.456 14.912 116.376 14.968 116.28 15.016C116.264 15.016 116.248 15.032 116.232 15.064C116.216 15.096 116.192 15.12 116.16 15.136C116.064 15.2 115.968 15.264 115.872 15.328C115.776 15.392 115.688 15.456 115.608 15.52C115.384 15.712 115.152 15.808 114.912 15.808C114.816 15.808 114.744 15.816 114.696 15.832C114.616 15.848 114.536 15.88 114.456 15.928C114.376 15.976 114.288 16.016 114.192 16.048C114.112 16.048 114.032 16.056 113.952 16.072C113.872 16.104 113.792 16.128 113.712 16.144C113.664 16.144 113.608 16.136 113.544 16.12C113.48 16.12 113.416 16.12 113.352 16.12C113.208 16.136 113.064 16.128 112.92 16.096C112.776 16.064 112.632 16.048 112.488 16.048C112.44 16.032 112.392 16.016 112.344 16C112.296 15.984 112.248 15.976 112.2 15.976C111.928 15.992 111.672 15.952 111.432 15.856C111.192 15.744 110.952 15.632 110.712 15.52C110.52 15.472 110.384 15.384 110.304 15.256C110.192 15.128 110.064 15.024 109.92 14.944C109.792 14.848 109.648 14.768 109.488 14.704C109.392 14.672 109.296 14.632 109.2 14.584C109.104 14.52 109 14.456 108.888 14.392C108.872 14.328 108.848 14.264 108.816 14.2C108.784 14.136 108.752 14.072 108.72 14.008C108.688 13.96 108.64 13.912 108.576 13.864C108.528 13.816 108.48 13.768 108.432 13.72C108.384 13.672 108.344 13.616 108.312 13.552C108.232 13.28 108.152 13.016 108.072 12.76C107.992 12.488 107.888 12.224 107.76 11.968C107.776 11.856 107.784 11.744 107.784 11.632C107.8 11.504 107.792 11.368 107.76 11.224C107.744 11.192 107.736 11.152 107.736 11.104C107.736 11.056 107.736 11.016 107.736 10.984C107.736 10.904 107.736 10.84 107.736 10.792C107.752 10.728 107.752 10.672 107.736 10.624C107.72 10.496 107.704 10.368 107.688 10.24C107.672 10.112 107.68 9.992 107.712 9.88C107.744 9.752 107.776 9.624 107.808 9.496C107.84 9.368 107.88 9.232 107.928 9.088C107.912 9.056 107.904 9.008 107.904 8.944C107.904 8.88 107.896 8.816 107.88 8.752C107.912 8.576 107.944 8.4 107.976 8.224C108.008 8.048 108.048 7.88 108.096 7.72C108.144 7.624 108.192 7.536 108.24 7.456C108.304 7.36 108.368 7.264 108.432 7.168C108.544 6.976 108.632 6.792 108.696 6.616C108.888 6.52 109 6.464 109.032 6.448C109.08 6.416 109.12 6.376 109.152 6.328C109.184 6.28 109.288 6.184 109.464 6.04C109.448 5.992 109.488 5.92 109.584 5.824C109.68 5.728 109.712 5.648 109.68 5.584C109.824 5.312 110.032 5.096 110.304 4.936C110.4 4.872 110.488 4.808 110.568 4.744C110.664 4.664 110.744 4.592 110.808 4.528C110.888 4.48 110.96 4.464 111.024 4.48C111.104 4.48 111.176 4.48 111.24 4.48C111.288 4.464 111.336 4.456 111.384 4.456C111.448 4.44 111.512 4.424 111.576 4.408C111.608 4.392 111.648 4.376 111.696 4.36C111.744 4.344 111.784 4.32 111.816 4.288C111.848 4.272 111.88 4.256 111.912 4.24C111.944 4.224 111.976 4.216 112.008 4.216C112.152 4.2 112.288 4.16 112.416 4.096C112.544 4.032 112.664 3.968 112.776 3.904C113.016 4 113.264 4.032 113.52 4C113.68 3.984 113.832 3.992 113.976 4.024C114.136 4.056 114.28 4.096 114.408 4.144L114.744 4.048C114.872 4.064 114.992 4.104 115.104 4.168C115.216 4.232 115.328 4.296 115.44 4.36H115.656C115.672 4.376 115.688 4.392 115.704 4.408C115.72 4.408 115.736 4.416 115.752 4.432C115.928 4.592 116.096 4.744 116.256 4.888C116.416 5.016 116.584 5.152 116.76 5.296C117 5.456 117.152 5.648 117.216 5.872C117.28 5.968 117.336 6.04 117.384 6.088C117.576 6.248 117.744 6.464 117.888 6.736C117.888 6.768 117.888 6.816 117.888 6.88C117.904 6.928 117.912 6.976 117.912 7.024C117.896 7.104 117.912 7.184 117.96 7.264C118.008 7.344 118.04 7.432 118.056 7.528ZM115.008 8.32V7.72C115.008 7.64 115 7.592 114.984 7.576C114.968 7.528 114.944 7.48 114.912 7.432C114.896 7.384 114.88 7.352 114.864 7.336V6.928L114.792 6.856C114.728 6.856 114.648 6.84 114.552 6.808C114.52 6.664 114.48 6.552 114.432 6.472C114.384 6.408 114.32 6.368 114.24 6.352C114.16 6.336 114.072 6.312 113.976 6.28C113.768 6.344 113.544 6.4 113.304 6.448C113.064 6.496 112.832 6.56 112.608 6.64C112.496 6.656 112.392 6.664 112.296 6.664C112.2 6.664 112.104 6.672 112.008 6.688C111.848 6.752 111.704 6.856 111.576 7C111.464 7.128 111.352 7.256 111.24 7.384C111.176 7.464 111.12 7.552 111.072 7.648C111.024 7.744 110.968 7.832 110.904 7.912C110.888 7.928 110.88 7.976 110.88 8.056C110.928 8.184 111 8.264 111.096 8.296C111.192 8.312 111.288 8.336 111.384 8.368C111.48 8.4 111.584 8.432 111.696 8.464C111.744 8.448 111.784 8.44 111.816 8.44C111.864 8.44 111.912 8.432 111.96 8.416C112.152 8.336 112.312 8.328 112.44 8.392C112.568 8.408 112.68 8.408 112.776 8.392C112.888 8.376 113 8.36 113.112 8.344C113.208 8.392 113.304 8.424 113.4 8.44C113.512 8.456 113.616 8.48 113.712 8.512C113.92 8.576 114.12 8.608 114.312 8.608C114.504 8.608 114.696 8.584 114.888 8.536C114.968 8.456 115.008 8.384 115.008 8.32ZM127.2 8.464C127.184 8.544 127.16 8.632 127.128 8.728C127.112 8.808 127.096 8.896 127.08 8.992C127.064 9.152 127.064 9.304 127.08 9.448C127.112 9.592 127.12 9.736 127.104 9.88C127.088 9.912 127.072 9.952 127.056 10C127.056 10.032 127.04 10.064 127.008 10.096C126.976 10.16 126.936 10.216 126.888 10.264C126.856 10.312 126.824 10.368 126.792 10.432H126.552C126.152 10.352 125.728 10.328 125.28 10.36C125.104 10.376 124.936 10.384 124.776 10.384C124.616 10.384 124.456 10.36 124.296 10.312C124.184 10.28 124.08 10.272 123.984 10.288C123.888 10.304 123.792 10.304 123.696 10.288C123.584 10.256 123.464 10.248 123.336 10.264C123.224 10.264 123.112 10.256 123 10.24C122.888 10.224 122.784 10.216 122.688 10.216C122.592 10.216 122.496 10.216 122.4 10.216C122.32 10.216 122.264 10.224 122.232 10.24C121.976 10.304 121.72 10.32 121.464 10.288C121.208 10.256 120.968 10.24 120.744 10.24C120.648 10.176 120.56 10.12 120.48 10.072C120.416 10.008 120.376 9.92 120.36 9.808C120.392 9.728 120.392 9.64 120.36 9.544C120.328 9.432 120.336 9.328 120.384 9.232C120.352 9.12 120.352 9.016 120.384 8.92C120.432 8.824 120.448 8.72 120.432 8.608C120.464 8.464 120.464 8.376 120.432 8.344C120.4 8.312 120.384 8.192 120.384 7.984C120.384 7.856 120.384 7.752 120.384 7.672C120.384 7.592 120.44 7.528 120.552 7.48C120.616 7.48 120.744 7.496 120.936 7.528C121.128 7.544 121.32 7.568 121.512 7.6C121.704 7.616 121.832 7.632 121.896 7.648C122.008 7.648 122.112 7.648 122.208 7.648C122.304 7.648 122.408 7.656 122.52 7.672H122.808C122.936 7.688 123.152 7.696 123.456 7.696C123.776 7.696 124.008 7.688 124.152 7.672C124.248 7.672 124.32 7.664 124.368 7.648C124.736 7.648 125.096 7.648 125.448 7.648C125.816 7.632 126.176 7.616 126.528 7.6C126.64 7.6 126.776 7.64 126.936 7.72C126.968 7.736 126.992 7.768 127.008 7.816C127.04 7.864 127.064 7.904 127.08 7.936C127.192 8.08 127.232 8.256 127.2 8.464ZM141.949 10.96C141.933 11.024 141.901 11.12 141.853 11.248C141.821 11.376 141.789 11.512 141.757 11.656C141.741 11.72 141.725 11.784 141.709 11.848C141.709 11.896 141.709 11.944 141.709 11.992C141.693 12.072 141.685 12.152 141.685 12.232C141.685 12.296 141.685 12.352 141.685 12.4C141.573 12.608 141.461 12.816 141.349 13.024C141.253 13.216 141.181 13.424 141.133 13.648C141.069 13.904 140.965 14.144 140.821 14.368C140.677 14.576 140.541 14.792 140.413 15.016C140.349 15.08 140.293 15.144 140.245 15.208C140.197 15.256 140.149 15.312 140.101 15.376C139.925 15.44 139.757 15.52 139.597 15.616C139.437 15.696 139.293 15.8 139.165 15.928C139.149 15.944 139.117 15.96 139.069 15.976C139.037 15.992 139.005 16.008 138.973 16.024C138.797 16.088 138.621 16.16 138.445 16.24C138.269 16.32 138.093 16.4 137.917 16.48L137.269 16.384C137.157 16.4 137.045 16.424 136.933 16.456C136.821 16.504 136.717 16.544 136.621 16.576C136.509 16.56 136.421 16.504 136.357 16.408C136.309 16.376 136.261 16.336 136.213 16.288C136.165 16.256 136.101 16.256 136.021 16.288C135.925 16.304 135.845 16.28 135.781 16.216C135.717 16.152 135.645 16.104 135.565 16.072C135.517 16.088 135.469 16.096 135.421 16.096C135.389 16.112 135.333 16.128 135.253 16.144L134.869 16.048C134.725 16.048 134.589 16.072 134.461 16.12C134.381 16.088 134.301 16.048 134.221 16C134.141 15.952 134.045 15.928 133.933 15.928C133.821 15.928 133.709 15.912 133.597 15.88C133.501 15.832 133.397 15.8 133.285 15.784C133.189 15.768 133.093 15.752 132.997 15.736C132.917 15.72 132.837 15.704 132.757 15.688C132.693 15.656 132.645 15.616 132.613 15.568C132.581 15.52 132.549 15.472 132.517 15.424C132.453 15.392 132.405 15.376 132.373 15.376C132.325 15.328 132.269 15.296 132.205 15.28C132.141 15.248 132.069 15.224 131.989 15.208C131.877 15.16 131.781 15.104 131.701 15.04C131.621 14.96 131.541 14.888 131.461 14.824C131.349 14.696 131.245 14.576 131.149 14.464C131.069 14.336 130.965 14.216 130.837 14.104L130.717 13.864C130.637 13.768 130.565 13.688 130.501 13.624C130.453 13.56 130.365 13.496 130.237 13.432H129.949C129.933 13.432 129.917 13.416 129.901 13.384C129.885 13.352 129.885 13.328 129.901 13.312C129.917 13.248 129.933 13.184 129.949 13.12C129.965 13.04 129.981 12.968 129.997 12.904C129.997 12.824 129.973 12.752 129.925 12.688C129.893 12.624 129.861 12.552 129.829 12.472C129.813 12.136 129.757 11.816 129.661 11.512C129.581 11.192 129.493 10.872 129.397 10.552V9.856C129.445 9.808 129.485 9.752 129.517 9.688C129.565 9.624 129.605 9.568 129.637 9.52C129.621 9.44 129.605 9.36 129.589 9.28C129.589 9.2 129.597 9.12 129.613 9.04C129.613 8.944 129.605 8.848 129.589 8.752C129.573 8.64 129.557 8.528 129.541 8.416C129.541 8.4 129.549 8.368 129.565 8.32C129.581 8.256 129.589 8.192 129.589 8.128C129.605 8.08 129.613 8.032 129.613 7.984C129.629 7.92 129.629 7.856 129.613 7.792C129.581 7.664 129.573 7.544 129.589 7.432C129.605 7.304 129.621 7.168 129.637 7.024C129.669 6.912 129.701 6.808 129.733 6.712C129.765 6.6 129.773 6.488 129.757 6.376C129.757 6.28 129.773 6.216 129.805 6.184C129.885 6.088 129.933 5.984 129.949 5.872C129.965 5.76 129.981 5.656 129.997 5.56C130.077 5.416 130.165 5.272 130.261 5.128C130.373 4.968 130.501 4.832 130.645 4.72C130.693 4.656 130.741 4.592 130.789 4.528C130.837 4.464 130.885 4.408 130.933 4.36C131.221 4.072 131.445 3.76 131.605 3.424C131.669 3.376 131.725 3.336 131.773 3.304C131.837 3.272 131.901 3.232 131.965 3.184C131.981 3.136 132.013 3.104 132.061 3.088C132.125 2.768 132.333 2.56 132.685 2.464C132.717 2.464 132.757 2.464 132.805 2.464C132.869 2.448 132.933 2.432 132.997 2.416C133.045 2.384 133.101 2.344 133.165 2.296C133.245 2.232 133.317 2.184 133.381 2.152C133.429 2.088 133.493 2.04 133.573 2.008C133.653 1.96 133.733 1.92 133.813 1.888C133.909 1.872 133.997 1.84 134.077 1.792C134.157 1.728 134.237 1.68 134.317 1.648C134.509 1.616 134.677 1.624 134.821 1.672C135.141 1.784 135.437 1.76 135.709 1.6C135.821 1.536 135.933 1.504 136.045 1.504C136.173 1.488 136.277 1.44 136.357 1.36C136.533 1.424 136.701 1.48 136.861 1.528L137.341 1.624C137.501 1.656 137.661 1.704 137.821 1.768C137.981 1.816 138.133 1.864 138.277 1.912C138.437 1.976 138.597 2.04 138.757 2.104C138.917 2.168 139.061 2.24 139.189 2.32C139.253 2.352 139.309 2.376 139.357 2.392C139.421 2.392 139.477 2.408 139.525 2.44C139.605 2.472 139.677 2.504 139.741 2.536C139.805 2.552 139.861 2.576 139.909 2.608C139.957 2.672 139.997 2.736 140.029 2.8C140.077 2.864 140.133 2.928 140.197 2.992C140.229 3.024 140.269 3.056 140.317 3.088C140.365 3.104 140.413 3.128 140.461 3.16C140.573 3.224 140.661 3.304 140.725 3.4C140.805 3.48 140.845 3.584 140.845 3.712C140.845 3.776 140.869 3.832 140.917 3.88C140.981 3.928 141.021 3.992 141.037 4.072C140.957 4.232 140.893 4.384 140.845 4.528C140.781 4.736 140.653 4.896 140.461 5.008C140.445 5.024 140.429 5.048 140.413 5.08C140.413 5.096 140.405 5.12 140.389 5.152C140.421 5.328 140.397 5.48 140.317 5.608C140.237 5.736 140.141 5.864 140.029 5.992C140.029 6.056 140.029 6.12 140.029 6.184C140.029 6.232 139.989 6.264 139.909 6.28C139.893 6.264 139.853 6.28 139.789 6.328C139.725 6.36 139.685 6.392 139.669 6.424C139.653 6.488 139.605 6.536 139.525 6.568C139.461 6.584 139.405 6.576 139.357 6.544C139.277 6.448 139.165 6.4 139.021 6.4L138.997 6.376C138.981 6.36 138.965 6.344 138.949 6.328C138.933 6.296 138.917 6.28 138.901 6.28C138.805 6.248 138.725 6.232 138.661 6.232C138.421 6.232 138.221 6.104 138.061 5.848C138.045 5.816 138.013 5.776 137.965 5.728C137.757 5.648 137.557 5.568 137.365 5.488C137.173 5.392 136.965 5.328 136.741 5.296C136.581 5.312 136.429 5.32 136.285 5.32C136.141 5.304 135.981 5.328 135.805 5.392L135.493 5.704C135.381 5.752 135.269 5.792 135.157 5.824C135.061 5.84 134.965 5.864 134.869 5.896C134.789 5.96 134.701 6.008 134.605 6.04C134.509 6.056 134.413 6.104 134.317 6.184C134.269 6.216 134.205 6.296 134.125 6.424V6.688C134.029 6.736 133.941 6.76 133.861 6.76C133.829 6.824 133.805 6.888 133.789 6.952C133.789 7 133.789 7.056 133.789 7.12C133.789 7.344 133.757 7.552 133.693 7.744C133.677 7.856 133.661 7.976 133.645 8.104C133.629 8.232 133.605 8.36 133.573 8.488C133.557 8.504 133.549 8.536 133.549 8.584C133.565 8.616 133.573 8.648 133.573 8.68C133.605 8.76 133.613 8.808 133.597 8.824C133.581 8.936 133.565 9.056 133.549 9.184C133.533 9.296 133.541 9.408 133.573 9.52C133.605 9.632 133.629 9.744 133.645 9.856C133.661 9.968 133.677 10.088 133.693 10.216C133.725 10.28 133.741 10.344 133.741 10.408C133.757 10.472 133.773 10.544 133.789 10.624C133.853 10.72 133.925 10.808 134.005 10.888C133.989 10.952 133.981 11.024 133.981 11.104C133.981 11.168 133.973 11.24 133.957 11.32C133.973 11.448 134.021 11.568 134.101 11.68C134.181 11.776 134.245 11.888 134.293 12.016C134.373 12.08 134.461 12.136 134.557 12.184C134.653 12.216 134.725 12.28 134.773 12.376C134.901 12.472 135.021 12.568 135.133 12.664C135.261 12.76 135.381 12.864 135.493 12.976C135.557 12.992 135.613 13.008 135.661 13.024C135.725 13.04 135.789 13.064 135.853 13.096C136.029 13.064 136.205 13.032 136.381 13C136.557 12.968 136.741 12.928 136.933 12.88C136.981 12.88 137.029 12.888 137.077 12.904C137.125 12.904 137.181 12.912 137.245 12.928C137.293 12.928 137.341 12.928 137.389 12.928C137.453 12.912 137.493 12.888 137.509 12.856C137.573 12.808 137.621 12.76 137.653 12.712C137.701 12.648 137.757 12.592 137.821 12.544C137.869 12.512 137.917 12.488 137.965 12.472C138.013 12.44 138.053 12.408 138.085 12.376C138.181 12.264 138.261 12.152 138.325 12.04C138.389 11.928 138.453 11.816 138.517 11.704C138.517 11.608 138.501 11.512 138.469 11.416C138.453 11.32 138.429 11.232 138.397 11.152C138.365 11.008 138.261 10.92 138.085 10.888C137.957 10.856 137.869 10.848 137.821 10.864C137.597 10.928 137.373 10.952 137.149 10.936C136.941 10.92 136.733 10.928 136.525 10.96C136.461 10.912 136.373 10.872 136.261 10.84C136.213 10.776 136.205 10.728 136.237 10.696C136.285 10.584 136.325 10.48 136.357 10.384C136.389 10.288 136.397 10.184 136.381 10.072C136.381 9.816 136.405 9.568 136.453 9.328C136.501 9.088 136.549 8.856 136.597 8.632C136.693 8.472 136.837 8.392 137.029 8.392C137.189 8.36 137.349 8.328 137.509 8.296C137.669 8.248 137.821 8.184 137.965 8.104C138.109 8.088 138.253 8.088 138.397 8.104C138.541 8.104 138.677 8.136 138.805 8.2C139.013 8.216 139.213 8.24 139.405 8.272C139.613 8.288 139.821 8.288 140.029 8.272C140.061 8.288 140.093 8.304 140.125 8.32C140.173 8.336 140.205 8.36 140.221 8.392C140.269 8.344 140.341 8.288 140.437 8.224C140.517 8.256 140.597 8.296 140.677 8.344C140.757 8.392 140.829 8.432 140.893 8.464C140.925 8.48 140.965 8.488 141.013 8.488C141.077 8.488 141.133 8.496 141.181 8.512C141.309 8.576 141.429 8.656 141.541 8.752C141.669 8.848 141.789 8.912 141.901 8.944C142.045 9.088 142.101 9.232 142.069 9.376C142.053 9.504 141.997 9.624 141.901 9.736C141.901 9.832 141.893 9.928 141.877 10.024C141.877 10.12 141.885 10.216 141.901 10.312C141.917 10.376 141.933 10.456 141.949 10.552C141.981 10.648 141.981 10.784 141.949 10.96ZM154.377 7.168C154.409 7.264 154.417 7.36 154.401 7.456C154.401 7.552 154.385 7.64 154.353 7.72C154.321 7.832 154.297 7.952 154.281 8.08C154.281 8.192 154.281 8.312 154.281 8.44C154.281 8.6 154.273 8.76 154.257 8.92C154.257 9.064 154.257 9.216 154.257 9.376C154.257 9.488 154.257 9.608 154.257 9.736C154.257 9.864 154.241 10 154.209 10.144C154.145 10.4 154.073 10.664 153.993 10.936C153.913 11.208 153.849 11.488 153.801 11.776C153.785 11.808 153.769 11.856 153.753 11.92C153.753 11.968 153.737 12.024 153.705 12.088C153.561 12.392 153.417 12.728 153.273 13.096C153.209 13.176 153.137 13.264 153.057 13.36C152.993 13.456 152.921 13.544 152.841 13.624C152.777 13.672 152.705 13.712 152.625 13.744C152.561 13.776 152.497 13.808 152.433 13.84C152.401 13.84 152.377 13.872 152.361 13.936C152.393 13.968 152.417 14.008 152.433 14.056C152.465 14.104 152.489 14.144 152.505 14.176C152.377 14.368 152.185 14.552 151.929 14.728C151.865 14.744 151.785 14.768 151.689 14.8C151.609 14.816 151.521 14.832 151.425 14.848C151.265 14.944 151.081 15.072 150.873 15.232C150.857 15.264 150.833 15.312 150.801 15.376C150.769 15.424 150.737 15.464 150.705 15.496C150.593 15.56 150.481 15.584 150.369 15.568C150.273 15.552 150.161 15.536 150.033 15.52C149.985 15.536 149.937 15.56 149.889 15.592C149.857 15.608 149.817 15.632 149.769 15.664C149.737 15.68 149.697 15.712 149.649 15.76C149.617 15.792 149.585 15.816 149.553 15.832C149.361 15.912 149.169 15.936 148.977 15.904C148.785 15.872 148.593 15.88 148.401 15.928C148.321 15.88 148.233 15.84 148.137 15.808C148.057 15.776 147.977 15.744 147.897 15.712C147.897 15.68 147.897 15.648 147.897 15.616C147.913 15.584 147.929 15.544 147.945 15.496C147.913 15.384 147.841 15.32 147.729 15.304C147.617 15.272 147.505 15.24 147.393 15.208C147.297 15.176 147.193 15.176 147.081 15.208C146.969 15.208 146.913 15.128 146.913 14.968C146.881 14.824 146.825 14.752 146.745 14.752H146.649C146.537 14.8 146.425 14.808 146.313 14.776C146.217 14.728 146.121 14.664 146.025 14.584C145.961 14.52 145.921 14.432 145.905 14.32C145.905 14.208 145.873 14.096 145.809 13.984C145.761 13.904 145.681 13.84 145.569 13.792C145.473 13.728 145.385 13.664 145.305 13.6C145.209 13.36 145.113 13.136 145.017 12.928C144.921 12.704 144.833 12.488 144.753 12.28C144.705 12.184 144.681 12.104 144.681 12.04C144.697 11.96 144.705 11.864 144.705 11.752L144.633 11.632C144.633 11.632 144.617 11.6 144.585 11.536C144.473 11.216 144.401 10.896 144.369 10.576C144.337 10.256 144.369 9.928 144.465 9.592C144.449 9.544 144.425 9.496 144.393 9.448C144.377 9.4 144.353 9.36 144.321 9.328C144.289 9.248 144.289 9.168 144.321 9.088C144.369 9.008 144.393 8.936 144.393 8.872C144.361 8.648 144.369 8.464 144.417 8.32C144.449 8.24 144.457 8.16 144.441 8.08C144.425 8 144.425 7.928 144.441 7.864C144.489 7.672 144.521 7.488 144.537 7.312C144.553 7.12 144.569 6.936 144.585 6.76C144.601 6.408 144.649 6.064 144.729 5.728C144.761 5.6 144.809 5.488 144.873 5.392C144.937 5.296 145.001 5.2 145.065 5.104C145.097 5.072 145.137 5.048 145.185 5.032C145.233 5.016 145.281 5 145.329 4.984C145.425 4.968 145.521 4.952 145.617 4.936C145.729 4.92 145.857 4.904 146.001 4.888C146.081 4.904 146.169 4.92 146.265 4.936C146.377 4.952 146.489 4.96 146.601 4.96C146.713 4.976 146.825 4.992 146.937 5.008C147.049 5.008 147.169 5.016 147.297 5.032C147.313 5.08 147.329 5.12 147.345 5.152C147.361 5.184 147.377 5.216 147.393 5.248C147.393 5.36 147.385 5.472 147.369 5.584C147.369 5.68 147.369 5.784 147.369 5.896C147.385 5.944 147.401 5.992 147.417 6.04C147.449 6.072 147.473 6.12 147.489 6.184C147.473 6.248 147.449 6.32 147.417 6.4C147.401 6.48 147.377 6.56 147.345 6.64C147.393 6.896 147.417 7.168 147.417 7.456C147.417 7.728 147.433 8 147.465 8.272C147.497 8.448 147.521 8.624 147.537 8.8C147.553 8.96 147.585 9.128 147.633 9.304C147.617 9.416 147.625 9.528 147.657 9.64C147.689 9.752 147.721 9.864 147.753 9.976C147.801 10.088 147.833 10.2 147.849 10.312C147.881 10.424 147.913 10.544 147.945 10.672C148.025 10.928 148.145 11.16 148.305 11.368C148.401 11.464 148.473 11.528 148.521 11.56C148.553 11.576 148.585 11.584 148.617 11.584C148.665 11.584 148.705 11.592 148.737 11.608C148.849 11.608 148.937 11.576 149.001 11.512C149.065 11.448 149.137 11.408 149.217 11.392C149.393 11.312 149.561 11.248 149.721 11.2C149.801 11.216 149.881 11.224 149.961 11.224H150.129L150.513 10.984C150.593 10.856 150.649 10.712 150.681 10.552C150.713 10.392 150.785 10.256 150.897 10.144C150.977 10.016 151.049 9.888 151.113 9.76C151.177 9.632 151.257 9.528 151.353 9.448C151.385 9.224 151.409 9.016 151.425 8.824C151.441 8.632 151.481 8.44 151.545 8.248C151.561 8.2 151.561 8.152 151.545 8.104C151.545 8.04 151.545 7.984 151.545 7.936C151.529 7.84 151.513 7.752 151.497 7.672C151.497 7.576 151.497 7.512 151.497 7.48C151.513 7.304 151.521 7.144 151.521 7C151.521 6.856 151.529 6.72 151.545 6.592C151.561 6.464 151.569 6.336 151.569 6.208C151.569 6.064 151.577 5.936 151.593 5.824C151.625 5.568 151.737 5.392 151.929 5.296C151.993 5.264 152.049 5.24 152.097 5.224C152.145 5.192 152.201 5.168 152.265 5.152C152.329 5.136 152.393 5.128 152.457 5.128C152.521 5.128 152.601 5.12 152.697 5.104C152.777 5.12 152.857 5.144 152.937 5.176C153.033 5.208 153.129 5.24 153.225 5.272C153.321 5.288 153.409 5.288 153.489 5.272C153.585 5.256 153.681 5.232 153.777 5.2C153.841 5.216 153.897 5.232 153.945 5.248C153.993 5.264 154.049 5.288 154.113 5.32C154.129 5.336 154.145 5.36 154.161 5.392C154.177 5.408 154.185 5.432 154.185 5.464C154.201 5.544 154.217 5.632 154.233 5.728C154.249 5.824 154.257 5.92 154.257 6.016C154.273 6.208 154.281 6.4 154.281 6.592C154.297 6.784 154.329 6.976 154.377 7.168ZM160.864 3.184C160.912 3.296 160.928 3.416 160.912 3.544C160.896 3.656 160.872 3.768 160.84 3.88C160.824 3.976 160.792 4.072 160.744 4.168C160.696 4.248 160.656 4.328 160.624 4.408C160.56 4.504 160.488 4.592 160.408 4.672C160.344 4.752 160.28 4.832 160.216 4.912C160.168 4.928 160.128 4.96 160.096 5.008C160.064 5.04 160.024 5.072 159.976 5.104C159.864 5.184 159.688 5.264 159.448 5.344C159.208 5.408 159.016 5.44 158.872 5.44C158.792 5.44 158.728 5.424 158.68 5.392C158.584 5.392 158.488 5.392 158.392 5.392C158.296 5.376 158.208 5.368 158.128 5.368C158.08 5.336 158.024 5.304 157.96 5.272C157.912 5.24 157.872 5.208 157.84 5.176C157.76 5.144 157.672 5.128 157.576 5.128C157.496 5.128 157.416 5.128 157.336 5.128C157.272 5.08 157.192 5.04 157.096 5.008C157.016 4.96 156.936 4.92 156.856 4.888L156.712 4.456C156.728 4.328 156.744 4.192 156.76 4.048C156.776 3.888 156.76 3.728 156.712 3.568C156.664 3.536 156.664 3.496 156.712 3.448C156.76 3.336 156.76 3.224 156.712 3.112C156.664 3 156.664 2.888 156.712 2.776C156.728 2.744 156.736 2.696 156.736 2.632C156.688 2.536 156.688 2.448 156.736 2.368C156.784 2.272 156.824 2.192 156.856 2.128C156.84 2.08 156.832 2.032 156.832 1.984C156.832 1.92 156.832 1.872 156.832 1.84C156.848 1.824 156.856 1.808 156.856 1.792C156.872 1.76 156.896 1.736 156.928 1.72C157.056 1.688 157.16 1.632 157.24 1.552C157.336 1.456 157.44 1.384 157.552 1.336C157.664 1.24 157.784 1.16 157.912 1.096C158.056 1.032 158.192 0.968 158.32 0.904C158.448 0.904 158.56 0.904 158.656 0.904C158.752 0.904 158.848 0.92 158.944 0.951999C158.992 0.967999 159.048 0.975999 159.112 0.975999C159.176 0.975999 159.24 0.975999 159.304 0.975999C159.528 0.943999 159.704 1.032 159.832 1.24C159.864 1.32 159.92 1.368 160 1.384C160.08 1.4 160.152 1.424 160.216 1.456C160.376 1.6 160.48 1.784 160.528 2.008C160.56 2.104 160.592 2.2 160.624 2.296C160.672 2.392 160.704 2.488 160.72 2.584C160.752 2.68 160.776 2.784 160.792 2.896C160.824 2.992 160.848 3.088 160.864 3.184ZM160.72 8.704C160.688 8.8 160.672 8.912 160.672 9.04C160.672 9.152 160.672 9.272 160.672 9.4C160.688 9.512 160.688 9.632 160.672 9.76C160.656 9.872 160.648 9.984 160.648 10.096L160.48 10.336C160.56 10.416 160.608 10.504 160.624 10.6C160.64 10.696 160.648 10.8 160.648 10.912C160.648 11.024 160.648 11.144 160.648 11.272C160.648 11.384 160.64 11.504 160.624 11.632C160.608 11.744 160.576 11.864 160.528 11.992C160.48 12.12 160.44 12.256 160.408 12.4C160.408 12.56 160.4 12.752 160.384 12.976C160.384 13.184 160.392 13.392 160.408 13.6C160.424 13.904 160.408 14.216 160.36 14.536C160.312 14.84 160.216 15.128 160.072 15.4C160.072 15.528 160.088 15.656 160.12 15.784C160.152 15.896 160.184 16.016 160.216 16.144C160.216 16.16 160.208 16.176 160.192 16.192C160.176 16.224 160.168 16.256 160.168 16.288C160.088 16.4 159.992 16.496 159.88 16.576C159.864 16.576 159.848 16.584 159.832 16.6H159.736C159.56 16.6 159.376 16.608 159.184 16.624C159.008 16.656 158.808 16.648 158.584 16.6C158.52 16.568 158.448 16.528 158.368 16.48C158.304 16.432 158.232 16.392 158.152 16.36C158.088 16.36 158.008 16.352 157.912 16.336C157.832 16.336 157.752 16.328 157.672 16.312C157.544 16.168 157.416 16.016 157.288 15.856C157.24 15.824 157.184 15.8 157.12 15.784C157.056 15.768 156.992 15.744 156.928 15.712C156.816 15.632 156.776 15.504 156.808 15.328C156.84 15.152 156.88 15 156.928 14.872C156.976 14.664 156.968 14.464 156.904 14.272L156.808 13.936C156.808 13.808 156.8 13.688 156.784 13.576C156.768 13.464 156.768 13.352 156.784 13.24C156.8 13.08 156.8 12.928 156.784 12.784C156.784 12.64 156.784 12.488 156.784 12.328C156.8 12.104 156.808 11.888 156.808 11.68C156.808 11.456 156.808 11.24 156.808 11.032C156.808 10.952 156.816 10.904 156.832 10.888C156.912 10.76 156.952 10.64 156.952 10.528C156.952 10.4 156.952 10.272 156.952 10.144C156.936 10.016 156.936 9.888 156.952 9.76C156.984 9.616 156.984 9.488 156.952 9.376C156.952 9.232 156.952 9.096 156.952 8.968C156.952 8.824 156.96 8.68 156.976 8.536C156.992 8.456 157 8.376 157 8.296C157.016 8.2 157.008 8.096 156.976 7.984C157.12 7.92 157.24 7.872 157.336 7.84C157.448 7.808 157.552 7.792 157.648 7.792C157.712 7.792 157.776 7.792 157.84 7.792C157.92 7.792 157.992 7.784 158.056 7.768C158.216 7.736 158.352 7.704 158.464 7.672C158.544 7.688 158.608 7.72 158.656 7.768C158.72 7.8 158.784 7.832 158.848 7.864C158.96 7.864 159.072 7.84 159.184 7.792C159.296 7.776 159.392 7.784 159.472 7.816C159.568 7.848 159.64 7.928 159.688 8.056C159.704 8.072 159.712 8.088 159.712 8.104C159.728 8.12 159.744 8.136 159.76 8.152L159.928 8.248C160.04 8.264 160.136 8.248 160.216 8.2C160.296 8.136 160.376 8.096 160.456 8.08C160.552 8.08 160.608 8.12 160.624 8.2C160.672 8.312 160.704 8.48 160.72 8.704ZM173.18 5.272C173.1 5.56 173.052 5.856 173.036 6.16C173.02 6.448 173.004 6.736 172.988 7.024C172.972 7.312 172.964 7.608 172.964 7.912C172.964 8.2 172.964 8.488 172.964 8.776C172.964 9.016 172.948 9.256 172.916 9.496C172.884 9.736 172.86 9.984 172.844 10.24C172.844 10.304 172.836 10.376 172.82 10.456C172.82 10.536 172.82 10.616 172.82 10.696C172.82 10.92 172.788 11.128 172.724 11.32C172.676 11.528 172.652 11.736 172.652 11.944C172.652 12.056 172.644 12.176 172.628 12.304C172.612 12.432 172.58 12.56 172.532 12.688C172.516 12.768 172.508 12.888 172.508 13.048C172.492 13.176 172.46 13.304 172.412 13.432C172.38 13.544 172.348 13.656 172.316 13.768C172.284 13.864 172.252 13.976 172.22 14.104C172.156 14.2 172.092 14.304 172.028 14.416C171.98 14.512 171.924 14.608 171.86 14.704C171.716 14.784 171.596 14.888 171.5 15.016C171.34 15.144 171.18 15.28 171.02 15.424C170.876 15.568 170.732 15.704 170.588 15.832C170.396 15.992 170.204 16.072 170.012 16.072C169.996 16.072 169.972 16.08 169.94 16.096C169.924 16.112 169.9 16.12 169.868 16.12C169.564 16.152 169.316 16.248 169.124 16.408C169.108 16.424 169.084 16.432 169.052 16.432C169.036 16.448 169.012 16.472 168.98 16.504C168.772 16.536 168.556 16.52 168.332 16.456C168.124 16.392 167.932 16.312 167.756 16.216H167.372C167.308 16.216 167.244 16.208 167.18 16.192C167.116 16.192 167.044 16.184 166.964 16.168C166.532 16.072 166.116 15.888 165.716 15.616C165.668 15.568 165.612 15.536 165.548 15.52C165.484 15.504 165.412 15.488 165.332 15.472C165.236 15.456 165.14 15.432 165.044 15.4C164.948 15.368 164.852 15.336 164.756 15.304C164.676 15.256 164.612 15.192 164.564 15.112C164.516 15.016 164.468 14.936 164.42 14.872C164.34 14.712 164.268 14.568 164.204 14.44C164.14 14.296 164.068 14.144 163.988 13.984C163.924 13.856 163.852 13.728 163.772 13.6C163.692 13.456 163.612 13.328 163.532 13.216C163.532 13.2 163.54 13.192 163.556 13.192C163.572 13.192 163.58 13.184 163.58 13.168L163.532 13.12C163.532 13.136 163.524 13.152 163.508 13.168C163.508 13.168 163.508 13.176 163.508 13.192C163.492 13.176 163.468 13.168 163.436 13.168C163.42 13.152 163.404 13.136 163.388 13.12C163.324 13.088 163.276 13.04 163.244 12.976C163.212 12.896 163.18 12.824 163.148 12.76C163.196 12.664 163.22 12.536 163.22 12.376C163.252 12.168 163.244 11.984 163.196 11.824C163.132 11.584 163.1 11.344 163.1 11.104C163.116 10.864 163.132 10.616 163.148 10.36C163.148 10.28 163.18 10.176 163.244 10.048C163.356 9.776 163.42 9.536 163.436 9.328C163.596 9.104 163.724 8.864 163.82 8.608C163.916 8.352 164.028 8.112 164.156 7.888C164.236 7.856 164.3 7.824 164.348 7.792C164.412 7.76 164.476 7.736 164.54 7.72C164.572 7.688 164.596 7.648 164.612 7.6C164.628 7.552 164.66 7.512 164.708 7.48C164.756 7.448 164.812 7.424 164.876 7.408C164.94 7.376 165.012 7.352 165.092 7.336C165.124 7.288 165.148 7.24 165.164 7.192C165.196 7.144 165.228 7.096 165.26 7.048C165.308 7 165.34 6.976 165.356 6.976C165.724 6.848 166.108 6.752 166.508 6.688C166.572 6.672 166.636 6.664 166.7 6.664C166.78 6.648 166.852 6.632 166.916 6.616C167.124 6.552 167.332 6.528 167.54 6.544C167.748 6.56 167.956 6.56 168.164 6.544C168.212 6.544 168.26 6.552 168.308 6.568C168.372 6.584 168.428 6.6 168.476 6.616C168.524 6.616 168.588 6.632 168.668 6.664C168.748 6.696 168.796 6.696 168.812 6.664C168.972 6.632 169.084 6.648 169.148 6.712C169.228 6.776 169.268 6.808 169.268 6.808C169.3 6.824 169.364 6.832 169.46 6.832C169.572 6.816 169.636 6.808 169.652 6.808C169.796 6.776 169.876 6.712 169.892 6.616C169.924 6.504 169.924 6.448 169.892 6.448L169.844 6.4C169.86 6.192 169.852 5.984 169.82 5.776C169.804 5.568 169.804 5.36 169.82 5.152C169.836 5.072 169.844 4.992 169.844 4.912C169.844 4.816 169.844 4.728 169.844 4.648C169.828 4.568 169.828 4.496 169.844 4.432C169.86 4.352 169.868 4.272 169.868 4.192C169.868 4.112 169.868 4.04 169.868 3.976C169.884 3.896 169.876 3.832 169.844 3.784C169.796 3.656 169.772 3.528 169.772 3.4C169.788 3.272 169.812 3.144 169.844 3.016C169.892 2.84 169.924 2.664 169.94 2.488C169.972 2.312 169.972 2.12 169.94 1.912V1.792C170.004 1.632 170.036 1.472 170.036 1.312C170.052 1.152 170.068 1.008 170.084 0.879999C170.164 0.767999 170.26 0.695999 170.372 0.663999C170.5 0.615999 170.596 0.559999 170.66 0.495999C170.916 0.48 171.156 0.48 171.38 0.495999C171.604 0.511999 171.828 0.487999 172.052 0.423999C172.164 0.471999 172.268 0.511999 172.364 0.543999C172.476 0.559999 172.572 0.576 172.652 0.592C172.828 0.72 172.916 0.888 172.916 1.096C172.916 1.176 172.916 1.264 172.916 1.36C172.916 1.456 172.908 1.552 172.892 1.648C172.908 1.712 172.932 1.768 172.964 1.816C172.996 1.864 173.02 1.928 173.036 2.008C173.02 2.04 173.004 2.088 172.988 2.152C172.988 2.2 172.98 2.256 172.964 2.32C172.98 2.384 172.996 2.464 173.012 2.56C173.028 2.656 173.044 2.744 173.06 2.824C173.06 3.08 173.06 3.328 173.06 3.568C173.076 3.808 173.076 4.048 173.06 4.288C173.06 4.544 173.06 4.712 173.06 4.792C173.076 4.872 173.116 5.032 173.18 5.272ZM169.676 11.32C169.628 11.192 169.588 11.072 169.556 10.96C169.54 10.832 169.516 10.72 169.484 10.624C169.436 10.512 169.372 10.408 169.292 10.312C169.228 10.216 169.172 10.112 169.124 10C168.964 9.92 168.844 9.84 168.764 9.76C168.684 9.728 168.604 9.704 168.524 9.688C168.46 9.672 168.388 9.656 168.308 9.64C168.244 9.608 168.18 9.584 168.116 9.568C168.068 9.536 168.012 9.512 167.948 9.496C167.836 9.544 167.724 9.592 167.612 9.64C167.516 9.688 167.42 9.736 167.324 9.784C167.068 9.896 166.892 10.104 166.796 10.408C166.78 10.472 166.772 10.536 166.772 10.6C166.772 10.664 166.764 10.736 166.748 10.816C166.732 10.864 166.7 10.912 166.652 10.96C166.62 11.008 166.588 11.072 166.556 11.152V11.584C166.588 11.792 166.644 11.992 166.724 12.184C166.82 12.36 166.972 12.512 167.18 12.64C167.228 12.656 167.268 12.688 167.3 12.736C167.348 12.768 167.404 12.8 167.468 12.832C167.564 12.928 167.66 12.976 167.756 12.976C168.012 12.944 168.26 12.92 168.5 12.904C168.74 12.872 168.972 12.808 169.196 12.712C169.292 12.632 169.364 12.552 169.412 12.472C169.46 12.408 169.5 12.352 169.532 12.304C169.564 12.24 169.604 12.176 169.652 12.112V11.704C169.652 11.624 169.652 11.552 169.652 11.488C169.652 11.424 169.66 11.368 169.676 11.32ZM185.767 7.528C185.751 7.688 185.735 7.856 185.719 8.032C185.719 8.192 185.703 8.352 185.671 8.512C185.655 8.672 185.647 8.848 185.647 9.04C185.647 9.216 185.615 9.4 185.551 9.592C185.519 9.64 185.479 9.696 185.431 9.76C185.383 9.808 185.335 9.872 185.287 9.952C185.287 10.016 185.287 10.072 185.287 10.12C185.303 10.168 185.319 10.224 185.335 10.288C185.303 10.368 185.255 10.44 185.191 10.504C185.127 10.552 185.063 10.592 184.999 10.624C184.839 10.672 184.687 10.72 184.543 10.768C184.415 10.816 184.279 10.856 184.135 10.888C183.911 10.92 183.679 10.928 183.439 10.912C183.199 10.88 182.959 10.872 182.719 10.888C182.511 10.888 182.287 10.896 182.047 10.912C181.823 10.912 181.591 10.912 181.351 10.912H180.007C179.943 10.96 179.871 10.976 179.791 10.96C179.727 10.944 179.663 10.952 179.599 10.984C179.535 10.952 179.463 10.952 179.383 10.984C179.303 11 179.223 10.992 179.143 10.96C179.079 10.976 179.015 10.992 178.951 11.008C178.903 11.008 178.839 11.016 178.759 11.032C178.695 11.016 178.639 11 178.591 10.984C178.543 10.952 178.487 10.96 178.423 11.008C178.455 11.056 178.487 11.112 178.519 11.176C178.567 11.224 178.599 11.288 178.615 11.368C178.663 11.432 178.703 11.496 178.735 11.56C178.767 11.624 178.799 11.696 178.831 11.776C178.863 11.84 178.887 11.912 178.903 11.992C178.919 12.056 178.935 12.12 178.951 12.184C179.031 12.264 179.119 12.344 179.215 12.424C179.311 12.504 179.407 12.584 179.503 12.664C179.583 12.68 179.663 12.696 179.743 12.712C179.839 12.728 179.927 12.744 180.007 12.76C180.103 12.776 180.199 12.792 180.295 12.808C180.391 12.824 180.495 12.824 180.607 12.808C180.719 12.776 180.823 12.784 180.919 12.832C181.015 12.864 181.119 12.888 181.231 12.904C181.375 12.888 181.519 12.872 181.663 12.856C181.823 12.84 181.975 12.824 182.119 12.808C182.183 12.76 182.247 12.72 182.311 12.688C182.391 12.64 182.463 12.592 182.527 12.544C182.735 12.496 182.943 12.504 183.151 12.568C183.199 12.648 183.255 12.728 183.319 12.808C183.399 12.888 183.471 12.976 183.535 13.072C183.631 13.216 183.727 13.36 183.823 13.504C183.919 13.632 183.983 13.784 184.015 13.96C184.047 14.04 184.095 14.12 184.159 14.2C184.223 14.28 184.271 14.352 184.303 14.416C184.319 14.496 184.311 14.568 184.279 14.632C184.263 14.696 184.247 14.768 184.231 14.848C184.167 14.912 184.087 14.968 183.991 15.016C183.975 15.016 183.959 15.032 183.943 15.064C183.927 15.096 183.903 15.12 183.871 15.136C183.775 15.2 183.679 15.264 183.583 15.328C183.487 15.392 183.399 15.456 183.319 15.52C183.095 15.712 182.863 15.808 182.623 15.808C182.527 15.808 182.455 15.816 182.407 15.832C182.327 15.848 182.247 15.88 182.167 15.928C182.087 15.976 181.999 16.016 181.903 16.048C181.823 16.048 181.743 16.056 181.663 16.072C181.583 16.104 181.503 16.128 181.423 16.144C181.375 16.144 181.319 16.136 181.255 16.12C181.191 16.12 181.127 16.12 181.063 16.12C180.919 16.136 180.775 16.128 180.631 16.096C180.487 16.064 180.343 16.048 180.199 16.048C180.151 16.032 180.103 16.016 180.055 16C180.007 15.984 179.959 15.976 179.911 15.976C179.639 15.992 179.383 15.952 179.143 15.856C178.903 15.744 178.663 15.632 178.423 15.52C178.231 15.472 178.095 15.384 178.015 15.256C177.903 15.128 177.775 15.024 177.631 14.944C177.503 14.848 177.359 14.768 177.199 14.704C177.103 14.672 177.007 14.632 176.911 14.584C176.815 14.52 176.711 14.456 176.599 14.392C176.583 14.328 176.559 14.264 176.527 14.2C176.495 14.136 176.463 14.072 176.431 14.008C176.399 13.96 176.351 13.912 176.287 13.864C176.239 13.816 176.191 13.768 176.143 13.72C176.095 13.672 176.055 13.616 176.023 13.552C175.943 13.28 175.863 13.016 175.783 12.76C175.703 12.488 175.599 12.224 175.471 11.968C175.487 11.856 175.495 11.744 175.495 11.632C175.511 11.504 175.503 11.368 175.471 11.224C175.455 11.192 175.447 11.152 175.447 11.104C175.447 11.056 175.447 11.016 175.447 10.984C175.447 10.904 175.447 10.84 175.447 10.792C175.463 10.728 175.463 10.672 175.447 10.624C175.431 10.496 175.415 10.368 175.399 10.24C175.383 10.112 175.391 9.992 175.423 9.88C175.455 9.752 175.487 9.624 175.519 9.496C175.551 9.368 175.591 9.232 175.639 9.088C175.623 9.056 175.615 9.008 175.615 8.944C175.615 8.88 175.607 8.816 175.591 8.752C175.623 8.576 175.655 8.4 175.687 8.224C175.719 8.048 175.759 7.88 175.807 7.72C175.855 7.624 175.903 7.536 175.951 7.456C176.015 7.36 176.079 7.264 176.143 7.168C176.255 6.976 176.343 6.792 176.407 6.616C176.599 6.52 176.711 6.464 176.743 6.448C176.791 6.416 176.831 6.376 176.863 6.328C176.895 6.28 176.999 6.184 177.175 6.04C177.159 5.992 177.199 5.92 177.295 5.824C177.391 5.728 177.423 5.648 177.391 5.584C177.535 5.312 177.743 5.096 178.015 4.936C178.111 4.872 178.199 4.808 178.279 4.744C178.375 4.664 178.455 4.592 178.519 4.528C178.599 4.48 178.671 4.464 178.735 4.48C178.815 4.48 178.887 4.48 178.951 4.48C178.999 4.464 179.047 4.456 179.095 4.456C179.159 4.44 179.223 4.424 179.287 4.408C179.319 4.392 179.359 4.376 179.407 4.36C179.455 4.344 179.495 4.32 179.527 4.288C179.559 4.272 179.591 4.256 179.623 4.24C179.655 4.224 179.687 4.216 179.719 4.216C179.863 4.2 179.999 4.16 180.127 4.096C180.255 4.032 180.375 3.968 180.487 3.904C180.727 4 180.975 4.032 181.231 4C181.391 3.984 181.543 3.992 181.687 4.024C181.847 4.056 181.991 4.096 182.119 4.144L182.455 4.048C182.583 4.064 182.703 4.104 182.815 4.168C182.927 4.232 183.039 4.296 183.151 4.36H183.367C183.383 4.376 183.399 4.392 183.415 4.408C183.431 4.408 183.447 4.416 183.463 4.432C183.639 4.592 183.807 4.744 183.967 4.888C184.127 5.016 184.295 5.152 184.471 5.296C184.711 5.456 184.863 5.648 184.927 5.872C184.991 5.968 185.047 6.04 185.095 6.088C185.287 6.248 185.455 6.464 185.599 6.736C185.599 6.768 185.599 6.816 185.599 6.88C185.615 6.928 185.623 6.976 185.623 7.024C185.607 7.104 185.623 7.184 185.671 7.264C185.719 7.344 185.751 7.432 185.767 7.528ZM182.719 8.32V7.72C182.719 7.64 182.711 7.592 182.695 7.576C182.679 7.528 182.655 7.48 182.623 7.432C182.607 7.384 182.591 7.352 182.575 7.336V6.928L182.503 6.856C182.439 6.856 182.359 6.84 182.263 6.808C182.231 6.664 182.191 6.552 182.143 6.472C182.095 6.408 182.031 6.368 181.951 6.352C181.871 6.336 181.783 6.312 181.687 6.28C181.479 6.344 181.255 6.4 181.015 6.448C180.775 6.496 180.543 6.56 180.319 6.64C180.207 6.656 180.103 6.664 180.007 6.664C179.911 6.664 179.815 6.672 179.719 6.688C179.559 6.752 179.415 6.856 179.287 7C179.175 7.128 179.063 7.256 178.951 7.384C178.887 7.464 178.831 7.552 178.783 7.648C178.735 7.744 178.679 7.832 178.615 7.912C178.599 7.928 178.591 7.976 178.591 8.056C178.639 8.184 178.711 8.264 178.807 8.296C178.903 8.312 178.999 8.336 179.095 8.368C179.191 8.4 179.295 8.432 179.407 8.464C179.455 8.448 179.495 8.44 179.527 8.44C179.575 8.44 179.623 8.432 179.671 8.416C179.863 8.336 180.023 8.328 180.151 8.392C180.279 8.408 180.391 8.408 180.487 8.392C180.599 8.376 180.711 8.36 180.823 8.344C180.919 8.392 181.015 8.424 181.111 8.44C181.223 8.456 181.327 8.48 181.423 8.512C181.631 8.576 181.831 8.608 182.023 8.608C182.215 8.608 182.407 8.584 182.599 8.536C182.679 8.456 182.719 8.384 182.719 8.32ZM195.607 6.28C195.559 6.488 195.463 6.664 195.319 6.808C195.255 6.872 195.199 6.944 195.151 7.024C195.119 7.088 195.071 7.136 195.007 7.168C194.943 7.232 194.895 7.288 194.863 7.336C194.831 7.384 194.799 7.448 194.767 7.528C194.687 7.688 194.551 7.704 194.359 7.576C194.263 7.512 194.199 7.448 194.167 7.384L193.879 7.36C193.847 7.36 193.823 7.352 193.807 7.336C193.727 7.304 193.671 7.256 193.639 7.192C193.607 7.112 193.551 7.048 193.471 7C193.231 6.888 192.991 6.808 192.751 6.76C192.511 6.712 192.263 6.728 192.007 6.808C191.847 7.016 191.743 7.168 191.695 7.264C191.647 7.344 191.591 7.496 191.527 7.72C191.527 7.832 191.543 7.944 191.575 8.056C191.623 8.152 191.663 8.264 191.695 8.392C191.775 8.52 191.879 8.608 192.007 8.656C192.071 8.656 192.135 8.664 192.199 8.68C192.263 8.68 192.327 8.688 192.391 8.704C192.455 8.752 192.511 8.8 192.559 8.848C192.607 8.88 192.655 8.912 192.703 8.944C192.815 9.008 192.919 9.096 193.015 9.208C193.127 9.304 193.239 9.376 193.351 9.424C193.479 9.488 193.599 9.544 193.711 9.592C193.823 9.64 193.935 9.696 194.047 9.76C194.143 9.776 194.223 9.816 194.287 9.88C194.367 9.944 194.439 10.016 194.503 10.096C194.551 10.192 194.607 10.288 194.671 10.384C194.751 10.48 194.823 10.584 194.887 10.696C194.935 10.872 194.975 11.056 195.007 11.248C195.055 11.424 195.079 11.616 195.079 11.824C195.079 11.968 195.087 12.112 195.103 12.256C195.119 12.384 195.135 12.52 195.151 12.664C195.167 12.744 195.175 12.832 195.175 12.928C195.191 13.024 195.191 13.128 195.175 13.24C195.127 13.336 195.079 13.44 195.031 13.552C194.983 13.664 194.943 13.784 194.911 13.912C194.847 14.152 194.759 14.376 194.647 14.584C194.583 14.664 194.511 14.744 194.431 14.824C194.351 14.904 194.271 14.984 194.191 15.064C194.143 15.096 194.103 15.136 194.071 15.184C194.039 15.232 194.007 15.272 193.975 15.304C193.815 15.4 193.687 15.512 193.591 15.64C193.495 15.768 193.407 15.904 193.327 16.048C193.215 16.064 193.103 16.08 192.991 16.096C192.879 16.128 192.759 16.16 192.631 16.192C192.535 16.208 192.439 16.232 192.343 16.264C192.247 16.312 192.159 16.352 192.079 16.384H191.503C191.327 16.304 191.159 16.272 190.999 16.288C190.839 16.304 190.671 16.336 190.495 16.384C190.335 16.416 190.223 16.4 190.159 16.336C190.047 16.256 189.927 16.192 189.799 16.144C189.687 16.112 189.575 16.088 189.463 16.072C189.303 15.912 189.135 15.76 188.959 15.616C188.783 15.472 188.623 15.312 188.479 15.136C188.479 15.088 188.471 15.04 188.455 14.992C188.455 14.928 188.455 14.872 188.455 14.824C188.455 14.696 188.455 14.584 188.455 14.488C188.471 14.376 188.479 14.264 188.479 14.152C188.527 13.928 188.607 13.712 188.719 13.504C188.847 13.296 188.967 13.088 189.079 12.88C189.175 12.896 189.263 12.912 189.343 12.928C189.423 12.944 189.511 12.968 189.607 13C189.687 13.064 189.783 13.12 189.895 13.168C190.007 13.216 190.119 13.264 190.231 13.312C190.375 13.392 190.487 13.424 190.567 13.408C190.631 13.408 190.687 13.416 190.735 13.432C190.783 13.448 190.839 13.464 190.903 13.48C191.095 13.56 191.279 13.536 191.455 13.408C191.535 13.36 191.607 13.312 191.671 13.264C191.751 13.2 191.815 13.12 191.863 13.024C191.863 12.928 191.863 12.824 191.863 12.712C191.863 12.584 191.871 12.464 191.887 12.352C191.887 12.304 191.879 12.256 191.863 12.208C191.847 12.16 191.831 12.112 191.815 12.064C191.799 12 191.783 11.944 191.767 11.896L191.431 11.632C191.367 11.552 191.319 11.472 191.287 11.392C191.255 11.296 191.199 11.224 191.119 11.176L190.543 11.008C190.447 10.96 190.367 10.904 190.303 10.84C190.239 10.776 190.175 10.72 190.111 10.672C190.079 10.64 190.047 10.616 190.015 10.6C189.983 10.584 189.951 10.568 189.919 10.552C189.855 10.536 189.791 10.52 189.727 10.504C189.663 10.488 189.591 10.464 189.511 10.432C189.415 10.352 189.287 10.28 189.127 10.216C189.031 10.104 188.967 9.992 188.935 9.88C188.903 9.768 188.847 9.664 188.767 9.568C188.703 9.488 188.639 9.4 188.575 9.304C188.511 9.208 188.439 9.112 188.359 9.016C188.311 8.84 188.263 8.664 188.215 8.488C188.183 8.296 188.143 8.112 188.095 7.936C188.015 7.696 188.007 7.464 188.071 7.24C188.103 7.096 188.135 6.944 188.167 6.784C188.215 6.624 188.271 6.464 188.335 6.304C188.431 6.112 188.551 5.848 188.695 5.512C188.855 5.256 189.063 5.024 189.319 4.816C189.591 4.592 189.855 4.368 190.111 4.144C190.175 4.112 190.247 4.088 190.327 4.072C190.407 4.04 190.479 4.016 190.543 4C190.735 3.936 190.879 3.888 190.975 3.856C191.071 3.808 191.175 3.776 191.287 3.76C191.415 3.744 191.599 3.736 191.839 3.736H191.887C192.111 3.656 192.327 3.632 192.535 3.664C192.759 3.696 192.975 3.744 193.183 3.808C193.231 3.808 193.279 3.816 193.327 3.832C193.391 3.832 193.431 3.832 193.447 3.832C193.591 3.912 193.711 4.008 193.807 4.12C193.919 4.232 194.039 4.336 194.167 4.432C194.247 4.48 194.335 4.528 194.431 4.576C194.527 4.608 194.615 4.648 194.695 4.696C194.855 4.824 194.991 4.968 195.103 5.128C195.231 5.288 195.351 5.44 195.463 5.584C195.495 5.696 195.519 5.808 195.535 5.92C195.551 6.032 195.575 6.152 195.607 6.28Z" fill="#404040"/>
</svg>
