<svg width="60" height="61" viewBox="0 0 60 61" fill="none" xmlns="http://www.w3.org/2000/svg">
<g filter="url(#filter0_d_1168_4037)">
<rect x="4" y="4.5" width="52" height="52" rx="4" fill="#B312EB" fill-opacity="0.1" shape-rendering="crispEdges"/>
<path fill-rule="evenodd" clip-rule="evenodd" d="M30.527 42.5H37.811C40.8563 42.5 43.3337 40.0453 43.3337 37.0265V33.4594C43.3337 32.9124 42.8857 32.4685 42.3337 32.4685C41.239 32.4685 40.3483 31.586 40.3483 30.5013C40.3483 29.4167 41.239 28.5341 42.3337 28.5341C42.599 28.5341 42.8537 28.4298 43.0403 28.2435C43.2283 28.0572 43.3337 27.8049 43.3337 27.5433L43.3323 23.9735C43.3323 20.9547 40.8537 18.5 37.8083 18.5H22.1923C19.147 18.5 16.6697 20.9547 16.6697 23.9735L16.667 27.6582C16.667 27.9198 16.7723 28.1721 16.9603 28.3584C17.147 28.5447 17.4017 28.6491 17.667 28.6491C18.799 28.6491 19.6523 29.4444 19.6523 30.5013C19.6523 31.586 18.7617 32.4685 17.667 32.4685C17.115 32.4685 16.667 32.9124 16.667 33.4594V37.0265C16.667 40.0453 19.1443 42.5 22.191 42.5H24.5777C25.1297 42.5 25.5777 42.0561 25.5777 41.5091C25.5777 40.9622 25.1297 40.5183 24.5777 40.5183H22.191C20.2483 40.5183 18.667 38.9514 18.667 37.0265V34.3247C20.383 33.8848 21.6523 32.3377 21.6523 30.5013C21.6523 28.6847 20.403 27.2011 18.6683 26.7836L18.6697 23.9735C18.6697 22.0486 20.2497 20.4817 22.1923 20.4817H37.8083C39.751 20.4817 41.3323 22.0486 41.3323 23.9735L41.3337 26.6779C39.6177 27.1179 38.3483 28.6649 38.3483 30.5013C38.3483 32.3377 39.619 33.8848 41.3337 34.3247V37.0265C41.3337 38.9514 39.7537 40.5183 37.811 40.5183H30.527C29.975 40.5183 29.527 40.9622 29.527 41.5091C29.527 42.0561 29.975 42.5 30.527 42.5ZM35.0528 29.0699C35.2378 29.2645 35.3362 29.5212 35.3336 29.7927C35.3297 30.0643 35.2247 30.3183 35.0345 30.5074L33.4783 32.0706L33.8457 34.2756C33.9297 34.7782 33.7329 35.278 33.3314 35.5766C32.9286 35.8766 32.409 35.913 31.9694 35.6766L30.0459 34.639L28.1224 35.678C27.9374 35.7806 27.7288 35.8333 27.5202 35.8333C27.2473 35.8333 26.9849 35.7442 26.7618 35.5766C26.3616 35.278 26.1635 34.7782 26.2475 34.2756L26.6162 32.0706L25.0588 30.5074C24.7032 30.1521 24.5785 29.6292 24.7307 29.1429C24.8856 28.6578 25.2857 28.3106 25.7765 28.239L27.9256 27.9161L28.8887 25.9084C29.1065 25.4517 29.55 25.168 30.0446 25.1667C30.5419 25.1667 30.9854 25.449 31.2058 25.9057L32.2555 27.9674C32.5087 28.4673 32.3224 29.0834 31.8382 29.3428C31.606 29.4698 31.3383 29.4928 31.0877 29.4144C30.8345 29.3334 30.6285 29.1564 30.5052 28.9159L30.0643 28.0512L29.4673 29.2969C29.323 29.5968 29.0461 29.8062 28.7234 29.8535L27.4323 30.0467L28.3665 30.9871C28.6 31.2194 28.7063 31.5559 28.6512 31.8869L28.4308 33.2123L29.588 32.5867C29.8767 32.4313 30.2205 32.4313 30.5065 32.5867L31.6637 33.2123L31.4433 31.8869C31.3882 31.5559 31.4945 31.2194 31.7267 30.9857L33.6555 29.051C33.8431 28.8645 34.0963 28.7429 34.3535 28.7619C34.6185 28.7646 34.8665 28.8726 35.0528 29.0699Z" fill="#B312EB"/>
</g>
<defs>
<filter id="filter0_d_1168_4037" x="0" y="0.5" width="60" height="60" filterUnits="userSpaceOnUse" color-interpolation-filters="sRGB">
<feFlood flood-opacity="0" result="BackgroundImageFix"/>
<feColorMatrix in="SourceAlpha" type="matrix" values="0 0 0 0 0 0 0 0 0 0 0 0 0 0 0 0 0 0 127 0" result="hardAlpha"/>
<feOffset/>
<feGaussianBlur stdDeviation="2"/>
<feComposite in2="hardAlpha" operator="out"/>
<feColorMatrix type="matrix" values="0 0 0 0 0 0 0 0 0 0 0 0 0 0 0 0 0 0 0.25 0"/>
<feBlend mode="normal" in2="BackgroundImageFix" result="effect1_dropShadow_1168_4037"/>
<feBlend mode="normal" in="SourceGraphic" in2="effect1_dropShadow_1168_4037" result="shape"/>
</filter>
</defs>
</svg>
