<svg width="151" height="17" viewBox="0 0 151 17" fill="none" xmlns="http://www.w3.org/2000/svg">
<path d="M22.512 4.192C22.448 4.24 22.416 4.36 22.416 4.552C22.416 4.728 22.392 4.856 22.344 4.936C22.312 5 22.256 5.064 22.176 5.128C22.112 5.176 22.056 5.24 22.008 5.32C22.024 5.352 22.04 5.392 22.056 5.44C22.072 5.488 22.088 5.528 22.104 5.56C22.04 5.64 21.976 5.72 21.912 5.8C21.848 5.88 21.776 5.968 21.696 6.064C21.648 6.064 21.576 6.08 21.48 6.112C21.416 6.128 21.384 6.176 21.384 6.256C21.384 6.32 21.392 6.392 21.408 6.472C21.44 6.536 21.456 6.608 21.456 6.688C21.392 6.928 21.328 7.168 21.264 7.408C21.2 7.648 21.096 7.872 20.952 8.08C20.936 8.336 20.864 8.584 20.736 8.824C20.608 9.048 20.496 9.288 20.4 9.544C20.352 9.64 20.312 9.736 20.28 9.832C20.264 9.928 20.24 10.032 20.208 10.144C20.144 10.208 20.088 10.272 20.04 10.336C19.992 10.4 19.928 10.464 19.848 10.528C19.8 10.608 19.76 10.696 19.728 10.792C19.696 10.888 19.664 10.984 19.632 11.08C19.568 11.16 19.512 11.248 19.464 11.344C19.432 11.44 19.384 11.528 19.32 11.608C19.176 11.864 19.064 12.136 18.984 12.424C18.92 12.696 18.888 12.968 18.888 13.24C18.84 13.352 18.792 13.456 18.744 13.552C18.712 13.632 18.656 13.712 18.576 13.792C18.512 13.904 18.456 14.024 18.408 14.152C18.376 14.264 18.32 14.376 18.24 14.488C18.096 14.728 18.008 14.888 17.976 14.968C17.944 15.048 17.928 15.128 17.928 15.208C17.944 15.288 17.912 15.456 17.832 15.712C17.768 15.792 17.664 15.872 17.52 15.952C17.376 16.032 17.248 16.088 17.136 16.12C17.072 16.088 16.968 16.072 16.824 16.072C16.68 16.088 16.576 16.088 16.512 16.072C16.432 16.056 16.344 16.048 16.248 16.048C16.152 16.048 16.064 16.048 15.984 16.048C15.872 16.048 15.752 16.048 15.624 16.048C15.512 16.048 15.4 16.04 15.288 16.024C15.192 15.992 15.12 15.944 15.072 15.88C15.008 15.72 14.952 15.576 14.904 15.448C14.872 15.304 14.88 15.16 14.928 15.016C14.944 14.952 14.92 14.896 14.856 14.848C14.808 14.8 14.768 14.768 14.736 14.752C14.688 14.656 14.64 14.56 14.592 14.464C14.56 14.352 14.504 14.248 14.424 14.152C14.328 13.992 14.232 13.84 14.136 13.696C14.04 13.552 13.952 13.4 13.872 13.24C13.856 13.176 13.808 13.12 13.728 13.072C13.664 13.024 13.632 12.968 13.632 12.904C13.632 12.776 13.608 12.664 13.56 12.568C13.528 12.472 13.488 12.368 13.44 12.256C13.408 12.16 13.368 12.064 13.32 11.968C13.288 11.856 13.256 11.752 13.224 11.656C13.16 11.48 13.088 11.328 13.008 11.2C12.848 10.976 12.68 10.752 12.504 10.528C12.344 10.304 12.176 10.088 12 9.88C11.888 9.72 11.76 9.64 11.616 9.64C11.552 9.64 11.52 9.672 11.52 9.736C11.52 9.848 11.52 9.952 11.52 10.048C11.536 10.144 11.544 10.24 11.544 10.336C11.544 10.624 11.464 10.848 11.304 11.008C11.192 11.12 11.12 11.248 11.088 11.392C11.056 11.52 11.024 11.648 10.992 11.776C10.944 11.92 10.88 12.056 10.8 12.184C10.736 12.312 10.688 12.44 10.656 12.568C10.56 12.664 10.472 12.752 10.392 12.832C10.312 12.912 10.248 13.008 10.2 13.12C10.152 13.264 10.08 13.392 9.984 13.504C9.888 13.616 9.824 13.752 9.792 13.912C9.776 14.056 9.712 14.184 9.6 14.296C9.504 14.408 9.448 14.544 9.432 14.704C9.4 14.8 9.352 14.896 9.288 14.992C9.24 15.072 9.2 15.16 9.168 15.256C9.088 15.352 9.024 15.48 8.976 15.64C8.72 15.752 8.504 15.824 8.328 15.856C8.168 15.888 7.928 15.936 7.608 16C7.496 15.968 7.368 15.928 7.224 15.88C7.096 15.832 6.952 15.792 6.792 15.76C6.744 15.776 6.696 15.792 6.648 15.808C6.6 15.824 6.544 15.84 6.48 15.856C6.448 15.888 6.408 15.912 6.36 15.928C6.328 15.944 6.296 15.96 6.264 15.976C6.152 15.96 6.048 15.944 5.952 15.928C5.856 15.896 5.752 15.896 5.64 15.928C5.56 15.784 5.472 15.648 5.376 15.52C5.296 15.376 5.24 15.224 5.208 15.064C5.192 14.888 5.136 14.744 5.04 14.632C4.944 14.504 4.88 14.36 4.848 14.2C4.8 14.12 4.744 14.056 4.68 14.008C4.632 13.96 4.584 13.912 4.536 13.864C4.472 13.704 4.424 13.536 4.392 13.36C4.36 13.184 4.344 13.008 4.344 12.832C4.136 12.592 4.032 12.336 4.032 12.064C3.856 11.824 3.744 11.672 3.696 11.608C3.664 11.528 3.632 11.384 3.6 11.176C3.44 10.968 3.272 10.752 3.096 10.528C2.936 10.304 2.768 10.088 2.592 9.88C2.528 9.624 2.464 9.376 2.4 9.136C2.352 8.896 2.296 8.656 2.232 8.416C2.152 8.096 2.056 7.792 1.944 7.504C1.832 7.2 1.736 6.896 1.656 6.592C1.624 6.448 1.584 6.32 1.536 6.208C1.488 6.08 1.448 5.952 1.416 5.824C1.416 5.76 1.4 5.704 1.368 5.656C1.352 5.592 1.328 5.544 1.296 5.512C1.232 5.432 1.192 5.352 1.176 5.272C1.16 5.176 1.144 5.088 1.128 5.008C1.112 4.896 1.088 4.8 1.056 4.72C1.024 4.624 0.992 4.528 0.96 4.432C1.072 4.16 1.232 3.92 1.44 3.712C1.52 3.664 1.592 3.64 1.656 3.64C1.736 3.624 1.808 3.6 1.872 3.568C2.112 3.504 2.288 3.44 2.4 3.376C2.512 3.296 2.68 3.2 2.904 3.088C3.288 2.864 3.688 2.704 4.104 2.608C4.184 2.624 4.24 2.656 4.272 2.704C4.304 2.752 4.328 2.808 4.344 2.872C4.392 3.032 4.44 3.2 4.488 3.376C4.552 3.536 4.64 3.688 4.752 3.832C4.832 4.056 4.928 4.28 5.04 4.504C5.168 4.728 5.28 4.944 5.376 5.152C5.392 5.168 5.432 5.248 5.496 5.392C5.56 5.52 5.624 5.656 5.688 5.8C5.768 5.928 5.816 5.992 5.832 5.992C6.056 6.184 6.216 6.336 6.312 6.448C6.424 6.56 6.52 6.688 6.6 6.832C6.68 6.96 6.768 7.16 6.864 7.432C6.944 7.608 7.024 7.784 7.104 7.96C7.184 8.136 7.256 8.32 7.32 8.512C7.336 8.624 7.344 8.736 7.344 8.848C7.344 8.96 7.352 9.08 7.368 9.208C7.416 9.288 7.456 9.376 7.488 9.472C7.536 9.568 7.576 9.664 7.608 9.76C7.672 9.792 7.728 9.808 7.776 9.808C7.776 9.824 7.784 9.832 7.8 9.832C7.832 9.816 7.848 9.8 7.848 9.784C7.96 9.608 8.056 9.44 8.136 9.28C8.232 9.12 8.296 8.952 8.328 8.776C8.344 8.648 8.376 8.544 8.424 8.464C8.472 8.384 8.504 8.296 8.52 8.2C8.504 8.12 8.496 8.032 8.496 7.936C8.496 7.84 8.488 7.752 8.472 7.672C8.536 7.544 8.592 7.432 8.64 7.336C8.704 7.24 8.76 7.144 8.808 7.048C8.84 6.952 8.864 6.856 8.88 6.76C8.912 6.648 8.952 6.552 9 6.472C9.08 6.296 9.16 6.136 9.24 5.992C9.32 5.832 9.408 5.664 9.504 5.488C9.52 5.408 9.512 5.328 9.48 5.248C9.448 5.168 9.424 5.096 9.408 5.032C9.424 5 9.432 4.968 9.432 4.936C9.448 4.888 9.472 4.856 9.504 4.84C9.712 4.744 9.856 4.584 9.936 4.36C10.064 4.072 10.16 3.84 10.224 3.664C10.304 3.472 10.432 3.248 10.608 2.992C10.64 2.944 10.72 2.848 10.848 2.704C10.976 2.544 11.056 2.432 11.088 2.368C11.104 2.32 11.152 2.28 11.232 2.248C11.296 2.264 11.344 2.288 11.376 2.32C11.424 2.336 11.48 2.36 11.544 2.392C11.608 2.392 11.664 2.384 11.712 2.368C11.824 2.256 11.952 2.2 12.096 2.2C12.224 2.184 12.352 2.176 12.48 2.176C12.624 2.16 12.752 2.168 12.864 2.2C12.992 2.232 13.08 2.288 13.128 2.368C13.176 2.448 13.256 2.472 13.368 2.44C13.48 2.584 13.552 2.736 13.584 2.896C13.616 3.056 13.672 3.2 13.752 3.328C13.816 3.408 13.896 3.456 13.992 3.472C14.104 3.488 14.176 3.52 14.208 3.568C14.288 3.68 14.328 3.792 14.328 3.904C14.344 4 14.36 4.088 14.376 4.168C14.408 4.248 14.432 4.328 14.448 4.408C14.48 4.488 14.488 4.584 14.472 4.696C14.456 4.712 14.456 4.744 14.472 4.792C14.504 4.84 14.528 4.88 14.544 4.912C14.576 4.96 14.616 5.008 14.664 5.056C14.712 5.088 14.744 5.12 14.76 5.152L14.928 5.56C14.944 5.576 14.96 5.6 14.976 5.632C15.008 5.648 15.024 5.672 15.024 5.704C15.04 5.768 15.048 5.84 15.048 5.92C15.064 5.984 15.072 6.056 15.072 6.136C15.072 6.472 15.128 6.76 15.24 7C15.32 7.208 15.384 7.36 15.432 7.456C15.48 7.536 15.616 7.672 15.84 7.864C15.872 7.912 15.896 7.968 15.912 8.032C15.944 8.096 15.976 8.16 16.008 8.224C16.024 8.256 16.056 8.344 16.104 8.488C16.168 8.616 16.232 8.736 16.296 8.848C16.36 8.96 16.408 9.016 16.44 9.016C16.536 8.968 16.624 8.848 16.704 8.656C16.784 8.464 16.864 8.264 16.944 8.056C17.024 7.848 17.096 7.712 17.16 7.648C17.208 7.472 17.256 7.296 17.304 7.12C17.368 6.944 17.408 6.76 17.424 6.568C17.44 6.376 17.472 6.192 17.52 6.016C17.584 5.824 17.624 5.64 17.64 5.464C17.656 5.416 17.728 5.32 17.856 5.176C18 5.016 18.08 4.928 18.096 4.912C18.24 4.592 18.304 4.344 18.288 4.168C18.288 3.976 18.352 3.728 18.48 3.424C18.56 3.28 18.648 3.144 18.744 3.016C18.84 2.888 18.92 2.76 18.984 2.632C19.128 2.536 19.264 2.504 19.392 2.536C19.52 2.552 19.64 2.544 19.752 2.512C19.944 2.56 20.104 2.584 20.232 2.584C20.36 2.584 20.496 2.632 20.64 2.728C20.72 2.76 20.808 2.8 20.904 2.848C21.016 2.896 21.112 2.936 21.192 2.968C21.256 3.064 21.336 3.152 21.432 3.232C21.528 3.296 21.608 3.376 21.672 3.472C21.864 3.6 22.008 3.704 22.104 3.784C22.216 3.864 22.352 4 22.512 4.192ZM36.7283 14.968C36.7603 15.048 36.7363 15.16 36.6563 15.304C36.5283 15.32 36.3923 15.32 36.2483 15.304C36.1203 15.272 35.9923 15.24 35.8643 15.208C35.6563 15.288 35.5123 15.344 35.4323 15.376C35.3683 15.408 35.3043 15.424 35.2403 15.424C35.1763 15.408 35.0483 15.4 34.8563 15.4C34.8083 15.416 34.7603 15.44 34.7123 15.472C34.6803 15.504 34.6323 15.536 34.5683 15.568C34.5683 15.568 34.5603 15.576 34.5443 15.592C34.5443 15.592 34.5363 15.592 34.5203 15.592C34.3603 15.592 34.2003 15.6 34.0403 15.616C33.8803 15.616 33.7283 15.616 33.5843 15.616C33.4883 15.52 33.4243 15.448 33.3923 15.4C33.3763 15.352 33.3443 15.24 33.2963 15.064C33.2643 14.968 33.1923 14.856 33.0803 14.728C32.9203 14.552 32.7523 14.312 32.5763 14.008C32.4163 13.704 32.2883 13.448 32.1923 13.24L32.0723 13.12C32.0083 13.12 31.9603 13.136 31.9283 13.168C31.6723 13.328 31.4323 13.352 31.2083 13.24C31.0643 13.208 30.9203 13.192 30.7763 13.192C30.6483 13.192 30.5123 13.192 30.3683 13.192C30.2563 13.176 30.1443 13.176 30.0323 13.192C29.9203 13.208 29.8003 13.216 29.6723 13.216C29.5763 13.216 29.4723 13.216 29.3603 13.216C29.2643 13.2 29.1683 13.192 29.0723 13.192C28.9443 13.208 28.8083 13.232 28.6643 13.264C28.5363 13.296 28.4083 13.344 28.2803 13.408C28.1683 13.472 28.0483 13.512 27.9203 13.528C27.8083 13.544 27.6883 13.56 27.5603 13.576C27.3843 13.576 27.2083 13.6 27.0323 13.648C26.8723 13.68 26.7043 13.72 26.5283 13.768C26.4803 13.784 26.4243 13.808 26.3603 13.84C26.3123 13.856 26.2723 13.896 26.2403 13.96C26.2403 14.04 26.2323 14.128 26.2163 14.224C26.2163 14.304 26.2163 14.392 26.2163 14.488C26.1683 14.632 26.1363 14.784 26.1203 14.944C26.0563 15.168 25.9523 15.36 25.8083 15.52C25.6803 15.68 25.5443 15.84 25.4003 16C25.3363 16 25.2723 16 25.2083 16C25.1603 15.984 25.1043 15.976 25.0403 15.976C24.9923 15.976 24.9363 15.984 24.8723 16C24.8243 16 24.7683 16.008 24.7043 16.024C24.5283 16.04 24.3443 16.016 24.1523 15.952C24.1363 15.936 24.1203 15.936 24.1043 15.952C24.1043 15.952 24.0883 15.952 24.0563 15.952H23.9363L23.8883 15.928C23.8723 15.896 23.8483 15.888 23.8163 15.904C23.8003 15.904 23.7523 15.896 23.6723 15.88C23.5763 15.848 23.4883 15.832 23.4083 15.832C23.3443 15.832 23.2883 15.832 23.2403 15.832C23.1923 15.832 23.1283 15.824 23.0483 15.808C23.0163 15.792 22.9683 15.784 22.9043 15.784C22.8403 15.768 22.7683 15.744 22.6883 15.712C22.6403 15.696 22.6003 15.696 22.5683 15.712C22.5523 15.712 22.5203 15.704 22.4723 15.688L22.4003 15.664H22.3523L22.3043 15.64C22.3363 15.416 22.3683 15.2 22.4003 14.992C22.4483 14.768 22.5283 14.552 22.6403 14.344C22.6723 14.28 22.6963 14.224 22.7123 14.176C22.7283 14.128 22.7363 14.072 22.7363 14.008L22.8083 13.6C22.8563 13.52 22.9043 13.432 22.9523 13.336C23.0003 13.24 23.0483 13.16 23.0963 13.096C23.1283 13 23.1283 12.904 23.0963 12.808C23.0803 12.712 23.1043 12.624 23.1683 12.544C23.2163 12.464 23.2403 12.384 23.2403 12.304C23.2563 12.224 23.2963 12.16 23.3603 12.112C23.4243 11.984 23.4803 11.864 23.5283 11.752C23.5923 11.624 23.6403 11.496 23.6723 11.368C23.6883 11.352 23.6963 11.32 23.6963 11.272C23.7443 10.936 23.8803 10.648 24.1043 10.408C24.0883 10.344 24.0803 10.288 24.0803 10.24C24.0803 10.176 24.0803 10.128 24.0803 10.096C24.1123 10 24.1683 9.912 24.2483 9.832C24.3283 9.752 24.4003 9.68 24.4643 9.616C24.5443 9.52 24.6163 9.424 24.6803 9.328C24.7443 9.232 24.7843 9.128 24.8003 9.016C24.8643 8.776 24.9523 8.552 25.0643 8.344C25.1763 8.136 25.3123 7.936 25.4723 7.744C25.5683 7.616 25.6483 7.48 25.7123 7.336C25.7923 7.176 25.8723 7.016 25.9523 6.856C26.0163 6.728 26.0723 6.592 26.1203 6.448C26.1843 6.304 26.2243 6.16 26.2403 6.016C26.3683 5.856 26.4563 5.736 26.5043 5.656C26.5523 5.56 26.5923 5.456 26.6243 5.344C26.6723 5.216 26.7283 5.024 26.7923 4.768C26.8243 4.736 26.8643 4.712 26.9123 4.696C26.9763 4.664 27.0163 4.616 27.0323 4.552C27.0323 4.488 27.0723 4.44 27.1523 4.408C27.2803 4.328 27.3683 4.216 27.4163 4.072C27.4643 3.944 27.5283 3.832 27.6083 3.736C27.7043 3.624 27.7923 3.52 27.8723 3.424C27.9523 3.344 28.0003 3.264 28.0163 3.184C28.0963 2.96 28.2003 2.76 28.3283 2.584C28.4723 2.392 28.5923 2.2 28.6883 2.008C28.7683 1.944 28.8403 1.912 28.9043 1.912C28.9683 1.896 29.0323 1.888 29.0963 1.888H29.1683C29.3283 1.952 29.4963 2 29.6723 2.032C29.7843 2.048 29.8883 2.056 29.9843 2.056C30.0803 2.056 30.1603 2.056 30.2243 2.056C30.2723 2.056 30.3203 2.056 30.3683 2.056C30.4163 2.056 30.4643 2.064 30.5123 2.08C30.7203 2.144 30.9363 2.176 31.1603 2.176C31.3843 2.176 31.6003 2.184 31.8083 2.2C32.0803 2.392 32.3123 2.576 32.5043 2.752C32.6963 2.928 32.8483 3.232 32.9603 3.664C32.9763 3.68 33.0003 3.696 33.0323 3.712C33.0643 3.728 33.0883 3.752 33.1043 3.784C33.1363 3.8 33.1683 3.816 33.2003 3.832C33.2323 3.848 33.2643 3.872 33.2963 3.904C33.3283 3.968 33.3523 4.04 33.3683 4.12C33.4003 4.184 33.4323 4.256 33.4643 4.336C33.4963 4.4 33.5363 4.472 33.5843 4.552C33.6323 4.616 33.6883 4.688 33.7523 4.768C33.7843 4.928 33.8323 5.088 33.8963 5.248C33.9763 5.408 34.0083 5.592 33.9923 5.8L34.1603 6.04C34.1603 6.12 34.1603 6.208 34.1603 6.304C34.1763 6.384 34.1843 6.472 34.1843 6.568C34.2643 6.616 34.3043 6.68 34.3043 6.76C34.3203 6.84 34.3363 6.928 34.3523 7.024C34.4003 7.088 34.4483 7.16 34.4963 7.24C34.5443 7.304 34.5923 7.368 34.6403 7.432C34.6723 7.544 34.7043 7.656 34.7363 7.768C34.7683 7.864 34.7923 7.96 34.8083 8.056C34.7923 8.12 34.7763 8.184 34.7603 8.248C34.7603 8.312 34.7523 8.376 34.7363 8.44C34.7683 8.6 34.8243 8.744 34.9043 8.872C35.0003 8.984 35.0883 9.104 35.1683 9.232C35.2483 9.536 35.3203 9.848 35.3843 10.168C35.4643 10.472 35.5203 10.784 35.5523 11.104C35.7283 11.328 35.8323 11.568 35.8643 11.824C35.9123 12.08 35.9683 12.344 36.0323 12.616C36.0643 12.728 36.0803 12.84 36.0803 12.952C36.0803 13.048 36.0883 13.152 36.1043 13.264C36.1363 13.36 36.2083 13.488 36.3203 13.648C36.4323 13.792 36.5203 13.904 36.5843 13.984C36.5843 14.144 36.5923 14.312 36.6083 14.488C36.6243 14.648 36.6643 14.808 36.7283 14.968ZM30.9443 9.904C30.9283 9.792 30.8883 9.696 30.8243 9.616C30.7603 9.52 30.7443 9.416 30.7763 9.304C30.7123 9.192 30.6803 9.056 30.6803 8.896C30.6803 8.736 30.6963 8.648 30.7283 8.632C30.7123 8.6 30.7043 8.552 30.7043 8.488C30.6403 8.408 30.5763 8.336 30.5123 8.272C30.4643 8.208 30.4163 8.136 30.3683 8.056C30.3683 8.072 30.3363 8.048 30.2723 7.984C30.1923 7.968 30.1283 7.92 30.0803 7.84C30.0643 7.792 30.0403 7.744 30.0083 7.696C29.9923 7.648 29.9603 7.616 29.9123 7.6C29.8483 7.6 29.8003 7.624 29.7683 7.672C29.7363 7.704 29.6883 7.736 29.6243 7.768C29.5603 7.784 29.4963 7.8 29.4323 7.816C29.3843 7.832 29.3283 7.848 29.2643 7.864C29.1523 7.96 29.0803 8.088 29.0483 8.248V8.536C28.9843 8.648 28.9123 8.744 28.8323 8.824C28.7683 8.904 28.7203 8.992 28.6883 9.088C28.6403 9.312 28.5683 9.512 28.4723 9.688C28.4723 9.8 28.4483 9.904 28.4003 10C28.3523 10.08 28.3123 10.168 28.2803 10.264C28.2643 10.28 28.2563 10.328 28.2563 10.408C28.2563 10.504 28.3123 10.552 28.4243 10.552C28.4883 10.552 28.5523 10.552 28.6163 10.552C28.6803 10.536 28.7443 10.528 28.8083 10.528C28.8403 10.544 28.8803 10.568 28.9283 10.6C28.9763 10.616 29.0163 10.632 29.0483 10.648C29.2883 10.616 29.5123 10.568 29.7203 10.504C29.9443 10.44 30.1603 10.368 30.3683 10.288C30.4643 10.208 30.5683 10.152 30.6803 10.12C30.7923 10.088 30.8803 10.016 30.9443 9.904ZM47.6726 12.832C47.6886 12.944 47.6806 13.072 47.6486 13.216C47.6326 13.344 47.6246 13.472 47.6246 13.6C47.6246 13.712 47.6166 13.832 47.6006 13.96C47.5846 14.088 47.5606 14.216 47.5286 14.344C47.4806 14.456 47.4646 14.576 47.4806 14.704C47.4966 14.816 47.4966 14.936 47.4806 15.064C47.4486 15.128 47.4086 15.2 47.3606 15.28C47.3286 15.36 47.2886 15.44 47.2406 15.52C47.2246 15.584 47.2006 15.656 47.1686 15.736C47.1366 15.8 47.1046 15.872 47.0726 15.952C46.9606 16 46.8486 16.048 46.7366 16.096C46.6406 16.16 46.5446 16.208 46.4486 16.24C46.2406 16.288 46.0166 16.296 45.7766 16.264C45.5526 16.232 45.3286 16.248 45.1046 16.312C45.0726 16.328 45.0326 16.344 44.9846 16.36C44.9526 16.376 44.9046 16.4 44.8406 16.432C44.7766 16.448 44.6966 16.464 44.6006 16.48C44.5206 16.496 44.4406 16.512 44.3606 16.528C44.2966 16.528 44.2326 16.528 44.1686 16.528C44.1206 16.528 44.0806 16.52 44.0486 16.504C43.9526 16.456 43.8566 16.432 43.7606 16.432C43.6806 16.432 43.6006 16.448 43.5206 16.48C43.4566 16.48 43.3926 16.472 43.3286 16.456C43.2646 16.44 43.1926 16.424 43.1126 16.408C43.0326 16.488 42.9286 16.552 42.8006 16.6C42.6726 16.648 42.5366 16.656 42.3926 16.624C42.2486 16.608 42.1206 16.64 42.0086 16.72C41.9126 16.672 41.8246 16.632 41.7446 16.6C41.6806 16.568 41.6086 16.544 41.5286 16.528C41.4166 16.512 41.3046 16.52 41.1926 16.552C41.0966 16.584 40.9846 16.592 40.8566 16.576C40.7286 16.544 40.6006 16.544 40.4726 16.576C40.3606 16.608 40.2406 16.624 40.1126 16.624C39.9846 16.608 39.8646 16.6 39.7526 16.6C39.6406 16.616 39.5366 16.64 39.4406 16.672C39.4246 16.624 39.4006 16.584 39.3686 16.552C39.3366 16.536 39.3206 16.52 39.3206 16.504C39.2086 16.008 39.1526 15.472 39.1526 14.896C39.1846 14.736 39.1926 14.584 39.1766 14.44C39.1606 14.28 39.1526 14.112 39.1526 13.936C39.0406 13.616 38.9686 13.296 38.9366 12.976C38.9206 12.656 38.9206 12.328 38.9366 11.992C38.9526 11.672 38.9686 11.344 38.9846 11.008C39.0006 10.672 39.0166 10.328 39.0326 9.976C39.0326 9.848 39.0406 9.712 39.0566 9.568C39.0726 9.424 39.0966 9.288 39.1286 9.16C39.1926 9 39.2326 8.84 39.2486 8.68C39.2646 8.504 39.2726 8.328 39.2726 8.152C39.2726 8.008 39.2726 7.864 39.2726 7.72C39.2726 7.56 39.2646 7.4 39.2486 7.24C39.2486 7.176 39.2486 7.104 39.2486 7.024C39.2486 6.944 39.2406 6.864 39.2246 6.784C39.1926 6.656 39.1686 6.528 39.1526 6.4C39.1366 6.272 39.1286 6.152 39.1286 6.04C39.1446 5.96 39.1446 5.88 39.1286 5.8C39.1286 5.72 39.1206 5.64 39.1046 5.56C39.0886 5.496 39.0886 5.424 39.1046 5.344C39.1206 5.264 39.1206 5.192 39.1046 5.128C39.0886 5.016 39.0806 4.912 39.0806 4.816C39.0806 4.72 39.0966 4.624 39.1286 4.528C39.1446 4.432 39.1366 4.328 39.1046 4.216C39.0886 4.088 39.0726 3.96 39.0566 3.832C39.0566 3.688 39.0726 3.56 39.1046 3.448C39.1526 3.256 39.1846 3.064 39.2006 2.872C39.2166 2.664 39.2326 2.48 39.2486 2.32C39.2806 2.192 39.3286 2.096 39.3926 2.032C39.4726 1.952 39.5046 1.864 39.4886 1.768C39.4726 1.672 39.5126 1.608 39.6086 1.576C39.7046 1.528 39.7126 1.448 39.6326 1.336C39.7446 1.336 39.8086 1.344 39.8246 1.36C40.1286 1.488 40.3926 1.504 40.6166 1.408C40.7126 1.424 40.8086 1.44 40.9046 1.456C41.0006 1.472 41.0886 1.48 41.1686 1.48C41.2486 1.496 41.3366 1.496 41.4326 1.48C41.5286 1.464 41.6166 1.448 41.6966 1.432C41.8886 1.384 42.0726 1.344 42.2486 1.312C42.4406 1.264 42.6326 1.24 42.8246 1.24C43.0006 1.208 43.1606 1.208 43.3046 1.24C43.3526 1.24 43.4246 1.272 43.5206 1.336C43.5046 1.4 43.4886 1.464 43.4726 1.528C43.4726 1.592 43.4646 1.656 43.4486 1.72C43.4646 1.8 43.4806 1.888 43.4966 1.984C43.5286 2.064 43.5446 2.152 43.5446 2.248C43.5606 2.328 43.5846 2.416 43.6166 2.512C43.6646 2.592 43.7046 2.68 43.7366 2.776C43.6886 2.872 43.6406 2.984 43.5926 3.112C43.5446 3.224 43.4966 3.336 43.4486 3.448C43.4806 3.512 43.5046 3.576 43.5206 3.64C43.5366 3.688 43.5526 3.744 43.5686 3.808C43.5046 4.096 43.4406 4.384 43.3766 4.672C43.3286 4.96 43.2966 5.256 43.2806 5.56C43.2646 5.64 43.2406 5.728 43.2086 5.824C43.1926 5.904 43.1686 6 43.1366 6.112C43.1686 6.176 43.2006 6.248 43.2326 6.328C43.2646 6.392 43.2886 6.464 43.3046 6.544L43.2086 7.024C43.2086 7.088 43.2086 7.16 43.2086 7.24C43.2086 7.304 43.1926 7.36 43.1606 7.408C43.1126 7.52 43.0806 7.632 43.0646 7.744C43.0646 7.856 43.0486 7.976 43.0166 8.104C43.0166 8.312 43.0086 8.528 42.9926 8.752C42.9766 8.96 42.9766 9.176 42.9926 9.4C42.9926 9.544 42.9686 9.68 42.9206 9.808C42.8886 9.92 42.8566 10.056 42.8246 10.216C42.8566 10.28 42.8806 10.344 42.8966 10.408C42.9126 10.472 42.9286 10.544 42.9446 10.624C42.9286 10.704 42.9046 10.792 42.8726 10.888C42.8566 10.968 42.8326 11.056 42.8006 11.152C42.8486 11.264 42.8966 11.376 42.9446 11.488C42.9926 11.6 43.0406 11.72 43.0886 11.848C43.1206 11.912 43.1446 11.976 43.1606 12.04C43.1766 12.088 43.1926 12.144 43.2086 12.208C43.2566 12.336 43.3046 12.416 43.3526 12.448C43.4166 12.48 43.5046 12.488 43.6166 12.472C43.8406 12.408 44.0726 12.36 44.3126 12.328C44.5526 12.296 44.7926 12.256 45.0326 12.208C45.0806 12.192 45.1606 12.184 45.2726 12.184C45.4166 12.184 45.5606 12.168 45.7046 12.136C45.8646 12.104 46.0086 12.048 46.1366 11.968C46.4246 11.792 46.7206 11.728 47.0246 11.776C47.1046 11.792 47.1846 11.792 47.2646 11.776C47.3446 11.76 47.4246 11.768 47.5046 11.8C47.5206 11.816 47.5366 11.848 47.5526 11.896C47.5686 11.928 47.5766 11.96 47.5766 11.992C47.6246 12.136 47.6486 12.28 47.6486 12.424C47.6646 12.552 47.6726 12.688 47.6726 12.832ZM58.5866 12.832C58.6026 12.944 58.5946 13.072 58.5626 13.216C58.5466 13.344 58.5386 13.472 58.5386 13.6C58.5386 13.712 58.5306 13.832 58.5146 13.96C58.4986 14.088 58.4746 14.216 58.4426 14.344C58.3946 14.456 58.3786 14.576 58.3946 14.704C58.4106 14.816 58.4106 14.936 58.3946 15.064C58.3626 15.128 58.3226 15.2 58.2746 15.28C58.2426 15.36 58.2026 15.44 58.1546 15.52C58.1386 15.584 58.1146 15.656 58.0826 15.736C58.0506 15.8 58.0186 15.872 57.9866 15.952C57.8746 16 57.7626 16.048 57.6506 16.096C57.5546 16.16 57.4586 16.208 57.3626 16.24C57.1546 16.288 56.9306 16.296 56.6906 16.264C56.4666 16.232 56.2426 16.248 56.0186 16.312C55.9866 16.328 55.9466 16.344 55.8986 16.36C55.8666 16.376 55.8186 16.4 55.7546 16.432C55.6906 16.448 55.6106 16.464 55.5146 16.48C55.4346 16.496 55.3546 16.512 55.2746 16.528C55.2106 16.528 55.1466 16.528 55.0826 16.528C55.0346 16.528 54.9946 16.52 54.9626 16.504C54.8666 16.456 54.7706 16.432 54.6746 16.432C54.5946 16.432 54.5146 16.448 54.4346 16.48C54.3706 16.48 54.3066 16.472 54.2426 16.456C54.1786 16.44 54.1066 16.424 54.0266 16.408C53.9466 16.488 53.8426 16.552 53.7146 16.6C53.5866 16.648 53.4506 16.656 53.3066 16.624C53.1626 16.608 53.0346 16.64 52.9226 16.72C52.8266 16.672 52.7386 16.632 52.6586 16.6C52.5946 16.568 52.5226 16.544 52.4426 16.528C52.3306 16.512 52.2186 16.52 52.1066 16.552C52.0106 16.584 51.8986 16.592 51.7706 16.576C51.6426 16.544 51.5146 16.544 51.3866 16.576C51.2746 16.608 51.1546 16.624 51.0266 16.624C50.8986 16.608 50.7786 16.6 50.6666 16.6C50.5546 16.616 50.4506 16.64 50.3546 16.672C50.3386 16.624 50.3146 16.584 50.2826 16.552C50.2506 16.536 50.2346 16.52 50.2346 16.504C50.1226 16.008 50.0666 15.472 50.0666 14.896C50.0986 14.736 50.1066 14.584 50.0906 14.44C50.0746 14.28 50.0666 14.112 50.0666 13.936C49.9546 13.616 49.8826 13.296 49.8506 12.976C49.8346 12.656 49.8346 12.328 49.8506 11.992C49.8666 11.672 49.8826 11.344 49.8986 11.008C49.9146 10.672 49.9306 10.328 49.9466 9.976C49.9466 9.848 49.9546 9.712 49.9706 9.568C49.9866 9.424 50.0106 9.288 50.0426 9.16C50.1066 9 50.1466 8.84 50.1626 8.68C50.1786 8.504 50.1866 8.328 50.1866 8.152C50.1866 8.008 50.1866 7.864 50.1866 7.72C50.1866 7.56 50.1786 7.4 50.1626 7.24C50.1626 7.176 50.1626 7.104 50.1626 7.024C50.1626 6.944 50.1546 6.864 50.1386 6.784C50.1066 6.656 50.0826 6.528 50.0666 6.4C50.0506 6.272 50.0426 6.152 50.0426 6.04C50.0586 5.96 50.0586 5.88 50.0426 5.8C50.0426 5.72 50.0346 5.64 50.0186 5.56C50.0026 5.496 50.0026 5.424 50.0186 5.344C50.0346 5.264 50.0346 5.192 50.0186 5.128C50.0026 5.016 49.9946 4.912 49.9946 4.816C49.9946 4.72 50.0106 4.624 50.0426 4.528C50.0586 4.432 50.0506 4.328 50.0186 4.216C50.0026 4.088 49.9866 3.96 49.9706 3.832C49.9706 3.688 49.9866 3.56 50.0186 3.448C50.0666 3.256 50.0986 3.064 50.1146 2.872C50.1306 2.664 50.1466 2.48 50.1626 2.32C50.1946 2.192 50.2426 2.096 50.3066 2.032C50.3866 1.952 50.4186 1.864 50.4026 1.768C50.3866 1.672 50.4266 1.608 50.5226 1.576C50.6186 1.528 50.6266 1.448 50.5466 1.336C50.6586 1.336 50.7226 1.344 50.7386 1.36C51.0426 1.488 51.3066 1.504 51.5306 1.408C51.6266 1.424 51.7226 1.44 51.8186 1.456C51.9146 1.472 52.0026 1.48 52.0826 1.48C52.1626 1.496 52.2506 1.496 52.3466 1.48C52.4426 1.464 52.5306 1.448 52.6106 1.432C52.8026 1.384 52.9866 1.344 53.1626 1.312C53.3546 1.264 53.5466 1.24 53.7386 1.24C53.9146 1.208 54.0746 1.208 54.2186 1.24C54.2666 1.24 54.3386 1.272 54.4346 1.336C54.4186 1.4 54.4026 1.464 54.3866 1.528C54.3866 1.592 54.3786 1.656 54.3626 1.72C54.3786 1.8 54.3946 1.888 54.4106 1.984C54.4426 2.064 54.4586 2.152 54.4586 2.248C54.4746 2.328 54.4986 2.416 54.5306 2.512C54.5786 2.592 54.6186 2.68 54.6506 2.776C54.6026 2.872 54.5546 2.984 54.5066 3.112C54.4586 3.224 54.4106 3.336 54.3626 3.448C54.3946 3.512 54.4186 3.576 54.4346 3.64C54.4506 3.688 54.4666 3.744 54.4826 3.808C54.4186 4.096 54.3546 4.384 54.2906 4.672C54.2426 4.96 54.2106 5.256 54.1946 5.56C54.1786 5.64 54.1546 5.728 54.1226 5.824C54.1066 5.904 54.0826 6 54.0506 6.112C54.0826 6.176 54.1146 6.248 54.1466 6.328C54.1786 6.392 54.2026 6.464 54.2186 6.544L54.1226 7.024C54.1226 7.088 54.1226 7.16 54.1226 7.24C54.1226 7.304 54.1066 7.36 54.0746 7.408C54.0266 7.52 53.9946 7.632 53.9786 7.744C53.9786 7.856 53.9626 7.976 53.9306 8.104C53.9306 8.312 53.9226 8.528 53.9066 8.752C53.8906 8.96 53.8906 9.176 53.9066 9.4C53.9066 9.544 53.8826 9.68 53.8346 9.808C53.8026 9.92 53.7706 10.056 53.7386 10.216C53.7706 10.28 53.7946 10.344 53.8106 10.408C53.8266 10.472 53.8426 10.544 53.8586 10.624C53.8426 10.704 53.8186 10.792 53.7866 10.888C53.7706 10.968 53.7466 11.056 53.7146 11.152C53.7626 11.264 53.8106 11.376 53.8586 11.488C53.9066 11.6 53.9546 11.72 54.0026 11.848C54.0346 11.912 54.0586 11.976 54.0746 12.04C54.0906 12.088 54.1066 12.144 54.1226 12.208C54.1706 12.336 54.2186 12.416 54.2666 12.448C54.3306 12.48 54.4186 12.488 54.5306 12.472C54.7546 12.408 54.9866 12.36 55.2266 12.328C55.4666 12.296 55.7066 12.256 55.9466 12.208C55.9946 12.192 56.0746 12.184 56.1866 12.184C56.3306 12.184 56.4746 12.168 56.6186 12.136C56.7786 12.104 56.9226 12.048 57.0506 11.968C57.3386 11.792 57.6346 11.728 57.9386 11.776C58.0186 11.792 58.0986 11.792 58.1786 11.776C58.2586 11.76 58.3386 11.768 58.4186 11.8C58.4346 11.816 58.4506 11.848 58.4666 11.896C58.4826 11.928 58.4906 11.96 58.4906 11.992C58.5386 12.136 58.5626 12.28 58.5626 12.424C58.5786 12.552 58.5866 12.688 58.5866 12.832ZM70.4127 4.456C70.3167 4.536 70.2047 4.576 70.0767 4.576C69.9487 4.576 69.8207 4.576 69.6927 4.576C69.5807 4.576 69.4847 4.6 69.4047 4.648L68.9967 4.576C68.9327 4.592 68.8767 4.608 68.8287 4.624C68.7807 4.624 68.7167 4.632 68.6367 4.648C68.5887 4.648 68.5007 4.632 68.3727 4.6C68.1807 4.568 68.0127 4.576 67.8687 4.624C67.6767 4.688 67.4607 4.712 67.2207 4.696C67.0767 4.664 66.9247 4.672 66.7647 4.72C66.6207 4.752 66.4847 4.784 66.3567 4.816C66.2927 4.8 66.2287 4.792 66.1647 4.792C66.1167 4.776 66.0767 4.76 66.0447 4.744C65.9487 4.76 65.8527 4.792 65.7567 4.84C65.6767 4.888 65.5887 4.944 65.4927 5.008C65.4447 5.072 65.3967 5.152 65.3487 5.248C65.3167 5.328 65.2687 5.408 65.2047 5.488C65.1887 5.68 65.1807 5.88 65.1807 6.088C65.1807 6.28 65.1727 6.464 65.1567 6.64C65.1407 6.768 65.0927 6.872 65.0127 6.952C64.9487 7.016 64.9167 7.096 64.9167 7.192C64.9647 7.32 65.0527 7.392 65.1807 7.408C65.2767 7.44 65.3807 7.464 65.4927 7.48C65.6047 7.48 65.7167 7.488 65.8287 7.504C65.9567 7.456 66.0847 7.408 66.2127 7.36C66.3407 7.312 66.4607 7.264 66.5727 7.216C66.7487 7.216 66.9007 7.216 67.0287 7.216C67.1567 7.216 67.2847 7.208 67.4127 7.192C67.4607 7.192 67.5087 7.192 67.5567 7.192C67.6047 7.176 67.6527 7.16 67.7007 7.144C67.9247 7.048 68.1487 7 68.3727 7C68.5967 7 68.8207 7.016 69.0447 7.048C69.2047 7.096 69.3087 7.216 69.3567 7.408C69.3567 7.44 69.3567 7.48 69.3567 7.528C69.3727 7.56 69.3887 7.6 69.4047 7.648C69.3887 7.696 69.3727 7.752 69.3567 7.816C69.3407 7.88 69.3327 7.952 69.3327 8.032C69.3487 8.288 69.3407 8.544 69.3087 8.8C69.2927 9.056 69.2927 9.32 69.3087 9.592C69.3247 9.704 69.3087 9.816 69.2607 9.928C69.2287 10.04 69.1887 10.136 69.1407 10.216L69.0687 10.264C68.9727 10.28 68.8847 10.28 68.8047 10.264C68.7407 10.232 68.6687 10.216 68.5887 10.216C68.4927 10.216 68.4127 10.24 68.3487 10.288C68.2847 10.336 68.2127 10.376 68.1327 10.408C68.0207 10.424 67.9007 10.432 67.7727 10.432C67.6607 10.432 67.5407 10.424 67.4127 10.408C67.3487 10.376 67.2767 10.376 67.1967 10.408C67.1327 10.44 67.0687 10.472 67.0047 10.504C66.8607 10.488 66.7167 10.472 66.5727 10.456C66.4447 10.424 66.3167 10.376 66.1887 10.312C66.0927 10.312 65.9967 10.312 65.9007 10.312C65.8047 10.312 65.7007 10.32 65.5887 10.336C65.3807 10.352 65.1647 10.352 64.9407 10.336C64.7647 10.304 64.6047 10.352 64.4607 10.48C64.4287 10.496 64.3967 10.544 64.3647 10.624C64.3327 10.688 64.3247 10.744 64.3407 10.792C64.4047 10.92 64.4367 11.056 64.4367 11.2C64.4527 11.344 64.4607 11.48 64.4607 11.608C64.4767 11.656 64.4927 11.696 64.5087 11.728C64.5247 11.76 64.5407 11.792 64.5567 11.824C64.5407 11.856 64.5167 11.888 64.4847 11.92C64.4687 11.952 64.4527 11.984 64.4367 12.016C64.3727 12.176 64.4127 12.272 64.5567 12.304C64.7487 12.352 64.9407 12.4 65.1327 12.448C65.3407 12.496 65.5487 12.536 65.7567 12.568C65.8047 12.552 65.8607 12.536 65.9247 12.52C65.9887 12.504 66.0447 12.496 66.0927 12.496C66.3167 12.496 66.5407 12.48 66.7647 12.448C67.0047 12.4 67.2367 12.376 67.4607 12.376C67.5087 12.376 67.5647 12.376 67.6287 12.376C67.6927 12.36 67.7567 12.36 67.8207 12.376C67.9487 12.424 68.0847 12.456 68.2287 12.472C68.3727 12.488 68.5167 12.496 68.6607 12.496C68.7567 12.496 68.8447 12.504 68.9247 12.52C69.0207 12.52 69.1167 12.528 69.2127 12.544C69.3407 12.576 69.4047 12.64 69.4047 12.736C69.3887 12.816 69.3567 12.904 69.3087 13C69.2767 13.08 69.2447 13.152 69.2127 13.216C69.1967 13.328 69.2127 13.416 69.2607 13.48C69.3087 13.544 69.3407 13.608 69.3567 13.672C69.3407 13.832 69.3167 13.984 69.2847 14.128C69.2687 14.272 69.2207 14.4 69.1407 14.512C69.1407 14.608 69.1647 14.68 69.2127 14.728C69.2607 14.776 69.2927 14.832 69.3087 14.896C69.2767 14.928 69.2447 14.976 69.2127 15.04C69.1967 15.088 69.1727 15.144 69.1407 15.208C69.1727 15.336 69.1967 15.472 69.2127 15.616C69.2447 15.76 69.2127 15.896 69.1167 16.024C69.0687 16.04 69.0127 16.064 68.9487 16.096C68.9007 16.144 68.8447 16.16 68.7807 16.144C68.6207 16.112 68.4607 16.112 68.3007 16.144C68.1567 16.176 68.0127 16.2 67.8687 16.216C67.7567 16.232 67.6527 16.264 67.5567 16.312C67.4607 16.36 67.3647 16.4 67.2687 16.432C67.1087 16.464 66.9487 16.488 66.7887 16.504C66.6287 16.52 66.4607 16.544 66.2847 16.576L65.9487 16.504C65.8047 16.52 65.6367 16.544 65.4447 16.576L64.7967 16.432C64.7327 16.384 64.6687 16.328 64.6047 16.264C64.5567 16.216 64.4927 16.176 64.4127 16.144C64.3967 16.128 64.3647 16.12 64.3167 16.12C64.2847 16.136 64.2687 16.152 64.2687 16.168C64.2687 16.328 64.1807 16.432 64.0047 16.48C63.9247 16.448 63.8367 16.424 63.7407 16.408C63.6447 16.392 63.5567 16.376 63.4767 16.36C63.3967 16.344 63.3087 16.336 63.2127 16.336C63.1167 16.352 63.0287 16.36 62.9487 16.36C62.7567 16.36 62.5647 16.336 62.3727 16.288C62.1967 16.24 62.0127 16.136 61.8207 15.976C61.8047 15.928 61.7807 15.88 61.7487 15.832C61.7167 15.784 61.6847 15.728 61.6527 15.664C61.5887 15.632 61.5247 15.592 61.4607 15.544C61.4127 15.496 61.3567 15.456 61.2927 15.424L61.0287 15.28C60.9647 15.184 60.9327 15.096 60.9327 15.016C60.9327 14.92 60.9247 14.832 60.9087 14.752C60.8927 14.672 60.8767 14.592 60.8607 14.512C60.8607 14.416 60.8527 14.32 60.8367 14.224C60.8687 14.032 60.8847 13.84 60.8847 13.648C60.9007 13.456 60.9007 13.256 60.8847 13.048C60.8687 12.872 60.8687 12.696 60.8847 12.52C60.9167 12.328 60.9647 12.144 61.0287 11.968C61.0127 11.904 60.9887 11.848 60.9567 11.8C60.9407 11.752 60.9327 11.696 60.9327 11.632C60.9327 11.552 60.9487 11.472 60.9807 11.392C61.0127 11.312 61.0127 11.232 60.9807 11.152C60.9807 11.12 60.9887 11.096 61.0047 11.08C61.0367 11.064 61.0607 11.048 61.0767 11.032C61.1247 10.92 61.1087 10.856 61.0287 10.84C60.8687 10.792 60.7887 10.712 60.7887 10.6C60.8207 10.504 60.8287 10.408 60.8127 10.312C60.7967 10.216 60.7887 10.112 60.7887 10C60.7887 9.92 60.7967 9.84 60.8127 9.76C60.8287 9.68 60.8207 9.6 60.7887 9.52C60.7887 9.504 60.7807 9.48 60.7647 9.448C60.7647 9.416 60.7727 9.392 60.7887 9.376C60.8687 9.2 60.8927 9.032 60.8607 8.872C60.8447 8.712 60.8127 8.552 60.7647 8.392C60.8287 8.248 60.8687 8.112 60.8847 7.984C60.9007 7.84 60.9087 7.696 60.9087 7.552V6.904C60.9247 6.856 60.9327 6.808 60.9327 6.76C60.9327 6.696 60.9407 6.648 60.9567 6.616C61.0847 6.264 61.0767 5.896 60.9327 5.512C60.9167 5.48 60.9087 5.432 60.9087 5.368C60.9407 5.272 60.9727 5.184 61.0047 5.104C61.0527 5.008 61.0847 4.912 61.1007 4.816C61.1327 4.688 61.1647 4.552 61.1967 4.408C61.2447 4.264 61.2767 4.128 61.2927 4V3.832C61.2767 3.752 61.2687 3.672 61.2687 3.592C61.2847 3.496 61.2847 3.408 61.2687 3.328C61.2527 3.248 61.2447 3.168 61.2447 3.088C61.2607 3.008 61.2687 2.936 61.2687 2.872C61.2687 2.808 61.2607 2.76 61.2447 2.728C61.2447 2.68 61.2367 2.632 61.2207 2.584C61.2527 2.472 61.3167 2.384 61.4127 2.32C61.5087 2.256 61.5647 2.176 61.5807 2.08C61.7727 1.952 61.9647 1.872 62.1567 1.84C62.3647 1.792 62.5567 1.72 62.7327 1.624C62.9087 1.528 63.0927 1.472 63.2847 1.456C63.4767 1.44 63.6607 1.4 63.8367 1.336C63.9487 1.368 64.0527 1.4 64.1487 1.432C64.2607 1.464 64.3727 1.496 64.4847 1.528C64.5487 1.528 64.6127 1.528 64.6767 1.528C64.7567 1.512 64.8287 1.496 64.8927 1.48C65.0047 1.496 65.1087 1.52 65.2047 1.552C65.3007 1.584 65.4047 1.592 65.5167 1.576C65.6927 1.528 65.8607 1.528 66.0207 1.576C66.1007 1.576 66.1727 1.584 66.2367 1.6C66.3007 1.6 66.3647 1.608 66.4287 1.624C66.6687 1.448 66.9247 1.4 67.1967 1.48C67.3247 1.528 67.4527 1.544 67.5807 1.528C67.7087 1.512 67.8367 1.528 67.9647 1.576C68.0927 1.608 68.2127 1.624 68.3247 1.624C68.4527 1.608 68.5727 1.6 68.6847 1.6C68.8287 1.568 68.9727 1.568 69.1167 1.6C69.2447 1.632 69.3807 1.656 69.5247 1.672C69.6847 1.688 69.8287 1.696 69.9567 1.696C70.0367 1.696 70.1487 1.752 70.2927 1.864C70.5167 2.744 70.5567 3.608 70.4127 4.456ZM83.8706 2.056C83.8386 2.248 83.8146 2.44 83.7986 2.632C83.7986 2.808 83.7986 2.992 83.7986 3.184C83.7986 3.408 83.7906 3.624 83.7746 3.832C83.7746 4.04 83.7586 4.256 83.7266 4.48C83.7106 4.512 83.7026 4.56 83.7026 4.624C83.7186 4.784 83.7426 4.944 83.7746 5.104C83.8226 5.248 83.8306 5.384 83.7986 5.512C83.7666 5.592 83.7586 5.672 83.7746 5.752C83.7906 5.832 83.7826 5.912 83.7506 5.992C83.7346 6.024 83.7186 6.056 83.7026 6.088C83.6866 6.12 83.6706 6.152 83.6546 6.184C83.5746 6.2 83.4946 6.216 83.4146 6.232C83.3506 6.232 83.2786 6.232 83.1986 6.232C83.1666 6.248 83.1186 6.28 83.0546 6.328C83.0066 6.36 82.9586 6.392 82.9106 6.424C82.8466 6.392 82.7906 6.36 82.7426 6.328C82.7106 6.296 82.6706 6.272 82.6226 6.256C82.5906 6.256 82.5506 6.256 82.5026 6.256C82.4546 6.24 82.4146 6.24 82.3826 6.256C82.2706 6.304 82.1186 6.32 81.9266 6.304C81.7506 6.272 81.5986 6.256 81.4706 6.256C81.3106 6.256 81.1586 6.28 81.0146 6.328C80.8866 6.36 80.7506 6.408 80.6066 6.472C80.4946 6.536 80.3746 6.576 80.2466 6.592C80.1346 6.592 80.0146 6.616 79.8866 6.664C79.8066 6.776 79.7746 6.88 79.7906 6.976C79.8226 7.104 79.8466 7.248 79.8626 7.408C79.8946 7.552 79.8786 7.704 79.8146 7.864C79.8146 7.928 79.8226 7.968 79.8386 7.984C79.9026 8.144 79.9346 8.304 79.9346 8.464C79.9346 8.624 79.9186 8.792 79.8866 8.968C79.8706 9.128 79.8626 9.288 79.8626 9.448C79.8626 9.592 79.8466 9.752 79.8146 9.928C79.7826 10.104 79.7906 10.264 79.8386 10.408C79.8546 10.504 79.8626 10.6 79.8626 10.696C79.8626 10.792 79.8626 10.88 79.8626 10.96C79.8466 11.072 79.8386 11.104 79.8386 11.056C79.8386 10.992 79.8386 10.96 79.8386 10.96V11.032C79.8386 11.048 79.8306 11.064 79.8146 11.08C79.8146 11.08 79.8146 11.088 79.8146 11.104C79.8306 11.376 79.8306 11.584 79.8146 11.728C79.8146 11.856 79.8066 11.976 79.7906 12.088C79.7746 12.184 79.7426 12.336 79.6946 12.544V12.664C79.7586 12.92 79.7906 13.184 79.7906 13.456C79.7906 13.712 79.7826 13.968 79.7666 14.224C79.7666 14.4 79.7666 14.576 79.7666 14.752C79.7826 14.928 79.8226 15.112 79.8866 15.304C79.8706 15.4 79.8466 15.512 79.8146 15.64C79.7826 15.752 79.7426 15.864 79.6946 15.976C79.6786 16.04 79.6466 16.096 79.5986 16.144C79.5666 16.192 79.5106 16.248 79.4306 16.312C79.0466 16.28 78.6866 16.312 78.3506 16.408C78.1746 16.472 77.9906 16.448 77.7986 16.336C77.7666 16.304 77.7506 16.288 77.7506 16.288C77.5106 16.144 77.2786 16.12 77.0546 16.216C76.9586 16.264 76.8626 16.28 76.7666 16.264C76.6706 16.248 76.5826 16.24 76.5026 16.24C76.3906 16.24 76.2946 16.28 76.2146 16.36C76.1346 16.44 76.0306 16.448 75.9026 16.384C75.8866 16.256 75.8946 16.136 75.9266 16.024C75.9746 15.912 76.0066 15.784 76.0226 15.64C76.0066 15.528 75.9746 15.408 75.9266 15.28C75.8946 15.152 75.8626 15.024 75.8306 14.896C75.8626 14.816 75.8866 14.744 75.9026 14.68C75.9186 14.6 75.9266 14.528 75.9266 14.464C75.9426 14.384 75.9426 14.304 75.9266 14.224C75.9266 14.128 75.9266 14.04 75.9266 13.96C75.9426 13.704 75.9426 13.464 75.9266 13.24C75.9266 13 75.9106 12.76 75.8786 12.52C75.8466 12.328 75.8226 12.144 75.8066 11.968C75.8066 11.776 75.7986 11.576 75.7826 11.368C75.8306 11.304 75.8706 11.24 75.9026 11.176C75.9506 11.112 76.0066 11.048 76.0706 10.984C76.0866 10.856 76.0946 10.792 76.0946 10.792C76.0946 10.776 76.0946 10.696 76.0946 10.552C76.0786 10.328 76.0786 10.096 76.0946 9.856C76.1106 9.6 76.1426 9.36 76.1906 9.136C76.1746 8.96 76.1506 8.792 76.1186 8.632C76.0866 8.456 76.0306 8.288 75.9506 8.128C75.9826 8.048 76.0146 7.968 76.0466 7.888C76.0946 7.808 76.1266 7.736 76.1426 7.672C76.1266 7.544 76.1266 7.432 76.1426 7.336C76.1746 7.24 76.1666 7.136 76.1186 7.024C76.1026 6.976 76.0626 6.936 75.9986 6.904C75.8866 6.904 75.7746 6.896 75.6626 6.88C75.5506 6.864 75.4386 6.856 75.3266 6.856C75.2146 6.856 75.1026 6.84 74.9906 6.808C74.8946 6.776 74.7906 6.776 74.6786 6.808C74.5826 6.856 74.4866 6.864 74.3906 6.832C74.3106 6.784 74.2226 6.768 74.1266 6.784H73.5026L72.9026 6.688C72.8706 6.688 72.8306 6.664 72.7826 6.616C72.7346 6.568 72.7106 6.52 72.7106 6.472V6.304C72.7426 6.208 72.7666 6.112 72.7826 6.016C72.8146 5.904 72.8146 5.792 72.7826 5.68C72.7666 5.664 72.7586 5.64 72.7586 5.608C72.7746 5.56 72.7826 5.528 72.7826 5.512C72.8466 5.224 72.8786 4.888 72.8786 4.504C72.8786 4.12 72.8626 3.784 72.8306 3.496C72.8306 3.4 72.8306 3.304 72.8306 3.208C72.8306 3.112 72.8466 3.024 72.8786 2.944C72.9586 2.864 73.0386 2.824 73.1186 2.824C73.1986 2.808 73.2786 2.792 73.3586 2.776C73.4386 2.744 73.5106 2.712 73.5746 2.68C73.6386 2.632 73.7106 2.6 73.7906 2.584C74.1586 2.456 74.5026 2.456 74.8226 2.584C74.8226 2.584 74.8786 2.6 74.9906 2.632C75.1346 2.568 75.2866 2.544 75.4466 2.56C75.6066 2.56 75.7746 2.52 75.9506 2.44C75.9826 2.44 76.0306 2.448 76.0946 2.464C76.1746 2.464 76.2546 2.464 76.3346 2.464C76.4786 2.4 76.6226 2.336 76.7666 2.272C76.9266 2.208 77.0786 2.112 77.2226 1.984C77.4786 1.952 77.7266 1.944 77.9666 1.96C78.2226 1.976 78.4626 1.944 78.6866 1.864C78.7986 1.88 78.8946 1.912 78.9746 1.96C79.0706 1.992 79.1506 2.024 79.2146 2.056C79.3266 2.056 79.4146 2.024 79.4786 1.96C79.5426 1.88 79.6386 1.832 79.7666 1.816C79.8946 1.784 80.0786 1.792 80.3186 1.84C80.4146 1.856 80.5106 1.904 80.6066 1.984C80.7186 2.048 80.8306 2.072 80.9426 2.056C81.0226 2.008 81.0866 1.96 81.1346 1.912C81.1986 1.864 81.2706 1.816 81.3506 1.768C81.4466 1.768 81.5506 1.792 81.6626 1.84C81.7746 1.872 81.8786 1.88 81.9746 1.864C82.0866 1.848 82.1906 1.832 82.2866 1.816C82.3986 1.784 82.5346 1.768 82.6946 1.768C82.7586 1.784 82.8226 1.808 82.8866 1.84C82.9506 1.856 83.0146 1.88 83.0786 1.912C83.1746 1.88 83.2706 1.856 83.3666 1.84C83.4786 1.824 83.5906 1.808 83.7026 1.792C83.7346 1.84 83.7666 1.888 83.7986 1.936C83.8306 1.984 83.8546 2.024 83.8706 2.056ZM100.843 3.928C100.747 4.136 100.619 4.312 100.459 4.456C100.299 4.584 100.163 4.736 100.051 4.912C99.9228 4.944 99.7948 5 99.6668 5.08C99.5548 5.16 99.4508 5.24 99.3548 5.32C99.1948 5.416 99.0508 5.416 98.9228 5.32C98.8588 5.288 98.8028 5.256 98.7548 5.224C98.7228 5.176 98.6748 5.136 98.6108 5.104C98.4828 4.992 98.3148 4.952 98.1068 4.984C98.0908 5 98.0668 4.992 98.0348 4.96V4.72C98.0188 4.704 97.9948 4.68 97.9628 4.648C97.9468 4.616 97.9228 4.6 97.8908 4.6C97.5708 4.472 97.2668 4.464 96.9788 4.576C96.8828 4.592 96.7868 4.616 96.6908 4.648C96.5948 4.68 96.4988 4.712 96.4028 4.744C96.3388 4.84 96.2748 4.936 96.2108 5.032C96.1628 5.128 96.1068 5.216 96.0428 5.296C96.0588 5.424 96.0668 5.552 96.0668 5.68C96.0828 5.808 96.0988 5.936 96.1148 6.064C96.1948 6.16 96.2668 6.264 96.3308 6.376C96.4108 6.472 96.4828 6.576 96.5468 6.688C96.6908 6.8 96.8428 6.912 97.0028 7.024C97.1628 7.12 97.3148 7.232 97.4588 7.36C97.5548 7.424 97.6508 7.48 97.7468 7.528C97.8588 7.56 97.9548 7.616 98.0348 7.696C98.1148 7.776 98.1868 7.848 98.2508 7.912C98.3308 7.96 98.4028 8.024 98.4668 8.104C98.5148 8.12 98.5628 8.144 98.6108 8.176C98.6588 8.208 98.7068 8.24 98.7548 8.272C99.0268 8.448 99.2348 8.688 99.3788 8.992C99.4588 9.12 99.5388 9.256 99.6188 9.4C99.7148 9.544 99.8028 9.68 99.8828 9.808C99.9948 9.904 100.067 10.016 100.099 10.144C100.147 10.272 100.195 10.4 100.243 10.528C100.259 10.544 100.267 10.576 100.267 10.624C100.299 10.816 100.347 11 100.411 11.176C100.491 11.352 100.571 11.528 100.651 11.704C100.699 11.912 100.723 12.12 100.723 12.328C100.739 12.52 100.731 12.712 100.699 12.904C100.699 13.064 100.675 13.224 100.627 13.384C100.595 13.528 100.547 13.664 100.483 13.792C100.467 13.808 100.459 13.824 100.459 13.84C100.459 13.856 100.443 13.88 100.411 13.912C100.267 14.056 100.147 14.216 100.051 14.392C99.9708 14.568 99.8748 14.744 99.7628 14.92C99.7468 14.936 99.7388 14.96 99.7388 14.992C99.7388 15.008 99.7228 15.024 99.6908 15.04C99.5308 15.152 99.3948 15.272 99.2828 15.4C99.1868 15.528 99.0748 15.656 98.9468 15.784C98.8828 15.848 98.8028 15.904 98.7068 15.952C98.6108 16 98.5228 16.056 98.4428 16.12L97.9388 16.36C97.7788 16.376 97.6108 16.4 97.4348 16.432C97.2748 16.464 97.1068 16.52 96.9308 16.6C96.8188 16.664 96.6908 16.712 96.5468 16.744C96.4188 16.776 96.2908 16.808 96.1628 16.84C96.0988 16.856 96.0348 16.872 95.9708 16.888C95.9068 16.904 95.8428 16.92 95.7788 16.936C95.5708 16.776 95.3388 16.696 95.0828 16.696C94.9068 16.696 94.7548 16.664 94.6268 16.6C94.4348 16.52 94.2508 16.432 94.0748 16.336C93.8988 16.256 93.7388 16.144 93.5948 16C93.4988 15.92 93.4028 15.848 93.3068 15.784C93.2108 15.72 93.1228 15.656 93.0428 15.592C92.9788 15.528 92.8988 15.488 92.8028 15.472C92.7228 15.44 92.6428 15.408 92.5628 15.376C92.4508 15.296 92.3868 15.208 92.3708 15.112C92.3868 14.984 92.4348 14.864 92.5148 14.752C92.6108 14.64 92.6908 14.52 92.7548 14.392C92.7548 14.296 92.7788 14.176 92.8268 14.032C92.9708 13.84 93.1228 13.648 93.2828 13.456C93.4428 13.248 93.6028 13.04 93.7628 12.832C93.8268 12.784 93.8988 12.736 93.9788 12.688C94.0588 12.624 94.1468 12.56 94.2428 12.496C94.5628 12.576 94.8668 12.664 95.1548 12.76C95.4428 12.856 95.7388 12.944 96.0428 13.024C96.1068 13.008 96.1548 12.992 96.1868 12.976C96.2188 12.944 96.2428 12.92 96.2588 12.904C96.3068 12.888 96.3468 12.872 96.3788 12.856C96.4108 12.84 96.4348 12.824 96.4508 12.808H96.8828C96.8988 12.776 96.9148 12.752 96.9308 12.736C96.9628 12.704 96.9868 12.672 97.0028 12.64C97.0668 12.48 97.1308 12.328 97.1948 12.184C97.2588 12.04 97.2988 11.88 97.3148 11.704C97.2828 11.576 97.2428 11.44 97.1948 11.296C97.1628 11.152 97.0908 11.008 96.9788 10.864C96.9148 10.816 96.8428 10.76 96.7628 10.696C96.6828 10.632 96.6028 10.568 96.5228 10.504C96.2508 10.472 95.9708 10.4 95.6828 10.288C95.4108 10.176 95.1388 10.12 94.8668 10.12C94.7548 10.088 94.6668 10.04 94.6028 9.976C94.5388 9.896 94.4668 9.824 94.3868 9.76C94.2748 9.728 94.1548 9.704 94.0268 9.688C93.8988 9.672 93.7948 9.608 93.7148 9.496C93.4588 9.352 93.2428 9.248 93.0668 9.184C92.9868 9.088 92.9068 8.992 92.8268 8.896C92.7628 8.8 92.6908 8.712 92.6108 8.632C92.5468 8.552 92.4828 8.456 92.4188 8.344C92.3708 8.216 92.3068 8.096 92.2268 7.984C92.1628 7.904 92.1068 7.816 92.0588 7.72C92.0108 7.608 91.9628 7.496 91.9148 7.384C91.8668 7.16 91.8188 6.92 91.7708 6.664C91.8028 6.488 91.8268 6.312 91.8428 6.136C91.8748 5.944 91.8988 5.752 91.9148 5.56L91.8188 5.32C91.8828 5.288 91.9308 5.24 91.9628 5.176C91.9948 5.112 92.0268 5.048 92.0588 4.984C92.0908 4.888 92.1308 4.808 92.1788 4.744C92.2268 4.68 92.2428 4.592 92.2268 4.48C92.2268 4.176 92.3068 3.896 92.4668 3.64C92.4988 3.576 92.5228 3.52 92.5388 3.472C92.5708 3.424 92.5948 3.376 92.6108 3.328C92.6908 3.28 92.7548 3.232 92.8028 3.184C92.8668 3.12 92.9068 3.08 92.9228 3.064C93.0028 2.984 93.0348 2.912 93.0188 2.848C93.0028 2.768 93.0028 2.696 93.0188 2.632C93.0828 2.536 93.1548 2.44 93.2348 2.344C93.3148 2.248 93.4028 2.144 93.4988 2.032C93.6108 1.952 93.7308 1.888 93.8588 1.84C93.9868 1.776 94.1068 1.688 94.2188 1.576C94.2508 1.528 94.2908 1.496 94.3388 1.48C94.3868 1.448 94.4428 1.424 94.5068 1.408C94.5868 1.36 94.6748 1.32 94.7708 1.288C94.8668 1.256 94.9628 1.216 95.0588 1.168C95.2188 1.136 95.3788 1.112 95.5388 1.096C95.7148 1.08 95.8828 1.064 96.0428 1.048C96.0588 1.048 96.0748 1.048 96.0908 1.048C96.1228 1.032 96.1548 1.032 96.1868 1.048C96.3628 1.112 96.5388 1.112 96.7148 1.048C96.9068 0.983999 97.0988 0.959999 97.2908 0.975999C97.4668 0.975999 97.6348 0.999999 97.7948 1.048C97.9708 1.096 98.1388 1.136 98.2988 1.168C98.4748 1.296 98.6508 1.416 98.8268 1.528C99.0028 1.624 99.1948 1.704 99.4028 1.768C99.4668 1.832 99.5228 1.904 99.5708 1.984C99.6348 2.048 99.6988 2.12 99.7628 2.2C99.8268 2.264 99.8908 2.32 99.9548 2.368C100.019 2.416 100.075 2.472 100.123 2.536C100.251 2.776 100.371 3.016 100.483 3.256C100.611 3.48 100.731 3.704 100.843 3.928ZM114.128 2.056C114.096 2.248 114.072 2.44 114.056 2.632C114.056 2.808 114.056 2.992 114.056 3.184C114.056 3.408 114.048 3.624 114.032 3.832C114.032 4.04 114.016 4.256 113.984 4.48C113.968 4.512 113.96 4.56 113.96 4.624C113.976 4.784 114 4.944 114.032 5.104C114.08 5.248 114.088 5.384 114.056 5.512C114.024 5.592 114.016 5.672 114.032 5.752C114.048 5.832 114.04 5.912 114.008 5.992C113.992 6.024 113.976 6.056 113.96 6.088C113.944 6.12 113.928 6.152 113.912 6.184C113.832 6.2 113.752 6.216 113.672 6.232C113.608 6.232 113.536 6.232 113.456 6.232C113.424 6.248 113.376 6.28 113.312 6.328C113.264 6.36 113.216 6.392 113.168 6.424C113.104 6.392 113.048 6.36 113 6.328C112.968 6.296 112.928 6.272 112.88 6.256C112.848 6.256 112.808 6.256 112.76 6.256C112.712 6.24 112.672 6.24 112.64 6.256C112.528 6.304 112.376 6.32 112.184 6.304C112.008 6.272 111.856 6.256 111.728 6.256C111.568 6.256 111.416 6.28 111.272 6.328C111.144 6.36 111.008 6.408 110.864 6.472C110.752 6.536 110.632 6.576 110.504 6.592C110.392 6.592 110.272 6.616 110.144 6.664C110.064 6.776 110.032 6.88 110.048 6.976C110.08 7.104 110.104 7.248 110.12 7.408C110.152 7.552 110.136 7.704 110.072 7.864C110.072 7.928 110.08 7.968 110.096 7.984C110.16 8.144 110.192 8.304 110.192 8.464C110.192 8.624 110.176 8.792 110.144 8.968C110.128 9.128 110.12 9.288 110.12 9.448C110.12 9.592 110.104 9.752 110.072 9.928C110.04 10.104 110.048 10.264 110.096 10.408C110.112 10.504 110.12 10.6 110.12 10.696C110.12 10.792 110.12 10.88 110.12 10.96C110.104 11.072 110.096 11.104 110.096 11.056C110.096 10.992 110.096 10.96 110.096 10.96V11.032C110.096 11.048 110.088 11.064 110.072 11.08C110.072 11.08 110.072 11.088 110.072 11.104C110.088 11.376 110.088 11.584 110.072 11.728C110.072 11.856 110.064 11.976 110.048 12.088C110.032 12.184 110 12.336 109.952 12.544V12.664C110.016 12.92 110.048 13.184 110.048 13.456C110.048 13.712 110.04 13.968 110.024 14.224C110.024 14.4 110.024 14.576 110.024 14.752C110.04 14.928 110.08 15.112 110.144 15.304C110.128 15.4 110.104 15.512 110.072 15.64C110.04 15.752 110 15.864 109.952 15.976C109.936 16.04 109.904 16.096 109.856 16.144C109.824 16.192 109.768 16.248 109.688 16.312C109.304 16.28 108.944 16.312 108.608 16.408C108.432 16.472 108.248 16.448 108.056 16.336C108.024 16.304 108.008 16.288 108.008 16.288C107.768 16.144 107.536 16.12 107.312 16.216C107.216 16.264 107.12 16.28 107.024 16.264C106.928 16.248 106.84 16.24 106.76 16.24C106.648 16.24 106.552 16.28 106.472 16.36C106.392 16.44 106.288 16.448 106.16 16.384C106.144 16.256 106.152 16.136 106.184 16.024C106.232 15.912 106.264 15.784 106.28 15.64C106.264 15.528 106.232 15.408 106.184 15.28C106.152 15.152 106.12 15.024 106.088 14.896C106.12 14.816 106.144 14.744 106.16 14.68C106.176 14.6 106.184 14.528 106.184 14.464C106.2 14.384 106.2 14.304 106.184 14.224C106.184 14.128 106.184 14.04 106.184 13.96C106.2 13.704 106.2 13.464 106.184 13.24C106.184 13 106.168 12.76 106.136 12.52C106.104 12.328 106.08 12.144 106.064 11.968C106.064 11.776 106.056 11.576 106.04 11.368C106.088 11.304 106.128 11.24 106.16 11.176C106.208 11.112 106.264 11.048 106.328 10.984C106.344 10.856 106.352 10.792 106.352 10.792C106.352 10.776 106.352 10.696 106.352 10.552C106.336 10.328 106.336 10.096 106.352 9.856C106.368 9.6 106.4 9.36 106.448 9.136C106.432 8.96 106.408 8.792 106.376 8.632C106.344 8.456 106.288 8.288 106.208 8.128C106.24 8.048 106.272 7.968 106.304 7.888C106.352 7.808 106.384 7.736 106.4 7.672C106.384 7.544 106.384 7.432 106.4 7.336C106.432 7.24 106.424 7.136 106.376 7.024C106.36 6.976 106.32 6.936 106.256 6.904C106.144 6.904 106.032 6.896 105.92 6.88C105.808 6.864 105.696 6.856 105.584 6.856C105.472 6.856 105.36 6.84 105.248 6.808C105.152 6.776 105.048 6.776 104.936 6.808C104.84 6.856 104.744 6.864 104.648 6.832C104.568 6.784 104.48 6.768 104.384 6.784H103.76L103.16 6.688C103.128 6.688 103.088 6.664 103.04 6.616C102.992 6.568 102.968 6.52 102.968 6.472V6.304C103 6.208 103.024 6.112 103.04 6.016C103.072 5.904 103.072 5.792 103.04 5.68C103.024 5.664 103.016 5.64 103.016 5.608C103.032 5.56 103.04 5.528 103.04 5.512C103.104 5.224 103.136 4.888 103.136 4.504C103.136 4.12 103.12 3.784 103.088 3.496C103.088 3.4 103.088 3.304 103.088 3.208C103.088 3.112 103.104 3.024 103.136 2.944C103.216 2.864 103.296 2.824 103.376 2.824C103.456 2.808 103.536 2.792 103.616 2.776C103.696 2.744 103.768 2.712 103.832 2.68C103.896 2.632 103.968 2.6 104.048 2.584C104.416 2.456 104.76 2.456 105.08 2.584C105.08 2.584 105.136 2.6 105.248 2.632C105.392 2.568 105.544 2.544 105.704 2.56C105.864 2.56 106.032 2.52 106.208 2.44C106.24 2.44 106.288 2.448 106.352 2.464C106.432 2.464 106.512 2.464 106.592 2.464C106.736 2.4 106.88 2.336 107.024 2.272C107.184 2.208 107.336 2.112 107.48 1.984C107.736 1.952 107.984 1.944 108.224 1.96C108.48 1.976 108.72 1.944 108.944 1.864C109.056 1.88 109.152 1.912 109.232 1.96C109.328 1.992 109.408 2.024 109.472 2.056C109.584 2.056 109.672 2.024 109.736 1.96C109.8 1.88 109.896 1.832 110.024 1.816C110.152 1.784 110.336 1.792 110.576 1.84C110.672 1.856 110.768 1.904 110.864 1.984C110.976 2.048 111.088 2.072 111.2 2.056C111.28 2.008 111.344 1.96 111.392 1.912C111.456 1.864 111.528 1.816 111.608 1.768C111.704 1.768 111.808 1.792 111.92 1.84C112.032 1.872 112.136 1.88 112.232 1.864C112.344 1.848 112.448 1.832 112.544 1.816C112.656 1.784 112.792 1.768 112.952 1.768C113.016 1.784 113.08 1.808 113.144 1.84C113.208 1.856 113.272 1.88 113.336 1.912C113.432 1.88 113.528 1.856 113.624 1.84C113.736 1.824 113.848 1.808 113.96 1.792C113.992 1.84 114.024 1.888 114.056 1.936C114.088 1.984 114.112 2.024 114.128 2.056ZM127.885 14.968C127.917 15.048 127.893 15.16 127.813 15.304C127.685 15.32 127.549 15.32 127.405 15.304C127.277 15.272 127.149 15.24 127.021 15.208C126.813 15.288 126.669 15.344 126.589 15.376C126.525 15.408 126.461 15.424 126.397 15.424C126.333 15.408 126.205 15.4 126.013 15.4C125.965 15.416 125.917 15.44 125.869 15.472C125.837 15.504 125.789 15.536 125.725 15.568C125.725 15.568 125.717 15.576 125.701 15.592C125.701 15.592 125.693 15.592 125.677 15.592C125.517 15.592 125.357 15.6 125.197 15.616C125.037 15.616 124.885 15.616 124.741 15.616C124.645 15.52 124.581 15.448 124.549 15.4C124.533 15.352 124.501 15.24 124.453 15.064C124.421 14.968 124.349 14.856 124.237 14.728C124.077 14.552 123.909 14.312 123.733 14.008C123.573 13.704 123.445 13.448 123.349 13.24L123.229 13.12C123.165 13.12 123.117 13.136 123.085 13.168C122.829 13.328 122.589 13.352 122.365 13.24C122.221 13.208 122.077 13.192 121.933 13.192C121.805 13.192 121.669 13.192 121.525 13.192C121.413 13.176 121.301 13.176 121.189 13.192C121.077 13.208 120.957 13.216 120.829 13.216C120.733 13.216 120.629 13.216 120.517 13.216C120.421 13.2 120.325 13.192 120.229 13.192C120.101 13.208 119.965 13.232 119.821 13.264C119.693 13.296 119.565 13.344 119.437 13.408C119.325 13.472 119.205 13.512 119.077 13.528C118.965 13.544 118.845 13.56 118.717 13.576C118.541 13.576 118.365 13.6 118.189 13.648C118.029 13.68 117.861 13.72 117.685 13.768C117.637 13.784 117.581 13.808 117.517 13.84C117.469 13.856 117.429 13.896 117.397 13.96C117.397 14.04 117.389 14.128 117.373 14.224C117.373 14.304 117.373 14.392 117.373 14.488C117.325 14.632 117.293 14.784 117.277 14.944C117.213 15.168 117.109 15.36 116.965 15.52C116.837 15.68 116.701 15.84 116.557 16C116.493 16 116.429 16 116.365 16C116.317 15.984 116.261 15.976 116.197 15.976C116.149 15.976 116.093 15.984 116.029 16C115.981 16 115.925 16.008 115.861 16.024C115.685 16.04 115.501 16.016 115.309 15.952C115.293 15.936 115.277 15.936 115.261 15.952C115.261 15.952 115.245 15.952 115.213 15.952H115.093L115.045 15.928C115.029 15.896 115.005 15.888 114.973 15.904C114.957 15.904 114.909 15.896 114.829 15.88C114.733 15.848 114.645 15.832 114.565 15.832C114.501 15.832 114.445 15.832 114.397 15.832C114.349 15.832 114.285 15.824 114.205 15.808C114.173 15.792 114.125 15.784 114.061 15.784C113.997 15.768 113.925 15.744 113.845 15.712C113.797 15.696 113.757 15.696 113.725 15.712C113.709 15.712 113.677 15.704 113.629 15.688L113.557 15.664H113.509L113.461 15.64C113.493 15.416 113.525 15.2 113.557 14.992C113.605 14.768 113.685 14.552 113.797 14.344C113.829 14.28 113.853 14.224 113.869 14.176C113.885 14.128 113.893 14.072 113.893 14.008L113.965 13.6C114.013 13.52 114.061 13.432 114.109 13.336C114.157 13.24 114.205 13.16 114.253 13.096C114.285 13 114.285 12.904 114.253 12.808C114.237 12.712 114.261 12.624 114.325 12.544C114.373 12.464 114.397 12.384 114.397 12.304C114.413 12.224 114.453 12.16 114.517 12.112C114.581 11.984 114.637 11.864 114.685 11.752C114.749 11.624 114.797 11.496 114.829 11.368C114.845 11.352 114.853 11.32 114.853 11.272C114.901 10.936 115.037 10.648 115.261 10.408C115.245 10.344 115.237 10.288 115.237 10.24C115.237 10.176 115.237 10.128 115.237 10.096C115.269 10 115.325 9.912 115.405 9.832C115.485 9.752 115.557 9.68 115.621 9.616C115.701 9.52 115.773 9.424 115.837 9.328C115.901 9.232 115.941 9.128 115.957 9.016C116.021 8.776 116.109 8.552 116.221 8.344C116.333 8.136 116.469 7.936 116.629 7.744C116.725 7.616 116.805 7.48 116.869 7.336C116.949 7.176 117.029 7.016 117.109 6.856C117.173 6.728 117.229 6.592 117.277 6.448C117.341 6.304 117.381 6.16 117.397 6.016C117.525 5.856 117.613 5.736 117.661 5.656C117.709 5.56 117.749 5.456 117.781 5.344C117.829 5.216 117.885 5.024 117.949 4.768C117.981 4.736 118.021 4.712 118.069 4.696C118.133 4.664 118.173 4.616 118.189 4.552C118.189 4.488 118.229 4.44 118.309 4.408C118.437 4.328 118.525 4.216 118.573 4.072C118.621 3.944 118.685 3.832 118.765 3.736C118.861 3.624 118.949 3.52 119.029 3.424C119.109 3.344 119.157 3.264 119.173 3.184C119.253 2.96 119.357 2.76 119.485 2.584C119.629 2.392 119.749 2.2 119.845 2.008C119.925 1.944 119.997 1.912 120.061 1.912C120.125 1.896 120.189 1.888 120.253 1.888H120.325C120.485 1.952 120.653 2 120.829 2.032C120.941 2.048 121.045 2.056 121.141 2.056C121.237 2.056 121.317 2.056 121.381 2.056C121.429 2.056 121.477 2.056 121.525 2.056C121.573 2.056 121.621 2.064 121.669 2.08C121.877 2.144 122.093 2.176 122.317 2.176C122.541 2.176 122.757 2.184 122.965 2.2C123.237 2.392 123.469 2.576 123.661 2.752C123.853 2.928 124.005 3.232 124.117 3.664C124.133 3.68 124.157 3.696 124.189 3.712C124.221 3.728 124.245 3.752 124.261 3.784C124.293 3.8 124.325 3.816 124.357 3.832C124.389 3.848 124.421 3.872 124.453 3.904C124.485 3.968 124.509 4.04 124.525 4.12C124.557 4.184 124.589 4.256 124.621 4.336C124.653 4.4 124.693 4.472 124.741 4.552C124.789 4.616 124.845 4.688 124.909 4.768C124.941 4.928 124.989 5.088 125.053 5.248C125.133 5.408 125.165 5.592 125.149 5.8L125.317 6.04C125.317 6.12 125.317 6.208 125.317 6.304C125.333 6.384 125.341 6.472 125.341 6.568C125.421 6.616 125.461 6.68 125.461 6.76C125.477 6.84 125.493 6.928 125.509 7.024C125.557 7.088 125.605 7.16 125.653 7.24C125.701 7.304 125.749 7.368 125.797 7.432C125.829 7.544 125.861 7.656 125.893 7.768C125.925 7.864 125.949 7.96 125.965 8.056C125.949 8.12 125.933 8.184 125.917 8.248C125.917 8.312 125.909 8.376 125.893 8.44C125.925 8.6 125.981 8.744 126.061 8.872C126.157 8.984 126.245 9.104 126.325 9.232C126.405 9.536 126.477 9.848 126.541 10.168C126.621 10.472 126.677 10.784 126.709 11.104C126.885 11.328 126.989 11.568 127.021 11.824C127.069 12.08 127.125 12.344 127.189 12.616C127.221 12.728 127.237 12.84 127.237 12.952C127.237 13.048 127.245 13.152 127.261 13.264C127.293 13.36 127.365 13.488 127.477 13.648C127.589 13.792 127.677 13.904 127.741 13.984C127.741 14.144 127.749 14.312 127.765 14.488C127.781 14.648 127.821 14.808 127.885 14.968ZM122.101 9.904C122.085 9.792 122.045 9.696 121.981 9.616C121.917 9.52 121.901 9.416 121.933 9.304C121.869 9.192 121.837 9.056 121.837 8.896C121.837 8.736 121.853 8.648 121.885 8.632C121.869 8.6 121.861 8.552 121.861 8.488C121.797 8.408 121.733 8.336 121.669 8.272C121.621 8.208 121.573 8.136 121.525 8.056C121.525 8.072 121.493 8.048 121.429 7.984C121.349 7.968 121.285 7.92 121.237 7.84C121.221 7.792 121.197 7.744 121.165 7.696C121.149 7.648 121.117 7.616 121.069 7.6C121.005 7.6 120.957 7.624 120.925 7.672C120.893 7.704 120.845 7.736 120.781 7.768C120.717 7.784 120.653 7.8 120.589 7.816C120.541 7.832 120.485 7.848 120.421 7.864C120.309 7.96 120.237 8.088 120.205 8.248V8.536C120.141 8.648 120.069 8.744 119.989 8.824C119.925 8.904 119.877 8.992 119.845 9.088C119.797 9.312 119.725 9.512 119.629 9.688C119.629 9.8 119.605 9.904 119.557 10C119.509 10.08 119.469 10.168 119.437 10.264C119.421 10.28 119.413 10.328 119.413 10.408C119.413 10.504 119.469 10.552 119.581 10.552C119.645 10.552 119.709 10.552 119.773 10.552C119.837 10.536 119.901 10.528 119.965 10.528C119.997 10.544 120.037 10.568 120.085 10.6C120.133 10.616 120.173 10.632 120.205 10.648C120.445 10.616 120.669 10.568 120.877 10.504C121.101 10.44 121.317 10.368 121.525 10.288C121.621 10.208 121.725 10.152 121.837 10.12C121.949 10.088 122.037 10.016 122.101 9.904ZM139.355 2.056C139.323 2.248 139.299 2.44 139.283 2.632C139.283 2.808 139.283 2.992 139.283 3.184C139.283 3.408 139.275 3.624 139.259 3.832C139.259 4.04 139.243 4.256 139.211 4.48C139.195 4.512 139.187 4.56 139.187 4.624C139.203 4.784 139.227 4.944 139.259 5.104C139.307 5.248 139.315 5.384 139.283 5.512C139.251 5.592 139.243 5.672 139.259 5.752C139.275 5.832 139.267 5.912 139.235 5.992C139.219 6.024 139.203 6.056 139.187 6.088C139.171 6.12 139.155 6.152 139.139 6.184C139.059 6.2 138.979 6.216 138.899 6.232C138.835 6.232 138.763 6.232 138.683 6.232C138.651 6.248 138.603 6.28 138.539 6.328C138.491 6.36 138.443 6.392 138.395 6.424C138.331 6.392 138.275 6.36 138.227 6.328C138.195 6.296 138.155 6.272 138.107 6.256C138.075 6.256 138.035 6.256 137.987 6.256C137.939 6.24 137.899 6.24 137.867 6.256C137.755 6.304 137.603 6.32 137.411 6.304C137.235 6.272 137.083 6.256 136.955 6.256C136.795 6.256 136.643 6.28 136.499 6.328C136.371 6.36 136.235 6.408 136.091 6.472C135.979 6.536 135.859 6.576 135.731 6.592C135.619 6.592 135.499 6.616 135.371 6.664C135.291 6.776 135.259 6.88 135.275 6.976C135.307 7.104 135.331 7.248 135.347 7.408C135.379 7.552 135.363 7.704 135.299 7.864C135.299 7.928 135.307 7.968 135.323 7.984C135.387 8.144 135.419 8.304 135.419 8.464C135.419 8.624 135.403 8.792 135.371 8.968C135.355 9.128 135.347 9.288 135.347 9.448C135.347 9.592 135.331 9.752 135.299 9.928C135.267 10.104 135.275 10.264 135.323 10.408C135.339 10.504 135.347 10.6 135.347 10.696C135.347 10.792 135.347 10.88 135.347 10.96C135.331 11.072 135.323 11.104 135.323 11.056C135.323 10.992 135.323 10.96 135.323 10.96V11.032C135.323 11.048 135.315 11.064 135.299 11.08C135.299 11.08 135.299 11.088 135.299 11.104C135.315 11.376 135.315 11.584 135.299 11.728C135.299 11.856 135.291 11.976 135.275 12.088C135.259 12.184 135.227 12.336 135.179 12.544V12.664C135.243 12.92 135.275 13.184 135.275 13.456C135.275 13.712 135.267 13.968 135.251 14.224C135.251 14.4 135.251 14.576 135.251 14.752C135.267 14.928 135.307 15.112 135.371 15.304C135.355 15.4 135.331 15.512 135.299 15.64C135.267 15.752 135.227 15.864 135.179 15.976C135.163 16.04 135.131 16.096 135.083 16.144C135.051 16.192 134.995 16.248 134.915 16.312C134.531 16.28 134.171 16.312 133.835 16.408C133.659 16.472 133.475 16.448 133.283 16.336C133.251 16.304 133.235 16.288 133.235 16.288C132.995 16.144 132.763 16.12 132.539 16.216C132.443 16.264 132.347 16.28 132.251 16.264C132.155 16.248 132.067 16.24 131.987 16.24C131.875 16.24 131.779 16.28 131.699 16.36C131.619 16.44 131.515 16.448 131.387 16.384C131.371 16.256 131.379 16.136 131.411 16.024C131.459 15.912 131.491 15.784 131.507 15.64C131.491 15.528 131.459 15.408 131.411 15.28C131.379 15.152 131.347 15.024 131.315 14.896C131.347 14.816 131.371 14.744 131.387 14.68C131.403 14.6 131.411 14.528 131.411 14.464C131.427 14.384 131.427 14.304 131.411 14.224C131.411 14.128 131.411 14.04 131.411 13.96C131.427 13.704 131.427 13.464 131.411 13.24C131.411 13 131.395 12.76 131.363 12.52C131.331 12.328 131.307 12.144 131.291 11.968C131.291 11.776 131.283 11.576 131.267 11.368C131.315 11.304 131.355 11.24 131.387 11.176C131.435 11.112 131.491 11.048 131.555 10.984C131.571 10.856 131.579 10.792 131.579 10.792C131.579 10.776 131.579 10.696 131.579 10.552C131.563 10.328 131.563 10.096 131.579 9.856C131.595 9.6 131.627 9.36 131.675 9.136C131.659 8.96 131.635 8.792 131.603 8.632C131.571 8.456 131.515 8.288 131.435 8.128C131.467 8.048 131.499 7.968 131.531 7.888C131.579 7.808 131.611 7.736 131.627 7.672C131.611 7.544 131.611 7.432 131.627 7.336C131.659 7.24 131.651 7.136 131.603 7.024C131.587 6.976 131.547 6.936 131.483 6.904C131.371 6.904 131.259 6.896 131.147 6.88C131.035 6.864 130.923 6.856 130.811 6.856C130.699 6.856 130.587 6.84 130.475 6.808C130.379 6.776 130.275 6.776 130.163 6.808C130.067 6.856 129.971 6.864 129.875 6.832C129.795 6.784 129.707 6.768 129.611 6.784H128.987L128.387 6.688C128.355 6.688 128.315 6.664 128.267 6.616C128.219 6.568 128.195 6.52 128.195 6.472V6.304C128.227 6.208 128.251 6.112 128.267 6.016C128.299 5.904 128.299 5.792 128.267 5.68C128.251 5.664 128.243 5.64 128.243 5.608C128.259 5.56 128.267 5.528 128.267 5.512C128.331 5.224 128.363 4.888 128.363 4.504C128.363 4.12 128.347 3.784 128.315 3.496C128.315 3.4 128.315 3.304 128.315 3.208C128.315 3.112 128.331 3.024 128.363 2.944C128.443 2.864 128.523 2.824 128.603 2.824C128.683 2.808 128.763 2.792 128.843 2.776C128.923 2.744 128.995 2.712 129.059 2.68C129.123 2.632 129.195 2.6 129.275 2.584C129.643 2.456 129.987 2.456 130.307 2.584C130.307 2.584 130.363 2.6 130.475 2.632C130.619 2.568 130.771 2.544 130.931 2.56C131.091 2.56 131.259 2.52 131.435 2.44C131.467 2.44 131.515 2.448 131.579 2.464C131.659 2.464 131.739 2.464 131.819 2.464C131.963 2.4 132.107 2.336 132.251 2.272C132.411 2.208 132.563 2.112 132.707 1.984C132.963 1.952 133.211 1.944 133.451 1.96C133.707 1.976 133.947 1.944 134.171 1.864C134.283 1.88 134.379 1.912 134.459 1.96C134.555 1.992 134.635 2.024 134.699 2.056C134.811 2.056 134.899 2.024 134.963 1.96C135.027 1.88 135.123 1.832 135.251 1.816C135.379 1.784 135.563 1.792 135.803 1.84C135.899 1.856 135.995 1.904 136.091 1.984C136.203 2.048 136.315 2.072 136.427 2.056C136.507 2.008 136.571 1.96 136.619 1.912C136.683 1.864 136.755 1.816 136.835 1.768C136.931 1.768 137.035 1.792 137.147 1.84C137.259 1.872 137.363 1.88 137.459 1.864C137.571 1.848 137.675 1.832 137.771 1.816C137.883 1.784 138.019 1.768 138.179 1.768C138.243 1.784 138.307 1.808 138.371 1.84C138.435 1.856 138.499 1.88 138.563 1.912C138.659 1.88 138.755 1.856 138.851 1.84C138.963 1.824 139.075 1.808 139.187 1.792C139.219 1.84 139.251 1.888 139.283 1.936C139.315 1.984 139.339 2.024 139.355 2.056ZM150.546 3.928C150.45 4.136 150.322 4.312 150.162 4.456C150.002 4.584 149.866 4.736 149.754 4.912C149.626 4.944 149.498 5 149.37 5.08C149.258 5.16 149.154 5.24 149.058 5.32C148.898 5.416 148.754 5.416 148.626 5.32C148.562 5.288 148.506 5.256 148.458 5.224C148.426 5.176 148.378 5.136 148.314 5.104C148.186 4.992 148.018 4.952 147.81 4.984C147.794 5 147.77 4.992 147.738 4.96V4.72C147.722 4.704 147.698 4.68 147.666 4.648C147.65 4.616 147.626 4.6 147.594 4.6C147.274 4.472 146.97 4.464 146.682 4.576C146.586 4.592 146.49 4.616 146.394 4.648C146.298 4.68 146.202 4.712 146.106 4.744C146.042 4.84 145.978 4.936 145.914 5.032C145.866 5.128 145.81 5.216 145.746 5.296C145.762 5.424 145.77 5.552 145.77 5.68C145.786 5.808 145.802 5.936 145.818 6.064C145.898 6.16 145.97 6.264 146.034 6.376C146.114 6.472 146.186 6.576 146.25 6.688C146.394 6.8 146.546 6.912 146.706 7.024C146.866 7.12 147.018 7.232 147.162 7.36C147.258 7.424 147.354 7.48 147.45 7.528C147.562 7.56 147.658 7.616 147.738 7.696C147.818 7.776 147.89 7.848 147.954 7.912C148.034 7.96 148.106 8.024 148.17 8.104C148.218 8.12 148.266 8.144 148.314 8.176C148.362 8.208 148.41 8.24 148.458 8.272C148.73 8.448 148.938 8.688 149.082 8.992C149.162 9.12 149.242 9.256 149.322 9.4C149.418 9.544 149.506 9.68 149.586 9.808C149.698 9.904 149.77 10.016 149.802 10.144C149.85 10.272 149.898 10.4 149.946 10.528C149.962 10.544 149.97 10.576 149.97 10.624C150.002 10.816 150.05 11 150.114 11.176C150.194 11.352 150.274 11.528 150.354 11.704C150.402 11.912 150.426 12.12 150.426 12.328C150.442 12.52 150.434 12.712 150.402 12.904C150.402 13.064 150.378 13.224 150.33 13.384C150.298 13.528 150.25 13.664 150.186 13.792C150.17 13.808 150.162 13.824 150.162 13.84C150.162 13.856 150.146 13.88 150.114 13.912C149.97 14.056 149.85 14.216 149.754 14.392C149.674 14.568 149.578 14.744 149.466 14.92C149.45 14.936 149.442 14.96 149.442 14.992C149.442 15.008 149.426 15.024 149.394 15.04C149.234 15.152 149.098 15.272 148.986 15.4C148.89 15.528 148.778 15.656 148.65 15.784C148.586 15.848 148.506 15.904 148.41 15.952C148.314 16 148.226 16.056 148.146 16.12L147.642 16.36C147.482 16.376 147.314 16.4 147.138 16.432C146.978 16.464 146.81 16.52 146.634 16.6C146.522 16.664 146.394 16.712 146.25 16.744C146.122 16.776 145.994 16.808 145.866 16.84C145.802 16.856 145.738 16.872 145.674 16.888C145.61 16.904 145.546 16.92 145.482 16.936C145.274 16.776 145.042 16.696 144.786 16.696C144.61 16.696 144.458 16.664 144.33 16.6C144.138 16.52 143.954 16.432 143.778 16.336C143.602 16.256 143.442 16.144 143.298 16C143.202 15.92 143.106 15.848 143.01 15.784C142.914 15.72 142.826 15.656 142.746 15.592C142.682 15.528 142.602 15.488 142.506 15.472C142.426 15.44 142.346 15.408 142.266 15.376C142.154 15.296 142.09 15.208 142.074 15.112C142.09 14.984 142.138 14.864 142.218 14.752C142.314 14.64 142.394 14.52 142.458 14.392C142.458 14.296 142.482 14.176 142.53 14.032C142.674 13.84 142.826 13.648 142.986 13.456C143.146 13.248 143.306 13.04 143.466 12.832C143.53 12.784 143.602 12.736 143.682 12.688C143.762 12.624 143.85 12.56 143.946 12.496C144.266 12.576 144.57 12.664 144.858 12.76C145.146 12.856 145.442 12.944 145.746 13.024C145.81 13.008 145.858 12.992 145.89 12.976C145.922 12.944 145.946 12.92 145.962 12.904C146.01 12.888 146.05 12.872 146.082 12.856C146.114 12.84 146.138 12.824 146.154 12.808H146.586C146.602 12.776 146.618 12.752 146.634 12.736C146.666 12.704 146.69 12.672 146.706 12.64C146.77 12.48 146.834 12.328 146.898 12.184C146.962 12.04 147.002 11.88 147.018 11.704C146.986 11.576 146.946 11.44 146.898 11.296C146.866 11.152 146.794 11.008 146.682 10.864C146.618 10.816 146.546 10.76 146.466 10.696C146.386 10.632 146.306 10.568 146.226 10.504C145.954 10.472 145.674 10.4 145.386 10.288C145.114 10.176 144.842 10.12 144.57 10.12C144.458 10.088 144.37 10.04 144.306 9.976C144.242 9.896 144.17 9.824 144.09 9.76C143.978 9.728 143.858 9.704 143.73 9.688C143.602 9.672 143.498 9.608 143.418 9.496C143.162 9.352 142.946 9.248 142.77 9.184C142.69 9.088 142.61 8.992 142.53 8.896C142.466 8.8 142.394 8.712 142.314 8.632C142.25 8.552 142.186 8.456 142.122 8.344C142.074 8.216 142.01 8.096 141.93 7.984C141.866 7.904 141.81 7.816 141.762 7.72C141.714 7.608 141.666 7.496 141.618 7.384C141.57 7.16 141.522 6.92 141.474 6.664C141.506 6.488 141.53 6.312 141.546 6.136C141.578 5.944 141.602 5.752 141.618 5.56L141.522 5.32C141.586 5.288 141.634 5.24 141.666 5.176C141.698 5.112 141.73 5.048 141.762 4.984C141.794 4.888 141.834 4.808 141.882 4.744C141.93 4.68 141.946 4.592 141.93 4.48C141.93 4.176 142.01 3.896 142.17 3.64C142.202 3.576 142.226 3.52 142.242 3.472C142.274 3.424 142.298 3.376 142.314 3.328C142.394 3.28 142.458 3.232 142.506 3.184C142.57 3.12 142.61 3.08 142.626 3.064C142.706 2.984 142.738 2.912 142.722 2.848C142.706 2.768 142.706 2.696 142.722 2.632C142.786 2.536 142.858 2.44 142.938 2.344C143.018 2.248 143.106 2.144 143.202 2.032C143.314 1.952 143.434 1.888 143.562 1.84C143.69 1.776 143.81 1.688 143.922 1.576C143.954 1.528 143.994 1.496 144.042 1.48C144.09 1.448 144.146 1.424 144.21 1.408C144.29 1.36 144.378 1.32 144.474 1.288C144.57 1.256 144.666 1.216 144.762 1.168C144.922 1.136 145.082 1.112 145.242 1.096C145.418 1.08 145.586 1.064 145.746 1.048C145.762 1.048 145.778 1.048 145.794 1.048C145.826 1.032 145.858 1.032 145.89 1.048C146.066 1.112 146.242 1.112 146.418 1.048C146.61 0.983999 146.802 0.959999 146.994 0.975999C147.17 0.975999 147.338 0.999999 147.498 1.048C147.674 1.096 147.842 1.136 148.002 1.168C148.178 1.296 148.354 1.416 148.53 1.528C148.706 1.624 148.898 1.704 149.106 1.768C149.17 1.832 149.226 1.904 149.274 1.984C149.338 2.048 149.402 2.12 149.466 2.2C149.53 2.264 149.594 2.32 149.658 2.368C149.722 2.416 149.778 2.472 149.826 2.536C149.954 2.776 150.074 3.016 150.186 3.256C150.314 3.48 150.434 3.704 150.546 3.928Z" fill="#404040"/>
</svg>
