<svg width="251" height="78" viewBox="0 0 251 78" fill="none" xmlns="http://www.w3.org/2000/svg">
<g filter="url(#filter0_d_1043_8202)">
<rect x="4" y="4" width="243" height="70" rx="10" fill="white" shape-rendering="crispEdges"/>
<path d="M49.106 43.8767C48.9099 43.8613 48.7202 43.7633 48.5792 43.5738C48.3067 43.2076 48.351 42.6402 48.6772 42.3208L62.1156 29.1587C62.4418 28.8393 62.9372 28.878 63.2098 29.2442C63.4823 29.6104 63.438 30.1778 63.1118 30.4972L49.6724 43.6712C49.515 43.8254 49.3021 43.892 49.106 43.8767Z" fill="#E36B08"/>
<path d="M58.7999 48.3733C58.5466 48.3733 58.2932 48.2799 58.0932 48.0799C57.7066 47.6933 57.7066 47.0533 58.0932 46.6666L59.6932 45.0666C60.0799 44.6799 60.7199 44.6799 61.1066 45.0666C61.4932 45.4533 61.4932 46.0933 61.1066 46.4799L59.5066 48.0799C59.3199 48.2666 59.0666 48.3733 58.7999 48.3733Z" fill="#E36B08"/>
<path d="M62.3868 44.7866C62.1335 44.7866 61.8801 44.6933 61.6801 44.4933C61.2935 44.1066 61.2935 43.4666 61.6801 43.0799L64.8668 39.8933C65.2535 39.5066 65.8935 39.5066 66.2801 39.8933C66.6668 40.2799 66.6668 40.9199 66.2801 41.3066L63.0935 44.4933C62.9068 44.6799 62.6401 44.7866 62.3868 44.7866Z" fill="#E36B08"/>
<path d="M58.8 53.3334C57.4934 53.3334 56.1867 52.5334 54.6 50.9467L48.0534 44.4C44.8667 41.2134 44.88 39.16 48.0934 35.9467L56.9467 27.0934C60.16 23.88 62.2134 23.8667 65.4 27.0534L71.9467 33.6C75.1334 36.7867 75.12 38.84 71.9067 42.0534L63.0534 50.9067C61.44 52.5201 60.12 53.3334 58.8 53.3334ZM61.2 26.6667C60.5067 26.6667 59.6267 27.24 58.36 28.5067L49.5067 37.36C48.24 38.6267 47.6667 39.5067 47.6667 40.1867C47.6667 40.88 48.2 41.72 49.4667 42.9867L56.0134 49.5334C57.28 50.8 58.1067 51.3334 58.8 51.3334C58.8 51.3334 58.8 51.3334 58.8134 51.3334C59.5067 51.3334 60.3734 50.76 61.64 49.4934L70.4934 40.64C71.76 39.3734 72.3334 38.4934 72.3334 37.8134C72.3334 37.12 71.8 36.28 70.5334 35.0134L63.9867 28.4667C62.7334 27.2 61.8934 26.6667 61.2 26.6667Z" fill="#E36B08"/>
<path d="M73.3332 53.3333H46.6665C46.1198 53.3333 45.6665 52.8799 45.6665 52.3333C45.6665 51.7866 46.1198 51.3333 46.6665 51.3333H73.3332C73.8798 51.3333 74.3332 51.7866 74.3332 52.3333C74.3332 52.8799 73.8798 53.3333 73.3332 53.3333Z" fill="#E36B08"/>
<path d="M116.016 37.256C115.931 37.32 115.888 37.48 115.888 37.736C115.888 37.9707 115.856 38.1413 115.792 38.248C115.749 38.3333 115.675 38.4187 115.568 38.504C115.483 38.568 115.408 38.6533 115.344 38.76C115.365 38.8027 115.387 38.856 115.408 38.92C115.429 38.984 115.451 39.0373 115.472 39.08C115.387 39.1867 115.301 39.2933 115.216 39.4C115.131 39.5067 115.035 39.624 114.928 39.752C114.864 39.752 114.768 39.7733 114.64 39.816C114.555 39.8373 114.512 39.9013 114.512 40.008C114.512 40.0933 114.523 40.1893 114.544 40.296C114.587 40.3813 114.608 40.4773 114.608 40.584C114.523 40.904 114.437 41.224 114.352 41.544C114.267 41.864 114.128 42.1627 113.936 42.44C113.915 42.7813 113.819 43.112 113.648 43.432C113.477 43.7307 113.328 44.0507 113.2 44.392C113.136 44.52 113.083 44.648 113.04 44.776C113.019 44.904 112.987 45.0427 112.944 45.192C112.859 45.2773 112.784 45.3627 112.72 45.448C112.656 45.5333 112.571 45.6187 112.464 45.704C112.4 45.8107 112.347 45.928 112.304 46.056C112.261 46.184 112.219 46.312 112.176 46.44C112.091 46.5467 112.016 46.664 111.952 46.792C111.909 46.92 111.845 47.0373 111.76 47.144C111.568 47.4853 111.419 47.848 111.312 48.232C111.227 48.5947 111.184 48.9573 111.184 49.32C111.12 49.4693 111.056 49.608 110.992 49.736C110.949 49.8427 110.875 49.9493 110.768 50.056C110.683 50.2053 110.608 50.3653 110.544 50.536C110.501 50.6853 110.427 50.8347 110.32 50.984C110.128 51.304 110.011 51.5173 109.968 51.624C109.925 51.7307 109.904 51.8373 109.904 51.944C109.925 52.0507 109.883 52.2747 109.776 52.616C109.691 52.7227 109.552 52.8293 109.36 52.936C109.168 53.0427 108.997 53.1173 108.848 53.16C108.763 53.1173 108.624 53.096 108.432 53.096C108.24 53.1173 108.101 53.1173 108.016 53.096C107.909 53.0747 107.792 53.064 107.664 53.064C107.536 53.064 107.419 53.064 107.312 53.064C107.163 53.064 107.003 53.064 106.832 53.064C106.683 53.064 106.533 53.0533 106.384 53.032C106.256 52.9893 106.16 52.9253 106.096 52.84C106.011 52.6267 105.936 52.4347 105.872 52.264C105.829 52.072 105.84 51.88 105.904 51.688C105.925 51.6027 105.893 51.528 105.808 51.464C105.744 51.4 105.691 51.3573 105.648 51.336C105.584 51.208 105.52 51.08 105.456 50.952C105.413 50.8027 105.339 50.664 105.232 50.536C105.104 50.3227 104.976 50.12 104.848 49.928C104.72 49.736 104.603 49.5333 104.496 49.32C104.475 49.2347 104.411 49.16 104.304 49.096C104.219 49.032 104.176 48.9573 104.176 48.872C104.176 48.7013 104.144 48.552 104.08 48.424C104.037 48.296 103.984 48.1573 103.92 48.008C103.877 47.88 103.824 47.752 103.76 47.624C103.717 47.4747 103.675 47.336 103.632 47.208C103.547 46.9733 103.451 46.7707 103.344 46.6C103.131 46.3013 102.907 46.0027 102.672 45.704C102.459 45.4053 102.235 45.1173 102 44.84C101.851 44.6267 101.68 44.52 101.488 44.52C101.403 44.52 101.36 44.5627 101.36 44.648C101.36 44.7973 101.36 44.936 101.36 45.064C101.381 45.192 101.392 45.32 101.392 45.448C101.392 45.832 101.285 46.1307 101.072 46.344C100.923 46.4933 100.827 46.664 100.784 46.856C100.741 47.0267 100.699 47.1973 100.656 47.368C100.592 47.56 100.507 47.7413 100.4 47.912C100.315 48.0827 100.251 48.2533 100.208 48.424C100.08 48.552 99.9627 48.6693 99.856 48.776C99.7493 48.8827 99.664 49.0107 99.6 49.16C99.536 49.352 99.44 49.5227 99.312 49.672C99.184 49.8213 99.0987 50.0027 99.056 50.216C99.0347 50.408 98.9493 50.5787 98.8 50.728C98.672 50.8773 98.5973 51.0587 98.576 51.272C98.5333 51.4 98.4693 51.528 98.384 51.656C98.32 51.7627 98.2667 51.88 98.224 52.008C98.1173 52.136 98.032 52.3067 97.968 52.52C97.6267 52.6693 97.3387 52.7653 97.104 52.808C96.8907 52.8507 96.5707 52.9147 96.144 53C95.9947 52.9573 95.824 52.904 95.632 52.84C95.4613 52.776 95.2693 52.7227 95.056 52.68C94.992 52.7013 94.928 52.7227 94.864 52.744C94.8 52.7653 94.7253 52.7867 94.64 52.808C94.5973 52.8507 94.544 52.8827 94.48 52.904C94.4373 52.9253 94.3947 52.9467 94.352 52.968C94.2027 52.9467 94.064 52.9253 93.936 52.904C93.808 52.8613 93.6693 52.8613 93.52 52.904C93.4133 52.712 93.296 52.5307 93.168 52.36C93.0613 52.168 92.9867 51.9653 92.944 51.752C92.9227 51.5173 92.848 51.3253 92.72 51.176C92.592 51.0053 92.5067 50.8133 92.464 50.6C92.4 50.4933 92.3253 50.408 92.24 50.344C92.176 50.28 92.112 50.216 92.048 50.152C91.9627 49.9387 91.8987 49.7147 91.856 49.48C91.8133 49.2453 91.792 49.0107 91.792 48.776C91.5147 48.456 91.376 48.1147 91.376 47.752C91.1413 47.432 90.992 47.2293 90.928 47.144C90.8853 47.0373 90.8427 46.8453 90.8 46.568C90.5867 46.2907 90.3627 46.0027 90.128 45.704C89.9147 45.4053 89.6907 45.1173 89.456 44.84C89.3707 44.4987 89.2853 44.168 89.2 43.848C89.136 43.528 89.0613 43.208 88.976 42.888C88.8693 42.4613 88.7413 42.056 88.592 41.672C88.4427 41.2667 88.3147 40.8613 88.208 40.456C88.1653 40.264 88.112 40.0933 88.048 39.944C87.984 39.7733 87.9307 39.6027 87.888 39.432C87.888 39.3467 87.8667 39.272 87.824 39.208C87.8027 39.1227 87.7707 39.0587 87.728 39.016C87.6427 38.9093 87.5893 38.8027 87.568 38.696C87.5467 38.568 87.5253 38.4507 87.504 38.344C87.4827 38.1947 87.4507 38.0667 87.408 37.96C87.3653 37.832 87.3227 37.704 87.28 37.576C87.4293 37.2133 87.6427 36.8933 87.92 36.616C88.0267 36.552 88.1227 36.52 88.208 36.52C88.3147 36.4987 88.4107 36.4667 88.496 36.424C88.816 36.3387 89.0507 36.2533 89.2 36.168C89.3493 36.0613 89.5733 35.9333 89.872 35.784C90.384 35.4853 90.9173 35.272 91.472 35.144C91.5787 35.1653 91.6533 35.208 91.696 35.272C91.7387 35.336 91.7707 35.4107 91.792 35.496C91.856 35.7093 91.92 35.9333 91.984 36.168C92.0693 36.3813 92.1867 36.584 92.336 36.776C92.4427 37.0747 92.5707 37.3733 92.72 37.672C92.8907 37.9707 93.04 38.2587 93.168 38.536C93.1893 38.5573 93.2427 38.664 93.328 38.856C93.4133 39.0267 93.4987 39.208 93.584 39.4C93.6907 39.5707 93.7547 39.656 93.776 39.656C94.0747 39.912 94.288 40.1147 94.416 40.264C94.5653 40.4133 94.6933 40.584 94.8 40.776C94.9067 40.9467 95.024 41.2133 95.152 41.576C95.2587 41.8107 95.3653 42.0453 95.472 42.28C95.5787 42.5147 95.6747 42.76 95.76 43.016C95.7813 43.1653 95.792 43.3147 95.792 43.464C95.792 43.6133 95.8027 43.7733 95.824 43.944C95.888 44.0507 95.9413 44.168 95.984 44.296C96.048 44.424 96.1013 44.552 96.144 44.68C96.2293 44.7227 96.304 44.744 96.368 44.744C96.368 44.7653 96.3787 44.776 96.4 44.776C96.4427 44.7547 96.464 44.7333 96.464 44.712C96.6133 44.4773 96.7413 44.2533 96.848 44.04C96.976 43.8267 97.0613 43.6027 97.104 43.368C97.1253 43.1973 97.168 43.0587 97.232 42.952C97.296 42.8453 97.3387 42.728 97.36 42.6C97.3387 42.4933 97.328 42.376 97.328 42.248C97.328 42.12 97.3173 42.0027 97.296 41.896C97.3813 41.7253 97.456 41.576 97.52 41.448C97.6053 41.32 97.68 41.192 97.744 41.064C97.7867 40.936 97.8187 40.808 97.84 40.68C97.8827 40.5307 97.936 40.4027 98 40.296C98.1067 40.0613 98.2133 39.848 98.32 39.656C98.4267 39.4427 98.544 39.2187 98.672 38.984C98.6933 38.8773 98.6827 38.7707 98.64 38.664C98.5973 38.5573 98.5653 38.4613 98.544 38.376C98.5653 38.3333 98.576 38.2907 98.576 38.248C98.5973 38.184 98.6293 38.1413 98.672 38.12C98.9493 37.992 99.1413 37.7787 99.248 37.48C99.4187 37.096 99.5467 36.7867 99.632 36.552C99.7387 36.296 99.9093 35.9973 100.144 35.656C100.187 35.592 100.293 35.464 100.464 35.272C100.635 35.0587 100.741 34.9093 100.784 34.824C100.805 34.76 100.869 34.7067 100.976 34.664C101.061 34.6853 101.125 34.7173 101.168 34.76C101.232 34.7813 101.307 34.8133 101.392 34.856C101.477 34.856 101.552 34.8453 101.616 34.824C101.765 34.6747 101.936 34.6 102.128 34.6C102.299 34.5787 102.469 34.568 102.64 34.568C102.832 34.5467 103.003 34.5573 103.152 34.6C103.323 34.6427 103.44 34.7173 103.504 34.824C103.568 34.9307 103.675 34.9627 103.824 34.92C103.973 35.112 104.069 35.3147 104.112 35.528C104.155 35.7413 104.229 35.9333 104.336 36.104C104.421 36.2107 104.528 36.2747 104.656 36.296C104.805 36.3173 104.901 36.36 104.944 36.424C105.051 36.5733 105.104 36.7227 105.104 36.872C105.125 37 105.147 37.1173 105.168 37.224C105.211 37.3307 105.243 37.4373 105.264 37.544C105.307 37.6507 105.317 37.7787 105.296 37.928C105.275 37.9493 105.275 37.992 105.296 38.056C105.339 38.12 105.371 38.1733 105.392 38.216C105.435 38.28 105.488 38.344 105.552 38.408C105.616 38.4507 105.659 38.4933 105.68 38.536L105.904 39.08C105.925 39.1013 105.947 39.1333 105.968 39.176C106.011 39.1973 106.032 39.2293 106.032 39.272C106.053 39.3573 106.064 39.4533 106.064 39.56C106.085 39.6453 106.096 39.7413 106.096 39.848C106.096 40.296 106.171 40.68 106.32 41C106.427 41.2773 106.512 41.48 106.576 41.608C106.64 41.7147 106.821 41.896 107.12 42.152C107.163 42.216 107.195 42.2907 107.216 42.376C107.259 42.4613 107.301 42.5467 107.344 42.632C107.365 42.6747 107.408 42.792 107.472 42.984C107.557 43.1547 107.643 43.3147 107.728 43.464C107.813 43.6133 107.877 43.688 107.92 43.688C108.048 43.624 108.165 43.464 108.272 43.208C108.379 42.952 108.485 42.6853 108.592 42.408C108.699 42.1307 108.795 41.9493 108.88 41.864C108.944 41.6293 109.008 41.3947 109.072 41.16C109.157 40.9253 109.211 40.68 109.232 40.424C109.253 40.168 109.296 39.9227 109.36 39.688C109.445 39.432 109.499 39.1867 109.52 38.952C109.541 38.888 109.637 38.76 109.808 38.568C110 38.3547 110.107 38.2373 110.128 38.216C110.32 37.7893 110.405 37.4587 110.384 37.224C110.384 36.968 110.469 36.6373 110.64 36.232C110.747 36.04 110.864 35.8587 110.992 35.688C111.12 35.5173 111.227 35.3467 111.312 35.176C111.504 35.048 111.685 35.0053 111.856 35.048C112.027 35.0693 112.187 35.0587 112.336 35.016C112.592 35.08 112.805 35.112 112.976 35.112C113.147 35.112 113.328 35.176 113.52 35.304C113.627 35.3467 113.744 35.4 113.872 35.464C114.021 35.528 114.149 35.5813 114.256 35.624C114.341 35.752 114.448 35.8693 114.576 35.976C114.704 36.0613 114.811 36.168 114.896 36.296C115.152 36.4667 115.344 36.6053 115.472 36.712C115.621 36.8187 115.803 37 116.016 37.256ZM124.443 35.912C124.507 36.0613 124.529 36.2213 124.507 36.392C124.486 36.5413 124.454 36.6907 124.411 36.84C124.39 36.968 124.347 37.096 124.283 37.224C124.219 37.3307 124.166 37.4373 124.123 37.544C124.038 37.672 123.942 37.7893 123.835 37.896C123.75 38.0027 123.665 38.1093 123.579 38.216C123.515 38.2373 123.462 38.28 123.419 38.344C123.377 38.3867 123.323 38.4293 123.259 38.472C123.11 38.5787 122.875 38.6853 122.555 38.792C122.235 38.8773 121.979 38.92 121.787 38.92C121.681 38.92 121.595 38.8987 121.531 38.856C121.403 38.856 121.275 38.856 121.147 38.856C121.019 38.8347 120.902 38.824 120.795 38.824C120.731 38.7813 120.657 38.7387 120.571 38.696C120.507 38.6533 120.454 38.6107 120.411 38.568C120.305 38.5253 120.187 38.504 120.059 38.504C119.953 38.504 119.846 38.504 119.739 38.504C119.654 38.44 119.547 38.3867 119.419 38.344C119.313 38.28 119.206 38.2267 119.099 38.184L118.907 37.608C118.929 37.4373 118.95 37.256 118.971 37.064C118.993 36.8507 118.971 36.6373 118.907 36.424C118.843 36.3813 118.843 36.328 118.907 36.264C118.971 36.1147 118.971 35.9653 118.907 35.816C118.843 35.6667 118.843 35.5173 118.907 35.368C118.929 35.3253 118.939 35.2613 118.939 35.176C118.875 35.048 118.875 34.9307 118.939 34.824C119.003 34.696 119.057 34.5893 119.099 34.504C119.078 34.44 119.067 34.376 119.067 34.312C119.067 34.2267 119.067 34.1627 119.067 34.12C119.089 34.0987 119.099 34.0773 119.099 34.056C119.121 34.0133 119.153 33.9813 119.195 33.96C119.366 33.9173 119.505 33.8427 119.611 33.736C119.739 33.608 119.878 33.512 120.027 33.448C120.177 33.32 120.337 33.2133 120.507 33.128C120.699 33.0427 120.881 32.9573 121.051 32.872C121.222 32.872 121.371 32.872 121.499 32.872C121.627 32.872 121.755 32.8933 121.883 32.936C121.947 32.9573 122.022 32.968 122.107 32.968C122.193 32.968 122.278 32.968 122.363 32.968C122.662 32.9253 122.897 33.0427 123.067 33.32C123.11 33.4267 123.185 33.4907 123.291 33.512C123.398 33.5333 123.494 33.5653 123.579 33.608C123.793 33.8 123.931 34.0453 123.995 34.344C124.038 34.472 124.081 34.6 124.123 34.728C124.187 34.856 124.23 34.984 124.251 35.112C124.294 35.24 124.326 35.3787 124.347 35.528C124.39 35.656 124.422 35.784 124.443 35.912ZM124.251 43.272C124.209 43.4 124.187 43.5493 124.187 43.72C124.187 43.8693 124.187 44.0293 124.187 44.2C124.209 44.3493 124.209 44.5093 124.187 44.68C124.166 44.8293 124.155 44.9787 124.155 45.128L123.931 45.448C124.038 45.5547 124.102 45.672 124.123 45.8C124.145 45.928 124.155 46.0667 124.155 46.216C124.155 46.3653 124.155 46.5253 124.155 46.696C124.155 46.8453 124.145 47.0053 124.123 47.176C124.102 47.3253 124.059 47.4853 123.995 47.656C123.931 47.8267 123.878 48.008 123.835 48.2C123.835 48.4133 123.825 48.6693 123.803 48.968C123.803 49.2453 123.814 49.5227 123.835 49.8C123.857 50.2053 123.835 50.6213 123.771 51.048C123.707 51.4533 123.579 51.8373 123.387 52.2C123.387 52.3707 123.409 52.5413 123.451 52.712C123.494 52.8613 123.537 53.0213 123.579 53.192C123.579 53.2133 123.569 53.2347 123.547 53.256C123.526 53.2987 123.515 53.3413 123.515 53.384C123.409 53.5333 123.281 53.6613 123.131 53.768C123.11 53.768 123.089 53.7787 123.067 53.8H122.939C122.705 53.8 122.459 53.8107 122.203 53.832C121.969 53.8747 121.702 53.864 121.403 53.8C121.318 53.7573 121.222 53.704 121.115 53.64C121.03 53.576 120.934 53.5227 120.827 53.48C120.742 53.48 120.635 53.4693 120.507 53.448C120.401 53.448 120.294 53.4373 120.187 53.416C120.017 53.224 119.846 53.0213 119.675 52.808C119.611 52.7653 119.537 52.7333 119.451 52.712C119.366 52.6907 119.281 52.6587 119.195 52.616C119.046 52.5093 118.993 52.3387 119.035 52.104C119.078 51.8693 119.131 51.6667 119.195 51.496C119.259 51.2187 119.249 50.952 119.163 50.696L119.035 50.248C119.035 50.0773 119.025 49.9173 119.003 49.768C118.982 49.6187 118.982 49.4693 119.003 49.32C119.025 49.1067 119.025 48.904 119.003 48.712C119.003 48.52 119.003 48.3173 119.003 48.104C119.025 47.8053 119.035 47.5173 119.035 47.24C119.035 46.9413 119.035 46.6533 119.035 46.376C119.035 46.2693 119.046 46.2053 119.067 46.184C119.174 46.0133 119.227 45.8533 119.227 45.704C119.227 45.5333 119.227 45.3627 119.227 45.192C119.206 45.0213 119.206 44.8507 119.227 44.68C119.27 44.488 119.27 44.3173 119.227 44.168C119.227 43.976 119.227 43.7947 119.227 43.624C119.227 43.432 119.238 43.24 119.259 43.048C119.281 42.9413 119.291 42.8347 119.291 42.728C119.313 42.6 119.302 42.4613 119.259 42.312C119.451 42.2267 119.611 42.1627 119.739 42.12C119.889 42.0773 120.027 42.056 120.155 42.056C120.241 42.056 120.326 42.056 120.411 42.056C120.518 42.056 120.614 42.0453 120.699 42.024C120.913 41.9813 121.094 41.9387 121.243 41.896C121.35 41.9173 121.435 41.96 121.499 42.024C121.585 42.0667 121.67 42.1093 121.755 42.152C121.905 42.152 122.054 42.12 122.203 42.056C122.353 42.0347 122.481 42.0453 122.587 42.088C122.715 42.1307 122.811 42.2373 122.875 42.408C122.897 42.4293 122.907 42.4507 122.907 42.472C122.929 42.4933 122.95 42.5147 122.971 42.536L123.195 42.664C123.345 42.6853 123.473 42.664 123.579 42.6C123.686 42.5147 123.793 42.4613 123.899 42.44C124.027 42.44 124.102 42.4933 124.123 42.6C124.187 42.7493 124.23 42.9733 124.251 43.272ZM137.934 50.696C137.827 50.9093 137.731 51.1227 137.646 51.336C137.56 51.5493 137.464 51.7627 137.358 51.976L136.686 52.616C136.28 53.064 135.8 53.3307 135.246 53.416C134.968 53.4587 134.68 53.4693 134.382 53.448C134.104 53.448 133.816 53.4053 133.518 53.32C133.347 53.2773 133.166 53.2133 132.974 53.128C132.803 53.064 132.632 52.9893 132.462 52.904C132.334 52.84 132.195 52.7973 132.046 52.776C131.896 52.7333 131.736 52.7013 131.566 52.68C131.502 52.6373 131.427 52.5947 131.342 52.552C131.256 52.488 131.16 52.424 131.054 52.36C130.904 52.104 130.723 51.8693 130.51 51.656C130.318 51.4427 130.168 51.176 130.062 50.856C130.062 50.6 130.051 50.4293 130.03 50.344C130.008 50.2373 129.944 50.0347 129.838 49.736V47.624C129.838 47.4533 129.827 47.2933 129.806 47.144C129.806 46.9733 129.784 46.8133 129.742 46.664C129.72 46.5147 129.71 46.3867 129.71 46.28C129.731 46.1733 129.752 46.0453 129.774 45.896C129.838 45.64 129.838 45.3733 129.774 45.096C129.838 44.84 129.912 44.584 129.998 44.328C129.998 44.2 129.966 44.0187 129.902 43.784C129.838 43.5493 129.763 43.3253 129.678 43.112C129.571 43.112 129.464 43.1013 129.358 43.08C129.251 43.0587 129.134 43.0373 129.006 43.016C128.878 43.0587 128.739 43.1013 128.59 43.144C128.462 43.1867 128.312 43.2293 128.142 43.272C128.078 43.3147 127.982 43.336 127.854 43.336C127.832 43.336 127.79 43.3147 127.726 43.272C127.683 43.208 127.662 43.1653 127.662 43.144C127.64 43.08 127.63 43.016 127.63 42.952C127.63 42.888 127.63 42.824 127.63 42.76C127.608 42.5893 127.598 42.408 127.598 42.216C127.598 42.024 127.598 41.8427 127.598 41.672C127.598 41.5013 127.587 41.3413 127.566 41.192C127.544 41.0213 127.512 40.8613 127.47 40.712C127.491 40.6053 127.512 40.5093 127.534 40.424C127.555 40.3173 127.576 40.2213 127.598 40.136V39.528C127.598 39.3573 127.619 39.208 127.662 39.08C127.726 38.952 127.843 38.8347 128.014 38.728C128.142 38.6853 128.28 38.664 128.43 38.664C128.6 38.664 128.782 38.664 128.974 38.664C129.144 38.6853 129.315 38.6853 129.486 38.664C129.678 38.6213 129.848 38.5253 129.998 38.376C130.04 38.3333 130.094 38.312 130.158 38.312C130.243 38.312 130.307 38.312 130.35 38.312C130.776 38.3333 131.15 38.1627 131.47 37.8C131.491 37.672 131.555 37.4907 131.662 37.256C131.598 37.1067 131.544 36.9467 131.502 36.776C131.459 36.584 131.406 36.4027 131.342 36.232C131.384 36.168 131.427 36.104 131.47 36.04C131.512 35.976 131.544 35.9013 131.566 35.816C131.608 35.7093 131.608 35.6133 131.566 35.528C131.523 35.4213 131.512 35.336 131.534 35.272C131.491 35.1653 131.47 35.0907 131.47 35.048C131.47 35.0053 131.448 34.9307 131.406 34.824C131.427 34.7813 131.448 34.7387 131.47 34.696C131.491 34.632 131.512 34.5787 131.534 34.536C131.555 34.4507 131.576 34.3867 131.598 34.344C131.619 34.28 131.64 34.2053 131.662 34.12H132.014C132.12 34.1413 132.227 34.1627 132.334 34.184C132.462 34.184 132.579 34.1733 132.686 34.152C132.728 34.152 132.782 34.1627 132.846 34.184C132.91 34.184 132.974 34.184 133.038 34.184C133.4 34.2267 133.752 34.28 134.094 34.344C134.456 34.408 134.808 34.44 135.15 34.44C135.192 34.44 135.235 34.4507 135.278 34.472C135.342 34.4933 135.384 34.5147 135.406 34.536C135.491 34.5787 135.566 34.632 135.63 34.696C135.608 34.7813 135.576 34.8667 135.534 34.952C135.491 35.016 135.459 35.08 135.438 35.144C135.416 35.2293 135.395 35.3253 135.374 35.432C135.374 35.5387 135.363 35.6453 135.342 35.752C135.32 35.9013 135.299 36.0507 135.278 36.2C135.256 36.3493 135.224 36.52 135.182 36.712C135.203 36.7333 135.214 36.7867 135.214 36.872C135.214 36.9573 135.224 37.032 135.246 37.096C135.224 37.2453 135.192 37.384 135.15 37.512C135.128 37.64 135.107 37.7893 135.086 37.96C135.363 38.1733 135.662 38.3547 135.982 38.504C136.323 38.6533 136.728 38.792 137.198 38.92C137.432 39.0693 137.571 39.3147 137.614 39.656C137.614 40.1467 137.582 40.6373 137.518 41.128C137.496 41.32 137.475 41.512 137.454 41.704C137.432 41.896 137.432 42.088 137.454 42.28C137.176 42.4507 136.846 42.536 136.462 42.536C136.398 42.536 136.334 42.5467 136.27 42.568C136.206 42.5893 136.152 42.6 136.11 42.6C135.768 42.6213 135.502 42.6533 135.31 42.696C135.139 42.7387 134.862 42.8453 134.478 43.016C134.414 43.1013 134.382 43.2187 134.382 43.368C134.36 43.496 134.339 43.624 134.318 43.752C134.318 43.88 134.328 44.0187 134.35 44.168C134.35 44.168 134.35 44.1787 134.35 44.2C134.35 44.2 134.328 44.2107 134.286 44.232C134.158 44.488 134.062 44.68 133.998 44.808C133.934 44.936 133.891 45.064 133.87 45.192C133.87 45.32 133.87 45.5333 133.87 45.832V47.368C133.87 47.4747 133.88 47.5387 133.902 47.56C133.923 47.752 134.019 47.912 134.19 48.04C134.275 48.0613 134.35 48.0827 134.414 48.104C134.499 48.1253 134.563 48.1787 134.606 48.264C134.798 48.52 135.011 48.6587 135.246 48.68C135.502 48.68 135.768 48.6373 136.046 48.552C136.131 48.5093 136.216 48.4667 136.302 48.424C136.387 48.3813 136.472 48.3493 136.558 48.328C136.728 48.3707 136.835 48.4667 136.878 48.616C136.92 48.7653 136.995 48.8933 137.102 49C137.208 49.1067 137.294 49.224 137.358 49.352C137.443 49.48 137.528 49.608 137.614 49.736C137.656 49.864 137.71 50.0133 137.774 50.184C137.838 50.3333 137.891 50.504 137.934 50.696ZM154.219 47.752C154.133 48.0293 154.101 48.3067 154.123 48.584C154.165 48.84 154.165 49.1067 154.123 49.384C154.101 49.5333 154.101 49.6827 154.123 49.832C154.144 49.9813 154.133 50.1413 154.091 50.312C154.069 50.44 154.059 50.5787 154.059 50.728C154.08 50.856 154.091 50.984 154.091 51.112C154.069 51.1973 154.059 51.304 154.059 51.432C154.016 51.5813 153.984 51.7307 153.963 51.88C153.963 52.008 153.941 52.1573 153.899 52.328C153.899 52.3493 153.888 52.3813 153.867 52.424C153.867 52.4453 153.867 52.4773 153.867 52.52C153.867 52.6693 153.781 52.744 153.611 52.744C153.589 52.7227 153.536 52.712 153.451 52.712C153.301 52.648 153.173 52.6373 153.067 52.68C152.96 52.7227 152.853 52.7653 152.747 52.808C152.683 52.872 152.619 52.936 152.555 53C152.491 53.064 152.427 53.1387 152.363 53.224C152.128 53.352 151.904 53.384 151.691 53.32C151.499 53.2773 151.296 53.192 151.083 53.064C150.955 53.064 150.859 53.0747 150.795 53.096H150.699C150.677 53.0747 150.645 53.064 150.603 53.064C150.517 53 150.432 52.936 150.347 52.872C150.283 52.808 150.208 52.744 150.123 52.68C149.952 52.5093 149.888 52.3387 149.931 52.168C149.952 52.0827 149.973 52.008 149.995 51.944C150.037 51.8587 150.048 51.7733 150.027 51.688C150.005 51.5813 149.973 51.4747 149.931 51.368C149.909 51.2613 149.899 51.1547 149.899 51.048C149.899 50.9413 149.909 50.8347 149.931 50.728C149.973 50.6213 150.005 50.5147 150.027 50.408C149.984 50.2373 149.92 50.0667 149.835 49.896C149.749 49.7253 149.685 49.544 149.643 49.352C149.621 49.1813 149.589 49.0107 149.547 48.84C149.525 48.648 149.515 48.4667 149.515 48.296C149.493 48.104 149.472 47.9227 149.451 47.752C149.451 47.56 149.451 47.3573 149.451 47.144C149.408 46.888 149.301 46.6853 149.131 46.536C148.981 46.3653 148.853 46.2053 148.747 46.056C148.64 45.9067 148.544 45.736 148.459 45.544C148.352 45.4587 148.213 45.384 148.043 45.32C148.021 45.2773 148 45.2347 147.979 45.192C147.957 45.1493 147.925 45.1173 147.883 45.096C147.861 45.0747 147.851 45.0533 147.851 45.032C147.851 44.9893 147.84 44.9573 147.819 44.936L147.627 44.744C147.541 44.7013 147.456 44.7013 147.371 44.744C147.285 44.7867 147.211 44.808 147.147 44.808C147.061 44.8293 146.987 44.84 146.923 44.84C146.859 44.84 146.773 44.8507 146.667 44.872C146.581 44.9147 146.507 44.968 146.443 45.032C146.4 45.0747 146.325 45.1173 146.219 45.16C146.155 45.224 146.08 45.2773 145.995 45.32C145.909 45.3413 145.824 45.3733 145.739 45.416C145.653 45.608 145.643 45.7893 145.707 45.96C145.749 46.1733 145.771 46.3973 145.771 46.632C145.792 46.8667 145.824 47.1013 145.867 47.336C145.888 47.5493 145.867 47.7947 145.803 48.072C145.803 48.136 145.792 48.2107 145.771 48.296C145.749 48.36 145.739 48.4347 145.739 48.52C145.76 48.8613 145.739 49.2027 145.675 49.544C145.611 49.864 145.525 50.1947 145.419 50.536C145.44 50.7493 145.461 50.9627 145.483 51.176C145.504 51.368 145.525 51.5707 145.547 51.784V52.456C145.547 52.7333 145.397 52.8933 145.099 52.936H144.427C144.213 52.9573 144 52.9787 143.786 53C143.595 53.0213 143.413 53.0853 143.243 53.192C143.157 53.2133 143.072 53.2453 142.987 53.288C142.923 53.3307 142.837 53.3733 142.731 53.416L142.507 53.64C142.464 53.64 142.411 53.64 142.347 53.64C142.304 53.6613 142.261 53.6613 142.219 53.64C142.005 53.5333 141.803 53.448 141.611 53.384C141.397 53.1067 141.269 52.808 141.227 52.488C141.184 52.168 141.109 51.8693 141.003 51.592C141.024 51.464 141.045 51.3467 141.067 51.24C141.109 51.112 141.109 50.9947 141.067 50.888C141.045 50.824 141.035 50.7067 141.035 50.536C141.035 50.472 141.035 50.4187 141.035 50.376C141.056 50.312 141.056 50.2587 141.035 50.216C140.971 49.8107 140.992 49.4587 141.099 49.16C141.141 48.968 141.131 48.7653 141.067 48.552C140.981 48.168 140.949 47.7733 140.971 47.368C141.035 47.0267 141.024 46.6853 140.939 46.344C140.875 46.28 140.875 46.1947 140.939 46.088C140.939 45.9813 140.939 45.8747 140.939 45.768C140.96 45.64 140.981 45.5333 141.003 45.448C141.024 45.3627 141.067 45.2987 141.131 45.256C141.195 45.192 141.248 45.1387 141.291 45.096L141.387 44.52C141.429 44.456 141.397 44.3493 141.291 44.2C141.269 44.1573 141.237 44.1573 141.195 44.2C141.152 44.2213 141.109 44.2427 141.067 44.264L141.035 44.232C141.035 43.9973 141.035 43.784 141.035 43.592C141.056 43.3787 141.056 43.1653 141.035 42.952C141.013 42.8667 141.013 42.792 141.035 42.728C141.056 42.664 141.067 42.5893 141.067 42.504C141.067 42.44 141.056 42.3653 141.035 42.28C141.013 42.1947 141.003 42.1093 141.003 42.024C141.003 41.9813 141.003 41.928 141.003 41.864C141.003 41.8 141.013 41.736 141.035 41.672C141.056 41.5653 141.077 41.4587 141.099 41.352C141.12 41.2453 141.152 41.128 141.195 41C141.109 40.8293 141.067 40.648 141.067 40.456C141.088 40.264 141.077 40.0613 141.035 39.848C141.013 39.784 141.013 39.7093 141.035 39.624C141.077 39.5387 141.109 39.4427 141.131 39.336C141.045 39.144 141.013 38.9307 141.035 38.696C141.056 38.44 141.056 38.1947 141.035 37.96C141.077 37.832 141.088 37.7147 141.067 37.608C141.045 37.48 141.035 37.352 141.035 37.224C141.056 37.0107 141.056 36.808 141.035 36.616C141.013 36.424 141.024 36.232 141.067 36.04C141.088 35.976 141.088 35.9227 141.067 35.88C141.067 35.8373 141.067 35.7947 141.067 35.752C141.024 35.3467 141.035 34.9733 141.099 34.632C141.12 34.568 141.131 34.4827 141.131 34.376C141.131 34.2693 141.131 34.1733 141.131 34.088C141.109 34.0027 141.088 33.928 141.067 33.864C141.067 33.8 141.077 33.7253 141.099 33.64C141.163 33.512 141.184 33.384 141.163 33.256C141.163 33.1067 141.205 32.968 141.291 32.84C141.291 32.84 141.291 32.8293 141.291 32.808C141.312 32.7867 141.323 32.7653 141.323 32.744L141.387 32.712C141.387 32.6907 141.419 32.68 141.483 32.68C141.589 32.6373 141.685 32.6053 141.771 32.584C141.877 32.5413 141.984 32.5093 142.091 32.488C142.155 32.5307 142.219 32.5733 142.283 32.616C142.347 32.6587 142.421 32.7013 142.507 32.744H143.019C143.061 32.7013 143.104 32.6693 143.147 32.648C143.189 32.6267 143.221 32.6053 143.243 32.584L143.562 32.36C143.648 32.3173 143.733 32.296 143.819 32.296C143.925 32.2747 144.011 32.296 144.075 32.36C144.267 32.488 144.448 32.5947 144.619 32.68C144.811 32.7653 145.003 32.8187 145.195 32.84C145.301 33.0107 145.376 33.1707 145.419 33.32C145.483 33.4693 145.547 33.6293 145.611 33.8C145.675 34.0133 145.771 34.2587 145.899 34.536C145.899 34.6427 145.856 34.728 145.771 34.792C145.707 34.856 145.664 34.952 145.643 35.08C145.643 35.1227 145.643 35.1867 145.643 35.272C145.664 35.3573 145.685 35.4533 145.707 35.56C145.707 35.6453 145.696 35.7307 145.675 35.816C145.653 35.9013 145.653 35.9973 145.675 36.104C145.717 36.4453 145.728 36.7867 145.707 37.128C145.685 37.4693 145.653 37.8 145.611 38.12V38.568C145.611 38.7813 145.664 38.9947 145.771 39.208C145.856 39.2933 145.931 39.3893 145.995 39.496C146.08 39.5813 146.155 39.6773 146.219 39.784C146.347 39.912 146.485 39.976 146.635 39.976C146.933 39.976 147.232 40.008 147.531 40.072C147.851 40.1147 148.16 40.1147 148.459 40.072C148.523 40.0507 148.576 40.0507 148.619 40.072C148.661 40.072 148.715 40.072 148.779 40.072C148.843 40.1147 148.917 40.1467 149.003 40.168C149.109 40.1893 149.205 40.2107 149.291 40.232C149.525 40.2747 149.621 40.4133 149.579 40.648C149.579 40.648 149.589 40.6587 149.611 40.68C149.632 40.68 149.653 40.6907 149.675 40.712C149.717 40.6907 149.76 40.68 149.803 40.68C149.845 40.68 149.877 40.6693 149.899 40.648C150.176 40.5413 150.421 40.5627 150.635 40.712C150.763 40.8187 150.912 40.904 151.083 40.968C151.253 41.0107 151.413 41.1173 151.563 41.288C151.712 41.544 151.904 41.7893 152.139 42.024C152.373 42.2373 152.608 42.472 152.843 42.728C152.885 42.792 152.939 42.856 153.003 42.92C153.067 42.9627 153.12 43.0053 153.163 43.048C153.355 43.24 153.461 43.432 153.483 43.624C153.547 43.9227 153.621 44.1573 153.707 44.328C153.771 44.5627 153.867 44.8293 153.995 45.128V45.448C154.016 45.5333 154.037 45.6293 154.059 45.736C154.08 45.8213 154.091 45.9173 154.091 46.024C154.112 46.28 154.133 46.536 154.155 46.792C154.176 47.048 154.197 47.304 154.219 47.56C154.219 47.5813 154.219 47.6133 154.219 47.656C154.24 47.6773 154.24 47.7093 154.219 47.752ZM170.501 38.696C170.394 39.08 170.33 39.4747 170.309 39.88C170.287 40.264 170.266 40.648 170.245 41.032C170.223 41.416 170.213 41.8107 170.213 42.216C170.213 42.6 170.213 42.984 170.213 43.368C170.213 43.688 170.191 44.008 170.149 44.328C170.106 44.648 170.074 44.9787 170.053 45.32C170.053 45.4053 170.042 45.5013 170.021 45.608C170.021 45.7147 170.021 45.8213 170.021 45.928C170.021 46.2267 169.978 46.504 169.893 46.76C169.829 47.0373 169.797 47.3147 169.797 47.592C169.797 47.7413 169.786 47.9013 169.765 48.072C169.743 48.2427 169.701 48.4133 169.637 48.584C169.615 48.6907 169.605 48.8507 169.605 49.064C169.583 49.2347 169.541 49.4053 169.477 49.576C169.434 49.7253 169.391 49.8747 169.349 50.024C169.306 50.152 169.263 50.3013 169.221 50.472C169.135 50.6 169.05 50.7387 168.965 50.888C168.901 51.016 168.826 51.144 168.741 51.272C168.549 51.3787 168.389 51.5173 168.261 51.688C168.047 51.8587 167.834 52.04 167.621 52.232C167.429 52.424 167.237 52.6053 167.045 52.776C166.789 52.9893 166.533 53.096 166.277 53.096C166.255 53.096 166.223 53.1067 166.181 53.128C166.159 53.1493 166.127 53.16 166.085 53.16C165.679 53.2027 165.349 53.3307 165.093 53.544C165.071 53.5653 165.039 53.576 164.997 53.576C164.975 53.5973 164.943 53.6293 164.901 53.672C164.623 53.7147 164.335 53.6933 164.036 53.608C163.759 53.5227 163.503 53.416 163.269 53.288H162.757C162.671 53.288 162.586 53.2773 162.501 53.256C162.415 53.256 162.319 53.2453 162.213 53.224C161.637 53.096 161.082 52.8507 160.549 52.488C160.485 52.424 160.41 52.3813 160.325 52.36C160.239 52.3387 160.143 52.3173 160.036 52.296C159.909 52.2747 159.781 52.2427 159.653 52.2C159.525 52.1573 159.397 52.1147 159.269 52.072C159.162 52.008 159.077 51.9227 159.013 51.816C158.949 51.688 158.885 51.5813 158.821 51.496C158.714 51.2827 158.618 51.0907 158.533 50.92C158.447 50.728 158.351 50.5253 158.245 50.312C158.159 50.1413 158.063 49.9707 157.957 49.8C157.85 49.608 157.743 49.4373 157.637 49.288C157.637 49.2667 157.647 49.256 157.669 49.256C157.69 49.256 157.701 49.2453 157.701 49.224L157.637 49.16C157.637 49.1813 157.626 49.2027 157.605 49.224C157.605 49.224 157.605 49.2347 157.605 49.256C157.583 49.2347 157.551 49.224 157.509 49.224C157.487 49.2027 157.466 49.1813 157.445 49.16C157.359 49.1173 157.295 49.0533 157.253 48.968C157.21 48.8613 157.167 48.7653 157.125 48.68C157.189 48.552 157.221 48.3813 157.221 48.168C157.263 47.8907 157.253 47.6453 157.189 47.432C157.103 47.112 157.061 46.792 157.061 46.472C157.082 46.152 157.103 45.8213 157.125 45.48C157.125 45.3733 157.167 45.2347 157.253 45.064C157.402 44.7013 157.487 44.3813 157.509 44.104C157.722 43.8053 157.893 43.4853 158.021 43.144C158.149 42.8027 158.298 42.4827 158.469 42.184C158.575 42.1413 158.661 42.0987 158.725 42.056C158.81 42.0133 158.895 41.9813 158.981 41.96C159.023 41.9173 159.055 41.864 159.077 41.8C159.098 41.736 159.141 41.6827 159.205 41.64C159.269 41.5973 159.343 41.5653 159.429 41.544C159.514 41.5013 159.61 41.4693 159.717 41.448C159.759 41.384 159.791 41.32 159.812 41.256C159.855 41.192 159.898 41.128 159.941 41.064C160.005 41 160.047 40.968 160.069 40.968C160.559 40.7973 161.071 40.6693 161.605 40.584C161.69 40.5627 161.775 40.552 161.861 40.552C161.967 40.5307 162.063 40.5093 162.149 40.488C162.426 40.4027 162.703 40.3707 162.981 40.392C163.258 40.4133 163.535 40.4133 163.812 40.392C163.877 40.392 163.941 40.4027 164.005 40.424C164.09 40.4453 164.165 40.4667 164.229 40.488C164.293 40.488 164.378 40.5093 164.485 40.552C164.591 40.5947 164.655 40.5947 164.677 40.552C164.89 40.5093 165.039 40.5307 165.125 40.616C165.231 40.7013 165.285 40.744 165.285 40.744C165.327 40.7653 165.413 40.776 165.541 40.776C165.69 40.7547 165.775 40.744 165.797 40.744C165.989 40.7013 166.095 40.616 166.117 40.488C166.159 40.3387 166.159 40.264 166.117 40.264L166.053 40.2C166.074 39.9227 166.063 39.6453 166.021 39.368C165.999 39.0907 165.999 38.8133 166.021 38.536C166.042 38.4293 166.053 38.3227 166.053 38.216C166.053 38.088 166.053 37.9707 166.053 37.864C166.031 37.7573 166.031 37.6613 166.053 37.576C166.074 37.4693 166.085 37.3627 166.085 37.256C166.085 37.1493 166.085 37.0533 166.085 36.968C166.106 36.8613 166.095 36.776 166.053 36.712C165.989 36.5413 165.957 36.3707 165.957 36.2C165.978 36.0293 166.01 35.8587 166.053 35.688C166.117 35.4533 166.159 35.2187 166.181 34.984C166.223 34.7493 166.223 34.4933 166.181 34.216V34.056C166.266 33.8427 166.309 33.6293 166.309 33.416C166.33 33.2027 166.351 33.0107 166.373 32.84C166.479 32.6907 166.607 32.5947 166.757 32.552C166.927 32.488 167.055 32.4133 167.141 32.328C167.482 32.3067 167.802 32.3067 168.101 32.328C168.399 32.3493 168.698 32.3173 168.997 32.232C169.146 32.296 169.285 32.3493 169.413 32.392C169.562 32.4133 169.69 32.4347 169.797 32.456C170.031 32.6267 170.149 32.8507 170.149 33.128C170.149 33.2347 170.149 33.352 170.149 33.48C170.149 33.608 170.138 33.736 170.117 33.864C170.138 33.9493 170.17 34.024 170.213 34.088C170.255 34.152 170.287 34.2373 170.309 34.344C170.287 34.3867 170.266 34.4507 170.245 34.536C170.245 34.6 170.234 34.6747 170.213 34.76C170.234 34.8453 170.255 34.952 170.277 35.08C170.298 35.208 170.319 35.3253 170.341 35.432C170.341 35.7733 170.341 36.104 170.341 36.424C170.362 36.744 170.362 37.064 170.341 37.384C170.341 37.7253 170.341 37.9493 170.341 38.056C170.362 38.1627 170.415 38.376 170.501 38.696ZM165.829 46.76C165.765 46.5893 165.711 46.4293 165.669 46.28C165.647 46.1093 165.615 45.96 165.573 45.832C165.509 45.6827 165.423 45.544 165.317 45.416C165.231 45.288 165.157 45.1493 165.093 45C164.879 44.8933 164.719 44.7867 164.613 44.68C164.506 44.6373 164.399 44.6053 164.293 44.584C164.207 44.5627 164.111 44.5413 164.005 44.52C163.919 44.4773 163.834 44.4453 163.749 44.424C163.685 44.3813 163.61 44.3493 163.525 44.328C163.375 44.392 163.226 44.456 163.077 44.52C162.949 44.584 162.821 44.648 162.693 44.712C162.351 44.8613 162.117 45.1387 161.989 45.544C161.967 45.6293 161.957 45.7147 161.957 45.8C161.957 45.8853 161.946 45.9813 161.925 46.088C161.903 46.152 161.861 46.216 161.797 46.28C161.754 46.344 161.711 46.4293 161.669 46.536V47.112C161.711 47.3893 161.786 47.656 161.893 47.912C162.021 48.1467 162.223 48.3493 162.501 48.52C162.565 48.5413 162.618 48.584 162.661 48.648C162.725 48.6907 162.799 48.7333 162.885 48.776C163.013 48.904 163.141 48.968 163.269 48.968C163.61 48.9253 163.941 48.8933 164.26 48.872C164.581 48.8293 164.89 48.744 165.189 48.616C165.317 48.5093 165.413 48.4027 165.477 48.296C165.541 48.2107 165.594 48.136 165.637 48.072C165.679 47.9867 165.733 47.9013 165.797 47.816V47.272C165.797 47.1653 165.797 47.0693 165.797 46.984C165.797 46.8987 165.807 46.824 165.829 46.76ZM184.672 39.496C184.715 39.8373 184.661 40.0827 184.512 40.232C184.405 40.36 184.331 40.4987 184.288 40.648C184.267 40.7973 184.245 40.9573 184.224 41.128C184.181 41.192 184.139 41.256 184.096 41.32C184.075 41.384 184.043 41.448 184 41.512C183.915 41.5973 183.829 41.6933 183.744 41.8C183.68 41.9067 183.616 42.0133 183.552 42.12C183.509 42.2053 183.477 42.3013 183.456 42.408C183.435 42.5147 183.403 42.6213 183.36 42.728C183.339 42.7493 183.317 42.7813 183.296 42.824C183.296 42.8453 183.285 42.8667 183.264 42.888C183.243 42.9093 183.211 42.92 183.168 42.92C183.147 42.92 183.125 42.9307 183.104 42.952H182.944C182.475 42.76 182.016 42.7493 181.568 42.92C181.483 42.9413 181.408 42.952 181.344 42.952C181.28 42.952 181.205 42.952 181.12 42.952C181.056 42.9733 180.992 42.984 180.928 42.984C180.885 42.984 180.843 42.9947 180.8 43.016C180.544 43.1227 180.32 43.2613 180.128 43.432C179.936 43.6027 179.755 43.784 179.584 43.976C179.499 44.232 179.403 44.4987 179.296 44.776C179.211 45.032 179.168 45.32 179.168 45.64C179.168 45.6613 179.157 45.704 179.136 45.768C179.115 45.8107 179.093 45.8533 179.072 45.896C179.051 45.9813 179.019 46.056 178.976 46.12C178.955 46.1627 178.923 46.2267 178.88 46.312C178.837 46.44 178.784 46.568 178.72 46.696C178.656 46.824 178.603 46.952 178.56 47.08C178.603 47.2293 178.592 47.368 178.528 47.496C178.485 47.624 178.464 47.752 178.464 47.88C178.507 48.072 178.507 48.2533 178.464 48.424C178.443 48.5733 178.411 48.7333 178.368 48.904C178.304 49.096 178.272 49.2987 178.272 49.512C178.293 49.704 178.304 49.896 178.304 50.088C178.283 50.3227 178.272 50.568 178.272 50.824C178.293 51.08 178.304 51.3253 178.304 51.56C178.304 51.7093 178.293 51.8693 178.272 52.04C178.251 52.2107 178.24 52.3813 178.24 52.552C178.176 52.68 178.123 52.7653 178.08 52.808C177.931 53.0427 177.749 53.2027 177.536 53.288C177.323 53.3947 177.088 53.4373 176.832 53.416C176.661 53.3947 176.48 53.3733 176.288 53.352C176.117 53.3307 175.947 53.3093 175.776 53.288C175.691 53.2667 175.584 53.2347 175.456 53.192C175.328 53.1707 175.211 53.1387 175.104 53.096C175.019 53.1173 174.944 53.128 174.88 53.128C174.837 53.1493 174.784 53.1707 174.72 53.192C174.443 53.1067 174.187 52.9467 173.952 52.712C173.973 52.5627 173.984 52.4133 173.984 52.264C173.984 52.1147 173.995 51.9653 174.016 51.816C173.995 51.752 173.973 51.6773 173.952 51.592C173.952 51.4853 173.931 51.3893 173.888 51.304C173.867 51.176 173.835 51.048 173.792 50.92C173.749 50.792 173.739 50.6533 173.76 50.504C173.739 50.184 173.675 49.8107 173.568 49.384C173.611 49.3413 173.643 49.288 173.664 49.224C173.707 49.1387 173.739 49.064 173.76 49C173.781 48.936 173.792 48.8827 173.792 48.84C173.813 48.776 173.824 48.712 173.824 48.648C173.824 48.6053 173.835 48.5733 173.856 48.552C173.877 48.5093 173.867 48.4667 173.824 48.424C173.803 48.36 173.781 48.296 173.76 48.232C173.76 48.1467 173.749 48.072 173.728 48.008C173.707 47.7947 173.707 47.5813 173.728 47.368C173.749 47.2827 173.76 47.208 173.76 47.144C173.781 47.0587 173.803 46.9733 173.824 46.888C173.867 46.7813 173.877 46.664 173.856 46.536C173.856 46.408 173.803 46.3013 173.696 46.216C173.675 46.1947 173.653 46.1733 173.632 46.152C173.632 46.1093 173.611 46.0773 173.568 46.056C173.547 45.9493 173.525 45.832 173.504 45.704C173.504 45.576 173.483 45.4587 173.44 45.352C173.419 45.2027 173.387 45.064 173.344 44.936C173.323 44.808 173.312 44.6693 173.312 44.52C173.355 44.264 173.365 44.0187 173.344 43.784C173.323 43.528 173.344 43.272 173.408 43.016C173.408 42.9733 173.397 42.92 173.376 42.856C173.376 42.792 173.376 42.7387 173.376 42.696C173.355 42.4613 173.333 42.2267 173.312 41.992C173.312 41.7573 173.355 41.5227 173.44 41.288C173.483 41.2027 173.504 41.1067 173.504 41C173.504 40.8933 173.504 40.7867 173.504 40.68C173.504 40.488 173.504 40.3067 173.504 40.136C173.525 39.944 173.579 39.7627 173.664 39.592C173.664 39.528 173.632 39.4213 173.568 39.272C173.611 39.1653 173.643 39.0587 173.664 38.952C173.707 38.824 173.739 38.7067 173.76 38.6C173.803 38.4933 173.835 38.3973 173.856 38.312C173.877 38.2053 173.899 38.1093 173.92 38.024C174.048 37.896 174.165 37.8427 174.272 37.864C174.485 37.928 174.699 37.9387 174.912 37.896C175.147 37.832 175.371 37.8107 175.584 37.832C175.648 37.832 175.712 37.8213 175.776 37.8C175.84 37.7573 175.904 37.7253 175.968 37.704C176.331 37.5973 176.629 37.608 176.864 37.736C177.013 37.992 177.099 38.184 177.12 38.312C177.141 38.44 177.163 38.7493 177.184 39.24C177.248 39.4747 177.365 39.6987 177.536 39.912C177.579 39.9547 177.643 39.9867 177.728 40.008C177.835 40.008 177.909 39.9867 177.952 39.944C178.037 39.88 178.112 39.8267 178.176 39.784C178.24 39.72 178.304 39.6453 178.368 39.56C178.496 39.4533 178.613 39.3467 178.72 39.24C178.848 39.112 178.955 39.0053 179.04 38.92C179.275 38.8133 179.499 38.7067 179.712 38.6C179.947 38.4933 180.203 38.3867 180.48 38.28H181.216L181.28 38.248C181.301 38.248 181.312 38.248 181.312 38.248C181.333 38.2267 181.355 38.2267 181.376 38.248L181.472 38.216C181.728 38.344 181.952 38.376 182.144 38.312C182.485 38.2053 182.816 38.248 183.136 38.44C183.328 38.5253 183.509 38.6107 183.68 38.696C183.851 38.7813 184.032 38.8773 184.224 38.984C184.288 39.0693 184.363 39.1547 184.448 39.24C184.533 39.3253 184.608 39.4107 184.672 39.496ZM202.987 51.432C203.051 51.5813 203.072 51.72 203.051 51.848C203.029 51.976 202.987 52.104 202.923 52.232C202.901 52.2533 202.859 52.2853 202.795 52.328C202.731 52.3493 202.677 52.3813 202.635 52.424C202.549 52.4453 202.475 52.456 202.411 52.456C202.347 52.456 202.272 52.4773 202.187 52.52C201.867 52.584 201.675 52.7547 201.611 53.032C201.589 53.0747 201.547 53.128 201.483 53.192C201.333 53.2133 201.227 53.2347 201.163 53.256C201.099 53.2987 200.971 53.3733 200.779 53.48C200.629 53.48 200.48 53.5013 200.331 53.544C200.181 53.5867 200.043 53.672 199.915 53.8C199.872 53.8 199.84 53.8 199.819 53.8C199.797 53.8213 199.765 53.832 199.723 53.832C199.637 53.8747 199.541 53.8533 199.435 53.768C199.328 53.704 199.275 53.6187 199.275 53.512V53.32C199.189 53.2773 199.083 53.2773 198.955 53.32C198.848 53.3627 198.763 53.32 198.699 53.192V52.712C198.635 52.6693 198.571 52.6373 198.507 52.616C198.464 52.5733 198.411 52.5413 198.347 52.52C198.261 52.3493 198.165 52.168 198.059 51.976C197.952 51.784 197.845 51.6133 197.739 51.464C197.653 51.4 197.579 51.3787 197.515 51.4C197.451 51.4213 197.397 51.4533 197.355 51.496C197.312 51.5387 197.28 51.592 197.259 51.656C197.237 51.6987 197.205 51.7413 197.163 51.784C197.12 51.8267 197.088 51.88 197.067 51.944C197.045 52.008 197.013 52.0613 196.971 52.104C196.693 52.232 196.416 52.3493 196.139 52.456C195.861 52.5413 195.595 52.616 195.339 52.68C195.189 52.7867 195.04 52.8827 194.891 52.968C194.741 53.0533 194.603 53.1387 194.475 53.224C194.347 53.2453 194.219 53.2773 194.091 53.32C193.963 53.3627 193.845 53.3947 193.739 53.416C193.611 53.352 193.483 53.3307 193.355 53.352C193.248 53.3947 193.109 53.4373 192.939 53.48C192.747 53.4373 192.544 53.384 192.331 53.32C192.117 53.2773 191.893 53.2347 191.659 53.192C191.595 53.2133 191.531 53.224 191.467 53.224C191.403 53.224 191.349 53.2347 191.307 53.256C191.221 53.2133 191.147 53.1707 191.083 53.128C191.04 53.0853 190.976 53.0533 190.891 53.032C190.784 52.9893 190.688 52.9893 190.603 53.032C190.517 53.0747 190.421 53.1173 190.315 53.16C190.208 53.1173 190.091 53.0853 189.963 53.064C189.835 53.064 189.707 53.0533 189.579 53.032C189.472 52.9253 189.376 52.8293 189.291 52.744C189.227 52.6587 189.184 52.552 189.163 52.424C189.12 52.3813 189.077 52.3493 189.035 52.328C188.992 52.2853 188.96 52.2533 188.939 52.232C188.853 51.9333 188.757 51.6773 188.651 51.464C188.352 50.824 188.149 50.12 188.043 49.352C188 49.3093 187.957 49.2667 187.915 49.224C187.872 49.16 187.819 49.096 187.755 49.032C187.733 48.84 187.712 48.6587 187.691 48.488C187.669 48.296 187.637 48.0933 187.595 47.88C187.637 47.752 187.659 47.6347 187.659 47.528C187.616 47.3147 187.573 47.1227 187.531 46.952C187.616 46.696 187.701 46.44 187.787 46.184C187.893 45.928 187.925 45.6613 187.883 45.384C187.925 45.2987 187.979 45.224 188.043 45.16C188.107 45.0747 188.16 45 188.203 44.936C188.395 44.7227 188.533 44.4773 188.619 44.2C188.683 43.9653 188.789 43.7627 188.939 43.592C189.109 43.4213 189.291 43.2827 189.483 43.176C189.717 43.0693 189.941 42.9627 190.155 42.856C190.389 42.728 190.613 42.6213 190.827 42.536C190.869 42.536 190.923 42.5467 190.987 42.568C191.072 42.568 191.136 42.5573 191.179 42.536C191.563 42.472 191.893 42.4507 192.171 42.472C192.299 42.4933 192.427 42.4933 192.555 42.472C192.683 42.4507 192.8 42.44 192.907 42.44L193.579 42.312C193.707 42.3333 193.835 42.3653 193.963 42.408C194.091 42.4507 194.219 42.44 194.347 42.376C194.389 42.376 194.421 42.3867 194.443 42.408C194.485 42.408 194.517 42.408 194.539 42.408C194.645 42.4507 194.741 42.504 194.827 42.568C194.912 42.6107 195.008 42.632 195.115 42.632C195.349 42.6747 195.499 42.632 195.563 42.504C195.541 42.1413 195.509 41.9067 195.467 41.8C195.445 41.6933 195.381 41.5227 195.275 41.288C195.211 41.16 195.168 41.032 195.147 40.904C195.125 40.7547 195.104 40.616 195.083 40.488C195.061 40.4027 195.04 40.328 195.019 40.264C195.019 40.1787 194.976 40.0933 194.891 40.008C194.613 39.9227 194.272 39.8587 193.867 39.816H193.675C193.483 39.9013 193.28 39.944 193.067 39.944C192.853 39.944 192.629 39.9653 192.395 40.008C192.245 40.0293 192.085 40.072 191.915 40.136C191.765 40.2 191.605 40.2533 191.435 40.296C191.264 40.3813 191.093 40.3387 190.923 40.168C190.859 39.976 190.827 39.784 190.827 39.592C190.848 39.3787 190.869 39.1653 190.891 38.952C190.848 38.8027 190.795 38.632 190.731 38.44C190.667 38.2267 190.635 37.9813 190.635 37.704L190.667 37.48C190.645 37.4373 190.603 37.3947 190.539 37.352C190.496 37.3093 190.453 37.2773 190.411 37.256C190.347 37.192 190.336 37.128 190.379 37.064C190.379 37 190.411 36.968 190.475 36.968C190.645 36.9253 190.805 36.8933 190.955 36.872C191.104 36.8507 191.253 36.8293 191.403 36.808L191.787 36.424C191.829 36.4027 191.883 36.392 191.947 36.392C192.437 36.4773 192.789 36.5093 193.003 36.488C193.237 36.4667 193.589 36.3813 194.059 36.232C194.293 36.2533 194.517 36.2853 194.731 36.328C194.965 36.3707 195.2 36.3813 195.435 36.36C195.499 36.424 195.563 36.488 195.627 36.552C195.712 36.5947 195.797 36.648 195.883 36.712C195.989 36.6693 196.096 36.6373 196.203 36.616C196.309 36.5733 196.405 36.5413 196.491 36.52C196.619 36.6053 196.757 36.6907 196.907 36.776C197.013 36.7973 197.099 36.776 197.163 36.712C197.248 36.648 197.333 36.616 197.419 36.616C197.611 36.6373 197.76 36.7333 197.867 36.904C197.995 37.0533 198.133 37.1813 198.283 37.288C198.411 37.3733 198.528 37.48 198.635 37.608C198.763 37.736 198.891 37.8533 199.019 37.96C199.061 38.024 199.104 38.088 199.147 38.152C199.189 38.216 199.221 38.28 199.243 38.344C199.349 38.4293 199.445 38.504 199.531 38.568C199.616 38.6107 199.691 38.6747 199.755 38.76C199.861 38.8453 199.968 38.9093 200.075 38.952C200.203 38.9947 200.299 39.0693 200.363 39.176C200.405 39.2827 200.448 39.4 200.491 39.528C200.533 39.6347 200.608 39.7307 200.715 39.816C200.779 40.0293 200.843 40.2533 200.907 40.488C200.971 40.7013 200.981 40.9253 200.939 41.16C200.939 41.2667 200.928 41.3627 200.907 41.448C200.949 41.5547 200.981 41.672 201.003 41.8C201.024 41.928 201.056 42.0453 201.099 42.152V42.312C201.099 42.376 201.088 42.4507 201.067 42.536C201.067 42.6 201.077 42.6533 201.099 42.696C201.141 42.824 201.195 42.92 201.259 42.984C201.259 43.112 201.205 43.2293 201.099 43.336C201.056 43.3573 201.003 43.3787 200.939 43.4C200.875 43.4213 200.821 43.4533 200.779 43.496C200.523 43.6453 200.491 43.8373 200.683 44.072C200.704 44.0933 200.736 44.136 200.779 44.2C200.843 44.2427 200.885 44.296 200.907 44.36C200.928 44.4453 200.939 44.5413 200.939 44.648C200.939 44.7333 200.949 44.8293 200.971 44.936C200.885 45.3413 200.725 45.7253 200.491 46.088C200.555 46.3867 200.651 46.6747 200.779 46.952C200.928 47.2293 201.056 47.5173 201.163 47.816C201.269 47.88 201.355 47.944 201.419 48.008C201.483 48.072 201.557 48.1253 201.643 48.168C201.664 48.232 201.675 48.2747 201.675 48.296C201.696 48.3173 201.707 48.3493 201.707 48.392C201.707 48.6053 201.728 48.8187 201.771 49.032C201.835 49.2453 201.909 49.448 201.995 49.64C202.08 49.832 202.165 50.0133 202.251 50.184C202.336 50.3547 202.443 50.5253 202.571 50.696C202.677 50.7813 202.763 50.8987 202.827 51.048C202.891 51.1973 202.944 51.3253 202.987 51.432ZM195.979 47.112C195.851 46.792 195.691 46.5787 195.499 46.472C195.264 46.3653 195.115 46.2267 195.051 46.056C195.029 45.9707 194.987 45.9173 194.923 45.896C194.859 45.8747 194.795 45.8533 194.731 45.832C194.645 45.832 194.539 45.8427 194.411 45.864C194.304 45.864 194.197 45.8747 194.091 45.896C193.963 45.896 193.835 45.8747 193.707 45.832C193.6 45.7893 193.493 45.7573 193.387 45.736C193.195 45.736 193.013 45.7893 192.843 45.896C192.757 45.96 192.683 46.024 192.619 46.088C192.555 46.1307 192.491 46.1947 192.427 46.28L192.011 47.048C192.053 47.176 192.107 47.2933 192.171 47.4C192.235 47.4853 192.235 47.6133 192.171 47.784C192.213 47.976 192.256 48.1787 192.299 48.392C192.363 48.584 192.448 48.776 192.555 48.968C192.597 49.0107 192.629 49.032 192.651 49.032C192.885 49.0747 193.12 49.096 193.355 49.096C193.589 49.096 193.813 49.0853 194.027 49.064C194.112 49.064 194.176 49.0533 194.219 49.032C194.453 48.904 194.741 48.7867 195.083 48.68C195.211 48.6587 195.328 48.5627 195.435 48.392C195.52 48.2 195.605 47.9973 195.691 47.784C195.776 47.5493 195.872 47.3253 195.979 47.112ZM189.195 52.36C189.195 52.36 189.184 52.36 189.163 52.36C189.163 52.36 189.163 52.3813 189.163 52.424C189.205 52.3813 189.216 52.36 189.195 52.36ZM227.249 41.864C227.206 42.056 227.164 42.248 227.121 42.44C227.1 42.632 227.036 42.8133 226.929 42.984C226.844 43.176 226.78 43.368 226.737 43.56C226.694 43.752 226.652 43.944 226.609 44.136C226.652 44.2853 226.63 44.424 226.545 44.552C226.46 44.6587 226.417 44.7867 226.417 44.936C226.289 45.1493 226.182 45.3627 226.097 45.576C226.033 45.7893 225.98 45.992 225.937 46.184C225.724 46.632 225.5 47.048 225.265 47.432C225.158 47.624 225.041 47.816 224.913 48.008C224.806 48.2 224.689 48.4133 224.561 48.648C224.39 48.712 224.22 48.7653 224.049 48.808C223.921 48.9787 223.804 49.1707 223.697 49.384C223.612 49.5973 223.558 49.8213 223.537 50.056C223.537 50.0773 223.526 50.12 223.505 50.184C223.484 50.2267 223.462 50.2693 223.441 50.312C223.42 50.3973 223.388 50.472 223.345 50.536C223.324 50.6 223.292 50.6747 223.249 50.76C223.185 50.8027 223.121 50.856 223.057 50.92C222.993 50.984 222.929 51.0373 222.865 51.08C222.822 51.1867 222.78 51.304 222.737 51.432C222.694 51.56 222.652 51.6987 222.609 51.848C222.524 51.9333 222.428 52.0293 222.321 52.136C222.236 52.2427 222.15 52.3493 222.065 52.456C222.022 52.456 221.98 52.4667 221.937 52.488C221.916 52.488 221.884 52.488 221.841 52.488C221.692 52.4667 221.532 52.456 221.361 52.456C221.19 52.4347 221.02 52.4453 220.849 52.488C220.764 52.5093 220.678 52.52 220.593 52.52C220.508 52.52 220.412 52.52 220.305 52.52C220.156 52.4773 220.017 52.4347 219.889 52.392C219.761 52.328 219.644 52.2853 219.537 52.264C219.281 52.0933 219.142 51.9013 219.121 51.688C219.121 51.624 219.11 51.56 219.089 51.496C219.089 51.432 219.068 51.368 219.025 51.304C218.982 51.2827 218.94 51.272 218.897 51.272C218.876 51.272 218.844 51.2613 218.801 51.24C218.63 51.176 218.566 51.0587 218.609 50.888C218.609 50.8453 218.62 50.8027 218.641 50.76C218.662 50.7173 218.673 50.6747 218.673 50.632V50.312C218.46 50.1413 218.268 49.9813 218.097 49.832C217.99 49.4907 217.873 49.1707 217.745 48.872C217.638 48.552 217.532 48.232 217.425 47.912C217.404 47.8693 217.372 47.8373 217.329 47.816C217.286 47.7733 217.244 47.7307 217.201 47.688L217.041 47.528C217.02 47.4427 217.009 47.368 217.009 47.304C217.03 47.2187 217.02 47.1547 216.977 47.112C216.956 46.9413 216.849 46.824 216.657 46.76C216.593 46.76 216.54 46.7707 216.497 46.792C216.476 46.8347 216.454 46.888 216.433 46.952C216.412 47.016 216.38 47.0693 216.337 47.112C216.316 47.2613 216.262 47.3787 216.177 47.464C215.921 47.8053 215.772 48.2427 215.729 48.776C215.729 48.776 215.708 48.8507 215.665 49C215.622 49.064 215.569 49.1387 215.505 49.224C215.441 49.3093 215.377 49.4053 215.313 49.512C215.228 49.896 215.164 50.1413 215.121 50.248C215.1 50.3547 215.004 50.536 214.833 50.792C214.79 51.0267 214.769 51.2827 214.769 51.56C214.769 51.816 214.652 52.0827 214.417 52.36C214.438 52.3387 214.428 52.3493 214.385 52.392C214.364 52.4347 214.332 52.456 214.289 52.456C214.204 52.4773 214.108 52.4987 214.001 52.52C213.894 52.52 213.788 52.5413 213.681 52.584C213.596 52.6267 213.5 52.68 213.393 52.744C213.286 52.7867 213.19 52.84 213.105 52.904C213.02 52.904 212.924 52.8933 212.817 52.872C212.71 52.8507 212.604 52.84 212.497 52.84C212.412 52.8613 212.326 52.8933 212.241 52.936C212.177 52.9573 212.102 52.9893 212.017 53.032C211.953 53.0533 211.878 53.064 211.793 53.064C211.729 53.064 211.644 53.0747 211.537 53.096C211.516 53.16 211.484 53.2133 211.441 53.256C211.42 53.32 211.388 53.3733 211.345 53.416C211.302 53.3733 211.26 53.3413 211.217 53.32C211.196 53.32 211.174 53.3093 211.153 53.288C211.089 53.1813 211.025 53.064 210.961 52.936C210.918 52.808 210.865 52.6907 210.801 52.584C210.716 52.264 210.545 51.9653 210.289 51.688C210.076 51.4533 209.958 51.2293 209.937 51.016C209.809 50.6107 209.617 50.28 209.361 50.024C209.34 49.704 209.244 49.4053 209.073 49.128C208.924 48.8507 208.817 48.5093 208.753 48.104C208.753 48.104 208.753 48.0507 208.753 47.944C208.774 47.8373 208.774 47.7307 208.753 47.624C208.732 47.3467 208.678 47.08 208.593 46.824C208.508 46.5467 208.412 46.2907 208.305 46.056C208.156 45.7147 207.985 45.3947 207.793 45.096C207.601 44.7973 207.409 44.5093 207.217 44.232C207.068 43.8267 206.908 43.432 206.737 43.048C206.566 42.664 206.342 42.3227 206.065 42.024C205.937 41.7253 205.937 41.448 206.065 41.192L206.417 40.808C206.502 40.7227 206.577 40.6587 206.641 40.616C206.726 40.552 206.801 40.488 206.865 40.424C206.972 40.3173 207.078 40.2107 207.185 40.104C207.292 39.9973 207.398 39.88 207.505 39.752C207.59 39.7093 207.686 39.6667 207.793 39.624C207.9 39.56 208.006 39.496 208.113 39.432C208.284 39.3253 208.454 39.24 208.625 39.176C208.817 39.0907 209.009 39.0053 209.201 38.92C209.35 38.9627 209.478 39.0267 209.585 39.112C209.692 39.1973 209.809 39.2933 209.937 39.4C210.044 39.5707 210.161 39.752 210.289 39.944C210.417 40.136 210.545 40.3173 210.673 40.488C210.652 40.6373 210.673 40.7547 210.737 40.84C210.822 40.9253 210.886 41.032 210.929 41.16L210.993 41.672C211.036 41.8213 211.11 41.9493 211.217 42.056C211.324 42.1627 211.324 42.3013 211.217 42.472C211.452 42.6213 211.644 42.792 211.793 42.984C211.942 43.176 212.06 43.3893 212.145 43.624C212.188 43.7093 212.22 43.7947 212.241 43.88C212.284 43.9653 212.337 44.0613 212.401 44.168C212.636 44.552 212.774 45.0107 212.817 45.544C212.817 45.5653 212.828 45.5867 212.849 45.608C212.87 45.608 212.881 45.6187 212.881 45.64C212.924 45.6613 212.945 45.6827 212.945 45.704C212.966 45.7253 212.988 45.736 213.009 45.736C213.116 45.736 213.169 45.7147 213.169 45.672C213.297 45.3733 213.425 45.064 213.553 44.744C213.702 44.424 213.852 44.104 214.001 43.784C214.086 43.6347 214.15 43.4533 214.193 43.24C214.3 43.0053 214.385 42.76 214.449 42.504C214.513 42.248 214.609 42.0027 214.737 41.768C214.758 41.7253 214.78 41.6827 214.801 41.64C214.822 41.576 214.833 41.5333 214.833 41.512C214.897 41.0213 215.025 40.584 215.217 40.2C215.26 40.136 215.281 40.072 215.281 40.008C215.302 39.944 215.324 39.8907 215.345 39.848C215.409 39.7413 215.484 39.688 215.569 39.688C215.676 39.6667 215.772 39.624 215.857 39.56C215.921 39.5173 215.985 39.4853 216.049 39.464C216.113 39.4213 216.177 39.3787 216.241 39.336C216.71 39.4427 217.169 39.496 217.617 39.496C218.086 39.4747 218.556 39.4533 219.025 39.432C219.046 39.4533 219.068 39.4747 219.089 39.496C219.132 39.496 219.153 39.5067 219.153 39.528C219.302 40.04 219.537 40.4667 219.857 40.808C219.942 40.9787 220.006 41.1387 220.049 41.288C220.113 41.4373 220.177 41.576 220.241 41.704C220.305 41.832 220.369 41.96 220.433 42.088C220.518 42.1947 220.582 42.3013 220.625 42.408C220.732 42.8773 220.838 43.336 220.945 43.784C221.052 44.232 221.148 44.6693 221.233 45.096C221.276 45.1813 221.329 45.2453 221.393 45.288C221.457 45.3093 221.521 45.3307 221.585 45.352C221.67 45.2667 221.692 45.1813 221.649 45.096C221.628 45.0107 221.649 44.8933 221.713 44.744C221.798 44.5733 221.873 44.4773 221.937 44.456C222.065 44.328 222.129 44.1467 222.129 43.912C222.172 43.8053 222.204 43.7093 222.225 43.624C222.246 43.5387 222.278 43.4533 222.321 43.368C222.406 43.24 222.47 43.0907 222.513 42.92C222.556 42.7493 222.588 42.5893 222.609 42.44C222.652 42.2267 222.694 42.024 222.737 41.832C222.801 41.64 222.865 41.4373 222.929 41.224C222.993 41.1173 223.057 41.0213 223.121 40.936C223.185 40.8293 223.238 40.7333 223.281 40.648C223.388 40.4347 223.505 40.2427 223.633 40.072C223.761 39.88 223.825 39.6773 223.825 39.464C223.996 39.3573 224.134 39.2933 224.241 39.272C224.369 39.2507 224.508 39.2293 224.657 39.208C224.764 39.2933 224.881 39.3787 225.009 39.464C225.158 39.528 225.286 39.624 225.393 39.752C225.457 39.8373 225.532 39.912 225.617 39.976C225.724 40.0187 225.82 40.0827 225.905 40.168C226.012 40.2533 226.097 40.36 226.161 40.488C226.246 40.616 226.353 40.712 226.481 40.776C226.609 40.84 226.726 40.9253 226.833 41.032C226.94 41.1173 227.046 41.192 227.153 41.256C227.238 41.4693 227.27 41.672 227.249 41.864Z" fill="#E36B08"/>
</g>
<defs>
<filter id="filter0_d_1043_8202" x="0" y="0" width="251" height="78" filterUnits="userSpaceOnUse" color-interpolation-filters="sRGB">
<feFlood flood-opacity="0" result="BackgroundImageFix"/>
<feColorMatrix in="SourceAlpha" type="matrix" values="0 0 0 0 0 0 0 0 0 0 0 0 0 0 0 0 0 0 127 0" result="hardAlpha"/>
<feOffset/>
<feGaussianBlur stdDeviation="2"/>
<feComposite in2="hardAlpha" operator="out"/>
<feColorMatrix type="matrix" values="0 0 0 0 0 0 0 0 0 0 0 0 0 0 0 0 0 0 0.25 0"/>
<feBlend mode="normal" in2="BackgroundImageFix" result="effect1_dropShadow_1043_8202"/>
<feBlend mode="normal" in="SourceGraphic" in2="effect1_dropShadow_1043_8202" result="shape"/>
</filter>
</defs>
</svg>
